<?xml version="1.0" encoding="UTF-8" standalone="no"?>
<svg xmlns="http://www.w3.org/2000/svg" xmlns:xlink="http://www.w3.org/1999/xlink"  version="1.2" baseProfile="tiny">
<title>pyqtgraph SVG export</title>
<desc>Generated with Qt and pyqtgraph</desc>
<defs>
</defs>
<g fill="none" fill-rule="evenodd" id="PlotItem_1" stroke="black" stroke-linecap="square" stroke-linejoin="bevel" stroke-width="1">
    <g fill="none" fill-rule="evenodd" id="AxisItem_1" stroke="black" stroke-linecap="square" stroke-linejoin="bevel" stroke-width="1">
        <g fill="none" font-family="MS Shell Dlg 2" font-size="11" font-style="normal" font-weight="400" stroke="#969696" stroke-linecap="square" stroke-linejoin="bevel" stroke-opacity="1" stroke-width="1">
            <polyline fill="none" points="64.8,320.2 668.0,320.2" vector-effect="non-scaling-stroke"/>
        </g>
        <g fill="none" font-family="MS Shell Dlg 2" font-size="11" font-style="normal" font-weight="400" stroke="#969696" stroke-linecap="square" stroke-linejoin="bevel" stroke-opacity="0.498039" stroke-width="1">
            <polyline fill="none" points="88.9882,31.0 88.9882,320.2" vector-effect="non-scaling-stroke"/>
            <polyline fill="none" points="452.904,31.0 452.904,320.2" vector-effect="non-scaling-stroke"/>
        </g>
        <g fill="none" font-family="MS Shell Dlg 2" font-size="11" font-style="normal" font-weight="400" stroke="#969696" stroke-linecap="square" stroke-linejoin="bevel" stroke-opacity="0.247059" stroke-width="1">
            <polyline fill="none" points="270.946,31.0 270.946,320.2" vector-effect="non-scaling-stroke"/>
            <polyline fill="none" points="634.863,31.0 634.863,320.2" vector-effect="non-scaling-stroke"/>
        </g>
        <g fill="none" font-family="MS Shell Dlg 2" font-size="11" font-style="normal" font-weight="400" stroke="#969696" stroke-linecap="square" stroke-linejoin="bevel" stroke-opacity="0.164706" stroke-width="1">
            <polyline fill="none" points="125.3798,31.0 125.3798,320.2" vector-effect="non-scaling-stroke"/>
            <polyline fill="none" points="161.7715,31.0 161.7715,320.2" vector-effect="non-scaling-stroke"/>
            <polyline fill="none" points="198.163,31.0 198.163,320.2" vector-effect="non-scaling-stroke"/>
            <polyline fill="none" points="234.555,31.0 234.555,320.2" vector-effect="non-scaling-stroke"/>
            <polyline fill="none" points="307.338,31.0 307.338,320.2" vector-effect="non-scaling-stroke"/>
            <polyline fill="none" points="343.73,31.0 343.73,320.2" vector-effect="non-scaling-stroke"/>
            <polyline fill="none" points="380.121,31.0 380.121,320.2" vector-effect="non-scaling-stroke"/>
            <polyline fill="none" points="416.513,31.0 416.513,320.2" vector-effect="non-scaling-stroke"/>
            <polyline fill="none" points="489.296,31.0 489.296,320.2" vector-effect="non-scaling-stroke"/>
            <polyline fill="none" points="525.688,31.0 525.688,320.2" vector-effect="non-scaling-stroke"/>
            <polyline fill="none" points="562.079,31.0 562.079,320.2" vector-effect="non-scaling-stroke"/>
            <polyline fill="none" points="598.471,31.0 598.471,320.2" vector-effect="non-scaling-stroke"/>
        </g>
        <g fill="none" font-family="MS Shell Dlg 2" font-size="11" font-style="normal" font-weight="400" stroke="#969696" stroke-linecap="square" stroke-linejoin="bevel" stroke-opacity="1" stroke-width="1" transform="matrix(1,0,0,1,65.3,320.2)">
            <text fill="#969696" fill-opacity="1" font-family="&quot;MS Shell Dlg 2&quot;, sans-serif" font-size="11" font-style="normal" font-weight="400" stroke="none" x="20.6875" xml:space="preserve" y="12">0</text>
            <text fill="#969696" fill-opacity="1" font-family="&quot;MS Shell Dlg 2&quot;, sans-serif" font-size="11" font-style="normal" font-weight="400" stroke="none" x="381.594" xml:space="preserve" y="12">20</text>
            <text fill="#969696" fill-opacity="1" font-family="&quot;MS Shell Dlg 2&quot;, sans-serif" font-size="11" font-style="normal" font-weight="400" stroke="none" x="199.641" xml:space="preserve" y="12">10</text>
            <text fill="#969696" fill-opacity="1" font-family="&quot;MS Shell Dlg 2&quot;, sans-serif" font-size="11" font-style="normal" font-weight="400" stroke="none" x="563.562" xml:space="preserve" y="12">30</text>
            <text fill="#969696" fill-opacity="1" font-family="&quot;MS Shell Dlg 2&quot;, sans-serif" font-size="11" font-style="normal" font-weight="400" stroke="none" x="57.0781" xml:space="preserve" y="12">2</text>
            <text fill="#969696" fill-opacity="1" font-family="&quot;MS Shell Dlg 2&quot;, sans-serif" font-size="11" font-style="normal" font-weight="400" stroke="none" x="93.4688" xml:space="preserve" y="12">4</text>
            <text fill="#969696" fill-opacity="1" font-family="&quot;MS Shell Dlg 2&quot;, sans-serif" font-size="11" font-style="normal" font-weight="400" stroke="none" x="129.859" xml:space="preserve" y="12">6</text>
            <text fill="#969696" fill-opacity="1" font-family="&quot;MS Shell Dlg 2&quot;, sans-serif" font-size="11" font-style="normal" font-weight="400" stroke="none" x="166.25" xml:space="preserve" y="12">8</text>
            <text fill="#969696" fill-opacity="1" font-family="&quot;MS Shell Dlg 2&quot;, sans-serif" font-size="11" font-style="normal" font-weight="400" stroke="none" x="236.031" xml:space="preserve" y="12">12</text>
            <text fill="#969696" fill-opacity="1" font-family="&quot;MS Shell Dlg 2&quot;, sans-serif" font-size="11" font-style="normal" font-weight="400" stroke="none" x="272.422" xml:space="preserve" y="12">14</text>
            <text fill="#969696" fill-opacity="1" font-family="&quot;MS Shell Dlg 2&quot;, sans-serif" font-size="11" font-style="normal" font-weight="400" stroke="none" x="308.812" xml:space="preserve" y="12">16</text>
            <text fill="#969696" fill-opacity="1" font-family="&quot;MS Shell Dlg 2&quot;, sans-serif" font-size="11" font-style="normal" font-weight="400" stroke="none" x="345.203" xml:space="preserve" y="12">18</text>
            <text fill="#969696" fill-opacity="1" font-family="&quot;MS Shell Dlg 2&quot;, sans-serif" font-size="11" font-style="normal" font-weight="400" stroke="none" x="417.984" xml:space="preserve" y="12">22</text>
            <text fill="#969696" fill-opacity="1" font-family="&quot;MS Shell Dlg 2&quot;, sans-serif" font-size="11" font-style="normal" font-weight="400" stroke="none" x="454.375" xml:space="preserve" y="12">24</text>
            <text fill="#969696" fill-opacity="1" font-family="&quot;MS Shell Dlg 2&quot;, sans-serif" font-size="11" font-style="normal" font-weight="400" stroke="none" x="490.766" xml:space="preserve" y="12">26</text>
            <text fill="#969696" fill-opacity="1" font-family="&quot;MS Shell Dlg 2&quot;, sans-serif" font-size="11" font-style="normal" font-weight="400" stroke="none" x="527.156" xml:space="preserve" y="12">28</text>
        </g>
        <g fill="none" fill-rule="evenodd" id="QGraphicsTextItem_1" stroke="black" stroke-linecap="square" stroke-linejoin="bevel" stroke-width="1">
            


            


            <g fill="none" font-family="MS Shell Dlg 2" font-size="11" font-style="normal" font-weight="400" stroke="#ffffff" stroke-linecap="square" stroke-linejoin="bevel" stroke-opacity="1" stroke-width="1" transform="matrix(1,0,0,1,257.8,338.2)">
                <text fill="#ffffff" fill-opacity="1" font-family="&quot;MS Shell Dlg 2&quot;, sans-serif" font-size="18.6667" font-style="normal" font-weight="400" stroke="none" x="4" xml:space="preserve" y="23">Axis along beam line (m)</text>
            </g>
            


            

        </g>
    </g>
    <g fill="none" fill-rule="evenodd" id="AxisItem_2" stroke="black" stroke-linecap="square" stroke-linejoin="bevel" stroke-width="1">
        <g fill="none" font-family="MS Shell Dlg 2" font-size="11" font-style="normal" font-weight="400" stroke="#969696" stroke-linecap="square" stroke-linejoin="bevel" stroke-opacity="1" stroke-width="1">
            <polyline fill="none" points="64.8,31.0 64.8,320.2" vector-effect="non-scaling-stroke"/>
        </g>
        <g fill="none" font-family="MS Shell Dlg 2" font-size="11" font-style="normal" font-weight="400" stroke="#969696" stroke-linecap="square" stroke-linejoin="bevel" stroke-opacity="0.498039" stroke-width="1">
            <polyline fill="none" points="668.5,227.17 65.3,227.17" vector-effect="non-scaling-stroke"/>
        </g>
        <g fill="none" font-family="MS Shell Dlg 2" font-size="11" font-style="normal" font-weight="400" stroke="#969696" stroke-linecap="square" stroke-linejoin="bevel" stroke-opacity="0.247059" stroke-width="1">
            <polyline fill="none" points="668.5,73.1014 65.3,73.1014" vector-effect="non-scaling-stroke"/>
        </g>
        <g fill="none" font-family="MS Shell Dlg 2" font-size="11" font-style="normal" font-weight="400" stroke="#969696" stroke-linecap="square" stroke-linejoin="bevel" stroke-opacity="0.164706" stroke-width="1">
            <polyline fill="none" points="668.5,319.611 65.3,319.611" vector-effect="non-scaling-stroke"/>
            <polyline fill="none" points="668.5,288.797 65.3,288.797" vector-effect="non-scaling-stroke"/>
            <polyline fill="none" points="668.5,257.984 65.3,257.984" vector-effect="non-scaling-stroke"/>
            <polyline fill="none" points="668.5,196.356 65.3,196.356" vector-effect="non-scaling-stroke"/>
            <polyline fill="none" points="668.5,165.543 65.3,165.543" vector-effect="non-scaling-stroke"/>
            <polyline fill="none" points="668.5,134.729 65.3,134.729" vector-effect="non-scaling-stroke"/>
            <polyline fill="none" points="668.5,103.9151 65.3,103.9151" vector-effect="non-scaling-stroke"/>
            <polyline fill="none" points="668.5,42.2877 65.3,42.2877" vector-effect="non-scaling-stroke"/>
        </g>
        <g fill="none" font-family="MS Shell Dlg 2" font-size="11" font-style="normal" font-weight="400" stroke="#969696" stroke-linecap="square" stroke-linejoin="bevel" stroke-opacity="1" stroke-width="1" transform="matrix(1,0,0,1,1.5,31)">
            <text fill="#969696" fill-opacity="1" font-family="&quot;MS Shell Dlg 2&quot;, sans-serif" font-size="11" font-style="normal" font-weight="400" stroke="none" x="52.7969" xml:space="preserve" y="200.969">1</text>
            <text fill="#969696" fill-opacity="1" font-family="&quot;MS Shell Dlg 2&quot;, sans-serif" font-size="11" font-style="normal" font-weight="400" stroke="none" x="26.7969" xml:space="preserve" y="46.8906">1e+10</text>
            <text fill="#969696" fill-opacity="1" font-family="&quot;MS Shell Dlg 2&quot;, sans-serif" font-size="11" font-style="normal" font-weight="400" stroke="none" x="30.7969" xml:space="preserve" y="293.406">1e-06</text>
            <text fill="#969696" fill-opacity="1" font-family="&quot;MS Shell Dlg 2&quot;, sans-serif" font-size="11" font-style="normal" font-weight="400" stroke="none" x="24.7969" xml:space="preserve" y="262.594">0.0001</text>
            <text fill="#969696" fill-opacity="1" font-family="&quot;MS Shell Dlg 2&quot;, sans-serif" font-size="11" font-style="normal" font-weight="400" stroke="none" x="36.7969" xml:space="preserve" y="231.781">0.01</text>
            <text fill="#969696" fill-opacity="1" font-family="&quot;MS Shell Dlg 2&quot;, sans-serif" font-size="11" font-style="normal" font-weight="400" stroke="none" x="26.7969" xml:space="preserve" y="170.141">1e+02</text>
            <text fill="#969696" fill-opacity="1" font-family="&quot;MS Shell Dlg 2&quot;, sans-serif" font-size="11" font-style="normal" font-weight="400" stroke="none" x="26.7969" xml:space="preserve" y="139.328">1e+04</text>
            <text fill="#969696" fill-opacity="1" font-family="&quot;MS Shell Dlg 2&quot;, sans-serif" font-size="11" font-style="normal" font-weight="400" stroke="none" x="26.7969" xml:space="preserve" y="108.516">1e+06</text>
            <text fill="#969696" fill-opacity="1" font-family="&quot;MS Shell Dlg 2&quot;, sans-serif" font-size="11" font-style="normal" font-weight="400" stroke="none" x="26.7969" xml:space="preserve" y="77.7031">1e+08</text>
            <text fill="#969696" fill-opacity="1" font-family="&quot;MS Shell Dlg 2&quot;, sans-serif" font-size="11" font-style="normal" font-weight="400" stroke="none" x="26.7969" xml:space="preserve" y="16.0781">1e+12</text>
        </g>
        <g fill="none" fill-rule="evenodd" id="QGraphicsTextItem_2" stroke="black" stroke-linecap="square" stroke-linejoin="bevel" stroke-width="1">
            


            


            <g fill="none" font-family="MS Shell Dlg 2" font-size="11" font-style="normal" font-weight="400" stroke="#ffffff" stroke-linecap="square" stroke-linejoin="bevel" stroke-opacity="1" stroke-width="1" transform="matrix(0,-1,1,0,-4,287)">
                <text fill="#ffffff" fill-opacity="1" font-family="&quot;MS Shell Dlg 2&quot;, sans-serif" font-size="18.6667" font-style="normal" font-weight="400" stroke="none" x="4" xml:space="preserve" y="23">Density (particles per m3)</text>
            </g>
            


            

        </g>
    </g>
    <g fill="none" fill-rule="evenodd" id="ViewBox_1" stroke="black" stroke-linecap="square" stroke-linejoin="bevel" stroke-width="1">
        <g fill="none" font-family="MS Shell Dlg 2" font-size="11" font-style="normal" font-weight="400" stroke="none">
            <path d="M64.8,31.0 L668.0,31.0 L668.0,320.2 L64.8,320.2 L64.8,31.0 " fill-rule="evenodd" vector-effect="non-scaling-stroke"/>
        </g>
        <clipPath id="ViewBox_1_clip">
            <path d="M64.8,31.0 L668.0,31.0 L668.0,320.2 L64.8,320.2 L64.8,31.0 " fill-rule="evenodd" vector-effect="non-scaling-stroke"/>
        </clipPath>
        <g clip-path="url(#ViewBox_1_clip)">
            <g fill="none" fill-rule="evenodd" id="ChildGroup_1" stroke="black" stroke-linecap="square" stroke-linejoin="bevel" stroke-width="1">
                <g id="PlotDataItem_1">
                    <g fill="none" fill-rule="evenodd" id="PlotCurveItem_1" stroke="black" stroke-linecap="square" stroke-linejoin="bevel" stroke-width="1">
                        <g fill="none" font-family="MS Shell Dlg 2" font-size="11" font-style="normal" font-weight="400" stroke="#ed815e" stroke-linecap="square" stroke-linejoin="bevel" stroke-opacity="1" stroke-width="1.5">
                            <path d="M88.4882000182,77.081988891 L89.6020740928,77.081372615 L90.7159481856,77.079369718 L91.8298222784,77.076134269 L92.9436963712,77.071512199 L94.057570464,77.065349439 L95.1714445568,77.057645989 L96.2853186496,77.04824778 L97.3991927424,77.037000743 L98.5130668352,77.023904878 L99.626940928,77.008497978 L100.740815021,76.990471905 L101.854689114,76.969980728 L102.968563206,76.946254102 L104.082437299,76.919137958 L105.196311392,76.888170089 L106.310185485,76.853042357 L107.424023186,76.812984417 L108.537970062,76.767688131 L109.65173498,76.716229085 L110.765681856,76.658145072 L111.879628732,76.592511678 L112.99339365,76.518404489 L114.107340526,76.43505316 L115.221105444,76.341533277 L116.33505232,76.236458219 L117.448999196,76.118903572 L118.562764114,75.987482715 L119.67671099,75.840963096 L120.790475908,75.678112163 L121.904422784,75.497235157 L123.01836966,75.297407664 L124.132134578,75.076934925 L125.246081454,74.834430319 L126.359846372,74.568815363 L127.473793248,74.279011574 L128.587740124,73.963632331 L129.701505042,73.621907289 L130.815451918,73.253066103 L131.929216836,72.85757098 L133.043163712,72.43234054 L134.157110588,71.98091837 L135.270875506,71.50022309 L136.384822382,70.99333608 L137.4985873,70.45871665 L138.612534176,69.89944618 L139.726481052,69.31398398 L140.84024597,68.70541143 L141.954192846,68.07372853 L143.067957764,67.42047597 L144.18190464,66.74873513 L145.295851516,66.05696532 L146.409616434,65.34824792 L147.52356331,64.62412362 L148.637328228,63.88459242 L149.751275104,63.1327357 L150.86522198,62.36701277 L151.978986898,61.5920457 L153.092933774,60.8062938 L154.206698692,60.01283845 L155.320645568,59.21322034 L156.434592444,58.56767123 L157.548357362,58.10700492 L158.662304238,57.80040761 L159.776069156,57.62476895 L160.890016032,57.57392618 L162.003962908,57.64171654 L163.117727826,57.83584348 L164.231674702,58.16246976 L165.34543962,58.64778711 L166.459386496,59.32260933 L167.573333372,60.12376813 L168.68709829,60.91568279 L169.801045166,61.699894 L170.914810084,62.47332038 L172.02875696,63.23596193 L173.142703836,63.98627796 L174.256468754,64.72426847 L175.37041563,65.44685208 L176.484180548,66.1524881 L177.598127424,66.84117653 L178.7120743,67.51137668 L179.825839218,68.16000717 L180.939786094,68.78860869 L182.053551012,69.39409986 L183.167497888,69.97493999 L184.281444764,70.52958839 L185.395209682,71.05958575 L186.509156558,71.56185069 L187.622921476,72.03638321 L188.736868352,72.48164262 L189.850815228,72.9007103 L190.964580146,73.290042663 L192.078527022,73.651796675 L193.19229194,73.986126405 L194.306238816,74.29349406 L195.420185692,74.574978123 L196.53395061,74.831348939 L197.647897486,75.06383906 L198.761662404,75.273526969 L199.87560928,75.461645218 L200.989556156,75.629426359 L202.103321074,75.778102944 L203.21726795,75.908907525 L204.331032868,76.022610447 L205.444979744,76.1207524 L206.55892662,76.203795591 L207.672691538,76.272972572 L208.786638414,76.32874555 L209.900403332,76.37188487 L211.014350208,76.40269867 L212.128297084,76.421649157 L213.242062002,76.4288904 L214.356008878,76.424576468 L215.469773796,76.408553292 L216.583720672,76.380820872 L217.697667548,76.340762932 L218.811432466,76.288225403 L219.925379342,76.222592009 L221.03914426,76.143092405 L222.153091136,76.048802177 L223.267038012,75.93895098 L224.38080293,75.8126144 L225.494749806,75.668559885 L226.608514724,75.505554883 L227.7224616,75.32267498 L228.836408476,75.118379486 L229.950173394,74.891743987 L231.06412027,74.641227793 L232.177885188,74.366214628 L233.291832064,74.065163802 L234.40577894,73.737613108 L235.519543858,73.382638132 L236.633490734,72.99931446 L237.747255652,72.58949092 L238.861202528,72.14885358 L239.975149404,71.68202451 L241.088914322,71.18592233 L242.202861198,70.66362842 L243.316626116,70.11514278 L244.430572992,69.54046541 L245.544519868,68.941137 L246.658284786,68.31869824 L247.772231662,67.67314913 L248.88599658,67.00911174 L249.999943456,66.49760266 L251.113890332,66.44830058 L252.22765525,66.86428688 L253.341602126,67.53448703 L254.455367044,68.18311752 L255.56931392,68.81171904 L256.683260796,69.41721021 L257.797025714,69.99805034 L258.91097259,70.55578012 L260.024737508,71.08577748 L261.138684384,71.58958311 L262.25263126,72.06565632 L263.366396178,72.51399711 L264.480343054,72.93614617 L265.594107972,73.328868051 L266.708054848,73.695244133 L267.822001724,74.034966278 L268.935766642,74.3489589 L270.049713518,74.637992344 L271.16311452,74.903453231 L272.27669748,75.146574113 L273.39210002,75.368587542 L274.50568298,75.571034208 L275.61926594,75.755454801 L276.7328489,75.923235942 L277.84643186,76.075764252 L278.96001482,76.21473449 L280.07541736,76.341687346 L281.18900032,76.457701303 L282.30258328,76.56447112 L283.41616624,76.663229349 L284.5297492,76.755208542 L285.64333216,76.817298349 L286.75691512,76.847341804 L287.87231766,76.874920155 L288.98590062,76.900033402 L290.09948358,76.922989683 L291.21306654,76.943788998 L292.3266495,76.962739485 L293.44023246,76.979995213 L294.555635,76.995710251 L295.66921796,77.009884599 L296.78280092,77.022826395 L297.89638388,77.03438157 L299.00996684,77.044858262 L300.1235498,77.05441054 L301.23895234,77.062730266 L302.3525353,77.070279647 L303.46611826,77.077058683 L304.57970122,77.082913305 L305.69328418,77.088151651 L306.80686714,77.092619652 L307.92226968,77.096471377 L309.03585264,77.099706826 L310.1494356,77.102325999 L311.26301856,77.104328896 L312.37660152,77.105715517 L313.49018448,77.106639931 L314.60376744,77.107102138 L315.71916998,77.106948069 L316.83275294,77.106177724 L317.9463359,77.104945172 L319.05991886,77.103250413 L320.17350182,77.100939378 L321.28708478,77.098012067 L322.40248732,77.094314411 L323.51607028,77.090154548 L324.62965324,77.085378409 L325.7432362,77.079677856 L326.85681916,77.073361027 L327.97040212,77.066119784 L329.08580466,77.058108196 L330.19938762,77.049018125 L331.31297058,77.03900364 L332.42655354,77.027756603 L333.5401365,77.015431083 L334.65371946,77.001718942 L335.769122,76.98662018 L336.88270496,76.969980728 L337.99628792,76.951646517 L339.10987088,76.931463478 L340.22345384,76.909431611 L341.3370368,76.885088709 L342.45061976,76.858434772 L343.5660223,76.829315731 L344.67960526,76.797269379 L345.79318822,76.762295716 L346.90677118,76.724086604 L348.02035414,76.682333905 L349.1339371,76.636729481 L350.24933964,76.586965194 L351.3629226,76.532732906 L352.47650556,76.47357041 L353.59008852,76.450614129 L354.70367148,76.428582262 L355.81725444,76.403931222 L356.93265698,76.376352871 L358.04623994,76.346155347 L359.1598229,76.313030512 L360.27340586,76.276824297 L361.38698882,76.237690771 L362.50057178,76.195321796 L363.61597432,76.149871441 L364.72955728,76.100877499 L365.84314024,76.048494039 L366.9567232,75.992412923 L368.07030616,75.93278822 L369.18388912,75.869157723 L370.29747208,75.801675501 L371.41287462,75.730033416 L372.52645758,75.654077399 L373.64004054,75.57380745 L374.7536235,75.488915431 L375.86720646,75.399401342 L376.98078942,75.305111114 L378.09619196,75.205890678 L379.20977492,75.101585965 L380.32335788,74.991888837 L381.43694084,74.876953363 L382.5505238,74.756471405 L383.66410676,74.630442963 L384.7795093,74.498559899 L385.89309226,74.360668144 L387.00667522,74.216921767 L388.12025818,74.06701263 L389.23384114,73.911094802 L390.3474241,73.748706076 L391.46282664,73.580000521 L392.5764096,73.404824068 L393.68999256,73.223176717 L394.80357552,73.03475033 L395.91715848,72.84062339 L397.03074144,72.638793 L398.1443244,72.43079985 L399.25972694,72.21664394 L400.3733099,71.99632527 L401.48689286,71.76830315 L402.60047582,71.53411827 L403.71405878,71.29377063 L404.82764174,71.04571954 L405.94304428,70.79304638 L407.05662724,70.53421046 L408.1702102,70.26767109 L409.28379316,69.99650965 L410.39737612,69.71918545 L411.51095908,69.43569849 L412.62636162,69.14604877 L413.73994458,68.85177698 L414.85352754,68.55134243 L415.9671105,68.24628581 L417.08069346,67.93660712 L418.19427642,67.62230636 L419.30967896,67.30184284 L420.42326192,66.97675725 L421.53684488,66.64859028 L422.65042784,66.31426055 L423.7640108,65.97684944 L424.87759376,65.63635695 L425.99117672,65.29124239 L427.10657926,64.85214574 L428.22016222,64.12185868 L429.33374518,63.58415787 L430.44732814,63.20052606 L431.5609111,62.94939359 L432.67449406,62.81381287 L433.7898966,62.78762114 L434.90347956,63.60418684 L436.01706252,64.84598298 L437.13064548,66.03693635 L438.24422844,67.16626212 L439.3578114,68.22163477 L440.47321394,69.19072878 L441.5867969,70.06121863 L442.70037986,70.81769742 L443.81396282,71.44629894 L444.92754578,71.93777905 L446.04112874,72.27673085 L447.15653128,72.46007296 L448.27011424,72.48010193 L449.3836972,72.33681776 L450.49728016,72.03484252 L451.61086312,71.58033897 L452.72444608,70.98409194 L453.83802904,70.25688626 L454.95343158,69.41412883 L456.06701454,68.46814517 L457.1805975,67.43280149 L458.29418046,66.32042331 L459.40776342,65.14333615 L460.52134638,63.91232484 L461.63674892,62.63663352 L462.75033188,61.32396564 L463.86391484,59.97894327 L464.9774978,58.61081055 L466.09108076,57.22110817 L467.20466372,55.8144582 L468.32006626,54.39548271 L469.43364922,52.96572239 L470.54723218,51.52671793 L471.66081514,50.08001002 L472.7743981,48.62713935 L473.88798106,48.33440825 L475.0033836,48.25891444 L476.11696656,48.11717096 L477.23054952,48.0031599 L478.34413248,47.91379988 L479.45771544,47.85063159 L480.5712984,47.81211434 L481.68488136,47.79670744 L482.8002839,47.64571982 L483.91386686,47.50551703 L485.02744982,47.39150597 L486.14103278,47.30060526 L487.25461574,47.23127421 L488.3681987,47.18505351 L489.48360124,47.16040247 L490.5971842,47.15886178 L491.71076716,47.17735006 L492.82435012,47.55944118 L493.93793308,48.15106614 L495.05151604,48.79969663 L496.16691858,49.52073955 L497.28050154,50.3296018 L498.3940845,51.24939373 L499.50766746,52.3170919 L500.62125042,53.58970184 L501.73483338,55.30911188 L502.85023592,57.07474262 L503.96381888,58.83883267 L505.07740184,60.60446341 L506.1909848,62.37009415 L507.30456776,64.13572489 L508.41815072,65.90135563 L509.53173368,67.66544568 L510.64713622,69.43107642 L511.76071918,71.19670716 L512.87430214,72.9623379 L513.9878851,74.726890157 L515.10146806,76.49205869 L516.21505102,78.257381292 L517.33045356,80.022549825 L518.44403652,81.787718358 L519.55761948,83.552886891 L520.67120244,85.318055424 L521.7847854,87.083223957 L522.89836836,88.84839249 L524.0137709,90.613561023 L525.12735386,92.378729556 L526.24093682,94.143898089 L527.35451978,95.908912553 L528.46810274,97.674081086 L529.5816857,99.439249619 L530.69708824,101.204264083 L531.8106712,102.969432616 L532.92425416,104.73444708 L534.03783712,106.499615613 L535.15142008,108.264630077 L536.26500304,110.029644541 L537.378586,111.794659005 L538.49398854,113.559673469 L539.6075715,115.324842002 L540.72115446,117.089856466 L541.83473742,118.854716861 L542.94832038,120.619731325 L544.06190334,122.384745789 L545.17730588,124.149760253 L546.29088884,125.914774717 L547.4044718,127.679635112 L548.51805476,129.444649576 L549.63163772,131.209509971 L550.74522068,132.974524435 L551.86062322,134.73938483 L552.97420618,136.504245225 L554.08778914,138.269259689 L555.2013721,140.034120084 L556.31495506,141.798980479 L557.42853802,143.563840874 L558.54394056,145.328701269 L559.65752352,147.093561664 L560.77110648,148.85826799 L561.88468944,150.623128385 L562.9982724,152.38798878 L564.11185536,154.152849175 L565.22543832,155.917555501 L566.34084086,157.682415896 L567.45442382,159.447122222 L568.56800678,161.211828548 L569.68158974,162.976534874 L570.7951727,164.741395269 L571.90875566,166.506101595 L573.0241582,168.270807921 L574.13774116,170.035514247 L575.25132412,171.800220573 L576.36490708,173.56477283 L577.47849004,175.329479156 L578.592073,177.094185482 L579.70747554,178.858737739 L580.8210585,180.623444065 L581.93464146,182.387996322 L583.04822442,184.152702648 L584.16180738,185.917254905 L585.27539034,187.681807162 L586.39079288,189.446359419 L587.50437584,191.210911676 L588.6179588,192.975463933 L589.73154176,194.74001619 L590.84512472,196.504568447 L591.95870768,198.268966635 L593.07229064,200.033518892 L594.18769318,201.798071149 L595.30127614,203.562469337 L596.4148591,205.326867525 L597.52844206,207.091419782 L598.64202502,208.85581797 L599.75560798,210.620216158 L600.87101052,212.384629753 L601.98459348,214.149012534 L603.09817644,215.913395315 L604.2117594,217.677762689 L605.32534236,219.442114657 L606.43892532,221.206451217 L607.55432786,222.97077237 L608.66791082,224.735078117 L609.78149378,226.499371538 L610.89507674,228.263652634 L612.0086597,230.027918322 L613.12224266,231.792162441 L614.2376452,233.556391153 L615.35122816,235.320604459 L616.46481112,237.08478695 L617.57839408,238.848954035 L618.69197704,240.613059492 L619.80556,242.377103321 L620.91914296,244.141008488 L622.0345455,245.9047904 L623.14812846,247.668264174 L624.26171142,249.43142981 L625.37529438,251.193671032 L626.48887734,252.954679702 L627.6024603,254.713685475 L628.71786284,256.468993592 L629.8314458,258.218447087 L630.94502876,259.957577959 L632.05861172,261.679761241 L633.17219468,263.373441758 L634.28577764,265.02013123 L635.40118018,266.589632133 L636.51476314,268.036494112 L637.6283461,269.295237842 L638.74192906,270.281433511 L639.85551202,270.904334478 L640.96909498,271.093377141 L642.08449752,271.090295761 L643.19808048,271.088138795 L644.31166344,271.086906243 " fill-rule="evenodd" vector-effect="non-scaling-stroke"/>
                        </g>
                    </g>
                </g>
                <g id="PlotDataItem_2">
                    <g fill="none" fill-rule="evenodd" id="PlotCurveItem_2" stroke="black" stroke-linecap="square" stroke-linejoin="bevel" stroke-width="1">
                        <g fill="none" font-family="MS Shell Dlg 2" font-size="11" font-style="normal" font-weight="400" stroke="#c7b069" stroke-linecap="square" stroke-linejoin="bevel" stroke-opacity="1" stroke-width="1.5">
                            <path d="M88.4882000182,68.09683888 L89.6020740928,68.09683888 L90.7159481856,68.09683888 L91.8298222784,68.09683888 L92.9436963712,68.09683888 L94.057570464,68.09683888 L95.1714445568,68.09683888 L96.2853186496,68.09837957 L97.3991927424,68.09837957 L98.5130668352,68.09837957 L99.626940928,68.09992026 L100.740815021,68.09992026 L101.854689114,68.10146095 L102.968563206,68.10146095 L104.082437299,68.10300164 L105.196311392,68.10454233 L106.310185485,68.10454233 L107.424023186,68.10608302 L108.537970062,68.10762371 L109.65173498,68.10762371 L110.765681856,68.1091644 L111.879628732,68.11070509 L112.99339365,68.11224578 L114.107340526,68.11378647 L115.221105444,68.11532716 L116.33505232,68.11686785 L117.448999196,68.11840854 L118.562764114,68.11994923 L119.67671099,68.12303061 L120.790475908,68.1245713 L121.904422784,68.12611199 L123.01836966,68.12765268 L124.132134578,68.13073406 L125.246081454,68.13227475 L126.359846372,68.13535613 L127.473793248,68.13689682 L128.587740124,68.1399782 L129.701505042,68.14151889 L130.815451918,68.14460027 L131.929216836,68.14614096 L133.043163712,68.14922234 L134.157110588,68.15230372 L135.270875506,68.1553851 L136.384822382,68.15846648 L137.4985873,68.16000717 L138.612534176,68.16308855 L139.726481052,68.16616993 L140.84024597,68.16925131 L141.954192846,68.17233269 L143.067957764,68.17541407 L144.18190464,68.18003614 L145.295851516,68.18311752 L146.409616434,68.1861989 L147.52356331,68.18928028 L148.637328228,68.19390235 L149.751275104,68.19698373 L150.86522198,68.2016058 L151.978986898,68.20468718 L153.092933774,68.20930925 L154.206698692,68.21239063 L155.320645568,68.18928028 L156.434592444,68.1245713 L157.548357362,68.06910646 L158.662304238,68.02134507 L159.776069156,67.98436851 L160.890016032,67.95355471 L162.003962908,67.93198505 L163.117727826,67.91965953 L164.231674702,67.91503746 L165.34543962,67.91811884 L166.459386496,67.92890367 L167.573333372,67.94585126 L168.68709829,67.96125816 L169.801045166,67.97820575 L170.914810084,67.99361265 L172.02875696,68.01056024 L173.142703836,68.02750783 L174.256468754,68.04445542 L175.37041563,68.05986232 L176.484180548,68.07680991 L177.598127424,68.0937575 L178.7120743,68.11224578 L179.825839218,68.12919337 L180.939786094,68.14614096 L182.053551012,68.16308855 L183.167497888,68.18157683 L184.281444764,68.19852442 L185.395209682,68.2170127 L186.509156558,68.23396029 L187.622921476,68.25244857 L188.736868352,68.27093685 L189.850815228,68.28942513 L190.964580146,68.30791341 L192.078527022,68.32640169 L193.19229194,68.34488997 L194.306238816,68.36337825 L195.420185692,68.38186653 L196.53395061,68.40035481 L197.647897486,68.42038378 L198.761662404,68.43887206 L199.87560928,68.45890103 L200.989556156,68.47893 L202.103321074,68.49741828 L203.21726795,68.51744725 L204.331032868,68.53747622 L205.444979744,68.55750519 L206.55892662,68.57753416 L207.672691538,68.59756313 L208.786638414,68.6175921 L209.900403332,68.63916176 L211.014350208,68.65919073 L212.128297084,68.68076039 L213.242062002,68.70078936 L214.356008878,68.72235902 L215.469773796,68.74392868 L216.583720672,68.76549834 L217.697667548,68.78552731 L218.811432466,68.80709697 L219.925379342,68.83020732 L221.03914426,68.85177698 L222.153091136,68.87334664 L223.267038012,68.89645699 L224.38080293,68.91802665 L225.494749806,68.941137 L226.608514724,68.96270666 L227.7224616,68.98581701 L228.836408476,69.00892736 L229.950173394,69.03203771 L231.06412027,69.05514806 L232.177885188,69.07825841 L233.291832064,69.10290945 L234.40577894,69.1260198 L235.519543858,69.14913015 L236.633490734,69.17378119 L237.747255652,69.19843223 L238.861202528,69.22308327 L239.975149404,69.24619362 L241.088914322,69.27084466 L242.202861198,69.29703639 L243.316626116,69.32168743 L244.430572992,69.34633847 L245.544519868,69.3725302 L246.658284786,69.39718124 L247.772231662,69.42337297 L248.88599658,69.4495647 L249.999943456,69.47883781 L251.113890332,69.51735506 L252.22765525,69.56819783 L253.341602126,69.62366267 L254.455367044,69.6806682 L255.56931392,69.73767373 L256.683260796,69.79467926 L257.797025714,69.85322548 L258.91097259,69.9117717 L260.024737508,69.97185861 L261.138684384,70.03194552 L262.25263126,70.09203243 L263.366396178,70.15366003 L264.480343054,70.21528763 L265.594107972,70.27845592 L266.708054848,70.34162421 L267.822001724,70.4047925 L268.935766642,70.46950148 L270.049713518,70.53421046 L271.16311452,70.60046013 L272.27669748,70.66825049 L273.39210002,70.73604085 L274.50568298,70.80383121 L275.61926594,70.87316226 L276.7328489,70.94249331 L277.84643186,71.01336505 L278.96001482,71.08577748 L280.07541736,71.15818991 L281.18900032,71.23214303 L282.30258328,71.30609615 L283.41616624,71.38158996 L284.5297492,71.45708377 L285.64333216,71.51254861 L286.75691512,71.54182172 L287.87231766,71.57109483 L288.98590062,71.60190863 L290.09948358,71.63272243 L291.21306654,71.66199554 L292.3266495,71.69280934 L293.44023246,71.72362314 L294.555635,71.75443694 L295.66921796,71.78525074 L296.78280092,71.81760523 L297.89638388,71.84841903 L299.00996684,71.88077352 L300.1235498,71.91158732 L301.23895234,71.94394181 L302.3525353,71.9762963 L303.46611826,72.00865079 L304.57970122,72.04254597 L305.69328418,72.07490046 L306.80686714,72.10879564 L307.92226968,72.14115013 L309.03585264,72.17504531 L310.1494356,72.20894049 L311.26301856,72.24283567 L312.37660152,72.27673085 L313.49018448,72.31216672 L314.60376744,72.3460619 L315.71916998,72.38149777 L316.83275294,72.41693364 L317.9463359,72.45236951 L319.05991886,72.48780538 L320.17350182,72.52478194 L321.28708478,72.56021781 L322.40248732,72.59719437 L323.51607028,72.63417093 L324.62965324,72.67114749 L325.7432362,72.70812405 L326.85681916,72.74510061 L327.97040212,72.78361786 L329.08580466,72.82059442 L330.19938762,72.85911167 L331.31297058,72.89762892 L332.42655354,72.93768686 L333.5401365,72.97620411 L334.65371946,73.01626205 L335.769122,73.05631999 L336.88270496,73.09637793 L337.99628792,73.136127732 L339.10987088,73.176956017 L340.22345384,73.217938371 L341.3370368,73.259228863 L342.45061976,73.300827493 L343.5660223,73.34288833 L344.67960526,73.385103236 L345.79318822,73.427780349 L346.90677118,73.4707656 L348.02035414,73.514058989 L349.1339371,73.557814585 L350.24933964,73.60172425 L351.3629226,73.646096122 L352.47650556,73.690930201 L353.59008852,73.706799308 L354.70367148,73.720203311 L355.81725444,73.733607314 L356.93265698,73.747011317 L358.04623994,73.760723458 L359.1598229,73.77428153 L360.27340586,73.787993671 L361.38698882,73.801705812 L362.50057178,73.815417953 L363.61597432,73.829284163 L364.72955728,73.843150373 L365.84314024,73.857170652 L366.9567232,73.871190931 L368.07030616,73.88521121 L369.18388912,73.899385558 L370.29747208,73.913559906 L371.41287462,73.927888323 L372.52645758,73.94221674 L373.64004054,73.956545157 L374.7536235,73.971027643 L375.86720646,73.985510129 L376.98078942,73.999992615 L378.09619196,74.01462917 L379.20977492,74.029419794 L380.32335788,74.044056349 L381.43694084,74.058846973 L382.5505238,74.073791666 L383.66410676,74.088736359 L384.7795093,74.103681052 L385.89309226,74.118779814 L387.00667522,74.133878576 L388.12025818,74.149131407 L389.23384114,74.164384238 L390.3474241,74.179637069 L391.46282664,74.195043969 L392.5764096,74.210450869 L393.68999256,74.226011838 L394.80357552,74.241572807 L395.91715848,74.257287845 L397.03074144,74.273002883 L398.1443244,74.288717921 L399.25972694,74.304587028 L400.3733099,74.320610204 L401.48689286,74.336479311 L402.60047582,74.352656556 L403.71405878,74.368679732 L404.82764174,74.384856977 L405.94304428,74.401188291 L407.05662724,74.417519605 L408.1702102,74.434004988 L409.28379316,74.450490371 L410.39737612,74.466975754 L411.51095908,74.483615206 L412.62636162,74.500408727 L413.73994458,74.517048179 L414.85352754,74.533995769 L415.9671105,74.550943359 L417.08069346,74.567890949 L418.19427642,74.584992608 L419.30967896,74.602094267 L420.42326192,74.619349995 L421.53684488,74.636759792 L422.65042784,74.65401552 L423.7640108,74.671579386 L424.87759376,74.689143252 L425.99117672,74.706707118 L427.10657926,74.71102105 L428.22016222,74.6570969 L429.33374518,74.612725028 L430.44732814,74.577597296 L431.5609111,74.551559635 L432.67449406,74.534457976 L433.7898966,74.526446388 L434.90347956,74.522132456 L436.01706252,74.517356317 L437.13064548,74.513350523 L438.24422844,74.509961005 L439.3578114,74.507341832 L440.47321394,74.505493004 L441.5867969,74.504260452 L442.70037986,74.503644176 L443.81396282,74.503798245 L444.92754578,74.504722659 L446.04112874,74.506263349 L447.15653128,74.508420315 L448.27011424,74.511347626 L449.3836972,74.514891213 L450.49728016,74.519051076 L451.61086312,74.524135353 L452.72444608,74.529681837 L453.83802904,74.535998666 L454.95343158,74.54308584 L456.06701454,74.55078929 L457.1805975,74.559263085 L458.29418046,74.568507225 L459.40776342,74.578367641 L460.52134638,74.588998402 L461.63674892,74.600399508 L462.75033188,74.612570959 L463.86391484,74.625358686 L464.9774978,74.639070827 L466.09108076,74.653707382 L467.20466372,74.669114282 L468.32006626,74.685291527 L469.43364922,74.702547255 L470.54723218,74.720881466 L471.66081514,74.74029416 L472.7743981,74.761247544 L473.88798106,74.768642856 L475.0033836,74.790674723 L476.11696656,74.857540669 L477.23054952,74.945051861 L478.34413248,75.054286782 L479.45771544,75.186323915 L480.5712984,75.342241743 L481.68488136,75.524197232 L482.8002839,75.46133708 L483.91386686,75.393392651 L485.02744982,75.347788227 L486.14103278,75.323907532 L487.25461574,75.321750566 L488.3681987,75.34116326 L489.48360124,75.382453752 L490.5971842,75.44593018 L491.71076716,75.532362889 L492.82435012,76.618087132 L493.93793308,78.169253824 L495.05151604,79.713333342 L496.16691858,81.247706513 L497.28050154,82.768983819 L498.3940845,84.271464707 L499.50766746,85.746213175 L500.62125042,87.179363013 L501.73483338,88.84993318 L502.85023592,90.561485701 L503.96381888,92.272730084 L505.07740184,93.983974467 L506.1909848,95.695064781 L507.30456776,97.406155095 L508.41815072,99.116937271 L509.53173368,100.827719447 L510.64713622,102.538501623 L511.76071918,104.24912973 L512.87430214,105.959603768 L513.9878851,107.670077806 L515.10146806,109.380397775 L516.21505102,111.090563675 L517.33045356,112.800729575 L518.44403652,114.510741406 L519.55761948,116.220753237 L520.67120244,117.930765068 L521.7847854,119.64062283 L522.89836836,121.350326523 L524.0137709,123.060030216 L525.12735386,124.769733909 L526.24093682,126.479283533 L527.35451978,128.188833157 L528.46810274,129.898382781 L529.5816857,131.607778336 L530.69708824,133.317173891 L531.8106712,135.026415377 L532.92425416,136.735656863 L534.03783712,138.444898349 L535.15142008,140.154139835 L536.26500304,141.863227252 L537.378586,143.572314669 L538.49398854,145.281402086 L539.6075715,146.990335434 L540.72115446,148.699268782 L541.83473742,150.40820213 L542.94832038,152.117135478 L544.06190334,153.826068826 L545.17730588,155.534848105 L546.29088884,157.243627384 L547.4044718,158.952560732 L548.51805476,160.661185942 L549.63163772,162.369965221 L550.74522068,164.0787445 L551.86062322,165.787523779 L552.97420618,167.496148989 L554.08778914,169.204774199 L555.2013721,170.913553478 L556.31495506,172.622178688 L557.42853802,174.330803898 L558.54394056,176.039429108 L559.65752352,177.748054318 L560.77110648,179.456679528 L561.88468944,181.165304738 L562.9982724,182.873929948 L564.11185536,184.582401089 L565.22543832,186.291026299 L566.34084086,187.999651509 L567.45442382,189.708276719 L568.56800678,191.416901929 L569.68158974,193.125527139 L570.7951727,194.834152349 L571.90875566,196.542777559 L573.0241582,198.251402769 L574.13774116,199.960027979 L575.25132412,201.668653189 L576.36490708,203.377278399 L577.47849004,205.085903609 L578.592073,206.794528819 L579.70747554,208.503308098 L580.8210585,210.211933308 L581.93464146,211.92069718 L583.04822442,213.629414831 L584.16180738,215.338163297 L585.27539034,217.046927169 L586.39079288,218.755706448 L587.50437584,220.464501134 L588.6179588,222.173326633 L589.73154176,223.882152133 L590.84512472,225.591023853 L591.95870768,227.299898963 L593.07229064,229.008798108 L594.18769318,230.717731456 L595.30127614,232.426680211 L596.4148591,234.13565978 L597.52844206,235.844654755 L598.64202502,237.553680545 L599.75560798,239.262737148 L600.87101052,240.971824565 L601.98459348,242.680896575 L603.09817644,244.390138061 L604.2117594,246.099225478 L605.32534236,247.808466964 L606.43892532,249.51770845 L607.55432786,251.226949936 L608.66791082,252.936191422 L609.78149378,254.645586977 L610.89507674,256.354828463 L612.0086597,258.064224018 L613.12224266,259.773773642 L614.2376452,261.483169197 L615.35122816,263.192718821 L616.46481112,264.902114376 L617.57839408,266.611664 L618.69197704,268.321367693 L619.80556,270.030917317 L620.91914296,271.740466941 L622.0345455,273.450170634 L623.14812846,275.159720258 L624.26171142,276.869423951 L625.37529438,278.578973575 L626.48887734,280.288215061 L627.6024603,281.997302478 L628.71786284,283.705927688 L629.8314458,285.413782553 L630.94502876,287.120096728 L632.05861172,288.824253937 L633.17219468,290.52471349 L634.28577764,292.219010283 L635.40118018,293.903138522 L636.51476314,295.570935447 L637.6283461,297.212078435 L638.74192906,298.81054431 L639.85551202,300.341527963 L640.96909498,301.746637243 L642.08449752,302.757946159 L643.19808048,303.541849231 L644.31166344,304.041649067 " fill-rule="evenodd" vector-effect="non-scaling-stroke"/>
                        </g>
                    </g>
                </g>
                <g id="PlotDataItem_3">
                    <g fill="none" fill-rule="evenodd" id="PlotCurveItem_3" stroke="black" stroke-linecap="square" stroke-linejoin="bevel" stroke-width="1">
                        <g fill="none" font-family="MS Shell Dlg 2" font-size="11" font-style="normal" font-weight="400" stroke="#7ea695" stroke-linecap="square" stroke-linejoin="bevel" stroke-opacity="1" stroke-width="1.5">
                            <path d="M88.4882000182,109.914709067 L89.6020740928,109.914709067 L90.7159481856,109.914709067 L91.8298222784,109.914709067 L92.9436963712,109.914709067 L94.057570464,109.914709067 L95.1714445568,109.914709067 L96.2853186496,109.914709067 L97.3991927424,109.914709067 L98.5130668352,109.914709067 L99.626940928,109.914709067 L100.740815021,109.914709067 L101.854689114,109.914709067 L102.968563206,109.914709067 L104.082437299,109.914709067 L105.196311392,109.914709067 L106.310185485,109.914709067 L107.424023186,109.914709067 L108.537970062,109.914709067 L109.65173498,109.914709067 L110.765681856,109.914709067 L111.879628732,109.914709067 L112.99339365,109.914709067 L114.107340526,109.914709067 L115.221105444,109.914709067 L116.33505232,109.914709067 L117.448999196,109.914709067 L118.562764114,109.914709067 L119.67671099,109.914554998 L120.790475908,109.914554998 L121.904422784,109.914554998 L123.01836966,109.914554998 L124.132134578,109.914554998 L125.246081454,109.914400929 L126.359846372,109.914400929 L127.473793248,109.91424686 L128.587740124,109.91424686 L129.701505042,109.914092791 L130.815451918,109.914092791 L131.929216836,109.913938722 L133.043163712,109.913784653 L134.157110588,109.913630584 L135.270875506,109.913476515 L136.384822382,109.913322446 L137.4985873,109.913014308 L138.612534176,109.912860239 L139.726481052,109.912552101 L140.84024597,109.912089894 L141.954192846,109.911781756 L143.067957764,109.911319549 L144.18190464,109.910549204 L145.295851516,109.909470721 L146.409616434,109.907005617 L147.52356331,109.899610305 L148.637328228,109.874342989 L149.751275104,109.785445176 L150.86522198,109.473763589 L151.978986898,108.449666946 L153.092933774,105.663175012 L154.206698692,100.265983873 L155.320645568,93.478474078 L156.434592444,90.022244201 L157.548357362,88.209930554 L158.662304238,87.178900806 L159.776069156,86.651214481 L160.890016032,86.521026176 L162.003962908,86.765533679 L163.117727826,87.429108862 L164.231674702,88.654419619 L165.34543962,90.820321621 L166.459386496,95.278462205 L167.573333372,102.170430782 L168.68709829,106.768620087 L169.801045166,108.887376975 L170.914810084,109.610114654 L172.02875696,109.823808357 L173.142703836,109.884511543 L174.256468754,109.90192134 L175.37041563,109.907313755 L176.484180548,109.909316652 L177.598127424,109.910241066 L178.7120743,109.911011411 L179.825839218,109.911627687 L180.939786094,109.912089894 L182.053551012,109.912552101 L183.167497888,109.912860239 L184.281444764,109.913322446 L185.395209682,109.913630584 L186.509156558,109.913938722 L187.622921476,109.91424686 L188.736868352,109.914554998 L189.850815228,109.914709067 L190.964580146,109.915017205 L192.078527022,109.915171274 L193.19229194,109.915325343 L194.306238816,109.915479412 L195.420185692,109.915633481 L196.53395061,109.915941619 L197.647897486,109.916095688 L198.761662404,109.916249757 L199.87560928,109.916249757 L200.989556156,109.916403826 L202.103321074,109.916557895 L203.21726795,109.916711964 L204.331032868,109.916866033 L205.444979744,109.917020102 L206.55892662,109.917020102 L207.672691538,109.917174171 L208.786638414,109.91732824 L209.900403332,109.917482309 L211.014350208,109.917482309 L212.128297084,109.917636378 L213.242062002,109.917790447 L214.356008878,109.917790447 L215.469773796,109.917944516 L216.583720672,109.918098585 L217.697667548,109.918098585 L218.811432466,109.918252654 L219.925379342,109.918406723 L221.03914426,109.918406723 L222.153091136,109.918560792 L223.267038012,109.918560792 L224.38080293,109.918714861 L225.494749806,109.918714861 L226.608514724,109.91886893 L227.7224616,109.91886893 L228.836408476,109.919022999 L229.950173394,109.919022999 L231.06412027,109.919022999 L232.177885188,109.919177068 L233.291832064,109.919177068 L234.40577894,109.919177068 L235.519543858,109.919177068 L236.633490734,109.919177068 L237.747255652,109.919177068 L238.861202528,109.919022999 L239.975149404,109.918714861 L241.088914322,109.917790447 L242.202861198,109.914554998 L243.316626116,109.903153892 L244.430572992,109.862017469 L245.544519868,109.715035643 L246.658284786,109.205837598 L247.772231662,107.623394899 L248.88599658,103.813884805 L249.999943456,100.0938888 L251.113890332,99.81040184 L252.22765525,102.64527144 L253.341602126,107.03007518 L254.455367044,108.994300861 L255.56931392,109.652945836 L256.683260796,109.845994293 L257.797025714,109.90038065 L258.91097259,109.91578755 L260.024737508,109.92040962 L261.138684384,109.92195031 L262.25263126,109.922720655 L263.366396178,109.923182862 L264.480343054,109.923645069 L265.594107972,109.923953207 L266.708054848,109.924415414 L267.822001724,109.924723552 L268.935766642,109.92503169 L270.049713518,109.925339828 L271.16311452,109.925647966 L272.27669748,109.925956104 L273.39210002,109.926264242 L274.50568298,109.92657238 L275.61926594,109.926880518 L276.7328489,109.927188656 L277.84643186,109.927496794 L278.96001482,109.927804932 L280.07541736,109.92811307 L281.18900032,109.928421208 L282.30258328,109.928729346 L283.41616624,109.929499691 L284.5297492,109.93119445 L285.64333216,109.93427583 L286.75691512,109.935354313 L287.87231766,109.935662451 L288.98590062,109.935970589 L290.09948358,109.936124658 L291.21306654,109.936124658 L292.3266495,109.936278727 L293.44023246,109.936278727 L294.555635,109.936432796 L295.66921796,109.936432796 L296.78280092,109.936586865 L297.89638388,109.936586865 L299.00996684,109.936740934 L300.1235498,109.936740934 L301.23895234,109.936895003 L302.3525353,109.936895003 L303.46611826,109.936895003 L304.57970122,109.937049072 L305.69328418,109.937049072 L306.80686714,109.937203141 L307.92226968,109.937203141 L309.03585264,109.93735721 L310.1494356,109.93735721 L311.26301856,109.937511279 L312.37660152,109.937511279 L313.49018448,109.937665348 L314.60376744,109.937665348 L315.71916998,109.937819417 L316.83275294,109.937819417 L317.9463359,109.937973486 L319.05991886,109.937973486 L320.17350182,109.938127555 L321.28708478,109.938127555 L322.40248732,109.938281624 L323.51607028,109.938281624 L324.62965324,109.938435693 L325.7432362,109.938435693 L326.85681916,109.938589762 L327.97040212,109.938589762 L329.08580466,109.938589762 L330.19938762,109.938743831 L331.31297058,109.938743831 L332.42655354,109.9388979 L333.5401365,109.9388979 L334.65371946,109.939051969 L335.769122,109.939051969 L336.88270496,109.939206038 L337.99628792,109.939206038 L339.10987088,109.939360107 L340.22345384,109.939360107 L341.3370368,109.939514176 L342.45061976,109.939514176 L343.5660223,109.939668245 L344.67960526,109.939668245 L345.79318822,109.939822314 L346.90677118,109.939822314 L348.02035414,109.939976383 L349.1339371,109.940130452 L350.24933964,109.94043859 L351.3629226,109.941208935 L352.47650556,109.942903694 L353.59008852,109.943674039 L354.70367148,109.943982177 L355.81725444,109.944290315 L356.93265698,109.944290315 L358.04623994,109.944444384 L359.1598229,109.944444384 L360.27340586,109.944444384 L361.38698882,109.944444384 L362.50057178,109.944444384 L363.61597432,109.944598453 L364.72955728,109.944598453 L365.84314024,109.944598453 L366.9567232,109.944598453 L368.07030616,109.944598453 L369.18388912,109.944598453 L370.29747208,109.944598453 L371.41287462,109.944598453 L372.52645758,109.944598453 L373.64004054,109.944598453 L374.7536235,109.944598453 L375.86720646,109.944598453 L376.98078942,109.944598453 L378.09619196,109.944598453 L379.20977492,109.944598453 L380.32335788,109.944598453 L381.43694084,109.944598453 L382.5505238,109.944598453 L383.66410676,109.944598453 L384.7795093,109.944598453 L385.89309226,109.944598453 L387.00667522,109.944598453 L388.12025818,109.944598453 L389.23384114,109.944598453 L390.3474241,109.944598453 L391.46282664,109.944598453 L392.5764096,109.944598453 L393.68999256,109.944598453 L394.80357552,109.944598453 L395.91715848,109.944598453 L397.03074144,109.944598453 L398.1443244,109.944598453 L399.25972694,109.944444384 L400.3733099,109.944444384 L401.48689286,109.944444384 L402.60047582,109.944444384 L403.71405878,109.944444384 L404.82764174,109.944290315 L405.94304428,109.944290315 L407.05662724,109.944136246 L408.1702102,109.943828108 L409.28379316,109.943365901 L410.39737612,109.942749625 L411.51095908,109.941363004 L412.62636162,109.9388979 L413.73994458,109.934429899 L414.85352754,109.925956104 L415.9671105,109.910395135 L417.08069346,109.881584232 L418.19427642,109.82796822 L419.30967896,109.729209991 L420.42326192,109.548487054 L421.53684488,109.223555533 L422.65042784,108.655965337 L423.7640108,107.709827608 L424.87759376,106.23661983 L425.99117672,104.134502394 L427.10657926,100.818937514 L428.22016222,97.011738455 L429.33374518,95.096660785 L430.44732814,94.03589572 L431.5609111,93.516066914 L432.67449406,93.424549928 L433.7898966,93.743318689 L434.90347956,101.554771058 L436.01706252,108.26108649 L437.13064548,109.674207358 L438.24422844,109.851848915 L439.3578114,109.873110437 L440.47321394,109.876654024 L441.5867969,109.878040645 L442.70037986,109.878965059 L443.81396282,109.879581335 L444.92754578,109.880043542 L446.04112874,109.88035168 L447.15653128,109.880505749 L448.27011424,109.880505749 L449.3836972,109.880505749 L450.49728016,109.880197611 L451.61086312,109.879889473 L452.72444608,109.879273197 L453.83802904,109.878656921 L454.95343158,109.877732507 L456.06701454,109.876499955 L457.1805975,109.874805196 L458.29418046,109.872802299 L459.40776342,109.870337195 L460.52134638,109.867101746 L461.63674892,109.863095952 L462.75033188,109.858011675 L463.86391484,109.851694846 L464.9774978,109.843837327 L466.09108076,109.833514704 L467.20466372,109.81718339 L468.32006626,109.765878413 L469.43364922,109.428467303 L470.54723218,107.059502359 L471.66081514,98.330260957 L472.7743981,84.75631985 L473.88798106,81.845494233 L475.0033836,81.078384682 L476.11696656,79.765254595 L477.23054952,78.771047338 L478.34413248,77.997775027 L479.45771544,77.389202477 L480.5712984,76.910201956 L481.68488136,76.537971252 L482.8002839,76.031700518 L483.91386686,75.605083457 L485.02744982,75.266439795 L486.14103278,75.004522495 L487.25461574,74.811011831 L488.3681987,74.680823526 L489.48360124,74.610105855 L490.5971842,74.597472197 L491.71076716,74.642152207 L492.82435012,75.588444005 L493.93793308,76.932233823 L495.05151604,78.257535361 L496.16691858,79.565118964 L497.28050154,80.855138701 L498.3940845,82.127286434 L499.50766746,83.379251128 L500.62125042,84.60533223 L501.73483338,86.049112829 L502.85023592,87.538343783 L503.96381888,89.036818877 L505.07740184,90.544075904 L506.1909848,92.059498588 L507.30456776,93.582316584 L508.41815072,95.112221754 L509.53173368,96.648751891 L510.64713622,98.191598857 L511.76071918,99.740300445 L512.87430214,101.294548517 L513.9878851,102.853880866 L515.10146806,104.418297492 L516.21505102,105.987336188 L517.33045356,107.560842885 L518.44403652,109.138509445 L519.55761948,110.720181799 L520.67120244,112.305705878 L521.7847854,113.894927613 L522.89836836,115.487538866 L524.0137709,117.083539637 L525.12735386,118.682775857 L526.24093682,120.284939388 L527.35451978,121.89003023 L528.46810274,123.498048383 L529.5816857,125.108685709 L530.69708824,126.721788139 L531.8106712,128.337509742 L532.92425416,129.95554238 L534.03783712,131.575886053 L535.15142008,133.198540761 L536.26500304,134.823198366 L537.378586,136.450012937 L538.49398854,138.078676336 L539.6075715,139.709342632 L540.72115446,141.341857756 L541.83473742,142.976221708 L542.94832038,144.612280419 L544.06190334,146.250033889 L545.17730588,147.889328049 L546.29088884,149.530316968 L547.4044718,151.172846577 L548.51805476,152.816762807 L549.63163772,154.462219727 L550.74522068,156.108909199 L551.86062322,157.757139361 L552.97420618,159.406602075 L554.08778914,161.057297341 L555.2013721,162.709225159 L556.31495506,164.362539598 L557.42853802,166.01693252 L558.54394056,167.672403925 L559.65752352,169.328953813 L560.77110648,170.986736253 L561.88468944,172.645597176 L562.9982724,174.305382513 L564.11185536,175.966246333 L565.22543832,177.628034567 L566.34084086,179.290747215 L567.45442382,180.954384277 L568.56800678,182.619099822 L569.68158974,184.284585712 L570.7951727,185.950996016 L571.90875566,187.618176665 L573.0241582,189.286127659 L574.13774116,190.955003067 L575.25132412,192.62464882 L576.36490708,194.295064918 L577.47849004,195.966251361 L578.592073,197.638208149 L579.70747554,199.310935282 L580.8210585,200.984278691 L581.93464146,202.658392445 L583.04822442,204.333122475 L584.16180738,206.008468781 L585.27539034,207.684585432 L586.39079288,209.36116429 L587.50437584,211.038513493 L588.6179588,212.716478972 L589.73154176,214.395014506 L590.84512472,216.074135503 L591.95870768,217.753857368 L593.07229064,219.434118475 L594.18769318,221.114965045 L595.30127614,222.796335449 L596.4148591,224.478245094 L597.52844206,226.160687818 L598.64202502,227.843643592 L599.75560798,229.527101631 L600.87101052,231.211060394 L601.98459348,232.895512178 L603.09817644,234.580441576 L604.2117594,236.265833181 L605.32534236,237.951702399 L606.43892532,239.638018418 L607.55432786,241.324781237 L608.66791082,243.011990856 L609.78149378,244.699662682 L610.89507674,246.387642646 L612.0086597,248.076084817 L613.12224266,249.764989195 L614.2376452,251.45435578 L615.35122816,253.144030503 L616.46481112,254.834013364 L617.57839408,256.524458432 L618.69197704,258.215365707 L619.80556,259.90658112 L620.91914296,261.598104671 L622.0345455,263.28993636 L623.14812846,264.982076187 L624.26171142,266.674370083 L625.37529438,268.366972117 L626.48887734,270.05972822 L627.6024603,271.752330254 L628.71786284,273.44462415 L629.8314458,275.13630177 L630.94502876,276.826592769 L632.05861172,278.514418664 L633.17219468,280.198084696 L634.28577764,281.874817623 L635.40118018,283.540457582 L636.51476314,285.18776333 L637.6283461,286.805950037 L638.74192906,288.377761975 L639.85551202,289.877931828 L640.96909498,291.248529652 L642.08449752,292.230103251 L643.19808048,292.987968662 L644.31166344,293.469588356 " fill-rule="evenodd" vector-effect="non-scaling-stroke"/>
                        </g>
                    </g>
                </g>
                <g id="PlotDataItem_4">
                    <g fill="none" fill-rule="evenodd" id="PlotCurveItem_4" stroke="black" stroke-linecap="square" stroke-linejoin="bevel" stroke-width="1">
                        <g fill="none" font-family="MS Shell Dlg 2" font-size="11" font-style="normal" font-weight="400" stroke="#8a7c91" stroke-linecap="square" stroke-linejoin="bevel" stroke-opacity="1" stroke-width="1.5">
                            <path d="M88.4882000182,108.421934526 L89.6020740928,108.421934526 L90.7159481856,108.421934526 L91.8298222784,108.421934526 L92.9436963712,108.422088595 L94.057570464,108.422088595 L95.1714445568,108.422088595 L96.2853186496,108.422088595 L97.3991927424,108.422088595 L98.5130668352,108.422088595 L99.626940928,108.422088595 L100.740815021,108.422088595 L101.854689114,108.422088595 L102.968563206,108.422088595 L104.082437299,108.422088595 L105.196311392,108.422088595 L106.310185485,108.421934526 L107.424023186,108.421934526 L108.537970062,108.421934526 L109.65173498,108.421934526 L110.765681856,108.421934526 L111.879628732,108.421934526 L112.99339365,108.421934526 L114.107340526,108.421934526 L115.221105444,108.421934526 L116.33505232,108.421934526 L117.448999196,108.421934526 L118.562764114,108.421934526 L119.67671099,108.421934526 L120.790475908,108.421934526 L121.904422784,108.421934526 L123.01836966,108.421934526 L124.132134578,108.421934526 L125.246081454,108.421780457 L126.359846372,108.421780457 L127.473793248,108.421780457 L128.587740124,108.421780457 L129.701505042,108.421626388 L130.815451918,108.421626388 L131.929216836,108.421626388 L133.043163712,108.421472319 L134.157110588,108.42131825 L135.270875506,108.42131825 L136.384822382,108.421164181 L137.4985873,108.421010112 L138.612534176,108.420856043 L139.726481052,108.420701974 L140.84024597,108.420547905 L141.954192846,108.420239767 L143.067957764,108.419931629 L144.18190464,108.419623491 L145.295851516,108.419007215 L146.409616434,108.417774663 L147.52356331,108.413922938 L148.637328228,108.40128928 L149.751275104,108.356301132 L150.86522198,108.196685648 L151.978986898,107.647121525 L153.092933774,105.958833423 L154.206698692,101.98123405 L155.320645568,96.052042654 L156.434592444,92.802881513 L157.548357362,91.064520986 L158.662304238,90.067540487 L159.776069156,89.555106993 L160.890016032,89.428154137 L162.003962908,89.66495819 L163.117727826,90.30742592 L164.231674702,91.488056667 L165.34543962,93.553505681 L166.459386496,97.678703156 L167.573333372,103.464764451 L168.68709829,106.655533441 L169.801045166,107.884695923 L170.914810084,108.266324836 L172.02875696,108.375559757 L173.142703836,108.406219488 L174.256468754,108.41515549 L175.37041563,108.417928732 L176.484180548,108.418853146 L177.598127424,108.419469422 L178.7120743,108.419931629 L179.825839218,108.420239767 L180.939786094,108.420547905 L182.053551012,108.420701974 L183.167497888,108.421010112 L184.281444764,108.421164181 L185.395209682,108.42131825 L186.509156558,108.421472319 L187.622921476,108.421626388 L188.736868352,108.421780457 L189.850815228,108.421934526 L190.964580146,108.422088595 L192.078527022,108.422242664 L193.19229194,108.422242664 L194.306238816,108.422396733 L195.420185692,108.422396733 L196.53395061,108.422550802 L197.647897486,108.422704871 L198.761662404,108.422704871 L199.87560928,108.42285894 L200.989556156,108.42285894 L202.103321074,108.423013009 L203.21726795,108.423013009 L204.331032868,108.423013009 L205.444979744,108.423167078 L206.55892662,108.423167078 L207.672691538,108.423321147 L208.786638414,108.423321147 L209.900403332,108.423321147 L211.014350208,108.423475216 L212.128297084,108.423475216 L213.242062002,108.423475216 L214.356008878,108.423629285 L215.469773796,108.423629285 L216.583720672,108.423629285 L217.697667548,108.423783354 L218.811432466,108.423783354 L219.925379342,108.423783354 L221.03914426,108.423937423 L222.153091136,108.423937423 L223.267038012,108.423937423 L224.38080293,108.423937423 L225.494749806,108.424091492 L226.608514724,108.424091492 L227.7224616,108.424091492 L228.836408476,108.424091492 L229.950173394,108.424091492 L231.06412027,108.424091492 L232.177885188,108.424245561 L233.291832064,108.424245561 L234.40577894,108.424245561 L235.519543858,108.424245561 L236.633490734,108.424245561 L237.747255652,108.424091492 L238.861202528,108.424091492 L239.975149404,108.423937423 L241.088914322,108.423475216 L242.202861198,108.421780457 L243.316626116,108.416079904 L244.430572992,108.395434658 L245.544519868,108.320865262 L246.658284786,108.056636927 L247.772231662,107.174129695 L248.88599658,104.687764173 L249.999943456,101.835022569 L251.113890332,101.603302793 L252.22765525,103.831910878 L253.341602126,106.819616926 L254.455367044,107.944012488 L255.56931392,108.289127048 L256.683260796,108.387269001 L257.797025714,108.414693283 L258.91097259,108.422396733 L260.024737508,108.424707768 L261.138684384,108.425478113 L262.25263126,108.42594032 L263.366396178,108.426248458 L264.480343054,108.426402527 L265.594107972,108.426556596 L266.708054848,108.426864734 L267.822001724,108.427018803 L268.935766642,108.427172872 L270.049713518,108.427326941 L271.16311452,108.42748101 L272.27669748,108.427635079 L273.39210002,108.427789148 L274.50568298,108.427943217 L275.61926594,108.428097286 L276.7328489,108.428251355 L277.84643186,108.428405424 L278.96001482,108.428559493 L280.07541736,108.428713562 L281.18900032,108.428867631 L282.30258328,108.4290217 L283.41616624,108.429329838 L284.5297492,108.430254252 L285.64333216,108.431794942 L286.75691512,108.432411218 L287.87231766,108.432565287 L288.98590062,108.432719356 L290.09948358,108.432719356 L291.21306654,108.432719356 L292.3266495,108.432873425 L293.44023246,108.432873425 L294.555635,108.432873425 L295.66921796,108.432873425 L296.78280092,108.433027494 L297.89638388,108.433027494 L299.00996684,108.433027494 L300.1235498,108.433027494 L301.23895234,108.433181563 L302.3525353,108.433181563 L303.46611826,108.433181563 L304.57970122,108.433181563 L305.69328418,108.433181563 L306.80686714,108.433335632 L307.92226968,108.433335632 L309.03585264,108.433335632 L310.1494356,108.433335632 L311.26301856,108.433489701 L312.37660152,108.433489701 L313.49018448,108.433489701 L314.60376744,108.433489701 L315.71916998,108.43364377 L316.83275294,108.43364377 L317.9463359,108.43364377 L319.05991886,108.43364377 L320.17350182,108.433797839 L321.28708478,108.433797839 L322.40248732,108.433797839 L323.51607028,108.433797839 L324.62965324,108.433951908 L325.7432362,108.433951908 L326.85681916,108.433951908 L327.97040212,108.433951908 L329.08580466,108.434105977 L330.19938762,108.434105977 L331.31297058,108.434105977 L332.42655354,108.434105977 L333.5401365,108.434105977 L334.65371946,108.434260046 L335.769122,108.434260046 L336.88270496,108.434260046 L337.99628792,108.434260046 L339.10987088,108.434414115 L340.22345384,108.434414115 L341.3370368,108.434414115 L342.45061976,108.434414115 L343.5660223,108.434568184 L344.67960526,108.434568184 L345.79318822,108.434568184 L346.90677118,108.434568184 L348.02035414,108.434722253 L349.1339371,108.434722253 L350.24933964,108.434876322 L351.3629226,108.435338529 L352.47650556,108.436108874 L353.59008852,108.436571081 L354.70367148,108.43672515 L355.81725444,108.436879219 L356.93265698,108.436879219 L358.04623994,108.436879219 L359.1598229,108.436879219 L360.27340586,108.436879219 L361.38698882,108.437033288 L362.50057178,108.437033288 L363.61597432,108.437033288 L364.72955728,108.437033288 L365.84314024,108.437033288 L366.9567232,108.437033288 L368.07030616,108.437033288 L369.18388912,108.437033288 L370.29747208,108.437033288 L371.41287462,108.437033288 L372.52645758,108.437033288 L373.64004054,108.437033288 L374.7536235,108.437033288 L375.86720646,108.437033288 L376.98078942,108.437033288 L378.09619196,108.437033288 L379.20977492,108.437033288 L380.32335788,108.437033288 L381.43694084,108.437033288 L382.5505238,108.437033288 L383.66410676,108.437033288 L384.7795093,108.437033288 L385.89309226,108.437033288 L387.00667522,108.437033288 L388.12025818,108.437033288 L389.23384114,108.437033288 L390.3474241,108.437033288 L391.46282664,108.437033288 L392.5764096,108.437033288 L393.68999256,108.437033288 L394.80357552,108.437033288 L395.91715848,108.437033288 L397.03074144,108.437033288 L398.1443244,108.436879219 L399.25972694,108.436879219 L400.3733099,108.436879219 L401.48689286,108.436879219 L402.60047582,108.436879219 L403.71405878,108.436879219 L404.82764174,108.436879219 L405.94304428,108.43672515 L407.05662724,108.43672515 L408.1702102,108.436571081 L409.28379316,108.436417012 L410.39737612,108.435954805 L411.51095908,108.435338529 L412.62636162,108.434105977 L413.73994458,108.431794942 L414.85352754,108.427635079 L415.9671105,108.419931629 L417.08069346,108.405449143 L418.19427642,108.378641137 L419.30967896,108.32887685 L420.42326192,108.237051726 L421.53684488,108.068808378 L422.65042784,107.765292448 L423.7640108,107.233138122 L424.87759376,106.33984606 L425.99117672,104.93627747 L427.10657926,102.442670705 L428.22016222,99.242195368 L429.33374518,97.536189331 L430.44732814,96.569714494 L431.5609111,96.091022111 L432.67449406,96.005667885 L433.7898966,96.298398985 L434.90347956,102.996702829 L436.01706252,107.535883707 L437.13064548,108.295443877 L438.24422844,108.38588238 L439.3578114,108.396821279 L440.47321394,108.398824176 L441.5867969,108.399440452 L442.70037986,108.400056728 L443.81396282,108.400364866 L444.92754578,108.400673004 L446.04112874,108.400827073 L447.15653128,108.400827073 L448.27011424,108.400981142 L449.3836972,108.400827073 L450.49728016,108.400673004 L451.61086312,108.400518935 L452.72444608,108.400210797 L453.83802904,108.39974859 L454.95343158,108.399286383 L456.06701454,108.398516038 L457.1805975,108.397591624 L458.29418046,108.396513141 L459.40776342,108.394972451 L460.52134638,108.393123623 L461.63674892,108.390812588 L462.75033188,108.387885277 L463.86391484,108.38434169 L464.9774978,108.37971962 L466.09108076,108.373864998 L467.20466372,108.364774927 L468.32006626,108.33812099 L469.43364922,108.168028814 L470.54723218,106.866299833 L471.66081514,100.501555374 L472.7743981,87.921667455 L473.88798106,85.070466541 L475.0033836,84.321074925 L476.11696656,83.039837121 L477.23054952,82.072129732 L478.34413248,81.323200323 L479.45771544,80.738354399 L480.5712984,80.283542711 L481.68488136,79.936579323 L482.8002839,79.400265134 L483.91386686,78.945915653 L485.02744982,78.585548262 L486.14103278,78.306529303 L487.25461574,78.099614636 L488.3681987,77.958949639 L489.48360124,77.880374449 L490.5971842,77.861886169 L491.71076716,77.903176661 L492.82435012,78.82928542 L493.93793308,80.143185852 L495.05151604,81.43767359 L496.16691858,82.713981186 L497.28050154,83.973187123 L498.3940845,85.215753608 L499.50766746,86.440139951 L500.62125042,87.641570013 L501.73483338,89.059621089 L502.85023592,90.52466321 L503.96381888,92.001106437 L505.07740184,93.488026356 L506.1909848,94.984806691 L507.30456776,96.490523028 L508.41815072,98.00471316 L509.53173368,99.526760811 L510.64713622,101.056049705 L511.76071918,102.592117635 L512.87430214,104.134810532 L513.9878851,105.683358051 L515.10146806,107.237760192 L516.21505102,108.797554748 L517.33045356,110.362279512 L518.44403652,111.931934484 L519.55761948,113.506057457 L520.67120244,115.084648431 L521.7847854,116.667245199 L522.89836836,118.253847761 L524.0137709,119.844147979 L525.12735386,121.437991784 L526.24093682,123.035225107 L527.35451978,124.635693879 L528.46810274,126.239244031 L529.5816857,127.845875563 L530.69708824,129.455280337 L531.8106712,131.067458353 L532.92425416,132.682255542 L534.03783712,134.299671904 L535.15142008,135.919399301 L536.26500304,137.541591802 L537.378586,139.165941269 L538.49398854,140.792447702 L539.6075715,142.421111101 L540.72115446,144.051777397 L541.83473742,145.684292521 L542.94832038,147.318810542 L544.06190334,148.955177391 L545.17730588,150.593238999 L546.29088884,152.232995366 L547.4044718,153.874446492 L548.51805476,155.517438308 L549.63163772,157.161970814 L550.74522068,158.80804401 L551.86062322,160.455503827 L552.97420618,162.104504334 L554.08778914,163.754737393 L555.2013721,165.406357073 L556.31495506,167.059363374 L557.42853802,168.713602227 L558.54394056,170.368919563 L559.65752352,172.02562352 L560.77110648,173.68340596 L561.88468944,175.342266883 L562.9982724,177.002206289 L564.11185536,178.663224178 L565.22543832,180.32532055 L566.34084086,181.988495405 L567.45442382,183.652594674 L568.56800678,185.317618357 L569.68158974,186.983720523 L570.7951727,188.650593034 L571.90875566,190.318389959 L573.0241582,191.987111298 L574.13774116,193.656602982 L575.25132412,195.32701908 L576.36490708,196.998205523 L577.47849004,198.670162311 L578.592073,200.343043513 L579.70747554,202.016540991 L580.8210585,203.690808814 L581.93464146,205.365846982 L583.04822442,207.041501426 L584.16180738,208.717926215 L585.27539034,210.39496728 L586.39079288,212.072794097 L587.50437584,213.751206376 L588.6179588,215.430265745 L589.73154176,217.109956797 L590.84512472,218.790264125 L591.95870768,220.471172321 L593.07229064,222.15266598 L594.18769318,223.834745102 L595.30127614,225.517378872 L596.4148591,227.200585778 L597.52844206,228.884325763 L598.64202502,230.568608071 L599.75560798,232.253414214 L600.87101052,233.938744191 L601.98459348,235.624567189 L603.09817644,237.310883208 L604.2117594,238.997707654 L605.32534236,240.684994308 L606.43892532,242.372743168 L607.55432786,244.061046677 L608.66791082,245.749642917 L609.78149378,247.438701364 L610.89507674,249.128376087 L612.0086597,250.818358948 L613.12224266,252.508649947 L614.2376452,254.199557222 L615.35122816,255.890772635 L616.46481112,257.582450255 L617.57839408,259.274436013 L618.69197704,260.966729909 L619.80556,262.659486012 L620.91914296,264.352704322 L622.0345455,266.046076701 L623.14812846,267.739911287 L624.26171142,269.433899942 L625.37529438,271.128196735 L626.48887734,272.822493528 L627.6024603,274.516790321 L628.71786284,276.210624907 L629.8314458,277.903843217 L630.94502876,279.595674906 L632.05861172,281.285041491 L633.17219468,282.970248213 L634.28577764,284.648367761 L635.40118018,286.315240272 L636.51476314,287.963470434 L637.6283461,289.582273417 L638.74192906,291.154393493 L639.85551202,292.654101139 L640.96909498,294.02362048 L642.08449752,295.003961527 L643.19808048,295.760594386 L644.31166344,296.241289666 " fill-rule="evenodd" vector-effect="non-scaling-stroke"/>
                        </g>
                    </g>
                </g>
                <g id="PlotDataItem_5"/>
                <g id="PlotDataItem_6"/>
                <g id="PlotDataItem_7"/>
                <g id="PlotDataItem_8"/>
            </g>
            <g fill="none" fill-rule="evenodd" id="LegendItem_1" stroke="black" stroke-linecap="square" stroke-linejoin="bevel" stroke-width="1">
                <g fill="#646464" fill-opacity="0.196078" font-family="MS Shell Dlg 2" font-size="11" font-style="normal" font-weight="400" stroke="#ffffff" stroke-linecap="square" stroke-linejoin="bevel" stroke-opacity="0.392157" stroke-width="1">
                    <path d="M94.8,61.0 L189.8,61.0 L189.8,262.0 L94.8,262.0 L94.8,61.0 " fill-rule="evenodd" vector-effect="non-scaling-stroke"/>
                </g>
                <g fill="none" fill-rule="evenodd" id="ItemSample_1" stroke="black" stroke-linecap="square" stroke-linejoin="bevel" stroke-width="1">
                    <g fill="none" font-family="MS Shell Dlg 2" font-size="11" font-style="normal" font-weight="400" stroke="#ed815e" stroke-linecap="square" stroke-linejoin="bevel" stroke-opacity="1" stroke-width="1.5">
                        <polyline fill="none" points="105.8,88.0 121.8,72.0" vector-effect="non-scaling-stroke"/>
                    </g>
                </g>
                <g fill="none" fill-rule="evenodd" id="LabelItem_1" stroke="black" stroke-linecap="square" stroke-linejoin="bevel" stroke-width="1">
                    <g fill="none" fill-rule="evenodd" id="QGraphicsTextItem_3" stroke="black" stroke-linecap="square" stroke-linejoin="bevel" stroke-width="1">
                        


                        


                        <g fill="none" font-family="MS Shell Dlg 2" font-size="11" font-style="normal" font-weight="400" stroke="#969696" stroke-linecap="square" stroke-linejoin="bevel" stroke-opacity="1" stroke-width="1" transform="matrix(1,0,0,1,136.3,70)">
                            <text fill="#969696" fill-opacity="1" font-family="&quot;MS Shell Dlg 2&quot;, sans-serif" font-size="11" font-style="normal" font-weight="400" stroke="none" x="4" xml:space="preserve" y="15">H2</text>
                        </g>
                        


                        

                    </g>
                </g>
                <g fill="none" fill-rule="evenodd" id="ItemSample_2" stroke="black" stroke-linecap="square" stroke-linejoin="bevel" stroke-width="1">
                    <g fill="none" font-family="MS Shell Dlg 2" font-size="11" font-style="normal" font-weight="400" stroke="#c7b069" stroke-linecap="square" stroke-linejoin="bevel" stroke-opacity="1" stroke-width="1.5">
                        <polyline fill="none" points="105.8,115.0 121.8,99.0" vector-effect="non-scaling-stroke"/>
                    </g>
                </g>
                <g fill="none" fill-rule="evenodd" id="LabelItem_2" stroke="black" stroke-linecap="square" stroke-linejoin="bevel" stroke-width="1">
                    <g fill="none" fill-rule="evenodd" id="QGraphicsTextItem_4" stroke="black" stroke-linecap="square" stroke-linejoin="bevel" stroke-width="1">
                        


                        


                        <g fill="none" font-family="MS Shell Dlg 2" font-size="11" font-style="normal" font-weight="400" stroke="#969696" stroke-linecap="square" stroke-linejoin="bevel" stroke-opacity="1" stroke-width="1" transform="matrix(1,0,0,1,132.8,97)">
                            <text fill="#969696" fill-opacity="1" font-family="&quot;MS Shell Dlg 2&quot;, sans-serif" font-size="11" font-style="normal" font-weight="400" stroke="none" x="4" xml:space="preserve" y="15">CH4</text>
                        </g>
                        


                        

                    </g>
                </g>
                <g fill="none" fill-rule="evenodd" id="ItemSample_3" stroke="black" stroke-linecap="square" stroke-linejoin="bevel" stroke-width="1">
                    <g fill="none" font-family="MS Shell Dlg 2" font-size="11" font-style="normal" font-weight="400" stroke="#7ea695" stroke-linecap="square" stroke-linejoin="bevel" stroke-opacity="1" stroke-width="1.5">
                        <polyline fill="none" points="105.8,142.0 121.8,126.0" vector-effect="non-scaling-stroke"/>
                    </g>
                </g>
                <g fill="none" fill-rule="evenodd" id="LabelItem_3" stroke="black" stroke-linecap="square" stroke-linejoin="bevel" stroke-width="1">
                    <g fill="none" fill-rule="evenodd" id="QGraphicsTextItem_5" stroke="black" stroke-linecap="square" stroke-linejoin="bevel" stroke-width="1">
                        


                        


                        <g fill="none" font-family="MS Shell Dlg 2" font-size="11" font-style="normal" font-weight="400" stroke="#969696" stroke-linecap="square" stroke-linejoin="bevel" stroke-opacity="1" stroke-width="1" transform="matrix(1,0,0,1,135.3,124)">
                            <text fill="#969696" fill-opacity="1" font-family="&quot;MS Shell Dlg 2&quot;, sans-serif" font-size="11" font-style="normal" font-weight="400" stroke="none" x="4" xml:space="preserve" y="15">CO</text>
                        </g>
                        


                        

                    </g>
                </g>
                <g fill="none" fill-rule="evenodd" id="ItemSample_4" stroke="black" stroke-linecap="square" stroke-linejoin="bevel" stroke-width="1">
                    <g fill="none" font-family="MS Shell Dlg 2" font-size="11" font-style="normal" font-weight="400" stroke="#8a7c91" stroke-linecap="square" stroke-linejoin="bevel" stroke-opacity="1" stroke-width="1.5">
                        <polyline fill="none" points="105.8,169.0 121.8,153.0" vector-effect="non-scaling-stroke"/>
                    </g>
                </g>
                <g fill="none" fill-rule="evenodd" id="LabelItem_4" stroke="black" stroke-linecap="square" stroke-linejoin="bevel" stroke-width="1">
                    <g fill="none" fill-rule="evenodd" id="QGraphicsTextItem_6" stroke="black" stroke-linecap="square" stroke-linejoin="bevel" stroke-width="1">
                        


                        


                        <g fill="none" font-family="MS Shell Dlg 2" font-size="11" font-style="normal" font-weight="400" stroke="#969696" stroke-linecap="square" stroke-linejoin="bevel" stroke-opacity="1" stroke-width="1" transform="matrix(1,0,0,1,132.3,151)">
                            <text fill="#969696" fill-opacity="1" font-family="&quot;MS Shell Dlg 2&quot;, sans-serif" font-size="11" font-style="normal" font-weight="400" stroke="none" x="4" xml:space="preserve" y="15">CO2</text>
                        </g>
                        


                        

                    </g>
                </g>
                <g fill="none" fill-rule="evenodd" id="ItemSample_5" stroke="black" stroke-linecap="square" stroke-linejoin="bevel" stroke-width="1">
                    <g fill="none" font-family="MS Shell Dlg 2" font-size="11" font-style="normal" font-weight="400" stroke="#ff2e70" stroke-linecap="square" stroke-linejoin="bevel" stroke-opacity="1" stroke-width="2">
                        <polyline fill="none" points="105.8,196.0 121.8,180.0" vector-effect="non-scaling-stroke"/>
                    </g>
                </g>
                <g fill="none" fill-rule="evenodd" id="LabelItem_5" stroke="black" stroke-linecap="square" stroke-linejoin="bevel" stroke-width="1">
                    <g fill="none" fill-rule="evenodd" id="QGraphicsTextItem_7" stroke="black" stroke-linecap="square" stroke-linejoin="bevel" stroke-width="1">
                        


                        


                        <g fill="none" font-family="MS Shell Dlg 2" font-size="11" font-style="normal" font-weight="400" stroke="#969696" stroke-linecap="square" stroke-linejoin="bevel" stroke-opacity="1" stroke-width="1" transform="matrix(1,0,0,1,112.8,178)">
                            <text fill="#969696" fill-opacity="1" font-family="&quot;MS Shell Dlg 2&quot;, sans-serif" font-size="11" font-style="normal" font-weight="400" stroke="none" x="4" xml:space="preserve" y="15">total density</text>
                        </g>
                        


                        

                    </g>
                </g>
                <g fill="none" fill-rule="evenodd" id="ItemSample_6" stroke="black" stroke-linecap="square" stroke-linejoin="bevel" stroke-width="1">
                    <g fill="none" font-family="MS Shell Dlg 2" font-size="11" font-style="normal" font-weight="400" stroke="none">
                        <polyline fill="none" points="105.8,223.0 121.8,207.0" vector-effect="non-scaling-stroke"/>
                    </g>
                    <g fill="#0000ff" fill-opacity="0.588235" font-family="MS Shell Dlg 2" font-size="11" font-style="normal" font-weight="400" stroke="#ffffff" stroke-linecap="square" stroke-linejoin="bevel" stroke-opacity="0.784314" stroke-width="1">
                        <path d="M116.3,215.0 C116.3,216.38071 115.18071,217.5 113.8,217.5 C112.41929,217.5 111.3,216.38071 111.3,215.0 C111.3,213.61929 112.41929,212.5 113.8,212.5 C115.18071,212.5 116.3,213.61929 116.3,215.0 " fill-rule="evenodd" vector-effect="non-scaling-stroke"/>
                    </g>
                </g>
                <g fill="none" fill-rule="evenodd" id="LabelItem_6" stroke="black" stroke-linecap="square" stroke-linejoin="bevel" stroke-width="1">
                    <g fill="none" fill-rule="evenodd" id="QGraphicsTextItem_8" stroke="black" stroke-linecap="square" stroke-linejoin="bevel" stroke-width="1">
                        


                        


                        <g fill="none" font-family="MS Shell Dlg 2" font-size="11" font-style="normal" font-weight="400" stroke="#969696" stroke-linecap="square" stroke-linejoin="bevel" stroke-opacity="1" stroke-width="1" transform="matrix(1,0,0,1,120.8,205)">
                            <text fill="#969696" fill-opacity="1" font-family="&quot;MS Shell Dlg 2&quot;, sans-serif" font-size="11" font-style="normal" font-weight="400" stroke="none" x="4" xml:space="preserve" y="15">LHC data</text>
                        </g>
                        


                        

                    </g>
                </g>
                <g fill="none" fill-rule="evenodd" id="ItemSample_7" stroke="black" stroke-linecap="square" stroke-linejoin="bevel" stroke-width="1">
                    <g fill="none" font-family="MS Shell Dlg 2" font-size="11" font-style="normal" font-weight="400" stroke="none">
                        <polyline fill="none" points="105.8,250.0 121.8,234.0" vector-effect="non-scaling-stroke"/>
                    </g>
                    <g fill="#0000ff" fill-opacity="0.588235" font-family="MS Shell Dlg 2" font-size="11" font-style="normal" font-weight="400" stroke="#ffffff" stroke-linecap="square" stroke-linejoin="bevel" stroke-opacity="0.784314" stroke-width="1">
                        <path d="M111.3,241.75 L111.3,242.25 L113.55,242.25 L113.55,244.5 L114.05,244.5 L114.05,242.25 L116.3,242.25 L116.3,241.75 L114.05,241.75 L114.05,239.5 L113.55,239.5 L113.55,241.75 L111.3,241.75 " fill-rule="evenodd" vector-effect="non-scaling-stroke"/>
                    </g>
                </g>
                <g fill="none" fill-rule="evenodd" id="LabelItem_7" stroke="black" stroke-linecap="square" stroke-linejoin="bevel" stroke-width="1">
                    <g fill="none" fill-rule="evenodd" id="QGraphicsTextItem_9" stroke="black" stroke-linecap="square" stroke-linejoin="bevel" stroke-width="1">
                        


                        


                        <g fill="none" font-family="MS Shell Dlg 2" font-size="11" font-style="normal" font-weight="400" stroke="#969696" stroke-linecap="square" stroke-linejoin="bevel" stroke-opacity="1" stroke-width="1" transform="matrix(1,0,0,1,120.8,232)">
                            <text fill="#969696" fill-opacity="1" font-family="&quot;MS Shell Dlg 2&quot;, sans-serif" font-size="11" font-style="normal" font-weight="400" stroke="none" x="4" xml:space="preserve" y="15">LHC data</text>
                        </g>
                        


                        

                    </g>
                </g>
            </g>
        </g>
    </g>
    <g fill="none" fill-rule="evenodd" id="LabelItem_8" stroke="black" stroke-linecap="square" stroke-linejoin="bevel" stroke-width="1">
        <g fill="none" fill-rule="evenodd" id="QGraphicsTextItem_10" stroke="black" stroke-linecap="square" stroke-linejoin="bevel" stroke-width="1">
            


            


            <g fill="none" font-family="MS Shell Dlg 2" font-size="11" font-style="normal" font-weight="400" stroke="#969696" stroke-linecap="square" stroke-linejoin="bevel" stroke-opacity="1" stroke-width="1" transform="matrix(1,0,0,1,324.4,3)">
                <text fill="#969696" fill-opacity="1" font-family="&quot;MS Shell Dlg 2&quot;, sans-serif" font-size="14.6667" font-style="normal" font-weight="400" stroke="none" x="4" xml:space="preserve" y="19">Density-Plot</text>
            </g>
            


            

        </g>
    </g>
</g>

</svg>
