<?xml version="1.0" encoding="UTF-8" standalone="no"?>
<svg xmlns="http://www.w3.org/2000/svg" xmlns:xlink="http://www.w3.org/1999/xlink"  version="1.2" baseProfile="tiny">
<title>pyqtgraph SVG export</title>
<desc>Generated with Qt and pyqtgraph</desc>
<defs>
</defs>
<g fill="none" fill-rule="evenodd" id="PlotItem_1" stroke="black" stroke-linecap="square" stroke-linejoin="bevel" stroke-width="1">
    <g fill="none" fill-rule="evenodd" id="AxisItem_1" stroke="black" stroke-linecap="square" stroke-linejoin="bevel" stroke-width="1">
        <g fill="none" font-family="MS Shell Dlg 2" font-size="11" font-style="normal" font-weight="400" stroke="#969696" stroke-linecap="square" stroke-linejoin="bevel" stroke-opacity="1" stroke-width="1">
            <polyline fill="none" points="64.8,320.2 668.0,320.2" vector-effect="non-scaling-stroke"/>
        </g>
        <g fill="none" font-family="MS Shell Dlg 2" font-size="11" font-style="normal" font-weight="400" stroke="#969696" stroke-linecap="square" stroke-linejoin="bevel" stroke-opacity="0.498039" stroke-width="1">
            <polyline fill="none" points="82.9882,31.0 82.9882,320.2" vector-effect="non-scaling-stroke"/>
        </g>
        <g fill="none" font-family="MS Shell Dlg 2" font-size="11" font-style="normal" font-weight="400" stroke="#969696" stroke-linecap="square" stroke-linejoin="bevel" stroke-opacity="0.247059" stroke-width="1">
            <polyline fill="none" points="268.263,31.0 268.263,320.2" vector-effect="non-scaling-stroke"/>
            <polyline fill="none" points="453.537,31.0 453.537,320.2" vector-effect="non-scaling-stroke"/>
            <polyline fill="none" points="638.812,31.0 638.812,320.2" vector-effect="non-scaling-stroke"/>
        </g>
        <g fill="none" font-family="MS Shell Dlg 2" font-size="11" font-style="normal" font-weight="400" stroke="#969696" stroke-linecap="square" stroke-linejoin="bevel" stroke-opacity="0.164706" stroke-width="1">
            <polyline fill="none" points="175.625,31.0 175.625,320.2" vector-effect="non-scaling-stroke"/>
            <polyline fill="none" points="360.9,31.0 360.9,320.2" vector-effect="non-scaling-stroke"/>
            <polyline fill="none" points="546.175,31.0 546.175,320.2" vector-effect="non-scaling-stroke"/>
        </g>
        <g fill="none" font-family="MS Shell Dlg 2" font-size="11" font-style="normal" font-weight="400" stroke="#969696" stroke-linecap="square" stroke-linejoin="bevel" stroke-opacity="1" stroke-width="1" transform="matrix(1,0,0,1,65.3,320.2)">
            <text fill="#969696" fill-opacity="1" font-family="&quot;MS Shell Dlg 2&quot;, sans-serif" font-size="11" font-style="normal" font-weight="400" stroke="none" x="14.6875" xml:space="preserve" y="12">0</text>
            <text fill="#969696" fill-opacity="1" font-family="&quot;MS Shell Dlg 2&quot;, sans-serif" font-size="11" font-style="normal" font-weight="400" stroke="none" x="199.953" xml:space="preserve" y="12">2</text>
            <text fill="#969696" fill-opacity="1" font-family="&quot;MS Shell Dlg 2&quot;, sans-serif" font-size="11" font-style="normal" font-weight="400" stroke="none" x="385.234" xml:space="preserve" y="12">4</text>
            <text fill="#969696" fill-opacity="1" font-family="&quot;MS Shell Dlg 2&quot;, sans-serif" font-size="11" font-style="normal" font-weight="400" stroke="none" x="570.5" xml:space="preserve" y="12">6</text>
            <text fill="#969696" fill-opacity="1" font-family="&quot;MS Shell Dlg 2&quot;, sans-serif" font-size="11" font-style="normal" font-weight="400" stroke="none" x="107.312" xml:space="preserve" y="12">1</text>
            <text fill="#969696" fill-opacity="1" font-family="&quot;MS Shell Dlg 2&quot;, sans-serif" font-size="11" font-style="normal" font-weight="400" stroke="none" x="292.594" xml:space="preserve" y="12">3</text>
            <text fill="#969696" fill-opacity="1" font-family="&quot;MS Shell Dlg 2&quot;, sans-serif" font-size="11" font-style="normal" font-weight="400" stroke="none" x="477.859" xml:space="preserve" y="12">5</text>
        </g>
        <g fill="none" fill-rule="evenodd" id="QGraphicsTextItem_1" stroke="black" stroke-linecap="square" stroke-linejoin="bevel" stroke-width="1">
            


            


            <g fill="none" font-family="MS Shell Dlg 2" font-size="11" font-style="normal" font-weight="400" stroke="#ffffff" stroke-linecap="square" stroke-linejoin="bevel" stroke-opacity="1" stroke-width="1" transform="matrix(1,0,0,1,257.8,338.2)">
                <text fill="#ffffff" fill-opacity="1" font-family="&quot;MS Shell Dlg 2&quot;, sans-serif" font-size="18.6667" font-style="normal" font-weight="400" stroke="none" x="4" xml:space="preserve" y="23">Axis along beam line (m)</text>
            </g>
            


            

        </g>
    </g>
    <g fill="none" fill-rule="evenodd" id="AxisItem_2" stroke="black" stroke-linecap="square" stroke-linejoin="bevel" stroke-width="1">
        <g fill="none" font-family="MS Shell Dlg 2" font-size="11" font-style="normal" font-weight="400" stroke="#969696" stroke-linecap="square" stroke-linejoin="bevel" stroke-opacity="1" stroke-width="1">
            <polyline fill="none" points="64.8,31.0 64.8,320.2" vector-effect="non-scaling-stroke"/>
        </g>
        <g fill="none" font-family="MS Shell Dlg 2" font-size="11" font-style="normal" font-weight="400" stroke="#969696" stroke-linecap="square" stroke-linejoin="bevel" stroke-opacity="0.498039" stroke-width="1">
            <polyline fill="none" points="668.5,285.93 65.3,285.93" vector-effect="non-scaling-stroke"/>
            <polyline fill="none" points="668.5,161.702 65.3,161.702" vector-effect="non-scaling-stroke"/>
            <polyline fill="none" points="668.5,37.47306 65.3,37.47306" vector-effect="non-scaling-stroke"/>
        </g>
        <g fill="none" font-family="MS Shell Dlg 2" font-size="11" font-style="normal" font-weight="400" stroke="#969696" stroke-linecap="square" stroke-linejoin="bevel" stroke-opacity="0.247059" stroke-width="1">
            <polyline fill="none" points="668.5,223.816 65.3,223.816" vector-effect="non-scaling-stroke"/>
            <polyline fill="none" points="668.5,99.5874 65.3,99.5874" vector-effect="non-scaling-stroke"/>
        </g>
        <g fill="none" font-family="MS Shell Dlg 2" font-size="11" font-style="normal" font-weight="400" stroke="#969696" stroke-linecap="square" stroke-linejoin="bevel" stroke-opacity="0.0509804" stroke-width="1">
            <polyline fill="none" points="668.5,318.409 65.3,318.409" vector-effect="non-scaling-stroke"/>
            <polyline fill="none" points="668.5,310.648 65.3,310.648" vector-effect="non-scaling-stroke"/>
            <polyline fill="none" points="668.5,304.629 65.3,304.629" vector-effect="non-scaling-stroke"/>
            <polyline fill="none" points="668.5,299.71 65.3,299.71" vector-effect="non-scaling-stroke"/>
            <polyline fill="none" points="668.5,295.552 65.3,295.552" vector-effect="non-scaling-stroke"/>
            <polyline fill="none" points="668.5,291.95 65.3,291.95" vector-effect="non-scaling-stroke"/>
            <polyline fill="none" points="668.5,288.773 65.3,288.773" vector-effect="non-scaling-stroke"/>
            <polyline fill="none" points="668.5,285.93 65.3,285.93" vector-effect="non-scaling-stroke"/>
            <polyline fill="none" points="668.5,267.232 65.3,267.232" vector-effect="non-scaling-stroke"/>
            <polyline fill="none" points="668.5,256.294 65.3,256.294" vector-effect="non-scaling-stroke"/>
            <polyline fill="none" points="668.5,248.534 65.3,248.534" vector-effect="non-scaling-stroke"/>
            <polyline fill="none" points="668.5,242.514 65.3,242.514" vector-effect="non-scaling-stroke"/>
            <polyline fill="none" points="668.5,237.596 65.3,237.596" vector-effect="non-scaling-stroke"/>
            <polyline fill="none" points="668.5,233.438 65.3,233.438" vector-effect="non-scaling-stroke"/>
            <polyline fill="none" points="668.5,229.836 65.3,229.836" vector-effect="non-scaling-stroke"/>
            <polyline fill="none" points="668.5,226.658 65.3,226.658" vector-effect="non-scaling-stroke"/>
            <polyline fill="none" points="668.5,223.816 65.3,223.816" vector-effect="non-scaling-stroke"/>
            <polyline fill="none" points="668.5,205.118 65.3,205.118" vector-effect="non-scaling-stroke"/>
            <polyline fill="none" points="668.5,194.18 65.3,194.18" vector-effect="non-scaling-stroke"/>
            <polyline fill="none" points="668.5,186.42 65.3,186.42" vector-effect="non-scaling-stroke"/>
            <polyline fill="none" points="668.5,180.4 65.3,180.4" vector-effect="non-scaling-stroke"/>
            <polyline fill="none" points="668.5,175.482 65.3,175.482" vector-effect="non-scaling-stroke"/>
            <polyline fill="none" points="668.5,171.323 65.3,171.323" vector-effect="non-scaling-stroke"/>
            <polyline fill="none" points="668.5,167.721 65.3,167.721" vector-effect="non-scaling-stroke"/>
            <polyline fill="none" points="668.5,164.544 65.3,164.544" vector-effect="non-scaling-stroke"/>
            <polyline fill="none" points="668.5,161.702 65.3,161.702" vector-effect="non-scaling-stroke"/>
            <polyline fill="none" points="668.5,143.003 65.3,143.003" vector-effect="non-scaling-stroke"/>
            <polyline fill="none" points="668.5,132.066 65.3,132.066" vector-effect="non-scaling-stroke"/>
            <polyline fill="none" points="668.5,124.3052 65.3,124.3052" vector-effect="non-scaling-stroke"/>
            <polyline fill="none" points="668.5,118.2857 65.3,118.2857" vector-effect="non-scaling-stroke"/>
            <polyline fill="none" points="668.5,113.3674 65.3,113.3674" vector-effect="non-scaling-stroke"/>
            <polyline fill="none" points="668.5,109.209 65.3,109.209" vector-effect="non-scaling-stroke"/>
            <polyline fill="none" points="668.5,105.6069 65.3,105.6069" vector-effect="non-scaling-stroke"/>
            <polyline fill="none" points="668.5,102.4296 65.3,102.4296" vector-effect="non-scaling-stroke"/>
            <polyline fill="none" points="668.5,99.5874 65.3,99.5874" vector-effect="non-scaling-stroke"/>
            <polyline fill="none" points="668.5,80.8891 65.3,80.8891" vector-effect="non-scaling-stroke"/>
            <polyline fill="none" points="668.5,69.9513 65.3,69.9513" vector-effect="non-scaling-stroke"/>
            <polyline fill="none" points="668.5,62.1908 65.3,62.1908" vector-effect="non-scaling-stroke"/>
            <polyline fill="none" points="668.5,56.1713 65.3,56.1713" vector-effect="non-scaling-stroke"/>
            <polyline fill="none" points="668.5,51.253 65.3,51.253" vector-effect="non-scaling-stroke"/>
            <polyline fill="none" points="668.5,47.0947 65.3,47.0947" vector-effect="non-scaling-stroke"/>
            <polyline fill="none" points="668.5,43.4926 65.3,43.4926" vector-effect="non-scaling-stroke"/>
            <polyline fill="none" points="668.5,40.31525 65.3,40.31525" vector-effect="non-scaling-stroke"/>
            <polyline fill="none" points="668.5,37.47306 65.3,37.47306" vector-effect="non-scaling-stroke"/>
        </g>
        <g fill="none" font-family="MS Shell Dlg 2" font-size="11" font-style="normal" font-weight="400" stroke="#969696" stroke-linecap="square" stroke-linejoin="bevel" stroke-opacity="1" stroke-width="1" transform="matrix(1,0,0,1,1.5,31)">
            <text fill="#969696" fill-opacity="1" font-family="&quot;MS Shell Dlg 2&quot;, sans-serif" font-size="11" font-style="normal" font-weight="400" stroke="none" x="26.7969" xml:space="preserve" y="259.719">1e+12</text>
            <text fill="#969696" fill-opacity="1" font-family="&quot;MS Shell Dlg 2&quot;, sans-serif" font-size="11" font-style="normal" font-weight="400" stroke="none" x="26.7969" xml:space="preserve" y="135.5">1e+14</text>
            <text fill="#969696" fill-opacity="1" font-family="&quot;MS Shell Dlg 2&quot;, sans-serif" font-size="11" font-style="normal" font-weight="400" stroke="none" x="26.7969" xml:space="preserve" y="11.2656">1e+16</text>
            <text fill="#969696" fill-opacity="1" font-family="&quot;MS Shell Dlg 2&quot;, sans-serif" font-size="11" font-style="normal" font-weight="400" stroke="none" x="26.7969" xml:space="preserve" y="197.609">1e+13</text>
            <text fill="#969696" fill-opacity="1" font-family="&quot;MS Shell Dlg 2&quot;, sans-serif" font-size="11" font-style="normal" font-weight="400" stroke="none" x="26.7969" xml:space="preserve" y="73.375">1e+15</text>
        </g>
        <g fill="none" fill-rule="evenodd" id="QGraphicsTextItem_2" stroke="black" stroke-linecap="square" stroke-linejoin="bevel" stroke-width="1">
            


            


            <g fill="none" font-family="MS Shell Dlg 2" font-size="11" font-style="normal" font-weight="400" stroke="#ffffff" stroke-linecap="square" stroke-linejoin="bevel" stroke-opacity="1" stroke-width="1" transform="matrix(0,-1,1,0,-4,287)">
                <text fill="#ffffff" fill-opacity="1" font-family="&quot;MS Shell Dlg 2&quot;, sans-serif" font-size="18.6667" font-style="normal" font-weight="400" stroke="none" x="4" xml:space="preserve" y="23">Density (particles per m3)</text>
            </g>
            


            

        </g>
    </g>
    <g fill="none" fill-rule="evenodd" id="ViewBox_1" stroke="black" stroke-linecap="square" stroke-linejoin="bevel" stroke-width="1">
        <g fill="none" font-family="MS Shell Dlg 2" font-size="11" font-style="normal" font-weight="400" stroke="none">
            <path d="M64.8,31.0 L668.0,31.0 L668.0,320.2 L64.8,320.2 L64.8,31.0 " fill-rule="evenodd" vector-effect="non-scaling-stroke"/>
        </g>
        <clipPath id="ViewBox_1_clip">
            <path d="M64.8,31.0 L668.0,31.0 L668.0,320.2 L64.8,320.2 L64.8,31.0 " fill-rule="evenodd" vector-effect="non-scaling-stroke"/>
        </clipPath>
        <g clip-path="url(#ViewBox_1_clip)">
            <g fill="none" fill-rule="evenodd" id="ChildGroup_1" stroke="black" stroke-linecap="square" stroke-linejoin="bevel" stroke-width="1">
                <g id="PlotDataItem_1">
                    <g fill="none" fill-rule="evenodd" id="PlotCurveItem_1" stroke="black" stroke-linecap="square" stroke-linejoin="bevel" stroke-width="1">
                        <g fill="none" font-family="MS Shell Dlg 2" font-size="11" font-style="normal" font-weight="400" stroke="#ed815e" stroke-linecap="square" stroke-linejoin="bevel" stroke-opacity="1" stroke-width="1.5">
                            <path d="M82.4882000926,60.00470432 L83.5998476,59.4891548 L84.7114952,58.97981672 L85.8231428,58.48911296 L86.9347904,57.9984092 L88.046438,57.52012832 L89.1580856,57.05427032 L90.2697332,56.58841232 L91.3813808,56.1349772 L92.4930284,55.68775352 L93.604676,55.25295272 L94.7163236,54.81815192 L95.8279712,54.38956256 L96.9396188,53.97339608 L98.0512664,53.56344104 L99.162914,53.153486 " fill-rule="evenodd" vector-effect="non-scaling-stroke"/>
                        </g>
                    </g>
                </g>
                <g id="PlotDataItem_2">
                    <g fill="none" fill-rule="evenodd" id="PlotCurveItem_2" stroke="black" stroke-linecap="square" stroke-linejoin="bevel" stroke-width="1">
                        <g fill="none" font-family="MS Shell Dlg 2" font-size="11" font-style="normal" font-weight="400" stroke="#c7b069" stroke-linecap="square" stroke-linejoin="bevel" stroke-opacity="1" stroke-width="1.5">
                            <path d="L100.2745616,152.01476504 L101.3862092,152.62348616 L102.4978568,153.24463016 L103.6095044,153.87819704 L104.721152,154.53039824 L105.8327996,155.19502232 L106.9444472,155.87828072 L108.0560948,156.58017344 L109.1677424,157.30070048 L110.27939,158.03986184 L111.3910376,158.80386896 L112.5026852,159.5865104 L113.6143328,160.3939976 L114.7259804,161.22633056 L115.837628,162.08350928 L116.9492756,162.9717452 L118.0609232,145.21944968 L119.1725708,145.69151912 L120.2842184,146.1698 L121.395866,146.66050376 L122.5075136,147.15741896 L123.6191612,147.66675704 L124.7308088,148.18230656 L125.8424564,148.71027896 L126.954104,149.25067424 L128.0657516,149.79728096 L129.1773992,150.35631056 L130.2890468,150.93397448 L131.4006944,151.51784984 L132.512342,152.11414808 L133.6239896,152.72908064 L134.7356372,144.50513408 L135.8472848,144.97099208 L136.9589324,145.43685008 L138.07058,145.91513096 L139.1822276,146.39962328 L140.2938752,146.89653848 L141.4055228,147.39966512 L142.5171704,147.91521464 L143.628818,148.4369756 L144.7404656,148.97115944 L145.8521132,149.51776616 L146.9637608,150.07679576 L148.0754084,150.6420368 L149.187056,151.22591216 L150.2987036,151.81599896 L151.4103512,152.42472008 L152.5219988,145.6728848 L153.6336464,146.15737712 L154.745294,146.64808088 L155.8569416,147.15120752 L156.9685892,147.6605456 L158.0802368,148.18230656 L159.1918844,148.7164904 L160.303532,149.25688568 L161.4151796,149.80970384 L162.5268272,150.37494488 L163.6384748,150.9526088 L164.7501224,151.53648416 L165.86177,152.13899384 L166.9734176,152.76013784 L168.0850652,153.38749328 L169.1967128,154.03348304 L170.3083604,147.29407064 L171.420008,147.80340872 L172.5316556,148.33138112 L173.6433032,148.86556496 L174.7549508,149.41217168 L175.8665984,149.97120128 L176.978246,150.53644232 L178.0898936,151.12031768 L179.2015412,151.71661592 L180.3131888,152.32533704 L181.4248364,152.94648104 L182.536484,153.58004792 L183.6481316,154.23224912 L184.7597792,154.90308464 L185.8714268,155.59255448 L186.9830744,148.5922616 L188.094722,149.13265688 L189.2063696,149.68547504 L190.3180172,150.25071608 L191.4296648,150.82838 L192.5413124,151.4184668 L193.65296,152.02097648 L194.7646076,152.63590904 L195.8762552,153.26947592 L196.9879028,153.91546568 L198.0995504,154.57387832 L199.211198,155.25713672 L200.3228456,155.952818 L201.4344932,156.6671336 L202.5461408,157.40008352 L203.6577884,158.1578792 L204.769436,150.5799224 L205.8810836,151.16379776 L206.9927312,151.76630744 L208.1043788,152.37502856 L209.2160264,153.002384 L210.327674,153.64216232 L211.4393216,154.30057496 L212.5509692,154.97141048 L213.6626168,155.66088032 L214.7742644,156.36898448 L215.885912,157.09572296 L216.9975596,157.84109576 L218.1092072,158.61131432 L219.2208548,159.40637864 L220.3325024,160.22007728 L221.44415,152.13899384 L222.5557976,152.76013784 L223.6674452,153.39370472 L224.7790928,154.04590592 L225.8907404,154.71053 L227.002388,155.39999984 L228.1140356,156.10189256 L229.2256832,156.8224196 L230.3373308,157.56158096 L231.4489784,158.32558808 L232.560626,159.10822952 L233.6722736,159.91571672 L234.7839212,160.74804968 L235.8955688,161.61143984 L237.0072164,162.49967576 L238.118864,163.41275744 L239.2305116,154.47449528 L240.3421592,155.15154224 L241.4538068,155.84722352 L242.5654544,156.56153912 L243.677102,157.30070048 L244.7887496,158.05228472 L245.9003972,158.83492616 L247.0120448,159.63620192 L248.1236924,160.456112 L249.23534,161.30707928 L250.3469876,162.18910376 L251.4586352,163.095974 L252.5702828,164.04011288 L253.6819304,165.01530896 L254.793578,166.02777368 L255.9052256,167.07750704 L257.0168732,157.05224288 L258.1285208,157.80382712 L259.2401684,158.57404568 L260.351816,159.36911 L261.4634636,160.18280864 L262.5751112,161.02756448 L263.6867588,161.89716608 L264.7984064,162.79782488 L265.910054,163.72954088 L267.0217016,164.69231408 L268.1333492,165.69856736 L269.2449968,166.73587784 L270.3566444,167.8166684 L271.468292,168.94093904 L272.5799396,170.1149012 L273.6915872,159.11444096 L274.8032348,159.9281396 L275.9148824,160.76047256 L277.02653,161.62386272 L278.1381776,162.51831008 L279.2498252,163.4376032 L280.3614728,164.39416496 L281.4731204,165.38178392 L282.584768,166.41288296 L283.6964156,167.48125064 L284.8080632,168.5930984 L285.9197108,169.75463768 L287.0313584,170.96586848 L288.143006,172.23300224 L289.2546536,173.56846184 L290.3663012,174.96603584 L291.4779488,162.24500672 L292.5895964,163.1580884 L293.701244,164.10843872 L294.8128916,165.0836348 L295.9245392,166.10231096 L297.0361868,167.15825576 L298.1478344,168.25768064 L299.259482,169.40679704 L300.3711296,170.59939352 L301.4827772,171.8541044 L302.5944248,173.17092968 L303.7060724,174.54986936 L304.81772,176.00955776 L305.9293676,177.54378344 L307.0410152,179.17739216 L308.1526628,180.91659536 L309.2643104,165.80416184 L310.375958,166.84768376 L311.4876056,167.93468576 L312.5992532,169.07137928 L313.7109008,170.25155288 L314.8225484,171.48762944 L315.934196,172.7858204 L317.0458436,174.14612576 L318.1574912,175.5809684 L319.2691388,177.09655976 L320.3807864,178.70532272 L321.492434,180.40725728 L322.6040816,182.23342064 L323.7157292,184.1838128 L324.8273768,186.2957024 L325.9390244,168.74217296 L327.050672,169.90992368 L328.1623196,171.13357736 L329.2739672,172.413134 L330.3856148,173.75480504 L331.4972624,175.16480192 L332.60891,176.66175896 L333.7205576,178.23946472 L334.8322052,179.91655352 L335.9438528,181.70544824 L337.0555004,183.61857176 L338.167148,185.68076984 L339.2787956,187.91688824 L340.3904432,190.35177272 L341.5020908,193.02269192 L342.6137384,195.99797168 L343.725386,173.36969576 L344.8370336,174.76105832 L345.9486812,176.22695816 L347.0603288,177.77981816 L348.1719764,179.4320612 L349.283624,181.18368728 L350.3952716,183.0657536 L351.5069192,185.0844716 L352.6185668,187.26468704 L353.7302144,189.63745712 L354.841862,192.24005048 L355.9535096,195.12215864 L357.0651572,198.345896 L358.1768048,202.0106456 L359.2884524,206.24684768 L360.4001,177.32638304 L361.5117476,177.50030336 L362.6233952,177.67422368 L363.7350428,177.848144 L364.8466904,178.02206432 L365.958338,178.19598464 L367.0699856,178.3761164 L368.1816332,178.55624816 L369.2932808,178.73637992 L370.4049284,178.91651168 L371.516576,179.09664344 L372.6282236,179.28298664 L373.7398712,179.4631184 L374.8515188,179.6494616 L375.9631664,179.8358048 L377.074814,180.022148 L378.1864616,197.52598592 L379.2981092,197.88624944 L380.4097568,198.25893584 L381.5214044,198.63162224 L382.633052,199.01052008 L383.7446996,199.38941792 L384.8563472,199.78073864 L385.9679948,200.1782708 L387.0796424,200.57580296 L388.19129,200.985758 L389.3029376,201.39571304 L390.4145852,201.81809096 L391.5262328,202.24046888 L392.6378804,202.67526968 L393.749528,203.11628192 L394.8611756,203.5635056 L395.9728232,203.17218488 L397.0844708,203.61940856 L398.1961184,204.07284368 L399.307766,204.53870168 L400.4194136,205.01077112 L401.5310612,205.489052 L402.6427088,205.97975576 L403.7543564,206.47667096 L404.866004,206.9797976 L405.9776516,207.49534712 L407.0892992,208.02331952 L408.2009468,208.55750336 L409.3125944,209.11032152 L410.424242,209.66935112 L411.5358896,210.23459216 L412.6475372,201.53857616 L413.7591848,201.96095408 L414.8708324,202.38954344 L415.98248,202.82434424 L417.0941276,203.26535648 L418.2057752,203.71258016 L419.3174228,204.17222672 L420.4290704,204.63808472 L421.540718,205.11015416 L422.6523656,205.58843504 L423.7640132,206.0791388 L424.8756608,206.576054 L425.9873084,207.08539208 L427.098956,207.6009416 L428.2106036,208.128914 L429.3222512,208.66930928 L430.4338988,198.79311968 L431.5455464,199.17201752 L432.657194,199.5571268 L433.7688416,199.94844752 L434.8804892,200.33976824 L435.9921368,200.74351184 L437.1037844,201.15346688 L438.215432,201.56963336 L439.3270796,201.99201128 L440.4387272,202.4143892 L441.5503748,202.84919 L442.6620224,203.29641368 L443.77367,203.74363736 L444.8853176,204.19707248 L445.9969652,204.66293048 L447.1086128,205.13499992 L448.2202604,195.9544916 L449.331908,196.2961208 L450.4435556,196.63775 L451.5552032,196.99180208 L452.6668508,197.34585416 L453.7784984,197.70611768 L454.890146,198.0663812 L456.0017936,198.4390676 L457.1134412,198.811754 L458.2250888,199.19686328 L459.3367364,199.58197256 L460.448384,199.97329328 L461.5600316,200.37082544 L462.6716792,200.7683576 L463.7833268,201.17831264 L464.8949744,193.0040576 L466.006622,193.3146296 L467.1182696,193.61899016 L468.2299172,193.9357736 L469.3415648,194.25255704 L470.4532124,194.57555192 L471.56486,194.8985468 L472.6765076,195.22775312 L473.7881552,195.56317088 L474.8998028,195.89858864 L476.0114504,196.24021784 L477.123098,196.58805848 L478.2347456,196.93589912 L479.3463932,197.2899512 L480.4580408,197.65021472 L481.5696884,198.01668968 L482.681336,190.61886464 L483.7929836,190.89837944 L484.9046312,191.18410568 L486.0162788,191.46983192 L487.1279264,191.7617696 L488.239574,192.05370728 L489.3512216,192.3518564 L490.4628692,192.65000552 L491.5745168,192.95436608 L492.6861644,193.25872664 L493.797812,193.56929864 L494.9094596,193.88608208 L496.0211072,194.20286552 L497.1327548,194.5258604 L498.2444024,194.84885528 L499.35605,195.1780616 L500.4676976,188.43243776 L501.5793452,188.69331824 L502.6909928,188.95419872 L503.8026404,189.22129064 L504.914288,189.48838256 L506.0259356,189.76168592 L507.1375832,190.02877784 L508.2492308,190.30829264 L509.3608784,190.58780744 L510.472526,190.86732224 L511.5841736,191.15304848 L512.6958212,191.43877472 L513.8074688,191.7307124 L514.9191164,192.02265008 L516.030764,192.3207992 L517.1424116,186.19010792 L518.2540592,186.42614264 L519.3657068,186.6683888 L520.4773544,186.9168464 L521.589002,187.15909256 L522.7006496,187.40755016 L523.8122972,187.6622192 L524.9239448,187.9106768 L526.0355924,188.17155728 L527.14724,188.42622632 L528.2588876,188.6871068 L529.3705352,188.95419872 L530.4821828,189.2150792 L531.5938304,189.48838256 L532.705478,189.75547448 L533.8171256,190.03498928 L534.9287732,184.35152168 L536.0404208,184.57513352 L537.1520684,184.8049568 L538.263716,185.03478008 L539.3753636,185.26460336 L540.4870112,185.49442664 L541.5986588,185.73046136 L542.7103064,185.96649608 L543.821954,186.20874224 L544.9336016,186.44477696 L546.0452492,186.69323456 L547.1568968,186.93548072 L548.2685444,187.18393832 L549.380192,187.43860736 L550.4918396,187.68706496 L551.6034872,182.4446096 L552.7151348,182.65579856 L553.8267824,182.86698752 L554.93843,183.07817648 L556.0500776,183.29557688 L557.1617252,183.51297728 L558.2733728,183.73037768 L559.3850204,183.95398952 L560.496668,184.17138992 L561.6083156,184.4012132 L562.7199632,184.62482504 L563.8316108,184.85464832 L564.9432584,185.0844716 L566.054906,185.32050632 L567.1665536,185.5503296 L568.2782012,185.79257576 L569.3898488,180.87311528 L570.5014964,181.07188136 L571.613144,181.27685888 L572.7247916,181.47562496 L573.8364392,181.68060248 L574.9480868,181.88558 L576.0597344,182.09676896 L577.171382,182.30795792 L578.2830296,182.51293544 L579.3946772,182.73033584 L580.5063248,182.9415248 L581.6179724,183.1589252 L582.72962,183.3763256 L583.8412676,183.593726 L584.9529152,183.81733784 L586.0645628,184.04094968 L587.1762104,179.41342688 L588.287858,179.60598152 L589.3995056,179.79853616 L590.5111532,179.9910908 L591.6228008,180.18364544 L592.7344484,180.38241152 L593.846096,180.5811776 L594.9577436,180.77994368 L596.0693912,180.97870976 L597.1810388,181.17747584 L598.2926864,181.38245336 L599.404334,181.58743088 L600.5159816,181.79861984 L601.6276292,182.00359736 L602.7392768,182.21478632 L603.8509244,177.87298976 L604.962572,178.05312152 L606.0742196,178.23946472 L607.1858672,178.41959648 L608.2975148,178.60593968 L609.4091624,178.79228288 L610.52081,178.97862608 L611.6324576,179.16496928 L612.7441052,179.35752392 L613.8557528,179.55007856 L614.9674004,179.7426332 L616.079048,179.93518784 L617.1906956,180.13395392 L618.3023432,180.33272 L619.4139908,180.53148608 L620.5256384,180.73025216 L621.637286,176.61206744 L622.7489336,176.78598776 L623.8605812,176.95990808 L624.9722288,177.1338284 L626.0838764,177.31396016 L627.195524,177.49409192 L628.3071716,177.67422368 L629.4188192,177.85435544 L630.5304668,178.0344872 L631.6421144,178.2208304 L632.753762,178.4071736 L633.8654096,178.5935168 L634.9770572,178.77986 L636.0887048,178.9662032 L637.2003524,179.15875784 L638.312,179.35131248 " fill-rule="evenodd" vector-effect="non-scaling-stroke"/>
                        </g>
                    </g>
                </g>
                <g id="PlotDataItem_3">
                    <g fill="none" fill-rule="evenodd" id="PlotCurveItem_3" stroke="black" stroke-linecap="square" stroke-linejoin="bevel" stroke-width="1">
                        <g fill="none" font-family="MS Shell Dlg 2" font-size="11" font-style="normal" font-weight="400" stroke="#7ea695" stroke-linecap="square" stroke-linejoin="bevel" stroke-opacity="1" stroke-width="1.5">
                            <path d="L100.2745616,142.46157032 L101.3862092,143.03923424 L102.4978568,143.62932104 L103.6095044,144.23804216 L104.721152,144.85297472 L105.8327996,145.4865416 L106.9444472,146.1387428 L108.0560948,146.80336688 L109.1677424,147.48662528 L110.27939,148.188518 L111.3910376,148.9028336 L112.5026852,149.64199496 L113.6143328,150.40600208 L114.7259804,151.18864352 L115.837628,151.98991928 L116.9492756,152.82225224 L118.0609232,136.31845616 L119.1725708,136.77810272 L120.2842184,137.25017216 L121.395866,137.72845304 L122.5075136,138.21294536 L123.6191612,138.70986056 L124.7308088,139.21919864 L125.8424564,139.73474816 L126.954104,140.25650912 L128.0657516,140.7969044 L129.1773992,141.34351112 L130.2890468,141.90254072 L131.4006944,142.46778176 L132.512342,143.05165712 L133.6239896,143.64795536 L134.7356372,135.84017528 L135.8472848,136.29982184 L136.9589324,136.7594684 L138.07058,137.23153784 L139.1822276,137.70981872 L140.2938752,138.20052248 L141.4055228,138.69743768 L142.5171704,139.20677576 L143.628818,139.72232528 L144.7404656,140.25029768 L145.8521132,140.78448152 L146.9637608,141.33108824 L148.0754084,141.89632928 L149.187056,142.46778176 L150.2987036,143.05165712 L151.4103512,143.64795536 L152.5219988,137.18805776 L153.6336464,137.66633864 L154.745294,138.1570424 L155.8569416,138.6539576 L156.9685892,139.15708424 L158.0802368,139.6788452 L159.1918844,140.2068176 L160.303532,140.74100144 L161.4151796,141.2938196 L162.5268272,141.8528492 L163.6384748,142.42430168 L164.7501224,143.00817704 L165.86177,143.60447528 L166.9734176,144.21940784 L168.0850652,144.84676328 L169.1967128,145.4865416 L170.3083604,138.98316392 L171.420008,139.49871344 L172.5316556,140.0204744 L173.6433032,140.55465824 L174.7549508,141.10126496 L175.8665984,141.66029456 L176.978246,142.23174704 L178.0898936,142.8156224 L179.2015412,143.4057092 L180.3131888,144.01443032 L181.4248364,144.64178576 L182.536484,145.27535264 L183.6481316,145.92755384 L184.7597792,146.59838936 L185.8714268,147.28164776 L186.9830744,140.48012096 L188.094722,141.02672768 L189.2063696,141.58575728 L190.3180172,142.15720976 L191.4296648,142.73487368 L192.5413124,143.33117192 L193.65296,143.93989304 L194.7646076,144.56103704 L195.8762552,145.19460392 L196.9879028,145.84680512 L198.0995504,146.51764064 L199.211198,147.20089904 L200.3228456,147.9090032 L201.4344932,148.62953024 L202.5461408,149.3686916 L203.6577884,150.13269872 L204.769436,142.69760504 L205.8810836,143.29390328 L206.9927312,143.9026244 L208.1043788,144.5237684 L209.2160264,145.16354672 L210.327674,145.81574792 L211.4393216,146.480372 L212.5509692,147.16984184 L213.6626168,147.87173456 L214.7742644,148.5922616 L215.885912,149.3376344 L216.9975596,150.10164152 L218.1092072,150.88428296 L219.2208548,151.6979816 L220.3325024,152.53031456 L221.44415,144.51134552 L222.5557976,145.1449124 L223.6674452,145.7971136 L224.7790928,146.46794912 L225.8907404,147.15741896 L227.002388,147.85931168 L228.1140356,148.57983872 L229.2256832,149.32521152 L230.3373308,150.08921864 L231.4489784,150.87807152 L232.560626,151.68555872 L233.6722736,152.52410312 L234.7839212,153.38749328 L235.8955688,154.2757292 L237.0072164,155.20123376 L238.118864,156.15158408 L239.2305116,147.15741896 L240.3421592,147.86552312 L241.4538068,148.58605016 L242.5654544,149.33142296 L243.677102,150.10164152 L244.7887496,150.88428296 L245.9003972,151.6979816 L247.0120448,152.536526 L248.1236924,153.39991616 L249.23534,154.29436352 L250.3469876,155.21365664 L251.4586352,156.1702184 L252.5702828,157.1640488 L253.6819304,158.19514784 L254.793578,159.26351552 L255.9052256,160.37536328 L257.0168732,150.12027584 L258.1285208,150.90912872 L259.2401684,151.72282736 L260.351816,152.56137176 L261.4634636,153.43097336 L262.5751112,154.32542072 L263.6867588,155.25092528 L264.7984064,156.20748704 L265.910054,157.20131744 L267.0217016,158.23241648 L268.1333492,159.3069956 L269.2449968,160.41884336 L270.3566444,161.58659408 L271.468292,162.80403632 L272.5799396,164.08359296 L273.6915872,152.5986404 L274.8032348,153.468242 L275.9148824,154.36268936 L277.02653,155.29440536 L278.1381776,156.25096712 L279.2498252,157.25100896 L280.3614728,158.282108 L281.4731204,159.36289856 L282.584768,160.48095776 L283.6964156,161.64870848 L284.8080632,162.87236216 L285.9197108,164.1519188 L287.0313584,165.49980128 L288.143006,166.90979816 L289.2546536,168.4067552 L290.3663012,169.98446096 L291.4779488,156.31308152 L292.5895964,157.31312336 L293.701244,158.35043384 L294.8128916,159.42501296 L295.9245392,160.5492836 L297.0361868,161.72324576 L298.1478344,162.95311088 L299.259482,164.23266752 L300.3711296,165.58676144 L301.4827772,167.00296976 L302.5944248,168.50613824 L303.7060724,170.09005544 L304.81772,171.77956712 L305.9293676,173.58088472 L307.0410152,175.50643112 L308.1526628,177.58726352 L309.2643104,160.63003232 L310.375958,161.80399448 L311.4876056,163.04007104 L312.5992532,164.32583912 L313.7109008,165.67993304 L314.8225484,167.10856424 L315.934196,168.61173272 L317.0458436,170.2080728 L318.1574912,171.90379592 L319.2691388,173.71132496 L320.3807864,175.64929424 L321.492434,177.74254952 L322.6040816,180.00351368 L323.7157292,182.4756668 L324.8273768,185.20248896 L325.9390244,164.42522216 L327.050672,165.78552752 L328.1623196,167.21415872 L329.2739672,168.72975008 L330.3856148,170.3323016 L331.4972624,172.03423616 L332.60891,173.85418808 L333.7205576,175.80458024 L334.8322052,177.90404696 L335.9438528,180.18364544 L337.0555004,182.67443288 L338.167148,185.41988936 L339.2787956,188.4697064 L340.3904432,191.9170556 L341.5020908,195.86753144 L342.6137384,200.49505424 L343.725386,170.4565304 L344.8370336,172.1646764 L345.9486812,173.99083976 L347.0603288,175.9536548 L348.1719764,178.0655444 L349.283624,180.3637772 L350.3952716,182.86698752 L351.5069192,185.63107832 L352.6185668,188.71195256 L353.7302144,192.19035896 L354.841862,196.18431488 L355.9535096,200.87395208 L357.0651572,206.55120824 L358.1768048,213.7502672 L359.2884524,223.60782248 L360.4001,176.09651792 L361.5117476,176.295284 L362.6233952,176.48783864 L363.7350428,176.68660472 L364.8466904,176.8853708 L365.958338,177.08413688 L367.0699856,177.28290296 L368.1816332,177.48788048 L369.2932808,177.692858 L370.4049284,177.89783552 L371.516576,178.10281304 L372.6282236,178.30779056 L373.7398712,178.51897952 L374.8515188,178.73016848 L375.9631664,178.94756888 L377.074814,179.15875784 L378.1864616,204.55112456 L379.2981092,205.11015416 L380.4097568,205.68160664 L381.5214044,206.25927056 L382.633052,206.8555688 L383.7446996,207.46428992 L384.8563472,208.08543392 L385.9679948,208.72521224 L387.0796424,209.37741344 L388.19129,210.04824896 L389.3029376,210.73150736 L390.4145852,211.43340008 L391.5262328,212.16013856 L392.6378804,212.89929992 L393.749528,213.66330704 L394.8611756,214.44594848 L395.9728232,213.58876976 L397.0844708,214.3714112 L398.1961184,215.1788984 L399.307766,216.00501992 L400.4194136,216.86219864 L401.5310612,217.75043456 L402.6427088,218.66351624 L403.7543564,219.60765512 L404.866004,220.58906264 L405.9776516,221.6077388 L407.0892992,222.6636836 L408.2009468,223.76931992 L409.3125944,224.91222488 L410.424242,226.1110328 L411.5358896,227.36574368 L412.6475372,209.29666472 L413.7591848,209.9612888 L414.8708324,210.6445472 L415.98248,211.34022848 L417.0941276,212.06075552 L418.2057752,212.79991688 L419.3174228,213.55771256 L420.4290704,214.33414256 L421.540718,215.14162976 L422.6523656,215.96775128 L423.7640132,216.82493 L424.8756608,217.70695448 L425.9873084,218.61382472 L427.098956,219.5579636 L428.2106036,220.53937112 L429.3222512,221.55183584 L430.4338988,203.58835136 L431.5455464,204.1225352 L432.657194,204.66914192 L433.7688416,205.22817152 L434.8804892,205.799624 L435.9921368,206.38349936 L437.1037844,206.9797976 L438.215432,207.58851872 L439.3270796,208.20966272 L440.4387272,208.84944104 L441.5503748,209.50164224 L442.6620224,210.17247776 L443.77367,210.8619476 L444.8853176,211.56384032 L445.9969652,212.2905788 L447.1086128,213.02974016 L448.2202604,198.3769532 L449.331908,198.81796544 L450.4435556,199.26518912 L451.5552032,199.72483568 L452.6668508,200.19069368 L453.7784984,200.66276312 L454.890146,201.141044 L456.0017936,201.63174776 L457.1134412,202.1348744 L458.2250888,202.63800104 L459.3367364,203.159762 L460.448384,203.6877344 L461.5600316,204.22812968 L462.6716792,204.7747364 L463.7833268,205.33997744 L464.8949744,193.55066432 L466.006622,193.91713928 L467.1182696,194.28982568 L468.2299172,194.66872352 L469.3415648,195.0538328 L470.4532124,195.44515352 L471.56486,195.84268568 L472.6765076,196.24642928 L473.7881552,196.65638432 L474.8998028,197.0725508 L476.0114504,197.49492872 L477.123098,197.92351808 L478.2347456,198.35831888 L479.3463932,198.79933112 L480.4580408,199.2465548 L481.5696884,199.70620136 L482.681336,189.76168592 L483.7929836,190.0846808 L484.9046312,190.40767568 L486.0162788,190.736882 L487.1279264,191.07229976 L488.239574,191.40771752 L489.3512216,191.74934672 L490.4628692,192.09718736 L491.5745168,192.445028 L492.6861644,192.79908008 L493.797812,193.1593436 L494.9094596,193.52581856 L496.0211072,193.89850496 L497.1327548,194.27119136 L498.2444024,194.65630064 L499.35605,195.04140992 L500.4676976,186.4509884 L501.5793452,186.73671464 L502.6909928,187.02244088 L503.8026404,187.31437856 L504.914288,187.60631624 L506.0259356,187.90446536 L507.1375832,188.20882592 L508.2492308,188.51318648 L509.3608784,188.81754704 L510.472526,189.12811904 L511.5841736,189.44490248 L512.6958212,189.76789736 L513.8074688,190.09089224 L514.9191164,190.41388712 L516.030764,190.74930488 L517.1424116,183.26451968 L518.2540592,183.51918872 L519.3657068,183.77385776 L520.4773544,184.03473824 L521.589002,184.29561872 L522.7006496,184.5564992 L523.8122972,184.82359112 L524.9239448,185.09689448 L526.0355924,185.37019784 L527.14724,185.6435012 L528.2588876,185.923016 L529.3705352,186.2025308 L530.4821828,186.48825704 L531.5938304,186.77398328 L532.705478,187.06592096 L533.8171256,187.35785864 L534.9287732,180.66192632 L536.0404208,180.8917496 L537.1520684,181.12778432 L538.263716,181.36381904 L539.3753636,181.59985376 L540.4870112,181.84209992 L541.5986588,182.08434608 L542.7103064,182.32659224 L543.821954,182.57504984 L544.9336016,182.82350744 L546.0452492,183.07817648 L547.1568968,183.32663408 L548.2685444,183.58751456 L549.380192,183.8421836 L550.4918396,184.10927552 L551.6034872,178.0966016 L552.7151348,178.30779056 L553.8267824,178.52519096 L554.93843,178.73637992 L556.0500776,178.95378032 L557.1617252,179.17118072 L558.2733728,179.39479256 L559.3850204,179.6184044 L560.496668,179.84201624 L561.6083156,180.06562808 L562.7199632,180.29545136 L563.8316108,180.52527464 L564.9432584,180.76130936 L566.054906,180.99113264 L567.1665536,181.2333788 L568.2782012,181.46941352 L569.3898488,175.97228912 L570.5014964,176.1710552 L571.613144,176.36982128 L572.7247916,176.56858736 L573.8364392,176.76735344 L574.9480868,176.97233096 L576.0597344,177.17730848 L577.171382,177.382286 L578.2830296,177.59347496 L579.3946772,177.79845248 L580.5063248,178.00964144 L581.6179724,178.22704184 L582.72962,178.4382308 L583.8412676,178.6556312 L584.9529152,178.8730316 L586.0645628,179.09664344 L587.1762104,174.0281084 L588.287858,174.20824016 L589.3995056,174.39458336 L590.5111532,174.58092656 L591.6228008,174.7734812 L592.7344484,174.9598244 L593.846096,175.15237904 L594.9577436,175.34493368 L596.0693912,175.53748832 L597.1810388,175.7362544 L598.2926864,175.93502048 L599.404334,176.13378656 L600.5159816,176.33255264 L601.6276292,176.53131872 L602.7392768,176.73629624 L603.8509244,172.06529336 L604.962572,172.23921368 L606.0742196,172.413134 L607.1858672,172.58705432 L608.2975148,172.76097464 L609.4091624,172.9411064 L610.52081,173.11502672 L611.6324576,173.29515848 L612.7441052,173.48150168 L613.8557528,173.66163344 L614.9674004,173.84797664 L616.079048,174.0281084 L617.1906956,174.2144516 L618.3023432,174.40700624 L619.4139908,174.59334944 L620.5256384,174.78590408 L621.637286,170.41926176 L622.7489336,170.5807592 L623.8605812,170.74846808 L624.9722288,170.91617696 L626.0838764,171.08388584 L627.195524,171.25159472 L628.3071716,171.4193036 L629.4188192,171.58701248 L630.5304668,171.7609328 L631.6421144,171.93485312 L632.753762,172.10877344 L633.8654096,172.28269376 L634.9770572,172.46282552 L636.0887048,172.63674584 L637.2003524,172.8168776 L638.312,172.99700936 " fill-rule="evenodd" vector-effect="non-scaling-stroke"/>
                        </g>
                    </g>
                </g>
                <g id="PlotDataItem_4">
                    <g fill="none" fill-rule="evenodd" id="PlotCurveItem_4" stroke="black" stroke-linecap="square" stroke-linejoin="bevel" stroke-width="1">
                        <g fill="none" font-family="MS Shell Dlg 2" font-size="11" font-style="normal" font-weight="400" stroke="#8a7c91" stroke-linecap="square" stroke-linejoin="bevel" stroke-opacity="1" stroke-width="1.5">
                            <path d="L100.2745616,135.10101392 L101.3862092,135.66004352 L102.4978568,136.23770744 L103.6095044,136.82779424 L104.721152,137.42409248 L105.8327996,138.03902504 L106.9444472,138.67259192 L108.0560948,139.31858168 L109.1677424,139.97699432 L110.27939,140.65404128 L111.3910376,141.34972256 L112.5026852,142.06403816 L113.6143328,142.79698808 L114.7259804,143.54857232 L115.837628,144.32500232 L116.9492756,145.12627808 L118.0609232,129.34922048 L119.1725708,129.80886704 L120.2842184,130.2685136 L121.395866,130.74058304 L122.5075136,131.22507536 L123.6191612,131.71577912 L124.7308088,132.21269432 L125.8424564,132.7220324 L126.954104,133.23758192 L128.0657516,133.76555432 L129.1773992,134.3059496 L130.2890468,134.85255632 L131.4006944,135.41779736 L132.512342,135.98924984 L133.6239896,136.5731252 L134.7356372,129.02001416 L135.8472848,129.47344928 L136.9589324,129.93309584 L138.07058,130.39895384 L139.1822276,130.87723472 L140.2938752,131.36172704 L141.4055228,131.8524308 L142.5171704,132.35555744 L143.628818,132.87110696 L144.7404656,133.39286792 L145.8521132,133.92705176 L146.9637608,134.46744704 L148.0754084,135.0202652 L149.187056,135.59171768 L150.2987036,136.1693816 L151.4103512,136.7594684 L152.5219988,130.47349112 L153.6336464,130.951772 L154.745294,131.44247576 L155.8569416,131.93317952 L156.9685892,132.4425176 L158.0802368,132.95806712 L159.1918844,133.47982808 L160.303532,134.02022336 L161.4151796,134.56683008 L162.5268272,135.12585968 L163.6384748,135.69110072 L164.7501224,136.27497608 L165.86177,136.87127432 L166.9734176,137.47999544 L168.0850652,138.10735088 L169.1967128,138.74091776 L170.3083604,132.38661464 L171.420008,132.90216416 L172.5316556,133.43013656 L173.6433032,133.9643204 L174.7549508,134.51092712 L175.8665984,135.06995672 L176.978246,135.6414092 L178.0898936,136.21907312 L179.2015412,136.81537136 L180.3131888,137.42409248 L181.4248364,138.05144792 L182.536484,138.6850148 L183.6481316,139.34342744 L184.7597792,140.00805152 L185.8714268,140.69752136 L186.9830744,134.01401192 L188.094722,134.56683008 L189.2063696,135.12585968 L190.3180172,135.69731216 L191.4296648,136.28118752 L192.5413124,136.87748576 L193.65296,137.49241832 L194.7646076,138.11977376 L195.8762552,138.75955208 L196.9879028,139.41175328 L198.0995504,140.08880024 L199.211198,140.77827008 L200.3228456,141.48637424 L201.4344932,142.21311272 L202.5461408,142.96469696 L203.6577884,143.73491552 L204.769436,136.38057056 L205.8810836,136.98308024 L206.9927312,137.5980128 L208.1043788,138.23157968 L209.2160264,138.871358 L210.327674,139.53598208 L211.4393216,140.21302904 L212.5509692,140.90249888 L213.6626168,141.61681448 L214.7742644,142.3497644 L215.885912,143.10134864 L216.9975596,143.87777864 L218.1092072,144.6790544 L219.2208548,145.49896448 L220.3325024,146.34993176 L221.44415,138.36201992 L222.5557976,139.00800968 L223.6674452,139.67263376 L224.7790928,140.35589216 L225.8907404,141.05778488 L227.002388,141.77210048 L228.1140356,142.51126184 L229.2256832,143.26905752 L230.3373308,144.05169896 L231.4489784,144.85918616 L232.560626,145.68530768 L233.6722736,146.5424864 L234.7839212,147.42451088 L235.8955688,148.33759256 L237.0072164,149.28173144 L238.118864,150.26313896 L239.2305116,141.22549376 L240.3421592,141.9460208 L241.4538068,142.6913936 L242.5654544,143.45540072 L243.677102,144.2442536 L244.7887496,145.0517408 L245.9003972,145.8902852 L247.0120448,146.75367536 L248.1236924,147.64812272 L249.23534,148.56741584 L250.3469876,149.5239776 L251.4586352,150.51159656 L252.5702828,151.5426956 L253.6819304,152.61106328 L254.793578,153.72291104 L255.9052256,154.88445032 L257.0168732,144.44923112 L258.1285208,145.2691412 L259.2401684,146.11389704 L260.351816,146.98349864 L261.4634636,147.88415744 L262.5751112,148.81587344 L263.6867588,149.77864664 L264.7984064,150.77868848 L265.910054,151.8222104 L267.0217016,152.90300096 L268.1333492,154.0272716 L269.2449968,155.20123376 L270.3566444,156.43109888 L271.468292,157.71686696 L272.5799396,159.07096088 L273.6915872,147.2257448 L274.8032348,148.13882648 L275.9148824,149.07675392 L277.02653,150.05195 L278.1381776,151.06441472 L279.2498252,152.11414808 L280.3614728,153.20736152 L281.4731204,154.35026648 L282.584768,155.54286296 L283.6964156,156.78515096 L284.8080632,158.0957648 L285.9197108,159.46849304 L287.0313584,160.91575856 L288.143006,162.4437728 L289.2546536,164.06495864 L290.3663012,165.78552752 L291.4779488,151.36256384 L292.5895964,152.42472008 L293.701244,153.53656784 L294.8128916,154.69189568 L295.9245392,155.89691504 L297.0361868,157.15783736 L298.1478344,158.48708552 L299.259482,159.87844808 L300.3711296,161.35055936 L301.4827772,162.90341936 L302.5944248,164.5556624 L303.7060724,166.31349992 L304.81772,168.19556624 L305.9293676,170.21428424 L307.0410152,172.40071112 L308.1526628,174.77969264 L309.2643104,156.26339 L310.375958,157.54915808 L311.4876056,158.89082912 L312.5992532,160.30703744 L313.7109008,161.80399448 L314.8225484,163.38791168 L315.934196,165.07121192 L317.0458436,166.86010664 L318.1574912,168.78565304 L319.2691388,170.85406256 L320.3807864,173.0963924 L321.492434,175.53748832 L322.6040816,178.22704184 L323.7157292,181.21474448 L324.8273768,184.56892208 L325.9390244,160.74804968 L327.050672,162.26985248 L328.1623196,163.88482688 L329.2739672,165.59918432 L330.3856148,167.43155912 L331.4972624,169.39437416 L332.60891,171.5124752 L333.7205576,173.810708 L334.8322052,176.3263412 L335.9438528,179.09664344 L337.0555004,182.18372912 L338.167148,185.6745584 L339.2787956,189.68714864 L340.3904432,194.39542016 L341.5020908,200.10994496 L342.6137384,207.36490688 L343.725386,168.00922304 L344.8370336,170.01551816 L345.9486812,172.18331072 L347.0603288,174.54365792 L348.1719764,177.1338284 L349.283624,179.9910908 L350.3952716,183.19619384 L351.5069192,186.8236748 L352.6185668,191.02260824 L353.7302144,195.99797168 L354.841862,202.1038172 L355.9535096,210.00476888 L357.0651572,221.22262952 L358.1768048,240.78866552 L360.4001,175.29524216 L361.5117476,175.51264256 L362.6233952,175.73004296 L363.7350428,175.94744336 L364.8466904,176.1710552 L365.958338,176.39466704 L367.0699856,176.61827888 L368.1816332,176.84810216 L369.2932808,177.071714 L370.4049284,177.30153728 L371.516576,177.537572 L372.6282236,177.77360672 L373.7398712,178.00964144 L374.8515188,178.24567616 L375.9631664,178.48792232 L377.074814,178.73016848 L378.1864616,216.28453472 L379.2981092,217.28457656 L380.4097568,218.32188704 L381.5214044,219.39646616 L382.633052,220.5207368 L383.7446996,221.69469896 L384.8563472,222.91835264 L385.9679948,224.20412072 L387.0796424,225.5520032 L388.19129,226.96821152 L389.3029376,228.45895712 L390.4145852,230.04287432 L391.5262328,231.72617456 L392.6378804,233.52128072 L393.749528,235.44061568 L394.8611756,237.5090252 L395.9728232,234.8691632 L397.0844708,236.89409264 L398.1961184,239.08051952 L399.307766,241.45950104 L400.4194136,244.06830584 L401.5310612,246.95662544 L402.6427088,250.18657424 L403.7543564,253.86374672 L404.866004,258.11858312 L405.9776516,263.17469528 L407.0892992,269.39855816 L408.2009468,277.49827592 L409.3125944,289.13230304 L410.424242,310.04001008 L412.6475372,222.60778064 L413.7591848,223.86870296 L414.8708324,225.19795112 L415.98248,226.58931368 L417.0941276,228.06142496 L418.2057752,229.61428496 L419.3174228,231.266528 L420.4290704,233.02436552 L421.540718,234.90643184 L422.6523656,236.92514984 L423.7640132,239.11157672 L424.8756608,241.4843468 L425.9873084,244.0931516 L427.098956,246.9814712 L428.2106036,250.21142 L429.3222512,253.88238104 L430.4338988,210.75635312 L431.5455464,211.56384032 L432.657194,212.39617328 L433.7688416,213.253352 L434.8804892,214.14158792 L435.9921368,215.06088104 L437.1037844,216.01123136 L438.215432,216.99263888 L439.3270796,218.01131504 L440.4387272,219.07347128 L441.5503748,220.1791076 L442.6620224,221.33443544 L443.77367,222.53324336 L444.8853176,223.79416568 L445.9969652,225.1172024 L447.1086128,226.50856496 L448.2202604,201.83672528 L449.331908,202.4143892 L450.4435556,203.004476 L451.5552032,203.61319712 L452.6668508,204.22812968 L453.7784984,204.86169656 L454.890146,205.50768632 L456.0017936,206.1723104 L457.1134412,206.84935736 L458.2250888,207.55125008 L459.3367364,208.26556568 L460.448384,208.9985156 L461.5600316,209.75631128 L462.6716792,210.53274128 L463.7833268,211.34022848 L464.8949744,194.58176336 L466.006622,195.0227756 L467.1182696,195.46999928 L468.2299172,195.92964584 L469.3415648,196.3892924 L470.4532124,196.86136184 L471.56486,197.34585416 L472.6765076,197.83034648 L473.7881552,198.33347312 L474.8998028,198.83659976 L476.0114504,199.35836072 L477.123098,199.88633312 L478.2347456,200.42051696 L479.3463932,200.97333512 L480.4580408,201.53236472 L481.5696884,202.1038172 L482.681336,189.20886776 L483.7929836,189.57534272 L484.9046312,189.94181768 L486.0162788,190.31450408 L487.1279264,190.68719048 L488.239574,191.07229976 L489.3512216,191.45740904 L490.4628692,191.8549412 L491.5745168,192.25247336 L492.6861644,192.65621696 L493.797812,193.07238344 L494.9094596,193.48854992 L496.0211072,193.91713928 L497.1327548,194.34572864 L498.2444024,194.78674088 L499.35605,195.23396456 L500.4676976,184.74905384 L501.5793452,185.0534144 L502.6909928,185.3639864 L503.8026404,185.68076984 L504.914288,185.99755328 L506.0259356,186.32054816 L507.1375832,186.64975448 L508.2492308,186.9789608 L509.3608784,187.31437856 L510.472526,187.64979632 L511.5841736,187.99142552 L512.6958212,188.33926616 L513.8074688,188.69331824 L514.9191164,189.04737032 L516.030764,189.41384528 L517.1424116,180.6743492 L518.2540592,180.93522968 L519.3657068,181.2023216 L520.4773544,181.47562496 L521.589002,181.74892832 L522.7006496,182.02223168 L523.8122972,182.30174648 L524.9239448,182.58747272 L526.0355924,182.87319896 L527.14724,183.1589252 L528.2588876,183.45086288 L529.3705352,183.74280056 L530.4821828,184.04094968 L531.5938304,184.34531024 L532.705478,184.6496708 L533.8171256,184.9602428 L534.9287732,177.382286 L536.0404208,177.61832072 L537.1520684,177.86056688 L538.263716,178.0966016 L539.3753636,178.33884776 L540.4870112,178.58730536 L541.5986588,178.82955152 L542.7103064,179.08422056 L543.821954,179.33267816 L544.9336016,179.5873472 L546.0452492,179.84201624 L547.1568968,180.10289672 L548.2685444,180.3637772 L549.380192,180.63086912 L550.4918396,180.89796104 L551.6034872,174.27035456 L552.7151348,174.48154352 L553.8267824,174.69273248 L554.93843,174.90392144 L556.0500776,175.12132184 L557.1617252,175.33872224 L558.2733728,175.56233408 L559.3850204,175.77973448 L560.496668,176.00334632 L561.6083156,176.2331696 L562.7199632,176.46299288 L563.8316108,176.69281616 L564.9432584,176.92263944 L566.054906,177.15867416 L567.1665536,177.39470888 L568.2782012,177.6307436 L569.3898488,171.68639552 L570.5014964,171.87895016 L571.613144,172.0715048 L572.7247916,172.27027088 L573.8364392,172.46903696 L574.9480868,172.66780304 L576.0597344,172.86656912 L577.171382,173.07154664 L578.2830296,173.27031272 L579.3946772,173.48150168 L580.5063248,173.6864792 L581.6179724,173.89766816 L582.72962,174.10264568 L583.8412676,174.32004608 L584.9529152,174.53123504 L586.0645628,174.74863544 L587.1762104,169.35710552 L588.287858,169.53723728 L589.3995056,169.7111576 L590.5111532,169.8975008 L591.6228008,170.07763256 L592.7344484,170.25776432 L593.846096,170.44410752 L594.9577436,170.63045072 L596.0693912,170.81679392 L597.1810388,171.00934856 L598.2926864,171.2019032 L599.404334,171.3882464 L600.5159816,171.58701248 L601.6276292,171.77956712 L602.7392768,171.9783332 L603.8509244,167.0712956 L604.962572,167.23900448 L606.0742196,167.40050192 L607.1858672,167.5682108 L608.2975148,167.74213112 L609.4091624,167.90984 L610.52081,168.07754888 L611.6324576,168.2514692 L612.7441052,168.42538952 L613.8557528,168.59930984 L614.9674004,168.77323016 L616.079048,168.95336192 L617.1906956,169.13349368 L618.3023432,169.307414 L619.4139908,169.4937572 L620.5256384,169.67388896 L621.637286,165.1457492 L622.7489336,165.3010352 L623.8605812,165.4563212 L624.9722288,165.6116072 L626.0838764,165.77310464 L627.195524,165.92839064 L628.3071716,166.08988808 L629.4188192,166.25138552 L630.5304668,166.41288296 L631.6421144,166.58059184 L632.753762,166.74208928 L633.8654096,166.90979816 L634.9770572,167.07750704 L636.0887048,167.24521592 L637.2003524,167.4129248 L638.312,167.58063368 " fill-rule="evenodd" vector-effect="non-scaling-stroke"/>
                        </g>
                    </g>
                </g>
                <g id="PlotDataItem_5"/>
                <g id="PlotDataItem_6"/>
                <g id="PlotDataItem_7"/>
                <g id="PlotDataItem_8"/>
                <g id="PlotDataItem_9"/>
                <g id="PlotDataItem_10"/>
                <g id="PlotDataItem_11"/>
                <g id="PlotDataItem_12"/>
            </g>
            <g fill="none" fill-rule="evenodd" id="LegendItem_1" stroke="black" stroke-linecap="square" stroke-linejoin="bevel" stroke-width="1">
                <g fill="#646464" fill-opacity="0.196078" font-family="MS Shell Dlg 2" font-size="11" font-style="normal" font-weight="400" stroke="#ffffff" stroke-linecap="square" stroke-linejoin="bevel" stroke-opacity="0.392157" stroke-width="1">
                    <path d="M94.8,61.0 L189.8,61.0 L189.8,262.0 L94.8,262.0 L94.8,61.0 " fill-rule="evenodd" vector-effect="non-scaling-stroke"/>
                </g>
                <g fill="none" fill-rule="evenodd" id="ItemSample_1" stroke="black" stroke-linecap="square" stroke-linejoin="bevel" stroke-width="1">
                    <g fill="none" font-family="MS Shell Dlg 2" font-size="11" font-style="normal" font-weight="400" stroke="#ed815e" stroke-linecap="square" stroke-linejoin="bevel" stroke-opacity="1" stroke-width="1.5">
                        <polyline fill="none" points="105.8,88.0 121.8,72.0" vector-effect="non-scaling-stroke"/>
                    </g>
                </g>
                <g fill="none" fill-rule="evenodd" id="LabelItem_1" stroke="black" stroke-linecap="square" stroke-linejoin="bevel" stroke-width="1">
                    <g fill="none" fill-rule="evenodd" id="QGraphicsTextItem_3" stroke="black" stroke-linecap="square" stroke-linejoin="bevel" stroke-width="1">
                        


                        


                        <g fill="none" font-family="MS Shell Dlg 2" font-size="11" font-style="normal" font-weight="400" stroke="#969696" stroke-linecap="square" stroke-linejoin="bevel" stroke-opacity="1" stroke-width="1" transform="matrix(1,0,0,1,136.3,70)">
                            <text fill="#969696" fill-opacity="1" font-family="&quot;MS Shell Dlg 2&quot;, sans-serif" font-size="11" font-style="normal" font-weight="400" stroke="none" x="4" xml:space="preserve" y="15">H2</text>
                        </g>
                        


                        

                    </g>
                </g>
                <g fill="none" fill-rule="evenodd" id="ItemSample_2" stroke="black" stroke-linecap="square" stroke-linejoin="bevel" stroke-width="1">
                    <g fill="none" font-family="MS Shell Dlg 2" font-size="11" font-style="normal" font-weight="400" stroke="#c7b069" stroke-linecap="square" stroke-linejoin="bevel" stroke-opacity="1" stroke-width="1.5">
                        <polyline fill="none" points="105.8,115.0 121.8,99.0" vector-effect="non-scaling-stroke"/>
                    </g>
                </g>
                <g fill="none" fill-rule="evenodd" id="LabelItem_2" stroke="black" stroke-linecap="square" stroke-linejoin="bevel" stroke-width="1">
                    <g fill="none" fill-rule="evenodd" id="QGraphicsTextItem_4" stroke="black" stroke-linecap="square" stroke-linejoin="bevel" stroke-width="1">
                        


                        


                        <g fill="none" font-family="MS Shell Dlg 2" font-size="11" font-style="normal" font-weight="400" stroke="#969696" stroke-linecap="square" stroke-linejoin="bevel" stroke-opacity="1" stroke-width="1" transform="matrix(1,0,0,1,132.8,97)">
                            <text fill="#969696" fill-opacity="1" font-family="&quot;MS Shell Dlg 2&quot;, sans-serif" font-size="11" font-style="normal" font-weight="400" stroke="none" x="4" xml:space="preserve" y="15">CH4</text>
                        </g>
                        


                        

                    </g>
                </g>
                <g fill="none" fill-rule="evenodd" id="ItemSample_3" stroke="black" stroke-linecap="square" stroke-linejoin="bevel" stroke-width="1">
                    <g fill="none" font-family="MS Shell Dlg 2" font-size="11" font-style="normal" font-weight="400" stroke="#7ea695" stroke-linecap="square" stroke-linejoin="bevel" stroke-opacity="1" stroke-width="1.5">
                        <polyline fill="none" points="105.8,142.0 121.8,126.0" vector-effect="non-scaling-stroke"/>
                    </g>
                </g>
                <g fill="none" fill-rule="evenodd" id="LabelItem_3" stroke="black" stroke-linecap="square" stroke-linejoin="bevel" stroke-width="1">
                    <g fill="none" fill-rule="evenodd" id="QGraphicsTextItem_5" stroke="black" stroke-linecap="square" stroke-linejoin="bevel" stroke-width="1">
                        


                        


                        <g fill="none" font-family="MS Shell Dlg 2" font-size="11" font-style="normal" font-weight="400" stroke="#969696" stroke-linecap="square" stroke-linejoin="bevel" stroke-opacity="1" stroke-width="1" transform="matrix(1,0,0,1,135.3,124)">
                            <text fill="#969696" fill-opacity="1" font-family="&quot;MS Shell Dlg 2&quot;, sans-serif" font-size="11" font-style="normal" font-weight="400" stroke="none" x="4" xml:space="preserve" y="15">CO</text>
                        </g>
                        


                        

                    </g>
                </g>
                <g fill="none" fill-rule="evenodd" id="ItemSample_4" stroke="black" stroke-linecap="square" stroke-linejoin="bevel" stroke-width="1">
                    <g fill="none" font-family="MS Shell Dlg 2" font-size="11" font-style="normal" font-weight="400" stroke="#8a7c91" stroke-linecap="square" stroke-linejoin="bevel" stroke-opacity="1" stroke-width="1.5">
                        <polyline fill="none" points="105.8,169.0 121.8,153.0" vector-effect="non-scaling-stroke"/>
                    </g>
                </g>
                <g fill="none" fill-rule="evenodd" id="LabelItem_4" stroke="black" stroke-linecap="square" stroke-linejoin="bevel" stroke-width="1">
                    <g fill="none" fill-rule="evenodd" id="QGraphicsTextItem_6" stroke="black" stroke-linecap="square" stroke-linejoin="bevel" stroke-width="1">
                        


                        


                        <g fill="none" font-family="MS Shell Dlg 2" font-size="11" font-style="normal" font-weight="400" stroke="#969696" stroke-linecap="square" stroke-linejoin="bevel" stroke-opacity="1" stroke-width="1" transform="matrix(1,0,0,1,132.3,151)">
                            <text fill="#969696" fill-opacity="1" font-family="&quot;MS Shell Dlg 2&quot;, sans-serif" font-size="11" font-style="normal" font-weight="400" stroke="none" x="4" xml:space="preserve" y="15">CO2</text>
                        </g>
                        


                        

                    </g>
                </g>
                <g fill="none" fill-rule="evenodd" id="ItemSample_5" stroke="black" stroke-linecap="square" stroke-linejoin="bevel" stroke-width="1">
                    <g fill="none" font-family="MS Shell Dlg 2" font-size="11" font-style="normal" font-weight="400" stroke="#ff2e70" stroke-linecap="square" stroke-linejoin="bevel" stroke-opacity="1" stroke-width="2">
                        <polyline fill="none" points="105.8,196.0 121.8,180.0" vector-effect="non-scaling-stroke"/>
                    </g>
                </g>
                <g fill="none" fill-rule="evenodd" id="LabelItem_5" stroke="black" stroke-linecap="square" stroke-linejoin="bevel" stroke-width="1">
                    <g fill="none" fill-rule="evenodd" id="QGraphicsTextItem_7" stroke="black" stroke-linecap="square" stroke-linejoin="bevel" stroke-width="1">
                        


                        


                        <g fill="none" font-family="MS Shell Dlg 2" font-size="11" font-style="normal" font-weight="400" stroke="#969696" stroke-linecap="square" stroke-linejoin="bevel" stroke-opacity="1" stroke-width="1" transform="matrix(1,0,0,1,112.8,178)">
                            <text fill="#969696" fill-opacity="1" font-family="&quot;MS Shell Dlg 2&quot;, sans-serif" font-size="11" font-style="normal" font-weight="400" stroke="none" x="4" xml:space="preserve" y="15">total density</text>
                        </g>
                        


                        

                    </g>
                </g>
                <g fill="none" fill-rule="evenodd" id="ItemSample_6" stroke="black" stroke-linecap="square" stroke-linejoin="bevel" stroke-width="1">
                    <g fill="none" font-family="MS Shell Dlg 2" font-size="11" font-style="normal" font-weight="400" stroke="none">
                        <polyline fill="none" points="105.8,223.0 121.8,207.0" vector-effect="non-scaling-stroke"/>
                    </g>
                    <g fill="#0000ff" fill-opacity="0.588235" font-family="MS Shell Dlg 2" font-size="11" font-style="normal" font-weight="400" stroke="#ffffff" stroke-linecap="square" stroke-linejoin="bevel" stroke-opacity="0.784314" stroke-width="1">
                        <path d="M116.3,215.0 C116.3,216.38071 115.18071,217.5 113.8,217.5 C112.41929,217.5 111.3,216.38071 111.3,215.0 C111.3,213.61929 112.41929,212.5 113.8,212.5 C115.18071,212.5 116.3,213.61929 116.3,215.0 " fill-rule="evenodd" vector-effect="non-scaling-stroke"/>
                    </g>
                </g>
                <g fill="none" fill-rule="evenodd" id="LabelItem_6" stroke="black" stroke-linecap="square" stroke-linejoin="bevel" stroke-width="1">
                    <g fill="none" fill-rule="evenodd" id="QGraphicsTextItem_8" stroke="black" stroke-linecap="square" stroke-linejoin="bevel" stroke-width="1">
                        


                        


                        <g fill="none" font-family="MS Shell Dlg 2" font-size="11" font-style="normal" font-weight="400" stroke="#969696" stroke-linecap="square" stroke-linejoin="bevel" stroke-opacity="1" stroke-width="1" transform="matrix(1,0,0,1,120.8,205)">
                            <text fill="#969696" fill-opacity="1" font-family="&quot;MS Shell Dlg 2&quot;, sans-serif" font-size="11" font-style="normal" font-weight="400" stroke="none" x="4" xml:space="preserve" y="15">LHC data</text>
                        </g>
                        


                        

                    </g>
                </g>
                <g fill="none" fill-rule="evenodd" id="ItemSample_7" stroke="black" stroke-linecap="square" stroke-linejoin="bevel" stroke-width="1">
                    <g fill="none" font-family="MS Shell Dlg 2" font-size="11" font-style="normal" font-weight="400" stroke="none">
                        <polyline fill="none" points="105.8,250.0 121.8,234.0" vector-effect="non-scaling-stroke"/>
                    </g>
                    <g fill="#0000ff" fill-opacity="0.588235" font-family="MS Shell Dlg 2" font-size="11" font-style="normal" font-weight="400" stroke="#ffffff" stroke-linecap="square" stroke-linejoin="bevel" stroke-opacity="0.784314" stroke-width="1">
                        <path d="M111.3,241.75 L111.3,242.25 L113.55,242.25 L113.55,244.5 L114.05,244.5 L114.05,242.25 L116.3,242.25 L116.3,241.75 L114.05,241.75 L114.05,239.5 L113.55,239.5 L113.55,241.75 L111.3,241.75 " fill-rule="evenodd" vector-effect="non-scaling-stroke"/>
                    </g>
                </g>
                <g fill="none" fill-rule="evenodd" id="LabelItem_7" stroke="black" stroke-linecap="square" stroke-linejoin="bevel" stroke-width="1">
                    <g fill="none" fill-rule="evenodd" id="QGraphicsTextItem_9" stroke="black" stroke-linecap="square" stroke-linejoin="bevel" stroke-width="1">
                        


                        


                        <g fill="none" font-family="MS Shell Dlg 2" font-size="11" font-style="normal" font-weight="400" stroke="#969696" stroke-linecap="square" stroke-linejoin="bevel" stroke-opacity="1" stroke-width="1" transform="matrix(1,0,0,1,120.8,232)">
                            <text fill="#969696" fill-opacity="1" font-family="&quot;MS Shell Dlg 2&quot;, sans-serif" font-size="11" font-style="normal" font-weight="400" stroke="none" x="4" xml:space="preserve" y="15">LHC data</text>
                        </g>
                        


                        

                    </g>
                </g>
            </g>
        </g>
    </g>
    <g fill="none" fill-rule="evenodd" id="LabelItem_8" stroke="black" stroke-linecap="square" stroke-linejoin="bevel" stroke-width="1">
        <g fill="none" fill-rule="evenodd" id="QGraphicsTextItem_10" stroke="black" stroke-linecap="square" stroke-linejoin="bevel" stroke-width="1">
            


            


            <g fill="none" font-family="MS Shell Dlg 2" font-size="11" font-style="normal" font-weight="400" stroke="#969696" stroke-linecap="square" stroke-linejoin="bevel" stroke-opacity="1" stroke-width="1" transform="matrix(1,0,0,1,324.4,3)">
                <text fill="#969696" fill-opacity="1" font-family="&quot;MS Shell Dlg 2&quot;, sans-serif" font-size="14.6667" font-style="normal" font-weight="400" stroke="none" x="4" xml:space="preserve" y="19">Density-Plot</text>
            </g>
            


            

        </g>
    </g>
</g>

</svg>
