<?xml version="1.0" encoding="UTF-8" standalone="no"?>
<svg xmlns="http://www.w3.org/2000/svg" xmlns:xlink="http://www.w3.org/1999/xlink"  version="1.2" baseProfile="tiny">
<title>pyqtgraph SVG export</title>
<desc>Generated with Qt and pyqtgraph</desc>
<defs>
</defs>
<g fill="none" fill-rule="evenodd" id="PlotItem_1" stroke="black" stroke-linecap="square" stroke-linejoin="bevel" stroke-width="1">
    <g fill="none" fill-rule="evenodd" id="AxisItem_1" stroke="black" stroke-linecap="square" stroke-linejoin="bevel" stroke-width="1">
        <g fill="none" font-family="MS Shell Dlg 2" font-size="11" font-style="normal" font-weight="400" stroke="#969696" stroke-linecap="square" stroke-linejoin="bevel" stroke-opacity="1" stroke-width="1">
            <polyline fill="none" points="64.8,320.2 668.0,320.2" vector-effect="non-scaling-stroke"/>
        </g>
        <g fill="none" font-family="MS Shell Dlg 2" font-size="11" font-style="normal" font-weight="400" stroke="#969696" stroke-linecap="square" stroke-linejoin="bevel" stroke-opacity="0.498039" stroke-width="1">
            <polyline fill="none" points="88.9882,31.0 88.9882,320.2" vector-effect="non-scaling-stroke"/>
        </g>
        <g fill="none" font-family="MS Shell Dlg 2" font-size="11" font-style="normal" font-weight="400" stroke="#969696" stroke-linecap="square" stroke-linejoin="bevel" stroke-opacity="0.247059" stroke-width="1">
            <polyline fill="none" points="274.263,31.0 274.263,320.2" vector-effect="non-scaling-stroke"/>
            <polyline fill="none" points="459.537,31.0 459.537,320.2" vector-effect="non-scaling-stroke"/>
            <polyline fill="none" points="644.812,31.0 644.812,320.2" vector-effect="non-scaling-stroke"/>
        </g>
        <g fill="none" font-family="MS Shell Dlg 2" font-size="11" font-style="normal" font-weight="400" stroke="#969696" stroke-linecap="square" stroke-linejoin="bevel" stroke-opacity="0.164706" stroke-width="1">
            <polyline fill="none" points="181.625,31.0 181.625,320.2" vector-effect="non-scaling-stroke"/>
            <polyline fill="none" points="366.9,31.0 366.9,320.2" vector-effect="non-scaling-stroke"/>
            <polyline fill="none" points="552.175,31.0 552.175,320.2" vector-effect="non-scaling-stroke"/>
        </g>
        <g fill="none" font-family="MS Shell Dlg 2" font-size="11" font-style="normal" font-weight="400" stroke="#969696" stroke-linecap="square" stroke-linejoin="bevel" stroke-opacity="1" stroke-width="1" transform="matrix(1,0,0,1,65.3,320.2)">
            <text fill="#969696" fill-opacity="1" font-family="&quot;MS Shell Dlg 2&quot;, sans-serif" font-size="11" font-style="normal" font-weight="400" stroke="none" x="20.6875" xml:space="preserve" y="12">0</text>
            <text fill="#969696" fill-opacity="1" font-family="&quot;MS Shell Dlg 2&quot;, sans-serif" font-size="11" font-style="normal" font-weight="400" stroke="none" x="205.953" xml:space="preserve" y="12">2</text>
            <text fill="#969696" fill-opacity="1" font-family="&quot;MS Shell Dlg 2&quot;, sans-serif" font-size="11" font-style="normal" font-weight="400" stroke="none" x="391.234" xml:space="preserve" y="12">4</text>
            <text fill="#969696" fill-opacity="1" font-family="&quot;MS Shell Dlg 2&quot;, sans-serif" font-size="11" font-style="normal" font-weight="400" stroke="none" x="576.5" xml:space="preserve" y="12">6</text>
            <text fill="#969696" fill-opacity="1" font-family="&quot;MS Shell Dlg 2&quot;, sans-serif" font-size="11" font-style="normal" font-weight="400" stroke="none" x="113.312" xml:space="preserve" y="12">1</text>
            <text fill="#969696" fill-opacity="1" font-family="&quot;MS Shell Dlg 2&quot;, sans-serif" font-size="11" font-style="normal" font-weight="400" stroke="none" x="298.594" xml:space="preserve" y="12">3</text>
            <text fill="#969696" fill-opacity="1" font-family="&quot;MS Shell Dlg 2&quot;, sans-serif" font-size="11" font-style="normal" font-weight="400" stroke="none" x="483.859" xml:space="preserve" y="12">5</text>
        </g>
        <g fill="none" fill-rule="evenodd" id="QGraphicsTextItem_1" stroke="black" stroke-linecap="square" stroke-linejoin="bevel" stroke-width="1">
            


            


            <g fill="none" font-family="MS Shell Dlg 2" font-size="11" font-style="normal" font-weight="400" stroke="#ffffff" stroke-linecap="square" stroke-linejoin="bevel" stroke-opacity="1" stroke-width="1" transform="matrix(1,0,0,1,257.8,338.2)">
                <text fill="#ffffff" fill-opacity="1" font-family="&quot;MS Shell Dlg 2&quot;, sans-serif" font-size="18.6667" font-style="normal" font-weight="400" stroke="none" x="4" xml:space="preserve" y="23">Axis along beam line (m)</text>
            </g>
            


            

        </g>
    </g>
    <g fill="none" fill-rule="evenodd" id="AxisItem_2" stroke="black" stroke-linecap="square" stroke-linejoin="bevel" stroke-width="1">
        <g fill="none" font-family="MS Shell Dlg 2" font-size="11" font-style="normal" font-weight="400" stroke="#969696" stroke-linecap="square" stroke-linejoin="bevel" stroke-opacity="1" stroke-width="1">
            <polyline fill="none" points="64.8,31.0 64.8,320.2" vector-effect="non-scaling-stroke"/>
        </g>
        <g fill="none" font-family="MS Shell Dlg 2" font-size="11" font-style="normal" font-weight="400" stroke="#969696" stroke-linecap="square" stroke-linejoin="bevel" stroke-opacity="0.498039" stroke-width="1">
            <polyline fill="none" points="668.5,219.234 65.3,219.234" vector-effect="non-scaling-stroke"/>
            <polyline fill="none" points="668.5,96.8727 65.3,96.8727" vector-effect="non-scaling-stroke"/>
        </g>
        <g fill="none" font-family="MS Shell Dlg 2" font-size="11" font-style="normal" font-weight="400" stroke="#969696" stroke-linecap="square" stroke-linejoin="bevel" stroke-opacity="0.247059" stroke-width="1">
            <polyline fill="none" points="668.5,280.414 65.3,280.414" vector-effect="non-scaling-stroke"/>
            <polyline fill="none" points="668.5,158.053 65.3,158.053" vector-effect="non-scaling-stroke"/>
            <polyline fill="none" points="668.5,35.69217 65.3,35.69217" vector-effect="non-scaling-stroke"/>
        </g>
        <g fill="none" font-family="MS Shell Dlg 2" font-size="11" font-style="normal" font-weight="400" stroke="#969696" stroke-linecap="square" stroke-linejoin="bevel" stroke-opacity="0.0509804" stroke-width="1">
            <polyline fill="none" points="668.5,312.404 65.3,312.404" vector-effect="non-scaling-stroke"/>
            <polyline fill="none" points="668.5,304.761 65.3,304.761" vector-effect="non-scaling-stroke"/>
            <polyline fill="none" points="668.5,298.832 65.3,298.832" vector-effect="non-scaling-stroke"/>
            <polyline fill="none" points="668.5,293.987 65.3,293.987" vector-effect="non-scaling-stroke"/>
            <polyline fill="none" points="668.5,289.891 65.3,289.891" vector-effect="non-scaling-stroke"/>
            <polyline fill="none" points="668.5,286.343 65.3,286.343" vector-effect="non-scaling-stroke"/>
            <polyline fill="none" points="668.5,283.214 65.3,283.214" vector-effect="non-scaling-stroke"/>
            <polyline fill="none" points="668.5,280.414 65.3,280.414" vector-effect="non-scaling-stroke"/>
            <polyline fill="none" points="668.5,261.997 65.3,261.997" vector-effect="non-scaling-stroke"/>
            <polyline fill="none" points="668.5,251.224 65.3,251.224" vector-effect="non-scaling-stroke"/>
            <polyline fill="none" points="668.5,243.58 65.3,243.58" vector-effect="non-scaling-stroke"/>
            <polyline fill="none" points="668.5,237.651 65.3,237.651" vector-effect="non-scaling-stroke"/>
            <polyline fill="none" points="668.5,232.807 65.3,232.807" vector-effect="non-scaling-stroke"/>
            <polyline fill="none" points="668.5,228.711 65.3,228.711" vector-effect="non-scaling-stroke"/>
            <polyline fill="none" points="668.5,225.163 65.3,225.163" vector-effect="non-scaling-stroke"/>
            <polyline fill="none" points="668.5,222.033 65.3,222.033" vector-effect="non-scaling-stroke"/>
            <polyline fill="none" points="668.5,219.234 65.3,219.234" vector-effect="non-scaling-stroke"/>
            <polyline fill="none" points="668.5,200.817 65.3,200.817" vector-effect="non-scaling-stroke"/>
            <polyline fill="none" points="668.5,190.043 65.3,190.043" vector-effect="non-scaling-stroke"/>
            <polyline fill="none" points="668.5,182.399 65.3,182.399" vector-effect="non-scaling-stroke"/>
            <polyline fill="none" points="668.5,176.47 65.3,176.47" vector-effect="non-scaling-stroke"/>
            <polyline fill="none" points="668.5,171.626 65.3,171.626" vector-effect="non-scaling-stroke"/>
            <polyline fill="none" points="668.5,167.53 65.3,167.53" vector-effect="non-scaling-stroke"/>
            <polyline fill="none" points="668.5,163.982 65.3,163.982" vector-effect="non-scaling-stroke"/>
            <polyline fill="none" points="668.5,160.853 65.3,160.853" vector-effect="non-scaling-stroke"/>
            <polyline fill="none" points="668.5,158.053 65.3,158.053" vector-effect="non-scaling-stroke"/>
            <polyline fill="none" points="668.5,139.636 65.3,139.636" vector-effect="non-scaling-stroke"/>
            <polyline fill="none" points="668.5,128.8627 65.3,128.8627" vector-effect="non-scaling-stroke"/>
            <polyline fill="none" points="668.5,121.2189 65.3,121.2189" vector-effect="non-scaling-stroke"/>
            <polyline fill="none" points="668.5,115.2899 65.3,115.2899" vector-effect="non-scaling-stroke"/>
            <polyline fill="none" points="668.5,110.4456 65.3,110.4456" vector-effect="non-scaling-stroke"/>
            <polyline fill="none" points="668.5,106.3497 65.3,106.3497" vector-effect="non-scaling-stroke"/>
            <polyline fill="none" points="668.5,102.8017 65.3,102.8017" vector-effect="non-scaling-stroke"/>
            <polyline fill="none" points="668.5,99.6722 65.3,99.6722" vector-effect="non-scaling-stroke"/>
            <polyline fill="none" points="668.5,96.8727 65.3,96.8727" vector-effect="non-scaling-stroke"/>
            <polyline fill="none" points="668.5,78.4555 65.3,78.4555" vector-effect="non-scaling-stroke"/>
            <polyline fill="none" points="668.5,67.6822 65.3,67.6822" vector-effect="non-scaling-stroke"/>
            <polyline fill="none" points="668.5,60.0384 65.3,60.0384" vector-effect="non-scaling-stroke"/>
            <polyline fill="none" points="668.5,54.1094 65.3,54.1094" vector-effect="non-scaling-stroke"/>
            <polyline fill="none" points="668.5,49.265 65.3,49.265" vector-effect="non-scaling-stroke"/>
            <polyline fill="none" points="668.5,45.1692 65.3,45.1692" vector-effect="non-scaling-stroke"/>
            <polyline fill="none" points="668.5,41.6212 65.3,41.6212" vector-effect="non-scaling-stroke"/>
            <polyline fill="none" points="668.5,38.49164 65.3,38.49164" vector-effect="non-scaling-stroke"/>
            <polyline fill="none" points="668.5,35.69217 65.3,35.69217" vector-effect="non-scaling-stroke"/>
        </g>
        <g fill="none" font-family="MS Shell Dlg 2" font-size="11" font-style="normal" font-weight="400" stroke="#969696" stroke-linecap="square" stroke-linejoin="bevel" stroke-opacity="1" stroke-width="1" transform="matrix(1,0,0,1,1.5,31)">
            <text fill="#969696" fill-opacity="1" font-family="&quot;MS Shell Dlg 2&quot;, sans-serif" font-size="11" font-style="normal" font-weight="400" stroke="none" x="26.7969" xml:space="preserve" y="193.031">1e+20</text>
            <text fill="#969696" fill-opacity="1" font-family="&quot;MS Shell Dlg 2&quot;, sans-serif" font-size="11" font-style="normal" font-weight="400" stroke="none" x="26.7969" xml:space="preserve" y="70.6719">1e+22</text>
            <text fill="#969696" fill-opacity="1" font-family="&quot;MS Shell Dlg 2&quot;, sans-serif" font-size="11" font-style="normal" font-weight="400" stroke="none" x="26.7969" xml:space="preserve" y="254.203">1e+19</text>
            <text fill="#969696" fill-opacity="1" font-family="&quot;MS Shell Dlg 2&quot;, sans-serif" font-size="11" font-style="normal" font-weight="400" stroke="none" x="26.7969" xml:space="preserve" y="131.844">1e+21</text>
            <text fill="#969696" fill-opacity="1" font-family="&quot;MS Shell Dlg 2&quot;, sans-serif" font-size="11" font-style="normal" font-weight="400" stroke="none" x="26.7969" xml:space="preserve" y="9.5">1e+23</text>
        </g>
        <g fill="none" fill-rule="evenodd" id="QGraphicsTextItem_2" stroke="black" stroke-linecap="square" stroke-linejoin="bevel" stroke-width="1">
            


            


            <g fill="none" font-family="MS Shell Dlg 2" font-size="11" font-style="normal" font-weight="400" stroke="#ffffff" stroke-linecap="square" stroke-linejoin="bevel" stroke-opacity="1" stroke-width="1" transform="matrix(0,-1,1,0,-4,287)">
                <text fill="#ffffff" fill-opacity="1" font-family="&quot;MS Shell Dlg 2&quot;, sans-serif" font-size="18.6667" font-style="normal" font-weight="400" stroke="none" x="4" xml:space="preserve" y="23">Density (particles per m3)</text>
            </g>
            


            

        </g>
    </g>
    <g fill="none" fill-rule="evenodd" id="ViewBox_1" stroke="black" stroke-linecap="square" stroke-linejoin="bevel" stroke-width="1">
        <g fill="none" font-family="MS Shell Dlg 2" font-size="11" font-style="normal" font-weight="400" stroke="none">
            <path d="M64.8,31.0 L668.0,31.0 L668.0,320.2 L64.8,320.2 L64.8,31.0 " fill-rule="evenodd" vector-effect="non-scaling-stroke"/>
        </g>
        <clipPath id="ViewBox_1_clip">
            <path d="M64.8,31.0 L668.0,31.0 L668.0,320.2 L64.8,320.2 L64.8,31.0 " fill-rule="evenodd" vector-effect="non-scaling-stroke"/>
        </clipPath>
        <g clip-path="url(#ViewBox_1_clip)">
            <g fill="none" fill-rule="evenodd" id="ChildGroup_1" stroke="black" stroke-linecap="square" stroke-linejoin="bevel" stroke-width="1">
                <g id="PlotDataItem_1">
                    <g fill="none" fill-rule="evenodd" id="PlotCurveItem_1" stroke="black" stroke-linecap="square" stroke-linejoin="bevel" stroke-width="1">
                        <g fill="none" font-family="MS Shell Dlg 2" font-size="11" font-style="normal" font-weight="400" stroke="#ed815e" stroke-linecap="square" stroke-linejoin="bevel" stroke-opacity="1" stroke-width="1.5">
                            <path d="M88.4882000926,53.89354656 L89.5998476,53.39186564 L90.7114952,52.89018472 L91.8231428,52.40073992 L92.9347904,51.92353124 L94.046438,51.45244062 L95.1580856,50.98746806 L96.2697332,50.53473162 L97.3813808,50.08811324 L98.4930284,49.64761292 L99.604676,49.21323066 L100.7163236,48.79108452 L101.8279712,48.36893838 L102.9396188,47.95902836 L104.0512664,47.5552364 L105.162914,47.15144444 L106.2745616,55.49036022 L107.3862092,54.95197094 L108.4978568,54.42581778 L109.6095044,53.91190074 L110.721152,53.40410176 L111.8327996,52.90242084 L112.9444472,52.41297604 L114.0560948,51.93576736 L115.1677424,51.46467674 L116.27939,50.99970418 L117.3910376,50.54696774 L118.5026852,50.10034936 L119.6143328,49.65984904 L120.7259804,49.22546678 L121.837628,48.80332064 L122.9492756,48.3811745 L124.0609232,57.1911809 L125.1725708,56.61608326 L126.2842184,56.05322174 L127.395866,55.50259634 L128.5075136,54.96420706 L129.6191612,54.4380539 L130.7308088,53.92413686 L131.8424564,53.41633788 L132.954104,52.91465696 L134.0657516,52.42521216 L135.1773992,51.94800348 L136.2890468,51.47691286 L137.4006944,51.0119403 L138.512342,50.55920386 L139.6239896,50.11258548 L140.7356372,59.62616878 L141.8472848,59.00212666 L142.9589324,58.39032066 L144.07058,57.79075078 L145.1822276,57.20341702 L146.2938752,56.62831938 L147.4055228,56.07157592 L148.5171704,55.52095052 L149.628818,54.98256124 L150.7404656,54.45029002 L151.8521132,53.93637298 L152.9637608,53.428574 L154.0754084,52.92689308 L155.187056,52.44356634 L156.2987036,51.9602396 L157.4103512,51.48914898 L158.5219988,61.6267744 L159.6336464,60.94766974 L160.745294,60.28691926 L161.8569416,59.64452296 L162.9685892,59.02048084 L164.0802368,58.40255678 L165.1918844,57.8029869 L166.303532,57.2217712 L167.4151796,56.64667356 L168.5268272,56.08381204 L169.6384748,55.53318664 L170.7501224,54.99479736 L171.86177,54.4686442 L172.9734176,53.9486091 L174.0850652,53.44081012 L175.1967128,52.94524726 L176.3083604,63.78033152 L177.420008,63.04616432 L178.5316556,62.33646936 L179.6433032,61.64512858 L180.7549508,60.96602392 L181.8665984,60.30527344 L182.978246,59.66287714 L184.0898936,59.03271696 L185.2015412,58.42091096 L186.3131888,57.82134108 L187.4248364,57.23400732 L188.536484,56.65890968 L189.6481316,56.09604816 L190.7597792,55.55154082 L191.8714268,55.00703348 L192.9830744,66.9494866 L194.094722,66.12966656 L195.2063696,65.3282007 L196.3180172,64.55732514 L197.4296648,63.7986857 L198.5413124,63.07063656 L199.65296,62.35482354 L200.7646076,61.66348276 L201.8762552,60.9843781 L202.9879028,60.32362762 L204.0995504,59.68123132 L205.211198,59.05107114 L206.3228456,58.43926514 L207.4344932,57.83969526 L208.5461408,57.2523615 L209.6577884,56.67726386 L210.769436,69.6108427 L211.8810836,68.70536982 L212.9927312,67.82436918 L214.1043788,66.97395884 L215.2160264,66.1541388 L216.327674,65.35267294 L217.4393216,64.57567932 L218.5509692,63.82315794 L219.6626168,63.08899074 L220.7742644,62.37317772 L221.885912,61.68183694 L222.9975596,61.00273228 L224.1092072,60.3419818 L225.2208548,59.6995855 L226.3325024,59.06942532 L227.44415,73.62429006 L228.5557976,72.57198374 L229.6674452,71.55638578 L230.7790928,70.58361424 L231.8907404,69.641433 L233.002388,68.72984206 L234.1140356,67.84884142 L235.2256832,66.99843108 L236.3373308,66.17249298 L237.4489784,65.37714518 L238.560626,64.60015156 L239.6722736,63.84151212 L240.7839212,63.10734492 L241.8955688,62.39764996 L243.0072164,61.70019112 L244.118864,61.02108646 L245.2305116,77.09934814 L246.3421592,75.90020838 L247.4538068,74.75613116 L248.5654544,73.65488036 L249.677102,72.60257404 L250.7887496,71.58697608 L251.9003972,70.60808648 L253.0120448,69.66590524 L254.1236924,68.7543143 L255.23534,67.87331366 L256.3469876,67.02290332 L257.4586352,66.19696522 L258.5702828,65.39549936 L259.6819304,64.61850574 L260.793578,63.86598436 L261.9052256,63.13181716 L263.0168732,81.09444132 L264.1285208,79.71175976 L265.2401684,78.3902588 L266.351816,77.1360565 L267.4634636,75.93691674 L268.5751112,74.78672146 L269.6867588,73.68547066 L270.7984064,72.63316434 L271.910054,71.61756638 L273.0217016,70.63867678 L274.1333492,69.69037748 L275.2449968,68.77878654 L276.3566444,67.8977859 L277.468292,67.04737556 L278.5799396,66.22143746 L279.6915872,87.56123074 L280.8032348,85.80534752 L281.9148824,84.15347132 L283.02653,82.60560214 L284.1381776,81.13726774 L285.2498252,79.74846812 L286.3614728,78.42696716 L287.4731204,77.17276486 L288.584768,75.96750704 L289.6964156,74.81731176 L290.8080632,73.71606096 L291.9197108,72.66375464 L293.0313584,71.64203862 L294.143006,70.66314902 L295.2546536,69.72096778 L296.3663012,68.80937684 L297.4779488,93.72823522 L298.5895964,91.52573362 L299.701244,89.50065576 L300.8128916,87.61629328 L301.9245392,85.854292 L303.0361868,84.2024158 L304.1478344,82.64842856 L305.259482,81.18009416 L306.3711296,79.78517648 L307.4827772,78.46367552 L308.5944248,77.20335516 L309.7060724,76.0042154 L310.81772,74.85402012 L311.9293676,73.75276932 L313.0410152,72.68822688 L314.1526628,71.67262892 L315.2643104,101.76736606 L316.375958,98.83681532 L317.4876056,96.1938134 L318.5992532,93.79553388 L319.7109008,91.59303228 L320.8225484,89.5557183 L321.934196,87.66523776 L323.0458436,85.90323648 L324.1574912,84.25136028 L325.2691388,82.69125498 L326.3807864,81.22292058 L327.492434,79.8280029 L328.6040816,78.50038388 L329.7157292,77.24006352 L330.8273768,76.0348057 L331.9390244,118.6470936 L333.050672,113.36108976 L334.1623196,108.9499685 L335.2739672,105.16900742 L336.3856148,101.85913696 L337.4972624,98.9163501 L338.60891,96.26723012 L339.7205576,93.86283254 L340.8322052,91.65421288 L341.9438528,89.61078084 L343.0555004,87.7203003 L344.167148,85.95218096 L345.2787956,84.2941867 L346.3904432,82.7340814 L347.5020908,81.265747 L348.6137384,79.86471126 L349.725386,147.88530234 L350.8370336,134.38886198 L351.9486812,125.48096662 L353.0603288,118.81839928 L354.1719764,113.50180514 L355.283624,109.06621164 L356.3952716,105.27301444 L357.5069192,101.95090786 L358.6185668,99.00200294 L359.7302144,96.34064684 L360.841862,93.9301312 L361.9535096,91.71539348 L363.0651572,89.67196144 L364.1768048,87.77536284 L365.2884524,86.00112544 L369.7350428,187.33455322 L370.8466904,151.9599303 L371.958338,137.3071766 L373.0699856,127.9159545 L374.1816332,120.99031058 L375.2932808,115.50241076 L376.4049284,110.95669218 L377.516576,107.07784214 L378.6282236,103.6884369 L379.7398712,100.68446944 L380.8515188,97.99252304 L381.9631664,95.53918098 L383.074814,93.29997102 L391.9679948,184.14704396 L393.0796424,151.07892966 L394.19129,136.79325956 L395.3029376,127.55498896 L396.4145852,120.71499788 L397.5262328,115.27604254 L398.6378804,110.76703232 L399.749528,106.91265452 L400.8611756,103.54772152 L414.2009468,181.296028 L415.3125944,150.22851932 L416.424242,136.29157864 L417.5358896,127.20014148 " fill-rule="evenodd" vector-effect="non-scaling-stroke"/>
                        </g>
                    </g>
                </g>
                <g id="PlotDataItem_2">
                    <g fill="none" fill-rule="evenodd" id="PlotCurveItem_2" stroke="black" stroke-linecap="square" stroke-linejoin="bevel" stroke-width="1">
                        <g fill="none" font-family="MS Shell Dlg 2" font-size="11" font-style="normal" font-weight="400" stroke="#c7b069" stroke-linecap="square" stroke-linejoin="bevel" stroke-opacity="1" stroke-width="1.5">
                            <path d="M88.4882000926,148.87031 L89.5998476,147.46927426 L90.7114952,146.12941912 L91.8231428,144.8629807 L92.9347904,143.64548676 L94.046438,142.48917342 L95.1580856,141.3756865 L96.2697332,140.31114406 L97.3813808,139.28330998 L98.4930284,138.29218426 L99.604676,137.34388496 L100.7163236,136.42617596 L101.8279712,135.5329392 L102.9396188,134.6764108 L104.0512664,133.84435464 L105.162914,133.03677072 L106.2745616,150.10615812 L107.3862092,148.63782372 L108.4978568,147.24290604 L109.6095044,145.92140508 L110.721152,144.65496666 L111.8327996,143.4558269 L112.9444472,142.29951356 L114.0560948,141.19826276 L115.1677424,140.13983838 L116.27939,139.11812236 L117.3910376,138.13923276 L118.5026852,137.19093346 L119.6143328,136.27322446 L120.7259804,135.39222382 L121.837628,134.53569542 L122.9492756,133.70975732 L124.0609232,151.40318684 L125.1725708,149.86143572 L126.2842184,148.40533744 L127.395866,147.02265588 L128.5075136,145.70727298 L129.6191612,144.45918874 L130.7308088,143.26004898 L131.8424564,142.11597176 L132.954104,141.02083902 L134.0657516,139.9685327 L135.1773992,138.9590528 L136.2890468,137.9801632 L137.4006944,137.03798196 L138.512342,136.13250908 L139.6239896,135.25150844 L140.7356372,154.49280714 L141.8472848,152.76751422 L142.9589324,151.14622832 L144.07058,149.62283138 L145.1822276,148.17896922 L146.2938752,146.80852378 L147.4055228,145.505377 L148.5171704,144.26341082 L149.628818,143.07650718 L150.7404656,141.93854802 L151.8521132,140.84953334 L152.9637608,139.80334508 L154.0754084,138.79386518 L155.187056,137.8272117 L156.2987036,136.89114852 L157.4103512,135.98567564 L158.5219988,156.03455826 L159.6336464,154.21137638 L160.745294,152.50443764 L161.8569416,150.89538786 L162.9685892,149.38422704 L164.0802368,147.952601 L165.1918844,146.59439168 L166.303532,145.29736296 L167.4151796,144.0676329 L168.5268272,142.88684732 L169.6384748,141.76112428 L170.7501224,140.67822766 L171.86177,139.63815746 L172.9734176,138.64091368 L174.0850652,137.6742602 L175.1967128,136.74431508 L176.3083604,157.67419834 L177.420008,155.73477332 L178.5316556,153.92994562 L179.6433032,152.24136106 L180.7549508,150.65066546 L181.8665984,149.15174076 L182.978246,147.73235084 L184.0898936,146.38025958 L185.2015412,145.10158504 L186.3131888,143.87797304 L187.4248364,142.70330552 L188.536484,141.58370054 L189.6481316,140.51304004 L190.7597792,139.4790879 L191.8714268,138.48184412 L192.9830744,161.6570554 L194.094722,159.41784544 L195.2063696,157.35605922 L196.3180172,155.44110644 L197.4296648,153.65463292 L198.5413124,151.97828448 L199.65296,150.40594306 L200.7646076,148.91925448 L201.8762552,147.51210068 L202.9879028,146.17224554 L204.0995504,144.89968906 L205.211198,143.68831318 L206.3228456,142.52588178 L207.4344932,141.41239486 L208.5461408,140.34173436 L209.6577884,139.32001834 L210.769436,163.70048744 L211.8810836,161.2899718 L212.9927312,159.08135214 L214.1043788,157.04403816 L215.2160264,155.14743956 L216.327674,153.37932022 L217.4393216,151.72744402 L218.5509692,150.16733872 L219.6626168,148.69288626 L220.7742644,147.29796858 L221.885912,145.97034956 L222.9975596,144.70391114 L224.1092072,143.49865332 L225.2208548,142.34845804 L226.3325024,141.24108918 L227.44415,168.80294948 L228.5557976,165.91522516 L229.6674452,163.30281354 L230.7790928,160.92900626 L231.8907404,158.7509769 L233.002388,156.73813516 L234.1140356,154.8660088 L235.2256832,153.11624364 L236.3373308,151.4704855 L237.4489784,149.92873438 L238.560626,148.46651804 L239.6722736,147.08383648 L240.7839212,145.76845358 L241.8955688,144.51425128 L243.0072164,143.31511152 L244.118864,142.1710343 L245.2305116,171.51325006 L246.3421592,168.33185886 L247.4538068,165.48696096 L248.5654544,162.91737576 L249.677102,160.57415878 L250.7887496,158.42060166 L251.9003972,156.43223216 L253.0120448,154.57845998 L254.1236924,152.847049 L255.23534,151.2257631 L256.3469876,149.69013004 L257.4586352,148.24626788 L258.5702828,146.86970438 L259.6819304,145.5665576 L260.793578,144.32459142 L261.9052256,143.13156972 L263.0168732,174.5355717 L264.1285208,170.9870969 L265.2401684,167.8668863 L266.351816,165.06481482 L267.4634636,162.53805604 L268.5751112,160.22542936 L269.6867588,158.10246254 L270.7984064,156.13244722 L271.910054,154.30314728 L273.0217016,152.59009048 L274.1333492,150.9810407 L275.2449968,149.46376182 L276.3566444,148.02601772 L277.468292,146.66169034 L278.5799396,145.37077968 L279.6915872,182.6420012 L280.8032348,177.94333112 L281.9148824,173.94823794 L283.02653,170.47929792 L284.1381776,167.4080318 L285.2498252,164.6549048 L286.3614728,162.16485438 L287.4731204,159.882818 L288.584768,157.78432342 L289.6964156,155.83878034 L290.8080632,154.02783458 L291.9197108,152.33313196 L293.0313584,150.7363183 L294.143006,149.23127554 L295.2546536,147.81188562 L296.3663012,146.45979436 L297.4779488,187.3834977 L298.5895964,181.85277146 L299.701244,177.27646258 L300.8128916,173.37925836 L301.9245392,169.977617 L303.0361868,166.96141342 L304.1478344,164.25111284 L305.259482,161.79777078 L306.3711296,159.5463247 L307.4827772,157.47230236 L308.5944248,155.55123152 L309.7060724,153.75863994 L310.81772,152.07617344 L311.9293676,150.49771396 L313.0410152,149.00490732 L314.1526628,147.59163546 L315.2643104,193.1650644 L316.375958,186.44743452 L317.4876056,181.08801396 L318.5992532,176.63406628 L319.7109008,172.8225149 L320.8225484,169.48205414 L321.934196,166.5209131 L323.0458436,163.859557 L324.1574912,161.43680524 L325.2691388,159.21594946 L326.3807864,157.16639936 L327.492434,155.2636827 L328.6040816,153.4894453 L329.7157292,151.82533298 L330.8273768,150.25910962 L331.9390244,213.25677344 L333.050672,200.55568088 L334.1623196,192.002633 L335.2739672,185.54196164 L336.3856148,180.3477287 L337.4972624,176.0039061 L338.60891,172.2718895 L339.7205576,169.00484546 L340.8322052,166.0926489 L341.9438528,163.46800116 L343.0555004,161.0758397 L344.167148,158.88557422 L345.2787956,156.86049636 L346.3904432,154.98225194 L347.5020908,153.22636872 L348.6137384,151.58061058 L349.725386,232.6265514 L350.8370336,210.8462578 L351.9486812,199.038402 L353.0603288,190.89526414 L354.1719764,184.66707906 L355.283624,179.62579762 L356.3952716,175.3921001 L357.5069192,171.73961828 L358.6185668,168.52763678 L359.7302144,165.6643847 L360.841862,163.08256338 L361.9535096,160.72711028 L363.0651572,158.56131704 L364.1768048,156.56071142 L365.2884524,154.70082118 L368.6233952,231.13986282 L369.7350428,210.98697318 L370.8466904,199.66244412 L371.958338,191.74567448 L373.0699856,185.65208672 L374.1816332,180.70257618 L375.2932808,176.53005926 L376.4049284,172.92040386 L377.516576,169.75124878 L378.6282236,166.91246894 L379.7398712,164.35511986 L380.8515188,162.01802094 L381.9631664,159.87058188 L383.074814,157.88221238 L387.5214044,303.657228 L388.633052,226.28824124 L389.7446996,208.60704784 L390.8563472,198.08398464 L391.9679948,190.5648889 L393.0796424,184.70990548 L394.19129,179.91334644 L395.3029376,175.85707266 L396.4145852,172.3330701 L397.5262328,169.22509562 L398.6378804,166.44137832 L399.749528,163.92685566 L400.8611756,161.6264651 L407.5310612,266.34929812 L408.6427088,222.18914104 L409.7543564,206.41678236 L410.866004,196.591178 L411.9776516,189.4330478 L413.0892992,183.79831454 L414.2009468,179.14858894 L415.3125944,175.19632218 L416.424242,171.75797246 L417.5358896,168.71117858 L427.540718,251.39675948 L428.6523656,218.62843012 L429.7640132,204.3917045 L430.8756608,195.17178808 L431.9873084,188.34403312 L433.098956,182.91119584 L434.2106036,178.40830368 L435.3222512,174.55392588 L447.5503748,241.864822 L448.6620224,215.47762922 L449.77367,202.50734202 L450.8853176,193.82581488 L451.9969652,187.2917268 L453.1086128,182.05466744 L467.5600316,234.84740718 L468.6716792,212.65720356 L469.7833268,200.73922268 L487.5696884,229.28609064 " fill-rule="evenodd" vector-effect="non-scaling-stroke"/>
                        </g>
                    </g>
                </g>
                <g id="PlotDataItem_3">
                    <g fill="none" fill-rule="evenodd" id="PlotCurveItem_3" stroke="black" stroke-linecap="square" stroke-linejoin="bevel" stroke-width="1">
                        <g fill="none" font-family="MS Shell Dlg 2" font-size="11" font-style="normal" font-weight="400" stroke="#7ea695" stroke-linecap="square" stroke-linejoin="bevel" stroke-opacity="1" stroke-width="1.5">
                            <path d="L366.4001,184.37341218 L384.1864616,157.435594 L385.2981092,171.74573634 L386.4097568,204.96680214 L401.9728232,144.33682754 L403.0844708,152.13123598 L404.1961184,163.2171607 L405.307766,182.58693866 L418.6475372,131.13405406 L419.7591848,135.60023786 L420.8708324,140.97189454 L421.98248,147.71399666 L423.0941276,156.76872546 L424.2057752,170.60777718 L425.3174228,201.18584106 L436.4338988,125.48096662 L437.5455464,129.03555948 L438.657194,133.13465968 L439.7688416,137.9801632 L440.8804892,143.92079946 L441.9921368,151.57449252 L443.1037844,162.37286842 L444.215432,180.8677638 L454.2202604,120.82512296 L455.331908,123.76790982 L456.4435556,127.08389834 L457.5552032,130.87097748 L458.6668508,135.29433486 L459.7784984,140.59257482 L460.890146,147.23066992 L462.0017936,156.0896208 L463.1134412,169.47593608 L464.2250888,197.7536094 L470.8949744,114.56022952 L472.006622,116.86062008 L473.1182696,119.37514274 L474.2299172,122.15886004 L475.3415648,125.26683452 L476.4532124,128.78471902 L477.56486,132.84711086 L478.6765076,137.63755184 L479.7881552,143.4864172 L480.8998028,150.99939488 L482.0114504,161.51634002 L483.123098,179.17306118 L484.2347456,255.5386861 L488.681336,111.37883832 L489.7929836,113.41003424 L490.9046312,115.60641778 L492.0162788,118.0046973 L493.1279264,120.64158116 L494.239574,123.56601384 L495.3512216,126.85141206 L496.4628692,130.60178284 L497.5745168,134.97007768 L498.6861644,140.20713704 L499.797812,146.728989 L500.9094596,155.39216196 L502.0211072,168.3257408 L503.1327548,194.54774596 L506.4676976,108.54005848 L507.5793452,110.3571223 L508.6909928,112.30266538 L509.8026404,114.40727802 L510.914288,116.69543246 L512.0259356,119.197719 L513.1375832,121.95696406 L514.2492308,125.0404663 L515.3608784,128.5277605 L516.472526,132.54732592 L517.5841736,137.2765863 L518.6958212,143.03979882 L519.8074688,150.40594306 L520.9191164,160.63533938 L522.030764,177.47835856 L523.1424116,104.4226041 L524.2540592,105.97047328 L525.3657068,107.61011336 L526.4773544,109.36599658 L527.589002,111.244241 L528.7006496,113.2632008 L529.8122972,115.44734822 L530.9239448,117.82727356 L532.0355924,120.44580324 L533.14724,123.34576368 L534.2588876,126.6005716 L535.3705352,130.31423402 L536.4821828,134.63358438 L537.5938304,139.79110896 L538.705478,146.19671778 L539.8171256,154.65799476 L540.9287732,102.20174832 L542.0404208,103.6272563 L543.1520684,105.126181 L544.263716,106.7168766 L545.3753636,108.41157922 L546.4870112,110.21640692 L547.5986588,112.15583194 L548.7103064,114.24820846 L549.821954,116.51800872 L550.9336016,119.00194108 L552.0452492,121.74283196 L553.1568968,124.80186196 L554.2685444,128.2524478 L555.380192,132.22306874 L556.4918396,136.89114852 L557.6034872,98.90411398 L558.7151348,100.15831628 L559.8267824,101.46758112 L560.93843,102.85026268 L562.0500776,104.30636096 L563.1617252,105.84811208 L564.2733728,107.4816341 L565.3850204,109.2252812 L566.496668,111.0912895 L567.6083156,113.09801318 L568.7199632,115.26992448 L569.8316108,117.6376137 L570.9432584,120.23167114 L572.054906,123.10715934 L573.1665536,126.33137696 L574.2782012,130.00833102 L575.3898488,97.08705016 L576.5014964,98.25559962 L577.613144,99.47309356 L578.7247916,100.7517681 L579.8364392,102.0977413 L580.9480868,103.51101316 L582.0597344,105.0038198 L583.171382,106.58839734 L584.2830296,108.27086384 L585.3946772,110.06957348 L586.5063248,111.99676238 L587.6179724,114.07690278 L588.72962,116.32834886 L589.8412676,118.79392704 L590.9529152,121.51034568 L592.0645628,124.53878538 L593.1762104,95.38622948 L594.287858,96.47524416 L595.3995056,97.61320332 L596.5111532,98.80622502 L597.6228008,100.05430926 L598.7344484,101.35745604 L599.846096,102.73401954 L600.9577436,104.18399976 L602.0693912,105.71963282 L603.1810388,107.34703678 L604.2926864,109.07844776 L605.404334,110.93221994 L606.5159816,112.9267075 L607.6276292,115.08026462 L608.7392768,117.42959966 L609.8509244,92.79217204 L610.962572,93.78329776 L612.0742196,94.81113184 L613.1858672,95.87567428 L614.2975148,96.9891612 L615.4091624,98.1515926 L616.52081,99.36908654 L617.6324576,100.64164302 L618.7441052,101.9753801 L619.8557528,103.3825339 L620.9674004,104.86922248 L622.079048,106.44768196 L623.1906956,108.11791234 L624.3023432,109.90438586 L625.4139908,111.81933864 L626.5256384,113.88724292 L627.637286,91.33607376 L628.7489336,92.27213694 L629.8605812,93.23879042 L630.9722288,94.24215226 L632.0838764,95.28834052 L633.195524,96.3773552 L634.3071716,97.5091963 L635.4188192,98.69609994 L636.5304668,99.93806612 L637.6421144,101.23509484 L638.753762,102.60554028 L639.8654096,104.04940244 L640.9770572,105.57279938 L642.0887048,107.19408528 L643.2003524,108.91326014 L644.312,110.7547962 " fill-rule="evenodd" vector-effect="non-scaling-stroke"/>
                        </g>
                    </g>
                </g>
                <g id="PlotDataItem_4">
                    <g fill="none" fill-rule="evenodd" id="PlotCurveItem_4" stroke="black" stroke-linecap="square" stroke-linejoin="bevel" stroke-width="1">
                        <g fill="none" font-family="MS Shell Dlg 2" font-size="11" font-style="normal" font-weight="400" stroke="#8a7c91" stroke-linecap="square" stroke-linejoin="bevel" stroke-opacity="1" stroke-width="1.5">
                            <path d="M88.4882000926,151.01774906 L89.5998476,148.72347656 L90.7114952,146.61886392 L91.8231428,144.66720278 L92.9347904,142.8440209 L94.046438,141.14320022 L95.1580856,139.54638656 L96.2697332,138.03522574 L97.3813808,136.60971776 L98.4930284,135.25150844 L99.604676,133.96059778 L100.7163236,132.73086772 L101.8279712,131.5562002 L102.9396188,130.43047716 L104.0512664,129.3536986 L105.162914,128.3136284 L106.2745616,151.83145104 L107.3862092,149.47599794 L108.4978568,147.3102047 L109.6095044,145.30959908 L110.721152,143.44970884 L111.8327996,141.70606174 L112.9444472,140.07253972 L114.0560948,138.53690666 L115.1677424,137.08080838 L116.27939,135.70424488 L117.3910376,134.39498004 L118.5026852,133.1468958 L119.6143328,131.9538741 L120.7259804,130.80979688 L121.837628,129.71466414 L122.9492756,128.66847588 L124.0609232,152.68797944 L125.1725708,150.25910962 L126.2842184,148.03213578 L127.395866,145.97646762 L128.5075136,144.07375096 L129.6191612,142.2933955 L130.7308088,140.62316512 L131.8424564,139.05694176 L132.954104,137.57637124 L134.0657516,136.16921744 L135.1773992,134.84159842 L136.2890468,133.56904194 L137.4006944,132.35766606 L138.512342,131.20135272 L139.6239896,130.0878658 L140.7356372,156.35881544 L141.8472848,153.58733426 L142.9589324,151.07892966 L144.07058,148.78465716 L145.1822276,146.67392646 L146.2938752,144.71614726 L147.4055228,142.89908344 L148.5171704,141.1921447 L149.628818,139.58921298 L150.7404656,138.08417022 L151.8521132,136.65254418 L152.9637608,135.29433486 L154.0754084,134.00954226 L155.187056,132.77369414 L156.2987036,131.59902662 L157.4103512,130.47330358 L158.5219988,157.4050037 L159.6336464,154.5295155 L160.745294,151.92934 L161.8569416,149.56776884 L162.9685892,147.39585754 L164.0802368,145.38913386 L165.1918844,143.52312556 L166.303532,141.77947846 L167.4151796,140.14595644 L168.5268272,138.60420532 L169.6384748,137.14810704 L170.7501224,135.77154354 L171.86177,134.45616064 L172.9734176,133.2080764 L174.0850652,132.00893664 L175.1967128,130.87097748 L176.3083604,158.5062545 L177.420008,155.51452316 L178.5316556,152.82869482 L179.6433032,150.38758888 L180.7549508,148.14837892 L181.8665984,146.0865927 L182.978246,144.17775798 L184.0898936,142.39128446 L185.2015412,140.72105408 L186.3131888,139.14871266 L187.4248364,137.66202408 L188.536484,136.25487028 L189.6481316,134.9211332 L190.7597792,133.64857672 L191.8714268,132.43108278 L192.9830744,163.19268846 L194.094722,159.66256784 L195.2063696,156.5484753 L196.3180172,153.75863994 L197.4296648,151.23799922 L198.5413124,148.9314906 L199.65296,146.81464184 L200.7646076,144.85074458 L201.8762552,143.02144464 L202.9879028,141.30838784 L204.0995504,139.70545612 L205.211198,138.18817724 L206.3228456,136.7565512 L207.4344932,135.39222382 L208.5461408,134.10131316 L209.6577884,132.86546504 L210.769436,164.59984226 L211.8810836,160.8922979 L212.9927312,157.63748998 L214.1043788,154.73752954 L215.2160264,152.12511792 L216.327674,149.74519258 L217.4393216,147.56104516 L218.5509692,145.54820342 L219.6626168,143.669959 L220.7742644,141.92019384 L221.885912,140.2744357 L222.9975596,138.72656652 L224.1092072,137.26435018 L225.2208548,135.88166862 L226.3325024,134.56628572 L227.44415,170.67507584 L228.5557976,166.0926489 L229.6674452,162.18320856 L230.7790928,158.7815672 L231.8907404,155.75924556 L233.002388,153.04894498 L234.1140356,150.59560292 L235.2256832,148.34415684 L236.3373308,146.2701345 L237.4489784,144.3429456 L238.560626,142.55035402 L239.6722736,140.86788752 L240.7839212,139.28942804 L241.8955688,137.7966214 L243.0072164,136.38334954 L244.118864,135.0434944 L245.2305116,172.58391056 L246.3421592,167.68946256 L247.4538068,163.55977206 L248.5654544,159.98682502 L249.677102,156.83602412 L250.7887496,154.01559846 L251.9003972,151.4704855 L253.0120448,149.15174076 L254.1236924,147.01653782 L255.23534,145.03428638 L256.3469876,143.19886838 L257.4586352,141.47357546 L258.5702828,139.85840762 L259.6819304,138.33501068 L260.793578,136.89726658 L261.9052256,135.52682114 L263.0168732,174.64569678 L264.1285208,169.3964013 L265.2401684,165.01587034 L266.351816,161.25326344 L267.4634636,157.9556291 L268.5751112,155.02507836 L269.6867588,152.3881945 L270.7984064,149.98991498 L271.910054,147.78741338 L273.0217016,145.75621746 L274.1333492,143.86573692 L275.2449968,142.10373564 L276.3566444,140.45185944 L277.468292,138.89175414 L278.5799396,137.42341974 L279.6915872,184.11645366 L280.8032348,176.90326092 L281.9148824,171.2318193 L283.02653,166.56373952 L284.1381776,162.59311858 L285.2498252,159.13641468 L286.3614728,156.08350274 L287.4731204,153.34261186 L288.584768,150.8586795 L289.6964156,148.58887924 L290.8080632,146.49650272 L291.9197108,144.55095964 L293.0313584,142.74613194 L294.143006,141.05142932 L295.2546536,139.46073372 L296.3663012,137.96180902 L297.4779488,187.40796994 L298.5895964,179.37495716 L299.701244,173.20795268 L300.8128916,168.20949766 L301.9245392,164.00639044 L303.0361868,160.37838086 L304.1478344,157.18475354 L305.259482,154.33373758 L306.3711296,151.75803432 L307.4827772,149.41481734 L308.5944248,147.25514216 L309.7060724,145.2606546 L310.81772,143.40688242 L311.9293676,141.67547144 L313.0410152,140.04806748 L314.1526628,138.51243442 L315.2643104,191.18281296 L316.375958,182.10972998 L317.4876056,175.35539174 L318.5992532,169.977617 L319.7109008,165.50531514 L320.8225484,161.68152764 L321.934196,158.33494882 L323.0458436,155.36768972 L324.1574912,152.6940975 L325.2691388,150.27134574 L326.3807864,148.0443719 L327.492434,145.9948218 L328.6040816,144.09210514 L329.7157292,142.31174968 L330.8273768,140.64763736 L331.9390244,212.9875788 L333.050672,195.58781616 L334.1623196,185.16264192 L335.2739672,177.69860872 L336.3856148,171.8742156 L337.4972624,167.1021288 L338.60891,163.05197308 L339.7205576,159.5463247 L340.8322052,156.44446828 L341.9438528,153.66686904 L343.0555004,151.15846444 L344.167148,148.85807388 L345.2787956,146.74734318 L346.3904432,144.78956398 L347.5020908,142.9663821 L348.6137384,141.25944336 L349.725386,224.34269816 L350.8370336,200.88605612 L351.9486812,188.62546388 L353.0603288,180.26207586 L354.1719764,173.91764764 L355.283624,168.79683142 L356.3952716,164.5019533 L357.5069192,160.81276312 L358.6185668,157.57019132 L359.7302144,154.67634894 L360.841862,152.07617344 L361.9535096,149.70236616 L363.0651572,147.5243368 L364.1768048,145.51149506 L365.2884524,143.6393687 L367.5117476,249.72041104 L368.6233952,209.91631268 L369.7350428,194.65175298 L370.8466904,185.01580848 L371.958338,177.9616853 L373.0699856,172.3942507 L374.1816332,167.78735152 L375.2932808,163.86567506 L376.4049284,160.45179758 L377.516576,157.42335788 L378.6282236,154.70693924 L379.7398712,152.24136106 L380.8515188,149.98991498 L381.9631664,147.90977458 L383.074814,145.98258568 L387.5214044,219.16070134 L388.633052,199.45443008 L389.7446996,188.26449834 L390.8563472,180.41502736 L391.9679948,174.36426602 L393.0796424,169.43922772 L394.19129,165.28506498 L395.3029376,161.69376376 L396.4145852,158.53072674 L397.5262328,155.70418302 L398.6378804,153.14683394 L399.749528,150.81585308 L400.8611756,148.67453208 L406.4194136,233.4218992 L407.5310612,205.3094135 L408.6427088,191.95980658 L409.7543564,183.11309182 L410.866004,176.48723284 L411.9776516,171.18899288 L413.0892992,166.77787162 L414.2009468,162.99079248 L415.3125944,159.68092202 L416.424242,156.7320171 L417.5358896,154.08289712 L425.3174228,266.13516602 L426.4290704,212.804037 L427.540718,196.23633052 L428.6523656,186.10482316 L429.7640132,178.79374146 L430.8756608,173.06111924 L431.9873084,168.35021304 L433.098956,164.3490018 L434.2106036,160.87394372 L435.3222512,157.8026776 L445.3270796,223.22309318 L446.4387272,201.30820226 L447.5503748,189.4636381 L448.6620224,181.30214606 L449.77367,175.06784292 L450.8853176,170.02044342 L451.9969652,165.78062784 L453.1086128,162.12202796 L464.2250888,240.48214044 L465.3367364,207.54862346 L466.448384,193.2874256 L467.5600316,184.05527306 L468.6716792,177.22140004 L469.7833268,171.78856276 L483.123098,304.03654772 L484.2347456,215.65505296 L485.3463932,197.7230191 L486.4580408,187.108185 L487.5696884,179.54626284 L503.1327548,227.26713084 L504.2444024,202.99678682 L505.35605,190.52818054 L522.030764,248.0746529 " fill-rule="evenodd" vector-effect="non-scaling-stroke"/>
                        </g>
                    </g>
                </g>
                <g id="PlotDataItem_5"/>
                <g id="PlotDataItem_6"/>
                <g id="PlotDataItem_7"/>
                <g id="PlotDataItem_8"/>
                <g id="PlotDataItem_9"/>
                <g id="PlotDataItem_10"/>
                <g id="PlotDataItem_11"/>
                <g id="PlotDataItem_12"/>
                <g id="PlotDataItem_13"/>
            </g>
            <g fill="none" fill-rule="evenodd" id="LegendItem_1" stroke="black" stroke-linecap="square" stroke-linejoin="bevel" stroke-width="1">
                <g fill="#646464" fill-opacity="0.196078" font-family="MS Shell Dlg 2" font-size="11" font-style="normal" font-weight="400" stroke="#ffffff" stroke-linecap="square" stroke-linejoin="bevel" stroke-opacity="0.392157" stroke-width="1">
                    <path d="M94.8,61.0 L189.8,61.0 L189.8,262.0 L94.8,262.0 L94.8,61.0 " fill-rule="evenodd" vector-effect="non-scaling-stroke"/>
                </g>
                <g fill="none" fill-rule="evenodd" id="ItemSample_1" stroke="black" stroke-linecap="square" stroke-linejoin="bevel" stroke-width="1">
                    <g fill="none" font-family="MS Shell Dlg 2" font-size="11" font-style="normal" font-weight="400" stroke="#ed815e" stroke-linecap="square" stroke-linejoin="bevel" stroke-opacity="1" stroke-width="1.5">
                        <polyline fill="none" points="105.8,88.0 121.8,72.0" vector-effect="non-scaling-stroke"/>
                    </g>
                </g>
                <g fill="none" fill-rule="evenodd" id="LabelItem_1" stroke="black" stroke-linecap="square" stroke-linejoin="bevel" stroke-width="1">
                    <g fill="none" fill-rule="evenodd" id="QGraphicsTextItem_3" stroke="black" stroke-linecap="square" stroke-linejoin="bevel" stroke-width="1">
                        


                        


                        <g fill="none" font-family="MS Shell Dlg 2" font-size="11" font-style="normal" font-weight="400" stroke="#969696" stroke-linecap="square" stroke-linejoin="bevel" stroke-opacity="1" stroke-width="1" transform="matrix(1,0,0,1,136.3,70)">
                            <text fill="#969696" fill-opacity="1" font-family="&quot;MS Shell Dlg 2&quot;, sans-serif" font-size="11" font-style="normal" font-weight="400" stroke="none" x="4" xml:space="preserve" y="15">H2</text>
                        </g>
                        


                        

                    </g>
                </g>
                <g fill="none" fill-rule="evenodd" id="ItemSample_2" stroke="black" stroke-linecap="square" stroke-linejoin="bevel" stroke-width="1">
                    <g fill="none" font-family="MS Shell Dlg 2" font-size="11" font-style="normal" font-weight="400" stroke="#c7b069" stroke-linecap="square" stroke-linejoin="bevel" stroke-opacity="1" stroke-width="1.5">
                        <polyline fill="none" points="105.8,115.0 121.8,99.0" vector-effect="non-scaling-stroke"/>
                    </g>
                </g>
                <g fill="none" fill-rule="evenodd" id="LabelItem_2" stroke="black" stroke-linecap="square" stroke-linejoin="bevel" stroke-width="1">
                    <g fill="none" fill-rule="evenodd" id="QGraphicsTextItem_4" stroke="black" stroke-linecap="square" stroke-linejoin="bevel" stroke-width="1">
                        


                        


                        <g fill="none" font-family="MS Shell Dlg 2" font-size="11" font-style="normal" font-weight="400" stroke="#969696" stroke-linecap="square" stroke-linejoin="bevel" stroke-opacity="1" stroke-width="1" transform="matrix(1,0,0,1,132.8,97)">
                            <text fill="#969696" fill-opacity="1" font-family="&quot;MS Shell Dlg 2&quot;, sans-serif" font-size="11" font-style="normal" font-weight="400" stroke="none" x="4" xml:space="preserve" y="15">CH4</text>
                        </g>
                        


                        

                    </g>
                </g>
                <g fill="none" fill-rule="evenodd" id="ItemSample_3" stroke="black" stroke-linecap="square" stroke-linejoin="bevel" stroke-width="1">
                    <g fill="none" font-family="MS Shell Dlg 2" font-size="11" font-style="normal" font-weight="400" stroke="#7ea695" stroke-linecap="square" stroke-linejoin="bevel" stroke-opacity="1" stroke-width="1.5">
                        <polyline fill="none" points="105.8,142.0 121.8,126.0" vector-effect="non-scaling-stroke"/>
                    </g>
                </g>
                <g fill="none" fill-rule="evenodd" id="LabelItem_3" stroke="black" stroke-linecap="square" stroke-linejoin="bevel" stroke-width="1">
                    <g fill="none" fill-rule="evenodd" id="QGraphicsTextItem_5" stroke="black" stroke-linecap="square" stroke-linejoin="bevel" stroke-width="1">
                        


                        


                        <g fill="none" font-family="MS Shell Dlg 2" font-size="11" font-style="normal" font-weight="400" stroke="#969696" stroke-linecap="square" stroke-linejoin="bevel" stroke-opacity="1" stroke-width="1" transform="matrix(1,0,0,1,135.3,124)">
                            <text fill="#969696" fill-opacity="1" font-family="&quot;MS Shell Dlg 2&quot;, sans-serif" font-size="11" font-style="normal" font-weight="400" stroke="none" x="4" xml:space="preserve" y="15">CO</text>
                        </g>
                        


                        

                    </g>
                </g>
                <g fill="none" fill-rule="evenodd" id="ItemSample_4" stroke="black" stroke-linecap="square" stroke-linejoin="bevel" stroke-width="1">
                    <g fill="none" font-family="MS Shell Dlg 2" font-size="11" font-style="normal" font-weight="400" stroke="#8a7c91" stroke-linecap="square" stroke-linejoin="bevel" stroke-opacity="1" stroke-width="1.5">
                        <polyline fill="none" points="105.8,169.0 121.8,153.0" vector-effect="non-scaling-stroke"/>
                    </g>
                </g>
                <g fill="none" fill-rule="evenodd" id="LabelItem_4" stroke="black" stroke-linecap="square" stroke-linejoin="bevel" stroke-width="1">
                    <g fill="none" fill-rule="evenodd" id="QGraphicsTextItem_6" stroke="black" stroke-linecap="square" stroke-linejoin="bevel" stroke-width="1">
                        


                        


                        <g fill="none" font-family="MS Shell Dlg 2" font-size="11" font-style="normal" font-weight="400" stroke="#969696" stroke-linecap="square" stroke-linejoin="bevel" stroke-opacity="1" stroke-width="1" transform="matrix(1,0,0,1,132.3,151)">
                            <text fill="#969696" fill-opacity="1" font-family="&quot;MS Shell Dlg 2&quot;, sans-serif" font-size="11" font-style="normal" font-weight="400" stroke="none" x="4" xml:space="preserve" y="15">CO2</text>
                        </g>
                        


                        

                    </g>
                </g>
                <g fill="none" fill-rule="evenodd" id="ItemSample_5" stroke="black" stroke-linecap="square" stroke-linejoin="bevel" stroke-width="1">
                    <g fill="none" font-family="MS Shell Dlg 2" font-size="11" font-style="normal" font-weight="400" stroke="#ff2e70" stroke-linecap="square" stroke-linejoin="bevel" stroke-opacity="1" stroke-width="2">
                        <polyline fill="none" points="105.8,196.0 121.8,180.0" vector-effect="non-scaling-stroke"/>
                    </g>
                </g>
                <g fill="none" fill-rule="evenodd" id="LabelItem_5" stroke="black" stroke-linecap="square" stroke-linejoin="bevel" stroke-width="1">
                    <g fill="none" fill-rule="evenodd" id="QGraphicsTextItem_7" stroke="black" stroke-linecap="square" stroke-linejoin="bevel" stroke-width="1">
                        


                        


                        <g fill="none" font-family="MS Shell Dlg 2" font-size="11" font-style="normal" font-weight="400" stroke="#969696" stroke-linecap="square" stroke-linejoin="bevel" stroke-opacity="1" stroke-width="1" transform="matrix(1,0,0,1,112.8,178)">
                            <text fill="#969696" fill-opacity="1" font-family="&quot;MS Shell Dlg 2&quot;, sans-serif" font-size="11" font-style="normal" font-weight="400" stroke="none" x="4" xml:space="preserve" y="15">total density</text>
                        </g>
                        


                        

                    </g>
                </g>
                <g fill="none" fill-rule="evenodd" id="ItemSample_6" stroke="black" stroke-linecap="square" stroke-linejoin="bevel" stroke-width="1">
                    <g fill="none" font-family="MS Shell Dlg 2" font-size="11" font-style="normal" font-weight="400" stroke="none">
                        <polyline fill="none" points="105.8,223.0 121.8,207.0" vector-effect="non-scaling-stroke"/>
                    </g>
                    <g fill="#0000ff" fill-opacity="0.588235" font-family="MS Shell Dlg 2" font-size="11" font-style="normal" font-weight="400" stroke="#ffffff" stroke-linecap="square" stroke-linejoin="bevel" stroke-opacity="0.784314" stroke-width="1">
                        <path d="M116.3,215.0 C116.3,216.38071 115.18071,217.5 113.8,217.5 C112.41929,217.5 111.3,216.38071 111.3,215.0 C111.3,213.61929 112.41929,212.5 113.8,212.5 C115.18071,212.5 116.3,213.61929 116.3,215.0 " fill-rule="evenodd" vector-effect="non-scaling-stroke"/>
                    </g>
                </g>
                <g fill="none" fill-rule="evenodd" id="LabelItem_6" stroke="black" stroke-linecap="square" stroke-linejoin="bevel" stroke-width="1">
                    <g fill="none" fill-rule="evenodd" id="QGraphicsTextItem_8" stroke="black" stroke-linecap="square" stroke-linejoin="bevel" stroke-width="1">
                        


                        


                        <g fill="none" font-family="MS Shell Dlg 2" font-size="11" font-style="normal" font-weight="400" stroke="#969696" stroke-linecap="square" stroke-linejoin="bevel" stroke-opacity="1" stroke-width="1" transform="matrix(1,0,0,1,120.8,205)">
                            <text fill="#969696" fill-opacity="1" font-family="&quot;MS Shell Dlg 2&quot;, sans-serif" font-size="11" font-style="normal" font-weight="400" stroke="none" x="4" xml:space="preserve" y="15">LHC data</text>
                        </g>
                        


                        

                    </g>
                </g>
                <g fill="none" fill-rule="evenodd" id="ItemSample_7" stroke="black" stroke-linecap="square" stroke-linejoin="bevel" stroke-width="1">
                    <g fill="none" font-family="MS Shell Dlg 2" font-size="11" font-style="normal" font-weight="400" stroke="none">
                        <polyline fill="none" points="105.8,250.0 121.8,234.0" vector-effect="non-scaling-stroke"/>
                    </g>
                    <g fill="#0000ff" fill-opacity="0.588235" font-family="MS Shell Dlg 2" font-size="11" font-style="normal" font-weight="400" stroke="#ffffff" stroke-linecap="square" stroke-linejoin="bevel" stroke-opacity="0.784314" stroke-width="1">
                        <path d="M111.3,241.75 L111.3,242.25 L113.55,242.25 L113.55,244.5 L114.05,244.5 L114.05,242.25 L116.3,242.25 L116.3,241.75 L114.05,241.75 L114.05,239.5 L113.55,239.5 L113.55,241.75 L111.3,241.75 " fill-rule="evenodd" vector-effect="non-scaling-stroke"/>
                    </g>
                </g>
                <g fill="none" fill-rule="evenodd" id="LabelItem_7" stroke="black" stroke-linecap="square" stroke-linejoin="bevel" stroke-width="1">
                    <g fill="none" fill-rule="evenodd" id="QGraphicsTextItem_9" stroke="black" stroke-linecap="square" stroke-linejoin="bevel" stroke-width="1">
                        


                        


                        <g fill="none" font-family="MS Shell Dlg 2" font-size="11" font-style="normal" font-weight="400" stroke="#969696" stroke-linecap="square" stroke-linejoin="bevel" stroke-opacity="1" stroke-width="1" transform="matrix(1,0,0,1,120.8,232)">
                            <text fill="#969696" fill-opacity="1" font-family="&quot;MS Shell Dlg 2&quot;, sans-serif" font-size="11" font-style="normal" font-weight="400" stroke="none" x="4" xml:space="preserve" y="15">LHC data</text>
                        </g>
                        


                        

                    </g>
                </g>
            </g>
        </g>
    </g>
    <g fill="none" fill-rule="evenodd" id="LabelItem_8" stroke="black" stroke-linecap="square" stroke-linejoin="bevel" stroke-width="1">
        <g fill="none" fill-rule="evenodd" id="QGraphicsTextItem_10" stroke="black" stroke-linecap="square" stroke-linejoin="bevel" stroke-width="1">
            


            


            <g fill="none" font-family="MS Shell Dlg 2" font-size="11" font-style="normal" font-weight="400" stroke="#969696" stroke-linecap="square" stroke-linejoin="bevel" stroke-opacity="1" stroke-width="1" transform="matrix(1,0,0,1,324.4,3)">
                <text fill="#969696" fill-opacity="1" font-family="&quot;MS Shell Dlg 2&quot;, sans-serif" font-size="14.6667" font-style="normal" font-weight="400" stroke="none" x="4" xml:space="preserve" y="19">Density-Plot</text>
            </g>
            


            

        </g>
    </g>
</g>

</svg>
