<?xml version="1.0" encoding="UTF-8" standalone="no"?>
<svg xmlns="http://www.w3.org/2000/svg" xmlns:xlink="http://www.w3.org/1999/xlink"  version="1.2" baseProfile="tiny">
<title>pyqtgraph SVG export</title>
<desc>Generated with Qt and pyqtgraph</desc>
<defs>
</defs>
<g fill="none" fill-rule="evenodd" id="PlotItem_1" stroke="black" stroke-linecap="square" stroke-linejoin="bevel" stroke-width="1">
    <g fill="none" fill-rule="evenodd" id="AxisItem_1" stroke="black" stroke-linecap="square" stroke-linejoin="bevel" stroke-width="1">
        <g fill="none" font-family="MS Shell Dlg 2" font-size="11" font-style="normal" font-weight="400" stroke="#969696" stroke-linecap="square" stroke-linejoin="bevel" stroke-opacity="1" stroke-width="1">
            <polyline fill="none" points="64.8,320.2 668.0,320.2" vector-effect="non-scaling-stroke"/>
        </g>
        <g fill="none" font-family="MS Shell Dlg 2" font-size="11" font-style="normal" font-weight="400" stroke="#969696" stroke-linecap="square" stroke-linejoin="bevel" stroke-opacity="0.498039" stroke-width="1">
            <polyline fill="none" points="88.9882,31.0 88.9882,320.2" vector-effect="non-scaling-stroke"/>
        </g>
        <g fill="none" font-family="MS Shell Dlg 2" font-size="11" font-style="normal" font-weight="400" stroke="#969696" stroke-linecap="square" stroke-linejoin="bevel" stroke-opacity="0.247059" stroke-width="1">
            <polyline fill="none" points="274.263,31.0 274.263,320.2" vector-effect="non-scaling-stroke"/>
            <polyline fill="none" points="459.537,31.0 459.537,320.2" vector-effect="non-scaling-stroke"/>
            <polyline fill="none" points="644.812,31.0 644.812,320.2" vector-effect="non-scaling-stroke"/>
        </g>
        <g fill="none" font-family="MS Shell Dlg 2" font-size="11" font-style="normal" font-weight="400" stroke="#969696" stroke-linecap="square" stroke-linejoin="bevel" stroke-opacity="0.164706" stroke-width="1">
            <polyline fill="none" points="181.625,31.0 181.625,320.2" vector-effect="non-scaling-stroke"/>
            <polyline fill="none" points="366.9,31.0 366.9,320.2" vector-effect="non-scaling-stroke"/>
            <polyline fill="none" points="552.175,31.0 552.175,320.2" vector-effect="non-scaling-stroke"/>
        </g>
        <g fill="none" font-family="MS Shell Dlg 2" font-size="11" font-style="normal" font-weight="400" stroke="#969696" stroke-linecap="square" stroke-linejoin="bevel" stroke-opacity="1" stroke-width="1" transform="matrix(1,0,0,1,65.3,320.2)">
            <text fill="#969696" fill-opacity="1" font-family="&quot;MS Shell Dlg 2&quot;, sans-serif" font-size="11" font-style="normal" font-weight="400" stroke="none" x="20.6875" xml:space="preserve" y="12">0</text>
            <text fill="#969696" fill-opacity="1" font-family="&quot;MS Shell Dlg 2&quot;, sans-serif" font-size="11" font-style="normal" font-weight="400" stroke="none" x="205.953" xml:space="preserve" y="12">2</text>
            <text fill="#969696" fill-opacity="1" font-family="&quot;MS Shell Dlg 2&quot;, sans-serif" font-size="11" font-style="normal" font-weight="400" stroke="none" x="391.234" xml:space="preserve" y="12">4</text>
            <text fill="#969696" fill-opacity="1" font-family="&quot;MS Shell Dlg 2&quot;, sans-serif" font-size="11" font-style="normal" font-weight="400" stroke="none" x="576.5" xml:space="preserve" y="12">6</text>
            <text fill="#969696" fill-opacity="1" font-family="&quot;MS Shell Dlg 2&quot;, sans-serif" font-size="11" font-style="normal" font-weight="400" stroke="none" x="113.312" xml:space="preserve" y="12">1</text>
            <text fill="#969696" fill-opacity="1" font-family="&quot;MS Shell Dlg 2&quot;, sans-serif" font-size="11" font-style="normal" font-weight="400" stroke="none" x="298.594" xml:space="preserve" y="12">3</text>
            <text fill="#969696" fill-opacity="1" font-family="&quot;MS Shell Dlg 2&quot;, sans-serif" font-size="11" font-style="normal" font-weight="400" stroke="none" x="483.859" xml:space="preserve" y="12">5</text>
        </g>
        <g fill="none" fill-rule="evenodd" id="QGraphicsTextItem_1" stroke="black" stroke-linecap="square" stroke-linejoin="bevel" stroke-width="1">
            


            


            <g fill="none" font-family="MS Shell Dlg 2" font-size="11" font-style="normal" font-weight="400" stroke="#ffffff" stroke-linecap="square" stroke-linejoin="bevel" stroke-opacity="1" stroke-width="1" transform="matrix(1,0,0,1,257.8,338.2)">
                <text fill="#ffffff" fill-opacity="1" font-family="&quot;MS Shell Dlg 2&quot;, sans-serif" font-size="18.6667" font-style="normal" font-weight="400" stroke="none" x="4" xml:space="preserve" y="23">Axis along beam line (m)</text>
            </g>
            


            

        </g>
    </g>
    <g fill="none" fill-rule="evenodd" id="AxisItem_2" stroke="black" stroke-linecap="square" stroke-linejoin="bevel" stroke-width="1">
        <g fill="none" font-family="MS Shell Dlg 2" font-size="11" font-style="normal" font-weight="400" stroke="#969696" stroke-linecap="square" stroke-linejoin="bevel" stroke-opacity="1" stroke-width="1">
            <polyline fill="none" points="64.8,31.0 64.8,320.2" vector-effect="non-scaling-stroke"/>
        </g>
        <g fill="none" font-family="MS Shell Dlg 2" font-size="11" font-style="normal" font-weight="400" stroke="#969696" stroke-linecap="square" stroke-linejoin="bevel" stroke-opacity="0.498039" stroke-width="1">
            <polyline fill="none" points="668.5,139.761 65.3,139.761" vector-effect="non-scaling-stroke"/>
        </g>
        <g fill="none" font-family="MS Shell Dlg 2" font-size="11" font-style="normal" font-weight="400" stroke="#969696" stroke-linecap="square" stroke-linejoin="bevel" stroke-opacity="0.247059" stroke-width="1">
            <polyline fill="none" points="668.5,269.404 65.3,269.404" vector-effect="non-scaling-stroke"/>
        </g>
        <g fill="none" font-family="MS Shell Dlg 2" font-size="11" font-style="normal" font-weight="400" stroke="#969696" stroke-linecap="square" stroke-linejoin="bevel" stroke-opacity="0.113725" stroke-width="1">
            <polyline fill="none" points="668.5,308.431 65.3,308.431" vector-effect="non-scaling-stroke"/>
            <polyline fill="none" points="668.5,298.166 65.3,298.166" vector-effect="non-scaling-stroke"/>
            <polyline fill="none" points="668.5,289.487 65.3,289.487" vector-effect="non-scaling-stroke"/>
            <polyline fill="none" points="668.5,281.968 65.3,281.968" vector-effect="non-scaling-stroke"/>
            <polyline fill="none" points="668.5,275.337 65.3,275.337" vector-effect="non-scaling-stroke"/>
            <polyline fill="none" points="668.5,269.404 65.3,269.404" vector-effect="non-scaling-stroke"/>
            <polyline fill="none" points="668.5,230.378 65.3,230.378" vector-effect="non-scaling-stroke"/>
            <polyline fill="none" points="668.5,207.549 65.3,207.549" vector-effect="non-scaling-stroke"/>
            <polyline fill="none" points="668.5,191.351 65.3,191.351" vector-effect="non-scaling-stroke"/>
            <polyline fill="none" points="668.5,178.787 65.3,178.787" vector-effect="non-scaling-stroke"/>
            <polyline fill="none" points="668.5,168.522 65.3,168.522" vector-effect="non-scaling-stroke"/>
            <polyline fill="none" points="668.5,159.843 65.3,159.843" vector-effect="non-scaling-stroke"/>
            <polyline fill="none" points="668.5,152.324 65.3,152.324" vector-effect="non-scaling-stroke"/>
            <polyline fill="none" points="668.5,145.693 65.3,145.693" vector-effect="non-scaling-stroke"/>
            <polyline fill="none" points="668.5,139.761 65.3,139.761" vector-effect="non-scaling-stroke"/>
            <polyline fill="none" points="668.5,100.734 65.3,100.734" vector-effect="non-scaling-stroke"/>
            <polyline fill="none" points="668.5,77.9049 65.3,77.9049" vector-effect="non-scaling-stroke"/>
            <polyline fill="none" points="668.5,61.7074 65.3,61.7074" vector-effect="non-scaling-stroke"/>
            <polyline fill="none" points="668.5,49.1436 65.3,49.1436" vector-effect="non-scaling-stroke"/>
            <polyline fill="none" points="668.5,38.87822 65.3,38.87822" vector-effect="non-scaling-stroke"/>
        </g>
        <g fill="none" font-family="MS Shell Dlg 2" font-size="11" font-style="normal" font-weight="400" stroke="#969696" stroke-linecap="square" stroke-linejoin="bevel" stroke-opacity="1" stroke-width="1" transform="matrix(1,0,0,1,1.5,31)">
            <text fill="#969696" fill-opacity="1" font-family="&quot;MS Shell Dlg 2&quot;, sans-serif" font-size="11" font-style="normal" font-weight="400" stroke="none" x="26.7969" xml:space="preserve" y="113.547">1e+12</text>
            <text fill="#969696" fill-opacity="1" font-family="&quot;MS Shell Dlg 2&quot;, sans-serif" font-size="11" font-style="normal" font-weight="400" stroke="none" x="26.7969" xml:space="preserve" y="243.203">1e+11</text>
        </g>
        <g fill="none" fill-rule="evenodd" id="QGraphicsTextItem_2" stroke="black" stroke-linecap="square" stroke-linejoin="bevel" stroke-width="1">
            


            


            <g fill="none" font-family="MS Shell Dlg 2" font-size="11" font-style="normal" font-weight="400" stroke="#ffffff" stroke-linecap="square" stroke-linejoin="bevel" stroke-opacity="1" stroke-width="1" transform="matrix(0,-1,1,0,-4,287)">
                <text fill="#ffffff" fill-opacity="1" font-family="&quot;MS Shell Dlg 2&quot;, sans-serif" font-size="18.6667" font-style="normal" font-weight="400" stroke="none" x="4" xml:space="preserve" y="23">Density (particles per m3)</text>
            </g>
            


            

        </g>
    </g>
    <g fill="none" fill-rule="evenodd" id="ViewBox_1" stroke="black" stroke-linecap="square" stroke-linejoin="bevel" stroke-width="1">
        <g fill="none" font-family="MS Shell Dlg 2" font-size="11" font-style="normal" font-weight="400" stroke="none">
            <path d="M64.8,31.0 L668.0,31.0 L668.0,320.2 L64.8,320.2 L64.8,31.0 " fill-rule="evenodd" vector-effect="non-scaling-stroke"/>
        </g>
        <clipPath id="ViewBox_1_clip">
            <path d="M64.8,31.0 L668.0,31.0 L668.0,320.2 L64.8,320.2 L64.8,31.0 " fill-rule="evenodd" vector-effect="non-scaling-stroke"/>
        </clipPath>
        <g clip-path="url(#ViewBox_1_clip)">
            <g fill="none" fill-rule="evenodd" id="ChildGroup_1" stroke="black" stroke-linecap="square" stroke-linejoin="bevel" stroke-width="1">
                <g id="PlotDataItem_1">
                    <g fill="none" fill-rule="evenodd" id="PlotCurveItem_1" stroke="black" stroke-linecap="square" stroke-linejoin="bevel" stroke-width="1">
                        <g fill="none" font-family="MS Shell Dlg 2" font-size="11" font-style="normal" font-weight="400" stroke="#ed815e" stroke-linecap="square" stroke-linejoin="bevel" stroke-opacity="1" stroke-width="1.5">
                            <path d="M88.4882000926,95.7608264 L89.5998476,94.6847812 L90.7114952,93.6476292 L91.8231428,92.6234416 L92.9347904,91.6381472 L94.046438,90.6658172 L95.1580856,89.719416 L96.2697332,88.7989436 L97.3813808,87.9044 L98.4930284,87.0228208 L99.604676,86.154206 L100.7163236,85.3244844 L101.8279712,84.4947628 L102.9396188,83.69097 L104.0512664,82.9001416 L105.162914,82.135242 L106.2745616,81.3833068 L107.3862092,80.644336 L108.4978568,79.9183296 L109.6095044,79.218252 L110.721152,78.5181744 L111.8327996,77.8440256 L112.9444472,77.1698768 L114.0560948,76.5216568 L115.1677424,75.8864012 L116.27939,75.2511456 L117.3910376,74.6418188 L118.5026852,74.032492 L119.6143328,73.449094 L120.7259804,72.865696 L121.837628,72.2952624 L122.9492756,71.7377932 L124.0609232,71.180324 L125.1725708,70.6487836 L126.2842184,70.1172432 L127.395866,69.5986672 L128.5075136,69.0930556 L129.6191612,68.587444 L130.7308088,68.0947968 L131.8424564,67.615114 L132.954104,67.1483956 L134.0657516,66.6816772 L135.1773992,66.2149588 L136.2890468,65.7741692 L137.4006944,65.3333796 L138.512342,64.9055544 L139.6239896,64.4777292 L140.7356372,64.0628684 L141.8472848,63.6480076 L142.9589324,63.2461112 L144.07058,62.8442148 L145.1822276,62.4552828 L146.2938752,62.0793152 L147.4055228,61.7033476 L148.5171704,61.32738 L149.628818,60.9773412 L150.7404656,60.614338 L151.8521132,60.2642992 L152.9637608,59.9272248 L154.0754084,59.5901504 L155.187056,59.253076 L156.2987036,58.928966 L157.4103512,58.604856 L158.5219988,58.2937104 L159.6336464,57.9825648 L160.745294,57.6843836 L161.8569416,57.3862024 L162.9685892,57.1009856 L164.0802368,56.8157688 L165.1918844,56.530552 L166.303532,56.2582996 L167.4151796,55.9860472 L168.5268272,55.7137948 L169.6384748,55.4545068 L170.7501224,55.1952188 L171.86177,54.9488952 L172.9734176,54.7025716 L174.0850652,54.456248 L175.1967128,54.2228888 L176.3083604,53.9895296 L177.420008,53.7691348 L178.5316556,53.54874 L179.6433032,53.3283452 L180.7549508,53.1079504 L181.8665984,52.90052 L182.978246,52.6930896 L184.0898936,52.4986236 L185.2015412,52.2911932 L186.3131888,52.1096916 L187.4248364,51.9152256 L188.536484,51.733724 L189.6481316,51.5522224 L190.7597792,51.3707208 L191.8714268,51.2021836 L192.9830744,51.0336464 L194.094722,50.8651092 L195.2063696,50.7095364 L196.3180172,50.5539636 L197.4296648,50.3983908 L198.5413124,50.2557824 L199.65296,50.1002096 L200.7646076,49.9576012 L201.8762552,49.8279572 L202.9879028,49.6983132 L204.0995504,49.5557048 L205.211198,49.4390252 L206.3228456,49.3093812 L207.4344932,49.1927016 L208.5461408,49.076022 L209.6577884,48.9593424 L210.769436,48.8556272 L211.8810836,48.751912 L212.9927312,48.6481968 L214.1043788,48.557446 L215.2160264,48.4537308 L216.327674,48.36298 L217.4393216,48.2722292 L218.5509692,48.1944428 L219.6626168,48.1166564 L220.7742644,48.03887 L221.885912,47.9610836 L222.9975596,47.8832972 L224.1092072,47.8184752 L225.2208548,47.7536532 L226.3325024,47.7017956 L227.44415,47.6369736 L228.5557976,47.585116 L229.6674452,47.5332584 L230.7790928,47.4814008 L231.8907404,47.4425076 L233.002388,47.4036144 L234.1140356,47.3647212 L235.2256832,47.325828 L236.3373308,47.2998992 L237.4489784,47.2739704 L238.560626,47.2480416 L239.6722736,47.2221128 L240.7839212,47.2091484 L241.8955688,47.1832196 L243.0072164,47.1702552 L244.118864,47.1702552 L245.2305116,47.1572908 L246.3421592,47.1572908 L247.4538068,47.1572908 L248.5654544,47.1702552 L249.677102,47.1702552 L250.7887496,47.1832196 L251.9003972,47.196184 L253.0120448,47.2091484 L254.1236924,47.2350772 L255.23534,47.261006 L256.3469876,47.2869348 L257.4586352,47.3128636 L258.5702828,47.3517568 L259.6819304,47.3776856 L260.793578,47.4295432 L261.9052256,47.4684364 L263.0168732,47.5073296 L264.1285208,47.5591872 L265.2401684,47.6110448 L266.351816,47.6758668 L267.4634636,47.7277244 L268.5751112,47.7925464 L269.6867588,47.8573684 L270.7984064,47.9351548 L271.910054,47.9999768 L273.0217016,48.0777632 L274.1333492,48.1555496 L275.2449968,48.2463004 L276.3566444,48.3240868 L277.468292,48.4148376 L278.5799396,48.5055884 L279.6915872,48.6093036 L280.8032348,48.7130188 L281.9148824,48.816734 L283.02653,48.9204492 L284.1381776,49.0241644 L285.2498252,49.140844 L286.3614728,49.2575236 L287.4731204,49.3871676 L288.584768,49.5038472 L289.6964156,49.6334912 L290.8080632,49.7631352 L291.9197108,49.9057436 L293.0313584,50.048352 L294.143006,50.1909604 L295.2546536,50.3335688 L296.3663012,50.4891416 L297.4779488,50.6447144 L298.5895964,50.8002872 L299.701244,50.95586 L300.8128916,51.1243972 L301.9245392,51.2929344 L303.0361868,51.474436 L304.1478344,51.6559376 L305.259482,51.8374392 L306.3711296,52.0189408 L307.4827772,52.2134068 L308.5944248,52.4078728 L309.7060724,52.6023388 L310.81772,52.8097692 L311.9293676,53.0171996 L313.0410152,53.22463 L314.1526628,53.4450248 L315.2643104,53.6654196 L316.375958,53.8987788 L317.4876056,54.1191736 L318.5992532,54.3525328 L319.7109008,54.5988564 L320.8225484,54.84518 L321.934196,55.0915036 L323.0458436,55.3378272 L324.1574912,55.5971152 L325.2691388,55.8693676 L326.3807864,56.1286556 L327.492434,56.4138724 L328.6040816,56.6861248 L329.7157292,56.9713416 L330.8273768,57.2565584 L331.9390244,57.5547396 L333.050672,57.8529208 L334.1623196,58.1640664 L335.2739672,58.475212 L336.3856148,58.7863576 L337.4972624,59.1104676 L338.60891,59.4345776 L339.7205576,59.771652 L340.8322052,60.1087264 L341.9438528,60.4587652 L343.0555004,60.808804 L344.167148,61.1718072 L345.2787956,61.5348104 L346.3904432,61.910778 L347.5020908,62.2867456 L348.6137384,62.6756776 L349.725386,63.0646096 L350.8370336,63.466506 L351.9486812,63.8684024 L353.0603288,64.2832632 L354.1719764,64.7110884 L355.283624,65.1389136 L356.3952716,65.5797032 L357.5069192,66.0204928 L358.6185668,66.4742468 L359.7302144,66.9280008 L360.841862,67.4076836 L361.9535096,67.8873664 L363.0651572,68.3670492 L364.1768048,68.8596964 L365.2884524,69.365308 L366.4001,69.883884 L367.5117476,69.365308 L368.6233952,68.8726608 L369.7350428,68.3800136 L370.8466904,67.8873664 L371.958338,67.4076836 L373.0699856,66.9409652 L374.1816332,66.4872112 L375.2932808,66.0334572 L376.4049284,65.5926676 L377.516576,65.151878 L378.6282236,64.7240528 L379.7398712,64.309192 L380.8515188,63.8943312 L381.9631664,63.4924348 L383.074814,63.0905384 L384.1864616,62.7016064 L385.2981092,62.3126744 L386.4097568,61.9367068 L387.5214044,61.5737036 L388.633052,61.2107004 L389.7446996,60.8476972 L390.8563472,60.4976584 L391.9679948,60.1476196 L393.0796424,59.8105452 L394.19129,59.4734708 L395.3029376,59.1493608 L396.4145852,58.8252508 L397.5262328,58.5141052 L398.6378804,58.2029596 L399.749528,57.9047784 L400.8611756,57.6065972 L401.9728232,57.308416 L403.0844708,57.0231992 L404.1961184,56.7379824 L405.307766,56.46573 L406.4194136,56.1934776 L407.5310612,55.9212252 L408.6427088,55.6619372 L409.7543564,55.4026492 L410.866004,55.1563256 L411.9776516,54.8970376 L413.0892992,54.6636784 L414.2009468,54.4173548 L415.3125944,54.1839956 L416.424242,53.9636008 L417.5358896,53.7302416 L418.6475372,53.5098468 L419.7591848,53.3024164 L420.8708324,53.094986 L421.98248,52.8875556 L423.0941276,52.6801252 L424.2057752,52.4856592 L425.3174228,52.2911932 L426.4290704,52.0967272 L427.540718,51.9152256 L428.6523656,51.733724 L429.7640132,51.5522224 L430.8756608,51.3836852 L431.9873084,51.215148 L433.098956,51.0466108 L434.2106036,50.8780736 L435.3222512,50.7225008 L436.4338988,50.566928 L437.5455464,50.4243196 L438.657194,50.2817112 L439.7688416,50.1391028 L440.8804892,49.9964944 L441.9921368,49.8668504 L443.1037844,49.724242 L444.215432,49.6075624 L445.3270796,49.4779184 L446.4387272,49.3612388 L447.5503748,49.2445592 L448.6620224,49.1278796 L449.77367,49.0241644 L450.8853176,48.9074848 L451.9969652,48.816734 L453.1086128,48.7130188 L454.2202604,48.622268 L455.331908,48.5185528 L456.4435556,48.4407664 L457.5552032,48.3500156 L458.6668508,48.2722292 L459.7784984,48.1944428 L460.890146,48.1166564 L462.0017936,48.03887 L463.1134412,47.974048 L464.2250888,47.909226 L465.3367364,47.844404 L466.448384,47.7925464 L467.5600316,47.7406888 L468.6716792,47.6888312 L469.7833268,47.6369736 L470.8949744,47.585116 L472.006622,47.5462228 L473.1182696,47.5073296 L474.2299172,47.4684364 L475.3415648,47.4425076 L476.4532124,47.4165788 L477.56486,47.39065 L478.6765076,47.3647212 L479.7881552,47.3517568 L480.8998028,47.325828 L482.0114504,47.3128636 L483.123098,47.3128636 L484.2347456,47.2998992 L485.3463932,47.2998992 L486.4580408,47.2998992 L487.5696884,47.2998992 L488.681336,47.3128636 L489.7929836,47.325828 L490.9046312,47.3387924 L492.0162788,47.3517568 L493.1279264,47.3647212 L494.239574,47.39065 L495.3512216,47.4165788 L496.4628692,47.455472 L497.5745168,47.4814008 L498.6861644,47.520294 L499.797812,47.5591872 L500.9094596,47.5980804 L502.0211072,47.649938 L503.1327548,47.7017956 L504.2444024,47.7536532 L505.35605,47.8055108 L506.4676976,47.8573684 L507.5793452,47.9221904 L508.6909928,47.9870124 L509.8026404,48.0647988 L510.914288,48.1296208 L512.0259356,48.2074072 L513.1375832,48.2851936 L514.2492308,48.3759444 L515.3608784,48.4537308 L516.472526,48.5444816 L517.5841736,48.6352324 L518.6958212,48.7389476 L519.8074688,48.8296984 L520.9191164,48.9334136 L522.030764,49.0500932 L523.1424116,49.1538084 L524.2540592,49.270488 L525.3657068,49.3871676 L526.4773544,49.5038472 L527.589002,49.6334912 L528.7006496,49.7631352 L529.8122972,49.8927792 L530.9239448,50.0353876 L532.0355924,50.1650316 L533.14724,50.30764 L534.2588876,50.4632128 L535.3705352,50.6058212 L536.4821828,50.761394 L537.5938304,50.9169668 L538.705478,51.085504 L539.8171256,51.2540412 L540.9287732,51.4225784 L542.0404208,51.5911156 L543.1520684,51.7726172 L544.263716,51.9541188 L545.3753636,52.1485848 L546.4870112,52.3300864 L547.5986588,52.5245524 L548.7103064,52.7319828 L549.821954,52.9264488 L550.9336016,53.1338792 L552.0452492,53.354274 L553.1568968,53.5746688 L554.2685444,53.7950636 L555.380192,54.0154584 L556.4918396,54.2488176 L557.6034872,54.4821768 L558.7151348,54.715536 L559.8267824,54.9618596 L560.93843,55.2081832 L562.0500776,55.4674712 L563.1617252,55.7267592 L564.2733728,55.9860472 L565.3850204,56.2582996 L566.496668,56.530552 L567.6083156,56.8028044 L568.7199632,57.0880212 L569.8316108,57.3862024 L570.9432584,57.6714192 L572.054906,57.9825648 L573.1665536,58.280746 L574.2782012,58.5918916 L575.3898488,58.9160016 L576.5014964,59.2271472 L577.613144,59.5642216 L578.7247916,59.901296 L579.8364392,60.2383704 L580.9480868,60.5884092 L582.0597344,60.938448 L583.171382,61.3014512 L584.2830296,61.6644544 L585.3946772,62.040422 L586.5063248,62.4163896 L587.6179724,62.8053216 L588.72962,63.1942536 L589.8412676,63.59615 L590.9529152,63.9980464 L592.0645628,64.4129072 L593.1762104,64.8407324 L594.287858,65.2685576 L595.3995056,65.7093472 L596.5111532,66.1501368 L597.6228008,66.6038908 L598.7344484,67.0576448 L599.846096,67.5373276 L600.9577436,68.0170104 L602.0693912,68.4966932 L603.1810388,69.0023048 L604.2926864,69.5079164 L605.404334,70.013528 L606.5159816,70.5450684 L607.6276292,71.0766088 L608.7392768,71.6211136 L609.8509244,72.1785828 L610.962572,72.736052 L612.0742196,73.31945 L613.1858672,73.902848 L614.2975148,74.4992104 L615.4091624,75.1215016 L616.52081,75.7437928 L617.6324576,76.3790484 L618.7441052,77.014304 L619.8557528,77.6754884 L620.9674004,78.3496372 L622.079048,79.0497148 L623.1906956,79.7497924 L624.3023432,80.4628344 L625.4139908,81.1888408 L626.5256384,81.940776 L627.637286,82.7056756 L628.7489336,83.4835396 L629.8605812,84.2873324 L630.9722288,85.1040896 L632.0838764,85.9338112 L633.195524,86.7894616 L634.3071716,87.6580764 L635.4188192,88.55262 L636.5304668,89.460128 L637.6421144,90.4065292 L638.753762,91.3658948 L639.8654096,92.3382248 L640.9770572,93.349448 L642.0887048,94.3866 L643.2003524,95.4496808 L644.312,96.5386904 " fill-rule="evenodd" vector-effect="non-scaling-stroke"/>
                        </g>
                    </g>
                </g>
                <g id="PlotDataItem_2">
                    <g fill="none" fill-rule="evenodd" id="PlotCurveItem_2" stroke="black" stroke-linecap="square" stroke-linejoin="bevel" stroke-width="1">
                        <g fill="none" font-family="MS Shell Dlg 2" font-size="11" font-style="normal" font-weight="400" stroke="#c7b069" stroke-linecap="square" stroke-linejoin="bevel" stroke-opacity="1" stroke-width="1.5">
                            <path d="M88.4882000926,301.3891748 L89.5998476,298.4203272 L90.7114952,295.6329812 L91.8231428,292.9752792 L92.9347904,290.47315 L94.046438,288.0877004 L95.1580856,285.8189304 L96.2697332,283.6538756 L97.3813808,281.5795716 L98.4930284,279.5960184 L99.604676,277.703216 L100.7163236,275.8882 L101.8279712,274.1250416 L102.9396188,272.452634 L104.0512664,270.8191196 L105.162914,269.2633916 L106.2745616,267.7465568 L107.3862092,266.294544 L108.4978568,264.8814244 L109.6095044,263.5201624 L110.721152,262.210758 L111.8327996,260.9272824 L112.9444472,259.6956644 L114.0560948,258.4899752 L115.1677424,257.3231792 L116.27939,256.1952764 L117.3910376,255.0933024 L118.5026852,254.0302216 L119.6143328,252.9801052 L120.7259804,251.968882 L121.837628,250.996552 L122.9492756,250.0371864 L124.0609232,249.1037496 L125.1725708,248.1962416 L126.2842184,247.3146624 L127.395866,246.4460476 L128.5075136,245.6033616 L129.6191612,244.7866044 L130.7308088,243.9828116 L131.8424564,243.2049476 L132.954104,242.440048 L134.0657516,241.7010772 L135.1773992,240.9750708 L136.2890468,240.2620288 L137.4006944,239.5749156 L138.512342,238.8878024 L139.6239896,238.226618 L140.7356372,237.578398 L141.8472848,236.9561068 L142.9589324,236.3338156 L144.07058,235.7244888 L145.1822276,235.1410908 L146.2938752,234.5576928 L147.4055228,234.0002236 L148.5171704,233.4427544 L149.628818,232.911214 L150.7404656,232.3796736 L151.8521132,231.8610976 L152.9637608,231.355486 L154.0754084,230.8628388 L155.187056,230.383156 L156.2987036,229.9034732 L157.4103512,229.4497192 L158.5219988,228.9959652 L159.6336464,228.5551756 L160.745294,228.114386 L161.8569416,227.6995252 L162.9685892,227.2846644 L164.0802368,226.882768 L165.1918844,226.4808716 L166.303532,226.0919396 L167.4151796,225.715972 L168.5268272,225.3529688 L169.6384748,224.9899656 L170.7501224,224.6399268 L171.86177,224.289888 L172.9734176,223.9528136 L174.0850652,223.6287036 L175.1967128,223.3045936 L176.3083604,222.993448 L177.420008,222.6823024 L178.5316556,222.3841212 L179.6433032,222.08594 L180.7549508,221.8007232 L181.8665984,221.5284708 L182.978246,221.2562184 L184.0898936,220.9969304 L185.2015412,220.7376424 L186.3131888,220.4783544 L187.4248364,220.2320308 L188.536484,219.9986716 L189.6481316,219.7653124 L190.7597792,219.5449176 L191.8714268,219.3245228 L192.9830744,219.1170924 L194.094722,218.909662 L195.2063696,218.7022316 L196.3180172,218.5077656 L197.4296648,218.326264 L198.5413124,218.1447624 L199.65296,217.9632608 L200.7646076,217.7947236 L201.8762552,217.6261864 L202.9879028,217.4706136 L204.0995504,217.3150408 L205.211198,217.159468 L206.3228456,217.0168596 L207.4344932,216.8872156 L208.5461408,216.7575716 L209.6577884,216.6279276 L210.769436,216.511248 L211.8810836,216.3945684 L212.9927312,216.2778888 L214.1043788,216.1741736 L215.2160264,216.0704584 L216.327674,215.9797076 L217.4393216,215.8889568 L218.5509692,215.8111704 L219.6626168,215.733384 L220.7742644,215.6555976 L221.885912,215.5907756 L222.9975596,215.5259536 L224.1092072,215.4611316 L225.2208548,215.409274 L226.3325024,215.3574164 L227.44415,215.3185232 L228.5557976,215.27963 L229.6674452,215.2407368 L230.7790928,215.214808 L231.8907404,215.1888792 L233.002388,215.1759148 L234.1140356,215.1629504 L235.2256832,215.149986 L236.3373308,215.149986 L237.4489784,215.149986 L238.560626,215.1629504 L239.6722736,215.1759148 L240.7839212,215.1888792 L241.8955688,215.214808 L243.0072164,215.2407368 L244.118864,215.2666656 L245.2305116,215.3055588 L246.3421592,215.344452 L247.4538068,215.3963096 L248.5654544,215.4481672 L249.677102,215.5000248 L250.7887496,215.5648468 L251.9003972,215.6296688 L253.0120448,215.7074552 L254.1236924,215.7852416 L255.23534,215.863028 L256.3469876,215.9537788 L257.4586352,216.0445296 L258.5702828,216.1352804 L259.6819304,216.2389956 L260.793578,216.3556752 L261.9052256,216.4723548 L263.0168732,216.5890344 L264.1285208,216.705714 L265.2401684,216.835358 L266.351816,216.9779664 L267.4634636,217.1205748 L268.5751112,217.2631832 L269.6867588,217.418756 L270.7984064,217.5743288 L271.910054,217.742866 L273.0217016,217.9114032 L274.1333492,218.0799404 L275.2449968,218.261442 L276.3566444,218.4429436 L277.468292,218.6374096 L278.5799396,218.84484 L279.6915872,219.039306 L280.8032348,219.2597008 L281.9148824,219.4671312 L283.02653,219.7004904 L284.1381776,219.9208852 L285.2498252,220.1542444 L286.3614728,220.400568 L287.4731204,220.6468916 L288.584768,220.9061796 L289.6964156,221.1654676 L290.8080632,221.43772 L291.9197108,221.7099724 L293.0313584,221.9951892 L294.143006,222.280406 L295.2546536,222.5785872 L296.3663012,222.8897328 L297.4779488,223.2008784 L298.5895964,223.512024 L299.701244,223.8490984 L300.8128916,224.1732084 L301.9245392,224.5232472 L303.0361868,224.873286 L304.1478344,225.2233248 L305.259482,225.5992924 L306.3711296,225.97526 L307.4827772,226.3512276 L308.5944248,226.753124 L309.7060724,227.142056 L310.81772,227.5569168 L311.9293676,227.984742 L313.0410152,228.4125672 L314.1526628,228.8403924 L315.2643104,229.2941464 L316.375958,229.7479004 L317.4876056,230.2275832 L318.5992532,230.707266 L319.7109008,231.1869488 L320.8225484,231.6925604 L321.934196,232.2111364 L323.0458436,232.7297124 L324.1574912,233.2612528 L325.2691388,233.818722 L326.3807864,234.3761912 L327.492434,234.9466248 L328.6040816,235.5300228 L329.7157292,236.1263852 L330.8273768,236.7486764 L331.9390244,237.3709676 L333.050672,238.0062232 L334.1623196,238.6674076 L335.2739672,239.3415564 L336.3856148,240.0286696 L337.4972624,240.7287472 L338.60891,241.4547536 L339.7205576,242.1937244 L340.8322052,242.9456596 L341.9438528,243.7235236 L343.0555004,244.514352 L344.167148,245.3311092 L345.2787956,246.1608308 L346.3904432,247.0164812 L347.5020908,247.885096 L348.6137384,248.792604 L349.725386,249.7130764 L350.8370336,250.6594776 L351.9486812,251.6318076 L353.0603288,252.6430308 L354.1719764,253.6672184 L355.283624,254.7302992 L356.3952716,255.8193088 L357.5069192,256.9342472 L358.6185668,258.0880788 L359.7302144,259.2808036 L360.841862,260.4994572 L361.9535096,261.7699684 L363.0651572,263.0664084 L364.1768048,264.414706 L365.2884524,265.8018968 L366.4001,267.2409452 L367.5117476,265.8148612 L368.6233952,264.4276704 L369.7350428,263.0793728 L370.8466904,261.7829328 L371.958338,260.525386 L373.0699856,259.3067324 L374.1816332,258.126972 L375.2932808,256.9731404 L376.4049284,255.858202 L377.516576,254.7691924 L378.6282236,253.719076 L379.7398712,252.6948884 L380.8515188,251.6966296 L381.9631664,250.7242996 L383.074814,249.7778984 L384.1864616,248.857426 L385.2981092,247.9628824 L386.4097568,247.0813032 L387.5214044,246.2386172 L388.633052,245.4088956 L389.7446996,244.5921384 L390.8563472,243.80131 L391.9679948,243.0364104 L393.0796424,242.2715108 L394.19129,241.5455044 L395.3029376,240.819498 L396.4145852,240.1194204 L397.5262328,239.4323072 L398.6378804,238.7711228 L399.749528,238.1099384 L400.8611756,237.4746828 L401.9728232,236.8523916 L403.0844708,236.2430648 L404.1961184,235.6467024 L405.307766,235.0633044 L406.4194136,234.4928708 L407.5310612,233.9354016 L408.6427088,233.3908968 L409.7543564,232.846392 L410.866004,232.327816 L411.9776516,231.8222044 L413.0892992,231.3165928 L414.2009468,230.83691 L415.3125944,230.3572272 L416.424242,229.8905088 L417.5358896,229.4237904 L418.6475372,228.9830008 L419.7591848,228.5422112 L420.8708324,228.114386 L421.98248,227.6995252 L423.0941276,227.2976288 L424.2057752,226.8957324 L425.3174228,226.5068004 L426.4290704,226.1178684 L427.540718,225.7419008 L428.6523656,225.3788976 L429.7640132,225.0288588 L430.8756608,224.67882 L431.9873084,224.3287812 L433.098956,224.0046712 L434.2106036,223.6805612 L435.3222512,223.3564512 L436.4338988,223.0453056 L437.5455464,222.7471244 L438.657194,222.4489432 L439.7688416,222.1637264 L440.8804892,221.8785096 L441.9921368,221.6062572 L443.1037844,221.3469692 L444.215432,221.0876812 L445.3270796,220.8283932 L446.4387272,220.5820696 L447.5503748,220.335746 L448.6620224,220.1023868 L449.77367,219.881992 L450.8853176,219.6615972 L451.9969652,219.4412024 L453.1086128,219.233772 L454.2202604,219.0263416 L455.331908,218.8318756 L456.4435556,218.650374 L457.5552032,218.455908 L458.6668508,218.2744064 L459.7784984,218.1058692 L460.890146,217.937332 L462.0017936,217.7817592 L463.1134412,217.6261864 L464.2250888,217.4706136 L465.3367364,217.3280052 L466.448384,217.1853968 L467.5600316,217.0557528 L468.6716792,216.9261088 L469.7833268,216.8094292 L470.8949744,216.6797852 L472.006622,216.57607 L473.1182696,216.4723548 L474.2299172,216.3686396 L475.3415648,216.2649244 L476.4532124,216.1741736 L477.56486,216.0963872 L478.6765076,216.0186008 L479.7881552,215.9408144 L480.8998028,215.863028 L482.0114504,215.798206 L483.123098,215.7463484 L484.2347456,215.6815264 L485.3463932,215.6426332 L486.4580408,215.5907756 L487.5696884,215.5518824 L488.681336,215.5129892 L489.7929836,215.4870604 L490.9046312,215.4611316 L492.0162788,215.4481672 L493.1279264,215.4352028 L494.239574,215.4222384 L495.3512216,215.4222384 L496.4628692,215.4222384 L497.5745168,215.4222384 L498.6861644,215.4352028 L499.797812,215.4481672 L500.9094596,215.474096 L502.0211072,215.5000248 L503.1327548,215.5259536 L504.2444024,215.5648468 L505.35605,215.60374 L506.4676976,215.6426332 L507.5793452,215.6944908 L508.6909928,215.7593128 L509.8026404,215.8111704 L510.914288,215.8889568 L512.0259356,215.9537788 L513.1375832,216.0315652 L514.2492308,216.1093516 L515.3608784,216.2001024 L516.472526,216.2908532 L517.5841736,216.3945684 L518.6958212,216.4853192 L519.8074688,216.6019988 L520.9191164,216.7186784 L522.030764,216.835358 L523.1424116,216.9520376 L524.2540592,217.0816816 L525.3657068,217.22429 L526.4773544,217.353934 L527.589002,217.5095068 L528.7006496,217.6521152 L529.8122972,217.8206524 L530.9239448,217.9762252 L532.0355924,218.1447624 L533.14724,218.326264 L534.2588876,218.5077656 L535.3705352,218.6892672 L536.4821828,218.8837332 L537.5938304,219.0781992 L538.705478,219.2856296 L539.8171256,219.49306 L540.9287732,219.7134548 L542.0404208,219.9338496 L543.1520684,220.1542444 L544.263716,220.400568 L545.3753636,220.6339272 L546.4870112,220.8802508 L547.5986588,221.1395388 L548.7103064,221.3988268 L549.821954,221.6710792 L550.9336016,221.9433316 L552.0452492,222.2285484 L553.1568968,222.5137652 L554.2685444,222.8119464 L555.380192,223.123092 L556.4918396,223.4342376 L557.6034872,223.7583476 L558.7151348,224.0824576 L559.8267824,224.419532 L560.93843,224.7566064 L562.0500776,225.1066452 L563.1617252,225.4696484 L564.2733728,225.8326516 L565.3850204,226.2086192 L566.496668,226.5975512 L567.6083156,226.9864832 L568.7199632,227.3883796 L569.8316108,227.8032404 L570.9432584,228.2181012 L572.054906,228.6459264 L573.1665536,229.086716 L574.2782012,229.54047 L575.3898488,229.994224 L576.5014964,230.4609424 L577.613144,230.9406252 L578.7247916,231.4332724 L579.8364392,231.938884 L580.9480868,232.4444956 L582.0597344,232.976036 L583.171382,233.5075764 L584.2830296,234.0650456 L585.3946772,234.6225148 L586.5063248,235.1929484 L587.6179724,235.7763464 L588.72962,236.3856732 L589.8412676,236.995 L590.9529152,237.6302556 L592.0645628,238.2655112 L593.1762104,238.9266956 L594.287858,239.6008444 L595.3995056,240.2879576 L596.5111532,240.9880352 L597.6228008,241.7140416 L598.7344484,242.4530124 L599.846096,243.217912 L600.9577436,243.995776 L602.0693912,244.7866044 L603.1810388,245.6033616 L604.2926864,246.4330832 L605.404334,247.2887336 L606.5159816,248.1703128 L607.6276292,249.0778208 L608.7392768,249.9982932 L609.8509244,250.9576588 L610.962572,251.9299888 L612.0742196,252.941212 L613.1858672,253.9653996 L614.2975148,255.0284804 L615.4091624,256.11749 L616.52081,257.2453928 L617.6324576,258.4121888 L618.7441052,259.6049136 L619.8557528,260.8235672 L620.9674004,262.0940784 L622.079048,263.4034828 L623.1906956,264.7647448 L624.3023432,266.1649 L625.4139908,267.6039484 L626.5256384,269.1078188 L627.637286,270.6505824 L628.7489336,272.2711324 L629.8605812,273.9305756 L630.9722288,275.6678052 L632.0838764,277.4828212 L633.195524,279.3626592 L634.3071716,281.3202836 L635.4188192,283.3686588 L636.5304668,285.5207492 L637.6421144,287.7635904 L638.753762,290.1231112 L639.8654096,292.612276 L640.9770572,295.2310848 L642.0887048,297.992502 L643.2003524,300.9224564 L644.312,304.0468768 " fill-rule="evenodd" vector-effect="non-scaling-stroke"/>
                        </g>
                    </g>
                </g>
                <g id="PlotDataItem_3">
                    <g fill="none" fill-rule="evenodd" id="PlotCurveItem_3" stroke="black" stroke-linecap="square" stroke-linejoin="bevel" stroke-width="1">
                        <g fill="none" font-family="MS Shell Dlg 2" font-size="11" font-style="normal" font-weight="400" stroke="#7ea695" stroke-linecap="square" stroke-linejoin="bevel" stroke-opacity="1" stroke-width="1.5">
                            <path d="M88.4882000926,211.4810608 L89.5998476,207.5917408 L90.7114952,203.9746732 L91.8231428,200.6168936 L92.9347904,197.45358 L94.046438,194.4847324 L95.1580856,191.6973864 L96.2697332,189.0526488 L97.3813808,186.5505196 L98.4930284,184.16507 L99.604676,181.8963 L100.7163236,179.7442096 L101.8279712,177.68287 L102.9396188,175.6993168 L104.0512664,173.8065144 L105.162914,171.9914984 L106.2745616,170.2542688 L107.3862092,168.5818612 L108.4978568,166.9613112 L109.6095044,165.4055832 L110.721152,163.9017128 L111.8327996,162.4497 L112.9444472,161.0495448 L114.0560948,159.7012472 L115.1677424,158.3918428 L116.27939,157.1213316 L117.3910376,155.8897136 L118.5026852,154.6969888 L119.6143328,153.5301928 L120.7259804,152.4152544 L121.837628,151.3262448 L122.9492756,150.263164 L124.0609232,149.2389764 L125.1725708,148.2277532 L126.2842184,147.2554232 L127.395866,146.309022 L128.5075136,145.3885496 L129.6191612,144.494006 L130.7308088,143.6124268 L131.8424564,142.7567764 L132.954104,141.9270548 L134.0657516,141.123262 L135.1773992,140.3324336 L136.2890468,139.5545696 L137.4006944,138.8026344 L138.512342,138.076628 L139.6239896,137.3506216 L140.7356372,136.650544 L141.8472848,135.9763952 L142.9589324,135.3022464 L144.07058,134.6540264 L145.1822276,134.0187708 L146.2938752,133.3964796 L147.4055228,132.8001172 L148.5171704,132.2037548 L149.628818,131.6203568 L150.7404656,131.0628876 L151.8521132,130.5054184 L152.9637608,129.9609136 L154.0754084,129.4423376 L155.187056,128.9237616 L156.2987036,128.41815 L157.4103512,127.9255028 L158.5219988,127.44582 L159.6336464,126.9791016 L160.745294,126.5123832 L161.8569416,126.0715936 L162.9685892,125.630804 L164.0802368,125.2029788 L165.1918844,124.7751536 L166.303532,124.3732572 L167.4151796,123.9713608 L168.5268272,123.5824288 L169.6384748,123.1934968 L170.7501224,122.8304936 L171.86177,122.4674904 L172.9734176,122.1044872 L174.0850652,121.7674128 L175.1967128,121.417374 L176.3083604,121.093264 L177.420008,120.769154 L178.5316556,120.4580084 L179.6433032,120.1468628 L180.7549508,119.8486816 L181.8665984,119.5634648 L182.978246,119.278248 L184.0898936,119.0059956 L185.2015412,118.7337432 L186.3131888,118.4744552 L187.4248364,118.2151672 L188.536484,117.9688436 L189.6481316,117.7354844 L190.7597792,117.5021252 L191.8714268,117.268766 L192.9830744,117.0483712 L194.094722,116.8409408 L195.2063696,116.6335104 L196.3180172,116.42608 L197.4296648,116.231614 L198.5413124,116.0501124 L199.65296,115.8686108 L200.7646076,115.6871092 L201.8762552,115.518572 L202.9879028,115.3629992 L204.0995504,115.2074264 L205.211198,115.0518536 L206.3228456,114.9092452 L207.4344932,114.7666368 L208.5461408,114.6369928 L209.6577884,114.5073488 L210.769436,114.3906692 L211.8810836,114.2739896 L212.9927312,114.15731 L214.1043788,114.0535948 L215.2160264,113.962844 L216.327674,113.8591288 L217.4393216,113.7813424 L218.5509692,113.6905916 L219.6626168,113.6257696 L220.7742644,113.5479832 L221.885912,113.4831612 L222.9975596,113.4183392 L224.1092072,113.3664816 L225.2208548,113.3275884 L226.3325024,113.2757308 L227.44415,113.2368376 L228.5557976,113.2109088 L229.6674452,113.18498 L230.7790928,113.1590512 L231.8907404,113.1460868 L233.002388,113.1331224 L234.1140356,113.1331224 L235.2256832,113.1331224 L236.3373308,113.1331224 L237.4489784,113.1460868 L238.560626,113.1590512 L239.6722736,113.18498 L240.7839212,113.2109088 L241.8955688,113.2368376 L243.0072164,113.2757308 L244.118864,113.3275884 L245.2305116,113.379446 L246.3421592,113.4313036 L247.4538068,113.4831612 L248.5654544,113.5479832 L249.677102,113.6257696 L250.7887496,113.703556 L251.9003972,113.7813424 L253.0120448,113.8720932 L254.1236924,113.962844 L255.23534,114.0665592 L256.3469876,114.1702744 L257.4586352,114.2739896 L258.5702828,114.3906692 L259.6819304,114.5073488 L260.793578,114.6369928 L261.9052256,114.7796012 L263.0168732,114.9092452 L264.1285208,115.064818 L265.2401684,115.2074264 L266.351816,115.3629992 L267.4634636,115.5315364 L268.5751112,115.7000736 L269.6867588,115.8686108 L270.7984064,116.0630768 L271.910054,116.2445784 L273.0217016,116.4390444 L274.1333492,116.6335104 L275.2449968,116.8409408 L276.3566444,117.0613356 L277.468292,117.2817304 L278.5799396,117.5021252 L279.6915872,117.7484488 L280.8032348,117.981808 L281.9148824,118.2281316 L283.02653,118.4874196 L284.1381776,118.7467076 L285.2498252,119.01896 L286.3614728,119.2912124 L287.4731204,119.5764292 L288.584768,119.861646 L289.6964156,120.1598272 L290.8080632,120.4709728 L291.9197108,120.7821184 L293.0313584,121.1062284 L294.143006,121.4433028 L295.2546536,121.7803772 L296.3663012,122.130416 L297.4779488,122.4804548 L298.5895964,122.843458 L299.701244,123.2194256 L300.8128916,123.5953932 L301.9245392,123.9843252 L303.0361868,124.3862216 L304.1478344,124.8010824 L305.259482,125.2159432 L306.3711296,125.6437684 L307.4827772,126.084558 L308.5944248,126.538312 L309.7060724,126.992066 L310.81772,127.4717488 L311.9293676,127.9514316 L313.0410152,128.4440788 L314.1526628,128.9496904 L315.2643104,129.4682664 L316.375958,129.9868424 L317.4876056,130.5313472 L318.5992532,131.0888164 L319.7109008,131.6462856 L320.8225484,132.2296836 L321.934196,132.826046 L323.0458436,133.4353728 L324.1574912,134.0446996 L325.2691388,134.6799552 L326.3807864,135.3411396 L327.492434,136.002324 L328.6040816,136.6894372 L329.7157292,137.3895148 L330.8273768,138.1025568 L331.9390244,138.8415276 L333.050672,139.5934628 L334.1623196,140.3583624 L335.2739672,141.1491908 L336.3856148,141.965948 L337.4972624,142.7956696 L338.60891,143.65132 L339.7205576,144.5199348 L340.8322052,145.4274428 L341.9438528,146.3479152 L343.0555004,147.2943164 L344.167148,148.2796108 L345.2787956,149.2778696 L346.3904432,150.3020572 L347.5020908,151.365138 L348.6137384,152.4541476 L349.725386,153.5820504 L350.8370336,154.7488464 L351.9486812,155.9415712 L353.0603288,157.1731892 L354.1719764,158.4437004 L355.283624,159.7531048 L356.3952716,161.1143668 L357.5069192,162.514522 L358.6185668,163.9665348 L359.7302144,165.4704052 L360.841862,167.0261332 L361.9535096,168.6466832 L363.0651572,170.3190908 L364.1768048,172.0692848 L365.2884524,173.8843008 L366.4001,175.7771032 L367.5117476,173.8972652 L368.6233952,172.0822492 L369.7350428,170.3450196 L370.8466904,168.672612 L371.958338,167.052062 L373.0699856,165.5092984 L374.1816332,164.005428 L375.2932808,162.5663796 L376.4049284,161.1662244 L377.516576,159.8049624 L378.6282236,158.495558 L379.7398712,157.2380112 L380.8515188,156.0063932 L381.9631664,154.8136684 L383.074814,153.6598368 L384.1864616,152.5448984 L385.2981092,151.4558888 L386.4097568,150.392808 L387.5214044,149.3686204 L388.633052,148.3703616 L389.7446996,147.3980316 L390.8563472,146.4516304 L391.9679948,145.531158 L393.0796424,144.6366144 L394.19129,143.7550352 L395.3029376,142.9123492 L396.4145852,142.0826276 L397.5262328,141.2658704 L398.6378804,140.475042 L399.749528,139.7101424 L400.8611756,138.9582072 L401.9728232,138.2322008 L403.0844708,137.5191588 L404.1961184,136.8190812 L405.307766,136.131968 L406.4194136,135.4707836 L407.5310612,134.8225636 L408.6427088,134.187308 L409.7543564,133.5650168 L410.866004,132.9686544 L411.9776516,132.372292 L413.0892992,131.8018584 L414.2009468,131.2314248 L415.3125944,130.68692 L416.424242,130.1424152 L417.5358896,129.6108748 L418.6475372,129.1052632 L419.7591848,128.5996516 L420.8708324,128.1070044 L421.98248,127.6273216 L423.0941276,127.1606032 L424.2057752,126.7068492 L425.3174228,126.2530952 L426.4290704,125.8123056 L427.540718,125.3844804 L428.6523656,124.9696196 L429.7640132,124.5677232 L430.8756608,124.1658268 L431.9873084,123.7768948 L433.098956,123.4009272 L434.2106036,123.0249596 L435.3222512,122.6619564 L436.4338988,122.3119176 L437.5455464,121.9618788 L438.657194,121.6248044 L439.7688416,121.3006944 L440.8804892,120.9765844 L441.9921368,120.6654388 L443.1037844,120.3672576 L444.215432,120.0690764 L445.3270796,119.7708952 L446.4387272,119.4986428 L447.5503748,119.213426 L448.6620224,118.954138 L449.77367,118.69485 L450.8853176,118.435562 L451.9969652,118.1892384 L453.1086128,117.9558792 L454.2202604,117.72252 L455.331908,117.5021252 L456.4435556,117.2817304 L457.5552032,117.0613356 L458.6668508,116.8668696 L459.7784984,116.6594392 L460.890146,116.4649732 L462.0017936,116.2834716 L463.1134412,116.10197 L464.2250888,115.9334328 L465.3367364,115.7648956 L466.448384,115.5963584 L467.5600316,115.4407856 L468.6716792,115.2981772 L469.7833268,115.1555688 L470.8949744,115.0129604 L472.006622,114.8833164 L473.1182696,114.7536724 L474.2299172,114.6369928 L475.3415648,114.5203132 L476.4532124,114.416598 L477.56486,114.3128828 L478.6765076,114.222132 L479.7881552,114.1313812 L480.8998028,114.0406304 L482.0114504,113.962844 L483.123098,113.8850576 L484.2347456,113.8202356 L485.3463932,113.7554136 L486.4580408,113.703556 L487.5696884,113.6516984 L488.681336,113.5998408 L489.7929836,113.5609476 L490.9046312,113.5220544 L492.0162788,113.4961256 L493.1279264,113.4701968 L494.239574,113.444268 L495.3512216,113.4313036 L496.4628692,113.4313036 L497.5745168,113.4183392 L498.6861644,113.4313036 L499.797812,113.4313036 L500.9094596,113.444268 L502.0211072,113.4701968 L503.1327548,113.4831612 L504.2444024,113.5220544 L505.35605,113.5479832 L506.4676976,113.5998408 L507.5793452,113.638734 L508.6909928,113.6905916 L509.8026404,113.7424492 L510.914288,113.8072712 L512.0259356,113.8850576 L513.1375832,113.9498796 L514.2492308,114.027666 L515.3608784,114.1184168 L516.472526,114.2091676 L517.5841736,114.2999184 L518.6958212,114.4036336 L519.8074688,114.5073488 L520.9191164,114.6240284 L522.030764,114.740708 L523.1424116,114.870352 L524.2540592,114.999996 L525.3657068,115.12964 L526.4773544,115.2722484 L527.589002,115.4278212 L528.7006496,115.583394 L529.8122972,115.7389668 L530.9239448,115.907504 L532.0355924,116.0760412 L533.14724,116.2575428 L534.2588876,116.4390444 L535.3705352,116.6335104 L536.4821828,116.8279764 L537.5938304,117.0354068 L538.705478,117.2428372 L539.8171256,117.463232 L540.9287732,117.6965912 L542.0404208,117.916986 L543.1520684,118.1633096 L544.263716,118.4096332 L545.3753636,118.6559568 L546.4870112,118.9152448 L547.5986588,119.1874972 L548.7103064,119.4597496 L549.821954,119.732002 L550.9336016,120.0301832 L552.0452492,120.3154 L553.1568968,120.6265456 L554.2685444,120.9376912 L555.380192,121.2488368 L556.4918396,121.5859112 L557.6034872,121.9229856 L558.7151348,122.26006 L559.8267824,122.6100988 L560.93843,122.973102 L562.0500776,123.3490696 L563.1617252,123.7250372 L564.2733728,124.1139692 L565.3850204,124.5158656 L566.496668,124.917762 L567.6083156,125.3326228 L568.7199632,125.760448 L569.8316108,126.2012376 L570.9432584,126.6420272 L572.054906,127.0957812 L573.1665536,127.5624996 L574.2782012,128.0421824 L575.3898488,128.5348296 L576.5014964,129.0404412 L577.613144,129.5460528 L578.7247916,130.0775932 L579.8364392,130.6091336 L580.9480868,131.1536384 L582.0597344,131.724072 L583.171382,132.2945056 L584.2830296,132.890868 L585.3946772,133.4872304 L586.5063248,134.1095216 L587.6179724,134.7318128 L588.72962,135.3800328 L589.8412676,136.0412172 L590.9529152,136.7283304 L592.0645628,137.4154436 L593.1762104,138.1284856 L594.287858,138.8674564 L595.3995056,139.6064272 L596.5111532,140.3713268 L597.6228008,141.1621552 L598.7344484,141.965948 L599.846096,142.7956696 L600.9577436,143.6383556 L602.0693912,144.5199348 L603.1810388,145.4144784 L604.2926864,146.3219864 L605.404334,147.2683876 L606.5159816,148.2407176 L607.6276292,149.2389764 L608.7392768,150.263164 L609.8509244,151.3132804 L610.962572,152.40229 L612.0742196,153.5172284 L613.1858672,154.6580956 L614.2975148,155.8508204 L615.4091624,157.069474 L616.52081,158.3399852 L617.6324576,159.6364252 L618.7441052,160.9847228 L619.8557528,162.3719136 L620.9674004,163.810962 L622.079048,165.3148324 L623.1906956,166.857596 L624.3023432,168.4651816 L625.4139908,170.1246248 L626.5256384,171.8618544 L627.637286,173.663906 L628.7489336,175.5307796 L629.8605812,177.5013684 L630.9722288,179.5367792 L632.0838764,181.6888696 L633.195524,183.9317108 L634.3071716,186.2912316 L635.4188192,188.767432 L636.5304668,191.3862408 L637.6421144,194.1606224 L638.753762,197.0905768 L639.8654096,200.2149972 L640.9770572,203.5338836 L642.0887048,207.112058 L643.2003524,210.9495204 L644.312,215.0981284 " fill-rule="evenodd" vector-effect="non-scaling-stroke"/>
                        </g>
                    </g>
                </g>
                <g id="PlotDataItem_4">
                    <g fill="none" fill-rule="evenodd" id="PlotCurveItem_4" stroke="black" stroke-linecap="square" stroke-linejoin="bevel" stroke-width="1">
                        <g fill="none" font-family="MS Shell Dlg 2" font-size="11" font-style="normal" font-weight="400" stroke="#8a7c91" stroke-linecap="square" stroke-linejoin="bevel" stroke-opacity="1" stroke-width="1.5">
                            <path d="M88.4882000926,201.3040068 L89.5998476,196.4682856 L90.7114952,192.0474252 L91.8231428,187.9766036 L92.9347904,184.2169276 L94.046438,180.7165396 L95.1580856,177.4495108 L96.2697332,174.376948 L97.3813808,171.4858868 L98.4930284,168.7633628 L99.604676,166.1834472 L100.7163236,163.74614 L101.8279712,161.412548 L102.9396188,159.2086 L104.0512664,157.0954028 L105.162914,155.0729564 L106.2745616,153.1412608 L107.3862092,151.2873516 L108.4978568,149.5112288 L109.6095044,147.799928 L110.721152,146.1534492 L111.8327996,144.5717924 L112.9444472,143.0549576 L114.0560948,141.577016 L115.1677424,140.150932 L116.27939,138.7767056 L117.3910376,137.4543368 L118.5026852,136.1708612 L119.6143328,134.9262788 L120.7259804,133.7205896 L121.837628,132.5408292 L122.9492756,131.4129264 L124.0609232,130.3109524 L125.1725708,129.2349072 L126.2842184,128.1977552 L127.395866,127.186532 L128.5075136,126.214202 L129.6191612,125.2548364 L130.7308088,124.3213996 L131.8424564,123.426856 L132.954104,122.5452768 L134.0657516,121.676662 L135.1773992,120.8469404 L136.2890468,120.0301832 L137.4006944,119.2393548 L138.512342,118.4614908 L139.6239896,117.7095556 L140.7356372,116.9835492 L141.8472848,116.2575428 L142.9589324,115.5574652 L144.07058,114.8833164 L145.1822276,114.2091676 L146.2938752,113.5609476 L147.4055228,112.925692 L148.5171704,112.3034008 L149.628818,111.694074 L150.7404656,111.110676 L151.8521132,110.527278 L152.9637608,109.9698088 L154.0754084,109.4123396 L155.187056,108.8807992 L156.2987036,108.3622232 L157.4103512,107.8436472 L158.5219988,107.3380356 L159.6336464,106.8583528 L160.745294,106.37867 L161.8569416,105.9119516 L162.9685892,105.4581976 L164.0802368,105.0044436 L165.1918844,104.5766184 L166.303532,104.1487932 L167.4151796,103.7339324 L168.5268272,103.332036 L169.6384748,102.943104 L170.7501224,102.554172 L171.86177,102.1782044 L172.9734176,101.8152012 L174.0850652,101.452198 L175.1967128,101.1021592 L176.3083604,100.7650848 L177.420008,100.4280104 L178.5316556,100.1168648 L179.6433032,99.7927548 L180.7549508,99.4945736 L181.8665984,99.1963924 L182.978246,98.8982112 L184.0898936,98.6129944 L185.2015412,98.340742 L186.3131888,98.0684896 L187.4248364,97.8092016 L188.536484,97.562878 L189.6481316,97.3165544 L190.7597792,97.0702308 L191.8714268,96.849836 L192.9830744,96.6164768 L194.094722,96.4090464 L195.2063696,96.1886516 L196.3180172,95.9941856 L197.4296648,95.7867552 L198.5413124,95.6052536 L199.65296,95.423752 L200.7646076,95.2422504 L201.8762552,95.0737132 L202.9879028,94.905176 L204.0995504,94.7496032 L205.211198,94.5940304 L206.3228456,94.451422 L207.4344932,94.3088136 L208.5461408,94.1791696 L209.6577884,94.0495256 L210.769436,93.932846 L211.8810836,93.8161664 L212.9927312,93.7124512 L214.1043788,93.608736 L215.2160264,93.5050208 L216.327674,93.41427 L217.4393216,93.3364836 L218.5509692,93.2457328 L219.6626168,93.1809108 L220.7742644,93.1160888 L221.885912,93.0512668 L222.9975596,92.9864448 L224.1092072,92.9475516 L225.2208548,92.895694 L226.3325024,92.8568008 L227.44415,92.830872 L228.5557976,92.8049432 L229.6674452,92.7790144 L230.7790928,92.76605 L231.8907404,92.7530856 L233.002388,92.7401212 L234.1140356,92.7530856 L235.2256832,92.7530856 L236.3373308,92.76605 L237.4489784,92.7790144 L238.560626,92.8049432 L239.6722736,92.830872 L240.7839212,92.8697652 L241.8955688,92.9086584 L243.0072164,92.960516 L244.118864,93.0123736 L245.2305116,93.0642312 L246.3421592,93.1290532 L247.4538068,93.2068396 L248.5654544,93.284626 L249.677102,93.3624124 L250.7887496,93.4531632 L251.9003972,93.543914 L253.0120448,93.6346648 L254.1236924,93.73838 L255.23534,93.8550596 L256.3469876,93.9717392 L257.4586352,94.0884188 L258.5702828,94.2180628 L259.6819304,94.3606712 L260.793578,94.5032796 L261.9052256,94.645888 L263.0168732,94.8014608 L264.1285208,94.9570336 L265.2401684,95.1255708 L266.351816,95.3070724 L267.4634636,95.4756096 L268.5751112,95.6700756 L269.6867588,95.8645416 L270.7984064,96.0590076 L271.910054,96.266438 L273.0217016,96.4738684 L274.1333492,96.6942632 L275.2449968,96.9276224 L276.3566444,97.1609816 L277.468292,97.3943408 L278.5799396,97.6536288 L279.6915872,97.8999524 L280.8032348,98.1722048 L281.9148824,98.4314928 L283.02653,98.7167096 L284.1381776,99.0019264 L285.2498252,99.3001076 L286.3614728,99.5982888 L287.4731204,99.9094344 L288.584768,100.22058 L289.6964156,100.54469 L290.8080632,100.8817644 L291.9197108,101.2318032 L293.0313584,101.581842 L294.143006,101.9448452 L295.2546536,102.3078484 L296.3663012,102.683816 L297.4779488,103.072748 L298.5895964,103.4746444 L299.701244,103.8765408 L300.8128916,104.304366 L301.9245392,104.7321912 L303.0361868,105.1600164 L304.1478344,105.6137704 L305.259482,106.0675244 L306.3711296,106.5472072 L307.4827772,107.02689 L308.5944248,107.5195372 L309.7060724,108.0251488 L310.81772,108.5437248 L311.9293676,109.0623008 L313.0410152,109.6068056 L314.1526628,110.1642748 L315.2643104,110.7347084 L316.375958,111.3181064 L317.4876056,111.9144688 L318.5992532,112.5237956 L319.7109008,113.1460868 L320.8225484,113.7813424 L321.934196,114.4425268 L323.0458436,115.1166756 L324.1574912,115.8037888 L325.2691388,116.5038664 L326.3807864,117.2298728 L327.492434,117.9688436 L328.6040816,118.7337432 L329.7157292,119.5116072 L330.8273768,120.3154 L331.9390244,121.1321572 L333.050672,121.9748432 L334.1623196,122.843458 L335.2739672,123.7380016 L336.3856148,124.6455096 L337.4972624,125.5919108 L338.60891,126.5512764 L339.7205576,127.5365708 L340.8322052,128.5607584 L341.9438528,129.6108748 L343.0555004,130.68692 L344.167148,131.8018584 L345.2787956,132.95569 L346.3904432,134.1354504 L347.5020908,135.354104 L348.6137384,136.6116508 L349.725386,137.9080908 L350.8370336,139.2563884 L351.9486812,140.6435792 L353.0603288,142.0826276 L354.1719764,143.5735336 L355.283624,145.1292616 L356.3952716,146.7238828 L357.5069192,148.3962904 L358.6185668,150.13352 L359.7302144,151.9355716 L360.841862,153.8154096 L361.9535096,155.773034 L363.0651572,157.8214092 L364.1768048,159.9734996 L365.2884524,162.2163408 L366.4001,164.588826 L367.5117476,162.2293052 L368.6233952,159.986464 L369.7350428,157.847338 L370.8466904,155.8119272 L371.958338,153.8543028 L373.0699856,151.9744648 L374.1816332,150.1853776 L375.2932808,148.448148 L376.4049284,146.7887048 L377.516576,145.1940836 L378.6282236,143.65132 L379.7398712,142.160414 L380.8515188,140.73433 L381.9631664,139.3471392 L383.074814,137.9988416 L384.1864616,136.7024016 L385.2981092,135.4448548 L386.4097568,134.2391656 L387.5214044,133.0594052 L388.633052,131.9055736 L389.7446996,130.8035996 L390.8563472,129.7275544 L391.9679948,128.677438 L393.0796424,127.6662148 L394.19129,126.667956 L395.3029376,125.7085904 L396.4145852,124.7751536 L397.5262328,123.8676456 L398.6378804,122.973102 L399.749528,122.1174516 L400.8611756,121.2747656 L401.9728232,120.4580084 L403.0844708,119.6542156 L404.1961184,118.8763516 L405.307766,118.1244164 L406.4194136,117.3854456 L407.5310612,116.6594392 L408.6427088,115.9593616 L409.7543564,115.2722484 L410.866004,114.5980996 L411.9776516,113.9498796 L413.0892992,113.3016596 L414.2009468,112.6793684 L415.3125944,112.0700416 L416.424242,111.4866436 L417.5358896,110.9032456 L418.6475372,110.332812 L419.7591848,109.7883072 L420.8708324,109.2438024 L421.98248,108.712262 L423.0941276,108.193686 L424.2057752,107.7010388 L425.3174228,107.2083916 L426.4290704,106.7287088 L427.540718,106.2619904 L428.6523656,105.795272 L429.7640132,105.3544824 L430.8756608,104.9136928 L431.9873084,104.4858676 L433.098956,104.0710068 L434.2106036,103.6691104 L435.3222512,103.2801784 L436.4338988,102.8912464 L437.5455464,102.5152788 L438.657194,102.1393112 L439.7688416,101.7892724 L440.8804892,101.4392336 L441.9921368,101.0891948 L443.1037844,100.7650848 L444.215432,100.4409748 L445.3270796,100.1168648 L446.4387272,99.8057192 L447.5503748,99.507538 L448.6620224,99.2223212 L449.77367,98.9371044 L450.8853176,98.664852 L451.9969652,98.3925996 L453.1086128,98.1333116 L454.2202604,97.8740236 L455.331908,97.6277 L456.4435556,97.3943408 L457.5552032,97.1609816 L458.6668508,96.9405868 L459.7784984,96.720192 L460.890146,96.4997972 L462.0017936,96.3053312 L463.1134412,96.1108652 L464.2250888,95.9163992 L465.3367364,95.7348976 L466.448384,95.553396 L467.5600316,95.3848588 L468.6716792,95.2163216 L469.7833268,95.0607488 L470.8949744,94.905176 L472.006622,94.7625676 L473.1182696,94.6199592 L474.2299172,94.4903152 L475.3415648,94.3606712 L476.4532124,94.2439916 L477.56486,94.127312 L478.6765076,94.0235968 L479.7881552,93.9198816 L480.8998028,93.8161664 L482.0114504,93.7254156 L483.123098,93.6476292 L484.2347456,93.5568784 L485.3463932,93.4920564 L486.4580408,93.4272344 L487.5696884,93.3624124 L488.681336,93.3105548 L489.7929836,93.2586972 L490.9046312,93.2068396 L492.0162788,93.1679464 L493.1279264,93.1420176 L494.239574,93.1160888 L495.3512216,93.09016 L496.4628692,93.0771956 L497.5745168,93.0642312 L498.6861644,93.0642312 L499.797812,93.0642312 L500.9094596,93.0771956 L502.0211072,93.09016 L503.1327548,93.1031244 L504.2444024,93.1290532 L505.35605,93.154982 L506.4676976,93.1938752 L507.5793452,93.2327684 L508.6909928,93.284626 L509.8026404,93.3364836 L510.914288,93.4013056 L512.0259356,93.4661276 L513.1375832,93.5309496 L514.2492308,93.608736 L515.3608784,93.6865224 L516.472526,93.7772732 L517.5841736,93.868024 L518.6958212,93.9717392 L519.8074688,94.0754544 L520.9191164,94.192134 L522.030764,94.3088136 L523.1424116,94.4384576 L524.2540592,94.5681016 L525.3657068,94.6977456 L526.4773544,94.840354 L527.589002,94.9959268 L528.7006496,95.1514996 L529.8122972,95.3070724 L530.9239448,95.4756096 L532.0355924,95.6571112 L533.14724,95.8386128 L534.2588876,96.0201144 L535.3705352,96.2145804 L536.4821828,96.4220108 L537.5938304,96.6294412 L538.705478,96.8368716 L539.8171256,97.0702308 L540.9287732,97.2906256 L542.0404208,97.5239848 L543.1520684,97.7703084 L544.263716,98.016632 L545.3753636,98.27592 L546.4870112,98.5481724 L547.5986588,98.8204248 L548.7103064,99.1056416 L549.821954,99.3908584 L550.9336016,99.6890396 L552.0452492,99.9872208 L553.1568968,100.2983664 L554.2685444,100.6224764 L555.380192,100.9465864 L556.4918396,101.2836608 L557.6034872,101.6336996 L558.7151348,101.9837384 L559.8267824,102.359706 L560.93843,102.7227092 L562.0500776,103.1116412 L563.1617252,103.5005732 L564.2733728,103.9024696 L565.3850204,104.3173304 L566.496668,104.7321912 L567.6083156,105.1729808 L568.7199632,105.6137704 L569.8316108,106.0675244 L570.9432584,106.5212784 L572.054906,107.0009612 L573.1665536,107.4936084 L574.2782012,107.9862556 L575.3898488,108.4918672 L576.5014964,109.0234076 L577.613144,109.554948 L578.7247916,110.0994528 L579.8364392,110.656922 L580.9480868,111.24032 L582.0597344,111.823718 L583.171382,112.4200804 L584.2830296,113.0423716 L585.3946772,113.6776272 L586.5063248,114.3258472 L587.6179724,114.9870316 L588.72962,115.6611804 L589.8412676,116.361258 L590.9529152,117.0743 L592.0645628,117.8003064 L593.1762104,118.5522416 L594.287858,119.3301056 L595.3995056,120.120934 L596.5111532,120.9247268 L597.6228008,121.7544484 L598.7344484,122.6100988 L599.846096,123.491678 L600.9577436,124.3862216 L602.0693912,125.306694 L603.1810388,126.2660596 L604.2926864,127.2383896 L605.404334,128.2366484 L606.5159816,129.2738004 L607.6276292,130.3368812 L608.7392768,131.4388552 L609.8509244,132.566758 L610.962572,133.733554 L612.0742196,134.9262788 L613.1858672,136.1708612 L614.2975148,137.4543368 L615.4091624,138.7767056 L616.52081,140.1379676 L617.6324576,141.5510872 L618.7441052,143.0160644 L619.8557528,144.5328992 L620.9674004,146.1015916 L622.079048,147.735106 L623.1906956,149.4334424 L624.3023432,151.2095652 L625.4139908,153.05051 L626.5256384,154.9692412 L627.637286,156.9657588 L628.7489336,159.0659916 L629.8605812,161.2699396 L630.9722288,163.5776028 L632.0838764,166.0019456 L633.195524,168.5559324 L634.3071716,171.2525276 L635.4188192,174.11766 L636.5304668,177.164294 L637.6421144,180.405394 L638.753762,183.8668888 L639.8654096,187.5876716 L640.9770572,191.6066356 L642.0887048,195.9756384 L643.2003524,200.7465376 L644.312,205.9971196 " fill-rule="evenodd" vector-effect="non-scaling-stroke"/>
                        </g>
                    </g>
                </g>
                <g id="PlotDataItem_5"/>
                <g id="PlotDataItem_6"/>
                <g id="PlotDataItem_7"/>
                <g id="PlotDataItem_8"/>
                <g id="PlotDataItem_9"/>
                <g id="PlotDataItem_10"/>
                <g id="PlotDataItem_11"/>
                <g id="PlotDataItem_12"/>
                <g id="PlotDataItem_13"/>
                <g id="PlotDataItem_14"/>
            </g>
            <g fill="none" fill-rule="evenodd" id="LegendItem_1" stroke="black" stroke-linecap="square" stroke-linejoin="bevel" stroke-width="1">
                <g fill="#646464" fill-opacity="0.196078" font-family="MS Shell Dlg 2" font-size="11" font-style="normal" font-weight="400" stroke="#ffffff" stroke-linecap="square" stroke-linejoin="bevel" stroke-opacity="0.392157" stroke-width="1">
                    <path d="M94.8,61.0 L189.8,61.0 L189.8,262.0 L94.8,262.0 L94.8,61.0 " fill-rule="evenodd" vector-effect="non-scaling-stroke"/>
                </g>
                <g fill="none" fill-rule="evenodd" id="ItemSample_1" stroke="black" stroke-linecap="square" stroke-linejoin="bevel" stroke-width="1">
                    <g fill="none" font-family="MS Shell Dlg 2" font-size="11" font-style="normal" font-weight="400" stroke="#ed815e" stroke-linecap="square" stroke-linejoin="bevel" stroke-opacity="1" stroke-width="1.5">
                        <polyline fill="none" points="105.8,88.0 121.8,72.0" vector-effect="non-scaling-stroke"/>
                    </g>
                </g>
                <g fill="none" fill-rule="evenodd" id="LabelItem_1" stroke="black" stroke-linecap="square" stroke-linejoin="bevel" stroke-width="1">
                    <g fill="none" fill-rule="evenodd" id="QGraphicsTextItem_3" stroke="black" stroke-linecap="square" stroke-linejoin="bevel" stroke-width="1">
                        


                        


                        <g fill="none" font-family="MS Shell Dlg 2" font-size="11" font-style="normal" font-weight="400" stroke="#969696" stroke-linecap="square" stroke-linejoin="bevel" stroke-opacity="1" stroke-width="1" transform="matrix(1,0,0,1,136.3,70)">
                            <text fill="#969696" fill-opacity="1" font-family="&quot;MS Shell Dlg 2&quot;, sans-serif" font-size="11" font-style="normal" font-weight="400" stroke="none" x="4" xml:space="preserve" y="15">H2</text>
                        </g>
                        


                        

                    </g>
                </g>
                <g fill="none" fill-rule="evenodd" id="ItemSample_2" stroke="black" stroke-linecap="square" stroke-linejoin="bevel" stroke-width="1">
                    <g fill="none" font-family="MS Shell Dlg 2" font-size="11" font-style="normal" font-weight="400" stroke="#c7b069" stroke-linecap="square" stroke-linejoin="bevel" stroke-opacity="1" stroke-width="1.5">
                        <polyline fill="none" points="105.8,115.0 121.8,99.0" vector-effect="non-scaling-stroke"/>
                    </g>
                </g>
                <g fill="none" fill-rule="evenodd" id="LabelItem_2" stroke="black" stroke-linecap="square" stroke-linejoin="bevel" stroke-width="1">
                    <g fill="none" fill-rule="evenodd" id="QGraphicsTextItem_4" stroke="black" stroke-linecap="square" stroke-linejoin="bevel" stroke-width="1">
                        


                        


                        <g fill="none" font-family="MS Shell Dlg 2" font-size="11" font-style="normal" font-weight="400" stroke="#969696" stroke-linecap="square" stroke-linejoin="bevel" stroke-opacity="1" stroke-width="1" transform="matrix(1,0,0,1,132.8,97)">
                            <text fill="#969696" fill-opacity="1" font-family="&quot;MS Shell Dlg 2&quot;, sans-serif" font-size="11" font-style="normal" font-weight="400" stroke="none" x="4" xml:space="preserve" y="15">CH4</text>
                        </g>
                        


                        

                    </g>
                </g>
                <g fill="none" fill-rule="evenodd" id="ItemSample_3" stroke="black" stroke-linecap="square" stroke-linejoin="bevel" stroke-width="1">
                    <g fill="none" font-family="MS Shell Dlg 2" font-size="11" font-style="normal" font-weight="400" stroke="#7ea695" stroke-linecap="square" stroke-linejoin="bevel" stroke-opacity="1" stroke-width="1.5">
                        <polyline fill="none" points="105.8,142.0 121.8,126.0" vector-effect="non-scaling-stroke"/>
                    </g>
                </g>
                <g fill="none" fill-rule="evenodd" id="LabelItem_3" stroke="black" stroke-linecap="square" stroke-linejoin="bevel" stroke-width="1">
                    <g fill="none" fill-rule="evenodd" id="QGraphicsTextItem_5" stroke="black" stroke-linecap="square" stroke-linejoin="bevel" stroke-width="1">
                        


                        


                        <g fill="none" font-family="MS Shell Dlg 2" font-size="11" font-style="normal" font-weight="400" stroke="#969696" stroke-linecap="square" stroke-linejoin="bevel" stroke-opacity="1" stroke-width="1" transform="matrix(1,0,0,1,135.3,124)">
                            <text fill="#969696" fill-opacity="1" font-family="&quot;MS Shell Dlg 2&quot;, sans-serif" font-size="11" font-style="normal" font-weight="400" stroke="none" x="4" xml:space="preserve" y="15">CO</text>
                        </g>
                        


                        

                    </g>
                </g>
                <g fill="none" fill-rule="evenodd" id="ItemSample_4" stroke="black" stroke-linecap="square" stroke-linejoin="bevel" stroke-width="1">
                    <g fill="none" font-family="MS Shell Dlg 2" font-size="11" font-style="normal" font-weight="400" stroke="#8a7c91" stroke-linecap="square" stroke-linejoin="bevel" stroke-opacity="1" stroke-width="1.5">
                        <polyline fill="none" points="105.8,169.0 121.8,153.0" vector-effect="non-scaling-stroke"/>
                    </g>
                </g>
                <g fill="none" fill-rule="evenodd" id="LabelItem_4" stroke="black" stroke-linecap="square" stroke-linejoin="bevel" stroke-width="1">
                    <g fill="none" fill-rule="evenodd" id="QGraphicsTextItem_6" stroke="black" stroke-linecap="square" stroke-linejoin="bevel" stroke-width="1">
                        


                        


                        <g fill="none" font-family="MS Shell Dlg 2" font-size="11" font-style="normal" font-weight="400" stroke="#969696" stroke-linecap="square" stroke-linejoin="bevel" stroke-opacity="1" stroke-width="1" transform="matrix(1,0,0,1,132.3,151)">
                            <text fill="#969696" fill-opacity="1" font-family="&quot;MS Shell Dlg 2&quot;, sans-serif" font-size="11" font-style="normal" font-weight="400" stroke="none" x="4" xml:space="preserve" y="15">CO2</text>
                        </g>
                        


                        

                    </g>
                </g>
                <g fill="none" fill-rule="evenodd" id="ItemSample_5" stroke="black" stroke-linecap="square" stroke-linejoin="bevel" stroke-width="1">
                    <g fill="none" font-family="MS Shell Dlg 2" font-size="11" font-style="normal" font-weight="400" stroke="#ff2e70" stroke-linecap="square" stroke-linejoin="bevel" stroke-opacity="1" stroke-width="2">
                        <polyline fill="none" points="105.8,196.0 121.8,180.0" vector-effect="non-scaling-stroke"/>
                    </g>
                </g>
                <g fill="none" fill-rule="evenodd" id="LabelItem_5" stroke="black" stroke-linecap="square" stroke-linejoin="bevel" stroke-width="1">
                    <g fill="none" fill-rule="evenodd" id="QGraphicsTextItem_7" stroke="black" stroke-linecap="square" stroke-linejoin="bevel" stroke-width="1">
                        


                        


                        <g fill="none" font-family="MS Shell Dlg 2" font-size="11" font-style="normal" font-weight="400" stroke="#969696" stroke-linecap="square" stroke-linejoin="bevel" stroke-opacity="1" stroke-width="1" transform="matrix(1,0,0,1,112.8,178)">
                            <text fill="#969696" fill-opacity="1" font-family="&quot;MS Shell Dlg 2&quot;, sans-serif" font-size="11" font-style="normal" font-weight="400" stroke="none" x="4" xml:space="preserve" y="15">total density</text>
                        </g>
                        


                        

                    </g>
                </g>
                <g fill="none" fill-rule="evenodd" id="ItemSample_6" stroke="black" stroke-linecap="square" stroke-linejoin="bevel" stroke-width="1">
                    <g fill="none" font-family="MS Shell Dlg 2" font-size="11" font-style="normal" font-weight="400" stroke="none">
                        <polyline fill="none" points="105.8,223.0 121.8,207.0" vector-effect="non-scaling-stroke"/>
                    </g>
                    <g fill="#0000ff" fill-opacity="0.588235" font-family="MS Shell Dlg 2" font-size="11" font-style="normal" font-weight="400" stroke="#ffffff" stroke-linecap="square" stroke-linejoin="bevel" stroke-opacity="0.784314" stroke-width="1">
                        <path d="M116.3,215.0 C116.3,216.38071 115.18071,217.5 113.8,217.5 C112.41929,217.5 111.3,216.38071 111.3,215.0 C111.3,213.61929 112.41929,212.5 113.8,212.5 C115.18071,212.5 116.3,213.61929 116.3,215.0 " fill-rule="evenodd" vector-effect="non-scaling-stroke"/>
                    </g>
                </g>
                <g fill="none" fill-rule="evenodd" id="LabelItem_6" stroke="black" stroke-linecap="square" stroke-linejoin="bevel" stroke-width="1">
                    <g fill="none" fill-rule="evenodd" id="QGraphicsTextItem_8" stroke="black" stroke-linecap="square" stroke-linejoin="bevel" stroke-width="1">
                        


                        


                        <g fill="none" font-family="MS Shell Dlg 2" font-size="11" font-style="normal" font-weight="400" stroke="#969696" stroke-linecap="square" stroke-linejoin="bevel" stroke-opacity="1" stroke-width="1" transform="matrix(1,0,0,1,120.8,205)">
                            <text fill="#969696" fill-opacity="1" font-family="&quot;MS Shell Dlg 2&quot;, sans-serif" font-size="11" font-style="normal" font-weight="400" stroke="none" x="4" xml:space="preserve" y="15">LHC data</text>
                        </g>
                        


                        

                    </g>
                </g>
                <g fill="none" fill-rule="evenodd" id="ItemSample_7" stroke="black" stroke-linecap="square" stroke-linejoin="bevel" stroke-width="1">
                    <g fill="none" font-family="MS Shell Dlg 2" font-size="11" font-style="normal" font-weight="400" stroke="none">
                        <polyline fill="none" points="105.8,250.0 121.8,234.0" vector-effect="non-scaling-stroke"/>
                    </g>
                    <g fill="#0000ff" fill-opacity="0.588235" font-family="MS Shell Dlg 2" font-size="11" font-style="normal" font-weight="400" stroke="#ffffff" stroke-linecap="square" stroke-linejoin="bevel" stroke-opacity="0.784314" stroke-width="1">
                        <path d="M111.3,241.75 L111.3,242.25 L113.55,242.25 L113.55,244.5 L114.05,244.5 L114.05,242.25 L116.3,242.25 L116.3,241.75 L114.05,241.75 L114.05,239.5 L113.55,239.5 L113.55,241.75 L111.3,241.75 " fill-rule="evenodd" vector-effect="non-scaling-stroke"/>
                    </g>
                </g>
                <g fill="none" fill-rule="evenodd" id="LabelItem_7" stroke="black" stroke-linecap="square" stroke-linejoin="bevel" stroke-width="1">
                    <g fill="none" fill-rule="evenodd" id="QGraphicsTextItem_9" stroke="black" stroke-linecap="square" stroke-linejoin="bevel" stroke-width="1">
                        


                        


                        <g fill="none" font-family="MS Shell Dlg 2" font-size="11" font-style="normal" font-weight="400" stroke="#969696" stroke-linecap="square" stroke-linejoin="bevel" stroke-opacity="1" stroke-width="1" transform="matrix(1,0,0,1,120.8,232)">
                            <text fill="#969696" fill-opacity="1" font-family="&quot;MS Shell Dlg 2&quot;, sans-serif" font-size="11" font-style="normal" font-weight="400" stroke="none" x="4" xml:space="preserve" y="15">LHC data</text>
                        </g>
                        


                        

                    </g>
                </g>
            </g>
        </g>
    </g>
    <g fill="none" fill-rule="evenodd" id="LabelItem_8" stroke="black" stroke-linecap="square" stroke-linejoin="bevel" stroke-width="1">
        <g fill="none" fill-rule="evenodd" id="QGraphicsTextItem_10" stroke="black" stroke-linecap="square" stroke-linejoin="bevel" stroke-width="1">
            


            


            <g fill="none" font-family="MS Shell Dlg 2" font-size="11" font-style="normal" font-weight="400" stroke="#969696" stroke-linecap="square" stroke-linejoin="bevel" stroke-opacity="1" stroke-width="1" transform="matrix(1,0,0,1,324.4,3)">
                <text fill="#969696" fill-opacity="1" font-family="&quot;MS Shell Dlg 2&quot;, sans-serif" font-size="14.6667" font-style="normal" font-weight="400" stroke="none" x="4" xml:space="preserve" y="19">Density-Plot</text>
            </g>
            


            

        </g>
    </g>
</g>

</svg>
