<?xml version="1.0" encoding="UTF-8" standalone="no"?>
<svg xmlns="http://www.w3.org/2000/svg" xmlns:xlink="http://www.w3.org/1999/xlink"  version="1.2" baseProfile="tiny">
<title>pyqtgraph SVG export</title>
<desc>Generated with Qt and pyqtgraph</desc>
<defs>
</defs>
<g fill="none" fill-rule="evenodd" id="PlotItem_1" stroke="black" stroke-linecap="square" stroke-linejoin="bevel" stroke-width="1">
    <g fill="none" fill-rule="evenodd" id="AxisItem_1" stroke="black" stroke-linecap="square" stroke-linejoin="bevel" stroke-width="1">
        <g fill="none" font-family="MS Shell Dlg 2" font-size="11" font-style="normal" font-weight="400" stroke="#969696" stroke-linecap="square" stroke-linejoin="bevel" stroke-opacity="1" stroke-width="1">
            <polyline fill="none" points="62.8,335.2 668.0,335.2" vector-effect="non-scaling-stroke"/>
        </g>
        <g fill="none" font-family="MS Shell Dlg 2" font-size="11" font-style="normal" font-weight="400" stroke="#969696" stroke-linecap="square" stroke-linejoin="bevel" stroke-opacity="1" stroke-width="1">
            <polyline fill="none" points="86.7037,335.2 86.7037,330.2" vector-effect="non-scaling-stroke"/>
        </g>
        <g fill="none" font-family="MS Shell Dlg 2" font-size="11" font-style="normal" font-weight="400" stroke="#969696" stroke-linecap="square" stroke-linejoin="bevel" stroke-opacity="0.498039" stroke-width="1">
            <polyline fill="none" points="272.835,335.2 272.835,331.86667" vector-effect="non-scaling-stroke"/>
            <polyline fill="none" points="458.965,335.2 458.965,331.86667" vector-effect="non-scaling-stroke"/>
            <polyline fill="none" points="645.096,335.2 645.096,331.86667" vector-effect="non-scaling-stroke"/>
        </g>
        <g fill="none" font-family="MS Shell Dlg 2" font-size="11" font-style="normal" font-weight="400" stroke="#969696" stroke-linecap="square" stroke-linejoin="bevel" stroke-opacity="0.333333" stroke-width="1">
            <polyline fill="none" points="179.769,335.2 179.769,332.7" vector-effect="non-scaling-stroke"/>
            <polyline fill="none" points="365.9,335.2 365.9,332.7" vector-effect="non-scaling-stroke"/>
            <polyline fill="none" points="552.031,335.2 552.031,332.7" vector-effect="non-scaling-stroke"/>
        </g>
        <g fill="none" font-family="MS Shell Dlg 2" font-size="11" font-style="normal" font-weight="400" stroke="#969696" stroke-linecap="square" stroke-linejoin="bevel" stroke-opacity="1" stroke-width="1" transform="matrix(1,0,0,1,63.3,335.2)">
            <text fill="#969696" fill-opacity="1" font-family="&quot;MS Shell Dlg 2&quot;, sans-serif" font-size="11" font-style="normal" font-weight="400" stroke="none" x="20.3906" xml:space="preserve" y="12">0</text>
            <text fill="#969696" fill-opacity="1" font-family="&quot;MS Shell Dlg 2&quot;, sans-serif" font-size="11" font-style="normal" font-weight="400" stroke="none" x="206.531" xml:space="preserve" y="12">2</text>
            <text fill="#969696" fill-opacity="1" font-family="&quot;MS Shell Dlg 2&quot;, sans-serif" font-size="11" font-style="normal" font-weight="400" stroke="none" x="392.656" xml:space="preserve" y="12">4</text>
            <text fill="#969696" fill-opacity="1" font-family="&quot;MS Shell Dlg 2&quot;, sans-serif" font-size="11" font-style="normal" font-weight="400" stroke="none" x="578.781" xml:space="preserve" y="12">6</text>
            <text fill="#969696" fill-opacity="1" font-family="&quot;MS Shell Dlg 2&quot;, sans-serif" font-size="11" font-style="normal" font-weight="400" stroke="none" x="113.469" xml:space="preserve" y="12">1</text>
            <text fill="#969696" fill-opacity="1" font-family="&quot;MS Shell Dlg 2&quot;, sans-serif" font-size="11" font-style="normal" font-weight="400" stroke="none" x="299.594" xml:space="preserve" y="12">3</text>
            <text fill="#969696" fill-opacity="1" font-family="&quot;MS Shell Dlg 2&quot;, sans-serif" font-size="11" font-style="normal" font-weight="400" stroke="none" x="485.719" xml:space="preserve" y="12">5</text>
        </g>
        <g fill="none" fill-rule="evenodd" id="QGraphicsTextItem_1" stroke="black" stroke-linecap="square" stroke-linejoin="bevel" stroke-width="1">
            


            


            <g fill="none" font-family="MS Shell Dlg 2" font-size="11" font-style="normal" font-weight="400" stroke="#ffffff" stroke-linecap="square" stroke-linejoin="bevel" stroke-opacity="1" stroke-width="1" transform="matrix(1,0,0,1,256.8,353.2)">
                <text fill="#ffffff" fill-opacity="1" font-family="&quot;MS Shell Dlg 2&quot;, sans-serif" font-size="18.6667" font-style="normal" font-weight="400" stroke="none" x="4" xml:space="preserve" y="23">Axis along beam line (m)</text>
            </g>
            


            

        </g>
    </g>
    <g fill="none" fill-rule="evenodd" id="AxisItem_2" stroke="black" stroke-linecap="square" stroke-linejoin="bevel" stroke-width="1">
        <g fill="none" font-family="MS Shell Dlg 2" font-size="11" font-style="normal" font-weight="400" stroke="#969696" stroke-linecap="square" stroke-linejoin="bevel" stroke-opacity="1" stroke-width="1">
            <polyline fill="none" points="62.8,31.0 62.8,335.2" vector-effect="non-scaling-stroke"/>
        </g>
        <g fill="none" font-family="MS Shell Dlg 2" font-size="11" font-style="normal" font-weight="400" stroke="#969696" stroke-linecap="square" stroke-linejoin="bevel" stroke-opacity="1" stroke-width="1">
            <polyline fill="none" points="63.3,289.475 68.3,289.475" vector-effect="non-scaling-stroke"/>
        </g>
        <g fill="none" font-family="MS Shell Dlg 2" font-size="11" font-style="normal" font-weight="400" stroke="#969696" stroke-linecap="square" stroke-linejoin="bevel" stroke-opacity="0.498039" stroke-width="1">
            <polyline fill="none" points="63.3,145.381 66.6333,145.381" vector-effect="non-scaling-stroke"/>
        </g>
        <g fill="none" font-family="MS Shell Dlg 2" font-size="11" font-style="normal" font-weight="400" stroke="#969696" stroke-linecap="square" stroke-linejoin="bevel" stroke-opacity="0.333333" stroke-width="1">
            <polyline fill="none" points="63.3,332.851 65.8,332.851" vector-effect="non-scaling-stroke"/>
            <polyline fill="none" points="63.3,321.441 65.8,321.441" vector-effect="non-scaling-stroke"/>
            <polyline fill="none" points="63.3,311.795 65.8,311.795" vector-effect="non-scaling-stroke"/>
            <polyline fill="none" points="63.3,303.439 65.8,303.439" vector-effect="non-scaling-stroke"/>
            <polyline fill="none" points="63.3,296.068 65.8,296.068" vector-effect="non-scaling-stroke"/>
            <polyline fill="none" points="63.3,289.475 65.8,289.475" vector-effect="non-scaling-stroke"/>
            <polyline fill="none" points="63.3,246.098 65.8,246.098" vector-effect="non-scaling-stroke"/>
            <polyline fill="none" points="63.3,220.725 65.8,220.725" vector-effect="non-scaling-stroke"/>
            <polyline fill="none" points="63.3,202.722 65.8,202.722" vector-effect="non-scaling-stroke"/>
            <polyline fill="none" points="63.3,188.758 65.8,188.758" vector-effect="non-scaling-stroke"/>
            <polyline fill="none" points="63.3,177.348 65.8,177.348" vector-effect="non-scaling-stroke"/>
            <polyline fill="none" points="63.3,167.702 65.8,167.702" vector-effect="non-scaling-stroke"/>
            <polyline fill="none" points="63.3,159.345 65.8,159.345" vector-effect="non-scaling-stroke"/>
            <polyline fill="none" points="63.3,151.975 65.8,151.975" vector-effect="non-scaling-stroke"/>
            <polyline fill="none" points="63.3,145.381 65.8,145.381" vector-effect="non-scaling-stroke"/>
            <polyline fill="none" points="63.3,102.005 65.8,102.005" vector-effect="non-scaling-stroke"/>
            <polyline fill="none" points="63.3,76.6315 65.8,76.6315" vector-effect="non-scaling-stroke"/>
            <polyline fill="none" points="63.3,58.6287 65.8,58.6287" vector-effect="non-scaling-stroke"/>
            <polyline fill="none" points="63.3,44.6646 65.8,44.6646" vector-effect="non-scaling-stroke"/>
            <polyline fill="none" points="63.3,33.25511 65.8,33.25511" vector-effect="non-scaling-stroke"/>
        </g>
        <g fill="none" font-family="MS Shell Dlg 2" font-size="11" font-style="normal" font-weight="400" stroke="#969696" stroke-linecap="square" stroke-linejoin="bevel" stroke-opacity="1" stroke-width="1" transform="matrix(1,0,0,1,1.5,31)">
            <text fill="#969696" fill-opacity="1" font-family="&quot;MS Shell Dlg 2&quot;, sans-serif" font-size="11" font-style="normal" font-weight="400" stroke="none" x="24.7969" xml:space="preserve" y="263.266">1e+04</text>
            <text fill="#969696" fill-opacity="1" font-family="&quot;MS Shell Dlg 2&quot;, sans-serif" font-size="11" font-style="normal" font-weight="400" stroke="none" x="24.7969" xml:space="preserve" y="119.172">1e+05</text>
        </g>
        <g fill="none" fill-rule="evenodd" id="QGraphicsTextItem_2" stroke="black" stroke-linecap="square" stroke-linejoin="bevel" stroke-width="1">
            


            


            <g fill="none" font-family="MS Shell Dlg 2" font-size="11" font-style="normal" font-weight="400" stroke="#ffffff" stroke-linecap="square" stroke-linejoin="bevel" stroke-opacity="1" stroke-width="1" transform="matrix(0,-1,1,0,-4,295)">
                <text fill="#ffffff" fill-opacity="1" font-family="&quot;MS Shell Dlg 2&quot;, sans-serif" font-size="18.6667" font-style="normal" font-weight="400" stroke="none" x="4" xml:space="preserve" y="23">Density (particles per m3)</text>
            </g>
            


            

        </g>
    </g>
    <g fill="none" fill-rule="evenodd" id="ViewBox_1" stroke="black" stroke-linecap="square" stroke-linejoin="bevel" stroke-width="1">
        <g fill="none" font-family="MS Shell Dlg 2" font-size="11" font-style="normal" font-weight="400" stroke="none">
            <path d="M62.8,31.0 L668.0,31.0 L668.0,335.2 L62.8,335.2 L62.8,31.0 " fill-rule="evenodd" vector-effect="non-scaling-stroke"/>
        </g>
        <clipPath id="ViewBox_1_clip">
            <path d="M62.8,31.0 L668.0,31.0 L668.0,335.2 L62.8,335.2 L62.8,31.0 " fill-rule="evenodd" vector-effect="non-scaling-stroke"/>
        </clipPath>
        <g clip-path="url(#ViewBox_1_clip)">
            <g fill="none" fill-rule="evenodd" id="ChildGroup_1" stroke="black" stroke-linecap="square" stroke-linejoin="bevel" stroke-width="1">
                <g id="PlotDataItem_1">
                    <g fill="none" fill-rule="evenodd" id="PlotCurveItem_1" stroke="black" stroke-linecap="square" stroke-linejoin="bevel" stroke-width="1">
                        <g fill="none" font-family="MS Shell Dlg 2" font-size="11" font-style="normal" font-weight="400" stroke="#ed815e" stroke-linecap="square" stroke-linejoin="bevel" stroke-opacity="1" stroke-width="1">
                            <path d="M86.2037000931,318.92184548 L87.3204848,313.78925282 L88.4372696,309.08317544 L89.5540544,304.74021242 L90.6708392,300.71137214 L91.787624,296.95630856 L92.9044088,293.44332122 L94.0211936,290.14215059 L95.1379784,287.03406458 L96.2547632,284.09600831 L97.371548,281.31357248 L98.4883328,278.67234779 L99.6051176,276.1608068 L100.7219024,273.76598114 L101.8386872,271.47922523 L102.955472,269.29189349 L104.0722568,264.7774598 L105.1890416,262.84373174 L106.3058264,260.98637297 L107.4226112,259.19817884 L108.539396,257.47482656 L109.6561808,255.8148752 L110.7729656,254.21256104 L111.8897504,252.66500222 L113.0065352,251.16931688 L114.12332,249.72262316 L115.2401048,248.3220392 L116.3568896,246.96612407 L117.4736744,245.65199591 L118.5904592,244.37821379 L119.707244,243.14333678 L120.8240288,241.94448302 L121.9408136,239.18222021 L123.0575984,238.07846783 L124.1743832,237.00641591 L125.291168,235.96318259 L126.4079528,234.94876787 L127.5247376,233.96173082 L128.6415224,233.00063051 L129.7583072,232.06546694 L130.875092,231.15335825 L131.9918768,230.26574537 L133.1086616,229.39974644 L134.2254464,228.55680239 L135.3422312,227.73403136 L136.459016,226.93287428 L137.5758008,226.15044929 L138.6925856,224.13458822 L139.8093704,223.40547764 L140.9261552,222.69365822 L142.04294,221.99912996 L143.1597248,221.32189286 L144.2765096,220.65906506 L145.3932944,220.01352842 L146.5100792,219.38240108 L147.626864,218.76568304 L148.7436488,218.16481523 L149.8604336,217.57835672 L150.9772184,217.00486658 L152.0940032,216.44434481 L153.210788,215.89823234 L154.3275728,215.36508824 L155.4443576,214.84347158 L156.5611424,213.28438532 L157.6779272,212.79591005 L158.794712,212.31896222 L159.9114968,211.85354183 L161.0282816,211.39964888 L162.1450664,210.95584244 L163.2618512,210.52356344 L164.378636,210.09993002 L165.4954208,209.68926497 L166.6122056,209.2872455 L167.7289904,208.89531254 L168.8457752,208.51346609 L169.96256,208.14026522 L171.0793448,207.77715086 L172.1961296,207.42412301 L173.3129144,207.07829981 L174.4296992,205.81172234 L175.546484,205.49039495 L176.6632688,205.17627221 L177.7800536,204.87223598 L178.8968384,204.5754044 L180.0136232,204.2872184 L181.130408,204.00767798 L182.2471928,203.73534221 L183.3639776,203.47165202 L184.4807624,203.21516648 L185.5975472,202.96588559 L186.714332,202.72525028 L187.8311168,202.49181962 L188.9479016,202.26703454 L190.0646864,202.04801318 L191.1814712,200.97596126 L192.298256,200.77423106 L193.4150408,200.58114644 L194.5318256,200.39382554 L195.6486104,200.21370929 L196.7653952,200.04223862 L197.88218,199.87509074 L198.9989648,199.71658844 L200.1157496,199.56384986 L201.2325344,199.41831593 L202.3493192,199.27854572 L203.466104,199.14742109 L204.5828888,199.02061925 L205.6996736,198.90102206 L206.8164584,198.78862952 L207.9332432,198.6820007 L209.050028,197.76412829 L210.1668128,197.67190877 L211.2835976,197.5868939 L212.4003824,197.50620182 L213.5171672,197.43271439 L214.633952,197.36643161 L215.7507368,197.30447162 L216.8675216,197.24971628 L217.9843064,197.20072466 L219.1010912,197.15893769 L220.217876,197.12291444 L221.3346608,197.09121398 L222.4514456,197.0681591 L223.5682304,197.04942701 L224.6850152,197.03789957 L225.8018,196.23386063 L226.9185848,196.23386063 L228.0353696,196.24106528 L229.1521544,196.25259272 L230.2689392,196.27132481 L231.385724,196.29582062 L232.5025088,196.32608015 L233.6192936,196.3621034 L234.7360784,196.4053313 L235.8528632,196.45432292 L236.969648,196.50907826 L238.0864328,196.56959732 L239.2032176,196.6358801 L240.3200024,196.70936753 L241.4367872,196.78861868 L242.553572,196.87363355 L243.6703568,196.16901878 L244.7871416,196.26556109 L245.9039264,196.36786712 L247.0207112,196.4773778 L248.137496,196.5926522 L249.2542808,196.71369032 L250.3710656,196.84193309 L251.4878504,196.97593958 L252.6046352,197.11715072 L253.72142,197.26412558 L254.8382048,197.41830509 L255.9549896,197.57824832 L257.0717744,197.7453962 L258.1885592,197.9183078 L259.305344,198.09842405 L260.4221288,198.28430402 L261.5389136,197.66182226 L262.6556984,197.8606706 L263.7724832,198.06528266 L264.889268,198.27709937 L266.0060528,198.4946798 L267.1228376,198.72090581 L268.2396224,198.95289554 L269.3564072,199.19353085 L270.473192,199.43992988 L271.5899768,199.69497449 L272.7067616,199.95722375 L273.8235464,200.22667766 L274.9403312,200.50333622 L276.057116,200.78864036 L277.1739008,201.08114915 L278.2906856,200.52783203 L279.4074704,200.83186826 L280.5242552,201.14455007 L281.64104,201.46443653 L282.7578248,201.79296857 L283.8746096,202.13014619 L284.9913944,202.47596939 L286.1081792,202.83043817 L287.224964,203.1921116 L288.3417488,203.56387154 L289.4585336,203.94571799 L290.5753184,204.33476909 L291.6921032,204.73534763 L292.808888,205.14313082 L293.9256728,205.56244145 L295.0424576,205.99039766 L296.1592424,205.50336332 L297.2760272,205.94572883 L298.392812,206.39818085 L299.5095968,206.86071938 L300.6263816,207.33478535 L301.7431664,207.81893783 L302.8599512,208.31461775 L303.976736,208.82038418 L305.0935208,209.33911898 L306.2103056,209.86938122 L307.3270904,210.4111709 L308.4438752,210.96592895 L309.56066,211.53365537 L310.6774448,212.11290923 L311.7942296,212.70657239 L312.9110144,213.31320392 L314.0277992,212.89245236 L315.144584,213.51781598 L316.2613688,214.15614797 L317.3781536,214.81033019 L318.4949384,215.47892171 L319.6117232,216.16336346 L320.728508,216.86365544 L321.8452928,217.57979765 L322.9620776,218.31323102 L324.0788624,219.06395555 L325.1956472,219.83341217 L326.312432,220.62015995 L327.4292168,221.42708075 L328.5460016,222.25273364 L329.6627864,223.10000048 L330.7795712,222.7455317 L331.896356,223.61729435 L333.0131408,224.51067095 L334.1299256,225.42710243 L335.2467104,226.36658879 L336.3634952,227.32913003 L337.48028,228.31904894 L338.5970648,229.33346366 L339.7138496,230.37525605 L340.8306344,231.44586704 L341.9474192,232.54529663 L343.064204,233.67498575 L344.1809888,234.83781626 L345.2977736,236.03234723 L346.4145584,237.26290145 L347.5313432,238.53091985 L348.648128,238.26722966 L349.7649128,239.57847596 L350.8816976,240.9300683 L351.9984824,242.32488854 L353.1152672,243.76437761 L354.232052,245.24997644 L355.3488368,246.78600782 L356.4656216,248.37535361 L357.5824064,250.01945474 L358.6991912,251.722634 L359.815976,253.48777325 L360.9327608,255.32063621 L362.0495456,257.22410474 L363.1663304,259.20394256 L364.2831152,261.26591339 L365.3999,261.14199341 L366.5166848,259.27742999 L367.6334696,257.48347214 L368.7502544,255.75435614 L369.8670392,254.08720013 L370.983824,252.47912225 L372.1006088,250.92435878 L373.2173936,249.42146879 L374.3341784,247.96901135 L375.4509632,246.56122274 L376.567748,245.19810296 L377.6845328,243.87821108 L378.8013176,242.59578338 L379.9181024,241.35370172 L381.0348872,240.14764331 L382.151672,238.97472629 L383.2684568,236.31188765 L384.3852416,235.23119015 L385.5020264,234.18075218 L386.6188112,233.15769188 L387.735596,232.16200925 L388.8523808,231.19226336 L389.9691656,230.24845421 L391.0859504,229.32914087 L392.2027352,228.43144148 L393.31952,227.5582379 L394.4363048,226.70520734 L395.5530896,225.87523166 L396.6698744,225.06398807 L397.7866592,224.2729175 L398.903444,223.50201995 L400.0202288,222.74841356 L401.1370136,220.82621294 L402.2537984,220.1230391 L403.3705832,219.43571549 L404.487368,218.76424211 L405.6041528,218.10861896 L406.7209376,217.46740511 L407.8377224,216.84204149 L408.9545072,216.23108717 L410.071292,215.63454215 L411.1880768,215.0509655 L412.3048616,214.48179815 L413.4216464,213.92559917 L414.5384312,213.38092763 L415.655216,212.85066539 L416.7720008,212.33048966 L417.8887856,210.8146313 L419.0055704,210.32615603 L420.1223552,209.85064913 L421.23914,209.38522874 L422.3559248,208.93133579 L423.4727096,208.48752935 L424.5894944,208.05525035 L425.7062792,207.63161693 L426.823064,207.21951095 L427.9398488,206.81605055 L429.0566336,206.42267666 L430.1734184,206.03794835 L431.2902032,205.66330655 L432.406988,205.29875126 L433.5237728,204.94140062 L434.6405576,204.59413649 L435.7573424,203.36070041 L436.8741272,203.03505023 L437.990912,202.71804563 L439.1076968,202.40968661 L440.2244816,202.10853224 L441.3412664,201.81602345 L442.4580512,201.53071931 L443.574836,201.25406075 L444.6916208,200.98604777 L445.8084056,200.72379851 L446.9251904,200.47019483 L448.0419752,200.2237958 L449.15876,199.98460142 L450.2755448,199.75261169 L451.3923296,199.52782661 L452.5091144,199.31024618 L453.6258992,198.27421751 L454.742684,198.07392824 L455.8594688,197.87940269 L456.9762536,197.69208179 L458.0930384,197.51196554 L459.2098232,197.33761301 L460.326608,197.17046513 L461.4433928,197.0105219 L462.5601776,196.85634239 L463.6769624,196.7079266 L464.7937472,196.56671546 L465.910532,196.43126804 L467.0273168,196.30302527 L468.1441016,196.18054622 L469.2608864,196.06527182 L470.3776712,195.17045429 L471.494456,195.06814826 L472.6112408,194.97160595 L473.7280256,194.88082736 L474.8448104,194.79581249 L475.9615952,194.71800227 L477.07838,194.64595577 L478.1951648,194.57967299 L479.3119496,194.51915393 L480.4287344,194.46439859 L481.5455192,194.41540697 L482.662304,194.37362 L483.7790888,194.33615582 L484.8958736,194.30445536 L486.0126584,194.27995955 L487.1294432,194.26122746 L488.246228,193.48312526 L489.3630128,193.47592061 L490.4797976,193.47447968 L491.5965824,193.47880247 L492.7133672,193.48744805 L493.830152,193.50329828 L494.9469368,193.52491223 L496.0637216,193.5522899 L497.1805064,193.58543129 L498.2972912,193.62289547 L499.414076,193.6675643 L500.5308608,193.71799685 L501.6476456,193.77419312 L502.7644304,193.83615311 L503.8812152,193.90387682 L504.998,193.97736425 L506.1147848,193.29724529 L507.2315696,193.38081923 L508.3483544,193.47159782 L509.4651392,193.56814013 L510.581924,193.67044616 L511.6987088,193.77851591 L512.8154936,193.89234938 L513.9322784,194.01194657 L515.0490632,194.13874841 L516.165848,194.27131397 L517.2826328,194.40964325 L518.3994176,194.55517718 L519.5162024,194.7050339 L520.6329872,194.86209527 L521.749772,195.02636129 L522.8665568,194.42117069 L523.9833416,194.59552322 L525.1001264,194.77563947 L526.2169112,194.96296037 L527.333696,195.15604499 L528.4504808,195.35633426 L529.5672656,195.56238725 L530.6840504,195.77564489 L531.8008352,195.99466625 L532.91762,196.22233319 L534.0344048,196.45576385 L535.1511896,196.69639916 L536.2679744,196.94279819 L537.3847592,197.1978428 L538.501544,197.46009206 L539.6183288,197.72810504 L540.7351136,197.19496094 L541.8518984,197.47594229 L542.9686832,197.76268736 L544.085468,198.05807801 L545.2022528,198.36067331 L546.3190376,198.67191419 L547.4358224,198.99035972 L548.5526072,199.3160099 L549.669392,199.65174659 L550.7861768,199.993247 L551.9029616,200.34483392 L553.0197464,200.70362549 L554.1365312,201.07250357 L555.253316,201.4485863 L556.3701008,201.83475554 L557.4868856,201.36357143 L558.6036704,201.76126811 L559.7204552,202.1690513 L560.83724,202.58548007 L561.9540248,203.01199535 L563.0708096,203.44715621 L564.1875944,203.89384451 L565.3043792,204.34917839 L566.421164,204.81603971 L567.5379488,205.29154661 L568.6547336,205.78002188 L569.7715184,206.27714273 L570.8883032,206.78723195 L572.005088,207.30740768 L573.1218728,207.83911085 L574.2386576,208.38378239 L575.3554424,207.97744013 L576.4722272,208.5379619 L577.589012,209.11001111 L578.7057968,209.69502869 L579.8225816,210.29301464 L580.9393664,210.90540989 L582.0561512,211.53077351 L583.172936,212.17054643 L584.2897208,212.82472865 L585.4065056,213.49332017 L586.5232904,214.17632099 L587.6400752,214.87661297 L588.75686,215.59275518 L589.8736448,216.32474762 L590.9904296,217.07403122 L592.1072144,217.84204691 L593.2239992,217.50486929 L594.340784,218.29449893 L595.4575688,219.10286066 L596.5743536,219.92995448 L597.6911384,220.77866225 L598.8079232,221.64754304 L599.924708,222.53659685 L601.0414928,223.44870554 L602.1582776,224.38386911 L603.2750624,225.34208756 L604.3918472,226.32624275 L605.508632,227.33489375 L606.6254168,228.37092242 L607.7422016,229.43288783 L608.8589864,230.52511277 L609.9757712,230.26862723 L611.092556,231.39687542 L612.2093408,232.55682407 L613.3261256,233.74847318 L614.4429104,234.97614554 L615.5596952,236.23840022 L616.67648,237.53811908 L617.7932648,238.87818398 L618.9100496,240.26003585 L620.0268344,241.68511562 L621.1436192,243.15486422 L622.260404,244.67504537 L623.3771888,246.24565907 L624.4939736,247.86958718 L625.6107584,249.55259342 L626.7275432,251.29611872 L627.844328,251.17075781 L628.9611128,252.98921147 L630.0778976,254.8782707 L631.1946824,256.84225829 L632.3114672,258.88693796 L633.428252,261.0166325 L634.5450368,263.23854656 L635.6618216,265.56132572 L636.7786064,267.99361556 L637.8953912,270.54262073 L639.012176,273.21986867 L640.1289608,276.03976868 L641.2457456,279.0138482 L642.3625304,282.16228025 L643.4793152,285.50091506 L644.5961,289.05424844 " fill-rule="evenodd" vector-effect="non-scaling-stroke"/>
                        </g>
                    </g>
                </g>
                <g id="PlotDataItem_2">
                    <g fill="none" fill-rule="evenodd" id="PlotCurveItem_2" stroke="black" stroke-linecap="square" stroke-linejoin="bevel" stroke-width="1">
                        <g fill="none" font-family="MS Shell Dlg 2" font-size="11" font-style="normal" font-weight="400" stroke="#c7b069" stroke-linecap="square" stroke-linejoin="bevel" stroke-opacity="1" stroke-width="1">
                            <path d="M86.2037000931,318.92184548 L87.3204848,313.78925282 L88.4372696,309.08317544 L89.5540544,304.74021242 L90.6708392,300.71137214 L91.787624,296.95630856 L92.9044088,293.44332122 L94.0211936,290.14215059 L95.1379784,287.03406458 L96.2547632,284.09600831 L97.371548,281.31357248 L98.4883328,278.67234779 L99.6051176,276.1608068 L100.7219024,273.76598114 L101.8386872,271.47922523 L102.955472,269.29189349 L104.0722568,264.7774598 L105.1890416,262.84373174 L106.3058264,260.98637297 L107.4226112,259.19817884 L108.539396,257.47482656 L109.6561808,255.8148752 L110.7729656,254.21256104 L111.8897504,252.66500222 L113.0065352,251.16931688 L114.12332,249.72262316 L115.2401048,248.3220392 L116.3568896,246.96612407 L117.4736744,245.65199591 L118.5904592,244.37821379 L119.707244,243.14333678 L120.8240288,241.94448302 L121.9408136,239.18222021 L123.0575984,238.07846783 L124.1743832,237.00641591 L125.291168,235.96318259 L126.4079528,234.94876787 L127.5247376,233.96173082 L128.6415224,233.00063051 L129.7583072,232.06546694 L130.875092,231.15335825 L131.9918768,230.26574537 L133.1086616,229.39974644 L134.2254464,228.55680239 L135.3422312,227.73403136 L136.459016,226.93287428 L137.5758008,226.15044929 L138.6925856,224.13458822 L139.8093704,223.40547764 L140.9261552,222.69365822 L142.04294,221.99912996 L143.1597248,221.32189286 L144.2765096,220.65906506 L145.3932944,220.01352842 L146.5100792,219.38240108 L147.626864,218.76568304 L148.7436488,218.16481523 L149.8604336,217.57835672 L150.9772184,217.00486658 L152.0940032,216.44434481 L153.210788,215.89823234 L154.3275728,215.36508824 L155.4443576,214.84347158 L156.5611424,213.28438532 L157.6779272,212.79591005 L158.794712,212.31896222 L159.9114968,211.85354183 L161.0282816,211.39964888 L162.1450664,210.95584244 L163.2618512,210.52356344 L164.378636,210.09993002 L165.4954208,209.68926497 L166.6122056,209.2872455 L167.7289904,208.89531254 L168.8457752,208.51346609 L169.96256,208.14026522 L171.0793448,207.77715086 L172.1961296,207.42412301 L173.3129144,207.07829981 L174.4296992,205.81172234 L175.546484,205.49039495 L176.6632688,205.17627221 L177.7800536,204.87223598 L178.8968384,204.5754044 L180.0136232,204.2872184 L181.130408,204.00767798 L182.2471928,203.73534221 L183.3639776,203.47165202 L184.4807624,203.21516648 L185.5975472,202.96588559 L186.714332,202.72525028 L187.8311168,202.49181962 L188.9479016,202.26703454 L190.0646864,202.04801318 L191.1814712,200.97596126 L192.298256,200.77423106 L193.4150408,200.58114644 L194.5318256,200.39382554 L195.6486104,200.21370929 L196.7653952,200.04223862 L197.88218,199.87509074 L198.9989648,199.71658844 L200.1157496,199.56384986 L201.2325344,199.41831593 L202.3493192,199.27854572 L203.466104,199.14742109 L204.5828888,199.02061925 L205.6996736,198.90102206 L206.8164584,198.78862952 L207.9332432,198.6820007 L209.050028,197.76412829 L210.1668128,197.67190877 L211.2835976,197.5868939 L212.4003824,197.50620182 L213.5171672,197.43271439 L214.633952,197.36643161 L215.7507368,197.30447162 L216.8675216,197.24971628 L217.9843064,197.20072466 L219.1010912,197.15893769 L220.217876,197.12291444 L221.3346608,197.09121398 L222.4514456,197.0681591 L223.5682304,197.04942701 L224.6850152,197.03789957 L225.8018,196.23386063 L226.9185848,196.23386063 L228.0353696,196.24106528 L229.1521544,196.25259272 L230.2689392,196.27132481 L231.385724,196.29582062 L232.5025088,196.32608015 L233.6192936,196.3621034 L234.7360784,196.4053313 L235.8528632,196.45432292 L236.969648,196.50907826 L238.0864328,196.56959732 L239.2032176,196.6358801 L240.3200024,196.70936753 L241.4367872,196.78861868 L242.553572,196.87363355 L243.6703568,196.16901878 L244.7871416,196.26556109 L245.9039264,196.36786712 L247.0207112,196.4773778 L248.137496,196.5926522 L249.2542808,196.71369032 L250.3710656,196.84193309 L251.4878504,196.97593958 L252.6046352,197.11715072 L253.72142,197.26412558 L254.8382048,197.41830509 L255.9549896,197.57824832 L257.0717744,197.7453962 L258.1885592,197.9183078 L259.305344,198.09842405 L260.4221288,198.28430402 L261.5389136,197.66182226 L262.6556984,197.8606706 L263.7724832,198.06528266 L264.889268,198.27709937 L266.0060528,198.4946798 L267.1228376,198.72090581 L268.2396224,198.95289554 L269.3564072,199.19353085 L270.473192,199.43992988 L271.5899768,199.69497449 L272.7067616,199.95722375 L273.8235464,200.22667766 L274.9403312,200.50333622 L276.057116,200.78864036 L277.1739008,201.08114915 L278.2906856,200.52783203 L279.4074704,200.83186826 L280.5242552,201.14455007 L281.64104,201.46443653 L282.7578248,201.79296857 L283.8746096,202.13014619 L284.9913944,202.47596939 L286.1081792,202.83043817 L287.224964,203.1921116 L288.3417488,203.56387154 L289.4585336,203.94571799 L290.5753184,204.33476909 L291.6921032,204.73534763 L292.808888,205.14313082 L293.9256728,205.56244145 L295.0424576,205.99039766 L296.1592424,205.50336332 L297.2760272,205.94572883 L298.392812,206.39818085 L299.5095968,206.86071938 L300.6263816,207.33478535 L301.7431664,207.81893783 L302.8599512,208.31461775 L303.976736,208.82038418 L305.0935208,209.33911898 L306.2103056,209.86938122 L307.3270904,210.4111709 L308.4438752,210.96592895 L309.56066,211.53365537 L310.6774448,212.11290923 L311.7942296,212.70657239 L312.9110144,213.31320392 L314.0277992,212.89245236 L315.144584,213.51781598 L316.2613688,214.15614797 L317.3781536,214.81033019 L318.4949384,215.47892171 L319.6117232,216.16336346 L320.728508,216.86365544 L321.8452928,217.57979765 L322.9620776,218.31323102 L324.0788624,219.06395555 L325.1956472,219.83341217 L326.312432,220.62015995 L327.4292168,221.42708075 L328.5460016,222.25273364 L329.6627864,223.10000048 L330.7795712,222.7455317 L331.896356,223.61729435 L333.0131408,224.51067095 L334.1299256,225.42710243 L335.2467104,226.36658879 L336.3634952,227.32913003 L337.48028,228.31904894 L338.5970648,229.33346366 L339.7138496,230.37525605 L340.8306344,231.44586704 L341.9474192,232.54529663 L343.064204,233.67498575 L344.1809888,234.83781626 L345.2977736,236.03234723 L346.4145584,237.26290145 L347.5313432,238.53091985 L348.648128,238.26722966 L349.7649128,239.57847596 L350.8816976,240.9300683 L351.9984824,242.32488854 L353.1152672,243.76437761 L354.232052,245.24997644 L355.3488368,246.78600782 L356.4656216,248.37535361 L357.5824064,250.01945474 L358.6991912,251.722634 L359.815976,253.48777325 L360.9327608,255.32063621 L362.0495456,257.22410474 L363.1663304,259.20394256 L364.2831152,261.26591339 L365.3999,261.14199341 L366.5166848,259.27742999 L367.6334696,257.48347214 L368.7502544,255.75435614 L369.8670392,254.08720013 L370.983824,252.47912225 L372.1006088,250.92435878 L373.2173936,249.42146879 L374.3341784,247.96901135 L375.4509632,246.56122274 L376.567748,245.19810296 L377.6845328,243.87821108 L378.8013176,242.59578338 L379.9181024,241.35370172 L381.0348872,240.14764331 L382.151672,238.97472629 L383.2684568,236.31188765 L384.3852416,235.23119015 L385.5020264,234.18075218 L386.6188112,233.15769188 L387.735596,232.16200925 L388.8523808,231.19226336 L389.9691656,230.24845421 L391.0859504,229.32914087 L392.2027352,228.43144148 L393.31952,227.5582379 L394.4363048,226.70520734 L395.5530896,225.87523166 L396.6698744,225.06398807 L397.7866592,224.2729175 L398.903444,223.50201995 L400.0202288,222.74841356 L401.1370136,220.82621294 L402.2537984,220.1230391 L403.3705832,219.43571549 L404.487368,218.76424211 L405.6041528,218.10861896 L406.7209376,217.46740511 L407.8377224,216.84204149 L408.9545072,216.23108717 L410.071292,215.63454215 L411.1880768,215.0509655 L412.3048616,214.48179815 L413.4216464,213.92559917 L414.5384312,213.38092763 L415.655216,212.85066539 L416.7720008,212.33048966 L417.8887856,210.8146313 L419.0055704,210.32615603 L420.1223552,209.85064913 L421.23914,209.38522874 L422.3559248,208.93133579 L423.4727096,208.48752935 L424.5894944,208.05525035 L425.7062792,207.63161693 L426.823064,207.21951095 L427.9398488,206.81605055 L429.0566336,206.42267666 L430.1734184,206.03794835 L431.2902032,205.66330655 L432.406988,205.29875126 L433.5237728,204.94140062 L434.6405576,204.59413649 L435.7573424,203.36070041 L436.8741272,203.03505023 L437.990912,202.71804563 L439.1076968,202.40968661 L440.2244816,202.10853224 L441.3412664,201.81602345 L442.4580512,201.53071931 L443.574836,201.25406075 L444.6916208,200.98604777 L445.8084056,200.72379851 L446.9251904,200.47019483 L448.0419752,200.2237958 L449.15876,199.98460142 L450.2755448,199.75261169 L451.3923296,199.52782661 L452.5091144,199.31024618 L453.6258992,198.27421751 L454.742684,198.07392824 L455.8594688,197.87940269 L456.9762536,197.69208179 L458.0930384,197.51196554 L459.2098232,197.33761301 L460.326608,197.17046513 L461.4433928,197.0105219 L462.5601776,196.85634239 L463.6769624,196.7079266 L464.7937472,196.56671546 L465.910532,196.43126804 L467.0273168,196.30302527 L468.1441016,196.18054622 L469.2608864,196.06527182 L470.3776712,195.17045429 L471.494456,195.06814826 L472.6112408,194.97160595 L473.7280256,194.88082736 L474.8448104,194.79581249 L475.9615952,194.71800227 L477.07838,194.64595577 L478.1951648,194.57967299 L479.3119496,194.51915393 L480.4287344,194.46439859 L481.5455192,194.41540697 L482.662304,194.37362 L483.7790888,194.33615582 L484.8958736,194.30445536 L486.0126584,194.27995955 L487.1294432,194.26122746 L488.246228,193.48312526 L489.3630128,193.47592061 L490.4797976,193.47447968 L491.5965824,193.47880247 L492.7133672,193.48744805 L493.830152,193.50329828 L494.9469368,193.52491223 L496.0637216,193.5522899 L497.1805064,193.58543129 L498.2972912,193.62289547 L499.414076,193.6675643 L500.5308608,193.71799685 L501.6476456,193.77419312 L502.7644304,193.83615311 L503.8812152,193.90387682 L504.998,193.97736425 L506.1147848,193.29724529 L507.2315696,193.38081923 L508.3483544,193.47159782 L509.4651392,193.56814013 L510.581924,193.67044616 L511.6987088,193.77851591 L512.8154936,193.89234938 L513.9322784,194.01194657 L515.0490632,194.13874841 L516.165848,194.27131397 L517.2826328,194.40964325 L518.3994176,194.55517718 L519.5162024,194.7050339 L520.6329872,194.86209527 L521.749772,195.02636129 L522.8665568,194.42117069 L523.9833416,194.59552322 L525.1001264,194.77563947 L526.2169112,194.96296037 L527.333696,195.15604499 L528.4504808,195.35633426 L529.5672656,195.56238725 L530.6840504,195.77564489 L531.8008352,195.99466625 L532.91762,196.22233319 L534.0344048,196.45576385 L535.1511896,196.69639916 L536.2679744,196.94279819 L537.3847592,197.1978428 L538.501544,197.46009206 L539.6183288,197.72810504 L540.7351136,197.19496094 L541.8518984,197.47594229 L542.9686832,197.76268736 L544.085468,198.05807801 L545.2022528,198.36067331 L546.3190376,198.67191419 L547.4358224,198.99035972 L548.5526072,199.3160099 L549.669392,199.65174659 L550.7861768,199.993247 L551.9029616,200.34483392 L553.0197464,200.70362549 L554.1365312,201.07250357 L555.253316,201.4485863 L556.3701008,201.83475554 L557.4868856,201.36357143 L558.6036704,201.76126811 L559.7204552,202.1690513 L560.83724,202.58548007 L561.9540248,203.01199535 L563.0708096,203.44715621 L564.1875944,203.89384451 L565.3043792,204.34917839 L566.421164,204.81603971 L567.5379488,205.29154661 L568.6547336,205.78002188 L569.7715184,206.27714273 L570.8883032,206.78723195 L572.005088,207.30740768 L573.1218728,207.83911085 L574.2386576,208.38378239 L575.3554424,207.97744013 L576.4722272,208.5379619 L577.589012,209.11001111 L578.7057968,209.69502869 L579.8225816,210.29301464 L580.9393664,210.90540989 L582.0561512,211.53077351 L583.172936,212.17054643 L584.2897208,212.82472865 L585.4065056,213.49332017 L586.5232904,214.17632099 L587.6400752,214.87661297 L588.75686,215.59275518 L589.8736448,216.32474762 L590.9904296,217.07403122 L592.1072144,217.84204691 L593.2239992,217.50486929 L594.340784,218.29449893 L595.4575688,219.10286066 L596.5743536,219.92995448 L597.6911384,220.77866225 L598.8079232,221.64754304 L599.924708,222.53659685 L601.0414928,223.44870554 L602.1582776,224.38386911 L603.2750624,225.34208756 L604.3918472,226.32624275 L605.508632,227.33489375 L606.6254168,228.37092242 L607.7422016,229.43288783 L608.8589864,230.52511277 L609.9757712,230.26862723 L611.092556,231.39687542 L612.2093408,232.55682407 L613.3261256,233.74847318 L614.4429104,234.97614554 L615.5596952,236.23840022 L616.67648,237.53811908 L617.7932648,238.87818398 L618.9100496,240.26003585 L620.0268344,241.68511562 L621.1436192,243.15486422 L622.260404,244.67504537 L623.3771888,246.24565907 L624.4939736,247.86958718 L625.6107584,249.55259342 L626.7275432,251.29611872 L627.844328,251.17075781 L628.9611128,252.98921147 L630.0778976,254.8782707 L631.1946824,256.84225829 L632.3114672,258.88693796 L633.428252,261.0166325 L634.5450368,263.23854656 L635.6618216,265.56132572 L636.7786064,267.99361556 L637.8953912,270.54262073 L639.012176,273.21986867 L640.1289608,276.03976868 L641.2457456,279.0138482 L642.3625304,282.16228025 L643.4793152,285.50091506 L644.5961,289.05424844 " fill-rule="evenodd" vector-effect="non-scaling-stroke"/>
                        </g>
                    </g>
                </g>
                <g id="PlotDataItem_3">
                    <g fill="none" fill-rule="evenodd" id="PlotCurveItem_3" stroke="black" stroke-linecap="square" stroke-linejoin="bevel" stroke-width="1">
                        <g fill="none" font-family="MS Shell Dlg 2" font-size="11" font-style="normal" font-weight="400" stroke="#7ea695" stroke-linecap="square" stroke-linejoin="bevel" stroke-opacity="1" stroke-width="1">
                            <path d="M86.2037000931,296.8669709 L87.3204848,292.84533527 L88.4372696,289.09459448 L89.5540544,285.58160714 L90.6708392,282.27899558 L91.787624,279.16514585 L92.9044088,276.22132586 L94.0211936,273.43024445 L95.1379784,270.77893325 L96.2547632,268.25442389 L97.371548,265.84662986 L98.4883328,263.54690558 L99.6051176,261.34516454 L100.7219024,259.23564302 L101.8386872,257.21113637 L102.955472,255.26588087 L104.0722568,253.3941128 L105.1890416,251.5929503 L106.3058264,249.85518872 L107.4226112,248.17938713 L108.539396,246.56122274 L109.6561808,244.99781369 L110.7729656,243.48483719 L111.8897504,242.02085231 L113.0065352,240.60297719 L114.12332,239.22832997 L115.2401048,237.89546972 L116.3568896,236.60295551 L117.4736744,235.34790548 L118.5904592,234.1288787 L119.707244,232.94443424 L120.8240288,231.79313117 L121.9408136,230.67352856 L123.0575984,229.58274455 L124.1743832,228.523661 L125.291168,227.49051419 L126.4079528,226.48474505 L127.5247376,225.50491265 L128.6415224,224.55101699 L129.7583072,223.62017621 L130.875092,222.71239031 L131.9918768,221.82765929 L133.1086616,220.96454222 L134.2254464,220.1230391 L135.3422312,219.30026807 L136.459016,218.49767006 L137.5758008,217.71524507 L138.6925856,216.95011124 L139.8093704,216.2037095 L140.9261552,215.47315799 L142.04294,214.76133857 L143.1597248,214.06536938 L144.2765096,213.38380949 L145.3932944,212.71954076 L146.5100792,212.06968133 L147.626864,211.43567213 L148.7436488,210.8146313 L149.8604336,210.20799977 L150.9772184,209.61577754 L152.0940032,209.03652368 L153.210788,208.47023819 L154.3275728,207.91692107 L155.4443576,207.37513139 L156.5611424,206.84631008 L157.6779272,206.32901621 L158.794712,205.82324978 L159.9114968,205.32901079 L161.0282816,204.84629924 L162.1450664,204.37511513 L163.2618512,203.9125766 L164.378636,203.46300644 L165.4954208,203.02208186 L166.6122056,202.59268472 L167.7289904,202.17193316 L168.8457752,201.76126811 L169.96256,201.36068957 L171.0793448,200.96875661 L172.1961296,200.58691016 L173.3129144,200.21370929 L174.4296992,199.849154 L175.546484,199.49468522 L176.6632688,199.14886202 L177.7800536,198.81024347 L178.8968384,198.4802705 L180.0136232,198.16038404 L181.130408,197.8462613 L182.2471928,197.54222507 L183.3639776,197.24539349 L184.4807624,196.95576656 L185.5975472,196.67478521 L186.714332,196.40244944 L187.8311168,196.13587739 L188.9479016,195.87795092 L190.0646864,195.6272291 L191.1814712,195.38371193 L192.298256,195.14739941 L193.4150408,194.91829154 L194.5318256,194.69638832 L195.6486104,194.48168975 L196.7653952,194.2727549 L197.88218,194.07246563 L198.9989648,193.87794008 L200.1157496,193.69061918 L201.2325344,193.509062 L202.3493192,193.3361504 L203.466104,193.16756159 L204.5828888,193.00761836 L205.6996736,192.85343885 L206.8164584,192.70502306 L207.9332432,192.56381192 L209.050028,192.4283645 L210.1668128,192.30012173 L211.2835976,192.17764268 L212.4003824,192.06092735 L213.5171672,191.95141667 L214.633952,191.84766971 L215.7507368,191.74968647 L216.8675216,191.65890788 L217.9843064,191.57245208 L219.1010912,191.49320093 L220.217876,191.42115443 L221.3346608,191.35343072 L222.4514456,191.29291166 L223.5682304,191.23815632 L224.6850152,191.1891647 L225.8018,191.1459368 L226.9185848,191.10847262 L228.0353696,191.07821309 L229.1521544,191.05227635 L230.2689392,191.03354426 L231.385724,191.02057589 L232.5025088,191.01337124 L233.6192936,191.01193031 L234.7360784,191.0162531 L235.8528632,191.02633961 L236.969648,191.04363077 L238.0864328,191.06524472 L239.2032176,191.09406332 L240.3200024,191.12864564 L241.4367872,191.16899168 L242.553572,191.21510144 L243.6703568,191.26697492 L244.7871416,191.32605305 L245.9039264,191.38945397 L247.0207112,191.46005954 L248.137496,191.53642883 L249.2542808,191.61856184 L250.3710656,191.7078995 L251.4878504,191.80300088 L252.6046352,191.90386598 L253.72142,192.0104948 L254.8382048,192.12432827 L255.9549896,192.24392546 L257.0717744,192.36928637 L258.1885592,192.50185193 L259.305344,192.64018121 L260.4221288,192.78571514 L261.5389136,192.93701279 L262.6556984,193.09551509 L263.7724832,193.25978111 L264.889268,193.42981085 L266.0060528,193.60848617 L267.1228376,193.79292521 L268.2396224,193.98312797 L269.3564072,194.18197631 L270.473192,194.38658837 L271.5899768,194.59840508 L272.7067616,194.81742644 L273.8235464,195.04365245 L274.9403312,195.27564218 L276.057116,195.51627749 L277.1739008,195.76411745 L278.2906856,196.01916206 L279.4074704,196.28141132 L280.5242552,196.55086523 L281.64104,196.82896472 L282.7578248,197.11426886 L283.8746096,197.40677765 L284.9913944,197.70793202 L286.1081792,198.01773197 L287.224964,198.33473657 L288.3417488,198.66038675 L289.4585336,198.99468251 L290.5753184,199.33762385 L291.6921032,199.68776984 L292.808888,200.04800234 L293.9256728,200.41688042 L295.0424576,200.79440408 L296.1592424,201.18201425 L297.2760272,201.57827 L298.392812,201.98461226 L299.5095968,202.40104103 L300.6263816,202.82611538 L301.7431664,203.26127624 L302.8599512,203.70796454 L303.976736,204.16473935 L305.0935208,204.63160067 L306.2103056,205.1085485 L307.3270904,205.5984647 L308.4438752,206.09846741 L309.56066,206.60999756 L310.6774448,207.13305515 L311.7942296,207.66908111 L312.9110144,208.21663451 L314.0277992,208.77715628 L315.144584,209.35064642 L316.2613688,209.93710493 L317.3781536,210.53653181 L318.4949384,211.15036799 L319.6117232,211.77861347 L320.728508,212.42126825 L321.8452928,213.07977326 L322.9620776,213.75268757 L324.0788624,214.44145211 L325.1956472,215.14606688 L326.312432,215.86797281 L327.4292168,216.6071699 L328.5460016,217.36365815 L329.6627864,218.13743756 L330.7795712,218.93138999 L331.896356,219.74407451 L333.0131408,220.57693205 L334.1299256,221.42996261 L335.2467104,222.30460712 L336.3634952,223.20230651 L337.48028,224.12161985 L338.5970648,225.065429 L339.7138496,226.03229303 L340.8306344,227.02653473 L341.9474192,228.04527224 L343.064204,229.09282835 L344.1809888,230.16776213 L345.2977736,231.27439637 L346.4145584,232.40984921 L347.5313432,233.57988437 L348.648128,234.78161999 L349.7649128,236.01937886 L350.8816976,237.29460191 L351.9984824,238.60873007 L353.1152672,239.96320427 L354.232052,241.36090637 L355.3488368,242.80183637 L356.4656216,244.29175799 L357.5824064,245.83211216 L358.6991912,247.42433981 L359.815976,249.07276373 L360.9327608,250.78026578 L362.0495456,252.55116875 L363.1663304,254.38979543 L364.2831152,256.29902768 L365.3999,258.28607015 L366.5166848,256.30623233 L367.6334696,254.40420473 L368.7502544,252.5727827 L369.8670392,250.80908438 L370.983824,249.10734605 L372.1006088,247.46468585 L373.2173936,245.87822192 L374.3341784,244.34363147 L375.4509632,242.85947357 L376.567748,241.42142543 L377.6845328,240.02948705 L378.8013176,238.67933564 L379.9181024,237.36953027 L381.0348872,236.09863001 L382.151672,234.86519393 L383.2684568,233.66634017 L384.3852416,232.50206873 L385.5020264,231.36805682 L386.6188112,230.2671863 L387.735596,229.19369345 L388.8523808,228.15046013 L389.9691656,227.13316355 L391.0859504,226.14324464 L392.2027352,225.17926247 L393.31952,224.23833518 L394.4363048,223.3219037 L395.5530896,222.4285271 L396.6698744,221.55532352 L397.7866592,220.70517482 L398.903444,219.87519914 L400.0202288,219.06539648 L401.1370136,218.27432591 L402.2537984,217.50198743 L403.3705832,216.74838104 L404.487368,216.01206581 L405.6041528,215.29160081 L406.7209376,214.5898679 L407.8377224,213.90398522 L408.9545072,213.23251184 L410.071292,212.57688869 L411.1880768,211.93711577 L412.3048616,211.31031122 L413.4216464,210.6993569 L414.5384312,210.10137095 L415.655216,209.51635337 L416.7720008,208.94574509 L417.8887856,208.38666425 L419.0055704,207.84199271 L420.1223552,207.30740768 L421.23914,206.78579102 L422.3559248,206.27714273 L423.4727096,205.77858095 L424.5894944,205.29154661 L425.7062792,204.81603971 L426.823064,204.35061932 L427.9398488,203.89672637 L429.0566336,203.45291993 L430.1734184,203.0192 L431.2902032,202.59556658 L432.406988,202.18201967 L433.5237728,201.77711834 L434.6405576,201.38230352 L435.7573424,200.99757521 L436.8741272,200.62149248 L437.990912,200.25405533 L439.1076968,199.89670469 L440.2244816,199.54799963 L441.3412664,199.20649922 L442.4580512,198.87508532 L443.574836,198.55087607 L444.6916208,198.2353124 L445.8084056,197.92839431 L446.9251904,197.62868087 L448.0419752,197.33761301 L449.15876,197.05519073 L450.2755448,196.77853217 L451.3923296,196.51051919 L452.5091144,196.25115179 L453.6258992,195.99754811 L454.742684,195.75259001 L455.8594688,195.51339563 L456.9762536,195.28284683 L458.0930384,195.05950268 L459.2098232,194.84192225 L460.326608,194.6329874 L461.4433928,194.42981627 L462.5601776,194.23384979 L463.6769624,194.04508796 L464.7937472,193.86208985 L465.910532,193.68629639 L467.0273168,193.51770758 L468.1441016,193.35488249 L469.2608864,193.19926205 L470.3776712,193.05084626 L471.494456,192.90675326 L472.6112408,192.77130584 L473.7280256,192.64018121 L474.8448104,192.51770216 L475.9615952,192.3995459 L477.07838,192.28859429 L478.1951648,192.1834064 L479.3119496,192.08542316 L480.4287344,191.99320364 L481.5455192,191.90674784 L482.662304,191.82605576 L483.7790888,191.75256833 L484.8958736,191.68340369 L486.0126584,191.6214437 L487.1294432,191.56524743 L488.246228,191.51625581 L489.3630128,191.47158698 L490.4797976,191.4341228 L491.5965824,191.40242234 L492.7133672,191.3764856 L493.830152,191.35631258 L494.9469368,191.34334421 L496.0637216,191.33469863 L497.1805064,191.3332577 L498.2972912,191.33758049 L499.414076,191.34622607 L500.5308608,191.3620763 L501.6476456,191.38513118 L502.7644304,191.41250885 L503.8812152,191.44709117 L504.998,191.48599628 L506.1147848,191.53210604 L507.2315696,191.58397952 L508.3483544,191.64161672 L509.4651392,191.70645857 L510.581924,191.77562321 L511.6987088,191.8519925 L512.8154936,191.93412551 L513.9322784,192.02346317 L515.0490632,192.11712362 L516.165848,192.21798872 L517.2826328,192.32605847 L518.3994176,192.43845101 L519.5162024,192.5580482 L520.6329872,192.68340911 L521.749772,192.81597467 L522.8665568,192.95430395 L523.9833416,193.09983788 L525.1001264,193.25113553 L526.2169112,193.40963783 L527.333696,193.57390385 L528.4504808,193.74537452 L529.5672656,193.92260891 L530.6840504,194.10704795 L531.8008352,194.29869164 L532.91762,194.49753998 L534.0344048,194.70215204 L535.1511896,194.91396875 L536.2679744,195.13443104 L537.3847592,195.36065705 L538.501544,195.59408771 L539.6183288,195.83472302 L540.7351136,196.08256298 L541.8518984,196.33760759 L542.9686832,196.60129778 L544.085468,196.87075169 L545.2022528,197.15029211 L546.3190376,197.43559625 L547.4358224,197.72954597 L548.5526072,198.03214127 L549.669392,198.34194122 L550.7861768,198.66038675 L551.9029616,198.98603693 L553.0197464,199.32177362 L554.1365312,199.66471496 L555.253316,200.01774281 L556.3701008,200.37797531 L557.4868856,200.74829432 L558.6036704,201.12725891 L559.7204552,201.51631001 L560.83724,201.91400669 L561.9540248,202.32178988 L563.0708096,202.73821865 L564.1875944,203.16473393 L565.3043792,203.60277665 L566.421164,204.04946495 L567.5379488,204.50768069 L568.6547336,204.97742387 L569.7715184,205.45581263 L570.8883032,205.94716976 L572.005088,206.45005433 L573.1218728,206.96302541 L574.2386576,207.48896486 L575.3554424,208.02643175 L576.4722272,208.57686701 L577.589012,209.13882971 L578.7057968,209.71520171 L579.8225816,210.30454208 L580.9393664,210.90685082 L582.0561512,211.52356886 L583.172936,212.1546962 L584.2897208,212.80023284 L585.4065056,213.46161971 L586.5232904,214.13741588 L587.6400752,214.82906228 L588.75686,215.53799984 L589.8736448,216.26278763 L590.9904296,217.00486658 L592.1072144,217.76567762 L593.2239992,218.54377982 L594.340784,219.34205504 L595.4575688,220.15906235 L596.5743536,220.99624268 L597.6911384,221.85503696 L598.8079232,222.73400426 L599.924708,223.63602644 L601.0414928,224.5611035 L602.1582776,225.50923544 L603.2750624,226.48330412 L604.3918472,227.48330954 L605.508632,228.5092517 L606.6254168,229.56257153 L607.7422016,230.64470996 L608.8589864,231.75854885 L609.9757712,232.90264727 L611.092556,234.07988708 L612.2093408,235.29026828 L613.3261256,236.53667273 L614.4429104,237.82198229 L615.5596952,239.14475603 L616.67648,240.50931674 L617.7932648,241.91854628 L618.9100496,243.37244465 L620.0268344,244.87389371 L621.1436192,246.42577532 L622.260404,248.03241227 L623.3771888,249.69524549 L624.4939736,251.4200387 L625.6107584,253.2067919 L626.7275432,255.06270974 L627.844328,256.99211501 L628.9611128,258.9993305 L630.0778976,261.09156086 L631.1946824,263.27312888 L632.3114672,265.55123921 L633.428252,267.93597836 L634.5450368,270.43599191 L635.6618216,273.05992544 L636.7786064,275.82074732 L637.8953912,278.73142592 L639.012176,281.8092524 L640.1289608,285.07007699 L641.2457456,288.5383955 L642.3625304,292.23726281 L643.4793152,296.19982031 L644.5961,300.46209125 " fill-rule="evenodd" vector-effect="non-scaling-stroke"/>
                        </g>
                    </g>
                </g>
                <g id="PlotDataItem_4">
                    <g fill="none" fill-rule="evenodd" id="PlotCurveItem_4" stroke="black" stroke-linecap="square" stroke-linejoin="bevel" stroke-width="1">
                        <g fill="none" font-family="MS Shell Dlg 2" font-size="11" font-style="normal" font-weight="400" stroke="#8a7c91" stroke-linecap="square" stroke-linejoin="bevel" stroke-opacity="1" stroke-width="1">
                            <path d="M86.2037000931,277.68098795 L87.3204848,273.64350209 L88.4372696,269.87258828 L89.5540544,266.33654606 L90.6708392,263.01087962 L91.787624,259.86965222 L92.9044088,256.89701363 L94.0211936,254.07711362 L95.1379784,251.39554289 L96.2547632,248.840774 L97.371548,246.40127951 L98.4883328,244.06841384 L99.6051176,241.83353141 L100.7219024,239.6908685 L101.8386872,237.63177953 L102.955472,235.65338264 L104.0722568,233.74847318 L105.1890416,231.91128743 L106.3058264,230.14038446 L107.4226112,228.43000055 L108.539396,226.77869477 L109.6561808,225.17926247 L110.7729656,223.63314458 L111.8897504,222.13457738 L113.0065352,220.68356087 L114.12332,219.27433133 L115.2401048,217.90832969 L116.3568896,216.58267409 L117.4736744,215.29304174 L118.5904592,214.04087357 L119.707244,212.82328772 L120.8240288,211.63884326 L121.9408136,210.48754019 L123.0575984,209.36505572 L124.1743832,208.27283078 L125.291168,207.20798351 L126.4079528,206.17051391 L127.5247376,205.16042198 L128.6415224,204.17482586 L129.7583072,203.21228462 L130.875092,202.27423919 L131.9918768,201.35924864 L133.1086616,200.46587204 L134.2254464,199.59410939 L135.3422312,198.74251976 L136.459016,197.91110315 L137.5758008,197.09841863 L138.6925856,196.3044662 L139.8093704,195.52924586 L140.9261552,194.77131668 L142.04294,194.03211959 L143.1597248,193.3073318 L144.2765096,192.59983517 L145.3932944,191.90818877 L146.5100792,191.2323926 L147.626864,190.57100573 L148.7436488,189.92546909 L149.8604336,189.29290082 L150.9772184,188.67474185 L152.0940032,188.07099218 L153.210788,187.48021088 L154.3275728,186.90239795 L155.4443576,186.33611246 L156.5611424,185.78423627 L157.6779272,185.24388752 L158.794712,184.71506621 L159.9114968,184.19777234 L161.0282816,183.69344684 L162.1450664,183.19920785 L163.2618512,182.7164963 L164.378636,182.24387126 L165.4954208,181.78277366 L166.6122056,181.33176257 L167.7289904,180.89083799 L168.8457752,180.45999992 L169.96256,180.03924836 L171.0793448,179.62858331 L172.1961296,179.22800477 L173.3129144,178.83607181 L174.4296992,178.45278443 L175.546484,178.07958356 L176.6632688,177.71502827 L177.7800536,177.36055949 L178.8968384,177.01329536 L180.0136232,176.67611774 L181.130408,176.34614477 L182.2471928,176.02625831 L183.3639776,175.7135765 L184.4807624,175.40954027 L185.5975472,175.11270869 L186.714332,174.82452269 L187.8311168,174.54498227 L188.9479016,174.2726465 L190.0646864,174.00751538 L191.1814712,173.75102984 L192.298256,173.50174895 L193.4150408,173.25967271 L194.5318256,173.02480112 L195.6486104,172.79713418 L196.7653952,172.57811282 L197.88218,172.36629611 L198.9989648,172.16024312 L200.1157496,171.96283571 L201.2325344,171.77119202 L202.3493192,171.58675298 L203.466104,171.40951859 L204.5828888,171.23948885 L205.6996736,171.07666376 L206.8164584,170.91960239 L207.9332432,170.76974567 L209.050028,170.6270936 L210.1668128,170.49020525 L211.2835976,170.36052155 L212.4003824,170.23660157 L213.5171672,170.11988624 L214.633952,170.01037556 L215.7507368,169.9066286 L216.8675216,169.81008629 L217.9843064,169.7193077 L219.1010912,169.63573376 L220.217876,169.55792354 L221.3346608,169.48587704 L222.4514456,169.42103519 L223.5682304,169.36195706 L224.6850152,169.31008358 L225.8018,169.26397382 L226.9185848,169.22362778 L228.0353696,169.19048639 L229.1521544,169.16310872 L230.2689392,169.1429357 L231.385724,169.1285264 L232.5025088,169.11988082 L233.6192936,169.11843989 L234.7360784,169.12276268 L235.8528632,169.13284919 L236.969648,169.15014035 L238.0864328,169.17319523 L239.2032176,169.20201383 L240.3200024,169.23803708 L241.4367872,169.27982405 L242.553572,169.32881567 L243.6703568,169.38357101 L244.7871416,169.44409007 L245.9039264,169.51181378 L247.0207112,169.58530121 L248.137496,169.66599329 L249.2542808,169.75244909 L250.3710656,169.84466861 L251.4878504,169.94409278 L252.6046352,170.0507216 L253.72142,170.16311414 L254.8382048,170.2812704 L255.9549896,170.40663131 L257.0717744,170.53919687 L258.1885592,170.67752615 L259.305344,170.82306008 L260.4221288,170.97579866 L261.5389136,171.13430096 L262.6556984,171.30144884 L263.7724832,171.47291951 L264.889268,171.65303576 L266.0060528,171.84035666 L267.1228376,172.03344128 L268.2396224,172.23373055 L269.3564072,172.44122447 L270.473192,172.65736397 L271.5899768,172.87926719 L272.7067616,173.10837506 L273.8235464,173.34612851 L274.9403312,173.58964568 L276.057116,173.84180843 L277.1739008,174.10117583 L278.2906856,174.36918881 L279.4074704,174.64440644 L280.5242552,174.92682872 L281.64104,175.21789658 L282.7578248,175.51616909 L283.8746096,175.82308718 L284.9913944,176.13865085 L286.1081792,176.4628601 L287.224964,176.794274 L288.3417488,177.13577441 L289.4585336,177.48447947 L290.5753184,177.84327104 L291.6921032,178.21070819 L292.808888,178.58679092 L293.9256728,178.97151923 L295.0424576,179.36633405 L296.1592424,179.77123538 L297.2760272,180.18478229 L298.392812,180.60841571 L299.5095968,181.04213564 L300.6263816,181.48594208 L301.7431664,181.94127596 L302.8599512,182.40525542 L303.976736,182.88076232 L305.0935208,183.36779666 L306.2103056,183.86491751 L307.3270904,184.3735658 L308.4438752,184.89374153 L309.56066,185.4254447 L310.6774448,185.97011624 L311.7942296,186.52631522 L312.9110144,187.09548257 L314.0277992,187.67761829 L315.144584,188.27272238 L316.2613688,188.88079484 L317.3781536,189.5032766 L318.4949384,190.13872673 L319.6117232,190.79002709 L320.728508,191.45429582 L321.8452928,192.13585571 L322.9620776,192.8318249 L324.0788624,193.54364432 L325.1956472,194.27131397 L326.312432,195.01627478 L327.4292168,195.77852675 L328.5460016,196.55951081 L329.6627864,197.35778603 L330.7795712,198.17623427 L331.896356,199.01197367 L333.0131408,199.86932702 L334.1299256,200.74685339 L335.2467104,201.64599371 L336.3634952,202.56818891 L337.48028,203.51199806 L338.5970648,204.48030302 L339.7138496,205.47166286 L340.8306344,206.49040037 L341.9474192,207.53363369 L343.064204,208.60568561 L344.1809888,209.7051152 L345.2977736,210.83480432 L346.4145584,211.9961939 L347.5313432,213.18784301 L348.648128,214.41407444 L349.7649128,215.67632912 L350.8816976,216.97316612 L351.9984824,218.31034916 L353.1152672,219.68643731 L354.232052,221.10575336 L355.3488368,222.56829731 L356.4656216,224.07839195 L357.5824064,225.63747821 L358.6991912,227.24843795 L359.815976,228.91559396 L360.9327608,230.63894624 L362.0495456,232.42569944 L363.1663304,234.27873542 L364.2831152,236.20093604 L365.3999,238.19806502 L366.5166848,236.20958162 L367.6334696,234.29458565 L368.7502544,232.45019525 L369.8670392,230.6706467 L370.983824,228.95305814 L372.1006088,227.29310678 L373.2173936,225.68791076 L374.3341784,224.13602915 L375.4509632,222.63169823 L376.567748,221.17347707 L377.6845328,219.75992474 L378.8013176,218.38815938 L379.9181024,217.05674006 L381.0348872,215.76278492 L382.151672,214.50629396 L383.2684568,213.28438532 L384.3852416,212.09561807 L385.5020264,210.93855128 L386.6188112,209.81318495 L387.735596,208.71663722 L388.8523808,207.64890809 L389.9691656,206.60855663 L391.0859504,205.59414191 L392.2027352,204.604223 L393.31952,203.64024083 L394.4363048,202.69931354 L395.5530896,201.7800002 L396.6698744,200.88374174 L397.7866592,200.00909723 L398.903444,199.15462574 L400.0202288,198.32032727 L401.1370136,197.50620182 L402.2537984,196.70936753 L403.3705832,195.93270626 L404.487368,195.17189522 L405.6041528,194.42981627 L406.7209376,193.70358755 L407.8377224,192.99464999 L408.9545072,192.30012173 L410.071292,191.62288463 L411.1880768,190.9586159 L412.3048616,190.3101974 L413.4216464,189.67762913 L414.5384312,189.0565883 L415.655216,188.4513977 L416.7720008,187.85773454 L417.8887856,187.27848068 L419.0055704,186.71075426 L420.1223552,186.15743714 L421.23914,185.61420653 L422.3559248,185.08538522 L423.4727096,184.56665042 L424.5894944,184.05944306 L425.7062792,183.56376314 L426.823064,183.07961066 L427.9398488,182.60698562 L429.0566336,182.14300616 L430.1734184,181.69199507 L431.2902032,181.24962956 L432.406988,180.81735056 L433.5237728,180.39515807 L434.6405576,179.98305209 L435.7573424,179.58103262 L436.8741272,179.18765873 L437.990912,178.80437135 L439.1076968,178.42972955 L440.2244816,178.06517426 L441.3412664,177.70782362 L442.4580512,177.36055949 L443.574836,177.02194094 L444.6916208,176.69196797 L445.8084056,176.36919965 L446.9251904,176.05651784 L448.0419752,175.75104068 L449.15876,175.4542091 L450.2755448,175.16458217 L451.3923296,174.88360082 L452.5091144,174.60982412 L453.6258992,174.344693 L454.742684,174.08676653 L455.8594688,173.83748564 L456.9762536,173.59396847 L458.0930384,173.35909688 L459.2098232,173.13142994 L460.326608,172.91096765 L461.4433928,172.69771001 L462.5601776,172.49165702 L463.6769624,172.29280868 L464.7937472,172.10116499 L465.910532,171.91672595 L467.0273168,171.73949156 L468.1441016,171.56802089 L469.2608864,171.40375487 L470.3776712,171.2466935 L471.494456,171.09683678 L472.6112408,170.95274378 L473.7280256,170.81585543 L474.8448104,170.68617173 L475.9615952,170.56225175 L477.07838,170.44553642 L478.1951648,170.33458481 L479.3119496,170.23083785 L480.4287344,170.13285461 L481.5455192,170.04207602 L482.662304,169.95706115 L483.7790888,169.87925093 L484.8958736,169.80720443 L486.0126584,169.74236258 L487.1294432,169.68328445 L488.246228,169.63141097 L489.3630128,169.58386028 L490.4797976,169.54495517 L491.5965824,169.51037285 L492.7133672,169.48299518 L493.830152,169.46282216 L494.9469368,169.44841286 L496.0637216,169.43976728 L497.1805064,169.43688542 L498.2972912,169.44120821 L499.414076,169.45273565 L500.5308608,169.46858588 L501.6476456,169.49164076 L502.7644304,169.52190029 L503.8812152,169.55648261 L504.998,169.59971051 L506.1147848,169.6472612 L507.2315696,169.70201654 L508.3483544,169.7625356 L509.4651392,169.83025931 L510.581924,169.90518767 L511.6987088,169.98443882 L512.8154936,170.07089462 L513.9322784,170.16455507 L515.0490632,170.26397924 L516.165848,170.37060806 L517.2826328,170.4830006 L518.3994176,170.60259779 L519.5162024,170.7279587 L520.6329872,170.86052426 L521.749772,171.00029447 L522.8665568,171.1458284 L523.9833416,171.29856698 L525.1001264,171.45851021 L526.2169112,171.62421716 L527.333696,171.79712876 L528.4504808,171.97724501 L529.5672656,172.16456591 L530.6840504,172.35909146 L531.8008352,172.56082166 L532.91762,172.76975651 L534.0344048,172.98445508 L535.1511896,173.20779923 L536.2679744,173.43834803 L537.3847592,173.67610148 L538.501544,173.92105958 L539.6183288,174.17466326 L540.7351136,174.43403066 L541.8518984,174.70348457 L542.9686832,174.9787022 L544.085468,175.26256541 L545.2022528,175.5550742 L546.3190376,175.85478764 L547.4358224,176.16314666 L548.5526072,176.48015126 L549.669392,176.80436051 L550.7861768,177.13865627 L551.9029616,177.48015668 L553.0197464,177.8317436 L554.1365312,178.19053517 L555.253316,178.55941325 L556.3701008,178.93693691 L557.4868856,179.32454708 L558.6036704,179.72080283 L559.7204552,180.12714509 L560.83724,180.54213293 L561.9540248,180.96864821 L563.0708096,181.40380907 L564.1875944,181.85049737 L565.3043792,182.30583125 L566.421164,182.7741335 L567.5379488,183.25108133 L568.6547336,183.7395566 L569.7715184,184.23955931 L570.8883032,184.75108946 L572.005088,185.27414705 L573.1218728,185.80873208 L574.2386576,186.35628548 L575.3554424,186.91536632 L576.4722272,187.48741553 L577.589012,188.07243311 L578.7057968,188.67041906 L579.8225816,189.28281431 L580.9393664,189.90817793 L582.0561512,190.54795085 L583.172936,191.20213307 L584.2897208,191.87072459 L585.4065056,192.55516634 L586.5232904,193.25545832 L587.6400752,193.97304146 L588.75686,194.7050339 L589.8736448,195.45575843 L590.9904296,196.22233319 L592.1072144,197.00764004 L593.2239992,197.81167898 L594.340784,198.63445001 L595.4575688,199.47739406 L596.5743536,200.34051113 L597.6911384,201.22524215 L598.8079232,202.13014619 L599.924708,203.05810511 L601.0414928,204.01055984 L602.1582776,204.98462852 L603.2750624,205.98463394 L604.3918472,207.0105761 L605.508632,208.06389593 L606.6254168,209.14459343 L607.7422016,210.2526686 L608.8589864,211.39244423 L609.9757712,212.56392032 L611.092556,213.76709687 L612.2093408,215.00485574 L613.3261256,216.27719693 L614.4429104,217.5870023 L615.5596952,218.93715371 L616.67648,220.32765116 L617.7932648,221.76137651 L618.9100496,223.23977069 L620.0268344,224.76571556 L621.1436192,226.34209298 L622.260404,227.97178481 L623.3771888,229.65767291 L624.4939736,231.40263914 L625.6107584,233.21244722 L626.7275432,235.08853808 L627.844328,237.03667544 L628.9611128,239.06118209 L630.0778976,241.16926268 L631.1946824,243.36524 L632.3114672,245.6563187 L633.428252,248.05114436 L634.5450368,250.55836256 L635.6618216,253.18805981 L636.7786064,255.95032262 L637.8953912,258.85811936 L639.012176,261.92730026 L640.1289608,265.17659741 L641.2457456,268.6247429 L642.3625304,272.29623254 L643.4793152,276.22132586 L644.5961,280.43460518 " fill-rule="evenodd" vector-effect="non-scaling-stroke"/>
                        </g>
                    </g>
                </g>
                <g id="PlotDataItem_5">
                    <g fill="none" fill-rule="evenodd" id="PlotCurveItem_5" stroke="black" stroke-linecap="square" stroke-linejoin="bevel" stroke-width="1">
                        <g fill="none" font-family="MS Shell Dlg 2" font-size="11" font-style="normal" font-weight="400" stroke="#ff2e70" stroke-linecap="square" stroke-linejoin="bevel" stroke-opacity="1" stroke-width="1">
                            <path d="M86.2037000931,162.36624191 L87.3204848,158.28696908 L88.4372696,154.46706365 L89.5540544,150.87338423 L90.6708392,147.4857578 L91.787624,144.27824762 L92.9044088,141.23644439 L94.0211936,138.34449788 L95.1379784,135.58799879 L96.2547632,132.95541968 L97.371548,130.43811497 L98.4883328,128.02599815 L99.6051176,125.71042364 L100.7219024,123.48562772 L101.8386872,121.34584667 L102.955472,119.28387584 L104.0722568,117.29539244 L105.1890416,115.37607368 L106.3058264,113.52159677 L107.4226112,111.72763892 L108.539396,109.9927592 L109.6561808,108.31119389 L110.7729656,106.68150206 L111.8897504,105.10080185 L113.0065352,103.5662114 L114.12332,102.07628978 L115.2401048,100.62815513 L116.3568896,99.22036652 L117.4736744,97.85148302 L118.5904592,96.51862277 L119.707244,95.22034484 L120.8240288,93.95809016 L121.9408136,92.72609501 L123.0575984,91.52580032 L124.1743832,90.35576516 L125.291168,89.2145486 L126.4079528,88.10215064 L127.5247376,87.01568942 L128.6415224,85.95372401 L129.7583072,84.91913627 L130.875092,83.90760341 L131.9918768,82.91912543 L133.1086616,81.95370233 L134.2254464,81.00989318 L135.3422312,80.08769798 L136.459016,79.1856758 L137.5758008,78.30382664 L138.6925856,77.4421505 L139.8093704,76.59920645 L140.9261552,75.77355356 L142.04294,74.96663276 L143.1597248,74.17844405 L144.2765096,73.40610557 L145.3932944,72.64961732 L146.5100792,71.91042023 L147.626864,71.18707337 L148.7436488,70.47813581 L149.8604336,69.78504848 L150.9772184,69.10781138 L152.0940032,68.44354265 L153.210788,67.79368322 L154.3275728,67.15823309 L155.4443576,66.53575133 L156.5611424,65.92623794 L157.6779272,65.32969292 L158.794712,64.74611627 L159.9114968,64.17550799 L161.0282816,63.61786808 L162.1450664,63.07175561 L163.2618512,62.53717058 L164.378636,62.01411299 L165.4954208,61.50258284 L166.6122056,61.0011392 L167.7289904,60.51266393 L168.8457752,60.03427517 L169.96256,59.56741385 L171.0793448,59.11063904 L172.1961296,58.66395074 L173.3129144,58.22734895 L174.4296992,57.80083367 L175.546484,57.3844049 L176.6632688,56.97806264 L177.7800536,56.58180689 L178.8968384,56.19419672 L180.0136232,55.81667306 L181.130408,55.44923591 L182.2471928,55.09044434 L183.3639776,54.74029835 L184.4807624,54.39879794 L185.5975472,54.06738404 L186.714332,53.74317479 L187.8311168,53.42905205 L188.9479016,53.12357489 L190.0646864,52.82674331 L191.1814712,52.53711638 L192.298256,52.25757596 L193.4150408,51.98524019 L194.5318256,51.72155 L195.6486104,51.46506446 L196.7653952,51.21866543 L197.88218,50.97803012 L198.9989648,50.74748132 L200.1157496,50.52269624 L201.2325344,50.30799767 L202.3493192,50.09906282 L203.466104,49.89877355 L204.5828888,49.70712986 L205.6996736,49.52124989 L206.8164584,49.3440155 L207.9332432,49.17398576 L209.050028,49.0126016 L210.1668128,48.85698116 L211.2835976,48.7100063 L212.4003824,48.57023609 L213.5171672,48.43767053 L214.633952,48.31230962 L215.7507368,48.19415336 L216.8675216,48.08320175 L217.9843064,47.97945479 L219.1010912,47.88291248 L220.217876,47.79357482 L221.3346608,47.71144181 L222.4514456,47.63651345 L223.5682304,47.57023067 L224.6850152,47.50827068 L225.8018,47.45495627 L226.9185848,47.40884651 L228.0353696,47.3699414 L229.1521544,47.33824094 L230.2689392,47.3123042 L231.385724,47.29501304 L232.5025088,47.2834856 L233.6192936,47.27916281 L234.7360784,47.28204467 L235.8528632,47.29213118 L236.969648,47.30942234 L238.0864328,47.33391815 L239.2032176,47.36561861 L240.3200024,47.40308279 L241.4367872,47.44919255 L242.553572,47.50106603 L243.6703568,47.56014416 L244.7871416,47.62786787 L245.9039264,47.7013553 L247.0207112,47.78204738 L248.137496,47.86994411 L249.2542808,47.96504549 L250.3710656,48.06735152 L251.4878504,48.17830313 L252.6046352,48.29501846 L253.72142,48.41893844 L254.8382048,48.55006307 L255.9549896,48.68983328 L257.0717744,48.83536721 L258.1885592,48.98954672 L259.305344,49.15093088 L260.4221288,49.31951969 L261.5389136,49.49531315 L262.6556984,49.67831126 L263.7724832,49.86995495 L264.889268,50.06880329 L266.0060528,50.27629721 L267.1228376,50.48955485 L268.2396224,50.712899 L269.3564072,50.94200687 L270.473192,51.18120125 L271.5899768,51.42615935 L272.7067616,51.68120396 L273.8235464,51.94345322 L274.9403312,52.21290713 L276.057116,52.49244755 L277.1739008,52.77919262 L278.2906856,53.07458327 L279.4074704,53.3786195 L280.5242552,53.69130131 L281.64104,54.0126287 L282.7578248,54.34260167 L283.8746096,54.68122022 L284.9913944,55.02992528 L286.1081792,55.38583499 L287.224964,55.75183121 L288.3417488,56.12791394 L289.4585336,56.51264225 L290.5753184,56.90745707 L291.6921032,57.31091747 L292.808888,57.72446438 L293.9256728,58.1480978 L295.0424576,58.58181773 L296.1592424,59.02562417 L297.2760272,59.47951712 L298.392812,59.94349658 L299.5095968,60.41900348 L300.6263816,60.90603782 L301.7431664,61.40171774 L302.8599512,61.91036603 L303.976736,62.43054176 L305.0935208,62.960804 L306.2103056,63.50403461 L307.3270904,64.05879266 L308.4438752,64.62507815 L309.56066,65.20433201 L310.6774448,65.79655424 L311.7942296,66.40174484 L312.9110144,67.01990381 L314.0277992,67.65103115 L315.144584,68.29512686 L316.2613688,68.9550728 L317.3781536,69.62798711 L318.4949384,70.31531072 L319.6117232,71.01848456 L320.728508,71.7360677 L321.8452928,72.46950107 L322.9620776,73.2202256 L324.0788624,73.98535943 L325.1956472,74.76778442 L326.312432,75.56750057 L327.4292168,76.38594881 L328.5460016,77.22168821 L329.6627864,78.0761597 L330.7795712,78.94936328 L331.896356,79.84273988 L333.0131408,80.7562895 L334.1299256,81.69145307 L335.2467104,82.64678966 L336.3634952,83.62518113 L337.48028,84.62662748 L338.5970648,85.65256964 L339.7138496,86.70156668 L340.8306344,87.77650046 L341.9474192,88.87737098 L343.064204,90.00561917 L344.1809888,91.16268596 L345.2977736,92.34857135 L346.4145584,93.56471627 L347.5313432,94.81400258 L348.648128,96.09498935 L349.7649128,97.40911751 L350.8816976,98.76070985 L351.9984824,100.14976637 L353.1152672,101.577728 L354.232052,103.04603567 L355.3488368,104.55901217 L356.4656216,106.11521657 L357.5824064,107.72041259 L358.6991912,109.37460023 L359.815976,111.08210228 L360.9327608,112.8458006 L362.0495456,114.66713612 L363.1663304,116.55187256 L364.2831152,118.50289178 L365.3999,120.5259575 L366.5166848,118.5086555 L367.6334696,116.56195907 L368.7502544,114.68154542 L369.8670392,112.86309176 L370.983824,111.10515716 L372.1006088,109.40053697 L373.2173936,107.74923119 L374.3341784,106.14835796 L375.4509632,104.59503542 L376.567748,103.08638171 L377.6845328,101.61951497 L378.8013176,100.1944352 L379.9181024,98.80826054 L381.0348872,97.45955006 L382.151672,96.14686283 L383.2684568,94.86875792 L384.3852416,93.62235347 L385.5020264,92.40909041 L386.6188112,91.22464595 L387.735596,90.07046102 L388.8523808,88.94365376 L389.9691656,87.84422417 L391.0859504,86.77073132 L392.2027352,85.72317521 L393.31952,84.70011491 L394.4363048,83.70010949 L395.5530896,82.72315895 L396.6698744,81.76926329 L397.7866592,80.83554065 L398.903444,79.92343196 L400.0202288,79.03149629 L401.1370136,78.15973364 L402.2537984,77.30670308 L403.3705832,76.47240461 L404.487368,75.6553973 L405.6041528,74.85712208 L406.7209376,74.07613802 L407.8377224,73.31100419 L408.9545072,72.56172059 L410.071292,71.82972815 L411.1880768,71.11358594 L412.3048616,70.41185303 L413.4216464,69.72452942 L414.5384312,69.05305604 L415.655216,68.39455103 L416.7720008,67.75045532 L417.8887856,67.12076891 L419.0055704,66.50405087 L420.1223552,65.89886027 L421.23914,65.30807897 L422.3559248,64.73026604 L423.4727096,64.16398055 L424.5894944,63.61066343 L425.7062792,63.06887375 L426.823064,62.53861151 L427.9398488,62.01987671 L429.0566336,61.51266935 L430.1734184,61.0155485 L431.2902032,60.52995509 L432.406988,60.05588912 L433.5237728,59.59190966 L434.6405576,59.13945764 L435.7573424,58.6956512 L436.8741272,58.2633722 L437.990912,57.83973878 L439.1076968,57.4276328 L440.2244816,57.0241724 L441.3412664,56.63079851 L442.4580512,56.2460702 L443.574836,55.8714284 L444.6916208,55.50687311 L445.8084056,55.14952247 L446.9251904,54.80369927 L448.0419752,54.46508072 L449.15876,54.13510775 L450.2755448,53.81522129 L451.3923296,53.50253948 L452.5091144,53.19994418 L453.6258992,52.90455353 L454.742684,52.61780846 L455.8594688,52.33970897 L456.9762536,52.07025506 L458.0930384,51.8080058 L459.2098232,51.55584305 L460.326608,51.30944402 L461.4433928,51.07169057 L462.5601776,50.8425827 L463.6769624,50.62067948 L464.7937472,50.40742184 L465.910532,50.20136885 L467.0273168,50.00252051 L468.1441016,49.81231775 L469.2608864,49.62931964 L470.3776712,49.45352618 L471.494456,49.28493737 L472.6112408,49.12499414 L473.7280256,48.97225556 L474.8448104,48.82672163 L475.9615952,48.68839235 L477.07838,48.55726772 L478.1951648,48.43334774 L479.3119496,48.31663241 L480.4287344,48.20712173 L481.5455192,48.10625663 L482.662304,48.01115525 L483.7790888,47.92325852 L484.8958736,47.84400737 L486.0126584,47.77051994 L487.1294432,47.70423716 L488.246228,47.64515903 L489.3630128,47.59328555 L490.4797976,47.54861672 L491.5965824,47.51115254 L492.7133672,47.47945208 L493.830152,47.4563972 L494.9469368,47.43910604 L496.0637216,47.43046046 L497.1805064,47.4275786 L498.2972912,47.43190139 L499.414076,47.44342883 L500.5308608,47.46216092 L501.6476456,47.48809766 L502.7644304,47.52123905 L503.8812152,47.56158509 L504.998,47.60769485 L506.1147848,47.66245019 L507.2315696,47.72296925 L508.3483544,47.79213389 L509.4651392,47.86706225 L510.581924,47.94919526 L511.6987088,48.03853292 L512.8154936,48.13651616 L513.9322784,48.24026312 L515.0490632,48.35121473 L516.165848,48.47081192 L517.2826328,48.59617283 L518.3994176,48.73017932 L519.5162024,48.86994953 L520.6329872,49.01836532 L521.749772,49.17398576 L522.8665568,49.33681085 L523.9833416,49.50684059 L525.1001264,49.68551591 L526.2169112,49.87139588 L527.333696,50.0644805 L528.4504808,50.26476977 L529.5672656,50.47370462 L530.6840504,50.68984412 L531.8008352,50.9146292 L532.91762,51.14661893 L534.0344048,51.38725424 L535.1511896,51.6350942 L536.2679744,51.89157974 L537.3847592,52.15671086 L538.501544,52.42904663 L539.6183288,52.71002798 L540.7351136,52.99965491 L541.8518984,53.29792742 L542.9686832,53.60484551 L544.085468,53.91896825 L545.2022528,54.2431775 L546.3190376,54.57603233 L547.4358224,54.91753274 L548.5526072,55.26911966 L549.669392,55.62791123 L550.7861768,55.99678931 L551.9029616,56.3757539 L553.0197464,56.76336407 L554.1365312,57.16106075 L555.253316,57.56884394 L556.3701008,57.98527271 L557.4868856,58.41322892 L558.6036704,58.84983071 L559.7204552,59.29795994 L560.83724,59.75473475 L561.9540248,60.223037 L563.0708096,60.70286669 L564.1875944,61.19278289 L565.3043792,61.69422653 L566.421164,62.20719761 L567.5379488,62.7302552 L568.6547336,63.26628116 L569.7715184,63.81383456 L570.8883032,64.3729154 L572.005088,64.94496461 L573.1218728,65.52998219 L574.2386576,66.12796814 L575.3554424,66.73748153 L576.4722272,67.36140422 L577.589012,67.99829528 L578.7057968,68.64959564 L579.8225816,69.3153053 L580.9393664,69.99398333 L582.0561512,70.68851159 L583.172936,71.39889008 L584.2897208,72.12367787 L585.4065056,72.86431589 L586.5232904,73.62224507 L587.6400752,74.39602448 L588.75686,75.18565412 L589.8736448,75.99545678 L590.9904296,76.82110967 L592.1072144,77.66549465 L593.2239992,78.53005265 L594.340784,79.41334274 L595.4575688,80.31680585 L596.5743536,81.24188291 L597.6911384,82.18713299 L598.8079232,83.15543795 L599.924708,84.14535686 L601.0414928,85.15833065 L602.1582776,86.19724118 L603.2750624,87.26064752 L604.3918472,88.3499906 L605.508632,89.46527042 L606.6254168,90.60936884 L607.7422016,91.78228586 L608.8589864,92.98546241 L609.9757712,94.21889849 L611.092556,95.48547596 L612.2093408,96.78663575 L613.3261256,98.12237786 L614.4429104,99.49558415 L615.5596952,100.90769555 L616.67648,102.35871206 L617.7932648,103.85295647 L618.9100496,105.39186971 L620.0268344,106.97689271 L621.1436192,108.61234826 L622.260404,110.29823636 L623.3771888,112.04032073 L624.4939736,113.83860137 L625.6107584,115.698842 L626.7275432,117.62536541 L627.844328,119.62105346 L628.9611128,121.69022894 L630.0778976,123.83721464 L631.1946824,126.07065614 L632.3114672,128.39487623 L633.428252,130.81707956 L634.5450368,133.34591171 L635.6618216,135.99001826 L636.7786064,138.75948572 L637.8953912,141.66584153 L639.012176,144.72205406 L640.1289608,147.94541447 L641.2457456,151.35321392 L642.3625304,154.96706636 L643.4793152,158.8114676 L644.5961,162.9181181 " fill-rule="evenodd" vector-effect="non-scaling-stroke"/>
                        </g>
                    </g>
                </g>
            </g>
            <g fill="none" fill-rule="evenodd" id="LegendItem_1" stroke="black" stroke-linecap="square" stroke-linejoin="bevel" stroke-width="1">
                <g fill="#646464" fill-opacity="0.196078" font-family="MS Shell Dlg 2" font-size="11" font-style="normal" font-weight="400" stroke="#ffffff" stroke-linecap="square" stroke-linejoin="bevel" stroke-opacity="0.392157" stroke-width="1">
                    <path d="M92.8,61.0 L167.8,61.0 L167.8,208.0 L92.8,208.0 L92.8,61.0 " fill-rule="evenodd" vector-effect="non-scaling-stroke"/>
                </g>
                <g fill="none" fill-rule="evenodd" id="ItemSample_1" stroke="black" stroke-linecap="square" stroke-linejoin="bevel" stroke-width="1">
                    <g fill="none" font-family="MS Shell Dlg 2" font-size="11" font-style="normal" font-weight="400" stroke="#ed815e" stroke-linecap="square" stroke-linejoin="bevel" stroke-opacity="1" stroke-width="1">
                        <polyline fill="none" points="103.8,88.0 119.8,72.0" vector-effect="non-scaling-stroke"/>
                    </g>
                </g>
                <g fill="none" fill-rule="evenodd" id="LabelItem_1" stroke="black" stroke-linecap="square" stroke-linejoin="bevel" stroke-width="1">
                    <g fill="none" fill-rule="evenodd" id="QGraphicsTextItem_3" stroke="black" stroke-linecap="square" stroke-linejoin="bevel" stroke-width="1">
                        


                        


                        <g fill="none" font-family="MS Shell Dlg 2" font-size="11" font-style="normal" font-weight="400" stroke="#969696" stroke-linecap="square" stroke-linejoin="bevel" stroke-opacity="1" stroke-width="1" transform="matrix(1,0,0,1,112.8,70)">
                            <text fill="#969696" fill-opacity="1" font-family="&quot;MS Shell Dlg 2&quot;, sans-serif" font-size="11" font-style="normal" font-weight="400" stroke="none" x="4" xml:space="preserve" y="15">1e-06 A</text>
                        </g>
                        


                        

                    </g>
                </g>
                <g fill="none" fill-rule="evenodd" id="ItemSample_2" stroke="black" stroke-linecap="square" stroke-linejoin="bevel" stroke-width="1">
                    <g fill="none" font-family="MS Shell Dlg 2" font-size="11" font-style="normal" font-weight="400" stroke="#c7b069" stroke-linecap="square" stroke-linejoin="bevel" stroke-opacity="1" stroke-width="1">
                        <polyline fill="none" points="103.8,115.0 119.8,99.0" vector-effect="non-scaling-stroke"/>
                    </g>
                </g>
                <g fill="none" fill-rule="evenodd" id="LabelItem_2" stroke="black" stroke-linecap="square" stroke-linejoin="bevel" stroke-width="1">
                    <g fill="none" fill-rule="evenodd" id="QGraphicsTextItem_4" stroke="black" stroke-linecap="square" stroke-linejoin="bevel" stroke-width="1">
                        


                        


                        <g fill="none" font-family="MS Shell Dlg 2" font-size="11" font-style="normal" font-weight="400" stroke="#969696" stroke-linecap="square" stroke-linejoin="bevel" stroke-opacity="1" stroke-width="1" transform="matrix(1,0,0,1,112.8,97)">
                            <text fill="#969696" fill-opacity="1" font-family="&quot;MS Shell Dlg 2&quot;, sans-serif" font-size="11" font-style="normal" font-weight="400" stroke="none" x="4" xml:space="preserve" y="15">1e-06 A</text>
                        </g>
                        


                        

                    </g>
                </g>
                <g fill="none" fill-rule="evenodd" id="ItemSample_3" stroke="black" stroke-linecap="square" stroke-linejoin="bevel" stroke-width="1">
                    <g fill="none" font-family="MS Shell Dlg 2" font-size="11" font-style="normal" font-weight="400" stroke="#7ea695" stroke-linecap="square" stroke-linejoin="bevel" stroke-opacity="1" stroke-width="1">
                        <polyline fill="none" points="103.8,142.0 119.8,126.0" vector-effect="non-scaling-stroke"/>
                    </g>
                </g>
                <g fill="none" fill-rule="evenodd" id="LabelItem_3" stroke="black" stroke-linecap="square" stroke-linejoin="bevel" stroke-width="1">
                    <g fill="none" fill-rule="evenodd" id="QGraphicsTextItem_5" stroke="black" stroke-linecap="square" stroke-linejoin="bevel" stroke-width="1">
                        


                        


                        <g fill="none" font-family="MS Shell Dlg 2" font-size="11" font-style="normal" font-weight="400" stroke="#969696" stroke-linecap="square" stroke-linejoin="bevel" stroke-opacity="1" stroke-width="1" transform="matrix(1,0,0,1,118.8,124)">
                            <text fill="#969696" fill-opacity="1" font-family="&quot;MS Shell Dlg 2&quot;, sans-serif" font-size="11" font-style="normal" font-weight="400" stroke="none" x="4" xml:space="preserve" y="15">1.0 A</text>
                        </g>
                        


                        

                    </g>
                </g>
                <g fill="none" fill-rule="evenodd" id="ItemSample_4" stroke="black" stroke-linecap="square" stroke-linejoin="bevel" stroke-width="1">
                    <g fill="none" font-family="MS Shell Dlg 2" font-size="11" font-style="normal" font-weight="400" stroke="#8a7c91" stroke-linecap="square" stroke-linejoin="bevel" stroke-opacity="1" stroke-width="1">
                        <polyline fill="none" points="103.8,169.0 119.8,153.0" vector-effect="non-scaling-stroke"/>
                    </g>
                </g>
                <g fill="none" fill-rule="evenodd" id="LabelItem_4" stroke="black" stroke-linecap="square" stroke-linejoin="bevel" stroke-width="1">
                    <g fill="none" fill-rule="evenodd" id="QGraphicsTextItem_6" stroke="black" stroke-linecap="square" stroke-linejoin="bevel" stroke-width="1">
                        


                        


                        <g fill="none" font-family="MS Shell Dlg 2" font-size="11" font-style="normal" font-weight="400" stroke="#969696" stroke-linecap="square" stroke-linejoin="bevel" stroke-opacity="1" stroke-width="1" transform="matrix(1,0,0,1,118.8,151)">
                            <text fill="#969696" fill-opacity="1" font-family="&quot;MS Shell Dlg 2&quot;, sans-serif" font-size="11" font-style="normal" font-weight="400" stroke="none" x="4" xml:space="preserve" y="15">5.9 A</text>
                        </g>
                        


                        

                    </g>
                </g>
                <g fill="none" fill-rule="evenodd" id="ItemSample_5" stroke="black" stroke-linecap="square" stroke-linejoin="bevel" stroke-width="1">
                    <g fill="none" font-family="MS Shell Dlg 2" font-size="11" font-style="normal" font-weight="400" stroke="#ff2e70" stroke-linecap="square" stroke-linejoin="bevel" stroke-opacity="1" stroke-width="1">
                        <polyline fill="none" points="103.8,196.0 119.8,180.0" vector-effect="non-scaling-stroke"/>
                    </g>
                </g>
                <g fill="none" fill-rule="evenodd" id="LabelItem_5" stroke="black" stroke-linecap="square" stroke-linejoin="bevel" stroke-width="1">
                    <g fill="none" fill-rule="evenodd" id="QGraphicsTextItem_7" stroke="black" stroke-linecap="square" stroke-linejoin="bevel" stroke-width="1">
                        


                        


                        <g fill="none" font-family="MS Shell Dlg 2" font-size="11" font-style="normal" font-weight="400" stroke="#969696" stroke-linecap="square" stroke-linejoin="bevel" stroke-opacity="1" stroke-width="1" transform="matrix(1,0,0,1,115.8,178)">
                            <text fill="#969696" fill-opacity="1" font-family="&quot;MS Shell Dlg 2&quot;, sans-serif" font-size="11" font-style="normal" font-weight="400" stroke="none" x="4" xml:space="preserve" y="15">15.7 A</text>
                        </g>
                        


                        

                    </g>
                </g>
            </g>
        </g>
    </g>
    <g fill="none" fill-rule="evenodd" id="LabelItem_6" stroke="black" stroke-linecap="square" stroke-linejoin="bevel" stroke-width="1">
        <g fill="none" fill-rule="evenodd" id="QGraphicsTextItem_8" stroke="black" stroke-linecap="square" stroke-linejoin="bevel" stroke-width="1">
            


            


            <g fill="none" font-family="MS Shell Dlg 2" font-size="11" font-style="normal" font-weight="400" stroke="#969696" stroke-linecap="square" stroke-linejoin="bevel" stroke-opacity="1" stroke-width="1" transform="matrix(1,0,0,1,248.4,3)">
                <text fill="#969696" fill-opacity="1" font-family="&quot;MS Shell Dlg 2&quot;, sans-serif" font-size="14.6667" font-style="normal" font-weight="400" stroke="none" x="4" xml:space="preserve" y="19">Density profile at different currents</text>
            </g>
            


            

        </g>
    </g>
</g>

</svg>
