<?xml version="1.0" encoding="UTF-8" standalone="no"?>
<svg xmlns="http://www.w3.org/2000/svg" xmlns:xlink="http://www.w3.org/1999/xlink"  version="1.2" baseProfile="tiny">
<title>pyqtgraph SVG export</title>
<desc>Generated with Qt and pyqtgraph</desc>
<defs>
</defs>
<g fill="none" fill-rule="evenodd" id="PlotItem_1" stroke="black" stroke-linecap="square" stroke-linejoin="bevel" stroke-width="1">
    <g fill="none" fill-rule="evenodd" id="AxisItem_1" stroke="black" stroke-linecap="square" stroke-linejoin="bevel" stroke-width="1">
        <g fill="none" font-family="MS Shell Dlg 2" font-size="11" font-style="normal" font-weight="400" stroke="#969696" stroke-linecap="square" stroke-linejoin="bevel" stroke-opacity="1" stroke-width="1">
            <polyline fill="none" points="62.8,320.2 668.0,320.2" vector-effect="non-scaling-stroke"/>
        </g>
        <g fill="none" font-family="MS Shell Dlg 2" font-size="11" font-style="normal" font-weight="400" stroke="#969696" stroke-linecap="square" stroke-linejoin="bevel" stroke-opacity="0.498039" stroke-width="1">
            <polyline fill="none" points="87.0288,31.0 87.0288,320.2" vector-effect="non-scaling-stroke"/>
        </g>
        <g fill="none" font-family="MS Shell Dlg 2" font-size="11" font-style="normal" font-weight="400" stroke="#969696" stroke-linecap="square" stroke-linejoin="bevel" stroke-opacity="0.247059" stroke-width="1">
            <polyline fill="none" points="272.943,31.0 272.943,320.2" vector-effect="non-scaling-stroke"/>
            <polyline fill="none" points="458.857,31.0 458.857,320.2" vector-effect="non-scaling-stroke"/>
            <polyline fill="none" points="644.771,31.0 644.771,320.2" vector-effect="non-scaling-stroke"/>
        </g>
        <g fill="none" font-family="MS Shell Dlg 2" font-size="11" font-style="normal" font-weight="400" stroke="#969696" stroke-linecap="square" stroke-linejoin="bevel" stroke-opacity="0.164706" stroke-width="1">
            <polyline fill="none" points="179.986,31.0 179.986,320.2" vector-effect="non-scaling-stroke"/>
            <polyline fill="none" points="365.9,31.0 365.9,320.2" vector-effect="non-scaling-stroke"/>
            <polyline fill="none" points="551.814,31.0 551.814,320.2" vector-effect="non-scaling-stroke"/>
        </g>
        <g fill="none" font-family="MS Shell Dlg 2" font-size="11" font-style="normal" font-weight="400" stroke="#969696" stroke-linecap="square" stroke-linejoin="bevel" stroke-opacity="1" stroke-width="1" transform="matrix(1,0,0,1,63.3,320.2)">
            <text fill="#969696" fill-opacity="1" font-family="&quot;MS Shell Dlg 2&quot;, sans-serif" font-size="11" font-style="normal" font-weight="400" stroke="none" x="20.7188" xml:space="preserve" y="12">0</text>
            <text fill="#969696" fill-opacity="1" font-family="&quot;MS Shell Dlg 2&quot;, sans-serif" font-size="11" font-style="normal" font-weight="400" stroke="none" x="206.641" xml:space="preserve" y="12">2</text>
            <text fill="#969696" fill-opacity="1" font-family="&quot;MS Shell Dlg 2&quot;, sans-serif" font-size="11" font-style="normal" font-weight="400" stroke="none" x="392.547" xml:space="preserve" y="12">4</text>
            <text fill="#969696" fill-opacity="1" font-family="&quot;MS Shell Dlg 2&quot;, sans-serif" font-size="11" font-style="normal" font-weight="400" stroke="none" x="578.469" xml:space="preserve" y="12">6</text>
            <text fill="#969696" fill-opacity="1" font-family="&quot;MS Shell Dlg 2&quot;, sans-serif" font-size="11" font-style="normal" font-weight="400" stroke="none" x="113.672" xml:space="preserve" y="12">1</text>
            <text fill="#969696" fill-opacity="1" font-family="&quot;MS Shell Dlg 2&quot;, sans-serif" font-size="11" font-style="normal" font-weight="400" stroke="none" x="299.594" xml:space="preserve" y="12">3</text>
            <text fill="#969696" fill-opacity="1" font-family="&quot;MS Shell Dlg 2&quot;, sans-serif" font-size="11" font-style="normal" font-weight="400" stroke="none" x="485.5" xml:space="preserve" y="12">5</text>
        </g>
        <g fill="none" fill-rule="evenodd" id="QGraphicsTextItem_1" stroke="black" stroke-linecap="square" stroke-linejoin="bevel" stroke-width="1">
            


            


            <g fill="none" font-family="MS Shell Dlg 2" font-size="11" font-style="normal" font-weight="400" stroke="#ffffff" stroke-linecap="square" stroke-linejoin="bevel" stroke-opacity="1" stroke-width="1" transform="matrix(1,0,0,1,256.8,338.2)">
                <text fill="#ffffff" fill-opacity="1" font-family="&quot;MS Shell Dlg 2&quot;, sans-serif" font-size="18.6667" font-style="normal" font-weight="400" stroke="none" x="4" xml:space="preserve" y="23">Axis along beam line (m)</text>
            </g>
            


            

        </g>
    </g>
    <g fill="none" fill-rule="evenodd" id="AxisItem_2" stroke="black" stroke-linecap="square" stroke-linejoin="bevel" stroke-width="1">
        <g fill="none" font-family="MS Shell Dlg 2" font-size="11" font-style="normal" font-weight="400" stroke="#969696" stroke-linecap="square" stroke-linejoin="bevel" stroke-opacity="1" stroke-width="1">
            <polyline fill="none" points="62.8,31.0 62.8,320.2" vector-effect="non-scaling-stroke"/>
        </g>
        <g fill="none" font-family="MS Shell Dlg 2" font-size="11" font-style="normal" font-weight="400" stroke="#969696" stroke-linecap="square" stroke-linejoin="bevel" stroke-opacity="0.498039" stroke-width="1">
            <polyline fill="none" points="668.5,89.4026 63.3,89.4026" vector-effect="non-scaling-stroke"/>
        </g>
        <g fill="none" font-family="MS Shell Dlg 2" font-size="11" font-style="normal" font-weight="400" stroke="#969696" stroke-linecap="square" stroke-linejoin="bevel" stroke-opacity="0.247059" stroke-width="1">
            <polyline fill="none" points="668.5,294.508 63.3,294.508" vector-effect="non-scaling-stroke"/>
            <polyline fill="none" points="668.5,242.836 63.3,242.836" vector-effect="non-scaling-stroke"/>
            <polyline fill="none" points="668.5,206.174 63.3,206.174" vector-effect="non-scaling-stroke"/>
            <polyline fill="none" points="668.5,177.737 63.3,177.737" vector-effect="non-scaling-stroke"/>
            <polyline fill="none" points="668.5,154.502 63.3,154.502" vector-effect="non-scaling-stroke"/>
            <polyline fill="none" points="668.5,134.857 63.3,134.857" vector-effect="non-scaling-stroke"/>
            <polyline fill="none" points="668.5,117.8397 63.3,117.8397" vector-effect="non-scaling-stroke"/>
            <polyline fill="none" points="668.5,102.8296 63.3,102.8296" vector-effect="non-scaling-stroke"/>
            <polyline fill="none" points="668.5,89.4026 63.3,89.4026" vector-effect="non-scaling-stroke"/>
        </g>
        <g fill="none" font-family="MS Shell Dlg 2" font-size="11" font-style="normal" font-weight="400" stroke="#969696" stroke-linecap="square" stroke-linejoin="bevel" stroke-opacity="1" stroke-width="1" transform="matrix(1,0,0,1,1.5,31)">
            <text fill="#969696" fill-opacity="1" font-family="&quot;MS Shell Dlg 2&quot;, sans-serif" font-size="11" font-style="normal" font-weight="400" stroke="none" x="24.7969" xml:space="preserve" y="63.1875">1e+04</text>
            <text fill="#969696" fill-opacity="1" font-family="&quot;MS Shell Dlg 2&quot;, sans-serif" font-size="11" font-style="normal" font-weight="400" stroke="none" x="24.7969" xml:space="preserve" y="268.297">2e+03</text>
            <text fill="#969696" fill-opacity="1" font-family="&quot;MS Shell Dlg 2&quot;, sans-serif" font-size="11" font-style="normal" font-weight="400" stroke="none" x="24.7969" xml:space="preserve" y="216.625">3e+03</text>
            <text fill="#969696" fill-opacity="1" font-family="&quot;MS Shell Dlg 2&quot;, sans-serif" font-size="11" font-style="normal" font-weight="400" stroke="none" x="24.7969" xml:space="preserve" y="179.969">4e+03</text>
            <text fill="#969696" fill-opacity="1" font-family="&quot;MS Shell Dlg 2&quot;, sans-serif" font-size="11" font-style="normal" font-weight="400" stroke="none" x="24.7969" xml:space="preserve" y="151.531">5e+03</text>
            <text fill="#969696" fill-opacity="1" font-family="&quot;MS Shell Dlg 2&quot;, sans-serif" font-size="11" font-style="normal" font-weight="400" stroke="none" x="24.7969" xml:space="preserve" y="128.297">6e+03</text>
            <text fill="#969696" fill-opacity="1" font-family="&quot;MS Shell Dlg 2&quot;, sans-serif" font-size="11" font-style="normal" font-weight="400" stroke="none" x="24.7969" xml:space="preserve" y="108.656">7e+03</text>
            <text fill="#969696" fill-opacity="1" font-family="&quot;MS Shell Dlg 2&quot;, sans-serif" font-size="11" font-style="normal" font-weight="400" stroke="none" x="24.7969" xml:space="preserve" y="91.625">8e+03</text>
            <text fill="#969696" fill-opacity="1" font-family="&quot;MS Shell Dlg 2&quot;, sans-serif" font-size="11" font-style="normal" font-weight="400" stroke="none" x="24.7969" xml:space="preserve" y="76.625">9e+03</text>
            <text fill="#969696" fill-opacity="1" font-family="&quot;MS Shell Dlg 2&quot;, sans-serif" font-size="11" font-style="normal" font-weight="400" stroke="none" x="24.7969" xml:space="preserve" y="63.1875">1e+04</text>
        </g>
        <g fill="none" fill-rule="evenodd" id="QGraphicsTextItem_2" stroke="black" stroke-linecap="square" stroke-linejoin="bevel" stroke-width="1">
            


            


            <g fill="none" font-family="MS Shell Dlg 2" font-size="11" font-style="normal" font-weight="400" stroke="#ffffff" stroke-linecap="square" stroke-linejoin="bevel" stroke-opacity="1" stroke-width="1" transform="matrix(0,-1,1,0,-4,287)">
                <text fill="#ffffff" fill-opacity="1" font-family="&quot;MS Shell Dlg 2&quot;, sans-serif" font-size="18.6667" font-style="normal" font-weight="400" stroke="none" x="4" xml:space="preserve" y="23">Density (particles per m3)</text>
            </g>
            


            

        </g>
    </g>
    <g fill="none" fill-rule="evenodd" id="ViewBox_1" stroke="black" stroke-linecap="square" stroke-linejoin="bevel" stroke-width="1">
        <g fill="none" font-family="MS Shell Dlg 2" font-size="11" font-style="normal" font-weight="400" stroke="none">
            <path d="M62.8,31.0 L668.0,31.0 L668.0,320.2 L62.8,320.2 L62.8,31.0 " fill-rule="evenodd" vector-effect="non-scaling-stroke"/>
        </g>
        <clipPath id="ViewBox_1_clip">
            <path d="M62.8,31.0 L668.0,31.0 L668.0,320.2 L62.8,320.2 L62.8,31.0 " fill-rule="evenodd" vector-effect="non-scaling-stroke"/>
        </clipPath>
        <g clip-path="url(#ViewBox_1_clip)">
            <g fill="none" fill-rule="evenodd" id="ChildGroup_1" stroke="black" stroke-linecap="square" stroke-linejoin="bevel" stroke-width="1">
                <g id="PlotDataItem_1">
                    <g fill="none" fill-rule="evenodd" id="PlotCurveItem_1" stroke="black" stroke-linecap="square" stroke-linejoin="bevel" stroke-width="1">
                        <g fill="none" font-family="MS Shell Dlg 2" font-size="11" font-style="normal" font-weight="400" stroke="#ed815e" stroke-linecap="square" stroke-linejoin="bevel" stroke-opacity="1" stroke-width="1.5">
                            <path d="M86.528800093,284.834374 L87.6442852,282.41056786 L88.7597704,280.04838391 L89.8752556,277.74782215 L90.9907408,275.50007941 L92.106226,273.30809008 L93.2217112,271.16891977 L94.3371964,269.0766997 L95.4526816,267.03436426 L96.5681668,265.04191345 L97.683652,263.0905441 L98.7991372,261.1831906 L99.9146224,259.31985295 L101.0301076,257.49466237 L102.1455928,255.70761886 L103.261078,253.96165681 L104.3765632,252.25090744 L105.4920484,250.57537075 L106.6075336,248.93504674 L107.7230188,247.32700102 L108.838504,245.75416798 L109.9539892,244.21067884 L111.0694744,242.6965336 L112.1849596,241.21466665 L113.3004448,239.75920921 L114.41593,238.33603006 L115.5314152,236.93632603 L116.6469004,235.5659659 L117.7623856,234.21908089 L118.8778708,232.89860539 L119.993356,231.6045394 L121.1088412,230.33394853 L122.2243264,229.08683278 L123.3398116,227.86025776 L124.4552968,226.66009225 L125.570782,225.47753308 L126.6862672,224.31844903 L127.8017524,223.1828401 L128.9172376,222.06483751 L130.0327228,220.96737565 L131.148208,219.89045452 L132.2636932,218.83113973 L133.3791784,217.79236567 L134.4946636,216.77119795 L135.6101488,215.76763657 L136.725634,214.78461592 L137.8411192,213.81626722 L138.9566044,212.86552486 L140.0720896,211.92945445 L141.1875748,211.01392477 L142.30306,210.11013265 L143.4185452,209.22688126 L144.5340304,208.35536743 L145.6495156,207.50145994 L146.7650008,206.6622244 L147.880486,205.83766081 L148.9959712,205.02483478 L150.1114564,204.22961509 L151.2269416,203.44906735 L152.3424268,202.68025717 L153.457912,201.92611894 L154.5733972,201.18371827 L155.6888824,200.45598955 L156.8043676,199.73999839 L157.9198528,199.03867918 L159.035338,198.34909753 L160.1508232,197.67125344 L161.2663084,197.0080813 L162.3817936,196.35371233 L163.4972788,195.71401531 L164.612764,195.08312146 L165.7282492,194.46689956 L166.8437344,193.85948083 L167.9592196,193.26673405 L169.0747048,192.68279044 L170.19019,192.11058439 L171.3056752,191.5501159 L172.4211604,190.99845058 L173.5366456,190.45852282 L174.6521308,189.92739823 L175.767616,189.4080112 L176.8831012,188.90036173 L177.9985864,188.40151543 L179.1140716,187.91440669 L180.2295568,187.43610112 L181.345042,186.96659872 L182.4605272,186.50883388 L183.5760124,186.05693782 L184.6914976,185.61971371 L185.8069828,185.18835838 L186.922468,184.76874061 L188.0379532,184.35499162 L189.1534384,183.95298019 L190.2689236,183.55977193 L191.3844088,183.17536684 L192.499894,182.80269931 L193.6153792,182.43590056 L194.7308644,182.07790498 L195.8463496,181.72871257 L196.9618348,181.39125772 L198.07732,181.05967165 L199.1928052,180.73688875 L200.3082904,180.42290902 L201.4237756,180.11773246 L202.5392608,179.81842468 L203.654746,179.53085446 L204.7702312,179.24915302 L205.8857164,178.97918914 L207.0012016,178.71509404 L208.1166868,178.45686772 L209.232172,178.21037896 L210.3476572,177.96975898 L211.4631424,177.73794217 L212.5786276,177.51492853 L213.6941128,177.29778367 L214.809598,177.08944198 L215.9250832,176.88990346 L217.0405684,176.69916811 L218.1560536,176.51430154 L219.2715388,176.33530375 L220.387024,176.16804352 L221.5025092,176.00665207 L222.6179944,175.8511294 L223.7334796,175.7044099 L224.8489648,175.56649357 L225.96445,175.43444602 L227.0799352,175.31120164 L228.1954204,175.19676043 L229.3109056,175.088188 L230.4263908,174.98841874 L231.541876,174.89451826 L232.6573612,174.80648656 L233.7728464,174.73019242 L234.8883316,174.65683267 L236.0038168,174.59521048 L237.119302,174.53652268 L238.2347872,174.48957244 L239.3502724,174.44849098 L240.4657576,174.4132783 L241.5812428,174.38686879 L242.696728,174.36632806 L243.8122132,174.3545905 L244.9276984,174.34872172 L246.0431836,174.35165611 L247.1586688,174.36339367 L248.274154,174.38100001 L249.3896392,174.40447513 L250.5051244,174.43675342 L251.6206096,174.47783488 L252.7360948,174.52478512 L253.85158,174.57760414 L254.9670652,174.63922633 L256.0825504,174.70965169 L257.1980356,174.78594583 L258.3135208,174.86810875 L259.429006,174.95907484 L260.5444912,175.0588441 L261.6599764,175.16448214 L262.7754616,175.27892335 L263.8909468,175.39923334 L265.006432,175.5283465 L266.1219172,175.66626283 L267.2374024,175.81004794 L268.3528876,175.95970183 L269.4683728,176.12109328 L270.583858,176.28835351 L271.6993432,176.46148252 L272.8148284,176.6434147 L273.9303136,176.83415005 L275.0457988,177.03075418 L276.161284,177.23616148 L277.2767692,177.45037195 L278.3922544,177.6704512 L279.5077396,177.90226801 L280.6232248,178.13701921 L281.73871,178.38350797 L282.8541952,178.63586551 L283.9696804,178.89702622 L285.0851656,179.1669901 L286.2006508,179.44575715 L287.316136,179.73039298 L288.4316212,180.02383198 L289.5471064,180.32900854 L290.6625916,180.64005388 L291.7780768,180.956968 L292.893562,181.28561968 L294.0090472,181.62307453 L295.1245324,181.96639816 L296.2400176,182.32145935 L297.3555028,182.68532371 L298.470988,183.05505685 L299.5864732,183.43652755 L300.7019584,183.82386703 L301.8174436,184.22294407 L302.9329288,184.63082428 L304.048414,185.04750766 L305.1638992,185.47299421 L306.2793844,185.91021832 L307.3948696,186.3562456 L308.5103548,186.80814166 L309.62584,187.27470967 L310.7413252,187.74714646 L311.8568104,188.23132081 L312.9722956,188.72723272 L314.0877808,189.22901341 L315.203266,189.74546605 L316.3187512,190.26778747 L317.4342364,190.80478084 L318.5497216,191.34764299 L319.6652068,191.90517709 L320.780692,192.47151436 L321.8961772,193.04958919 L323.0116624,193.63940158 L324.1271476,194.23801714 L325.2426328,194.85130465 L326.358118,195.47339533 L327.4736032,196.10722357 L328.5890884,196.75278937 L329.7045736,197.41302712 L330.8200588,198.08206804 L331.935544,198.76578091 L333.0510292,199.46123134 L334.1665144,200.16841933 L335.2819996,200.88734488 L336.3974848,201.62094238 L337.51297,202.36921183 L338.6284552,203.12921884 L339.7439404,203.90096341 L340.8594256,204.69031432 L341.9749108,205.49140279 L343.090396,206.30716321 L344.2058812,207.13759558 L345.3213664,207.9826999 L346.4368516,208.84247617 L347.5523368,209.71985878 L348.667822,210.60897895 L349.7833072,211.51863985 L350.8987924,212.44003831 L352.0142776,213.37904311 L353.1297628,214.33565425 L354.245248,215.30987173 L355.3607332,216.30169555 L356.4762184,217.30819132 L357.5917036,218.33522782 L358.7071888,219.37987066 L359.822674,220.44505423 L360.9381592,221.52784414 L362.0536444,222.63117478 L363.1691296,223.75211176 L364.2846148,224.89652386 L365.4001,226.06147669 L366.5155852,224.90239264 L367.6310704,223.76384932 L368.7465556,222.64291234 L369.8620408,221.54545048 L370.977526,220.46559496 L372.0930112,219.40628017 L373.2084964,218.36457172 L374.3239816,217.343404 L375.4394668,216.33984262 L376.554952,215.35095319 L377.6704372,214.38260449 L378.7859224,213.42892774 L379.9014076,212.49285733 L381.0168928,211.57439326 L382.132378,210.67060114 L383.2478632,209.78441536 L384.3633484,208.91290153 L385.4788336,208.05605965 L386.5943188,207.21388972 L387.709804,206.38639174 L388.8252892,205.57356571 L389.9407744,204.77541163 L391.0562596,203.9919295 L392.1717448,203.22018493 L393.28723,202.46311231 L394.4027152,201.72071164 L395.5182004,200.99004853 L396.6336856,200.27405737 L397.7491708,199.56686938 L398.864656,198.87728773 L399.9801412,198.19650925 L401.0956264,197.53040272 L402.2111116,196.87309936 L403.3265968,196.23046795 L404.442082,195.5995741 L405.5575672,194.98041781 L406.6730524,194.37006469 L407.7885376,193.77438352 L408.9040228,193.18750552 L410.019508,192.61236508 L411.1349932,192.0489622 L412.2504784,191.49729688 L413.3659636,190.95443473 L414.4814488,190.42037575 L415.596934,189.89805433 L416.7124192,189.38747047 L417.8279044,188.88568978 L418.9433896,188.39564665 L420.0588748,187.91440669 L421.17436,187.4419699 L422.2898452,186.98127067 L423.4053304,186.52937461 L424.5208156,186.08628172 L425.6363008,185.65492639 L426.751786,185.23237423 L427.8672712,184.81569085 L428.9827564,184.41074503 L430.0982416,184.01753677 L431.2137268,183.63019729 L432.329212,183.25166098 L433.4446972,182.88192784 L434.5601824,182.52393226 L435.6756676,182.17180546 L436.7911528,181.82848183 L437.906638,181.49689576 L439.0221232,181.17117847 L440.1376084,180.85426435 L441.2530936,180.5461534 L442.3685788,180.24391123 L443.484064,179.95340662 L444.5995492,179.67170518 L445.7150344,179.39587252 L446.8305196,179.12884303 L447.9460048,178.87061671 L449.06149,178.61825917 L450.1769752,178.37763919 L451.2924604,178.14288799 L452.4079456,177.91693996 L453.5234308,177.69686071 L454.638916,177.48558463 L455.7544012,177.28311172 L456.8698864,177.08944198 L457.9853716,176.90164102 L459.1008568,176.72264323 L460.216342,176.54951422 L461.3318272,176.38518838 L462.4473124,176.22966571 L463.5627976,176.08001182 L464.6782828,175.9391611 L465.793768,175.80417916 L466.9092532,175.67800039 L468.0247384,175.56062479 L469.1402236,175.44911797 L470.2557088,175.34641432 L471.371194,175.24957945 L472.4866792,175.16154775 L473.6021644,175.07938483 L474.7176496,175.00602508 L475.8331348,174.9414685 L476.94862,174.8827807 L478.0641052,174.82996168 L479.1795904,174.78594583 L480.2950756,174.75073315 L481.4105608,174.72138925 L482.526046,174.69791413 L483.6415312,174.68324218 L484.7570164,174.6773734 L485.8725016,174.6773734 L486.9879868,174.68617657 L488.103472,174.70084852 L489.2189572,174.72138925 L490.3344424,174.75366754 L491.4499276,174.78888022 L492.5654128,174.83289607 L493.680898,174.88571509 L494.7963832,174.94440289 L495.9118684,175.01189386 L497.0273536,175.088188 L498.1428388,175.16741653 L499.258324,175.25838262 L500.3738092,175.35521749 L501.4892944,175.45792114 L502.6047796,175.56942796 L503.7202648,175.68973795 L504.83575,175.81591672 L505.9512352,175.95089866 L507.0667204,176.09174938 L508.1822056,176.24140327 L509.2976908,176.39986033 L510.413176,176.56418617 L511.5286612,176.73731518 L512.6441464,176.91924736 L513.7596316,177.10704832 L514.8751168,177.30071806 L515.990602,177.50612536 L517.1060872,177.71740144 L518.2215724,177.93748069 L519.3370576,178.16342872 L520.4525428,178.40111431 L521.568028,178.64466868 L522.6835132,178.89702622 L523.7989984,179.15525254 L524.9144836,179.42228203 L526.0299688,179.70104908 L527.145454,179.98568491 L528.2609392,180.27618952 L529.3764244,180.57843169 L530.4919096,180.88947703 L531.6073948,181.20639115 L532.72288,181.53210844 L533.8383652,181.86956329 L534.9538504,182.21288692 L536.0693356,182.56501372 L537.1848208,182.92594369 L538.300306,183.29861122 L539.4157912,183.67714753 L540.5312764,184.0674214 L541.6467616,184.46356405 L542.7622468,184.87144426 L543.877732,185.28812764 L544.9932172,185.71361419 L546.1087024,186.14790391 L547.2241876,186.5909968 L548.3396728,187.04582725 L549.455158,187.50946087 L550.5706432,187.98483205 L551.6861284,188.4690064 L552.8016136,188.96198392 L553.9170988,189.466699 L555.032584,189.98021725 L556.1480692,190.50547306 L557.2635544,191.03953204 L558.3790396,191.58532858 L559.4945248,192.14286268 L560.61001,192.70919995 L561.7254952,193.28727478 L562.8409804,193.87708717 L563.9564656,194.47863712 L565.0719508,195.08899024 L566.187436,195.71401531 L567.3029212,196.34784355 L568.4184064,196.99634374 L569.5338916,197.65658149 L570.6493768,198.3285568 L571.764862,199.01226967 L572.8803472,199.7077201 L573.9958324,200.41784248 L575.1113176,201.13970242 L576.2268028,201.87329992 L577.342288,202.62450376 L578.4577732,203.38451077 L579.5732584,204.16212412 L580.6887436,204.95147503 L581.8042288,205.75549789 L582.919714,206.5741927 L584.0351992,207.40755946 L585.1506844,208.25559817 L586.2661696,209.11830883 L587.3816548,209.99862583 L588.49714,210.89361478 L589.6126252,211.80327568 L590.7281104,212.73054292 L591.8435956,213.67248211 L592.9590808,214.63496203 L594.074566,215.6121139 L595.1900512,216.60687211 L596.3055364,217.61923666 L597.4210216,218.65214194 L598.5365068,219.70265356 L599.651992,220.77077152 L600.7674772,221.8623646 L601.8829624,222.96862963 L602.9984476,224.09836978 L604.1139328,225.24865066 L605.229418,226.41947227 L606.3449032,227.613769 L607.4603884,228.82860646 L608.5758736,230.06691904 L609.6913588,231.32870674 L610.806844,232.61396956 L611.9223292,233.9227075 L613.0378144,235.25785495 L614.1532996,236.61941191 L615.2687848,238.00737838 L616.38427,239.42175436 L617.4997552,240.86253985 L618.6152404,242.33266924 L619.7307256,243.83507692 L620.8462108,245.36389411 L621.961696,246.92792398 L623.0771812,248.52129775 L624.1926664,250.14694981 L625.3081516,251.80781455 L626.4236368,253.50389197 L627.539122,255.23811646 L628.6546072,257.00755363 L629.7700924,258.81807226 L630.8855776,260.66673796 L632.0010628,262.55648512 L633.116548,264.48731374 L634.2320332,266.4650926 L635.3475184,268.4898217 L636.4630036,270.55856665 L637.5784888,272.68013062 L638.693974,274.85157922 L639.8094592,277.07584684 L640.9249444,279.35586787 L642.0404296,281.6945767 L643.1559148,284.09197333 L644.2714,286.55392654 " fill-rule="evenodd" vector-effect="non-scaling-stroke"/>
                        </g>
                    </g>
                </g>
                <g id="PlotDataItem_2">
                    <g fill="none" fill-rule="evenodd" id="PlotCurveItem_2" stroke="black" stroke-linecap="square" stroke-linejoin="bevel" stroke-width="1">
                        <g fill="none" font-family="MS Shell Dlg 2" font-size="11" font-style="normal" font-weight="400" stroke="#c7b069" stroke-linecap="square" stroke-linejoin="bevel" stroke-opacity="1" stroke-width="1.5">
                            <path d="M86.528800093,293.26194208 L87.6442852,286.54512337 L88.7597704,280.20684097 L89.8752556,274.21481659 L90.9907408,268.53090316 L92.106226,263.13162556 L93.2217112,257.98763989 L94.3371964,253.08133981 L95.4526816,248.39511898 L96.5681668,243.90550228 L97.683652,239.60368654 L98.7991372,235.47499981 L99.9146224,231.50770453 L101.0301076,227.69006314 L102.1455928,224.01033808 L103.261078,220.46559496 L104.3765632,217.04409622 L105.4920484,213.73997308 L106.6075336,210.54442237 L107.7230188,207.4545097 L108.838504,204.4614319 L109.9539892,201.56225458 L111.0694744,198.75404335 L112.1849596,196.02799504 L113.3004448,193.38410965 L114.41593,190.81358401 L115.5314152,188.31935251 L116.6469004,185.89554637 L117.7623856,183.53629681 L118.8778708,181.24160383 L119.993356,179.00853304 L121.1088412,176.83708444 L122.2243264,174.71845486 L123.3398116,172.65851308 L124.4552968,170.64845593 L125.570782,168.68828341 L126.6862672,166.77799552 L127.8017524,164.91465787 L128.9172376,163.09533607 L130.0327228,161.32296451 L131.148208,159.59167441 L132.2636932,157.90146577 L133.3791784,156.2494042 L134.4946636,154.63842409 L135.6101488,153.06265666 L136.725634,151.52210191 L137.8411192,150.01969423 L138.9566044,148.54956484 L140.0720896,147.11464813 L141.1875748,145.70907532 L142.30306,144.33871519 L143.4185452,142.99476457 L144.5340304,141.68309224 L145.6495156,140.40076381 L146.7650008,139.14484489 L147.880486,137.91826987 L148.9959712,136.71810436 L150.1114564,135.54434836 L151.2269416,134.39406748 L152.3424268,133.27019611 L153.457912,132.17273425 L154.5733972,131.09874751 L155.6888824,130.0453015 L156.8043676,129.018265 L157.9198528,128.01176923 L159.035338,127.02874858 L160.1508232,126.06626866 L161.2663084,125.12432947 L162.3817936,124.2058654 L163.4972788,123.30500767 L164.612764,122.42469067 L165.7282492,121.5649144 L166.8437344,120.72274447 L167.9592196,119.90111527 L169.0747048,119.09709241 L170.19019,118.31067589 L171.3056752,117.5448001 L172.4211604,116.79359626 L173.5366456,116.06293315 L174.6521308,115.34694199 L175.767616,114.64855717 L176.8831012,113.96777869 L177.9985864,113.30167216 L179.1140716,112.65317197 L180.2295568,112.02227812 L181.345042,111.40312183 L182.4605272,110.80157188 L183.5760124,110.21469388 L184.6914976,109.64542222 L185.8069828,109.08788812 L186.922468,108.54502597 L188.0379532,108.01977016 L189.1534384,107.50625191 L190.2689236,107.00740561 L191.3844088,106.52323126 L192.499894,106.05372886 L193.6153792,105.59596402 L194.7308644,105.15287113 L195.8463496,104.72445019 L196.9618348,104.30776681 L198.07732,103.90575538 L199.1928052,103.51548151 L200.3082904,103.13987959 L201.4237756,102.77601523 L202.5392608,102.42682282 L203.654746,102.08643358 L204.7702312,101.76071629 L205.8857164,101.44967095 L207.0012016,101.14742878 L208.1166868,100.85985856 L209.232172,100.5840259 L210.3476572,100.3199308 L211.4631424,100.07050765 L212.5786276,99.82988767 L213.6941128,99.60393964 L214.809598,99.38679478 L215.9250832,99.18432187 L217.0405684,98.99065213 L218.1560536,98.81165434 L219.2715388,98.64439411 L220.387024,98.48593705 L221.5025092,98.34215194 L222.6179944,98.20717 L223.7334796,98.08686001 L224.8489648,97.97535319 L225.96445,97.87558393 L227.0799352,97.79048662 L228.1954204,97.71419248 L229.3109056,97.6496359 L230.4263908,97.59681688 L231.541876,97.55280103 L232.6573612,97.52345713 L233.7728464,97.50585079 L234.8883316,97.49704762 L236.0038168,97.49998201 L237.119302,97.51465396 L238.2347872,97.54106347 L239.3502724,97.57921054 L240.4657576,97.62909517 L241.5812428,97.69071736 L242.696728,97.76114272 L243.8122132,97.84624003 L244.9276984,97.94014051 L246.0431836,98.04577855 L247.1586688,98.16608854 L248.274154,98.2952017 L249.3896392,98.43605242 L250.5051244,98.5886407 L251.6206096,98.75296654 L252.7360948,98.92902994 L253.85158,99.1168309 L254.9670652,99.31636942 L256.0825504,99.5276455 L257.1980356,99.75065914 L258.3135208,99.98541034 L259.429006,100.2318991 L260.5444912,100.49305981 L261.6599764,100.76302369 L262.7754616,101.04765952 L263.8909468,101.34403291 L265.006432,101.65214386 L266.1219172,101.97492676 L267.2374024,102.30651283 L268.3528876,102.65277085 L269.4683728,103.01370082 L270.583858,103.38343396 L271.6993432,103.77077344 L272.8148284,104.16691609 L273.9303136,104.57773069 L275.0457988,105.00321724 L276.161284,105.44044135 L277.2767692,105.89233741 L278.3922544,106.35890542 L279.5077396,106.83721099 L280.6232248,107.33018851 L281.73871,107.83783798 L282.8541952,108.3601594 L283.9696804,108.89715277 L285.0851656,109.44881809 L286.2006508,110.01515536 L287.316136,110.59616458 L288.4316212,111.19184575 L289.5471064,111.80219887 L290.6625916,112.43015833 L291.7780768,113.07278974 L292.893562,113.73302749 L294.0090472,114.40793719 L295.1245324,115.10045323 L296.2400176,115.80764122 L297.3555028,116.53536994 L298.470988,117.27777061 L299.5864732,118.03777762 L300.7019584,118.81539097 L301.8174436,119.61354505 L302.9329288,120.42930547 L304.048414,121.26267223 L305.1638992,122.11657972 L306.2793844,122.98809355 L307.3948696,123.88014811 L308.5103548,124.7927434 L309.62584,125.72587942 L310.7413252,126.68249056 L311.8568104,127.65670804 L312.9722956,128.65440064 L314.0877808,129.67556836 L315.203266,130.71727681 L316.3187512,131.78246038 L317.4342364,132.87405346 L318.5497216,133.98618727 L319.6652068,135.12473059 L320.780692,136.28968342 L321.8961772,137.48104576 L323.0116624,138.69588322 L324.1271476,139.94006458 L325.2426328,141.21358984 L326.358118,142.51352461 L327.4736032,143.84280328 L328.5890884,145.20436024 L329.7045736,146.5952611 L330.8200588,148.01844025 L331.935544,149.47683208 L333.0510292,150.9675022 L334.1665144,152.49045061 L335.2819996,154.05154609 L336.3974848,155.64785425 L337.51297,157.28524387 L338.6284552,158.96078056 L339.7439404,160.67446432 L340.8594256,162.43216393 L341.9749108,164.230945 L343.090396,166.07667631 L344.2058812,167.96935786 L345.3213664,169.90898965 L346.4368516,171.89850607 L347.5523368,173.93790712 L348.667822,176.03306158 L349.7833072,178.18396945 L350.8987924,180.39356512 L352.0142776,182.66184859 L353.1297628,184.99175425 L354.245248,187.39208527 L355.3607332,189.85697287 L356.4762184,192.39522022 L357.5917036,195.00976171 L358.7071888,197.70059734 L359.822674,200.47653028 L360.9381592,203.33756053 L362.0536444,206.28955687 L363.1691296,209.34132247 L364.2846148,212.49285733 L365.4001,215.75003023 L366.5155852,212.50459489 L367.6310704,209.36479759 L368.7465556,206.32770394 L369.8620408,203.38451077 L370.977526,200.53521808 L372.0930112,197.76808831 L373.2084964,195.08605585 L374.3239816,192.48325192 L375.4394668,189.95380774 L376.554952,187.49478892 L377.6704372,185.10619546 L378.7859224,182.78215858 L379.9014076,180.52267828 L381.0168928,178.32188578 L382.132378,176.17684669 L383.2478632,174.0904954 L384.3633484,172.05696313 L385.4788336,170.07331549 L386.5943188,168.13955248 L387.709804,166.2556741 L388.8252892,164.41581157 L389.9407744,162.62289928 L391.0562596,160.87106845 L392.1717448,159.16325347 L393.28723,157.49358556 L394.4027152,155.86206472 L395.5182004,154.27162534 L396.6336856,152.71639864 L397.7491708,151.19638462 L398.864656,149.71158328 L399.9801412,148.25906023 L401.0956264,146.84174986 L402.2111116,145.45378339 L403.3265968,144.09809521 L404.442082,142.77468532 L405.5575672,141.47768494 L406.6730524,140.21002846 L407.7885376,138.96878149 L408.9040228,137.75687842 L410.019508,136.57138486 L411.1349932,135.41230081 L412.2504784,134.27669188 L413.3659636,133.16749246 L414.4814488,132.08176816 L415.596934,131.02245337 L416.7124192,129.98367931 L417.8279044,128.96838037 L418.9433896,127.97362216 L420.0588748,127.00233907 L421.17436,126.05159671 L422.2898452,125.12139508 L423.4053304,124.21466857 L424.5208156,123.3255484 L425.6363008,122.45696896 L426.751786,121.60893025 L427.8672712,120.77849788 L428.9827564,119.96567185 L430.0982416,119.17338655 L431.2137268,118.39870759 L432.329212,117.64163497 L433.4446972,116.90216869 L434.5601824,116.18030875 L435.6756676,115.47605515 L436.7911528,114.7864735 L437.906638,114.11449819 L439.0221232,113.46012922 L440.1376084,112.8204322 L441.2530936,112.19834152 L442.3685788,111.59092279 L443.484064,110.99817601 L444.5995492,110.42010118 L445.7150344,109.85963269 L446.8305196,109.31090176 L447.9460048,108.77977717 L449.06149,108.26039014 L450.1769752,107.75860945 L451.2924604,107.26856632 L452.4079456,106.79319514 L453.5234308,106.33249591 L454.638916,105.88353424 L455.7544012,105.44924452 L456.8698864,105.02962675 L457.9853716,104.62174654 L459.1008568,104.22853828 L460.216342,103.84706758 L461.3318272,103.47733444 L462.4473124,103.12227325 L463.5627976,102.78188401 L464.6782828,102.45029794 L465.793768,102.13338382 L466.9092532,101.83114165 L468.0247384,101.53770265 L469.1402236,101.2589356 L470.2557088,100.99190611 L471.371194,100.73661418 L472.4866792,100.49305981 L473.6021644,100.261243 L474.7176496,100.04116375 L475.8331348,99.83575645 L476.94862,99.63915232 L478.0641052,99.45722014 L479.1795904,99.28409113 L480.2950756,99.12563407 L481.4105608,98.97598018 L482.526046,98.84099824 L483.6415312,98.71481947 L484.7570164,98.60331265 L485.8725016,98.500609 L486.9879868,98.40964291 L488.103472,98.33041438 L489.2189572,98.26292341 L490.3344424,98.20717 L491.4499276,98.16315415 L492.5654128,98.13087586 L493.680898,98.11033513 L494.7963832,98.09859757 L495.9118684,98.10153196 L497.0273536,98.11326952 L498.1428388,98.13674464 L499.258324,98.17195732 L500.3738092,98.21890756 L501.4892944,98.27759536 L502.6047796,98.34802072 L503.7202648,98.43018364 L504.83575,98.52114973 L505.9512352,98.62678777 L507.0667204,98.74416337 L508.1822056,98.87034214 L509.2976908,99.00825847 L510.413176,99.16084675 L511.5286612,99.3222382 L512.6441464,99.4983016 L513.7596316,99.68316817 L514.8751168,99.88270669 L515.990602,100.09104838 L517.1060872,100.31406202 L518.2215724,100.54587883 L519.3370576,100.79236759 L520.4525428,101.05059391 L521.568028,101.32055779 L522.6835132,101.60225923 L523.7989984,101.89863262 L524.9144836,102.20674357 L526.0299688,102.52659208 L527.145454,102.85817815 L528.2609392,103.20443617 L529.3764244,103.56243175 L530.4919096,103.93216489 L531.6073948,104.31656998 L532.72288,104.71271263 L533.8383652,105.12352723 L534.9538504,105.54901378 L536.0693356,105.98623789 L537.1848208,106.43519956 L538.300306,106.90176757 L539.4157912,107.38007314 L540.5312764,107.87305066 L541.6467616,108.38070013 L542.7622468,108.90008716 L543.877732,109.43708053 L544.9932172,109.98874585 L546.1087024,110.55508312 L547.2241876,111.13315795 L548.3396728,111.73177351 L549.455158,112.34212663 L550.5706432,112.97008609 L551.6861284,113.6127175 L552.8016136,114.27295525 L553.9170988,114.94786495 L555.032584,115.64038099 L556.1480692,116.34756898 L557.2635544,117.0752977 L558.3790396,117.81769837 L559.4945248,118.58063977 L560.61001,119.35825312 L561.7254952,120.1564072 L562.8409804,120.97216762 L563.9564656,121.80846877 L565.0719508,122.66237626 L566.187436,123.53682448 L567.3029212,124.42887904 L568.4184064,125.34440872 L569.5338916,126.27754474 L570.6493768,127.23415588 L571.764862,128.21130775 L572.8803472,129.20900035 L573.9958324,130.23310246 L575.1113176,131.2777453 L576.2268028,132.34292887 L577.342288,133.43452195 L578.4577732,134.55252454 L579.5732584,135.69400225 L580.6887436,136.85895508 L581.8042288,138.05325181 L582.919714,139.27102366 L584.0351992,140.51813941 L585.1506844,141.79459906 L586.2661696,143.09746822 L587.3816548,144.43261567 L588.49714,145.79710702 L589.6126252,147.19094227 L590.7281104,148.6199902 L591.8435956,150.07838203 L592.9590808,151.57198654 L594.074566,153.10373812 L595.1900512,154.66776799 L596.3055364,156.26994493 L597.4210216,157.91026894 L598.5365068,159.59167441 L599.651992,161.31122695 L600.7674772,163.07479534 L601.8829624,164.88237958 L602.9984476,166.73397967 L604.1139328,168.63253 L605.229418,170.57803057 L606.3449032,172.57635016 L607.4603884,174.62455438 L608.5758736,176.72851201 L609.6913588,178.88822305 L610.806844,181.1036875 L611.9223292,183.38370853 L613.0378144,185.72535175 L614.1532996,188.13448594 L615.2687848,190.6111111 L616.38427,193.16109601 L617.4997552,195.78737506 L618.6152404,198.49581703 L619.7307256,201.28348753 L620.8462108,204.16212412 L621.961696,207.1317268 L623.0771812,210.19816435 L624.1926664,213.36730555 L625.3081516,216.64501918 L626.4236368,220.04010841 L627.539122,223.55550763 L628.6546072,227.2029544 L629.7700924,230.98538311 L630.8855776,234.9204001 L632.0010628,239.01093976 L633.116548,243.27167404 L634.2320332,247.7143405 L635.3475184,252.35654548 L636.4630036,257.21296093 L637.5784888,262.2982588 L638.693974,267.6388486 L639.8094592,273.25527106 L640.9249444,279.17393569 L642.0404296,285.43005517 L643.1559148,292.06177657 L644.2714,299.10724696 " fill-rule="evenodd" vector-effect="non-scaling-stroke"/>
                        </g>
                    </g>
                </g>
                <g id="PlotDataItem_3">
                    <g fill="none" fill-rule="evenodd" id="PlotCurveItem_3" stroke="black" stroke-linecap="square" stroke-linejoin="bevel" stroke-width="1">
                        <g fill="none" font-family="MS Shell Dlg 2" font-size="11" font-style="normal" font-weight="400" stroke="#7ea695" stroke-linecap="square" stroke-linejoin="bevel" stroke-opacity="1" stroke-width="1.5">
                            <path d="M86.528800093,294.90226609 L87.6442852,286.09909609 L88.7597704,277.92095116 L89.8752556,270.29447155 L90.9907408,263.1492319 L92.106226,256.43534758 L93.2217112,250.10293396 L94.3371964,244.11677836 L95.4526816,238.4416681 L96.5681668,233.05119367 L97.683652,227.92187995 L98.7991372,223.02731743 L99.9146224,218.34989977 L101.0301076,213.87495502 L102.1455928,209.58781123 L103.261078,205.47379645 L104.3765632,201.52117312 L105.4920484,197.71820368 L106.6075336,194.05608496 L107.7230188,190.52601379 L108.838504,187.12212139 L109.9539892,183.83560459 L111.0694744,180.65766022 L112.1849596,177.58535389 L113.3004448,174.61281682 L114.41593,171.73124584 L115.5314152,168.94064095 L116.6469004,166.23513337 L117.7623856,163.61178871 L118.8778708,161.0618038 L119.993356,158.58811303 L121.1088412,156.18484762 L122.2243264,153.84613879 L123.3398116,151.57492093 L124.4552968,149.36532526 L125.570782,147.211483 L126.6862672,145.11926293 L127.8017524,143.07986188 L128.9172376,141.09034546 L130.0327228,139.15658245 L131.148208,137.26976968 L132.2636932,135.42990715 L133.3791784,133.63406047 L134.4946636,131.88516403 L135.6101488,130.17734905 L136.725634,128.51061553 L137.8411192,126.88496347 L138.9566044,125.29745848 L140.0720896,123.74810056 L141.1875748,122.23688971 L142.30306,120.75795715 L143.4185452,119.31717166 L144.5340304,117.90573007 L145.6495156,116.52950116 L146.7650008,115.18261615 L147.880486,113.86800943 L148.9959712,112.585681 L150.1114564,111.32976208 L151.2269416,110.10318706 L152.3424268,108.90302155 L153.457912,107.73219994 L154.5733972,106.58778784 L155.6888824,105.46978525 L156.8043676,104.37525778 L157.9198528,103.30713982 L159.035338,102.26249698 L160.1508232,101.24132926 L161.2663084,100.24363666 L162.3817936,99.26941918 L163.4972788,98.31574243 L164.612764,97.3855408 L165.7282492,96.47881429 L166.8437344,95.58969412 L167.9592196,94.72404907 L169.0747048,93.87601036 L170.19019,93.04851238 L171.3056752,92.24155513 L172.4211604,91.45513861 L173.5366456,90.68632843 L174.6521308,89.93512459 L175.767616,89.20152709 L176.8831012,88.48847032 L177.9985864,87.79301989 L179.1140716,87.1151758 L180.2295568,86.45200366 L181.345042,85.80937225 L182.4605272,85.18141279 L183.5760124,84.57105967 L184.6914976,83.9753785 L185.8069828,83.39730367 L186.922468,82.83390079 L188.0379532,82.28810425 L189.1534384,81.75697966 L190.2689236,81.24052702 L191.3844088,80.74168072 L192.499894,80.25457198 L193.6153792,79.78506958 L194.7308644,79.32730474 L195.8463496,78.88714624 L196.9618348,78.4587253 L198.07732,78.0479107 L199.1928052,77.64883366 L200.3082904,77.26442857 L201.4237756,76.89176104 L202.5392608,76.53669985 L203.654746,76.19337622 L204.7702312,75.86472454 L205.8857164,75.54781042 L207.0012016,75.24556825 L208.1166868,74.95506364 L209.232172,74.67923098 L210.3476572,74.41513588 L211.4631424,74.16571273 L212.5786276,73.92802714 L213.6941128,73.70207911 L214.809598,73.49080303 L215.9250832,73.2941989 L217.0405684,73.10639794 L218.1560536,72.93326893 L219.2715388,72.77187748 L220.387024,72.62515798 L221.5025092,72.49017604 L222.6179944,72.36693166 L223.7334796,72.25542484 L224.8489648,72.15565558 L225.96445,72.07055827 L227.0799352,71.99719852 L228.1954204,71.93557633 L229.3109056,71.8856917 L230.4263908,71.85047902 L231.541876,71.82406951 L232.6573612,71.81233195 L233.7728464,71.81233195 L234.8883316,71.82406951 L236.0038168,71.85047902 L237.119302,71.8856917 L238.2347872,71.93557633 L239.3502724,71.99719852 L240.4657576,72.07055827 L241.5812428,72.15858997 L242.696728,72.25542484 L243.8122132,72.36693166 L244.9276984,72.49017604 L246.0431836,72.62515798 L247.1586688,72.77481187 L248.274154,72.93620332 L249.3896392,73.10933233 L250.5051244,73.2941989 L251.6206096,73.49373742 L252.7360948,73.7050135 L253.85158,73.93096153 L254.9670652,74.16864712 L256.0825504,74.41807027 L257.1980356,74.68216537 L258.3135208,74.95799803 L259.429006,75.24850264 L260.5444912,75.55074481 L261.6599764,75.86765893 L262.7754616,76.19631061 L263.8909468,76.53963424 L265.006432,76.89762982 L266.1219172,77.26736296 L267.2374024,77.65176805 L268.3528876,78.05084509 L269.4683728,78.46459408 L270.583858,78.89008063 L271.6993432,79.33317352 L272.8148284,79.78800397 L273.9303136,80.26044076 L275.0457988,80.74461511 L276.161284,81.2463958 L277.2767692,81.76284844 L278.3922544,82.29397303 L279.5077396,82.83976957 L280.6232248,83.40317245 L281.73871,83.98124728 L282.8541952,84.57692845 L283.9696804,85.18728157 L285.0851656,85.81524103 L286.2006508,86.46080683 L287.316136,87.12104458 L288.4316212,87.79888867 L289.5471064,88.49727349 L290.6625916,89.21033026 L291.7780768,89.94099337 L292.893562,90.69219721 L294.0090472,91.46100739 L295.1245324,92.2503583 L296.2400176,93.05731555 L297.3555028,93.88481353 L298.470988,94.72991785 L299.5864732,95.59849729 L300.7019584,96.48761746 L301.8174436,97.39434397 L302.9329288,98.32747999 L304.048414,99.27822235 L305.1638992,100.25243983 L306.2793844,101.25013243 L307.3948696,102.27130015 L308.5103548,103.31594299 L309.62584,104.38699534 L310.7413252,105.47858842 L311.8568104,106.5995254 L312.9722956,107.7439375 L314.0877808,108.91475911 L315.203266,110.11492462 L316.3187512,111.34149964 L317.4342364,112.59741856 L318.5497216,113.88268138 L319.6652068,115.1972881 L320.780692,116.54123872 L321.8961772,117.92040202 L323.0116624,119.32890922 L324.1271476,120.7726291 L325.2426328,122.25156166 L326.358118,123.76277251 L327.4736032,125.31213043 L328.5890884,126.89963542 L329.7045736,128.52822187 L330.8200588,130.192021 L331.935544,131.89983598 L333.0510292,133.65166681 L334.1665144,135.4445791 L335.2819996,137.28444163 L336.3974848,139.17418879 L337.51297,141.11088619 L338.6284552,143.09746822 L339.7439404,145.13686927 L340.8594256,147.23202373 L341.9749108,149.3829316 L343.090396,151.59546166 L344.2058812,153.86667952 L345.3213664,156.20538835 L346.4368516,158.60865376 L347.5523368,161.08527892 L348.667822,163.63232944 L349.7833072,166.25860849 L350.8987924,168.96705046 L352.0142776,171.75765535 L353.1297628,174.63629194 L354.245248,177.6117634 L355.3607332,180.68406973 L356.4762184,183.8620141 L357.5917036,187.15146529 L358.7071888,190.55535769 L359.822674,194.08542886 L360.9381592,197.74754758 L362.0536444,201.55345141 L363.1691296,205.50607474 L364.2846148,209.62302391 L365.4001,213.91310209 L366.5155852,209.64063025 L367.6310704,205.53835303 L368.7465556,201.60040165 L369.8620408,197.80916977 L370.977526,194.161723 L372.0930112,190.64338939 L373.2084964,187.24830016 L374.3239816,183.97352092 L375.4394668,180.80437972 L376.554952,177.74087656 L377.6704372,174.77714266 L378.7859224,171.90730924 L379.9014076,169.12550752 L381.0168928,166.42586872 L382.132378,163.80839284 L383.2478632,161.27014549 L384.3633484,158.8023235 L385.4788336,156.40492687 L386.5943188,154.07502121 L387.709804,151.80967213 L388.8252892,149.60301085 L389.9407744,147.45797176 L391.0562596,145.37162047 L392.1717448,143.33515381 L393.28723,141.35444056 L394.4027152,139.42361194 L395.5182004,137.54266795 L396.6336856,135.7086742 L397.7491708,133.9186963 L398.864656,132.17566864 L399.9801412,130.47372244 L401.0956264,128.8128577 L402.2111116,127.19014003 L403.3265968,125.60850382 L404.442082,124.06501468 L405.5575672,122.55673822 L406.6730524,121.08367444 L407.7885376,119.64288895 L408.9040228,118.24025053 L410.019508,116.86695601 L411.1349932,115.52593978 L412.2504784,114.21426745 L413.3659636,112.93487341 L414.4814488,111.68482327 L415.596934,110.46118264 L416.7124192,109.26688591 L417.8279044,108.09899869 L418.9433896,106.95752098 L420.0588748,105.84245278 L421.17436,104.75379409 L422.2898452,103.68861052 L423.4053304,102.64983646 L424.5208156,101.63160313 L425.6363008,100.63977931 L426.751786,99.66849622 L427.8672712,98.72068825 L428.9827564,97.79342101 L430.0982416,96.8866945 L431.2137268,96.00344311 L432.329212,95.14073245 L433.4446972,94.29856252 L434.5601824,93.47399893 L435.6756676,92.66997607 L436.7911528,91.88649394 L437.906638,91.12061815 L439.0221232,90.37528309 L440.1376084,89.64755437 L441.2530936,88.93743199 L442.3685788,88.24491595 L443.484064,87.57000625 L444.5995492,86.91270289 L445.7150344,86.27300587 L446.8305196,85.6479808 L447.9460048,85.04056207 L449.06149,84.45074968 L450.1769752,83.87560924 L451.2924604,83.31807514 L452.4079456,82.77521299 L453.5234308,82.24702279 L454.638916,81.73643893 L455.7544012,81.24052702 L456.8698864,80.75928706 L457.9853716,80.29271905 L459.1008568,79.8378886 L460.216342,79.40066449 L461.3318272,78.97811233 L462.4473124,78.57023212 L463.5627976,78.17702386 L464.6782828,77.79555316 L465.793768,77.42875441 L466.9092532,77.07662761 L468.0247384,76.73623837 L469.1402236,76.41052108 L470.2557088,76.09947574 L471.371194,75.80016796 L472.4866792,75.51553213 L473.6021644,75.24263386 L474.7176496,74.98440754 L475.8331348,74.73791878 L476.94862,74.50610197 L478.0641052,74.28602272 L479.1795904,74.08061542 L480.2950756,73.88694568 L481.4105608,73.7050135 L482.526046,73.53481888 L483.6415312,73.37929621 L484.7570164,73.2355111 L485.8725016,73.10346355 L486.9879868,72.98608795 L488.103472,72.88044991 L489.2189572,72.78654943 L490.3344424,72.7073209 L491.4499276,72.63689554 L492.5654128,72.58114213 L493.680898,72.53712628 L494.7963832,72.50484799 L495.9118684,72.48724165 L497.0273536,72.47843848 L498.1428388,72.48430726 L499.258324,72.5019136 L500.3738092,72.5312575 L501.4892944,72.57527335 L502.6047796,72.63102676 L503.7202648,72.69851773 L504.83575,72.77774626 L505.9512352,72.86871235 L507.0667204,72.97435039 L508.1822056,73.09172599 L509.2976908,73.22083915 L510.413176,73.36168987 L511.5286612,73.51721254 L512.6441464,73.68447277 L513.7596316,73.86347056 L514.8751168,74.0571403 L515.990602,74.2625476 L517.1060872,74.47969246 L518.2215724,74.71150927 L519.3370576,74.95506364 L520.4525428,75.21328996 L521.568028,75.48325384 L522.6835132,75.76788967 L523.7989984,76.06426306 L524.9144836,76.3753084 L526.0299688,76.6980913 L527.145454,77.03554615 L528.2609392,77.38767295 L529.3764244,77.75153731 L530.4919096,78.13007362 L531.6073948,78.52328188 L532.72288,78.93116209 L533.8383652,79.35077986 L534.9538504,79.78800397 L536.0693356,80.23696564 L537.1848208,80.70353365 L538.300306,81.18183922 L539.4157912,81.67775113 L540.5312764,82.18833499 L541.6467616,82.7135908 L542.7622468,83.25351856 L543.877732,83.81105266 L544.9932172,84.38325871 L546.1087024,84.9730711 L547.2241876,85.57755544 L548.3396728,86.19964612 L549.455158,86.83934314 L550.5706432,87.49371211 L551.6861284,88.16568742 L552.8016136,88.85526907 L553.9170988,89.56539145 L555.032584,90.29018578 L556.1480692,91.03552084 L557.2635544,91.79846224 L558.3790396,92.57900998 L559.4945248,93.38009845 L560.61001,94.20172765 L561.7254952,95.04389758 L562.8409804,95.90367385 L563.9564656,96.78399085 L565.0719508,97.68778297 L566.187436,98.61211582 L567.3029212,99.5569894 L568.4184064,100.5253381 L569.5338916,101.51716192 L570.6493768,102.52952647 L571.764862,103.56830053 L572.8803472,104.63054971 L573.9958324,105.71627401 L575.1113176,106.82840782 L576.2268028,107.96695114 L577.342288,109.13190397 L578.4577732,110.32326631 L579.5732584,111.54103816 L580.6887436,112.7910883 L581.8042288,114.06754795 L582.919714,115.3733515 L584.0351992,116.71143334 L585.1506844,118.07885908 L586.2661696,119.4814975 L587.3816548,120.91641421 L588.49714,122.38360921 L589.6126252,123.88895128 L590.7281104,125.42950603 L591.8435956,127.00820785 L592.9590808,128.62505674 L594.074566,130.2800527 L595.1900512,131.97906451 L596.3055364,133.71915778 L597.4210216,135.5032669 L598.5365068,137.33139187 L599.651992,139.20646708 L600.7674772,141.13142692 L601.8829624,143.10627139 L602.9984476,145.13393488 L604.1139328,147.21735178 L605.229418,149.35652209 L606.3449032,151.5543802 L607.4603884,153.8138605 L608.5758736,156.13496299 L609.6913588,158.52649084 L610.806844,160.98550966 L611.9223292,163.51788823 L613.0378144,166.12362655 L614.1532996,168.81446218 L615.2687848,171.58452634 L616.38427,174.44555659 L617.4997552,177.40048732 L618.6152404,180.45225292 L619.7307256,183.60672217 L620.8462108,186.86976385 L621.961696,190.25018113 L623.0771812,193.75384279 L624.1926664,197.389552 L625.3081516,201.16317754 L626.4236368,205.08352258 L627.539122,209.16525907 L628.6546072,213.41719018 L629.7700924,217.85398786 L630.8855776,222.49032406 L632.0010628,227.33793634 L633.116548,232.42323421 L634.2320332,237.76088962 L635.3475184,243.37731208 L636.4630036,249.2989111 L637.5784888,255.56089936 L638.693974,262.19848954 L639.8094592,269.25569749 L640.9249444,276.78534223 L642.0404296,284.84904595 L643.1559148,293.52603718 L644.2714,302.90728201 " fill-rule="evenodd" vector-effect="non-scaling-stroke"/>
                        </g>
                    </g>
                </g>
                <g id="PlotDataItem_4">
                    <g fill="none" fill-rule="evenodd" id="PlotCurveItem_4" stroke="black" stroke-linecap="square" stroke-linejoin="bevel" stroke-width="1">
                        <g fill="none" font-family="MS Shell Dlg 2" font-size="11" font-style="normal" font-weight="400" stroke="#8a7c91" stroke-linecap="square" stroke-linejoin="bevel" stroke-opacity="1" stroke-width="1.5">
                            <path d="M86.528800093,293.88990154 L87.6442852,282.94462684 L88.7597704,272.93835694 L89.8752556,263.72730673 L90.9907408,255.19996939 L92.106226,247.26537883 L93.2217112,239.85310969 L94.3371964,232.89860539 L95.4526816,226.35491569 L96.5681668,220.17802474 L97.683652,214.33271986 L98.7991372,208.78672276 L99.9146224,203.51362393 L101.0301076,198.49288264 L102.1455928,193.69808938 L103.261078,189.11750659 L104.3765632,184.73059354 L105.4920484,180.52267828 L106.6075336,176.48495764 L107.7230188,172.60569406 L108.838504,168.87314998 L109.9539892,165.27558784 L111.0694744,161.81007325 L112.1849596,158.46486865 L113.3004448,155.23410526 L114.41593,152.10897991 L115.5314152,149.0894926 L116.6469004,146.16684016 L117.7623856,143.33515381 L118.8778708,140.59149916 L119.993356,137.93000743 L121.1088412,135.34774423 L122.2243264,132.84470956 L123.3398116,130.40916586 L124.4552968,128.04698191 L125.570782,125.74642015 L126.6862672,123.51334936 L127.8017524,121.33896637 L128.9172376,119.22620557 L130.0327228,117.16626379 L131.148208,115.16207542 L132.2636932,113.20777168 L133.3791784,111.30628696 L134.4946636,109.45175248 L135.6101488,107.64710263 L136.725634,105.88353424 L137.8411192,104.16691609 L138.9566044,102.4913794 L140.0720896,100.85692417 L141.1875748,99.26061601 L142.30306,97.70538931 L143.4185452,96.18537529 L144.5340304,94.70350834 L145.6495156,93.25685407 L146.7650008,91.84247809 L147.880486,90.46331479 L148.9959712,89.11642978 L150.1114564,87.79888867 L151.2269416,86.51362585 L152.3424268,85.26064132 L153.457912,84.0340663 L154.5733972,82.83683518 L155.6888824,81.66601357 L156.8043676,80.52453586 L157.9198528,79.40946766 L159.035338,78.31787458 L160.1508232,77.25269101 L161.2663084,76.21391695 L162.3817936,75.19861801 L163.4972788,74.20679419 L164.612764,73.23844549 L165.7282492,72.29357191 L166.8437344,71.37217345 L167.9592196,70.47131572 L169.0747048,69.59099872 L170.19019,68.73415684 L171.3056752,67.8949213 L172.4211604,67.07916088 L173.5366456,66.28394119 L174.6521308,65.50632784 L175.767616,64.74925522 L176.8831012,64.00978894 L177.9985864,63.29086339 L179.1140716,62.58954418 L180.2295568,61.9087657 L181.345042,61.24265917 L182.4605272,60.59709337 L183.5760124,59.96619952 L184.6914976,59.3558464 L185.8069828,58.76016523 L186.922468,58.1820904 L188.0379532,57.61868752 L189.1534384,57.07582537 L190.2689236,56.54470078 L191.3844088,56.03411692 L192.499894,55.53527062 L193.6153792,55.05403066 L194.7308644,54.58746265 L195.8463496,54.13850098 L196.9618348,53.70127687 L198.07732,53.2816591 L199.1928052,52.87671328 L200.3082904,52.48643941 L201.4237756,52.11083749 L202.5392608,51.74697313 L203.654746,51.40071511 L204.7702312,51.06912904 L205.8857164,50.74928053 L207.0012016,50.44410397 L208.1166868,50.15359936 L209.232172,49.8777667 L210.3476572,49.6136716 L211.4631424,49.36424845 L212.5786276,49.12949725 L213.6941128,48.909418 L214.809598,48.70107631 L215.9250832,48.50447218 L217.0405684,48.32254 L218.1560536,48.15527977 L219.2715388,47.9997571 L220.387024,47.85890638 L221.5025092,47.72979322 L222.6179944,47.61241762 L223.7334796,47.51264836 L224.8489648,47.42168227 L225.96445,47.34538813 L227.0799352,47.28376594 L228.1954204,47.23388131 L229.3109056,47.19573424 L230.4263908,47.17225912 L231.541876,47.16052156 L232.6573612,47.16052156 L233.7728464,47.17519351 L234.8883316,47.20453741 L236.0038168,47.24561887 L237.119302,47.29843789 L238.2347872,47.36592886 L239.3502724,47.44515739 L240.4657576,47.53905787 L241.5812428,47.64469591 L242.696728,47.76207151 L243.8122132,47.89411906 L244.9276984,48.04083856 L246.0431836,48.19929562 L247.1586688,48.37242463 L248.274154,48.5572912 L249.3896392,48.75682972 L250.5051244,48.9681058 L251.6206096,49.19405383 L252.7360948,49.43173942 L253.85158,49.68703135 L254.9670652,49.95112645 L256.0825504,50.23282789 L257.1980356,50.52626689 L258.3135208,50.83437784 L259.429006,51.15716074 L260.5444912,51.49461559 L261.6599764,51.84674239 L262.7754616,52.21060675 L263.8909468,52.59207745 L265.006432,52.9882201 L266.1219172,53.39610031 L267.2374024,53.82158686 L268.3528876,54.26174536 L269.4683728,54.71657581 L270.583858,55.18607821 L271.6993432,55.67025256 L272.8148284,56.17203325 L273.9303136,56.69142028 L275.0457988,57.22547926 L276.161284,57.77421019 L277.2767692,58.34054746 L278.3922544,58.92449107 L279.5077396,59.52310663 L280.6232248,60.13932853 L281.73871,60.77315677 L282.8541952,61.42459135 L283.9696804,62.09656666 L285.0851656,62.78321392 L286.2006508,63.49040191 L287.316136,64.21519624 L288.4316212,64.95759691 L289.5471064,65.72053831 L290.6625916,66.50402044 L291.7780768,67.30510891 L292.893562,68.1296725 L294.0090472,68.97184243 L295.1245324,69.83455309 L296.2400176,70.72073887 L297.3555028,71.62746538 L298.470988,72.55766701 L299.5864732,73.50840937 L300.7019584,74.48262685 L301.8174436,75.48325384 L302.9329288,76.50442156 L304.048414,77.55199879 L305.1638992,78.62305114 L306.2793844,79.720513 L307.3948696,80.84438437 L308.5103548,81.99466525 L309.62584,83.17135564 L310.7413252,84.37738993 L311.8568104,85.61276812 L312.9722956,86.87749021 L314.0877808,88.1715562 L315.203266,89.49496609 L316.3187512,90.85358866 L317.4342364,92.24155513 L318.5497216,93.66473428 L319.6652068,95.12312611 L320.780692,96.61673062 L321.8961772,98.1484822 L323.0116624,99.71544646 L324.1271476,101.32055779 L325.2426328,102.96675058 L326.358118,104.65695922 L327.4736032,106.38824932 L328.5890884,108.16355527 L329.7045736,109.98287707 L330.8200588,111.8520835 L331.935544,113.76824017 L333.0510292,115.73721586 L334.1665144,117.75607618 L335.2819996,119.8336243 L336.3974848,121.96399144 L337.51297,124.15598077 L338.6284552,126.40959229 L339.7439404,128.72776039 L340.8594256,131.11341946 L341.9749108,133.56950389 L343.090396,136.09601368 L344.2058812,138.701752 L345.3213664,141.38671885 L346.4368516,144.15678301 L347.5523368,147.01781326 L348.667822,149.9698096 L349.7833072,153.0215752 L350.8987924,156.17604445 L352.0142776,159.44202052 L353.1297628,162.8224378 L354.245248,166.32903385 L355.3607332,169.96767745 L356.4762184,173.74423738 L357.5917036,177.67338559 L358.7071888,181.76099086 L359.822674,186.02172514 L360.9381592,190.46732599 L362.0536444,195.11246536 L363.1691296,199.97474959 L364.2846148,205.07178502 L365.4001,210.42704677 L366.5155852,205.09232575 L367.6310704,200.01583105 L368.7465556,195.17115316 L369.8620408,190.54068574 L370.977526,186.11269123 L372.0930112,181.8666289 L373.2084964,177.79076119 L374.3239816,173.87628493 L375.4394668,170.11146256 L376.554952,166.48455652 L377.6704372,162.98969803 L378.7859224,159.61808392 L379.9014076,156.36384541 L381.0168928,153.21817933 L382.132378,150.1752169 L383.2478632,147.23202373 L384.3633484,144.37979665 L385.4788336,141.61853566 L386.5943188,138.93943759 L387.709804,136.34250244 L388.8252892,133.82186143 L389.9407744,131.37164578 L391.0562596,128.99478988 L392.1717448,126.68249056 L393.28723,124.43474782 L394.4027152,122.25156166 L395.5182004,120.12412891 L396.6336856,118.05538396 L397.7491708,116.03945803 L398.864656,114.07635112 L399.9801412,112.16606323 L401.0956264,110.30272558 L402.2111116,108.48633817 L403.3265968,106.716901 L404.442082,104.99147968 L405.5575672,103.31007421 L406.6730524,101.66681581 L407.7885376,100.06463887 L408.9040228,98.50354339 L410.019508,96.97766059 L411.1349932,95.48699047 L412.2504784,94.03446742 L413.3659636,92.61715705 L414.4814488,91.23212497 L415.596934,89.87937118 L416.7124192,88.55889568 L417.8279044,87.26776408 L418.9433896,86.00891077 L420.0588748,84.77940136 L421.17436,83.57630146 L422.2898452,82.40254546 L423.4053304,81.25813336 L424.5208156,80.13719638 L425.6363008,79.0456033 L426.751786,77.97748534 L427.8672712,76.9328425 L428.9827564,75.91460917 L430.0982416,74.92278535 L431.2137268,73.95150226 L432.329212,73.00369429 L433.4446972,72.07642705 L434.5601824,71.17556932 L435.6756676,70.29231793 L436.7911528,69.43254166 L437.906638,68.59330612 L439.0221232,67.77461131 L440.1376084,66.97645723 L441.2530936,66.19884388 L442.3685788,65.44177126 L443.484064,64.69937059 L444.5995492,63.98044504 L445.7150344,63.27912583 L446.8305196,62.59541296 L447.9460048,61.92930643 L449.06149,61.28080624 L450.1769752,60.64991239 L451.2924604,60.03662488 L452.4079456,59.44094371 L453.5234308,58.86286888 L454.638916,58.30240039 L455.7544012,57.75660385 L456.8698864,57.22547926 L457.9853716,56.71196101 L459.1008568,56.2160491 L460.216342,55.73480914 L461.3318272,55.26824113 L462.4473124,54.81927946 L463.5627976,54.38205535 L464.6782828,53.96243758 L465.793768,53.55749176 L466.9092532,53.16721789 L468.0247384,52.79161597 L469.1402236,52.430686 L470.2557088,52.08442798 L471.371194,51.75284191 L472.4866792,51.4329934 L473.6021644,51.13075123 L474.7176496,50.84024662 L475.8331348,50.56441396 L476.94862,50.30325325 L478.0641052,50.0538301 L479.1795904,49.8190789 L480.2950756,49.59899965 L481.4105608,49.39065796 L482.526046,49.19698822 L483.6415312,49.01799043 L484.7570164,48.8507302 L485.8725016,48.69814192 L486.9879868,48.5572912 L488.103472,48.42817804 L489.2189572,48.31667122 L490.3344424,48.21396757 L491.4499276,48.12887026 L492.5654128,48.05257612 L493.680898,47.99095393 L494.7963832,47.94400369 L495.9118684,47.90879101 L497.0273536,47.88531589 L498.1428388,47.87651272 L499.258324,47.8823815 L500.3738092,47.89705345 L501.4892944,47.92933174 L502.6047796,47.9704132 L503.7202648,48.029101 L504.83575,48.09659197 L505.9512352,48.17875489 L507.0667204,48.27558976 L508.1822056,48.38416219 L509.2976908,48.50740657 L510.413176,48.64238851 L511.5286612,48.78910801 L512.6441464,48.95049946 L513.7596316,49.12656286 L514.8751168,49.31436382 L515.990602,49.51683673 L517.1060872,49.73398159 L518.2215724,49.96286401 L519.3370576,50.20641838 L520.4525428,50.46171031 L521.568028,50.73167419 L522.6835132,51.01631002 L523.7989984,51.3156178 L524.9144836,51.62666314 L526.0299688,51.95531482 L527.145454,52.29570406 L528.2609392,52.65076525 L529.3764244,53.02049839 L530.4919096,53.40490348 L531.6073948,53.80398052 L532.72288,54.21772951 L533.8383652,54.64908484 L534.9538504,55.09217773 L536.0693356,55.55287696 L537.1848208,56.02824814 L538.300306,56.51829127 L539.4157912,57.02594074 L540.5312764,57.54826216 L541.6467616,58.08818992 L542.7622468,58.64572402 L543.877732,59.21793007 L544.9932172,59.80480807 L546.1087024,60.4122268 L547.2241876,61.03431748 L548.3396728,61.67694889 L549.455158,62.33425225 L550.5706432,63.01209634 L551.6861284,63.70461238 L552.8016136,64.41766915 L553.9170988,65.15126665 L555.032584,65.90247049 L556.1480692,66.67421506 L557.2635544,67.46356597 L558.3790396,68.27345761 L559.4945248,69.10388998 L560.61001,69.95486308 L561.7254952,70.8293113 L562.8409804,71.72430025 L563.9564656,72.63982993 L565.0719508,73.57883473 L566.187436,74.53838026 L567.3029212,75.5243353 L568.4184064,76.53376546 L569.5338916,77.56667074 L570.6493768,78.62305114 L571.764862,79.70584105 L572.8803472,80.81504047 L573.9958324,81.9506494 L575.1113176,83.11266784 L576.2268028,84.30403018 L577.342288,85.52180203 L578.4577732,86.76891778 L579.5732584,88.04537743 L580.6887436,89.35411537 L581.8042288,90.6951316 L582.919714,92.06549173 L584.0351992,93.47106454 L585.1506844,94.90891564 L586.2661696,96.38491381 L587.3816548,97.89319027 L588.49714,99.44254819 L589.6126252,101.02711879 L590.7281104,102.65277085 L591.8435956,104.31950437 L592.9590808,106.02731935 L594.074566,107.77915018 L595.1900512,109.57499686 L596.3055364,111.41779378 L597.4210216,113.31047533 L598.5365068,115.25010712 L599.651992,117.24549232 L600.7674772,119.29076215 L601.8829624,121.39471978 L602.9984476,123.55443082 L604.1139328,125.77576405 L605.229418,128.06165386 L606.3449032,130.40916586 L607.4603884,132.83003761 L608.5758736,135.32133472 L609.6913588,137.88599158 L610.806844,140.52987697 L611.9223292,143.25592528 L613.0378144,146.07000529 L614.1532996,148.97505139 L615.2687848,151.97399797 L616.38427,155.07858259 L617.4997552,158.28587086 L618.6152404,161.60760034 L619.7307256,165.0525742 L620.8462108,168.62079244 L621.961696,172.32692701 L623.0771812,176.17978108 L624.1926664,180.18522343 L625.3081516,184.35792601 L626.4236368,188.70962638 L627.539122,193.25499649 L628.6546072,198.0057739 L629.7700924,202.98249934 L630.8855776,208.20864793 L632.0010628,213.69889162 L633.116548,219.48844309 L634.2320332,225.59784307 L635.3475184,232.07110741 L636.4630036,238.94638318 L637.5784888,246.27062062 L638.693974,254.10250753 L639.8094592,262.51246927 L640.9249444,271.59147193 L642.0404296,281.44221916 L643.1559148,292.1996929 L644.2714,304.04289094 " fill-rule="evenodd" vector-effect="non-scaling-stroke"/>
                        </g>
                    </g>
                </g>
                <g id="PlotDataItem_5"/>
                <g id="PlotDataItem_6"/>
                <g id="PlotDataItem_7"/>
                <g id="PlotDataItem_8"/>
            </g>
            <g fill="none" fill-rule="evenodd" id="LegendItem_1" stroke="black" stroke-linecap="square" stroke-linejoin="bevel" stroke-width="1">
                <g fill="#646464" fill-opacity="0.196078" font-family="MS Shell Dlg 2" font-size="11" font-style="normal" font-weight="400" stroke="#ffffff" stroke-linecap="square" stroke-linejoin="bevel" stroke-opacity="0.392157" stroke-width="1">
                    <path d="M92.8,61.0 L187.8,61.0 L187.8,262.0 L92.8,262.0 L92.8,61.0 " fill-rule="evenodd" vector-effect="non-scaling-stroke"/>
                </g>
                <g fill="none" fill-rule="evenodd" id="ItemSample_1" stroke="black" stroke-linecap="square" stroke-linejoin="bevel" stroke-width="1">
                    <g fill="none" font-family="MS Shell Dlg 2" font-size="11" font-style="normal" font-weight="400" stroke="#ed815e" stroke-linecap="square" stroke-linejoin="bevel" stroke-opacity="1" stroke-width="1.5">
                        <polyline fill="none" points="103.8,88.0 119.8,72.0" vector-effect="non-scaling-stroke"/>
                    </g>
                </g>
                <g fill="none" fill-rule="evenodd" id="LabelItem_1" stroke="black" stroke-linecap="square" stroke-linejoin="bevel" stroke-width="1">
                    <g fill="none" fill-rule="evenodd" id="QGraphicsTextItem_3" stroke="black" stroke-linecap="square" stroke-linejoin="bevel" stroke-width="1">
                        


                        


                        <g fill="none" font-family="MS Shell Dlg 2" font-size="11" font-style="normal" font-weight="400" stroke="#969696" stroke-linecap="square" stroke-linejoin="bevel" stroke-opacity="1" stroke-width="1" transform="matrix(1,0,0,1,134.3,70)">
                            <text fill="#969696" fill-opacity="1" font-family="&quot;MS Shell Dlg 2&quot;, sans-serif" font-size="11" font-style="normal" font-weight="400" stroke="none" x="4" xml:space="preserve" y="15">H2</text>
                        </g>
                        


                        

                    </g>
                </g>
                <g fill="none" fill-rule="evenodd" id="ItemSample_2" stroke="black" stroke-linecap="square" stroke-linejoin="bevel" stroke-width="1">
                    <g fill="none" font-family="MS Shell Dlg 2" font-size="11" font-style="normal" font-weight="400" stroke="#c7b069" stroke-linecap="square" stroke-linejoin="bevel" stroke-opacity="1" stroke-width="1.5">
                        <polyline fill="none" points="103.8,115.0 119.8,99.0" vector-effect="non-scaling-stroke"/>
                    </g>
                </g>
                <g fill="none" fill-rule="evenodd" id="LabelItem_2" stroke="black" stroke-linecap="square" stroke-linejoin="bevel" stroke-width="1">
                    <g fill="none" fill-rule="evenodd" id="QGraphicsTextItem_4" stroke="black" stroke-linecap="square" stroke-linejoin="bevel" stroke-width="1">
                        


                        


                        <g fill="none" font-family="MS Shell Dlg 2" font-size="11" font-style="normal" font-weight="400" stroke="#969696" stroke-linecap="square" stroke-linejoin="bevel" stroke-opacity="1" stroke-width="1" transform="matrix(1,0,0,1,130.8,97)">
                            <text fill="#969696" fill-opacity="1" font-family="&quot;MS Shell Dlg 2&quot;, sans-serif" font-size="11" font-style="normal" font-weight="400" stroke="none" x="4" xml:space="preserve" y="15">CH4</text>
                        </g>
                        


                        

                    </g>
                </g>
                <g fill="none" fill-rule="evenodd" id="ItemSample_3" stroke="black" stroke-linecap="square" stroke-linejoin="bevel" stroke-width="1">
                    <g fill="none" font-family="MS Shell Dlg 2" font-size="11" font-style="normal" font-weight="400" stroke="#7ea695" stroke-linecap="square" stroke-linejoin="bevel" stroke-opacity="1" stroke-width="1.5">
                        <polyline fill="none" points="103.8,142.0 119.8,126.0" vector-effect="non-scaling-stroke"/>
                    </g>
                </g>
                <g fill="none" fill-rule="evenodd" id="LabelItem_3" stroke="black" stroke-linecap="square" stroke-linejoin="bevel" stroke-width="1">
                    <g fill="none" fill-rule="evenodd" id="QGraphicsTextItem_5" stroke="black" stroke-linecap="square" stroke-linejoin="bevel" stroke-width="1">
                        


                        


                        <g fill="none" font-family="MS Shell Dlg 2" font-size="11" font-style="normal" font-weight="400" stroke="#969696" stroke-linecap="square" stroke-linejoin="bevel" stroke-opacity="1" stroke-width="1" transform="matrix(1,0,0,1,133.3,124)">
                            <text fill="#969696" fill-opacity="1" font-family="&quot;MS Shell Dlg 2&quot;, sans-serif" font-size="11" font-style="normal" font-weight="400" stroke="none" x="4" xml:space="preserve" y="15">CO</text>
                        </g>
                        


                        

                    </g>
                </g>
                <g fill="none" fill-rule="evenodd" id="ItemSample_4" stroke="black" stroke-linecap="square" stroke-linejoin="bevel" stroke-width="1">
                    <g fill="none" font-family="MS Shell Dlg 2" font-size="11" font-style="normal" font-weight="400" stroke="#8a7c91" stroke-linecap="square" stroke-linejoin="bevel" stroke-opacity="1" stroke-width="1.5">
                        <polyline fill="none" points="103.8,169.0 119.8,153.0" vector-effect="non-scaling-stroke"/>
                    </g>
                </g>
                <g fill="none" fill-rule="evenodd" id="LabelItem_4" stroke="black" stroke-linecap="square" stroke-linejoin="bevel" stroke-width="1">
                    <g fill="none" fill-rule="evenodd" id="QGraphicsTextItem_6" stroke="black" stroke-linecap="square" stroke-linejoin="bevel" stroke-width="1">
                        


                        


                        <g fill="none" font-family="MS Shell Dlg 2" font-size="11" font-style="normal" font-weight="400" stroke="#969696" stroke-linecap="square" stroke-linejoin="bevel" stroke-opacity="1" stroke-width="1" transform="matrix(1,0,0,1,130.3,151)">
                            <text fill="#969696" fill-opacity="1" font-family="&quot;MS Shell Dlg 2&quot;, sans-serif" font-size="11" font-style="normal" font-weight="400" stroke="none" x="4" xml:space="preserve" y="15">CO2</text>
                        </g>
                        


                        

                    </g>
                </g>
                <g fill="none" fill-rule="evenodd" id="ItemSample_5" stroke="black" stroke-linecap="square" stroke-linejoin="bevel" stroke-width="1">
                    <g fill="none" font-family="MS Shell Dlg 2" font-size="11" font-style="normal" font-weight="400" stroke="#ff2e70" stroke-linecap="square" stroke-linejoin="bevel" stroke-opacity="1" stroke-width="2">
                        <polyline fill="none" points="103.8,196.0 119.8,180.0" vector-effect="non-scaling-stroke"/>
                    </g>
                </g>
                <g fill="none" fill-rule="evenodd" id="LabelItem_5" stroke="black" stroke-linecap="square" stroke-linejoin="bevel" stroke-width="1">
                    <g fill="none" fill-rule="evenodd" id="QGraphicsTextItem_7" stroke="black" stroke-linecap="square" stroke-linejoin="bevel" stroke-width="1">
                        


                        


                        <g fill="none" font-family="MS Shell Dlg 2" font-size="11" font-style="normal" font-weight="400" stroke="#969696" stroke-linecap="square" stroke-linejoin="bevel" stroke-opacity="1" stroke-width="1" transform="matrix(1,0,0,1,110.8,178)">
                            <text fill="#969696" fill-opacity="1" font-family="&quot;MS Shell Dlg 2&quot;, sans-serif" font-size="11" font-style="normal" font-weight="400" stroke="none" x="4" xml:space="preserve" y="15">total density</text>
                        </g>
                        


                        

                    </g>
                </g>
                <g fill="none" fill-rule="evenodd" id="ItemSample_6" stroke="black" stroke-linecap="square" stroke-linejoin="bevel" stroke-width="1">
                    <g fill="none" font-family="MS Shell Dlg 2" font-size="11" font-style="normal" font-weight="400" stroke="none">
                        <polyline fill="none" points="103.8,223.0 119.8,207.0" vector-effect="non-scaling-stroke"/>
                    </g>
                    <g fill="#0000ff" fill-opacity="0.588235" font-family="MS Shell Dlg 2" font-size="11" font-style="normal" font-weight="400" stroke="#ffffff" stroke-linecap="square" stroke-linejoin="bevel" stroke-opacity="0.784314" stroke-width="1">
                        <path d="M114.3,215.0 C114.3,216.38071 113.18071,217.5 111.8,217.5 C110.41929,217.5 109.3,216.38071 109.3,215.0 C109.3,213.61929 110.41929,212.5 111.8,212.5 C113.18071,212.5 114.3,213.61929 114.3,215.0 " fill-rule="evenodd" vector-effect="non-scaling-stroke"/>
                    </g>
                </g>
                <g fill="none" fill-rule="evenodd" id="LabelItem_6" stroke="black" stroke-linecap="square" stroke-linejoin="bevel" stroke-width="1">
                    <g fill="none" fill-rule="evenodd" id="QGraphicsTextItem_8" stroke="black" stroke-linecap="square" stroke-linejoin="bevel" stroke-width="1">
                        


                        


                        <g fill="none" font-family="MS Shell Dlg 2" font-size="11" font-style="normal" font-weight="400" stroke="#969696" stroke-linecap="square" stroke-linejoin="bevel" stroke-opacity="1" stroke-width="1" transform="matrix(1,0,0,1,118.8,205)">
                            <text fill="#969696" fill-opacity="1" font-family="&quot;MS Shell Dlg 2&quot;, sans-serif" font-size="11" font-style="normal" font-weight="400" stroke="none" x="4" xml:space="preserve" y="15">LHC data</text>
                        </g>
                        


                        

                    </g>
                </g>
                <g fill="none" fill-rule="evenodd" id="ItemSample_7" stroke="black" stroke-linecap="square" stroke-linejoin="bevel" stroke-width="1">
                    <g fill="none" font-family="MS Shell Dlg 2" font-size="11" font-style="normal" font-weight="400" stroke="none">
                        <polyline fill="none" points="103.8,250.0 119.8,234.0" vector-effect="non-scaling-stroke"/>
                    </g>
                    <g fill="#0000ff" fill-opacity="0.588235" font-family="MS Shell Dlg 2" font-size="11" font-style="normal" font-weight="400" stroke="#ffffff" stroke-linecap="square" stroke-linejoin="bevel" stroke-opacity="0.784314" stroke-width="1">
                        <path d="M109.3,241.75 L109.3,242.25 L111.55,242.25 L111.55,244.5 L112.05,244.5 L112.05,242.25 L114.3,242.25 L114.3,241.75 L112.05,241.75 L112.05,239.5 L111.55,239.5 L111.55,241.75 L109.3,241.75 " fill-rule="evenodd" vector-effect="non-scaling-stroke"/>
                    </g>
                </g>
                <g fill="none" fill-rule="evenodd" id="LabelItem_7" stroke="black" stroke-linecap="square" stroke-linejoin="bevel" stroke-width="1">
                    <g fill="none" fill-rule="evenodd" id="QGraphicsTextItem_9" stroke="black" stroke-linecap="square" stroke-linejoin="bevel" stroke-width="1">
                        


                        


                        <g fill="none" font-family="MS Shell Dlg 2" font-size="11" font-style="normal" font-weight="400" stroke="#969696" stroke-linecap="square" stroke-linejoin="bevel" stroke-opacity="1" stroke-width="1" transform="matrix(1,0,0,1,118.8,232)">
                            <text fill="#969696" fill-opacity="1" font-family="&quot;MS Shell Dlg 2&quot;, sans-serif" font-size="11" font-style="normal" font-weight="400" stroke="none" x="4" xml:space="preserve" y="15">LHC data</text>
                        </g>
                        


                        

                    </g>
                </g>
            </g>
        </g>
    </g>
    <g fill="none" fill-rule="evenodd" id="LabelItem_8" stroke="black" stroke-linecap="square" stroke-linejoin="bevel" stroke-width="1">
        <g fill="none" fill-rule="evenodd" id="QGraphicsTextItem_10" stroke="black" stroke-linecap="square" stroke-linejoin="bevel" stroke-width="1">
            


            


            <g fill="none" font-family="MS Shell Dlg 2" font-size="11" font-style="normal" font-weight="400" stroke="#969696" stroke-linecap="square" stroke-linejoin="bevel" stroke-opacity="1" stroke-width="1" transform="matrix(1,0,0,1,323.4,3)">
                <text fill="#969696" fill-opacity="1" font-family="&quot;MS Shell Dlg 2&quot;, sans-serif" font-size="14.6667" font-style="normal" font-weight="400" stroke="none" x="4" xml:space="preserve" y="19">Density-Plot</text>
            </g>
            


            

        </g>
    </g>
</g>

</svg>
