<?xml version="1.0" encoding="UTF-8" standalone="no"?>
<svg xmlns="http://www.w3.org/2000/svg" xmlns:xlink="http://www.w3.org/1999/xlink"  version="1.2" baseProfile="tiny">
<title>pyqtgraph SVG export</title>
<desc>Generated with Qt and pyqtgraph</desc>
<defs>
</defs>
<g fill="none" fill-rule="evenodd" id="PlotItem_1" stroke="black" stroke-linecap="square" stroke-linejoin="bevel" stroke-width="1">
    <g fill="none" fill-rule="evenodd" id="AxisItem_1" stroke="black" stroke-linecap="square" stroke-linejoin="bevel" stroke-width="1">
        <g fill="none" font-family="MS Shell Dlg 2" font-size="11" font-style="normal" font-weight="400" stroke="#969696" stroke-linecap="square" stroke-linejoin="bevel" stroke-opacity="1" stroke-width="1">
            <polyline fill="none" points="64.8,320.2 668.0,320.2" vector-effect="non-scaling-stroke"/>
        </g>
        <g fill="none" font-family="MS Shell Dlg 2" font-size="11" font-style="normal" font-weight="400" stroke="#969696" stroke-linecap="square" stroke-linejoin="bevel" stroke-opacity="0.498039" stroke-width="1">
            <polyline fill="none" points="99.9231,31.0 99.9231,320.2" vector-effect="non-scaling-stroke"/>
        </g>
        <g fill="none" font-family="MS Shell Dlg 2" font-size="11" font-style="normal" font-weight="400" stroke="#969696" stroke-linecap="square" stroke-linejoin="bevel" stroke-opacity="0.247059" stroke-width="1">
            <polyline fill="none" points="285.223,31.0 285.223,320.2" vector-effect="non-scaling-stroke"/>
            <polyline fill="none" points="470.523,31.0 470.523,320.2" vector-effect="non-scaling-stroke"/>
            <polyline fill="none" points="655.822,31.0 655.822,320.2" vector-effect="non-scaling-stroke"/>
        </g>
        <g fill="none" font-family="MS Shell Dlg 2" font-size="11" font-style="normal" font-weight="400" stroke="#969696" stroke-linecap="square" stroke-linejoin="bevel" stroke-opacity="0.164706" stroke-width="1">
            <polyline fill="none" points="192.573,31.0 192.573,320.2" vector-effect="non-scaling-stroke"/>
            <polyline fill="none" points="377.873,31.0 377.873,320.2" vector-effect="non-scaling-stroke"/>
            <polyline fill="none" points="563.173,31.0 563.173,320.2" vector-effect="non-scaling-stroke"/>
        </g>
        <g fill="none" font-family="MS Shell Dlg 2" font-size="11" font-style="normal" font-weight="400" stroke="#969696" stroke-linecap="square" stroke-linejoin="bevel" stroke-opacity="1" stroke-width="1" transform="matrix(1,0,0,1,65.3,320.2)">
            <text fill="#969696" fill-opacity="1" font-family="&quot;MS Shell Dlg 2&quot;, sans-serif" font-size="11" font-style="normal" font-weight="400" stroke="none" x="31.6094" xml:space="preserve" y="12">0</text>
            <text fill="#969696" fill-opacity="1" font-family="&quot;MS Shell Dlg 2&quot;, sans-serif" font-size="11" font-style="normal" font-weight="400" stroke="none" x="216.922" xml:space="preserve" y="12">2</text>
            <text fill="#969696" fill-opacity="1" font-family="&quot;MS Shell Dlg 2&quot;, sans-serif" font-size="11" font-style="normal" font-weight="400" stroke="none" x="402.219" xml:space="preserve" y="12">4</text>
            <text fill="#969696" fill-opacity="1" font-family="&quot;MS Shell Dlg 2&quot;, sans-serif" font-size="11" font-style="normal" font-weight="400" stroke="none" x="587.516" xml:space="preserve" y="12">6</text>
            <text fill="#969696" fill-opacity="1" font-family="&quot;MS Shell Dlg 2&quot;, sans-serif" font-size="11" font-style="normal" font-weight="400" stroke="none" x="124.266" xml:space="preserve" y="12">1</text>
            <text fill="#969696" fill-opacity="1" font-family="&quot;MS Shell Dlg 2&quot;, sans-serif" font-size="11" font-style="normal" font-weight="400" stroke="none" x="309.562" xml:space="preserve" y="12">3</text>
            <text fill="#969696" fill-opacity="1" font-family="&quot;MS Shell Dlg 2&quot;, sans-serif" font-size="11" font-style="normal" font-weight="400" stroke="none" x="494.859" xml:space="preserve" y="12">5</text>
        </g>
        <g fill="none" fill-rule="evenodd" id="QGraphicsTextItem_1" stroke="black" stroke-linecap="square" stroke-linejoin="bevel" stroke-width="1">
            


            


            <g fill="none" font-family="MS Shell Dlg 2" font-size="11" font-style="normal" font-weight="400" stroke="#ffffff" stroke-linecap="square" stroke-linejoin="bevel" stroke-opacity="1" stroke-width="1" transform="matrix(1,0,0,1,257.8,338.2)">
                <text fill="#ffffff" fill-opacity="1" font-family="&quot;MS Shell Dlg 2&quot;, sans-serif" font-size="18.6667" font-style="normal" font-weight="400" stroke="none" x="4" xml:space="preserve" y="23">Axis along beam line (m)</text>
            </g>
            


            

        </g>
    </g>
    <g fill="none" fill-rule="evenodd" id="AxisItem_2" stroke="black" stroke-linecap="square" stroke-linejoin="bevel" stroke-width="1">
        <g fill="none" font-family="MS Shell Dlg 2" font-size="11" font-style="normal" font-weight="400" stroke="#969696" stroke-linecap="square" stroke-linejoin="bevel" stroke-opacity="1" stroke-width="1">
            <polyline fill="none" points="64.8,31.0 64.8,320.2" vector-effect="non-scaling-stroke"/>
        </g>
        <g fill="none" font-family="MS Shell Dlg 2" font-size="11" font-style="normal" font-weight="400" stroke="#969696" stroke-linecap="square" stroke-linejoin="bevel" stroke-opacity="0.498039" stroke-width="1">
            <polyline fill="none" points="668.5,279.579 65.3,279.579" vector-effect="non-scaling-stroke"/>
        </g>
        <g fill="none" font-family="MS Shell Dlg 2" font-size="11" font-style="normal" font-weight="400" stroke="#969696" stroke-linecap="square" stroke-linejoin="bevel" stroke-opacity="0.247059" stroke-width="1">
            <polyline fill="none" points="668.5,307.518 65.3,307.518" vector-effect="non-scaling-stroke"/>
            <polyline fill="none" points="668.5,292.771 65.3,292.771" vector-effect="non-scaling-stroke"/>
            <polyline fill="none" points="668.5,279.579 65.3,279.579" vector-effect="non-scaling-stroke"/>
            <polyline fill="none" points="668.5,192.794 65.3,192.794" vector-effect="non-scaling-stroke"/>
            <polyline fill="none" points="668.5,142.027 65.3,142.027" vector-effect="non-scaling-stroke"/>
            <polyline fill="none" points="668.5,106.0081 65.3,106.0081" vector-effect="non-scaling-stroke"/>
            <polyline fill="none" points="668.5,78.0695 65.3,78.0695" vector-effect="non-scaling-stroke"/>
            <polyline fill="none" points="668.5,55.2419 65.3,55.2419" vector-effect="non-scaling-stroke"/>
            <polyline fill="none" points="668.5,35.94148 65.3,35.94148" vector-effect="non-scaling-stroke"/>
        </g>
        <g fill="none" font-family="MS Shell Dlg 2" font-size="11" font-style="normal" font-weight="400" stroke="#969696" stroke-linecap="square" stroke-linejoin="bevel" stroke-opacity="1" stroke-width="1" transform="matrix(1,0,0,1,1.5,31)">
            <text fill="#969696" fill-opacity="1" font-family="&quot;MS Shell Dlg 2&quot;, sans-serif" font-size="11" font-style="normal" font-weight="400" stroke="none" x="26.7969" xml:space="preserve" y="253.375">1e+12</text>
            <text fill="#969696" fill-opacity="1" font-family="&quot;MS Shell Dlg 2&quot;, sans-serif" font-size="11" font-style="normal" font-weight="400" stroke="none" x="26.7969" xml:space="preserve" y="281.312">8e+11</text>
            <text fill="#969696" fill-opacity="1" font-family="&quot;MS Shell Dlg 2&quot;, sans-serif" font-size="11" font-style="normal" font-weight="400" stroke="none" x="26.7969" xml:space="preserve" y="266.562">9e+11</text>
            <text fill="#969696" fill-opacity="1" font-family="&quot;MS Shell Dlg 2&quot;, sans-serif" font-size="11" font-style="normal" font-weight="400" stroke="none" x="26.7969" xml:space="preserve" y="253.375">1e+12</text>
            <text fill="#969696" fill-opacity="1" font-family="&quot;MS Shell Dlg 2&quot;, sans-serif" font-size="11" font-style="normal" font-weight="400" stroke="none" x="26.7969" xml:space="preserve" y="166.578">2e+12</text>
            <text fill="#969696" fill-opacity="1" font-family="&quot;MS Shell Dlg 2&quot;, sans-serif" font-size="11" font-style="normal" font-weight="400" stroke="none" x="26.7969" xml:space="preserve" y="115.812">3e+12</text>
            <text fill="#969696" fill-opacity="1" font-family="&quot;MS Shell Dlg 2&quot;, sans-serif" font-size="11" font-style="normal" font-weight="400" stroke="none" x="26.7969" xml:space="preserve" y="79.7969">4e+12</text>
            <text fill="#969696" fill-opacity="1" font-family="&quot;MS Shell Dlg 2&quot;, sans-serif" font-size="11" font-style="normal" font-weight="400" stroke="none" x="26.7969" xml:space="preserve" y="51.8594">5e+12</text>
            <text fill="#969696" fill-opacity="1" font-family="&quot;MS Shell Dlg 2&quot;, sans-serif" font-size="11" font-style="normal" font-weight="400" stroke="none" x="26.7969" xml:space="preserve" y="29.0312">6e+12</text>
            <text fill="#969696" fill-opacity="1" font-family="&quot;MS Shell Dlg 2&quot;, sans-serif" font-size="11" font-style="normal" font-weight="400" stroke="none" x="26.7969" xml:space="preserve" y="9.75">7e+12</text>
        </g>
        <g fill="none" fill-rule="evenodd" id="QGraphicsTextItem_2" stroke="black" stroke-linecap="square" stroke-linejoin="bevel" stroke-width="1">
            


            


            <g fill="none" font-family="MS Shell Dlg 2" font-size="11" font-style="normal" font-weight="400" stroke="#ffffff" stroke-linecap="square" stroke-linejoin="bevel" stroke-opacity="1" stroke-width="1" transform="matrix(0,-1,1,0,-4,287)">
                <text fill="#ffffff" fill-opacity="1" font-family="&quot;MS Shell Dlg 2&quot;, sans-serif" font-size="18.6667" font-style="normal" font-weight="400" stroke="none" x="4" xml:space="preserve" y="23">Density (particles per m3)</text>
            </g>
            


            

        </g>
    </g>
    <g fill="none" fill-rule="evenodd" id="ViewBox_1" stroke="black" stroke-linecap="square" stroke-linejoin="bevel" stroke-width="1">
        <g fill="none" font-family="MS Shell Dlg 2" font-size="11" font-style="normal" font-weight="400" stroke="none">
            <path d="M64.8,31.0 L668.0,31.0 L668.0,320.2 L64.8,320.2 L64.8,31.0 " fill-rule="evenodd" vector-effect="non-scaling-stroke"/>
        </g>
        <clipPath id="ViewBox_1_clip">
            <path d="M64.8,31.0 L668.0,31.0 L668.0,320.2 L64.8,320.2 L64.8,31.0 " fill-rule="evenodd" vector-effect="non-scaling-stroke"/>
        </clipPath>
        <g clip-path="url(#ViewBox_1_clip)">
            <g fill="none" fill-rule="evenodd" id="ChildGroup_1" stroke="black" stroke-linecap="square" stroke-linejoin="bevel" stroke-width="1">
                <g id="PlotDataItem_1">
                    <g fill="none" fill-rule="evenodd" id="PlotCurveItem_1" stroke="black" stroke-linecap="square" stroke-linejoin="bevel" stroke-width="1">
                        <g fill="none" font-family="MS Shell Dlg 2" font-size="11" font-style="normal" font-weight="400" stroke="#ed815e" stroke-linecap="square" stroke-linejoin="bevel" stroke-opacity="1" stroke-width="1.5">
                            <path d="M99.4231000926,301.49042 L100.5348988,299.126401 L101.6466976,296.7912115 L102.7584964,294.5425105 L103.8702952,292.322639 L104.982094,290.189256 L106.0938928,288.0847025 L107.2056916,286.037808 L108.3174904,284.019743 L109.4292892,282.059337 L110.541088,280.15659 L111.6528868,278.2826725 L112.7646856,276.466414 L113.8764844,274.678985 L114.9882832,272.9203855 L116.100082,271.219445 L117.2118808,269.5185045 L118.3236796,267.9040525 L119.4354784,266.2896005 L120.5472772,264.703978 L121.659076,263.1760145 L122.7708748,261.648051 L123.8826736,260.1777465 L124.9944724,258.7362715 L126.1062712,257.2947965 L127.21807,255.9109805 L128.3298688,254.5271645 L129.4416676,253.2010075 L130.5534664,251.8748505 L131.6652652,250.577523 L132.777064,249.3378545 L133.8888628,248.0693565 L135.0006616,246.8585175 L136.1124604,245.676508 L137.2242592,244.4944985 L138.336058,243.3413185 L139.4478568,242.216968 L140.5596556,241.0926175 L141.6714544,239.9970965 L142.7832532,238.930405 L143.895052,237.8637135 L145.0068508,236.854681 L146.1186496,235.816819 L147.2304484,234.836616 L148.3422472,233.856413 L149.454046,232.87621 L150.5658448,231.953666 L151.6776436,231.0022925 L152.7894424,230.108578 L153.9012412,229.2148635 L155.01304,228.321149 L156.1248388,227.456264 L157.2366376,226.6202085 L158.3484364,225.784153 L159.4602352,224.9480975 L160.572034,224.169701 L161.6838328,223.362475 L162.7956316,222.5840785 L163.9074304,221.8345115 L165.0192292,221.0849445 L166.131028,220.3353775 L167.2428268,219.61464 L168.3546256,218.8939025 L169.4664244,218.2019945 L170.5782232,217.538916 L171.690022,216.847008 L172.8018208,216.1839295 L173.9136196,215.5496805 L175.0254184,214.9154315 L176.1372172,214.2811825 L177.249016,213.675763 L178.3608148,213.0703435 L179.4726136,212.464924 L180.5844124,211.888334 L181.6962112,211.3405735 L182.80801,210.7639835 L183.9198088,210.216223 L185.0316076,209.697292 L186.1434064,209.1495315 L187.2552052,208.6306005 L188.367004,208.140499 L189.4788028,207.6503975 L190.5906016,207.160296 L191.7024004,206.6701945 L192.8141992,206.2089225 L193.925998,205.7476505 L195.0377968,205.315208 L196.1495956,204.8827655 L197.2613944,204.450323 L198.3731932,204.0178805 L199.484992,203.6142675 L200.5967908,203.2106545 L201.7085896,202.8070415 L202.8203884,202.432258 L203.9321872,202.0574745 L205.043986,201.7115205 L206.1557848,201.336737 L207.2675836,200.990783 L208.3793824,200.644829 L209.4911812,200.3277045 L210.60298,200.01058 L211.7147788,199.6934555 L212.8265776,199.376331 L213.9383764,199.088036 L215.0501752,198.799741 L216.161974,198.511446 L217.2737728,198.223151 L218.3855716,197.9636855 L219.4973704,197.70422 L220.6091692,197.473584 L221.720968,197.2141185 L222.8327668,196.9834825 L223.9445656,196.7528465 L225.0563644,196.55104 L226.1681632,196.320404 L227.279962,196.1185975 L228.3917608,195.9456205 L229.5035596,195.743814 L230.6153584,195.570837 L231.7271572,195.39786 L232.838956,195.224883 L233.9507548,195.0807355 L235.0625536,194.9077585 L236.1743524,194.763611 L237.2861512,194.648293 L238.39795,194.5041455 L239.5097488,194.3888275 L240.6215476,194.2735095 L241.7333464,194.1581915 L242.8451452,194.071703 L243.956944,193.9852145 L245.0687428,193.898726 L246.1805416,193.8122375 L247.2923404,193.7545785 L248.4041392,193.6969195 L249.515938,193.6392605 L250.6277368,193.5816015 L251.7395356,193.5239425 L252.8513344,193.495113 L253.9631332,193.4662835 L255.074932,193.4662835 L256.1867308,193.437454 L257.2985296,193.437454 L258.4103284,193.437454 L259.5221272,193.437454 L260.633926,193.4662835 L261.7457248,193.495113 L262.8575236,193.5239425 L263.9693224,193.552772 L265.0811212,193.610431 L266.19292,193.6392605 L267.3047188,193.6969195 L268.4165176,193.783408 L269.5283164,193.841067 L270.6401152,193.9275555 L271.751914,194.014044 L272.8637128,194.1005325 L273.9755116,194.2158505 L275.0873104,194.3311685 L276.1991092,194.4464865 L277.310908,194.5618045 L278.4227068,194.705952 L279.5345056,194.8500995 L280.6463044,194.994247 L281.7581032,195.1383945 L282.869902,195.3113715 L283.9817008,195.455519 L285.0934996,195.628496 L286.2052984,195.8303025 L287.3170972,196.0032795 L288.428896,196.205086 L289.5406948,196.435722 L290.6524936,196.6375285 L291.7642924,196.8681645 L292.8760912,197.0988005 L293.98789,197.3294365 L295.0996888,197.5600725 L296.2114876,197.819538 L297.3232864,198.0790035 L298.4350852,198.3672985 L299.546884,198.626764 L300.6586828,198.915059 L301.7704816,199.203354 L302.8822804,199.5204785 L303.9940792,199.8087735 L305.105878,200.1547275 L306.2176768,200.471852 L307.3294756,200.7889765 L308.4412744,201.1349305 L309.5530732,201.509714 L310.664872,201.855668 L311.7766708,202.2304515 L312.8884696,202.605235 L314.0002684,202.9800185 L315.1120672,203.3836315 L316.223866,203.7872445 L317.3356648,204.219687 L318.4474636,204.6233 L319.5592624,205.0557425 L320.6710612,205.5170145 L321.78286,205.949457 L322.8946588,206.410729 L324.0064576,206.9008305 L325.1182564,207.3621025 L326.2300552,207.852204 L327.341854,208.371135 L328.4536528,208.8612365 L329.5654516,209.3801675 L330.6772504,209.927928 L331.7890492,210.4756885 L332.900848,211.023449 L334.0126468,211.5712095 L335.1244456,212.1477995 L336.2362444,212.7243895 L337.3480432,213.329809 L338.459842,213.9352285 L339.5716408,214.5694775 L340.6834396,215.174897 L341.7952384,215.8379755 L342.9070372,216.4722245 L344.018836,217.135303 L345.1306348,217.827211 L346.2424336,218.519119 L347.3542324,219.211027 L348.4660312,219.9317645 L349.57783,220.652502 L350.6896288,221.402069 L351.8014276,222.151636 L352.9132264,222.9300325 L354.0250252,223.708429 L355.136824,224.515655 L356.2486228,225.322881 L357.3604216,226.1589365 L358.4722204,226.994992 L359.5840192,227.8310475 L360.695818,228.724762 L361.8076168,229.589647 L362.9194156,230.512191 L364.0312144,231.434735 L365.1430132,232.357279 L366.254812,233.3086525 L367.3666108,234.2888555 L368.4784096,235.2690585 L369.5902084,236.278091 L370.7020072,237.2871235 L371.813806,238.3249855 L372.9256048,239.391677 L374.0374036,240.487198 L375.1492024,241.582719 L376.2610012,242.7070695 L377.3728,243.83142 L378.4845988,242.7070695 L379.5963976,241.582719 L380.7081964,240.487198 L381.8199952,239.391677 L382.931794,238.3249855 L384.0435928,237.2871235 L385.1553916,236.278091 L386.2671904,235.2690585 L387.3789892,234.2888555 L388.490788,233.3086525 L389.6025868,232.357279 L390.7143856,231.434735 L391.8261844,230.512191 L392.9379832,229.589647 L394.049782,228.724762 L395.1615808,227.8310475 L396.2733796,226.994992 L397.3851784,226.1589365 L398.4969772,225.322881 L399.608776,224.515655 L400.7205748,223.708429 L401.8323736,222.9300325 L402.9441724,222.151636 L404.0559712,221.402069 L405.16777,220.652502 L406.2795688,219.9317645 L407.3913676,219.211027 L408.5031664,218.519119 L409.6149652,217.827211 L410.726764,217.135303 L411.8385628,216.4722245 L412.9503616,215.8379755 L414.0621604,215.174897 L415.1739592,214.5694775 L416.285758,213.9352285 L417.3975568,213.329809 L418.5093556,212.7243895 L419.6211544,212.1477995 L420.7329532,211.5712095 L421.844752,211.023449 L422.9565508,210.4756885 L424.0683496,209.927928 L425.1801484,209.3801675 L426.2919472,208.8612365 L427.403746,208.371135 L428.5155448,207.852204 L429.6273436,207.3621025 L430.7391424,206.9008305 L431.8509412,206.410729 L432.96274,205.949457 L434.0745388,205.5170145 L435.1863376,205.0557425 L436.2981364,204.6233 L437.4099352,204.219687 L438.521734,203.7872445 L439.6335328,203.3836315 L440.7453316,202.9800185 L441.8571304,202.605235 L442.9689292,202.2304515 L444.080728,201.855668 L445.1925268,201.509714 L446.3043256,201.1349305 L447.4161244,200.7889765 L448.5279232,200.471852 L449.639722,200.1547275 L450.7515208,199.8087735 L451.8633196,199.5204785 L452.9751184,199.203354 L454.0869172,198.915059 L455.198716,198.626764 L456.3105148,198.3672985 L457.4223136,198.0790035 L458.5341124,197.819538 L459.6459112,197.5600725 L460.75771,197.3294365 L461.8695088,197.0988005 L462.9813076,196.8681645 L464.0931064,196.6375285 L465.2049052,196.435722 L466.316704,196.205086 L467.4285028,196.0032795 L468.5403016,195.8303025 L469.6521004,195.628496 L470.7638992,195.455519 L471.875698,195.3113715 L472.9874968,195.1383945 L474.0992956,194.994247 L475.2110944,194.8500995 L476.3228932,194.705952 L477.434692,194.5618045 L478.5464908,194.4464865 L479.6582896,194.3311685 L480.7700884,194.2158505 L481.8818872,194.1005325 L482.993686,194.014044 L484.1054848,193.9275555 L485.2172836,193.841067 L486.3290824,193.783408 L487.4408812,193.6969195 L488.55268,193.6392605 L489.6644788,193.610431 L490.7762776,193.552772 L491.8880764,193.5239425 L492.9998752,193.495113 L494.111674,193.4662835 L495.2234728,193.437454 L496.3352716,193.437454 L497.4470704,193.437454 L498.5588692,193.437454 L499.670668,193.4662835 L500.7824668,193.4662835 L501.8942656,193.495113 L503.0060644,193.5239425 L504.1178632,193.5816015 L505.229662,193.6392605 L506.3414608,193.6969195 L507.4532596,193.7545785 L508.5650584,193.8122375 L509.6768572,193.898726 L510.788656,193.9852145 L511.9004548,194.071703 L513.0122536,194.1581915 L514.1240524,194.2735095 L515.2358512,194.3888275 L516.34765,194.5041455 L517.4594488,194.648293 L518.5712476,194.763611 L519.6830464,194.9077585 L520.7948452,195.0807355 L521.906644,195.224883 L523.0184428,195.39786 L524.1302416,195.570837 L525.2420404,195.743814 L526.3538392,195.9456205 L527.465638,196.1185975 L528.5774368,196.320404 L529.6892356,196.55104 L530.8010344,196.7528465 L531.9128332,196.9834825 L533.024632,197.2141185 L534.1364308,197.473584 L535.2482296,197.70422 L536.3600284,197.9636855 L537.4718272,198.223151 L538.583626,198.511446 L539.6954248,198.799741 L540.8072236,199.088036 L541.9190224,199.376331 L543.0308212,199.6934555 L544.14262,200.01058 L545.2544188,200.3277045 L546.3662176,200.644829 L547.4780164,200.990783 L548.5898152,201.336737 L549.701614,201.7115205 L550.8134128,202.0574745 L551.9252116,202.432258 L553.0370104,202.8070415 L554.1488092,203.2106545 L555.260608,203.6142675 L556.3724068,204.0178805 L557.4842056,204.450323 L558.5960044,204.8827655 L559.7078032,205.315208 L560.819602,205.7476505 L561.9314008,206.2089225 L563.0431996,206.6701945 L564.1549984,207.160296 L565.2667972,207.6503975 L566.378596,208.140499 L567.4903948,208.6306005 L568.6021936,209.1495315 L569.7139924,209.697292 L570.8257912,210.216223 L571.93759,210.7639835 L573.0493888,211.3405735 L574.1611876,211.888334 L575.2729864,212.464924 L576.3847852,213.0703435 L577.496584,213.675763 L578.6083828,214.2811825 L579.7201816,214.9154315 L580.8319804,215.5496805 L581.9437792,216.1839295 L583.055578,216.847008 L584.1673768,217.538916 L585.2791756,218.2019945 L586.3909744,218.8939025 L587.5027732,219.61464 L588.614572,220.3353775 L589.7263708,221.0849445 L590.8381696,221.8345115 L591.9499684,222.5840785 L593.0617672,223.362475 L594.173566,224.169701 L595.2853648,224.9480975 L596.3971636,225.784153 L597.5089624,226.6202085 L598.6207612,227.456264 L599.73256,228.321149 L600.8443588,229.2148635 L601.9561576,230.108578 L603.0679564,231.0022925 L604.1797552,231.953666 L605.291554,232.87621 L606.4033528,233.856413 L607.5151516,234.836616 L608.6269504,235.816819 L609.7387492,236.854681 L610.850548,237.8637135 L611.9623468,238.930405 L613.0741456,239.9970965 L614.1859444,241.0926175 L615.2977432,242.216968 L616.409542,243.3413185 L617.5213408,244.4944985 L618.6331396,245.676508 L619.7449384,246.8585175 L620.8567372,248.0693565 L621.968536,249.3378545 L623.0803348,250.577523 L624.1921336,251.8748505 L625.3039324,253.2010075 L626.4157312,254.5271645 L627.52753,255.9109805 L628.6393288,257.2947965 L629.7511276,258.7362715 L630.8629264,260.1777465 L631.9747252,261.648051 L633.086524,263.1760145 L634.1983228,264.703978 L635.3101216,266.2896005 L636.4219204,267.9040525 L637.5337192,269.5185045 L638.645518,271.219445 L639.7573168,272.9203855 L640.8691156,274.678985 L641.9809144,276.466414 L643.0927132,278.2826725 L644.204512,280.15659 L645.3163108,282.059337 L646.4281096,284.019743 L647.5399084,286.037808 L648.6517072,288.0847025 L649.763506,290.189256 L650.8753048,292.322639 L651.9871036,294.5425105 L653.0989024,296.7912115 L654.2107012,299.126401 L655.3225,301.49042 " fill-rule="evenodd" vector-effect="non-scaling-stroke"/>
                        </g>
                    </g>
                </g>
                <g id="PlotDataItem_2">
                    <g fill="none" fill-rule="evenodd" id="PlotCurveItem_2" stroke="black" stroke-linecap="square" stroke-linejoin="bevel" stroke-width="1">
                        <g fill="none" font-family="MS Shell Dlg 2" font-size="11" font-style="normal" font-weight="400" stroke="#c7b069" stroke-linecap="square" stroke-linejoin="bevel" stroke-opacity="1" stroke-width="1.5">
                            <path d="M99.4231000926,308.582477 L100.5348988,301.9805215 L101.6466976,295.7533495 L102.7584964,289.8721315 L103.8702952,284.2792085 L104.982094,278.9745805 L106.0938928,273.929418 L107.2056916,269.1148915 L108.3174904,264.531001 L109.4292892,260.1200875 L110.541088,255.882151 L111.6528868,251.846021 L112.7646856,247.9540385 L113.8764844,244.2062035 L114.9882832,240.602516 L116.100082,237.1141465 L117.2118808,233.7699245 L118.3236796,230.5410205 L119.4354784,227.398605 L120.5472772,224.3715075 L121.659076,221.4308985 L122.7708748,218.6056075 L123.8826736,215.8379755 L124.9944724,213.156832 L126.1062712,210.5910065 L127.21807,208.0540105 L128.3298688,205.6323325 L129.4416676,203.239484 L130.5534664,200.933124 L131.6652652,198.684423 L132.777064,196.493381 L133.8888628,194.3888275 L135.0006616,192.3131035 L136.1124604,190.2950385 L137.2242592,188.305803 L138.336058,186.403056 L139.4478568,184.5291385 L140.5596556,182.71288 L141.6714544,180.925451 L142.7832532,179.195681 L143.895052,177.4947405 L145.0068508,175.851459 L146.1186496,174.237007 L147.2304484,172.6513845 L148.3422472,171.0945915 L149.454046,169.5954575 L150.5658448,168.125153 L151.6776436,166.683678 L152.7894424,165.299862 L153.9012412,163.916046 L155.01304,162.589889 L156.1248388,161.263732 L157.2366376,159.9664045 L158.3484364,158.726736 L159.4602352,157.4870675 L160.572034,156.305058 L161.6838328,155.1230485 L162.7956316,153.9698685 L163.9074304,152.845518 L165.0192292,151.749997 L166.131028,150.6833055 L167.2428268,149.6454435 L168.3546256,148.6075815 L169.4664244,147.598549 L170.5782232,146.618346 L171.690022,145.6669725 L172.8018208,144.715599 L173.9136196,143.793055 L175.0254184,142.8993405 L176.1372172,142.005626 L177.249016,141.1695705 L178.3608148,140.3046855 L179.4726136,139.4974595 L180.5844124,138.6902335 L181.6962112,137.911837 L182.80801,137.1334405 L183.9198088,136.3838735 L185.0316076,135.663136 L186.1434064,134.9423985 L187.2552052,134.2504905 L188.367004,133.5585825 L189.4788028,132.895504 L190.5906016,132.261255 L191.7024004,131.627006 L192.8141992,130.992757 L193.925998,130.3873375 L195.0377968,129.8107475 L196.1495956,129.2341575 L197.2613944,128.686397 L198.3731932,128.1386365 L199.484992,127.6197055 L200.5967908,127.1007745 L201.7085896,126.5818435 L202.8203884,126.091742 L203.9321872,125.63047 L205.043986,125.169198 L206.1557848,124.7367555 L207.2675836,124.304313 L208.3793824,123.8718705 L209.4911812,123.4682575 L210.60298,123.0646445 L211.7147788,122.689861 L212.8265776,122.3150775 L213.9383764,121.9691235 L215.0501752,121.6231695 L216.161974,121.306045 L217.2737728,120.9889205 L218.3855716,120.671796 L219.4973704,120.383501 L220.6091692,120.095206 L221.720968,119.8357405 L222.8327668,119.576275 L223.9445656,119.3168095 L225.0563644,119.0861735 L226.1681632,118.884367 L227.279962,118.653731 L228.3917608,118.4519245 L229.5035596,118.2789475 L230.6153584,118.1059705 L231.7271572,117.9329935 L232.838956,117.788846 L233.9507548,117.6446985 L235.0625536,117.500551 L236.1743524,117.385233 L237.2861512,117.269915 L238.39795,117.1834265 L239.5097488,117.096938 L240.6215476,117.039279 L241.7333464,116.9527905 L242.8451452,116.923961 L243.956944,116.866302 L245.0687428,116.8374725 L246.1805416,116.808643 L247.2923404,116.808643 L248.4041392,116.808643 L249.515938,116.8374725 L250.6277368,116.866302 L251.7395356,116.8951315 L252.8513344,116.9527905 L253.9631332,117.0104495 L255.074932,117.0681085 L256.1867308,117.154597 L257.2985296,117.2410855 L258.4103284,117.3564035 L259.5221272,117.4717215 L260.633926,117.5870395 L261.7457248,117.731187 L262.8575236,117.8753345 L263.9693224,118.019482 L265.0811212,118.192459 L266.19292,118.3942655 L267.3047188,118.5672425 L268.4165176,118.7978785 L269.5283164,118.999685 L270.6401152,119.230321 L271.751914,119.460957 L272.8637128,119.7204225 L273.9755116,119.979888 L275.0873104,120.268183 L276.1991092,120.556478 L277.310908,120.844773 L278.4227068,121.1618975 L279.5345056,121.5078515 L280.6463044,121.824976 L281.7581032,122.17093 L282.869902,122.5457135 L283.9817008,122.920497 L285.0934996,123.2952805 L286.2052984,123.6988935 L287.3170972,124.131336 L288.428896,124.5637785 L289.5406948,124.996221 L290.6524936,125.457493 L291.7642924,125.918765 L292.8760912,126.380037 L293.98789,126.898968 L295.0996888,127.3890695 L296.2114876,127.9080005 L297.3232864,128.455761 L298.4350852,129.0035215 L299.546884,129.5801115 L300.6586828,130.1567015 L301.7704816,130.762121 L302.8822804,131.3675405 L303.9940792,132.0017895 L305.105878,132.6360385 L306.2176768,133.299117 L307.3294756,133.9621955 L308.4412744,134.6541035 L309.5530732,135.374841 L310.664872,136.0955785 L311.7766708,136.8451455 L312.8884696,137.5947125 L314.0002684,138.373109 L315.1120672,139.180335 L316.223866,139.987561 L317.3356648,140.8236165 L318.4474636,141.659672 L319.5592624,142.5533865 L320.6710612,143.4182715 L321.78286,144.3408155 L322.8946588,145.2633595 L324.0064576,146.214733 L325.1182564,147.194936 L326.2300552,148.2039685 L327.341854,149.213001 L328.4536528,150.250863 L329.5654516,151.3175545 L330.6772504,152.4130755 L331.7890492,153.5085965 L332.900848,154.6617765 L334.0126468,155.8149565 L335.1244456,156.996966 L336.2362444,158.2366345 L337.3480432,159.476303 L338.459842,160.744801 L339.5716408,162.0421285 L340.6834396,163.3682855 L341.7952384,164.723272 L342.9070372,166.1359175 L344.018836,167.548563 L345.1306348,168.990038 L346.2424336,170.489172 L347.3542324,172.0171355 L348.4660312,173.5739285 L349.57783,175.1883805 L350.6896288,176.831662 L351.8014276,178.503773 L352.9132264,180.2047135 L354.0250252,181.9921425 L355.136824,183.7795715 L356.2486228,185.6246595 L357.3604216,187.5274065 L358.4722204,189.4878125 L359.5840192,191.477048 L360.695818,193.5239425 L361.8076168,195.628496 L362.9194156,197.7907085 L364.0312144,200.01058 L365.1430132,202.31694 L366.254812,204.6521295 L367.3666108,207.0738075 L368.4784096,209.5531445 L369.5902084,212.11897 L370.7020072,214.7424545 L371.813806,217.481257 L372.9256048,220.2777185 L374.0374036,223.1606685 L375.1492024,226.1589365 L376.2610012,229.243693 L377.3728,232.4437675 L378.4845988,229.243693 L379.5963976,226.1589365 L380.7081964,223.1606685 L381.8199952,220.2777185 L382.931794,217.481257 L384.0435928,214.7424545 L385.1553916,212.11897 L386.2671904,209.5531445 L387.3789892,207.0738075 L388.490788,204.6521295 L389.6025868,202.31694 L390.7143856,200.01058 L391.8261844,197.7907085 L392.9379832,195.628496 L394.049782,193.5239425 L395.1615808,191.477048 L396.2733796,189.4878125 L397.3851784,187.5274065 L398.4969772,185.6246595 L399.608776,183.7795715 L400.7205748,181.9921425 L401.8323736,180.2047135 L402.9441724,178.503773 L404.0559712,176.831662 L405.16777,175.1883805 L406.2795688,173.5739285 L407.3913676,172.0171355 L408.5031664,170.489172 L409.6149652,168.990038 L410.726764,167.548563 L411.8385628,166.1359175 L412.9503616,164.723272 L414.0621604,163.3682855 L415.1739592,162.0421285 L416.285758,160.744801 L417.3975568,159.476303 L418.5093556,158.2366345 L419.6211544,156.996966 L420.7329532,155.8149565 L421.844752,154.6617765 L422.9565508,153.5085965 L424.0683496,152.4130755 L425.1801484,151.3175545 L426.2919472,150.250863 L427.403746,149.213001 L428.5155448,148.2039685 L429.6273436,147.194936 L430.7391424,146.214733 L431.8509412,145.2633595 L432.96274,144.3408155 L434.0745388,143.4182715 L435.1863376,142.5533865 L436.2981364,141.659672 L437.4099352,140.8236165 L438.521734,139.987561 L439.6335328,139.180335 L440.7453316,138.373109 L441.8571304,137.5947125 L442.9689292,136.8451455 L444.080728,136.0955785 L445.1925268,135.374841 L446.3043256,134.6541035 L447.4161244,133.9621955 L448.5279232,133.299117 L449.639722,132.6360385 L450.7515208,132.0017895 L451.8633196,131.3675405 L452.9751184,130.762121 L454.0869172,130.1567015 L455.198716,129.5801115 L456.3105148,129.0035215 L457.4223136,128.455761 L458.5341124,127.9080005 L459.6459112,127.3890695 L460.75771,126.898968 L461.8695088,126.380037 L462.9813076,125.918765 L464.0931064,125.457493 L465.2049052,124.996221 L466.316704,124.5637785 L467.4285028,124.131336 L468.5403016,123.6988935 L469.6521004,123.2952805 L470.7638992,122.920497 L471.875698,122.5457135 L472.9874968,122.17093 L474.0992956,121.824976 L475.2110944,121.5078515 L476.3228932,121.1618975 L477.434692,120.844773 L478.5464908,120.556478 L479.6582896,120.268183 L480.7700884,119.979888 L481.8818872,119.7204225 L482.993686,119.460957 L484.1054848,119.230321 L485.2172836,118.999685 L486.3290824,118.7978785 L487.4408812,118.5672425 L488.55268,118.3942655 L489.6644788,118.192459 L490.7762776,118.019482 L491.8880764,117.8753345 L492.9998752,117.731187 L494.111674,117.5870395 L495.2234728,117.4717215 L496.3352716,117.3564035 L497.4470704,117.2410855 L498.5588692,117.154597 L499.670668,117.0681085 L500.7824668,117.0104495 L501.8942656,116.9527905 L503.0060644,116.8951315 L504.1178632,116.866302 L505.229662,116.8374725 L506.3414608,116.808643 L507.4532596,116.808643 L508.5650584,116.808643 L509.6768572,116.8374725 L510.788656,116.866302 L511.9004548,116.923961 L513.0122536,116.9527905 L514.1240524,117.039279 L515.2358512,117.096938 L516.34765,117.1834265 L517.4594488,117.269915 L518.5712476,117.385233 L519.6830464,117.500551 L520.7948452,117.6446985 L521.906644,117.788846 L523.0184428,117.9329935 L524.1302416,118.1059705 L525.2420404,118.2789475 L526.3538392,118.4519245 L527.465638,118.653731 L528.5774368,118.884367 L529.6892356,119.0861735 L530.8010344,119.3168095 L531.9128332,119.576275 L533.024632,119.8357405 L534.1364308,120.095206 L535.2482296,120.383501 L536.3600284,120.671796 L537.4718272,120.9889205 L538.583626,121.306045 L539.6954248,121.6231695 L540.8072236,121.9691235 L541.9190224,122.3150775 L543.0308212,122.689861 L544.14262,123.0646445 L545.2544188,123.4682575 L546.3662176,123.8718705 L547.4780164,124.304313 L548.5898152,124.7367555 L549.701614,125.169198 L550.8134128,125.63047 L551.9252116,126.091742 L553.0370104,126.5818435 L554.1488092,127.1007745 L555.260608,127.6197055 L556.3724068,128.1386365 L557.4842056,128.686397 L558.5960044,129.2341575 L559.7078032,129.8107475 L560.819602,130.3873375 L561.9314008,130.992757 L563.0431996,131.627006 L564.1549984,132.261255 L565.2667972,132.895504 L566.378596,133.5585825 L567.4903948,134.2504905 L568.6021936,134.9423985 L569.7139924,135.663136 L570.8257912,136.3838735 L571.93759,137.1334405 L573.0493888,137.911837 L574.1611876,138.6902335 L575.2729864,139.4974595 L576.3847852,140.3046855 L577.496584,141.1695705 L578.6083828,142.005626 L579.7201816,142.8993405 L580.8319804,143.793055 L581.9437792,144.715599 L583.055578,145.6669725 L584.1673768,146.618346 L585.2791756,147.598549 L586.3909744,148.6075815 L587.5027732,149.6454435 L588.614572,150.6833055 L589.7263708,151.749997 L590.8381696,152.845518 L591.9499684,153.9698685 L593.0617672,155.1230485 L594.173566,156.305058 L595.2853648,157.4870675 L596.3971636,158.726736 L597.5089624,159.9664045 L598.6207612,161.263732 L599.73256,162.589889 L600.8443588,163.916046 L601.9561576,165.299862 L603.0679564,166.683678 L604.1797552,168.125153 L605.291554,169.5954575 L606.4033528,171.0945915 L607.5151516,172.6513845 L608.6269504,174.237007 L609.7387492,175.851459 L610.850548,177.4947405 L611.9623468,179.195681 L613.0741456,180.925451 L614.1859444,182.71288 L615.2977432,184.5291385 L616.409542,186.403056 L617.5213408,188.305803 L618.6331396,190.2950385 L619.7449384,192.3131035 L620.8567372,194.3888275 L621.968536,196.493381 L623.0803348,198.684423 L624.1921336,200.933124 L625.3039324,203.239484 L626.4157312,205.6323325 L627.52753,208.0540105 L628.6393288,210.5910065 L629.7511276,213.156832 L630.8629264,215.8379755 L631.9747252,218.6056075 L633.086524,221.4308985 L634.1983228,224.3715075 L635.3101216,227.398605 L636.4219204,230.5410205 L637.5337192,233.7699245 L638.645518,237.1141465 L639.7573168,240.602516 L640.8691156,244.2062035 L641.9809144,247.9540385 L643.0927132,251.846021 L644.204512,255.882151 L645.3163108,260.1200875 L646.4281096,264.531001 L647.5399084,269.1148915 L648.6517072,273.929418 L649.763506,278.9745805 L650.8753048,284.2792085 L651.9871036,289.8721315 L653.0989024,295.7533495 L654.2107012,301.9805215 L655.3225,308.582477 " fill-rule="evenodd" vector-effect="non-scaling-stroke"/>
                        </g>
                    </g>
                </g>
                <g id="PlotDataItem_3">
                    <g fill="none" fill-rule="evenodd" id="PlotCurveItem_3" stroke="black" stroke-linecap="square" stroke-linejoin="bevel" stroke-width="1">
                        <g fill="none" font-family="MS Shell Dlg 2" font-size="11" font-style="normal" font-weight="400" stroke="#7ea695" stroke-linecap="square" stroke-linejoin="bevel" stroke-opacity="1" stroke-width="1.5">
                            <path d="M99.4231000926,310.13927 L100.5348988,301.49042 L101.6466976,293.4469895 L102.7584964,285.9513195 L103.8702952,278.945751 L104.982094,272.3437955 L106.0938928,266.145453 L107.2056916,260.264235 L108.3174904,254.7001415 L109.4292892,249.3955135 L110.541088,244.3791805 L111.6528868,239.564654 L112.7646856,234.9807635 L113.8764844,230.5986795 L114.9882832,226.3895725 L116.100082,222.3534425 L117.2118808,218.4902895 L118.3236796,214.7424545 L119.4354784,211.1675965 L120.5472772,207.7080565 L121.659076,204.3638345 L122.7708748,201.1349305 L123.8826736,198.0213445 L124.9944724,195.0230765 L126.1062712,192.111297 L127.21807,189.286006 L128.3298688,186.5472035 L129.4416676,183.8948895 L130.5534664,181.329064 L131.6652652,178.8208975 L132.777064,176.3992195 L133.8888628,174.06403 L135.0006616,171.75767 L136.1124604,169.5377985 L137.2242592,167.375586 L138.336058,165.2710325 L139.4478568,163.224138 L140.5596556,161.206073 L141.6714544,159.2744965 L142.7832532,157.3717495 L143.895052,155.5266615 L145.0068508,153.7392325 L146.1186496,151.980633 L147.2304484,150.250863 L148.3422472,148.6075815 L149.454046,146.9643 L150.5658448,145.3786775 L151.6776436,143.8218845 L152.7894424,142.293921 L153.9012412,140.8236165 L155.01304,139.3821415 L156.1248388,137.969496 L157.2366376,136.58568 L158.3484364,135.2306935 L159.4602352,133.933366 L160.572034,132.6360385 L161.6838328,131.39637 L162.7956316,130.1567015 L163.9074304,128.974692 L165.0192292,127.7926825 L166.131028,126.6395025 L167.2428268,125.515152 L168.3546256,124.419631 L169.4664244,123.3529395 L170.5782232,122.3150775 L171.690022,121.306045 L172.8018208,120.2970125 L173.9136196,119.3168095 L175.0254184,118.365436 L176.1372172,117.442892 L177.249016,116.520348 L178.3608148,115.655463 L179.4726136,114.790578 L180.5844124,113.925693 L181.6962112,113.0896375 L182.80801,112.2824115 L183.9198088,111.504015 L185.0316076,110.7256185 L186.1434064,109.9760515 L187.2552052,109.255314 L188.367004,108.5345765 L189.4788028,107.8426685 L190.5906016,107.1507605 L191.7024004,106.487682 L192.8141992,105.853433 L193.925998,105.219184 L195.0377968,104.6137645 L196.1495956,104.008345 L197.2613944,103.431755 L198.3731932,102.855165 L199.484992,102.3074045 L200.5967908,101.7884735 L201.7085896,101.2695425 L202.8203884,100.7506115 L203.9321872,100.26051 L205.043986,99.799238 L206.1557848,99.337966 L207.2675836,98.9055235 L208.3793824,98.473081 L209.4911812,98.0406385 L210.60298,97.6370255 L211.7147788,97.262242 L212.8265776,96.8874585 L213.9383764,96.512675 L215.0501752,96.166721 L216.161974,95.8495965 L217.2737728,95.5036425 L218.3855716,95.2153475 L219.4973704,94.898223 L220.6091692,94.6387575 L221.720968,94.3504625 L222.8327668,94.090997 L223.9445656,93.860361 L225.0563644,93.629725 L226.1681632,93.399089 L227.279962,93.1972825 L228.3917608,92.995476 L229.5035596,92.822499 L230.6153584,92.649522 L231.7271572,92.5053745 L232.838956,92.361227 L233.9507548,92.2170795 L235.0625536,92.1017615 L236.1743524,91.9864435 L237.2861512,91.899955 L238.39795,91.8134665 L239.5097488,91.726978 L240.6215476,91.669319 L241.7333464,91.6404895 L242.8451452,91.5828305 L243.956944,91.5828305 L245.0687428,91.554001 L246.1805416,91.554001 L247.2923404,91.5828305 L248.4041392,91.5828305 L249.515938,91.6404895 L250.6277368,91.669319 L251.7395356,91.726978 L252.8513344,91.8134665 L253.9631332,91.899955 L255.074932,91.9864435 L256.1867308,92.1017615 L257.2985296,92.2170795 L258.4103284,92.361227 L259.5221272,92.5053745 L260.633926,92.649522 L261.7457248,92.822499 L262.8575236,92.995476 L263.9693224,93.1972825 L265.0811212,93.399089 L266.19292,93.629725 L267.3047188,93.860361 L268.4165176,94.090997 L269.5283164,94.3504625 L270.6401152,94.6387575 L271.751914,94.898223 L272.8637128,95.2153475 L273.9755116,95.5036425 L275.0873104,95.8495965 L276.1991092,96.166721 L277.310908,96.512675 L278.4227068,96.8874585 L279.5345056,97.262242 L280.6463044,97.6370255 L281.7581032,98.0406385 L282.869902,98.473081 L283.9817008,98.9055235 L285.0934996,99.337966 L286.2052984,99.799238 L287.3170972,100.26051 L288.428896,100.7506115 L289.5406948,101.2695425 L290.6524936,101.7884735 L291.7642924,102.3074045 L292.8760912,102.855165 L293.98789,103.431755 L295.0996888,104.008345 L296.2114876,104.6137645 L297.3232864,105.219184 L298.4350852,105.853433 L299.546884,106.487682 L300.6586828,107.1507605 L301.7704816,107.8426685 L302.8822804,108.5345765 L303.9940792,109.255314 L305.105878,109.9760515 L306.2176768,110.7256185 L307.3294756,111.504015 L308.4412744,112.2824115 L309.5530732,113.0896375 L310.664872,113.925693 L311.7766708,114.790578 L312.8884696,115.655463 L314.0002684,116.520348 L315.1120672,117.442892 L316.223866,118.365436 L317.3356648,119.3168095 L318.4474636,120.2970125 L319.5592624,121.306045 L320.6710612,122.3150775 L321.78286,123.3529395 L322.8946588,124.419631 L324.0064576,125.515152 L325.1182564,126.6395025 L326.2300552,127.7926825 L327.341854,128.974692 L328.4536528,130.1567015 L329.5654516,131.39637 L330.6772504,132.6360385 L331.7890492,133.933366 L332.900848,135.2306935 L334.0126468,136.58568 L335.1244456,137.969496 L336.2362444,139.3821415 L337.3480432,140.8236165 L338.459842,142.293921 L339.5716408,143.8218845 L340.6834396,145.3786775 L341.7952384,146.9643 L342.9070372,148.6075815 L344.018836,150.250863 L345.1306348,151.980633 L346.2424336,153.7392325 L347.3542324,155.5266615 L348.4660312,157.3717495 L349.57783,159.2744965 L350.6896288,161.206073 L351.8014276,163.224138 L352.9132264,165.2710325 L354.0250252,167.375586 L355.136824,169.5377985 L356.2486228,171.75767 L357.3604216,174.06403 L358.4722204,176.3992195 L359.5840192,178.8208975 L360.695818,181.329064 L361.8076168,183.8948895 L362.9194156,186.5472035 L364.0312144,189.286006 L365.1430132,192.111297 L366.254812,195.0230765 L367.3666108,198.0213445 L368.4784096,201.1349305 L369.5902084,204.3638345 L370.7020072,207.7080565 L371.813806,211.1675965 L372.9256048,214.7424545 L374.0374036,218.4902895 L375.1492024,222.3534425 L376.2610012,226.3895725 L377.3728,230.5986795 L378.4845988,226.3895725 L379.5963976,222.3534425 L380.7081964,218.4902895 L381.8199952,214.7424545 L382.931794,211.1675965 L384.0435928,207.7080565 L385.1553916,204.3638345 L386.2671904,201.1349305 L387.3789892,198.0213445 L388.490788,195.0230765 L389.6025868,192.111297 L390.7143856,189.286006 L391.8261844,186.5472035 L392.9379832,183.8948895 L394.049782,181.329064 L395.1615808,178.8208975 L396.2733796,176.3992195 L397.3851784,174.06403 L398.4969772,171.75767 L399.608776,169.5377985 L400.7205748,167.375586 L401.8323736,165.2710325 L402.9441724,163.224138 L404.0559712,161.206073 L405.16777,159.2744965 L406.2795688,157.3717495 L407.3913676,155.5266615 L408.5031664,153.7392325 L409.6149652,151.980633 L410.726764,150.250863 L411.8385628,148.6075815 L412.9503616,146.9643 L414.0621604,145.3786775 L415.1739592,143.8218845 L416.285758,142.293921 L417.3975568,140.8236165 L418.5093556,139.3821415 L419.6211544,137.969496 L420.7329532,136.58568 L421.844752,135.2306935 L422.9565508,133.933366 L424.0683496,132.6360385 L425.1801484,131.39637 L426.2919472,130.1567015 L427.403746,128.974692 L428.5155448,127.7926825 L429.6273436,126.6395025 L430.7391424,125.515152 L431.8509412,124.419631 L432.96274,123.3529395 L434.0745388,122.3150775 L435.1863376,121.306045 L436.2981364,120.2970125 L437.4099352,119.3168095 L438.521734,118.365436 L439.6335328,117.442892 L440.7453316,116.520348 L441.8571304,115.655463 L442.9689292,114.790578 L444.080728,113.925693 L445.1925268,113.0896375 L446.3043256,112.2824115 L447.4161244,111.504015 L448.5279232,110.7256185 L449.639722,109.9760515 L450.7515208,109.255314 L451.8633196,108.5345765 L452.9751184,107.8426685 L454.0869172,107.1507605 L455.198716,106.487682 L456.3105148,105.853433 L457.4223136,105.219184 L458.5341124,104.6137645 L459.6459112,104.008345 L460.75771,103.431755 L461.8695088,102.855165 L462.9813076,102.3074045 L464.0931064,101.7884735 L465.2049052,101.2695425 L466.316704,100.7506115 L467.4285028,100.26051 L468.5403016,99.799238 L469.6521004,99.337966 L470.7638992,98.9055235 L471.875698,98.473081 L472.9874968,98.0406385 L474.0992956,97.6370255 L475.2110944,97.262242 L476.3228932,96.8874585 L477.434692,96.512675 L478.5464908,96.166721 L479.6582896,95.8495965 L480.7700884,95.5036425 L481.8818872,95.2153475 L482.993686,94.898223 L484.1054848,94.6387575 L485.2172836,94.3504625 L486.3290824,94.090997 L487.4408812,93.860361 L488.55268,93.629725 L489.6644788,93.399089 L490.7762776,93.1972825 L491.8880764,92.995476 L492.9998752,92.822499 L494.111674,92.649522 L495.2234728,92.5053745 L496.3352716,92.361227 L497.4470704,92.2170795 L498.5588692,92.1017615 L499.670668,91.9864435 L500.7824668,91.899955 L501.8942656,91.8134665 L503.0060644,91.726978 L504.1178632,91.669319 L505.229662,91.6404895 L506.3414608,91.5828305 L507.4532596,91.5828305 L508.5650584,91.554001 L509.6768572,91.554001 L510.788656,91.5828305 L511.9004548,91.5828305 L513.0122536,91.6404895 L514.1240524,91.669319 L515.2358512,91.726978 L516.34765,91.8134665 L517.4594488,91.899955 L518.5712476,91.9864435 L519.6830464,92.1017615 L520.7948452,92.2170795 L521.906644,92.361227 L523.0184428,92.5053745 L524.1302416,92.649522 L525.2420404,92.822499 L526.3538392,92.995476 L527.465638,93.1972825 L528.5774368,93.399089 L529.6892356,93.629725 L530.8010344,93.860361 L531.9128332,94.090997 L533.024632,94.3504625 L534.1364308,94.6387575 L535.2482296,94.898223 L536.3600284,95.2153475 L537.4718272,95.5036425 L538.583626,95.8495965 L539.6954248,96.166721 L540.8072236,96.512675 L541.9190224,96.8874585 L543.0308212,97.262242 L544.14262,97.6370255 L545.2544188,98.0406385 L546.3662176,98.473081 L547.4780164,98.9055235 L548.5898152,99.337966 L549.701614,99.799238 L550.8134128,100.26051 L551.9252116,100.7506115 L553.0370104,101.2695425 L554.1488092,101.7884735 L555.260608,102.3074045 L556.3724068,102.855165 L557.4842056,103.431755 L558.5960044,104.008345 L559.7078032,104.6137645 L560.819602,105.219184 L561.9314008,105.853433 L563.0431996,106.487682 L564.1549984,107.1507605 L565.2667972,107.8426685 L566.378596,108.5345765 L567.4903948,109.255314 L568.6021936,109.9760515 L569.7139924,110.7256185 L570.8257912,111.504015 L571.93759,112.2824115 L573.0493888,113.0896375 L574.1611876,113.925693 L575.2729864,114.790578 L576.3847852,115.655463 L577.496584,116.520348 L578.6083828,117.442892 L579.7201816,118.365436 L580.8319804,119.3168095 L581.9437792,120.2970125 L583.055578,121.306045 L584.1673768,122.3150775 L585.2791756,123.3529395 L586.3909744,124.419631 L587.5027732,125.515152 L588.614572,126.6395025 L589.7263708,127.7926825 L590.8381696,128.974692 L591.9499684,130.1567015 L593.0617672,131.39637 L594.173566,132.6360385 L595.2853648,133.933366 L596.3971636,135.2306935 L597.5089624,136.58568 L598.6207612,137.969496 L599.73256,139.3821415 L600.8443588,140.8236165 L601.9561576,142.293921 L603.0679564,143.8218845 L604.1797552,145.3786775 L605.291554,146.9643 L606.4033528,148.6075815 L607.5151516,150.250863 L608.6269504,151.980633 L609.7387492,153.7392325 L610.850548,155.5266615 L611.9623468,157.3717495 L613.0741456,159.2744965 L614.1859444,161.206073 L615.2977432,163.224138 L616.409542,165.2710325 L617.5213408,167.375586 L618.6331396,169.5377985 L619.7449384,171.75767 L620.8567372,174.06403 L621.968536,176.3992195 L623.0803348,178.8208975 L624.1921336,181.329064 L625.3039324,183.8948895 L626.4157312,186.5472035 L627.52753,189.286006 L628.6393288,192.111297 L629.7511276,195.0230765 L630.8629264,198.0213445 L631.9747252,201.1349305 L633.086524,204.3638345 L634.1983228,207.7080565 L635.3101216,211.1675965 L636.4219204,214.7424545 L637.5337192,218.4902895 L638.645518,222.3534425 L639.7573168,226.3895725 L640.8691156,230.5986795 L641.9809144,234.9807635 L643.0927132,239.564654 L644.204512,244.3791805 L645.3163108,249.3955135 L646.4281096,254.7001415 L647.5399084,260.264235 L648.6517072,266.145453 L649.763506,272.3437955 L650.8753048,278.945751 L651.9871036,285.9513195 L653.0989024,293.4469895 L654.2107012,301.49042 L655.3225,310.13927 " fill-rule="evenodd" vector-effect="non-scaling-stroke"/>
                        </g>
                    </g>
                </g>
                <g id="PlotDataItem_4">
                    <g fill="none" fill-rule="evenodd" id="PlotCurveItem_4" stroke="black" stroke-linecap="square" stroke-linejoin="bevel" stroke-width="1">
                        <g fill="none" font-family="MS Shell Dlg 2" font-size="11" font-style="normal" font-weight="400" stroke="#8a7c91" stroke-linecap="square" stroke-linejoin="bevel" stroke-opacity="1" stroke-width="1.5">
                            <path d="M99.4231000926,310.1104405 L100.5348988,299.357037 L101.6466976,289.5261775 L102.7584964,280.502544 L103.8702952,272.1131595 L104.982094,264.3291945 L106.0938928,257.0641605 L107.2056916,250.231569 L108.3174904,243.8025905 L109.4292892,237.7483955 L110.541088,232.011325 L111.6528868,226.591379 L112.7646856,221.402069 L113.8764844,216.4722245 L114.9882832,211.773016 L116.100082,207.3044435 L117.2118808,202.9800185 L118.3236796,198.8574 L119.4354784,194.9077585 L120.5472772,191.1022645 L121.659076,187.440918 L122.7708748,183.923719 L123.8826736,180.521838 L124.9944724,177.2641045 L126.1062712,174.0928595 L127.21807,171.0369325 L128.3298688,168.067494 L129.4416676,165.2133735 L130.5534664,162.4457415 L131.6652652,159.764598 L132.777064,157.1411135 L133.8888628,154.632947 L135.0006616,152.1824395 L136.1124604,149.789591 L137.2242592,147.483231 L138.336058,145.23453 L139.4478568,143.043488 L140.5596556,140.910105 L141.6714544,138.8632105 L142.7832532,136.8451455 L143.895052,134.8847395 L145.0068508,132.953163 L146.1186496,131.108075 L147.2304484,129.2918165 L148.3422472,127.533217 L149.454046,125.803447 L150.5658448,124.131336 L151.6776436,122.4880545 L152.7894424,120.902432 L153.9012412,119.345639 L155.01304,117.8176755 L156.1248388,116.3185415 L157.2366376,114.8770665 L158.3484364,113.464421 L159.4602352,112.080605 L160.572034,110.7256185 L161.6838328,109.428291 L162.7956316,108.1309635 L163.9074304,106.891295 L165.0192292,105.6516265 L166.131028,104.469617 L167.2428268,103.2876075 L168.3546256,102.1344275 L169.4664244,101.0389065 L170.5782232,99.9433855 L171.690022,98.876694 L172.8018208,97.838832 L173.9136196,96.8297995 L175.0254184,95.820767 L176.1372172,94.8693935 L177.249016,93.91802 L178.3608148,92.995476 L179.4726136,92.1017615 L180.5844124,91.208047 L181.6962112,90.3719915 L182.80801,89.535936 L183.9198088,88.6998805 L185.0316076,87.921484 L186.1434064,87.1430875 L187.2552052,86.364691 L188.367004,85.6439535 L189.4788028,84.923216 L190.5906016,84.2024785 L191.7024004,83.5394 L192.8141992,82.8763215 L193.925998,82.213243 L195.0377968,81.578994 L196.1495956,80.9735745 L197.2613944,80.368155 L198.3731932,79.791565 L199.484992,79.2438045 L200.5967908,78.696044 L201.7085896,78.1482835 L202.8203884,77.6293525 L203.9321872,77.139251 L205.043986,76.6491495 L206.1557848,76.1878775 L207.2675836,75.7266055 L208.3793824,75.294163 L209.4911812,74.8617205 L210.60298,74.4581075 L211.7147788,74.0544945 L212.8265776,73.679711 L213.9383764,73.3049275 L215.0501752,72.9589735 L216.161974,72.6130195 L217.2737728,72.295895 L218.3855716,71.9787705 L219.4973704,71.6904755 L220.6091692,71.4021805 L221.720968,71.142715 L222.8327668,70.8832495 L223.9445656,70.6526135 L225.0563644,70.4219775 L226.1681632,70.1913415 L227.279962,69.989535 L228.3917608,69.816558 L229.5035596,69.6147515 L230.6153584,69.470604 L231.7271572,69.297627 L232.838956,69.182309 L233.9507548,69.0381615 L235.0625536,68.9228435 L236.1743524,68.836355 L237.2861512,68.7498665 L238.39795,68.663378 L239.5097488,68.605719 L240.6215476,68.5768895 L241.7333464,68.5192305 L242.8451452,68.5192305 L243.956944,68.490401 L245.0687428,68.490401 L246.1805416,68.5192305 L247.2923404,68.54806 L248.4041392,68.5768895 L249.515938,68.6345485 L250.6277368,68.6922075 L251.7395356,68.778696 L252.8513344,68.8651845 L253.9631332,68.9805025 L255.074932,69.0958205 L256.1867308,69.2111385 L257.2985296,69.355286 L258.4103284,69.4994335 L259.5221272,69.6724105 L260.633926,69.8453875 L261.7457248,70.047194 L262.8575236,70.2490005 L263.9693224,70.4796365 L265.0811212,70.7102725 L266.19292,70.969738 L267.3047188,71.2292035 L268.4165176,71.488669 L269.5283164,71.776964 L270.6401152,72.0940885 L271.751914,72.411213 L272.8637128,72.7283375 L273.9755116,73.0742915 L275.0873104,73.4202455 L276.1991092,73.795029 L277.310908,74.1698125 L278.4227068,74.5734255 L279.5345056,75.005868 L280.6463044,75.409481 L281.7581032,75.870753 L282.869902,76.332025 L283.9817008,76.793297 L285.0934996,77.2833985 L286.2052984,77.8023295 L287.3170972,78.3212605 L288.428896,78.8401915 L289.5406948,79.4167815 L290.6524936,79.964542 L291.7642924,80.5699615 L292.8760912,81.1465515 L293.98789,81.7808005 L295.0996888,82.4150495 L296.2114876,83.078128 L297.3232864,83.7412065 L298.4350852,84.4331145 L299.546884,85.1250225 L300.6586828,85.84576 L301.7704816,86.595327 L302.8822804,87.3737235 L303.9940792,88.15212 L305.105878,88.959346 L306.2176768,89.766572 L307.3294756,90.631457 L308.4412744,91.496342 L309.5530732,92.361227 L310.664872,93.283771 L311.7766708,94.206315 L312.8884696,95.1576885 L314.0002684,96.1378915 L315.1120672,97.1180945 L316.223866,98.1559565 L317.3356648,99.1938185 L318.4474636,100.26051 L319.5592624,101.356031 L320.6710612,102.4803815 L321.78286,103.6335615 L322.8946588,104.815571 L324.0064576,106.02641 L325.1182564,107.2660785 L326.2300552,108.5345765 L327.341854,109.831904 L328.4536528,111.158061 L329.5654516,112.5130475 L330.6772504,113.8968635 L331.7890492,115.309509 L332.900848,116.7798135 L334.0126468,118.2789475 L335.1244456,119.806911 L336.2362444,121.363704 L337.3480432,122.978156 L338.459842,124.6214375 L339.5716408,126.322378 L340.6834396,128.052148 L341.7952384,129.839577 L342.9070372,131.6558355 L344.018836,133.529753 L345.1306348,135.4613295 L346.2424336,137.450565 L347.3542324,139.46863 L348.4660312,141.5731835 L349.57783,143.7065665 L350.6896288,145.8976085 L351.8014276,148.175139 L352.9132264,150.5103285 L354.0250252,152.903177 L355.136824,155.382514 L356.2486228,157.9483395 L357.3604216,160.571824 L358.4722204,163.281797 L359.5840192,166.0782585 L360.695818,168.9612085 L361.8076168,171.9594765 L362.9194156,175.044233 L364.0312144,178.2443075 L365.1430132,181.5597 L366.254812,184.9904105 L367.3666108,188.536439 L368.4784096,192.2554445 L369.5902084,196.089768 L370.7020072,200.0970685 L371.813806,204.277346 L372.9256048,208.6306005 L374.0374036,213.1856615 L375.1492024,217.9713585 L376.2610012,222.958862 L377.3728,228.205831 L378.4845988,222.958862 L379.5963976,217.9713585 L380.7081964,213.1856615 L381.8199952,208.6306005 L382.931794,204.277346 L384.0435928,200.0970685 L385.1553916,196.089768 L386.2671904,192.2554445 L387.3789892,188.536439 L388.490788,184.9904105 L389.6025868,181.5597 L390.7143856,178.2443075 L391.8261844,175.044233 L392.9379832,171.9594765 L394.049782,168.9612085 L395.1615808,166.0782585 L396.2733796,163.281797 L397.3851784,160.571824 L398.4969772,157.9483395 L399.608776,155.382514 L400.7205748,152.903177 L401.8323736,150.5103285 L402.9441724,148.175139 L404.0559712,145.8976085 L405.16777,143.7065665 L406.2795688,141.5731835 L407.3913676,139.46863 L408.5031664,137.450565 L409.6149652,135.4613295 L410.726764,133.529753 L411.8385628,131.6558355 L412.9503616,129.839577 L414.0621604,128.052148 L415.1739592,126.322378 L416.285758,124.6214375 L417.3975568,122.978156 L418.5093556,121.363704 L419.6211544,119.806911 L420.7329532,118.2789475 L421.844752,116.7798135 L422.9565508,115.309509 L424.0683496,113.8968635 L425.1801484,112.5130475 L426.2919472,111.158061 L427.403746,109.831904 L428.5155448,108.5345765 L429.6273436,107.2660785 L430.7391424,106.02641 L431.8509412,104.815571 L432.96274,103.6335615 L434.0745388,102.4803815 L435.1863376,101.356031 L436.2981364,100.26051 L437.4099352,99.1938185 L438.521734,98.1559565 L439.6335328,97.1180945 L440.7453316,96.1378915 L441.8571304,95.1576885 L442.9689292,94.206315 L444.080728,93.283771 L445.1925268,92.361227 L446.3043256,91.496342 L447.4161244,90.631457 L448.5279232,89.766572 L449.639722,88.959346 L450.7515208,88.15212 L451.8633196,87.3737235 L452.9751184,86.595327 L454.0869172,85.84576 L455.198716,85.1250225 L456.3105148,84.4331145 L457.4223136,83.7412065 L458.5341124,83.078128 L459.6459112,82.4150495 L460.75771,81.7808005 L461.8695088,81.1465515 L462.9813076,80.5699615 L464.0931064,79.964542 L465.2049052,79.4167815 L466.316704,78.8401915 L467.4285028,78.3212605 L468.5403016,77.8023295 L469.6521004,77.2833985 L470.7638992,76.793297 L471.875698,76.332025 L472.9874968,75.870753 L474.0992956,75.409481 L475.2110944,75.005868 L476.3228932,74.5734255 L477.434692,74.1698125 L478.5464908,73.795029 L479.6582896,73.4202455 L480.7700884,73.0742915 L481.8818872,72.7283375 L482.993686,72.411213 L484.1054848,72.0940885 L485.2172836,71.776964 L486.3290824,71.488669 L487.4408812,71.2292035 L488.55268,70.969738 L489.6644788,70.7102725 L490.7762776,70.4796365 L491.8880764,70.2490005 L492.9998752,70.047194 L494.111674,69.8453875 L495.2234728,69.6724105 L496.3352716,69.4994335 L497.4470704,69.355286 L498.5588692,69.2111385 L499.670668,69.0958205 L500.7824668,68.9805025 L501.8942656,68.8651845 L503.0060644,68.778696 L504.1178632,68.6922075 L505.229662,68.6345485 L506.3414608,68.5768895 L507.4532596,68.54806 L508.5650584,68.5192305 L509.6768572,68.490401 L510.788656,68.490401 L511.9004548,68.5192305 L513.0122536,68.5192305 L514.1240524,68.5768895 L515.2358512,68.605719 L516.34765,68.663378 L517.4594488,68.7498665 L518.5712476,68.836355 L519.6830464,68.9228435 L520.7948452,69.0381615 L521.906644,69.182309 L523.0184428,69.297627 L524.1302416,69.470604 L525.2420404,69.6147515 L526.3538392,69.816558 L527.465638,69.989535 L528.5774368,70.1913415 L529.6892356,70.4219775 L530.8010344,70.6526135 L531.9128332,70.8832495 L533.024632,71.142715 L534.1364308,71.4021805 L535.2482296,71.6904755 L536.3600284,71.9787705 L537.4718272,72.295895 L538.583626,72.6130195 L539.6954248,72.9589735 L540.8072236,73.3049275 L541.9190224,73.679711 L543.0308212,74.0544945 L544.14262,74.4581075 L545.2544188,74.8617205 L546.3662176,75.294163 L547.4780164,75.7266055 L548.5898152,76.1878775 L549.701614,76.6491495 L550.8134128,77.139251 L551.9252116,77.6293525 L553.0370104,78.1482835 L554.1488092,78.696044 L555.260608,79.2438045 L556.3724068,79.791565 L557.4842056,80.368155 L558.5960044,80.9735745 L559.7078032,81.578994 L560.819602,82.213243 L561.9314008,82.8763215 L563.0431996,83.5394 L564.1549984,84.2024785 L565.2667972,84.923216 L566.378596,85.6439535 L567.4903948,86.364691 L568.6021936,87.1430875 L569.7139924,87.921484 L570.8257912,88.6998805 L571.93759,89.535936 L573.0493888,90.3719915 L574.1611876,91.208047 L575.2729864,92.1017615 L576.3847852,92.995476 L577.496584,93.91802 L578.6083828,94.8693935 L579.7201816,95.820767 L580.8319804,96.8297995 L581.9437792,97.838832 L583.055578,98.876694 L584.1673768,99.9433855 L585.2791756,101.0389065 L586.3909744,102.1344275 L587.5027732,103.2876075 L588.614572,104.469617 L589.7263708,105.6516265 L590.8381696,106.891295 L591.9499684,108.1309635 L593.0617672,109.428291 L594.173566,110.7256185 L595.2853648,112.080605 L596.3971636,113.464421 L597.5089624,114.8770665 L598.6207612,116.3185415 L599.73256,117.8176755 L600.8443588,119.345639 L601.9561576,120.902432 L603.0679564,122.4880545 L604.1797552,124.131336 L605.291554,125.803447 L606.4033528,127.533217 L607.5151516,129.2918165 L608.6269504,131.108075 L609.7387492,132.953163 L610.850548,134.8847395 L611.9623468,136.8451455 L613.0741456,138.8632105 L614.1859444,140.910105 L615.2977432,143.043488 L616.409542,145.23453 L617.5213408,147.483231 L618.6331396,149.789591 L619.7449384,152.1824395 L620.8567372,154.632947 L621.968536,157.1411135 L623.0803348,159.764598 L624.1921336,162.4457415 L625.3039324,165.2133735 L626.4157312,168.067494 L627.52753,171.0369325 L628.6393288,174.0928595 L629.7511276,177.2641045 L630.8629264,180.521838 L631.9747252,183.923719 L633.086524,187.440918 L634.1983228,191.1022645 L635.3101216,194.9077585 L636.4219204,198.8574 L637.5337192,202.9800185 L638.645518,207.3044435 L639.7573168,211.773016 L640.8691156,216.4722245 L641.9809144,221.402069 L643.0927132,226.591379 L644.204512,232.011325 L645.3163108,237.7483955 L646.4281096,243.8025905 L647.5399084,250.231569 L648.6517072,257.0641605 L649.763506,264.3291945 L650.8753048,272.1131595 L651.9871036,280.502544 L653.0989024,289.5261775 L654.2107012,299.357037 L655.3225,310.1104405 " fill-rule="evenodd" vector-effect="non-scaling-stroke"/>
                        </g>
                    </g>
                </g>
                <g id="PlotDataItem_5"/>
                <g id="PlotDataItem_6"/>
                <g id="PlotDataItem_7"/>
                <g id="PlotDataItem_8"/>
                <g id="PlotDataItem_9"/>
                <g id="PlotDataItem_10"/>
            </g>
            <g fill="none" fill-rule="evenodd" id="LegendItem_1" stroke="black" stroke-linecap="square" stroke-linejoin="bevel" stroke-width="1">
                <g fill="#646464" fill-opacity="0.196078" font-family="MS Shell Dlg 2" font-size="11" font-style="normal" font-weight="400" stroke="#ffffff" stroke-linecap="square" stroke-linejoin="bevel" stroke-opacity="0.392157" stroke-width="1">
                    <path d="M94.8,61.0 L189.8,61.0 L189.8,262.0 L94.8,262.0 L94.8,61.0 " fill-rule="evenodd" vector-effect="non-scaling-stroke"/>
                </g>
                <g fill="none" fill-rule="evenodd" id="ItemSample_1" stroke="black" stroke-linecap="square" stroke-linejoin="bevel" stroke-width="1">
                    <g fill="none" font-family="MS Shell Dlg 2" font-size="11" font-style="normal" font-weight="400" stroke="#ed815e" stroke-linecap="square" stroke-linejoin="bevel" stroke-opacity="1" stroke-width="1.5">
                        <polyline fill="none" points="105.8,88.0 121.8,72.0" vector-effect="non-scaling-stroke"/>
                    </g>
                </g>
                <g fill="none" fill-rule="evenodd" id="LabelItem_1" stroke="black" stroke-linecap="square" stroke-linejoin="bevel" stroke-width="1">
                    <g fill="none" fill-rule="evenodd" id="QGraphicsTextItem_3" stroke="black" stroke-linecap="square" stroke-linejoin="bevel" stroke-width="1">
                        


                        


                        <g fill="none" font-family="MS Shell Dlg 2" font-size="11" font-style="normal" font-weight="400" stroke="#969696" stroke-linecap="square" stroke-linejoin="bevel" stroke-opacity="1" stroke-width="1" transform="matrix(1,0,0,1,136.3,70)">
                            <text fill="#969696" fill-opacity="1" font-family="&quot;MS Shell Dlg 2&quot;, sans-serif" font-size="11" font-style="normal" font-weight="400" stroke="none" x="4" xml:space="preserve" y="15">H2</text>
                        </g>
                        


                        

                    </g>
                </g>
                <g fill="none" fill-rule="evenodd" id="ItemSample_2" stroke="black" stroke-linecap="square" stroke-linejoin="bevel" stroke-width="1">
                    <g fill="none" font-family="MS Shell Dlg 2" font-size="11" font-style="normal" font-weight="400" stroke="#c7b069" stroke-linecap="square" stroke-linejoin="bevel" stroke-opacity="1" stroke-width="1.5">
                        <polyline fill="none" points="105.8,115.0 121.8,99.0" vector-effect="non-scaling-stroke"/>
                    </g>
                </g>
                <g fill="none" fill-rule="evenodd" id="LabelItem_2" stroke="black" stroke-linecap="square" stroke-linejoin="bevel" stroke-width="1">
                    <g fill="none" fill-rule="evenodd" id="QGraphicsTextItem_4" stroke="black" stroke-linecap="square" stroke-linejoin="bevel" stroke-width="1">
                        


                        


                        <g fill="none" font-family="MS Shell Dlg 2" font-size="11" font-style="normal" font-weight="400" stroke="#969696" stroke-linecap="square" stroke-linejoin="bevel" stroke-opacity="1" stroke-width="1" transform="matrix(1,0,0,1,132.8,97)">
                            <text fill="#969696" fill-opacity="1" font-family="&quot;MS Shell Dlg 2&quot;, sans-serif" font-size="11" font-style="normal" font-weight="400" stroke="none" x="4" xml:space="preserve" y="15">CH4</text>
                        </g>
                        


                        

                    </g>
                </g>
                <g fill="none" fill-rule="evenodd" id="ItemSample_3" stroke="black" stroke-linecap="square" stroke-linejoin="bevel" stroke-width="1">
                    <g fill="none" font-family="MS Shell Dlg 2" font-size="11" font-style="normal" font-weight="400" stroke="#7ea695" stroke-linecap="square" stroke-linejoin="bevel" stroke-opacity="1" stroke-width="1.5">
                        <polyline fill="none" points="105.8,142.0 121.8,126.0" vector-effect="non-scaling-stroke"/>
                    </g>
                </g>
                <g fill="none" fill-rule="evenodd" id="LabelItem_3" stroke="black" stroke-linecap="square" stroke-linejoin="bevel" stroke-width="1">
                    <g fill="none" fill-rule="evenodd" id="QGraphicsTextItem_5" stroke="black" stroke-linecap="square" stroke-linejoin="bevel" stroke-width="1">
                        


                        


                        <g fill="none" font-family="MS Shell Dlg 2" font-size="11" font-style="normal" font-weight="400" stroke="#969696" stroke-linecap="square" stroke-linejoin="bevel" stroke-opacity="1" stroke-width="1" transform="matrix(1,0,0,1,135.3,124)">
                            <text fill="#969696" fill-opacity="1" font-family="&quot;MS Shell Dlg 2&quot;, sans-serif" font-size="11" font-style="normal" font-weight="400" stroke="none" x="4" xml:space="preserve" y="15">CO</text>
                        </g>
                        


                        

                    </g>
                </g>
                <g fill="none" fill-rule="evenodd" id="ItemSample_4" stroke="black" stroke-linecap="square" stroke-linejoin="bevel" stroke-width="1">
                    <g fill="none" font-family="MS Shell Dlg 2" font-size="11" font-style="normal" font-weight="400" stroke="#8a7c91" stroke-linecap="square" stroke-linejoin="bevel" stroke-opacity="1" stroke-width="1.5">
                        <polyline fill="none" points="105.8,169.0 121.8,153.0" vector-effect="non-scaling-stroke"/>
                    </g>
                </g>
                <g fill="none" fill-rule="evenodd" id="LabelItem_4" stroke="black" stroke-linecap="square" stroke-linejoin="bevel" stroke-width="1">
                    <g fill="none" fill-rule="evenodd" id="QGraphicsTextItem_6" stroke="black" stroke-linecap="square" stroke-linejoin="bevel" stroke-width="1">
                        


                        


                        <g fill="none" font-family="MS Shell Dlg 2" font-size="11" font-style="normal" font-weight="400" stroke="#969696" stroke-linecap="square" stroke-linejoin="bevel" stroke-opacity="1" stroke-width="1" transform="matrix(1,0,0,1,132.3,151)">
                            <text fill="#969696" fill-opacity="1" font-family="&quot;MS Shell Dlg 2&quot;, sans-serif" font-size="11" font-style="normal" font-weight="400" stroke="none" x="4" xml:space="preserve" y="15">CO2</text>
                        </g>
                        


                        

                    </g>
                </g>
                <g fill="none" fill-rule="evenodd" id="ItemSample_5" stroke="black" stroke-linecap="square" stroke-linejoin="bevel" stroke-width="1">
                    <g fill="none" font-family="MS Shell Dlg 2" font-size="11" font-style="normal" font-weight="400" stroke="#ff2e70" stroke-linecap="square" stroke-linejoin="bevel" stroke-opacity="1" stroke-width="2">
                        <polyline fill="none" points="105.8,196.0 121.8,180.0" vector-effect="non-scaling-stroke"/>
                    </g>
                </g>
                <g fill="none" fill-rule="evenodd" id="LabelItem_5" stroke="black" stroke-linecap="square" stroke-linejoin="bevel" stroke-width="1">
                    <g fill="none" fill-rule="evenodd" id="QGraphicsTextItem_7" stroke="black" stroke-linecap="square" stroke-linejoin="bevel" stroke-width="1">
                        


                        


                        <g fill="none" font-family="MS Shell Dlg 2" font-size="11" font-style="normal" font-weight="400" stroke="#969696" stroke-linecap="square" stroke-linejoin="bevel" stroke-opacity="1" stroke-width="1" transform="matrix(1,0,0,1,112.8,178)">
                            <text fill="#969696" fill-opacity="1" font-family="&quot;MS Shell Dlg 2&quot;, sans-serif" font-size="11" font-style="normal" font-weight="400" stroke="none" x="4" xml:space="preserve" y="15">total density</text>
                        </g>
                        


                        

                    </g>
                </g>
                <g fill="none" fill-rule="evenodd" id="ItemSample_6" stroke="black" stroke-linecap="square" stroke-linejoin="bevel" stroke-width="1">
                    <g fill="none" font-family="MS Shell Dlg 2" font-size="11" font-style="normal" font-weight="400" stroke="none">
                        <polyline fill="none" points="105.8,223.0 121.8,207.0" vector-effect="non-scaling-stroke"/>
                    </g>
                    <g fill="#0000ff" fill-opacity="0.588235" font-family="MS Shell Dlg 2" font-size="11" font-style="normal" font-weight="400" stroke="#ffffff" stroke-linecap="square" stroke-linejoin="bevel" stroke-opacity="0.784314" stroke-width="1">
                        <path d="M116.3,215.0 C116.3,216.38071 115.18071,217.5 113.8,217.5 C112.41929,217.5 111.3,216.38071 111.3,215.0 C111.3,213.61929 112.41929,212.5 113.8,212.5 C115.18071,212.5 116.3,213.61929 116.3,215.0 " fill-rule="evenodd" vector-effect="non-scaling-stroke"/>
                    </g>
                </g>
                <g fill="none" fill-rule="evenodd" id="LabelItem_6" stroke="black" stroke-linecap="square" stroke-linejoin="bevel" stroke-width="1">
                    <g fill="none" fill-rule="evenodd" id="QGraphicsTextItem_8" stroke="black" stroke-linecap="square" stroke-linejoin="bevel" stroke-width="1">
                        


                        


                        <g fill="none" font-family="MS Shell Dlg 2" font-size="11" font-style="normal" font-weight="400" stroke="#969696" stroke-linecap="square" stroke-linejoin="bevel" stroke-opacity="1" stroke-width="1" transform="matrix(1,0,0,1,120.8,205)">
                            <text fill="#969696" fill-opacity="1" font-family="&quot;MS Shell Dlg 2&quot;, sans-serif" font-size="11" font-style="normal" font-weight="400" stroke="none" x="4" xml:space="preserve" y="15">LHC data</text>
                        </g>
                        


                        

                    </g>
                </g>
                <g fill="none" fill-rule="evenodd" id="ItemSample_7" stroke="black" stroke-linecap="square" stroke-linejoin="bevel" stroke-width="1">
                    <g fill="none" font-family="MS Shell Dlg 2" font-size="11" font-style="normal" font-weight="400" stroke="none">
                        <polyline fill="none" points="105.8,250.0 121.8,234.0" vector-effect="non-scaling-stroke"/>
                    </g>
                    <g fill="#0000ff" fill-opacity="0.588235" font-family="MS Shell Dlg 2" font-size="11" font-style="normal" font-weight="400" stroke="#ffffff" stroke-linecap="square" stroke-linejoin="bevel" stroke-opacity="0.784314" stroke-width="1">
                        <path d="M111.3,241.75 L111.3,242.25 L113.55,242.25 L113.55,244.5 L114.05,244.5 L114.05,242.25 L116.3,242.25 L116.3,241.75 L114.05,241.75 L114.05,239.5 L113.55,239.5 L113.55,241.75 L111.3,241.75 " fill-rule="evenodd" vector-effect="non-scaling-stroke"/>
                    </g>
                </g>
                <g fill="none" fill-rule="evenodd" id="LabelItem_7" stroke="black" stroke-linecap="square" stroke-linejoin="bevel" stroke-width="1">
                    <g fill="none" fill-rule="evenodd" id="QGraphicsTextItem_9" stroke="black" stroke-linecap="square" stroke-linejoin="bevel" stroke-width="1">
                        


                        


                        <g fill="none" font-family="MS Shell Dlg 2" font-size="11" font-style="normal" font-weight="400" stroke="#969696" stroke-linecap="square" stroke-linejoin="bevel" stroke-opacity="1" stroke-width="1" transform="matrix(1,0,0,1,120.8,232)">
                            <text fill="#969696" fill-opacity="1" font-family="&quot;MS Shell Dlg 2&quot;, sans-serif" font-size="11" font-style="normal" font-weight="400" stroke="none" x="4" xml:space="preserve" y="15">LHC data</text>
                        </g>
                        


                        

                    </g>
                </g>
            </g>
        </g>
    </g>
    <g fill="none" fill-rule="evenodd" id="LabelItem_8" stroke="black" stroke-linecap="square" stroke-linejoin="bevel" stroke-width="1">
        <g fill="none" fill-rule="evenodd" id="QGraphicsTextItem_10" stroke="black" stroke-linecap="square" stroke-linejoin="bevel" stroke-width="1">
            


            


            <g fill="none" font-family="MS Shell Dlg 2" font-size="11" font-style="normal" font-weight="400" stroke="#969696" stroke-linecap="square" stroke-linejoin="bevel" stroke-opacity="1" stroke-width="1" transform="matrix(1,0,0,1,324.4,3)">
                <text fill="#969696" fill-opacity="1" font-family="&quot;MS Shell Dlg 2&quot;, sans-serif" font-size="14.6667" font-style="normal" font-weight="400" stroke="none" x="4" xml:space="preserve" y="19">Density-Plot</text>
            </g>
            


            

        </g>
    </g>
</g>

</svg>
