<?xml version="1.0" encoding="UTF-8" standalone="no"?>
<svg xmlns="http://www.w3.org/2000/svg" xmlns:xlink="http://www.w3.org/1999/xlink"  version="1.2" baseProfile="tiny">
<title>pyqtgraph SVG export</title>
<desc>Generated with Qt and pyqtgraph</desc>
<defs>
</defs>
<g fill="none" fill-rule="evenodd" id="PlotItem_1" stroke="black" stroke-linecap="square" stroke-linejoin="bevel" stroke-width="1">
    <g fill="none" fill-rule="evenodd" id="AxisItem_1" stroke="black" stroke-linecap="square" stroke-linejoin="bevel" stroke-width="1">
        <g fill="none" font-family="MS Shell Dlg 2" font-size="11" font-style="normal" font-weight="400" stroke="#969696" stroke-linecap="square" stroke-linejoin="bevel" stroke-opacity="1" stroke-width="1">
            <polyline fill="none" points="62.8,335.2 668.0,335.2" vector-effect="non-scaling-stroke"/>
        </g>
        <g fill="none" font-family="MS Shell Dlg 2" font-size="11" font-style="normal" font-weight="400" stroke="#969696" stroke-linecap="square" stroke-linejoin="bevel" stroke-opacity="1" stroke-width="1">
            <polyline fill="none" points="86.7037,335.2 86.7037,330.2" vector-effect="non-scaling-stroke"/>
        </g>
        <g fill="none" font-family="MS Shell Dlg 2" font-size="11" font-style="normal" font-weight="400" stroke="#969696" stroke-linecap="square" stroke-linejoin="bevel" stroke-opacity="0.498039" stroke-width="1">
            <polyline fill="none" points="272.835,335.2 272.835,331.86667" vector-effect="non-scaling-stroke"/>
            <polyline fill="none" points="458.965,335.2 458.965,331.86667" vector-effect="non-scaling-stroke"/>
            <polyline fill="none" points="645.096,335.2 645.096,331.86667" vector-effect="non-scaling-stroke"/>
        </g>
        <g fill="none" font-family="MS Shell Dlg 2" font-size="11" font-style="normal" font-weight="400" stroke="#969696" stroke-linecap="square" stroke-linejoin="bevel" stroke-opacity="0.333333" stroke-width="1">
            <polyline fill="none" points="179.769,335.2 179.769,332.7" vector-effect="non-scaling-stroke"/>
            <polyline fill="none" points="365.9,335.2 365.9,332.7" vector-effect="non-scaling-stroke"/>
            <polyline fill="none" points="552.031,335.2 552.031,332.7" vector-effect="non-scaling-stroke"/>
        </g>
        <g fill="none" font-family="MS Shell Dlg 2" font-size="11" font-style="normal" font-weight="400" stroke="#969696" stroke-linecap="square" stroke-linejoin="bevel" stroke-opacity="1" stroke-width="1" transform="matrix(1,0,0,1,63.3,335.2)">
            <text fill="#969696" fill-opacity="1" font-family="&quot;MS Shell Dlg 2&quot;, sans-serif" font-size="11" font-style="normal" font-weight="400" stroke="none" x="20.3906" xml:space="preserve" y="12">0</text>
            <text fill="#969696" fill-opacity="1" font-family="&quot;MS Shell Dlg 2&quot;, sans-serif" font-size="11" font-style="normal" font-weight="400" stroke="none" x="206.531" xml:space="preserve" y="12">2</text>
            <text fill="#969696" fill-opacity="1" font-family="&quot;MS Shell Dlg 2&quot;, sans-serif" font-size="11" font-style="normal" font-weight="400" stroke="none" x="392.656" xml:space="preserve" y="12">4</text>
            <text fill="#969696" fill-opacity="1" font-family="&quot;MS Shell Dlg 2&quot;, sans-serif" font-size="11" font-style="normal" font-weight="400" stroke="none" x="578.781" xml:space="preserve" y="12">6</text>
            <text fill="#969696" fill-opacity="1" font-family="&quot;MS Shell Dlg 2&quot;, sans-serif" font-size="11" font-style="normal" font-weight="400" stroke="none" x="113.469" xml:space="preserve" y="12">1</text>
            <text fill="#969696" fill-opacity="1" font-family="&quot;MS Shell Dlg 2&quot;, sans-serif" font-size="11" font-style="normal" font-weight="400" stroke="none" x="299.594" xml:space="preserve" y="12">3</text>
            <text fill="#969696" fill-opacity="1" font-family="&quot;MS Shell Dlg 2&quot;, sans-serif" font-size="11" font-style="normal" font-weight="400" stroke="none" x="485.719" xml:space="preserve" y="12">5</text>
        </g>
        <g fill="none" fill-rule="evenodd" id="QGraphicsTextItem_1" stroke="black" stroke-linecap="square" stroke-linejoin="bevel" stroke-width="1">
            


            


            <g fill="none" font-family="MS Shell Dlg 2" font-size="11" font-style="normal" font-weight="400" stroke="#ffffff" stroke-linecap="square" stroke-linejoin="bevel" stroke-opacity="1" stroke-width="1" transform="matrix(1,0,0,1,256.8,353.2)">
                <text fill="#ffffff" fill-opacity="1" font-family="&quot;MS Shell Dlg 2&quot;, sans-serif" font-size="18.6667" font-style="normal" font-weight="400" stroke="none" x="4" xml:space="preserve" y="23">Axis along beam line (m)</text>
            </g>
            


            

        </g>
    </g>
    <g fill="none" fill-rule="evenodd" id="AxisItem_2" stroke="black" stroke-linecap="square" stroke-linejoin="bevel" stroke-width="1">
        <g fill="none" font-family="MS Shell Dlg 2" font-size="11" font-style="normal" font-weight="400" stroke="#969696" stroke-linecap="square" stroke-linejoin="bevel" stroke-opacity="1" stroke-width="1">
            <polyline fill="none" points="62.8,31.0 62.8,335.2" vector-effect="non-scaling-stroke"/>
        </g>
        <g fill="none" font-family="MS Shell Dlg 2" font-size="11" font-style="normal" font-weight="400" stroke="#969696" stroke-linecap="square" stroke-linejoin="bevel" stroke-opacity="1" stroke-width="1">
            <polyline fill="none" points="63.3,172.608 68.3,172.608" vector-effect="non-scaling-stroke"/>
        </g>
        <g fill="none" font-family="MS Shell Dlg 2" font-size="11" font-style="normal" font-weight="400" stroke="#969696" stroke-linecap="square" stroke-linejoin="bevel" stroke-opacity="0.498039" stroke-width="1">
            <polyline fill="none" points="63.3,255.378 66.6333,255.378" vector-effect="non-scaling-stroke"/>
            <polyline fill="none" points="63.3,89.838 66.6333,89.838" vector-effect="non-scaling-stroke"/>
        </g>
        <g fill="none" font-family="MS Shell Dlg 2" font-size="11" font-style="normal" font-weight="400" stroke="#969696" stroke-linecap="square" stroke-linejoin="bevel" stroke-opacity="0.333333" stroke-width="1">
            <polyline fill="none" points="63.3,313.231 65.8,313.231" vector-effect="non-scaling-stroke"/>
            <polyline fill="none" points="63.3,298.656 65.8,298.656" vector-effect="non-scaling-stroke"/>
            <polyline fill="none" points="63.3,288.315 65.8,288.315" vector-effect="non-scaling-stroke"/>
            <polyline fill="none" points="63.3,280.294 65.8,280.294" vector-effect="non-scaling-stroke"/>
            <polyline fill="none" points="63.3,273.74 65.8,273.74" vector-effect="non-scaling-stroke"/>
            <polyline fill="none" points="63.3,268.199 65.8,268.199" vector-effect="non-scaling-stroke"/>
            <polyline fill="none" points="63.3,263.399 65.8,263.399" vector-effect="non-scaling-stroke"/>
            <polyline fill="none" points="63.3,259.165 65.8,259.165" vector-effect="non-scaling-stroke"/>
            <polyline fill="none" points="63.3,255.378 65.8,255.378" vector-effect="non-scaling-stroke"/>
            <polyline fill="none" points="63.3,230.461 65.8,230.461" vector-effect="non-scaling-stroke"/>
            <polyline fill="none" points="63.3,215.886 65.8,215.886" vector-effect="non-scaling-stroke"/>
            <polyline fill="none" points="63.3,205.545 65.8,205.545" vector-effect="non-scaling-stroke"/>
            <polyline fill="none" points="63.3,197.524 65.8,197.524" vector-effect="non-scaling-stroke"/>
            <polyline fill="none" points="63.3,190.97 65.8,190.97" vector-effect="non-scaling-stroke"/>
            <polyline fill="none" points="63.3,185.429 65.8,185.429" vector-effect="non-scaling-stroke"/>
            <polyline fill="none" points="63.3,180.629 65.8,180.629" vector-effect="non-scaling-stroke"/>
            <polyline fill="none" points="63.3,176.395 65.8,176.395" vector-effect="non-scaling-stroke"/>
            <polyline fill="none" points="63.3,172.608 65.8,172.608" vector-effect="non-scaling-stroke"/>
            <polyline fill="none" points="63.3,147.692 65.8,147.692" vector-effect="non-scaling-stroke"/>
            <polyline fill="none" points="63.3,133.117 65.8,133.117" vector-effect="non-scaling-stroke"/>
            <polyline fill="none" points="63.3,122.7754 65.8,122.7754" vector-effect="non-scaling-stroke"/>
            <polyline fill="none" points="63.3,114.7541 65.8,114.7541" vector-effect="non-scaling-stroke"/>
            <polyline fill="none" points="63.3,108.2003 65.8,108.2003" vector-effect="non-scaling-stroke"/>
            <polyline fill="none" points="63.3,102.6592 65.8,102.6592" vector-effect="non-scaling-stroke"/>
            <polyline fill="none" points="63.3,97.8592 65.8,97.8592" vector-effect="non-scaling-stroke"/>
            <polyline fill="none" points="63.3,93.6253 65.8,93.6253" vector-effect="non-scaling-stroke"/>
            <polyline fill="none" points="63.3,89.838 65.8,89.838" vector-effect="non-scaling-stroke"/>
            <polyline fill="none" points="63.3,64.9218 65.8,64.9218" vector-effect="non-scaling-stroke"/>
            <polyline fill="none" points="63.3,50.3467 65.8,50.3467" vector-effect="non-scaling-stroke"/>
            <polyline fill="none" points="63.3,40.00557 65.8,40.00557" vector-effect="non-scaling-stroke"/>
            <polyline fill="none" points="63.3,31.984348 65.8,31.984348" vector-effect="non-scaling-stroke"/>
        </g>
        <g fill="none" font-family="MS Shell Dlg 2" font-size="11" font-style="normal" font-weight="400" stroke="#969696" stroke-linecap="square" stroke-linejoin="bevel" stroke-opacity="1" stroke-width="1" transform="matrix(1,0,0,1,1.5,31)">
            <text fill="#969696" fill-opacity="1" font-family="&quot;MS Shell Dlg 2&quot;, sans-serif" font-size="11" font-style="normal" font-weight="400" stroke="none" x="24.7969" xml:space="preserve" y="146.406">1e+14</text>
            <text fill="#969696" fill-opacity="1" font-family="&quot;MS Shell Dlg 2&quot;, sans-serif" font-size="11" font-style="normal" font-weight="400" stroke="none" x="24.7969" xml:space="preserve" y="229.172">1e+13</text>
            <text fill="#969696" fill-opacity="1" font-family="&quot;MS Shell Dlg 2&quot;, sans-serif" font-size="11" font-style="normal" font-weight="400" stroke="none" x="24.7969" xml:space="preserve" y="63.625">1e+15</text>
        </g>
        <g fill="none" fill-rule="evenodd" id="QGraphicsTextItem_2" stroke="black" stroke-linecap="square" stroke-linejoin="bevel" stroke-width="1">
            


            


            <g fill="none" font-family="MS Shell Dlg 2" font-size="11" font-style="normal" font-weight="400" stroke="#ffffff" stroke-linecap="square" stroke-linejoin="bevel" stroke-opacity="1" stroke-width="1" transform="matrix(0,-1,1,0,-4,295)">
                <text fill="#ffffff" fill-opacity="1" font-family="&quot;MS Shell Dlg 2&quot;, sans-serif" font-size="18.6667" font-style="normal" font-weight="400" stroke="none" x="4" xml:space="preserve" y="23">Density (particles per m3)</text>
            </g>
            


            

        </g>
    </g>
    <g fill="none" fill-rule="evenodd" id="ViewBox_1" stroke="black" stroke-linecap="square" stroke-linejoin="bevel" stroke-width="1">
        <g fill="none" font-family="MS Shell Dlg 2" font-size="11" font-style="normal" font-weight="400" stroke="none">
            <path d="M62.8,31.0 L668.0,31.0 L668.0,335.2 L62.8,335.2 L62.8,31.0 " fill-rule="evenodd" vector-effect="non-scaling-stroke"/>
        </g>
        <clipPath id="ViewBox_1_clip">
            <path d="M62.8,31.0 L668.0,31.0 L668.0,335.2 L62.8,335.2 L62.8,31.0 " fill-rule="evenodd" vector-effect="non-scaling-stroke"/>
        </clipPath>
        <g clip-path="url(#ViewBox_1_clip)">
            <g fill="none" fill-rule="evenodd" id="ChildGroup_1" stroke="black" stroke-linecap="square" stroke-linejoin="bevel" stroke-width="1">
                <g id="PlotDataItem_1">
                    <g fill="none" fill-rule="evenodd" id="PlotCurveItem_1" stroke="black" stroke-linecap="square" stroke-linejoin="bevel" stroke-width="1">
                        <g fill="none" font-family="MS Shell Dlg 2" font-size="11" font-style="normal" font-weight="400" stroke="#ed815e" stroke-linecap="square" stroke-linejoin="bevel" stroke-opacity="1" stroke-width="1">
                            <path d="M86.2037000931,317.39201114 L87.3204848,315.67867628 L88.4372696,314.0563882 L89.5540544,312.50859294 L90.6708392,311.04356748 L91.787624,309.64475786 L92.9044088,308.3038871 L94.0211936,307.02923218 L95.1379784,305.80423914 L96.2547632,304.620631 L97.371548,303.49496172 L98.4883328,302.41067734 L99.6051176,301.35950088 L100.7219024,300.34970932 L101.8386872,299.38130266 L102.955472,298.43772694 L104.0722568,297.52725914 L105.1890416,296.64989926 L106.3058264,295.79737032 L107.4226112,294.9779493 L108.539396,294.17508224 L109.6561808,293.4053231 L110.7729656,292.65211792 L111.8897504,291.92374368 L113.0065352,291.2119234 L114.12332,290.52493406 L115.2401048,289.85449868 L116.3568896,289.20889424 L117.4736744,288.57156678 L118.5904592,287.95079328 L119.707244,287.35485072 L120.8240288,286.76718514 L121.9408136,286.19607352 L123.0575984,285.64151586 L124.1743832,285.10351216 L125.291168,284.57378544 L126.4079528,284.0523357 L127.5247376,283.54743992 L128.6415224,283.0590981 L129.7583072,282.57903326 L130.875092,282.11552238 L131.9918768,281.6520115 L133.1086616,281.20505458 L134.2254464,280.77465162 L135.3422312,280.34424866 L136.459016,279.93039966 L137.5758008,279.51655066 L138.6925856,279.11925562 L139.8093704,278.73023756 L140.9261552,278.34949648 L142.04294,277.97703238 L143.1597248,277.61284526 L144.2765096,277.25693512 L145.3932944,276.90930196 L146.5100792,276.56994578 L147.626864,276.2305896 L148.7436488,275.90778738 L149.8604336,275.58498516 L150.9772184,275.2787369 L152.0940032,274.97248864 L153.210788,274.67451736 L154.3275728,274.37654608 L155.4443576,274.09512876 L156.5611424,273.81371144 L157.6779272,273.5405711 L158.794712,273.26743076 L159.9114968,273.01084438 L161.0282816,272.754258 L162.1450664,272.5059486 L163.2618512,272.2576392 L164.378636,272.01760678 L165.4954208,271.78585134 L166.6122056,271.5540959 L167.7289904,271.33061744 L168.8457752,271.10713898 L169.96256,270.90021448 L171.0793448,270.685013 L172.1961296,270.48636548 L173.3129144,270.27944098 L174.4296992,270.08907044 L175.546484,269.8986999 L176.6632688,269.70832936 L177.7800536,269.53451278 L178.8968384,269.35241922 L180.0136232,269.17860264 L181.130408,269.01306304 L182.2471928,268.84752344 L183.3639776,268.69026082 L184.4807624,268.5329982 L185.5975472,268.38401256 L186.714332,268.23502692 L187.8311168,268.08604128 L188.9479016,267.9536096 L190.0646864,267.81290094 L191.1814712,267.68046926 L192.298256,267.55631456 L193.4150408,267.43215986 L194.5318256,267.30800516 L195.6486104,267.19212744 L196.7653952,267.07624972 L197.88218,266.96864898 L198.9989648,266.86104824 L200.1157496,266.76172448 L201.2325344,266.66240072 L202.3493192,266.56307696 L203.466104,266.47203018 L204.5828888,266.3809834 L205.6996736,266.2982136 L206.8164584,266.2154438 L207.9332432,266.14095098 L209.050028,266.06645816 L210.1668128,265.99196534 L211.2835976,265.9257495 L212.4003824,265.85953366 L213.5171672,265.79331782 L214.633952,265.73537896 L215.7507368,265.68571708 L216.8675216,265.62777822 L217.9843064,265.57811634 L219.1010912,265.53673144 L220.217876,265.49534654 L221.3346608,265.45396164 L222.4514456,265.42085372 L223.5682304,265.3877458 L224.6850152,265.35463788 L225.8018,265.32980694 L226.9185848,265.304976 L228.0353696,265.28842204 L229.1521544,265.27186808 L230.2689392,265.25531412 L231.385724,265.24703714 L232.5025088,265.23876016 L233.6192936,265.23048318 L234.7360784,265.23048318 L235.8528632,265.23048318 L236.969648,265.23876016 L238.0864328,265.24703714 L239.2032176,265.25531412 L240.3200024,265.27186808 L241.4367872,265.28842204 L242.553572,265.304976 L243.6703568,265.32980694 L244.7871416,265.35463788 L245.9039264,265.3877458 L247.0207112,265.42085372 L248.137496,265.45396164 L249.2542808,265.49534654 L250.3710656,265.53673144 L251.4878504,265.58639332 L252.6046352,265.62777822 L253.72142,265.68571708 L254.8382048,265.73537896 L255.9549896,265.8015948 L257.0717744,265.85953366 L258.1885592,265.9257495 L259.305344,265.99196534 L260.4221288,266.06645816 L261.5389136,266.14095098 L262.6556984,266.2154438 L263.7724832,266.2982136 L264.889268,266.38926038 L266.0060528,266.47203018 L267.1228376,266.56307696 L268.2396224,266.66240072 L269.3564072,266.76172448 L270.473192,266.86104824 L271.5899768,266.96864898 L272.7067616,267.07624972 L273.8235464,267.19212744 L274.9403312,267.30800516 L276.057116,267.43215986 L277.1739008,267.55631456 L278.2906856,267.68046926 L279.4074704,267.81290094 L280.5242552,267.9536096 L281.64104,268.09431826 L282.7578248,268.23502692 L283.8746096,268.38401256 L284.9913944,268.5329982 L286.1081792,268.69026082 L287.224964,268.84752344 L288.3417488,269.01306304 L289.4585336,269.18687962 L290.5753184,269.35241922 L291.6921032,269.53451278 L292.808888,269.71660634 L293.9256728,269.8986999 L295.0424576,270.08907044 L296.1592424,270.28771796 L297.2760272,270.48636548 L298.392812,270.69328998 L299.5095968,270.90021448 L300.6263816,271.11541596 L301.7431664,271.33061744 L302.8599512,271.5540959 L303.976736,271.78585134 L305.0935208,272.01760678 L306.2103056,272.2576392 L307.3270904,272.5059486 L308.4438752,272.754258 L309.56066,273.01084438 L310.6774448,273.27570774 L311.7942296,273.5405711 L312.9110144,273.81371144 L314.0277992,274.09512876 L315.144584,274.38482306 L316.2613688,274.67451736 L317.3781536,274.97248864 L318.4949384,275.2787369 L319.6117232,275.59326214 L320.728508,275.90778738 L321.8452928,276.23886658 L322.9620776,276.56994578 L324.0788624,276.90930196 L325.1956472,277.25693512 L326.312432,277.61284526 L327.4292168,277.97703238 L328.5460016,278.34949648 L329.6627864,278.73851454 L330.7795712,279.1275326 L331.896356,279.52482764 L333.0131408,279.93039966 L334.1299256,280.34424866 L335.2467104,280.77465162 L336.3634952,281.21333156 L337.48028,281.66028848 L338.5970648,282.11552238 L339.7138496,282.58731024 L340.8306344,283.06737508 L341.9474192,283.5557169 L343.064204,284.06061268 L344.1809888,284.57378544 L345.2977736,285.10351216 L346.4145584,285.64151586 L347.5313432,286.2043505 L348.648128,286.76718514 L349.7649128,287.35485072 L350.8816976,287.95907026 L351.9984824,288.57156678 L353.1152672,289.20889424 L354.232052,289.85449868 L355.3488368,290.52493406 L356.4656216,291.22020038 L357.5824064,291.92374368 L358.6991912,292.65211792 L359.815976,293.4053231 L360.9327608,294.18335922 L362.0495456,294.9779493 L363.1663304,295.79737032 L364.2831152,296.64989926 L365.3999,297.52725914 L366.5166848,296.65817624 L367.6334696,295.8056473 L368.7502544,294.98622628 L369.8670392,294.1916362 L370.983824,293.42187706 L372.1006088,292.66867188 L373.2173936,291.94857462 L374.3341784,291.23675434 L375.4509632,290.549765 L376.567748,289.8876066 L377.6845328,289.24200216 L378.8013176,288.6046747 L379.9181024,287.99217818 L381.0348872,287.39623562 L382.151672,286.80857004 L383.2684568,286.23745842 L384.3852416,285.69117774 L385.5020264,285.14489706 L386.6188112,284.62344732 L387.735596,284.10199758 L388.8523808,283.60537878 L389.9691656,283.11703696 L391.0859504,282.63697212 L392.2027352,282.17346124 L393.31952,281.70995036 L394.4363048,281.27127042 L395.5530896,280.83259048 L396.6698744,280.4104645 L397.7866592,279.98833852 L398.903444,279.5827665 L400.0202288,279.18547146 L401.1370136,278.7964534 L402.2537984,278.4239893 L403.3705832,278.0515252 L404.487368,277.68733808 L405.6041528,277.33142794 L406.7209376,276.98379478 L407.8377224,276.6444386 L408.9545072,276.3133594 L410.071292,275.99055718 L411.1880768,275.66775496 L412.3048616,275.3615067 L413.4216464,275.05525844 L414.5384312,274.75728716 L415.655216,274.46759286 L416.7720008,274.17789856 L417.8887856,273.90475822 L419.0055704,273.63161788 L420.1223552,273.35847754 L421.23914,273.10189116 L422.3559248,272.84530478 L423.4727096,272.59699538 L424.5894944,272.34868598 L425.7062792,272.10865356 L426.823064,271.87689812 L427.9398488,271.65341966 L429.0566336,271.4299412 L430.1734184,271.20646274 L431.2902032,270.99953824 L432.406988,270.79261374 L433.5237728,270.58568924 L434.6405576,270.38704172 L435.7573424,270.19667118 L436.8741272,270.00630064 L437.990912,269.8159301 L439.1076968,269.64211352 L440.2244816,269.46001996 L441.3412664,269.29448036 L442.4580512,269.12066378 L443.574836,268.96340116 L444.6916208,268.80613854 L445.8084056,268.64887592 L446.9251904,268.49989028 L448.0419752,268.35090464 L449.15876,268.21019598 L450.2755448,268.06948732 L451.3923296,267.93705564 L452.5091144,267.80462396 L453.6258992,267.67219228 L454.742684,267.54803758 L455.8594688,267.43215986 L456.9762536,267.31628214 L458.0930384,267.20040442 L459.2098232,267.09280368 L460.326608,266.99347992 L461.4433928,266.88587918 L462.5601776,266.78655542 L463.6769624,266.69550864 L464.7937472,266.60446186 L465.910532,266.51341508 L467.0273168,266.43064528 L468.1441016,266.35615246 L469.2608864,266.27338266 L470.3776712,266.19888984 L471.494456,266.132674 L472.6112408,266.06645816 L473.7280256,266.00024232 L474.8448104,265.94230346 L475.9615952,265.8843646 L477.07838,265.82642574 L478.1951648,265.77676386 L479.3119496,265.72710198 L480.4287344,265.68571708 L481.5455192,265.64433218 L482.662304,265.60294728 L483.7790888,265.56983936 L484.8958736,265.53673144 L486.0126584,265.5119005 L487.1294432,265.48706956 L488.246228,265.46223862 L489.3630128,265.44568466 L490.4797976,265.4291307 L491.5965824,265.41257674 L492.7133672,265.40429976 L493.830152,265.39602278 L494.9469368,265.39602278 L496.0637216,265.39602278 L497.1805064,265.39602278 L498.2972912,265.40429976 L499.414076,265.41257674 L500.5308608,265.4291307 L501.6476456,265.44568466 L502.7644304,265.46223862 L503.8812152,265.47879258 L504.998,265.50362352 L506.1147848,265.53673144 L507.2315696,265.56983936 L508.3483544,265.60294728 L509.4651392,265.6360552 L510.581924,265.6774401 L511.6987088,265.72710198 L512.8154936,265.76848688 L513.9322784,265.81814876 L515.0490632,265.87608762 L516.165848,265.93402648 L517.2826328,265.99196534 L518.3994176,266.05818118 L519.5162024,266.12439702 L520.6329872,266.19061286 L521.749772,266.26510568 L522.8665568,266.3395985 L523.9833416,266.4223683 L525.1001264,266.5051381 L526.2169112,266.59618488 L527.333696,266.68723166 L528.4504808,266.77827844 L529.5672656,266.8776022 L530.6840504,266.97692596 L531.8008352,267.0845267 L532.91762,267.19212744 L534.0344048,267.29972818 L535.1511896,267.4156059 L536.2679744,267.5397606 L537.3847592,267.6639153 L538.501544,267.78807 L539.6183288,267.92050168 L540.7351136,268.05293336 L541.8518984,268.19364202 L542.9686832,268.33435068 L544.085468,268.48333632 L545.2022528,268.63232196 L546.3190376,268.7813076 L547.4358224,268.93857022 L548.5526072,269.10410982 L549.669392,269.26964942 L550.7861768,269.443466 L551.9029616,269.61728258 L553.0197464,269.79937614 L554.1365312,269.9814697 L555.253316,270.17184024 L556.3701008,270.36221078 L557.4868856,270.5608583 L558.6036704,270.7677828 L559.7204552,270.9747073 L560.83724,271.18990878 L561.9540248,271.40511026 L563.0708096,271.62858872 L564.1875944,271.85206718 L565.3043792,272.08382262 L566.421164,272.32385504 L567.5379488,272.56388746 L568.6547336,272.82047384 L569.7715184,273.06878324 L570.8883032,273.3336466 L572.005088,273.59850996 L573.1218728,273.8716503 L574.2386576,274.14479064 L575.3554424,274.43448494 L576.4722272,274.72417924 L577.589012,275.02215052 L578.7057968,275.3201218 L579.8225816,275.63464704 L580.9393664,275.94917228 L582.0561512,276.2719745 L583.172936,276.61133068 L584.2897208,276.95068686 L585.4065056,277.29004304 L586.5232904,277.64595318 L587.6400752,278.0101403 L588.75686,278.3826044 L589.8736448,278.7550685 L590.9904296,279.14408656 L592.1072144,279.5413816 L593.2239992,279.94695362 L594.340784,280.36080262 L595.4575688,280.7829286 L596.5743536,281.22160854 L597.6911384,281.66856546 L598.8079232,282.12379936 L599.924708,282.58731024 L601.0414928,283.0590981 L602.1582776,283.5557169 L603.2750624,284.0523357 L604.3918472,284.56550846 L605.508632,285.0869582 L606.6254168,285.63323888 L607.7422016,286.17951956 L608.8589864,286.75063118 L609.9757712,287.33001978 L611.092556,287.92596234 L612.2093408,288.53845886 L613.3261256,289.16750934 L614.4429104,289.82139076 L615.5596952,290.48354916 L616.67648,291.1705385 L617.7932648,291.8740818 L618.9100496,292.59417906 L620.0268344,293.34738424 L621.1436192,294.1088664 L622.260404,294.90345648 L623.3771888,295.7228775 L624.4939736,296.56712946 L625.6107584,297.43621236 L626.7275432,298.33840318 L627.844328,299.27370192 L628.9611128,300.24210858 L630.0778976,301.24362316 L631.1946824,302.27824566 L632.3114672,303.36253004 L633.428252,304.47992234 L634.5450368,305.64697652 L635.6618216,306.86369258 L636.7786064,308.13007052 L637.8953912,309.45438732 L639.012176,310.84491996 L640.1289608,312.29339146 L641.2457456,313.82463276 L642.3625304,315.43036688 L643.4793152,317.12714778 L644.5961,318.91497546 " fill-rule="evenodd" vector-effect="non-scaling-stroke"/>
                        </g>
                    </g>
                </g>
                <g id="PlotDataItem_2">
                    <g fill="none" fill-rule="evenodd" id="PlotCurveItem_2" stroke="black" stroke-linecap="square" stroke-linejoin="bevel" stroke-width="1">
                        <g fill="none" font-family="MS Shell Dlg 2" font-size="11" font-style="normal" font-weight="400" stroke="#c7b069" stroke-linecap="square" stroke-linejoin="bevel" stroke-opacity="1" stroke-width="1">
                            <path d="M86.2037000931,317.39201114 L87.3204848,315.67867628 L88.4372696,314.0563882 L89.5540544,312.50859294 L90.6708392,311.04356748 L91.787624,309.64475786 L92.9044088,308.3038871 L94.0211936,307.02923218 L95.1379784,305.80423914 L96.2547632,304.620631 L97.371548,303.49496172 L98.4883328,302.41067734 L99.6051176,301.35950088 L100.7219024,300.34970932 L101.8386872,299.38130266 L102.955472,298.43772694 L104.0722568,297.52725914 L105.1890416,296.64989926 L106.3058264,295.79737032 L107.4226112,294.9779493 L108.539396,294.17508224 L109.6561808,293.4053231 L110.7729656,292.65211792 L111.8897504,291.92374368 L113.0065352,291.2119234 L114.12332,290.52493406 L115.2401048,289.85449868 L116.3568896,289.20889424 L117.4736744,288.57156678 L118.5904592,287.95079328 L119.707244,287.35485072 L120.8240288,286.76718514 L121.9408136,286.19607352 L123.0575984,285.64151586 L124.1743832,285.10351216 L125.291168,284.57378544 L126.4079528,284.0523357 L127.5247376,283.54743992 L128.6415224,283.0590981 L129.7583072,282.57903326 L130.875092,282.11552238 L131.9918768,281.6520115 L133.1086616,281.20505458 L134.2254464,280.77465162 L135.3422312,280.34424866 L136.459016,279.93039966 L137.5758008,279.51655066 L138.6925856,279.11925562 L139.8093704,278.73023756 L140.9261552,278.34949648 L142.04294,277.97703238 L143.1597248,277.61284526 L144.2765096,277.25693512 L145.3932944,276.90930196 L146.5100792,276.56994578 L147.626864,276.2305896 L148.7436488,275.90778738 L149.8604336,275.58498516 L150.9772184,275.2787369 L152.0940032,274.97248864 L153.210788,274.67451736 L154.3275728,274.37654608 L155.4443576,274.09512876 L156.5611424,273.81371144 L157.6779272,273.5405711 L158.794712,273.26743076 L159.9114968,273.01084438 L161.0282816,272.754258 L162.1450664,272.5059486 L163.2618512,272.2576392 L164.378636,272.01760678 L165.4954208,271.78585134 L166.6122056,271.5540959 L167.7289904,271.33061744 L168.8457752,271.10713898 L169.96256,270.90021448 L171.0793448,270.685013 L172.1961296,270.48636548 L173.3129144,270.27944098 L174.4296992,270.08907044 L175.546484,269.8986999 L176.6632688,269.70832936 L177.7800536,269.53451278 L178.8968384,269.35241922 L180.0136232,269.17860264 L181.130408,269.01306304 L182.2471928,268.84752344 L183.3639776,268.69026082 L184.4807624,268.5329982 L185.5975472,268.38401256 L186.714332,268.23502692 L187.8311168,268.08604128 L188.9479016,267.9536096 L190.0646864,267.81290094 L191.1814712,267.68046926 L192.298256,267.55631456 L193.4150408,267.43215986 L194.5318256,267.30800516 L195.6486104,267.19212744 L196.7653952,267.07624972 L197.88218,266.96864898 L198.9989648,266.86104824 L200.1157496,266.76172448 L201.2325344,266.66240072 L202.3493192,266.56307696 L203.466104,266.47203018 L204.5828888,266.3809834 L205.6996736,266.2982136 L206.8164584,266.2154438 L207.9332432,266.14095098 L209.050028,266.06645816 L210.1668128,265.99196534 L211.2835976,265.9257495 L212.4003824,265.85953366 L213.5171672,265.79331782 L214.633952,265.73537896 L215.7507368,265.68571708 L216.8675216,265.62777822 L217.9843064,265.57811634 L219.1010912,265.53673144 L220.217876,265.49534654 L221.3346608,265.45396164 L222.4514456,265.42085372 L223.5682304,265.3877458 L224.6850152,265.35463788 L225.8018,265.32980694 L226.9185848,265.304976 L228.0353696,265.28842204 L229.1521544,265.27186808 L230.2689392,265.25531412 L231.385724,265.24703714 L232.5025088,265.23876016 L233.6192936,265.23048318 L234.7360784,265.23048318 L235.8528632,265.23048318 L236.969648,265.23876016 L238.0864328,265.24703714 L239.2032176,265.25531412 L240.3200024,265.27186808 L241.4367872,265.28842204 L242.553572,265.304976 L243.6703568,265.32980694 L244.7871416,265.35463788 L245.9039264,265.3877458 L247.0207112,265.42085372 L248.137496,265.45396164 L249.2542808,265.49534654 L250.3710656,265.53673144 L251.4878504,265.58639332 L252.6046352,265.62777822 L253.72142,265.68571708 L254.8382048,265.73537896 L255.9549896,265.8015948 L257.0717744,265.85953366 L258.1885592,265.9257495 L259.305344,265.99196534 L260.4221288,266.06645816 L261.5389136,266.14095098 L262.6556984,266.2154438 L263.7724832,266.2982136 L264.889268,266.38926038 L266.0060528,266.47203018 L267.1228376,266.56307696 L268.2396224,266.66240072 L269.3564072,266.76172448 L270.473192,266.86104824 L271.5899768,266.96864898 L272.7067616,267.07624972 L273.8235464,267.19212744 L274.9403312,267.30800516 L276.057116,267.43215986 L277.1739008,267.55631456 L278.2906856,267.68046926 L279.4074704,267.81290094 L280.5242552,267.9536096 L281.64104,268.09431826 L282.7578248,268.23502692 L283.8746096,268.38401256 L284.9913944,268.5329982 L286.1081792,268.69026082 L287.224964,268.84752344 L288.3417488,269.01306304 L289.4585336,269.18687962 L290.5753184,269.35241922 L291.6921032,269.53451278 L292.808888,269.71660634 L293.9256728,269.8986999 L295.0424576,270.08907044 L296.1592424,270.28771796 L297.2760272,270.48636548 L298.392812,270.69328998 L299.5095968,270.90021448 L300.6263816,271.11541596 L301.7431664,271.33061744 L302.8599512,271.5540959 L303.976736,271.78585134 L305.0935208,272.01760678 L306.2103056,272.2576392 L307.3270904,272.5059486 L308.4438752,272.754258 L309.56066,273.01084438 L310.6774448,273.27570774 L311.7942296,273.5405711 L312.9110144,273.81371144 L314.0277992,274.09512876 L315.144584,274.38482306 L316.2613688,274.67451736 L317.3781536,274.97248864 L318.4949384,275.2787369 L319.6117232,275.59326214 L320.728508,275.90778738 L321.8452928,276.23886658 L322.9620776,276.56994578 L324.0788624,276.90930196 L325.1956472,277.25693512 L326.312432,277.61284526 L327.4292168,277.97703238 L328.5460016,278.34949648 L329.6627864,278.73851454 L330.7795712,279.1275326 L331.896356,279.52482764 L333.0131408,279.93039966 L334.1299256,280.34424866 L335.2467104,280.77465162 L336.3634952,281.21333156 L337.48028,281.66028848 L338.5970648,282.11552238 L339.7138496,282.58731024 L340.8306344,283.06737508 L341.9474192,283.5557169 L343.064204,284.06061268 L344.1809888,284.57378544 L345.2977736,285.10351216 L346.4145584,285.64151586 L347.5313432,286.2043505 L348.648128,286.76718514 L349.7649128,287.35485072 L350.8816976,287.95907026 L351.9984824,288.57156678 L353.1152672,289.20889424 L354.232052,289.85449868 L355.3488368,290.52493406 L356.4656216,291.22020038 L357.5824064,291.92374368 L358.6991912,292.65211792 L359.815976,293.4053231 L360.9327608,294.18335922 L362.0495456,294.9779493 L363.1663304,295.79737032 L364.2831152,296.64989926 L365.3999,297.52725914 L366.5166848,296.65817624 L367.6334696,295.8056473 L368.7502544,294.98622628 L369.8670392,294.1916362 L370.983824,293.42187706 L372.1006088,292.66867188 L373.2173936,291.94857462 L374.3341784,291.23675434 L375.4509632,290.549765 L376.567748,289.8876066 L377.6845328,289.24200216 L378.8013176,288.6046747 L379.9181024,287.99217818 L381.0348872,287.39623562 L382.151672,286.80857004 L383.2684568,286.23745842 L384.3852416,285.69117774 L385.5020264,285.14489706 L386.6188112,284.62344732 L387.735596,284.10199758 L388.8523808,283.60537878 L389.9691656,283.11703696 L391.0859504,282.63697212 L392.2027352,282.17346124 L393.31952,281.70995036 L394.4363048,281.27127042 L395.5530896,280.83259048 L396.6698744,280.4104645 L397.7866592,279.98833852 L398.903444,279.5827665 L400.0202288,279.18547146 L401.1370136,278.7964534 L402.2537984,278.4239893 L403.3705832,278.0515252 L404.487368,277.68733808 L405.6041528,277.33142794 L406.7209376,276.98379478 L407.8377224,276.6444386 L408.9545072,276.3133594 L410.071292,275.99055718 L411.1880768,275.66775496 L412.3048616,275.3615067 L413.4216464,275.05525844 L414.5384312,274.75728716 L415.655216,274.46759286 L416.7720008,274.17789856 L417.8887856,273.90475822 L419.0055704,273.63161788 L420.1223552,273.35847754 L421.23914,273.10189116 L422.3559248,272.84530478 L423.4727096,272.59699538 L424.5894944,272.34868598 L425.7062792,272.10865356 L426.823064,271.87689812 L427.9398488,271.65341966 L429.0566336,271.4299412 L430.1734184,271.20646274 L431.2902032,270.99953824 L432.406988,270.79261374 L433.5237728,270.58568924 L434.6405576,270.38704172 L435.7573424,270.19667118 L436.8741272,270.00630064 L437.990912,269.8159301 L439.1076968,269.64211352 L440.2244816,269.46001996 L441.3412664,269.29448036 L442.4580512,269.12066378 L443.574836,268.96340116 L444.6916208,268.80613854 L445.8084056,268.64887592 L446.9251904,268.49989028 L448.0419752,268.35090464 L449.15876,268.21019598 L450.2755448,268.06948732 L451.3923296,267.93705564 L452.5091144,267.80462396 L453.6258992,267.67219228 L454.742684,267.54803758 L455.8594688,267.43215986 L456.9762536,267.31628214 L458.0930384,267.20040442 L459.2098232,267.09280368 L460.326608,266.99347992 L461.4433928,266.88587918 L462.5601776,266.78655542 L463.6769624,266.69550864 L464.7937472,266.60446186 L465.910532,266.51341508 L467.0273168,266.43064528 L468.1441016,266.35615246 L469.2608864,266.27338266 L470.3776712,266.19888984 L471.494456,266.132674 L472.6112408,266.06645816 L473.7280256,266.00024232 L474.8448104,265.94230346 L475.9615952,265.8843646 L477.07838,265.82642574 L478.1951648,265.77676386 L479.3119496,265.72710198 L480.4287344,265.68571708 L481.5455192,265.64433218 L482.662304,265.60294728 L483.7790888,265.56983936 L484.8958736,265.53673144 L486.0126584,265.5119005 L487.1294432,265.48706956 L488.246228,265.46223862 L489.3630128,265.44568466 L490.4797976,265.4291307 L491.5965824,265.41257674 L492.7133672,265.40429976 L493.830152,265.39602278 L494.9469368,265.39602278 L496.0637216,265.39602278 L497.1805064,265.39602278 L498.2972912,265.40429976 L499.414076,265.41257674 L500.5308608,265.4291307 L501.6476456,265.44568466 L502.7644304,265.46223862 L503.8812152,265.47879258 L504.998,265.50362352 L506.1147848,265.53673144 L507.2315696,265.56983936 L508.3483544,265.60294728 L509.4651392,265.6360552 L510.581924,265.6774401 L511.6987088,265.72710198 L512.8154936,265.76848688 L513.9322784,265.81814876 L515.0490632,265.87608762 L516.165848,265.93402648 L517.2826328,265.99196534 L518.3994176,266.05818118 L519.5162024,266.12439702 L520.6329872,266.19061286 L521.749772,266.26510568 L522.8665568,266.3395985 L523.9833416,266.4223683 L525.1001264,266.5051381 L526.2169112,266.59618488 L527.333696,266.68723166 L528.4504808,266.77827844 L529.5672656,266.8776022 L530.6840504,266.97692596 L531.8008352,267.0845267 L532.91762,267.19212744 L534.0344048,267.29972818 L535.1511896,267.4156059 L536.2679744,267.5397606 L537.3847592,267.6639153 L538.501544,267.78807 L539.6183288,267.92050168 L540.7351136,268.05293336 L541.8518984,268.19364202 L542.9686832,268.33435068 L544.085468,268.48333632 L545.2022528,268.63232196 L546.3190376,268.7813076 L547.4358224,268.93857022 L548.5526072,269.10410982 L549.669392,269.26964942 L550.7861768,269.443466 L551.9029616,269.61728258 L553.0197464,269.79937614 L554.1365312,269.9814697 L555.253316,270.17184024 L556.3701008,270.36221078 L557.4868856,270.5608583 L558.6036704,270.7677828 L559.7204552,270.9747073 L560.83724,271.18990878 L561.9540248,271.40511026 L563.0708096,271.62858872 L564.1875944,271.85206718 L565.3043792,272.08382262 L566.421164,272.32385504 L567.5379488,272.56388746 L568.6547336,272.82047384 L569.7715184,273.06878324 L570.8883032,273.3336466 L572.005088,273.59850996 L573.1218728,273.8716503 L574.2386576,274.14479064 L575.3554424,274.43448494 L576.4722272,274.72417924 L577.589012,275.02215052 L578.7057968,275.3201218 L579.8225816,275.63464704 L580.9393664,275.94917228 L582.0561512,276.2719745 L583.172936,276.61133068 L584.2897208,276.95068686 L585.4065056,277.29004304 L586.5232904,277.64595318 L587.6400752,278.0101403 L588.75686,278.3826044 L589.8736448,278.7550685 L590.9904296,279.14408656 L592.1072144,279.5413816 L593.2239992,279.94695362 L594.340784,280.36080262 L595.4575688,280.7829286 L596.5743536,281.22160854 L597.6911384,281.66856546 L598.8079232,282.12379936 L599.924708,282.58731024 L601.0414928,283.0590981 L602.1582776,283.5557169 L603.2750624,284.0523357 L604.3918472,284.56550846 L605.508632,285.0869582 L606.6254168,285.63323888 L607.7422016,286.17951956 L608.8589864,286.75063118 L609.9757712,287.33001978 L611.092556,287.92596234 L612.2093408,288.53845886 L613.3261256,289.16750934 L614.4429104,289.82139076 L615.5596952,290.48354916 L616.67648,291.1705385 L617.7932648,291.8740818 L618.9100496,292.59417906 L620.0268344,293.34738424 L621.1436192,294.1088664 L622.260404,294.90345648 L623.3771888,295.7228775 L624.4939736,296.56712946 L625.6107584,297.43621236 L626.7275432,298.33840318 L627.844328,299.27370192 L628.9611128,300.24210858 L630.0778976,301.24362316 L631.1946824,302.27824566 L632.3114672,303.36253004 L633.428252,304.47992234 L634.5450368,305.64697652 L635.6618216,306.86369258 L636.7786064,308.13007052 L637.8953912,309.45438732 L639.012176,310.84491996 L640.1289608,312.29339146 L641.2457456,313.82463276 L642.3625304,315.43036688 L643.4793152,317.12714778 L644.5961,318.91497546 " fill-rule="evenodd" vector-effect="non-scaling-stroke"/>
                        </g>
                    </g>
                </g>
                <g id="PlotDataItem_3">
                    <g fill="none" fill-rule="evenodd" id="PlotCurveItem_3" stroke="black" stroke-linecap="square" stroke-linejoin="bevel" stroke-width="1">
                        <g fill="none" font-family="MS Shell Dlg 2" font-size="11" font-style="normal" font-weight="400" stroke="#7ea695" stroke-linecap="square" stroke-linejoin="bevel" stroke-opacity="1" stroke-width="1">
                            <path d="M86.2037000931,266.24855172 L87.3204848,264.13792182 L88.4372696,262.15144662 L89.5540544,260.27257216 L90.6708392,258.49302146 L91.787624,256.80451754 L92.9044088,255.19050644 L94.0211936,253.65926514 L95.1379784,252.19423968 L96.2547632,250.78715308 L97.371548,249.43800534 L98.4883328,248.13851948 L99.6051176,246.89697248 L100.7219024,245.69681038 L101.8386872,244.54631016 L102.955472,243.42891786 L104.0722568,242.35291046 L105.1890416,241.31001098 L106.3058264,240.3084964 L107.4226112,239.33181276 L108.539396,238.38823704 L109.6561808,237.46949226 L110.7729656,236.5838554 L111.8897504,235.72304948 L113.0065352,234.87879752 L114.12332,234.06765348 L115.2401048,233.2730634 L116.3568896,232.50330426 L117.4736744,231.75009908 L118.5904592,231.02172484 L119.707244,230.30990456 L120.8240288,229.61463824 L121.9408136,228.93592588 L123.0575984,228.28204446 L124.1743832,227.63644002 L125.291168,227.00738954 L126.4079528,226.39489302 L127.5247376,225.79895046 L128.6415224,225.21128488 L129.7583072,224.64017326 L130.875092,224.0856156 L131.9918768,223.53933492 L133.1086616,223.00133122 L134.2254464,222.48815846 L135.3422312,221.9749857 L136.459016,221.4783669 L137.5758008,220.99002508 L138.6925856,220.50996024 L139.8093704,220.04644936 L140.9261552,219.59121546 L142.04294,219.14425854 L143.1597248,218.7055786 L144.2765096,218.27517564 L145.3932944,217.86132664 L146.5100792,217.44747764 L147.626864,217.0501826 L148.7436488,216.66116454 L149.8604336,216.27214648 L150.9772184,215.89968238 L152.0940032,215.52721828 L153.210788,215.17130814 L154.3275728,214.815398 L155.4443576,214.46776484 L156.5611424,214.13668564 L157.6779272,213.80560644 L158.794712,213.48280422 L159.9114968,213.160002 L161.0282816,212.85375374 L162.1450664,212.54750548 L163.2618512,212.2495342 L164.378636,211.9598399 L165.4954208,211.67842258 L166.6122056,211.39700526 L167.7289904,211.12386492 L168.8457752,210.85900156 L169.96256,210.60241518 L171.0793448,210.3458288 L172.1961296,210.0975194 L173.3129144,209.85748698 L174.4296992,209.61745456 L175.546484,209.38569912 L176.6632688,209.16222066 L177.7800536,208.9387422 L178.8968384,208.72354072 L180.0136232,208.51661622 L181.130408,208.30969172 L182.2471928,208.1110442 L183.3639776,207.92067366 L184.4807624,207.73030312 L185.5975472,207.53993258 L186.714332,207.366116 L187.8311168,207.18402244 L188.9479016,207.01848284 L190.0646864,206.85294324 L191.1814712,206.68740364 L192.298256,206.538418 L193.4150408,206.38115538 L194.5318256,206.24044672 L195.6486104,206.09146108 L196.7653952,205.9590294 L197.88218,205.82659772 L198.9989648,205.69416604 L200.1157496,205.57001134 L201.2325344,205.44585664 L202.3493192,205.32997892 L203.466104,205.22237818 L204.5828888,205.11477744 L205.6996736,205.0071767 L206.8164584,204.90785294 L207.9332432,204.81680616 L209.050028,204.72575938 L210.1668128,204.64298958 L211.2835976,204.56021978 L212.4003824,204.47744998 L213.5171672,204.40295716 L214.633952,204.33674132 L215.7507368,204.27052548 L216.8675216,204.20430964 L217.9843064,204.14637078 L219.1010912,204.0967089 L220.217876,204.04704702 L221.3346608,203.99738514 L222.4514456,203.95600024 L223.5682304,203.91461534 L224.6850152,203.88150742 L225.8018,203.85667648 L226.9185848,203.82356856 L228.0353696,203.8070146 L229.1521544,203.78218366 L230.2689392,203.77390668 L231.385724,203.75735272 L232.5025088,203.75735272 L233.6192936,203.74907574 L234.7360784,203.74907574 L235.8528632,203.75735272 L236.969648,203.7656297 L238.0864328,203.78218366 L239.2032176,203.79873762 L240.3200024,203.81529158 L241.4367872,203.84012252 L242.553572,203.87323044 L243.6703568,203.90633836 L244.7871416,203.93944628 L245.9039264,203.98083118 L247.0207112,204.02221608 L248.137496,204.07187796 L249.2542808,204.12153984 L250.3710656,204.1794787 L251.4878504,204.23741756 L252.6046352,204.3036334 L253.72142,204.36984924 L254.8382048,204.44434206 L255.9549896,204.51883488 L257.0717744,204.60160468 L258.1885592,204.68437448 L259.305344,204.77542126 L260.4221288,204.86646804 L261.5389136,204.9657918 L262.6556984,205.06511556 L263.7724832,205.1727163 L264.889268,205.28031704 L266.0060528,205.39619476 L267.1228376,205.51207248 L268.2396224,205.63622718 L269.3564072,205.76038188 L270.473192,205.89281356 L271.5899768,206.03352222 L272.7067616,206.17423088 L273.8235464,206.31493954 L274.9403312,206.46392518 L276.057116,206.6211878 L277.1739008,206.77845042 L278.2906856,206.94399002 L279.4074704,207.10952962 L280.5242552,207.2833462 L281.64104,207.45716278 L282.7578248,207.63925634 L283.8746096,207.82962688 L284.9913944,208.01999742 L286.1081792,208.21036796 L287.224964,208.41729246 L288.3417488,208.62421696 L289.4585336,208.83114146 L290.5753184,209.05461992 L291.6921032,209.27809838 L292.808888,209.50157684 L293.9256728,209.73333228 L295.0424576,209.9733647 L296.1592424,210.2216741 L297.2760272,210.4699835 L298.392812,210.72656988 L299.5095968,210.98315626 L300.6263816,211.2562966 L301.7431664,211.52943694 L302.8599512,211.80257728 L303.976736,212.09227158 L305.0935208,212.38196588 L306.2103056,212.67993716 L307.3270904,212.98618542 L308.4438752,213.30071066 L309.56066,213.6152359 L310.6774448,213.93803812 L311.7942296,214.2773943 L312.9110144,214.61675048 L314.0277992,214.95610666 L315.144584,215.3120168 L316.2613688,215.67620392 L317.3781536,216.04039104 L318.4949384,216.42113212 L319.6117232,216.8018732 L320.728508,217.19916824 L321.8452928,217.60474026 L322.9620776,218.01031228 L324.0788624,218.43243826 L325.1956472,218.85456424 L326.312432,219.29324418 L327.4292168,219.7402011 L328.5460016,220.195435 L329.6627864,220.66722286 L330.7795712,221.13901072 L331.896356,221.62735254 L333.0131408,222.12397134 L334.1299256,222.6371441 L335.2467104,223.15859384 L336.3634952,223.68832056 L337.48028,224.23460124 L338.5970648,224.7891589 L339.7138496,225.36027052 L340.8306344,225.9479361 L341.9474192,226.54387866 L343.064204,227.15637518 L344.1809888,227.77714868 L345.2977736,228.42275312 L346.4145584,229.07663454 L347.5313432,229.7553469 L348.648128,230.44233624 L349.7649128,231.15415652 L350.8816976,231.88253076 L351.9984824,232.62745896 L353.1152672,233.3972181 L354.232052,234.1835312 L355.3488368,234.99467524 L356.4656216,235.83065022 L357.5824064,236.68317916 L358.6991912,237.56881602 L359.815976,238.47928382 L360.9327608,239.41458256 L362.0495456,240.38298922 L363.1663304,241.3845038 L364.2831152,242.41084932 L365.3999,243.47857974 L366.5166848,242.4191263 L367.6334696,241.39278078 L368.7502544,240.39954318 L369.8670392,239.43113652 L370.983824,238.49583778 L372.1006088,237.59364696 L373.2173936,236.7080101 L374.3341784,235.85548116 L375.4509632,235.02778316 L376.567748,234.21663912 L377.6845328,233.43032602 L378.8013176,232.66884386 L379.9181024,231.92391566 L381.0348872,231.19554142 L382.151672,230.48372114 L383.2684568,229.7967318 L384.3852416,229.12629642 L385.5020264,228.472415 L386.6188112,227.82681056 L387.735596,227.20603706 L388.8523808,226.59354054 L389.9691656,225.99759798 L391.0859504,225.41820938 L392.2027352,224.84709776 L393.31952,224.2925401 L394.4363048,223.74625942 L395.5530896,223.2165327 L396.6698744,222.69508296 L397.7866592,222.19018718 L398.903444,221.69356838 L400.0202288,221.20522656 L401.1370136,220.7334387 L402.2537984,220.26992782 L403.3705832,219.81469392 L404.487368,219.367737 L405.6041528,218.92905706 L406.7209376,218.4986541 L407.8377224,218.0848051 L408.9545072,217.6709561 L410.071292,217.27366106 L411.1880768,216.884643 L412.3048616,216.49562494 L413.4216464,216.12316084 L414.5384312,215.75069674 L415.655216,215.3947866 L416.7720008,215.03887646 L417.8887856,214.6912433 L419.0055704,214.35188712 L420.1223552,214.02080792 L421.23914,213.6980057 L422.3559248,213.38348046 L423.4727096,213.06895522 L424.5894944,212.77098394 L425.7062792,212.47301266 L426.823064,212.18331836 L427.9398488,211.89362406 L429.0566336,211.61220674 L430.1734184,211.3390664 L431.2902032,211.07420304 L432.406988,210.81761666 L433.5237728,210.56103028 L434.6405576,210.31272088 L435.7573424,210.06441148 L436.8741272,209.83265604 L437.990912,209.59262362 L439.1076968,209.36914516 L440.2244816,209.1456667 L441.3412664,208.93046522 L442.4580512,208.71526374 L443.574836,208.51661622 L444.6916208,208.30969172 L445.8084056,208.11932118 L446.9251904,207.92067366 L448.0419752,207.7385801 L449.15876,207.55648654 L450.2755448,207.38266996 L451.3923296,207.20885338 L452.5091144,207.04331378 L453.6258992,206.87777418 L454.742684,206.72051156 L455.8594688,206.57152592 L456.9762536,206.42254028 L458.0930384,206.27355464 L459.2098232,206.13284598 L460.326608,206.0004143 L461.4433928,205.86798262 L462.5601776,205.74382792 L463.6769624,205.61967322 L464.7937472,205.5037955 L465.910532,205.38791778 L467.0273168,205.28031704 L468.1441016,205.18099328 L469.2608864,205.07339254 L470.3776712,204.98234576 L471.494456,204.89129898 L472.6112408,204.8002522 L473.7280256,204.7174824 L474.8448104,204.6347126 L475.9615952,204.56021978 L477.07838,204.48572696 L478.1951648,204.41951112 L479.3119496,204.35329528 L480.4287344,204.29535642 L481.5455192,204.23741756 L482.662304,204.18775568 L483.7790888,204.1380938 L484.8958736,204.0967089 L486.0126584,204.055324 L487.1294432,204.02221608 L488.246228,203.98910816 L489.3630128,203.96427722 L490.4797976,203.93944628 L491.5965824,203.91461534 L492.7133672,203.89806138 L493.830152,203.8897844 L494.9469368,203.88150742 L496.0637216,203.87323044 L497.1805064,203.87323044 L498.2972912,203.88150742 L499.414076,203.88150742 L500.5308608,203.89806138 L501.6476456,203.91461534 L502.7644304,203.9311693 L503.8812152,203.95600024 L504.998,203.98083118 L506.1147848,204.0139391 L507.2315696,204.04704702 L508.3483544,204.08015494 L509.4651392,204.12981682 L510.581924,204.17120172 L511.6987088,204.2208636 L512.8154936,204.27880246 L513.9322784,204.33674132 L515.0490632,204.40295716 L516.165848,204.469173 L517.2826328,204.53538884 L518.3994176,204.60988166 L519.5162024,204.69265146 L520.6329872,204.77542126 L521.749772,204.85819106 L522.8665568,204.94923784 L523.9833416,205.0485616 L525.1001264,205.14788536 L526.2169112,205.24720912 L527.333696,205.35480986 L528.4504808,205.47068758 L529.5672656,205.5865653 L530.6840504,205.71072 L531.8008352,205.8348747 L532.91762,205.96730638 L534.0344048,206.09973806 L535.1511896,206.23216974 L536.2679744,206.38115538 L537.3847592,206.53014102 L538.501544,206.67912666 L539.6183288,206.83638928 L540.7351136,206.9936519 L541.8518984,207.16746848 L542.9686832,207.33300808 L544.085468,207.50682466 L545.2022528,207.68891822 L546.3190376,207.87928876 L547.4358224,208.0696593 L548.5526072,208.26002984 L549.669392,208.46695434 L550.7861768,208.66560186 L551.9029616,208.88080334 L553.0197464,209.09600482 L554.1365312,209.31948328 L555.253316,209.54296174 L556.3701008,209.77471718 L557.4868856,210.0147496 L558.6036704,210.25478202 L559.7204552,210.50309142 L560.83724,210.7596778 L561.9540248,211.02454116 L563.0708096,211.28940452 L564.1875944,211.56254486 L565.3043792,211.84396218 L566.421164,212.1253795 L567.5379488,212.4150738 L568.6547336,212.71304508 L569.7715184,213.01929334 L570.8883032,213.33381858 L572.005088,213.64834382 L573.1218728,213.97114604 L574.2386576,214.30222524 L575.3554424,214.64158142 L576.4722272,214.98921458 L577.589012,215.34512472 L578.7057968,215.70103486 L579.8225816,216.07349896 L580.9393664,216.45424004 L582.0561512,216.83498112 L583.172936,217.23227616 L584.2897208,217.6295712 L585.4065056,218.0434202 L586.5232904,218.46554618 L587.6400752,218.89594914 L588.75686,219.33462908 L589.8736448,219.781586 L590.9904296,220.2368199 L592.1072144,220.70860776 L593.2239992,221.18039562 L594.340784,221.66873744 L595.4575688,222.17363322 L596.5743536,222.68680598 L597.6911384,223.20825572 L598.8079232,223.73798244 L599.924708,224.28426312 L601.0414928,224.84709776 L602.1582776,225.41820938 L603.2750624,226.00587496 L604.3918472,226.6100945 L605.508632,227.22259102 L606.6254168,227.8516415 L607.7422016,228.49724594 L608.8589864,229.15940434 L609.9757712,229.84639368 L611.092556,230.54166 L612.2093408,231.25348028 L613.3261256,231.9901315 L614.4429104,232.74333668 L615.5596952,233.51309582 L616.67648,234.31596288 L617.7932648,235.12710692 L618.9100496,235.97135888 L620.0268344,236.84044178 L621.1436192,237.73435562 L622.260404,238.6531004 L623.3771888,239.6049531 L624.4939736,240.58163674 L625.6107584,241.5914283 L626.7275432,242.64260476 L627.844328,243.71861216 L628.9611128,244.84428144 L630.0778976,246.00305864 L631.1946824,247.21149772 L632.3114672,248.4613217 L633.428252,249.76908454 L634.5450368,251.12650926 L635.6618216,252.54187284 L636.7786064,254.01517528 L637.8953912,255.56297054 L639.012176,257.18525862 L640.1289608,258.8903165 L641.2457456,260.68642116 L642.3625304,262.58184958 L643.4793152,264.58487874 L644.5961,266.72033958 " fill-rule="evenodd" vector-effect="non-scaling-stroke"/>
                        </g>
                    </g>
                </g>
                <g id="PlotDataItem_4">
                    <g fill="none" fill-rule="evenodd" id="PlotCurveItem_4" stroke="black" stroke-linecap="square" stroke-linejoin="bevel" stroke-width="1">
                        <g fill="none" font-family="MS Shell Dlg 2" font-size="11" font-style="normal" font-weight="400" stroke="#8a7c91" stroke-linecap="square" stroke-linejoin="bevel" stroke-opacity="1" stroke-width="1">
                            <path d="M86.2037000931,243.42891786 L87.3204848,241.2603491 L88.4372696,239.21593504 L89.5540544,237.29567568 L90.6708392,235.4664631 L91.787624,233.73657428 L92.9044088,232.08945526 L94.0211936,230.51682906 L95.1379784,229.01869568 L96.2547632,227.57850116 L97.371548,226.20452248 L98.4883328,224.88020568 L99.6051176,223.60555076 L100.7219024,222.38055772 L101.8386872,221.20522656 L102.955472,220.0712803 L104.0722568,218.97044196 L105.1890416,217.91098852 L106.3058264,216.87636602 L107.4226112,215.88312842 L108.539396,214.92299874 L109.6561808,213.9877 L110.7729656,213.0772322 L111.8897504,212.19987232 L113.0065352,211.34734338 L114.12332,210.5113684 L115.2401048,209.70850134 L116.3568896,208.92218824 L117.4736744,208.1524291 L118.5904592,207.4075009 L119.707244,206.68740364 L120.8240288,205.97558336 L121.9408136,205.28859402 L123.0575984,204.60988166 L124.1743832,203.95600024 L125.291168,203.31867278 L126.4079528,202.6896223 L127.5247376,202.07712578 L128.6415224,201.48118322 L129.7583072,200.90179462 L130.875092,200.330683 L131.9918768,199.77612534 L133.1086616,199.22984466 L134.2254464,198.70011794 L135.3422312,198.1786682 L136.459016,197.67377242 L137.5758008,197.17715362 L138.6925856,196.6888118 L139.8093704,196.21702394 L140.9261552,195.74523608 L142.04294,195.29000218 L143.1597248,194.84304526 L144.2765096,194.4126423 L145.3932944,193.98223934 L146.5100792,193.56839034 L147.626864,193.15454134 L148.7436488,192.7572463 L149.8604336,192.35995126 L150.9772184,191.97921018 L152.0940032,191.60674608 L153.210788,191.23428198 L154.3275728,190.87837184 L155.4443576,190.5224617 L156.5611424,190.17482854 L157.6779272,189.84374934 L158.794712,189.51267014 L159.9114968,189.18986792 L161.0282816,188.8670657 L162.1450664,188.56081744 L163.2618512,188.25456918 L164.378636,187.9565979 L165.4954208,187.6669036 L166.6122056,187.38548628 L167.7289904,187.11234594 L168.8457752,186.8392056 L169.96256,186.57434224 L171.0793448,186.30947888 L172.1961296,186.06116948 L173.3129144,185.81286008 L174.4296992,185.56455068 L175.546484,185.33279524 L176.6632688,185.1010398 L177.7800536,184.87756134 L178.8968384,184.65408288 L180.0136232,184.4388814 L181.130408,184.2319569 L182.2471928,184.0250324 L183.3639776,183.82638488 L184.4807624,183.63601434 L185.5975472,183.4456438 L186.714332,183.26355024 L187.8311168,183.08145668 L188.9479016,182.9076401 L190.0646864,182.7421005 L191.1814712,182.5765609 L192.298256,182.41929828 L193.4150408,182.26203566 L194.5318256,182.11305002 L195.6486104,181.96406438 L196.7653952,181.82335572 L197.88218,181.69092404 L198.9989648,181.55849236 L200.1157496,181.42606068 L201.2325344,181.30190598 L202.3493192,181.18602826 L203.466104,181.07015054 L204.5828888,180.9625498 L205.6996736,180.85494906 L206.8164584,180.7556253 L207.9332432,180.65630154 L209.050028,180.56525476 L210.1668128,180.47420798 L211.2835976,180.39143818 L212.4003824,180.31694536 L213.5171672,180.24245254 L214.633952,180.16795972 L215.7507368,180.10174388 L216.8675216,180.03552804 L217.9843064,179.97758918 L219.1010912,179.91965032 L220.217876,179.86998844 L221.3346608,179.82032656 L222.4514456,179.77894166 L223.5682304,179.74583374 L224.6850152,179.70444884 L225.8018,179.6796179 L226.9185848,179.64650998 L228.0353696,179.62995602 L229.1521544,179.60512508 L230.2689392,179.5968481 L231.385724,179.58029414 L232.5025088,179.57201716 L233.6192936,179.57201716 L234.7360784,179.57201716 L235.8528632,179.58029414 L236.969648,179.58857112 L238.0864328,179.60512508 L239.2032176,179.62167904 L240.3200024,179.638233 L241.4367872,179.66306394 L242.553572,179.69617186 L243.6703568,179.72927978 L244.7871416,179.77066468 L245.9039264,179.81204958 L247.0207112,179.85343448 L248.137496,179.90309636 L249.2542808,179.96103522 L250.3710656,180.01897408 L251.4878504,180.07691294 L252.6046352,180.14312878 L253.72142,180.20934462 L254.8382048,180.28383744 L255.9549896,180.36660724 L257.0717744,180.44937704 L258.1885592,180.53214684 L259.305344,180.62319362 L260.4221288,180.72251738 L261.5389136,180.82184114 L262.6556984,180.9211649 L263.7724832,181.02876564 L264.889268,181.14464336 L266.0060528,181.26052108 L267.1228376,181.38467578 L268.2396224,181.50883048 L269.3564072,181.64126216 L270.473192,181.77369384 L271.5899768,181.9144025 L272.7067616,182.05511116 L273.8235464,182.2040968 L274.9403312,182.35308244 L276.057116,182.51034506 L277.1739008,182.67588466 L278.2906856,182.84142426 L279.4074704,183.01524084 L280.5242552,183.18905742 L281.64104,183.37115098 L282.7578248,183.56152152 L283.8746096,183.75189206 L284.9913944,183.9422626 L286.1081792,184.1491871 L287.224964,184.3561116 L288.3417488,184.5630361 L289.4585336,184.77823758 L290.5753184,185.00171604 L291.6921032,185.23347148 L292.808888,185.46522692 L293.9256728,185.70525934 L295.0424576,185.94529176 L296.1592424,186.20187814 L297.2760272,186.45846452 L298.392812,186.7150509 L299.5095968,186.97991426 L300.6263816,187.26133158 L301.7431664,187.53447192 L302.8599512,187.82416622 L303.976736,188.11386052 L305.0935208,188.4118318 L306.2103056,188.71808006 L307.3270904,189.0326053 L308.4438752,189.34713054 L309.56066,189.67820974 L310.6774448,190.00928894 L311.7942296,190.34864512 L312.9110144,190.69627828 L314.0277992,191.05218842 L315.144584,191.40809856 L316.2613688,191.78056266 L317.3781536,192.16130374 L318.4949384,192.54204482 L319.6117232,192.93933986 L320.728508,193.3366349 L321.8452928,193.7504839 L322.9620776,194.17260988 L324.0788624,194.59473586 L325.1956472,195.0334158 L326.312432,195.48037272 L327.4292168,195.93560662 L328.5460016,196.40739448 L329.6627864,196.87918234 L330.7795712,197.36752416 L331.896356,197.86414296 L333.0131408,198.37731572 L334.1299256,198.89876546 L335.2467104,199.42849218 L336.3634952,199.97477286 L337.48028,200.52933052 L338.5970648,201.10044214 L339.7138496,201.67983074 L340.8306344,202.2757733 L341.9474192,202.88826982 L343.064204,203.5173203 L344.1809888,204.15464776 L345.2977736,204.80852918 L346.4145584,205.47896456 L347.5313432,206.1659539 L348.648128,206.87777418 L349.7649128,207.59787144 L350.8816976,208.34279964 L351.9984824,209.1042818 L353.1152672,209.8905949 L354.232052,210.70173894 L355.3488368,211.52943694 L356.4656216,212.38196588 L357.5824064,213.25104878 L358.6991912,214.1532396 L359.815976,215.08853834 L360.9327608,216.04866802 L362.0495456,217.03362864 L363.1663304,218.05997416 L364.2831152,219.11115062 L365.3999,220.20371198 L366.5166848,219.11115062 L367.6334696,218.05997416 L368.7502544,217.04190562 L369.8670392,216.056945 L370.983824,215.09681532 L372.1006088,214.16979356 L373.2173936,213.26760274 L374.3341784,212.39851984 L375.4509632,211.5459909 L376.567748,210.7182929 L377.6845328,209.91542584 L378.8013176,209.12911274 L379.9181024,208.36763058 L381.0348872,207.63097936 L382.151672,206.90260512 L383.2684568,206.19906182 L384.3852416,205.51207248 L385.5020264,204.8416371 L386.6188112,204.18775568 L387.735596,203.55042822 L388.8523808,202.92137774 L389.9691656,202.3171582 L391.0859504,201.72121564 L392.2027352,201.14182704 L393.31952,200.57071542 L394.4363048,200.01615776 L395.5530896,199.46987708 L396.6698744,198.94015036 L397.7866592,198.41870062 L398.903444,197.91380484 L400.0202288,197.41718604 L401.1370136,196.92884422 L402.2537984,196.44877938 L403.3705832,195.9852685 L404.487368,195.5300346 L405.6041528,195.08307768 L406.7209376,194.64439774 L407.8377224,194.22227176 L408.9545072,193.80014578 L410.071292,193.39457376 L411.1880768,192.98900174 L412.3048616,192.59998368 L413.4216464,192.21096562 L414.5384312,191.83850152 L415.655216,191.46603742 L416.7720008,191.1018503 L417.8887856,190.75421714 L419.0055704,190.40658398 L420.1223552,190.0672278 L421.23914,189.7361486 L422.3559248,189.4050694 L423.4727096,189.09054416 L424.5894944,188.77601892 L425.7062792,188.46977066 L426.823064,188.17179938 L427.9398488,187.88210508 L429.0566336,187.60068776 L430.1734184,187.31927044 L431.2902032,187.0461301 L432.406988,186.78126674 L433.5237728,186.51640338 L434.6405576,186.259817 L435.7573424,186.0115076 L436.8741272,185.77147518 L437.990912,185.53144276 L439.1076968,185.29968732 L440.2244816,185.06793188 L441.3412664,184.84445342 L442.4580512,184.62925194 L443.574836,184.42232744 L444.6916208,184.21540294 L445.8084056,184.01675542 L446.9251904,183.8181079 L448.0419752,183.62773736 L449.15876,183.43736682 L450.2755448,183.25527326 L451.3923296,183.08145668 L452.5091144,182.91591708 L453.6258992,182.7421005 L454.742684,182.58483788 L455.8594688,182.42757526 L456.9762536,182.27031264 L458.0930384,182.12960398 L459.2098232,181.98061834 L460.326608,181.84818666 L461.4433928,181.707478 L462.5601776,181.5833233 L463.6769624,181.4591686 L464.7937472,181.3350139 L465.910532,181.21913618 L467.0273168,181.10325846 L468.1441016,180.99565772 L469.2608864,180.89633396 L470.3776712,180.7970102 L471.494456,180.69768644 L472.6112408,180.60663966 L473.7280256,180.52386986 L474.8448104,180.44110006 L475.9615952,180.36660724 L477.07838,180.29211442 L478.1951648,180.2176216 L479.3119496,180.15140576 L480.4287344,180.0934669 L481.5455192,180.03552804 L482.662304,179.98586616 L483.7790888,179.93620428 L484.8958736,179.8865424 L486.0126584,179.8451575 L487.1294432,179.81204958 L488.246228,179.77894166 L489.3630128,179.74583374 L490.4797976,179.7210028 L491.5965824,179.70444884 L492.7133672,179.68789488 L493.830152,179.67134092 L494.9469368,179.66306394 L496.0637216,179.65478696 L497.1805064,179.65478696 L498.2972912,179.65478696 L499.414076,179.66306394 L500.5308608,179.6796179 L501.6476456,179.68789488 L502.7644304,179.71272582 L503.8812152,179.73755676 L504.998,179.7623877 L506.1147848,179.79549562 L507.2315696,179.82860354 L508.3483544,179.86998844 L509.4651392,179.91137334 L510.581924,179.95275824 L511.6987088,180.0106971 L512.8154936,180.06035898 L513.9322784,180.12657482 L515.0490632,180.18451368 L516.165848,180.25072952 L517.2826328,180.32522234 L518.3994176,180.39971516 L519.5162024,180.48248496 L520.6329872,180.56525476 L521.749772,180.65630154 L522.8665568,180.74734832 L523.9833416,180.84667208 L525.1001264,180.94599584 L526.2169112,181.05359658 L527.333696,181.16119732 L528.4504808,181.27707504 L529.5672656,181.40122974 L530.6840504,181.51710746 L531.8008352,181.64953914 L532.91762,181.78197082 L534.0344048,181.9144025 L535.1511896,182.05511116 L536.2679744,182.2040968 L537.3847592,182.35308244 L538.501544,182.51034506 L539.6183288,182.66760768 L540.7351136,182.83314728 L541.8518984,183.00696386 L542.9686832,183.18078044 L544.085468,183.362874 L545.2022528,183.54496756 L546.3190376,183.7353381 L547.4358224,183.92570864 L548.5526072,184.12435616 L549.669392,184.33128066 L550.7861768,184.53820516 L551.9029616,184.75340664 L553.0197464,184.9768851 L554.1365312,185.20036356 L555.253316,185.432119 L556.3701008,185.67215142 L557.4868856,185.91218384 L558.6036704,186.16049324 L559.7204552,186.41707962 L560.83724,186.673666 L561.9540248,186.93852936 L563.0708096,187.2116697 L564.1875944,187.49308702 L565.3043792,187.77450434 L566.421164,188.06419864 L567.5379488,188.36216992 L568.6547336,188.66841818 L569.7715184,188.97466644 L570.8883032,189.29746866 L572.005088,189.62027088 L573.1218728,189.95135008 L574.2386576,190.29070626 L575.3554424,190.63006244 L576.4722272,190.98597258 L577.589012,191.3501597 L578.7057968,191.71434682 L579.8225816,192.0950879 L580.9393664,192.47582898 L582.0561512,192.87312402 L583.172936,193.27041906 L584.2897208,193.68426806 L585.4065056,194.09811706 L586.5232904,194.52852002 L587.6400752,194.96719996 L588.75686,195.41415688 L589.8736448,195.86939078 L590.9904296,196.33290166 L592.1072144,196.8129665 L593.2239992,197.30130832 L594.340784,197.79792712 L595.4575688,198.3028229 L596.5743536,198.82427264 L597.6911384,199.36227634 L598.8079232,199.90028004 L599.924708,200.46311468 L601.0414928,201.0342263 L602.1582776,201.6136149 L603.2750624,202.20955746 L604.3918472,202.82205398 L605.508632,203.45110446 L606.6254168,204.08843192 L607.7422016,204.75059032 L608.8589864,205.4210257 L609.9757712,206.11629202 L611.092556,206.8281123 L612.2093408,207.54820956 L613.3261256,208.30141474 L614.4429104,209.0628969 L615.5596952,209.85748698 L616.67648,210.66035404 L617.7932648,211.49632902 L618.9100496,212.35713494 L620.0268344,213.23449482 L621.1436192,214.14496262 L622.260404,215.08026136 L623.3771888,216.04866802 L624.4939736,217.04190562 L625.6107584,218.07652812 L626.7275432,219.14425854 L627.844328,220.24509688 L628.9611128,221.38732012 L630.0778976,222.56265128 L631.1946824,223.7959213 L632.3114672,225.07057622 L633.428252,226.39489302 L634.5450368,227.77714868 L635.6618216,229.2173432 L636.7786064,230.72375356 L637.8953912,232.30465674 L639.012176,233.96005274 L640.1289608,235.69821854 L641.2457456,237.52743112 L642.3625304,239.46424444 L643.4793152,241.51693548 L644.5961,243.69378122 " fill-rule="evenodd" vector-effect="non-scaling-stroke"/>
                        </g>
                    </g>
                </g>
                <g id="PlotDataItem_5">
                    <g fill="none" fill-rule="evenodd" id="PlotCurveItem_5" stroke="black" stroke-linecap="square" stroke-linejoin="bevel" stroke-width="1">
                        <g fill="none" font-family="MS Shell Dlg 2" font-size="11" font-style="normal" font-weight="400" stroke="#ff2e70" stroke-linecap="square" stroke-linejoin="bevel" stroke-opacity="1" stroke-width="1">
                            <path d="M86.2037000931,112.56986406 L87.3204848,110.33507946 L88.4372696,108.24100352 L89.5540544,106.2628053 L90.6708392,104.38393084 L91.787624,102.61265712 L92.9044088,100.9241532 L94.0211936,99.3101421 L95.1379784,97.7789008 L96.2547632,96.30559836 L97.371548,94.89851176 L98.4883328,93.54108704 L99.6051176,92.24160118 L100.7219024,90.9917772 L101.8386872,89.7916151 L102.955472,88.62456092 L104.0722568,87.50716862 L105.1890416,86.42288424 L106.3058264,85.37170778 L107.4226112,84.35363924 L108.539396,83.36867862 L109.6561808,82.41682592 L110.7729656,81.48980416 L111.8897504,80.59589032 L113.0065352,79.71853044 L114.12332,78.87427848 L115.2401048,78.04658048 L116.3568896,77.24371342 L117.4736744,76.4656773 L118.5904592,75.70419514 L119.707244,74.95926694 L120.8240288,74.23916968 L121.9408136,73.53562638 L123.0575984,72.84863704 L124.1743832,72.17820166 L125.291168,71.52432024 L126.4079528,70.88699278 L127.5247376,70.26621928 L128.6415224,69.65372276 L129.7583072,69.0577802 L130.875092,68.4783916 L131.9918768,67.91555696 L133.1086616,67.3609993 L134.2254464,66.81471862 L135.3422312,66.2849919 L136.459016,65.76354216 L137.5758008,65.25864638 L138.6925856,64.76202758 L139.8093704,64.27368576 L140.9261552,63.8018979 L142.04294,63.33838702 L143.1597248,62.88315312 L144.2765096,62.4361962 L145.3932944,61.99751626 L146.5100792,61.57539028 L147.626864,61.1532643 L148.7436488,60.74769228 L149.8604336,60.34212026 L150.9772184,59.9531022 L152.0940032,59.57236112 L153.210788,59.19162004 L154.3275728,58.82743292 L155.4443576,58.4632458 L156.5611424,58.11561264 L157.6779272,57.76797948 L158.794712,57.4286233 L159.9114968,57.0975441 L161.0282816,56.77474188 L162.1450664,56.46021664 L163.2618512,56.15396838 L164.378636,55.84772012 L165.4954208,55.54974884 L166.6122056,55.26005454 L167.7289904,54.97863722 L168.8457752,54.6972199 L169.96256,54.42407956 L171.0793448,54.1592162 L172.1961296,53.90262982 L173.3129144,53.64604344 L174.4296992,53.40601102 L175.546484,53.15770162 L176.6632688,52.92594618 L177.7800536,52.69419074 L178.8968384,52.47071228 L180.0136232,52.24723382 L181.130408,52.03203234 L182.2471928,51.82510784 L183.3639776,51.62646032 L184.4807624,51.4278128 L185.5975472,51.22916528 L186.714332,51.04707172 L187.8311168,50.86497816 L188.9479016,50.6828846 L190.0646864,50.50906802 L191.1814712,50.34352842 L192.298256,50.17798882 L193.4150408,50.0207262 L194.5318256,49.86346358 L195.6486104,49.72275492 L196.7653952,49.57376928 L197.88218,49.43306062 L198.9989648,49.30062894 L200.1157496,49.16819726 L201.2325344,49.04404256 L202.3493192,48.91988786 L203.466104,48.80401014 L204.5828888,48.6964094 L205.6996736,48.58880866 L206.8164584,48.48120792 L207.9332432,48.38188416 L209.050028,48.29083738 L210.1668128,48.1997906 L211.2835976,48.10874382 L212.4003824,48.034251 L213.5171672,47.9514812 L214.633952,47.87698838 L215.7507368,47.81077254 L216.8675216,47.7445567 L217.9843064,47.68661784 L219.1010912,47.62867898 L220.217876,47.5790171 L221.3346608,47.52935522 L222.4514456,47.48797032 L223.5682304,47.44658542 L224.6850152,47.4134775 L225.8018,47.38036958 L226.9185848,47.34726166 L228.0353696,47.3307077 L229.1521544,47.30587676 L230.2689392,47.29759978 L231.385724,47.28104582 L232.5025088,47.27276884 L233.6192936,47.27276884 L234.7360784,47.27276884 L235.8528632,47.28104582 L236.969648,47.2893228 L238.0864328,47.30587676 L239.2032176,47.32243072 L240.3200024,47.34726166 L241.4367872,47.3720926 L242.553572,47.39692354 L243.6703568,47.43830844 L244.7871416,47.47141636 L245.9039264,47.51280126 L247.0207112,47.56246314 L248.137496,47.61212502 L249.2542808,47.67006388 L250.3710656,47.72800274 L251.4878504,47.79421858 L252.6046352,47.86043442 L253.72142,47.92665026 L254.8382048,48.00942006 L255.9549896,48.08391288 L257.0717744,48.16668268 L258.1885592,48.25772946 L259.305344,48.34877624 L260.4221288,48.4481 L261.5389136,48.55570074 L262.6556984,48.6550245 L263.7724832,48.77090222 L264.889268,48.88677994 L266.0060528,49.00265766 L267.1228376,49.12681236 L268.2396224,49.25924404 L269.3564072,49.39167572 L270.473192,49.5241074 L271.5899768,49.67309304 L272.7067616,49.8138017 L273.8235464,49.97106432 L274.9403312,50.12832694 L276.057116,50.28558956 L277.1739008,50.45112916 L278.2906856,50.62494574 L279.4074704,50.79876232 L280.5242552,50.98085588 L281.64104,51.16294944 L282.7578248,51.35331998 L283.8746096,51.5519675 L284.9913944,51.75061502 L286.1081792,51.95753952 L287.224964,52.172741 L288.3417488,52.38794248 L289.4585336,52.61142094 L290.5753184,52.8348994 L291.6921032,53.06665484 L292.808888,53.30668726 L293.9256728,53.55499666 L295.0424576,53.80330606 L296.1592424,54.05989244 L297.2760272,54.31647882 L298.392812,54.58961916 L299.5095968,54.8627595 L300.6263816,55.14417682 L301.7431664,55.42559414 L302.8599512,55.72356542 L303.976736,56.0215367 L305.0935208,56.32778496 L306.2103056,56.63403322 L307.3270904,56.95683544 L308.4438752,57.27963766 L309.56066,57.61071686 L310.6774448,57.95835002 L311.7942296,58.30598318 L312.9110144,58.65361634 L314.0277992,59.01780346 L315.144584,59.39026756 L316.2613688,59.77100864 L317.3781536,60.15174972 L318.4949384,60.54904476 L319.6117232,60.9463398 L320.728508,61.3601888 L321.8452928,61.78231478 L322.9620776,62.21271774 L324.0788624,62.6431207 L325.1956472,63.0983546 L326.312432,63.5535885 L327.4292168,64.01709938 L328.5460016,64.49716422 L329.6627864,64.98550604 L330.7795712,65.48212484 L331.896356,65.98702062 L333.0131408,66.50847036 L334.1299256,67.03819708 L335.2467104,67.58447776 L336.3634952,68.13903542 L337.48028,68.71014704 L338.5970648,69.28953564 L339.7138496,69.8854782 L340.8306344,70.49797472 L341.9474192,71.11874822 L343.064204,71.75607568 L344.1809888,72.4099571 L345.2977736,73.08039248 L346.4145584,73.76738182 L347.5313432,74.47092512 L348.648128,75.19929936 L349.7649128,75.93595058 L350.8816976,76.69743274 L351.9984824,77.47546886 L353.1152672,78.27833592 L354.232052,79.10603392 L355.3488368,79.95028588 L356.4656216,80.81936878 L357.5824064,81.71328262 L358.6991912,82.64030438 L359.815976,83.59215708 L360.9327608,84.56884072 L362.0495456,85.58690926 L363.1663304,86.62980874 L364.2831152,87.70581614 L365.3999,88.82320844 L366.5166848,87.70581614 L367.6334696,86.62980874 L368.7502544,85.58690926 L369.8670392,84.56884072 L370.983824,83.59215708 L372.1006088,82.64030438 L373.2173936,81.71328262 L374.3341784,80.81936878 L375.4509632,79.95028588 L376.567748,79.10603392 L377.6845328,78.27833592 L378.8013176,77.47546886 L379.9181024,76.69743274 L381.0348872,75.93595058 L382.151672,75.19929936 L383.2684568,74.4792021 L384.3852416,73.7756588 L385.5020264,73.08866946 L386.6188112,72.41823408 L387.735596,71.76435266 L388.8523808,71.11874822 L389.9691656,70.49797472 L391.0859504,69.8854782 L392.2027352,69.29781262 L393.31952,68.71014704 L394.4363048,68.1473124 L395.5530896,67.58447776 L396.6698744,67.04647406 L397.7866592,66.50847036 L398.903444,65.9952976 L400.0202288,65.48212484 L401.1370136,64.98550604 L402.2537984,64.49716422 L403.3705832,64.01709938 L404.487368,63.5535885 L405.6041528,63.0983546 L406.7209376,62.65139768 L407.8377224,62.21271774 L408.9545072,61.78231478 L410.071292,61.3601888 L411.1880768,60.95461678 L412.3048616,60.54904476 L413.4216464,60.15174972 L414.5384312,59.77100864 L415.655216,59.39026756 L416.7720008,59.01780346 L417.8887856,58.66189332 L419.0055704,58.30598318 L420.1223552,57.95835002 L421.23914,57.61899384 L422.3559248,57.28791464 L423.4727096,56.95683544 L424.5894944,56.6423102 L425.7062792,56.32778496 L426.823064,56.0215367 L427.9398488,55.72356542 L429.0566336,55.43387112 L430.1734184,55.14417682 L431.2902032,54.8627595 L432.406988,54.58961916 L433.5237728,54.3247558 L434.6405576,54.05989244 L435.7573424,53.80330606 L436.8741272,53.55499666 L437.990912,53.30668726 L439.1076968,53.07493182 L440.2244816,52.8348994 L441.3412664,52.61142094 L442.4580512,52.38794248 L443.574836,52.172741 L444.6916208,51.95753952 L445.8084056,51.75061502 L446.9251904,51.5519675 L448.0419752,51.36159696 L449.15876,51.17122642 L450.2755448,50.98085588 L451.3923296,50.79876232 L452.5091144,50.62494574 L453.6258992,50.45112916 L454.742684,50.28558956 L455.8594688,50.12832694 L456.9762536,49.97106432 L458.0930384,49.82207868 L459.2098232,49.67309304 L460.326608,49.53238438 L461.4433928,49.39167572 L462.5601776,49.25924404 L463.6769624,49.12681236 L464.7937472,49.00265766 L465.910532,48.88677994 L467.0273168,48.77090222 L468.1441016,48.66330148 L469.2608864,48.55570074 L470.3776712,48.45637698 L471.494456,48.35705322 L472.6112408,48.26600644 L473.7280256,48.17495966 L474.8448104,48.09218986 L475.9615952,48.00942006 L477.07838,47.93492724 L478.1951648,47.86043442 L479.3119496,47.79421858 L480.4287344,47.72800274 L481.5455192,47.67006388 L482.662304,47.61212502 L483.7790888,47.56246314 L484.8958736,47.52107824 L486.0126584,47.47141636 L487.1294432,47.43830844 L488.246228,47.40520052 L489.3630128,47.3720926 L490.4797976,47.34726166 L491.5965824,47.32243072 L492.7133672,47.30587676 L493.830152,47.2893228 L494.9469368,47.28104582 L496.0637216,47.28104582 L497.1805064,47.27276884 L498.2972912,47.28104582 L499.414076,47.2893228 L500.5308608,47.29759978 L501.6476456,47.31415374 L502.7644304,47.3307077 L503.8812152,47.35553864 L504.998,47.38036958 L506.1147848,47.4134775 L507.2315696,47.44658542 L508.3483544,47.48797032 L509.4651392,47.52935522 L510.581924,47.5790171 L511.6987088,47.62867898 L512.8154936,47.68661784 L513.9322784,47.75283368 L515.0490632,47.81077254 L516.165848,47.88526536 L517.2826328,47.95975818 L518.3994176,48.034251 L519.5162024,48.1170208 L520.6329872,48.1997906 L521.749772,48.29083738 L522.8665568,48.39016114 L523.9833416,48.4894849 L525.1001264,48.58880866 L526.2169112,48.6964094 L527.333696,48.81228712 L528.4504808,48.92816484 L529.5672656,49.04404256 L530.6840504,49.17647424 L531.8008352,49.30062894 L532.91762,49.4413376 L534.0344048,49.57376928 L535.1511896,49.72275492 L536.2679744,49.87174056 L537.3847592,50.0207262 L538.501544,50.1862658 L539.6183288,50.34352842 L540.7351136,50.517345 L541.8518984,50.69116158 L542.9686832,50.86497816 L544.085468,51.04707172 L545.2022528,51.23744226 L546.3190376,51.4278128 L547.4358224,51.62646032 L548.5526072,51.83338482 L549.669392,52.04030932 L550.7861768,52.2555108 L551.9029616,52.47071228 L553.0197464,52.69419074 L554.1365312,52.92594618 L555.253316,53.1659786 L556.3701008,53.40601102 L557.4868856,53.65432042 L558.6036704,53.9109068 L559.7204552,54.16749318 L560.83724,54.43235654 L561.9540248,54.70549688 L563.0708096,54.97863722 L564.1875944,55.26005454 L565.3043792,55.55802582 L566.421164,55.84772012 L567.5379488,56.15396838 L568.6547336,56.46021664 L569.7715184,56.78301886 L570.8883032,57.10582108 L572.005088,57.43690028 L573.1218728,57.76797948 L574.2386576,58.11561264 L575.3554424,58.47152278 L576.4722272,58.82743292 L577.589012,59.19989702 L578.7057968,59.57236112 L579.8225816,59.9531022 L580.9393664,60.35039724 L582.0561512,60.74769228 L583.172936,61.16154128 L584.2897208,61.57539028 L585.4065056,62.00579324 L586.5232904,62.4361962 L587.6400752,62.88315312 L588.75686,63.33838702 L589.8736448,63.8018979 L590.9904296,64.28196274 L592.1072144,64.77030456 L593.2239992,65.26692336 L594.340784,65.77181914 L595.4575688,66.29326888 L596.5743536,66.8229956 L597.6911384,67.3609993 L598.8079232,67.91555696 L599.924708,68.48666858 L601.0414928,69.06605718 L602.1582776,69.66199974 L603.2750624,70.26621928 L604.3918472,70.89526976 L605.508632,71.53259722 L606.6254168,72.18647864 L607.7422016,72.85691402 L608.8589864,73.54390336 L609.9757712,74.24744666 L611.092556,74.96754392 L612.2093408,75.71247212 L613.3261256,76.4656773 L614.4429104,77.2519904 L615.5596952,78.05485746 L616.67648,78.87427848 L617.7932648,79.72680742 L618.9100496,80.59589032 L620.0268344,81.49808114 L621.1436192,82.4251029 L622.260404,83.3769556 L623.3771888,84.36191622 L624.4939736,85.37998476 L625.6107584,86.42288424 L626.7275432,87.50716862 L627.844328,88.6328379 L628.9611128,89.7916151 L630.0778976,91.00005418 L631.1946824,92.24987816 L632.3114672,93.54936402 L633.428252,94.90678874 L634.5450368,96.31387534 L635.6618216,97.7789008 L636.7786064,99.31841908 L637.8953912,100.93243018 L639.012176,102.6209341 L640.1289608,104.39220782 L641.2457456,106.27108228 L642.3625304,108.2492805 L643.4793152,110.34335644 L644.5961,112.57814104 " fill-rule="evenodd" vector-effect="non-scaling-stroke"/>
                        </g>
                    </g>
                </g>
            </g>
            <g fill="none" fill-rule="evenodd" id="LegendItem_1" stroke="black" stroke-linecap="square" stroke-linejoin="bevel" stroke-width="1">
                <g fill="#646464" fill-opacity="0.196078" font-family="MS Shell Dlg 2" font-size="11" font-style="normal" font-weight="400" stroke="#ffffff" stroke-linecap="square" stroke-linejoin="bevel" stroke-opacity="0.392157" stroke-width="1">
                    <path d="M92.8,61.0 L176.8,61.0 L176.8,208.0 L92.8,208.0 L92.8,61.0 " fill-rule="evenodd" vector-effect="non-scaling-stroke"/>
                </g>
                <g fill="none" fill-rule="evenodd" id="ItemSample_1" stroke="black" stroke-linecap="square" stroke-linejoin="bevel" stroke-width="1">
                    <g fill="none" font-family="MS Shell Dlg 2" font-size="11" font-style="normal" font-weight="400" stroke="#ed815e" stroke-linecap="square" stroke-linejoin="bevel" stroke-opacity="1" stroke-width="1">
                        <polyline fill="none" points="103.8,88.0 119.8,72.0" vector-effect="non-scaling-stroke"/>
                    </g>
                </g>
                <g fill="none" fill-rule="evenodd" id="LabelItem_1" stroke="black" stroke-linecap="square" stroke-linejoin="bevel" stroke-width="1">
                    <g fill="none" fill-rule="evenodd" id="QGraphicsTextItem_3" stroke="black" stroke-linecap="square" stroke-linejoin="bevel" stroke-width="1">
                        


                        


                        <g fill="none" font-family="MS Shell Dlg 2" font-size="11" font-style="normal" font-weight="400" stroke="#969696" stroke-linecap="square" stroke-linejoin="bevel" stroke-opacity="1" stroke-width="1" transform="matrix(1,0,0,1,115.8,70)">
                            <text fill="#969696" fill-opacity="1" font-family="&quot;MS Shell Dlg 2&quot;, sans-serif" font-size="11" font-style="normal" font-weight="400" stroke="none" x="4" xml:space="preserve" y="15">1e-06 A</text>
                        </g>
                        


                        

                    </g>
                </g>
                <g fill="none" fill-rule="evenodd" id="ItemSample_2" stroke="black" stroke-linecap="square" stroke-linejoin="bevel" stroke-width="1">
                    <g fill="none" font-family="MS Shell Dlg 2" font-size="11" font-style="normal" font-weight="400" stroke="#c7b069" stroke-linecap="square" stroke-linejoin="bevel" stroke-opacity="1" stroke-width="1">
                        <polyline fill="none" points="103.8,115.0 119.8,99.0" vector-effect="non-scaling-stroke"/>
                    </g>
                </g>
                <g fill="none" fill-rule="evenodd" id="LabelItem_2" stroke="black" stroke-linecap="square" stroke-linejoin="bevel" stroke-width="1">
                    <g fill="none" fill-rule="evenodd" id="QGraphicsTextItem_4" stroke="black" stroke-linecap="square" stroke-linejoin="bevel" stroke-width="1">
                        


                        


                        <g fill="none" font-family="MS Shell Dlg 2" font-size="11" font-style="normal" font-weight="400" stroke="#969696" stroke-linecap="square" stroke-linejoin="bevel" stroke-opacity="1" stroke-width="1" transform="matrix(1,0,0,1,115.8,97)">
                            <text fill="#969696" fill-opacity="1" font-family="&quot;MS Shell Dlg 2&quot;, sans-serif" font-size="11" font-style="normal" font-weight="400" stroke="none" x="4" xml:space="preserve" y="15">1e-06 A</text>
                        </g>
                        


                        

                    </g>
                </g>
                <g fill="none" fill-rule="evenodd" id="ItemSample_3" stroke="black" stroke-linecap="square" stroke-linejoin="bevel" stroke-width="1">
                    <g fill="none" font-family="MS Shell Dlg 2" font-size="11" font-style="normal" font-weight="400" stroke="#7ea695" stroke-linecap="square" stroke-linejoin="bevel" stroke-opacity="1" stroke-width="1">
                        <polyline fill="none" points="103.8,142.0 119.8,126.0" vector-effect="non-scaling-stroke"/>
                    </g>
                </g>
                <g fill="none" fill-rule="evenodd" id="LabelItem_3" stroke="black" stroke-linecap="square" stroke-linejoin="bevel" stroke-width="1">
                    <g fill="none" fill-rule="evenodd" id="QGraphicsTextItem_5" stroke="black" stroke-linecap="square" stroke-linejoin="bevel" stroke-width="1">
                        


                        


                        <g fill="none" font-family="MS Shell Dlg 2" font-size="11" font-style="normal" font-weight="400" stroke="#969696" stroke-linecap="square" stroke-linejoin="bevel" stroke-opacity="1" stroke-width="1" transform="matrix(1,0,0,1,112.8,124)">
                            <text fill="#969696" fill-opacity="1" font-family="&quot;MS Shell Dlg 2&quot;, sans-serif" font-size="11" font-style="normal" font-weight="400" stroke="none" x="4" xml:space="preserve" y="15">63.375 A</text>
                        </g>
                        


                        

                    </g>
                </g>
                <g fill="none" fill-rule="evenodd" id="ItemSample_4" stroke="black" stroke-linecap="square" stroke-linejoin="bevel" stroke-width="1">
                    <g fill="none" font-family="MS Shell Dlg 2" font-size="11" font-style="normal" font-weight="400" stroke="#8a7c91" stroke-linecap="square" stroke-linejoin="bevel" stroke-opacity="1" stroke-width="1">
                        <polyline fill="none" points="103.8,169.0 119.8,153.0" vector-effect="non-scaling-stroke"/>
                    </g>
                </g>
                <g fill="none" fill-rule="evenodd" id="LabelItem_4" stroke="black" stroke-linecap="square" stroke-linejoin="bevel" stroke-width="1">
                    <g fill="none" fill-rule="evenodd" id="QGraphicsTextItem_6" stroke="black" stroke-linecap="square" stroke-linejoin="bevel" stroke-width="1">
                        


                        


                        <g fill="none" font-family="MS Shell Dlg 2" font-size="11" font-style="normal" font-weight="400" stroke="#969696" stroke-linecap="square" stroke-linejoin="bevel" stroke-opacity="1" stroke-width="1" transform="matrix(1,0,0,1,109.8,151)">
                            <text fill="#969696" fill-opacity="1" font-family="&quot;MS Shell Dlg 2&quot;, sans-serif" font-size="11" font-style="normal" font-weight="400" stroke="none" x="4" xml:space="preserve" y="15">69.5125 A</text>
                        </g>
                        


                        

                    </g>
                </g>
                <g fill="none" fill-rule="evenodd" id="ItemSample_5" stroke="black" stroke-linecap="square" stroke-linejoin="bevel" stroke-width="1">
                    <g fill="none" font-family="MS Shell Dlg 2" font-size="11" font-style="normal" font-weight="400" stroke="#ff2e70" stroke-linecap="square" stroke-linejoin="bevel" stroke-opacity="1" stroke-width="1">
                        <polyline fill="none" points="103.8,196.0 119.8,180.0" vector-effect="non-scaling-stroke"/>
                    </g>
                </g>
                <g fill="none" fill-rule="evenodd" id="LabelItem_5" stroke="black" stroke-linecap="square" stroke-linejoin="bevel" stroke-width="1">
                    <g fill="none" fill-rule="evenodd" id="QGraphicsTextItem_7" stroke="black" stroke-linecap="square" stroke-linejoin="bevel" stroke-width="1">
                        


                        


                        <g fill="none" font-family="MS Shell Dlg 2" font-size="11" font-style="normal" font-weight="400" stroke="#969696" stroke-linecap="square" stroke-linejoin="bevel" stroke-opacity="1" stroke-width="1" transform="matrix(1,0,0,1,115.8,178)">
                            <text fill="#969696" fill-opacity="1" font-family="&quot;MS Shell Dlg 2&quot;, sans-serif" font-size="11" font-style="normal" font-weight="400" stroke="none" x="4" xml:space="preserve" y="15">75.65 A</text>
                        </g>
                        


                        

                    </g>
                </g>
            </g>
        </g>
    </g>
    <g fill="none" fill-rule="evenodd" id="LabelItem_6" stroke="black" stroke-linecap="square" stroke-linejoin="bevel" stroke-width="1">
        <g fill="none" fill-rule="evenodd" id="QGraphicsTextItem_8" stroke="black" stroke-linecap="square" stroke-linejoin="bevel" stroke-width="1">
            


            


            <g fill="none" font-family="MS Shell Dlg 2" font-size="11" font-style="normal" font-weight="400" stroke="#969696" stroke-linecap="square" stroke-linejoin="bevel" stroke-opacity="1" stroke-width="1" transform="matrix(1,0,0,1,248.4,3)">
                <text fill="#969696" fill-opacity="1" font-family="&quot;MS Shell Dlg 2&quot;, sans-serif" font-size="14.6667" font-style="normal" font-weight="400" stroke="none" x="4" xml:space="preserve" y="19">Density profile at different currents</text>
            </g>
            


            

        </g>
    </g>
</g>

</svg>
