<?xml version="1.0" encoding="UTF-8" standalone="no"?>
<svg xmlns="http://www.w3.org/2000/svg" xmlns:xlink="http://www.w3.org/1999/xlink"  version="1.2" baseProfile="tiny">
<title>pyqtgraph SVG export</title>
<desc>Generated with Qt and pyqtgraph</desc>
<defs>
</defs>
<g fill="none" fill-rule="evenodd" id="PlotItem_1" stroke="black" stroke-linecap="square" stroke-linejoin="bevel" stroke-width="1">
    <g fill="none" fill-rule="evenodd" id="AxisItem_1" stroke="black" stroke-linecap="square" stroke-linejoin="bevel" stroke-width="1">
        <g fill="none" font-family="MS Shell Dlg 2" font-size="11" font-style="normal" font-weight="400" stroke="#969696" stroke-linecap="square" stroke-linejoin="bevel" stroke-opacity="1" stroke-width="1">
            <polyline fill="none" points="62.8,320.2 668.0,320.2" vector-effect="non-scaling-stroke"/>
        </g>
        <g fill="none" font-family="MS Shell Dlg 2" font-size="11" font-style="normal" font-weight="400" stroke="#969696" stroke-linecap="square" stroke-linejoin="bevel" stroke-opacity="0.498039" stroke-width="1">
            <polyline fill="none" points="87.0288,31.0 87.0288,320.2" vector-effect="non-scaling-stroke"/>
        </g>
        <g fill="none" font-family="MS Shell Dlg 2" font-size="11" font-style="normal" font-weight="400" stroke="#969696" stroke-linecap="square" stroke-linejoin="bevel" stroke-opacity="0.247059" stroke-width="1">
            <polyline fill="none" points="272.943,31.0 272.943,320.2" vector-effect="non-scaling-stroke"/>
            <polyline fill="none" points="458.857,31.0 458.857,320.2" vector-effect="non-scaling-stroke"/>
            <polyline fill="none" points="644.771,31.0 644.771,320.2" vector-effect="non-scaling-stroke"/>
        </g>
        <g fill="none" font-family="MS Shell Dlg 2" font-size="11" font-style="normal" font-weight="400" stroke="#969696" stroke-linecap="square" stroke-linejoin="bevel" stroke-opacity="0.164706" stroke-width="1">
            <polyline fill="none" points="179.986,31.0 179.986,320.2" vector-effect="non-scaling-stroke"/>
            <polyline fill="none" points="365.9,31.0 365.9,320.2" vector-effect="non-scaling-stroke"/>
            <polyline fill="none" points="551.814,31.0 551.814,320.2" vector-effect="non-scaling-stroke"/>
        </g>
        <g fill="none" font-family="MS Shell Dlg 2" font-size="11" font-style="normal" font-weight="400" stroke="#969696" stroke-linecap="square" stroke-linejoin="bevel" stroke-opacity="1" stroke-width="1" transform="matrix(1,0,0,1,63.3,320.2)">
            <text fill="#969696" fill-opacity="1" font-family="&quot;MS Shell Dlg 2&quot;, sans-serif" font-size="11" font-style="normal" font-weight="400" stroke="none" x="20.7188" xml:space="preserve" y="12">0</text>
            <text fill="#969696" fill-opacity="1" font-family="&quot;MS Shell Dlg 2&quot;, sans-serif" font-size="11" font-style="normal" font-weight="400" stroke="none" x="206.641" xml:space="preserve" y="12">2</text>
            <text fill="#969696" fill-opacity="1" font-family="&quot;MS Shell Dlg 2&quot;, sans-serif" font-size="11" font-style="normal" font-weight="400" stroke="none" x="392.547" xml:space="preserve" y="12">4</text>
            <text fill="#969696" fill-opacity="1" font-family="&quot;MS Shell Dlg 2&quot;, sans-serif" font-size="11" font-style="normal" font-weight="400" stroke="none" x="578.469" xml:space="preserve" y="12">6</text>
            <text fill="#969696" fill-opacity="1" font-family="&quot;MS Shell Dlg 2&quot;, sans-serif" font-size="11" font-style="normal" font-weight="400" stroke="none" x="113.672" xml:space="preserve" y="12">1</text>
            <text fill="#969696" fill-opacity="1" font-family="&quot;MS Shell Dlg 2&quot;, sans-serif" font-size="11" font-style="normal" font-weight="400" stroke="none" x="299.594" xml:space="preserve" y="12">3</text>
            <text fill="#969696" fill-opacity="1" font-family="&quot;MS Shell Dlg 2&quot;, sans-serif" font-size="11" font-style="normal" font-weight="400" stroke="none" x="485.5" xml:space="preserve" y="12">5</text>
        </g>
        <g fill="none" fill-rule="evenodd" id="QGraphicsTextItem_1" stroke="black" stroke-linecap="square" stroke-linejoin="bevel" stroke-width="1">
            


            


            <g fill="none" font-family="MS Shell Dlg 2" font-size="11" font-style="normal" font-weight="400" stroke="#ffffff" stroke-linecap="square" stroke-linejoin="bevel" stroke-opacity="1" stroke-width="1" transform="matrix(1,0,0,1,256.8,338.2)">
                <text fill="#ffffff" fill-opacity="1" font-family="&quot;MS Shell Dlg 2&quot;, sans-serif" font-size="18.6667" font-style="normal" font-weight="400" stroke="none" x="4" xml:space="preserve" y="23">Axis along beam line (m)</text>
            </g>
            


            

        </g>
    </g>
    <g fill="none" fill-rule="evenodd" id="AxisItem_2" stroke="black" stroke-linecap="square" stroke-linejoin="bevel" stroke-width="1">
        <g fill="none" font-family="MS Shell Dlg 2" font-size="11" font-style="normal" font-weight="400" stroke="#969696" stroke-linecap="square" stroke-linejoin="bevel" stroke-opacity="1" stroke-width="1">
            <polyline fill="none" points="62.8,31.0 62.8,320.2" vector-effect="non-scaling-stroke"/>
        </g>
        <g fill="none" font-family="MS Shell Dlg 2" font-size="11" font-style="normal" font-weight="400" stroke="#969696" stroke-linecap="square" stroke-linejoin="bevel" stroke-opacity="0.498039" stroke-width="1">
            <polyline fill="none" points="668.5,89.4049 63.3,89.4049" vector-effect="non-scaling-stroke"/>
        </g>
        <g fill="none" font-family="MS Shell Dlg 2" font-size="11" font-style="normal" font-weight="400" stroke="#969696" stroke-linecap="square" stroke-linejoin="bevel" stroke-opacity="0.247059" stroke-width="1">
            <polyline fill="none" points="668.5,294.51 63.3,294.51" vector-effect="non-scaling-stroke"/>
            <polyline fill="none" points="668.5,242.838 63.3,242.838" vector-effect="non-scaling-stroke"/>
            <polyline fill="none" points="668.5,206.176 63.3,206.176" vector-effect="non-scaling-stroke"/>
            <polyline fill="none" points="668.5,177.739 63.3,177.739" vector-effect="non-scaling-stroke"/>
            <polyline fill="none" points="668.5,154.504 63.3,154.504" vector-effect="non-scaling-stroke"/>
            <polyline fill="none" points="668.5,134.859 63.3,134.859" vector-effect="non-scaling-stroke"/>
            <polyline fill="none" points="668.5,117.8421 63.3,117.8421" vector-effect="non-scaling-stroke"/>
            <polyline fill="none" points="668.5,102.8319 63.3,102.8319" vector-effect="non-scaling-stroke"/>
            <polyline fill="none" points="668.5,89.4049 63.3,89.4049" vector-effect="non-scaling-stroke"/>
        </g>
        <g fill="none" font-family="MS Shell Dlg 2" font-size="11" font-style="normal" font-weight="400" stroke="#969696" stroke-linecap="square" stroke-linejoin="bevel" stroke-opacity="1" stroke-width="1" transform="matrix(1,0,0,1,1.5,31)">
            <text fill="#969696" fill-opacity="1" font-family="&quot;MS Shell Dlg 2&quot;, sans-serif" font-size="11" font-style="normal" font-weight="400" stroke="none" x="24.7969" xml:space="preserve" y="63.2031">1e+04</text>
            <text fill="#969696" fill-opacity="1" font-family="&quot;MS Shell Dlg 2&quot;, sans-serif" font-size="11" font-style="normal" font-weight="400" stroke="none" x="24.7969" xml:space="preserve" y="268.297">2e+03</text>
            <text fill="#969696" fill-opacity="1" font-family="&quot;MS Shell Dlg 2&quot;, sans-serif" font-size="11" font-style="normal" font-weight="400" stroke="none" x="24.7969" xml:space="preserve" y="216.625">3e+03</text>
            <text fill="#969696" fill-opacity="1" font-family="&quot;MS Shell Dlg 2&quot;, sans-serif" font-size="11" font-style="normal" font-weight="400" stroke="none" x="24.7969" xml:space="preserve" y="179.969">4e+03</text>
            <text fill="#969696" fill-opacity="1" font-family="&quot;MS Shell Dlg 2&quot;, sans-serif" font-size="11" font-style="normal" font-weight="400" stroke="none" x="24.7969" xml:space="preserve" y="151.531">5e+03</text>
            <text fill="#969696" fill-opacity="1" font-family="&quot;MS Shell Dlg 2&quot;, sans-serif" font-size="11" font-style="normal" font-weight="400" stroke="none" x="24.7969" xml:space="preserve" y="128.297">6e+03</text>
            <text fill="#969696" fill-opacity="1" font-family="&quot;MS Shell Dlg 2&quot;, sans-serif" font-size="11" font-style="normal" font-weight="400" stroke="none" x="24.7969" xml:space="preserve" y="108.656">7e+03</text>
            <text fill="#969696" fill-opacity="1" font-family="&quot;MS Shell Dlg 2&quot;, sans-serif" font-size="11" font-style="normal" font-weight="400" stroke="none" x="24.7969" xml:space="preserve" y="91.6406">8e+03</text>
            <text fill="#969696" fill-opacity="1" font-family="&quot;MS Shell Dlg 2&quot;, sans-serif" font-size="11" font-style="normal" font-weight="400" stroke="none" x="24.7969" xml:space="preserve" y="76.625">9e+03</text>
            <text fill="#969696" fill-opacity="1" font-family="&quot;MS Shell Dlg 2&quot;, sans-serif" font-size="11" font-style="normal" font-weight="400" stroke="none" x="24.7969" xml:space="preserve" y="63.2031">1e+04</text>
        </g>
        <g fill="none" fill-rule="evenodd" id="QGraphicsTextItem_2" stroke="black" stroke-linecap="square" stroke-linejoin="bevel" stroke-width="1">
            


            


            <g fill="none" font-family="MS Shell Dlg 2" font-size="11" font-style="normal" font-weight="400" stroke="#ffffff" stroke-linecap="square" stroke-linejoin="bevel" stroke-opacity="1" stroke-width="1" transform="matrix(0,-1,1,0,-4,287)">
                <text fill="#ffffff" fill-opacity="1" font-family="&quot;MS Shell Dlg 2&quot;, sans-serif" font-size="18.6667" font-style="normal" font-weight="400" stroke="none" x="4" xml:space="preserve" y="23">Density (particles per m3)</text>
            </g>
            


            

        </g>
    </g>
    <g fill="none" fill-rule="evenodd" id="ViewBox_1" stroke="black" stroke-linecap="square" stroke-linejoin="bevel" stroke-width="1">
        <g fill="none" font-family="MS Shell Dlg 2" font-size="11" font-style="normal" font-weight="400" stroke="none">
            <path d="M62.8,31.0 L668.0,31.0 L668.0,320.2 L62.8,320.2 L62.8,31.0 " fill-rule="evenodd" vector-effect="non-scaling-stroke"/>
        </g>
        <clipPath id="ViewBox_1_clip">
            <path d="M62.8,31.0 L668.0,31.0 L668.0,320.2 L62.8,320.2 L62.8,31.0 " fill-rule="evenodd" vector-effect="non-scaling-stroke"/>
        </clipPath>
        <g clip-path="url(#ViewBox_1_clip)">
            <g fill="none" fill-rule="evenodd" id="ChildGroup_1" stroke="black" stroke-linecap="square" stroke-linejoin="bevel" stroke-width="1">
                <g id="PlotDataItem_1">
                    <g fill="none" fill-rule="evenodd" id="PlotCurveItem_1" stroke="black" stroke-linecap="square" stroke-linejoin="bevel" stroke-width="1">
                        <g fill="none" font-family="MS Shell Dlg 2" font-size="11" font-style="normal" font-weight="400" stroke="#ed815e" stroke-linecap="square" stroke-linejoin="bevel" stroke-opacity="1" stroke-width="1.5">
                            <path d="M86.528800093,282.67172857 L87.6442852,280.25085682 L88.7597704,277.88867287 L89.8752556,275.58517672 L90.9907408,273.33743398 L92.106226,271.14251026 L93.2217112,269.00333995 L94.3371964,266.91111988 L95.4526816,264.86878444 L96.5681668,262.87046485 L97.683652,260.9190955 L98.7991372,259.011742 L99.9146224,257.14546996 L101.0301076,255.31734499 L102.1455928,253.53030148 L103.261078,251.78140504 L104.3765632,250.07065567 L105.4920484,248.39218459 L106.6075336,246.74892619 L107.7230188,245.14088047 L108.838504,243.56217865 L109.9539892,242.01868951 L111.0694744,240.50160988 L112.1849596,239.01680854 L113.3004448,237.5613511 L114.41593,236.13523756 L115.5314152,234.73259914 L116.6469004,233.35930462 L117.7623856,232.01241961 L118.8778708,230.68900972 L119.993356,229.39200934 L121.1088412,228.11848408 L122.2243264,226.86843394 L123.3398116,225.63892453 L124.4552968,224.43582463 L125.570782,223.25326546 L126.6862672,222.09124702 L127.8017524,220.94976931 L128.9172376,219.83176672 L130.0327228,218.73137047 L131.148208,217.65151495 L132.2636932,216.58926577 L133.3791784,215.54755732 L134.4946636,214.5263896 L135.6101488,213.51989383 L136.725634,212.5310044 L137.8411192,211.5626557 L138.9566044,210.60897895 L140.0720896,209.67290854 L141.1875748,208.75151008 L142.30306,207.84771796 L143.4185452,206.96153218 L144.5340304,206.08708396 L145.6495156,205.23024208 L146.7650008,204.38807215 L147.880486,203.56057417 L148.9959712,202.74774814 L150.1114564,201.94959406 L151.2269416,201.16611193 L152.3424268,200.39436736 L153.457912,199.63729474 L154.5733972,198.89489407 L155.6888824,198.16423096 L156.8043676,197.4482398 L157.9198528,196.7439862 L159.035338,196.05147016 L160.1508232,195.37069168 L161.2663084,194.70458515 L162.3817936,194.05021618 L163.4972788,193.40758477 L164.612764,192.77669092 L165.7282492,192.15753463 L166.8437344,191.5501159 L167.9592196,190.95150034 L169.0747048,190.36755673 L170.19019,189.79241629 L171.3056752,189.22901341 L172.4211604,188.67734809 L173.5366456,188.13448594 L174.6521308,187.60336135 L175.767616,187.08397432 L176.8831012,186.57339046 L177.9985864,186.07160977 L179.1140716,185.58156664 L180.2295568,185.10326107 L181.345042,184.63082428 L182.4605272,184.17305944 L183.5760124,183.72116338 L184.6914976,183.28100488 L185.8069828,182.84671516 L186.922468,182.42709739 L188.0379532,182.0133484 L189.1534384,181.60840258 L190.2689236,181.21519432 L191.3844088,180.83078923 L192.499894,180.45225292 L193.6153792,180.08545417 L194.7308644,179.72745859 L195.8463496,179.37826618 L196.9618348,179.03787694 L198.07732,178.70629087 L199.1928052,178.38057358 L200.3082904,178.06659385 L201.4237756,177.76141729 L202.5392608,177.46210951 L203.654746,177.1716049 L204.7702312,176.88990346 L205.8857164,176.61700519 L207.0012016,176.35291009 L208.1166868,176.09468377 L209.232172,175.84819501 L210.3476572,175.60757503 L211.4631424,175.37282383 L212.5786276,175.14981019 L213.6941128,174.93266533 L214.809598,174.72432364 L215.9250832,174.52478512 L217.0405684,174.33111538 L218.1560536,174.14624881 L219.2715388,173.96725102 L220.387024,173.79999079 L221.5025092,173.63566495 L222.6179944,173.48307667 L223.7334796,173.33635717 L224.8489648,173.19844084 L225.96445,173.06639329 L227.0799352,172.94314891 L228.1954204,172.82577331 L229.3109056,172.71720088 L230.4263908,172.61743162 L231.541876,172.52353114 L232.6573612,172.43549944 L233.7728464,172.3592053 L234.8883316,172.28584555 L236.0038168,172.22422336 L237.119302,172.16846995 L238.2347872,172.11858532 L239.3502724,172.07750386 L240.4657576,172.04229118 L241.5812428,172.01588167 L242.696728,171.99827533 L243.8122132,171.98653777 L244.9276984,171.98066899 L246.0431836,171.98360338 L247.1586688,171.99534094 L248.274154,172.01294728 L249.3896392,172.0364224 L250.5051244,172.06870069 L251.6206096,172.10978215 L252.7360948,172.15673239 L253.85158,172.2124858 L254.9670652,172.27410799 L256.0825504,172.34453335 L257.1980356,172.42082749 L258.3135208,172.5059248 L259.429006,172.59689089 L260.5444912,172.69666015 L261.6599764,172.80523258 L262.7754616,172.91967379 L263.8909468,173.03998378 L265.006432,173.17203133 L266.1219172,173.30701327 L267.2374024,173.45373277 L268.3528876,173.60632105 L269.4683728,173.76477811 L270.583858,173.93497273 L271.6993432,174.10810174 L272.8148284,174.29296831 L273.9303136,174.48370366 L275.0457988,174.68324218 L276.161284,174.88864948 L277.2767692,175.10285995 L278.3922544,175.32587359 L279.5077396,175.5576904 L280.6232248,175.79537599 L281.73871,176.04186475 L282.8541952,176.29715668 L283.9696804,176.55831739 L285.0851656,176.82828127 L286.2006508,177.10704832 L287.316136,177.39461854 L288.4316212,177.69099193 L289.5471064,177.99616849 L290.6625916,178.30721383 L291.7780768,178.62706234 L292.893562,178.95864841 L294.0090472,179.29610326 L295.1245324,179.64236128 L296.2400176,179.99742247 L297.3555028,180.36128683 L298.470988,180.73395436 L299.5864732,181.11835945 L300.7019584,181.50863332 L301.8174436,181.90771036 L302.9329288,182.31852496 L304.048414,182.73520834 L305.1638992,183.16362928 L306.2793844,183.60085339 L307.3948696,184.04688067 L308.5103548,184.50464551 L309.62584,184.96827913 L310.7413252,185.4465847 L311.8568104,185.93075905 L312.9722956,186.42667096 L314.0877808,186.93138604 L315.203266,187.44783868 L316.3187512,187.97309449 L317.4342364,188.51008786 L318.5497216,189.05881879 L319.6652068,189.61635289 L320.780692,190.18562455 L321.8961772,190.76369938 L323.0116624,191.35644616 L324.1271476,191.95799611 L325.2426328,192.57128362 L326.358118,193.1933743 L327.4736032,193.83013693 L328.5890884,194.47863712 L329.7045736,195.13887487 L330.8200588,195.81085018 L331.935544,196.49456305 L333.0510292,197.19294787 L334.1665144,197.90013586 L335.2819996,198.6219958 L336.3974848,199.35852769 L337.51297,200.10679714 L338.6284552,200.86680415 L339.7439404,201.6444175 L340.8594256,202.43376841 L341.9749108,203.23485688 L343.090396,204.05355169 L344.2058812,204.88398406 L345.3213664,205.73202277 L346.4368516,206.59179904 L347.5523368,207.46918165 L348.667822,208.36123621 L349.7833072,209.27089711 L350.8987924,210.19522996 L352.0142776,211.13423476 L353.1297628,212.09378029 L354.245248,213.06799777 L355.3607332,214.05982159 L356.4762184,215.06631736 L357.5917036,216.09628825 L358.7071888,217.14093109 L359.822674,218.20611466 L360.9381592,219.28890457 L362.0536444,220.39223521 L363.1691296,221.51610658 L364.2846148,222.66051868 L365.4001,223.82253712 L366.5155852,222.66345307 L367.6310704,221.52490975 L368.7465556,220.40690716 L369.8620408,219.30651091 L370.977526,218.22665539 L372.0930112,217.1673406 L373.2084964,216.12563215 L374.3239816,215.10153004 L375.4394668,214.09796866 L376.554952,213.10907923 L377.6704372,212.14073053 L378.7859224,211.18705378 L379.9014076,210.24804898 L381.0168928,209.32958491 L382.132378,208.4228584 L383.2478632,207.53667262 L384.3633484,206.6622244 L385.4788336,205.80538252 L386.5943188,204.9602782 L387.709804,204.13278022 L388.8252892,203.31995419 L389.9407744,202.51886572 L391.0562596,201.7324492 L392.1717448,200.96070463 L393.28723,200.20363201 L394.4027152,199.45829695 L395.5182004,198.72763384 L396.6336856,198.00870829 L397.7491708,197.3015203 L398.864656,196.60900426 L399.9801412,195.92822578 L401.0956264,195.25918486 L402.2111116,194.6018815 L403.3265968,193.9563157 L404.442082,193.32248746 L405.5575672,192.70039678 L406.6730524,192.09004366 L407.7885376,191.4914281 L408.9040228,190.9045501 L410.019508,190.32940966 L411.1349932,189.76307239 L412.2504784,189.20847268 L413.3659636,188.66267614 L414.4814488,188.12861716 L415.596934,187.60629574 L416.7124192,187.09277749 L417.8279044,186.5909968 L418.9433896,186.09801928 L420.0588748,185.61384493 L421.17436,185.14140814 L422.2898452,184.67777452 L423.4053304,184.22587846 L424.5208156,183.77985118 L425.6363008,183.34556146 L426.751786,182.92007491 L427.8672712,182.50632592 L428.9827564,182.09844571 L430.0982416,181.70230306 L431.2137268,181.31496358 L432.329212,180.93349288 L433.4446972,180.56375974 L434.5601824,180.20282977 L435.6756676,179.85070297 L436.7911528,179.50737934 L437.906638,179.16992449 L439.0221232,178.8442072 L440.1376084,178.52435869 L441.2530936,178.21624774 L442.3685788,177.91400557 L443.484064,177.62056657 L444.5995492,177.33593074 L445.7150344,177.06009808 L446.8305196,176.79306859 L447.9460048,176.53190788 L449.06149,176.28248473 L450.1769752,176.03599597 L451.2924604,175.80124477 L452.4079456,175.57529674 L453.5234308,175.35521749 L454.638916,175.14100702 L455.7544012,174.93853411 L456.8698864,174.74192998 L457.9853716,174.55412902 L459.1008568,174.37219684 L460.216342,174.19906783 L461.3318272,174.03474199 L462.4473124,173.87921932 L463.5627976,173.72663104 L464.6782828,173.58578032 L465.793768,173.45079838 L466.9092532,173.32461961 L468.0247384,173.20430962 L469.1402236,173.0928028 L470.2557088,172.99009915 L471.371194,172.89326428 L472.4866792,172.80229819 L473.6021644,172.72013527 L474.7176496,172.64677552 L475.8331348,172.57928455 L476.94862,172.52059675 L478.0641052,172.46777773 L479.1795904,172.42376188 L480.2950756,172.38561481 L481.4105608,172.35627091 L482.526046,172.33573018 L483.6415312,172.32105823 L484.7570164,172.31225506 L485.8725016,172.31225506 L486.9879868,172.32105823 L488.103472,172.33573018 L489.2189572,172.35627091 L490.3344424,172.38561481 L491.4499276,172.42376188 L492.5654128,172.46777773 L493.680898,172.52059675 L494.7963832,172.57928455 L495.9118684,172.64677552 L497.0273536,172.72013527 L498.1428388,172.80229819 L499.258324,172.89032989 L500.3738092,172.98716476 L501.4892944,173.0928028 L502.6047796,173.20430962 L503.7202648,173.32461961 L504.83575,173.45079838 L505.9512352,173.58578032 L507.0667204,173.72663104 L508.1822056,173.87921932 L509.2976908,174.03474199 L510.413176,174.20200222 L511.5286612,174.37513123 L512.6441464,174.55412902 L513.7596316,174.74192998 L514.8751168,174.93853411 L515.990602,175.14394141 L517.1060872,175.35521749 L518.2215724,175.57529674 L519.3370576,175.80417916 L520.4525428,176.04186475 L521.568028,176.28541912 L522.6835132,176.53777666 L523.7989984,176.79893737 L524.9144836,177.06596686 L526.0299688,177.34473391 L527.145454,177.62936974 L528.2609392,177.92280874 L529.3764244,178.22505091 L530.4919096,178.53609625 L531.6073948,178.85594476 L532.72288,179.18459644 L533.8383652,179.5191169 L534.9538504,179.86537492 L536.0693356,180.22043611 L537.1848208,180.58136608 L538.300306,180.95403361 L539.4157912,181.33550431 L540.5312764,181.72284379 L541.6467616,182.12192083 L542.7622468,182.53273543 L543.877732,182.94941881 L544.9932172,183.37490536 L546.1087024,183.81212947 L547.2241876,184.25815675 L548.3396728,184.7129872 L549.455158,185.17955521 L550.5706432,185.65492639 L551.6861284,186.13910074 L552.8016136,186.63501265 L553.9170988,187.14266212 L555.032584,187.65618037 L556.1480692,188.18437057 L557.2635544,188.72136394 L558.3790396,189.26716048 L559.4945248,189.82469458 L560.61001,190.39396624 L561.7254952,190.97497546 L562.8409804,191.56772224 L563.9564656,192.16927219 L565.0719508,192.7825597 L566.187436,193.40758477 L567.3029212,194.04728179 L568.4184064,194.69578198 L569.5338916,195.35601973 L570.6493768,196.03092943 L571.764862,196.71757669 L572.8803472,197.41596151 L573.9958324,198.12608389 L575.1113176,198.85087822 L576.2268028,199.58741011 L577.342288,200.33861395 L578.4577732,201.10448974 L579.5732584,201.88210309 L580.6887436,202.67438839 L581.8042288,203.48134564 L582.919714,204.30004045 L584.0351992,205.1363416 L585.1506844,205.9873147 L586.2661696,206.85295975 L587.3816548,207.73327675 L588.49714,208.63120009 L589.6126252,209.54379538 L590.7281104,210.47399701 L591.8435956,211.41887059 L592.9590808,212.38135051 L594.074566,213.36143677 L595.1900512,214.35912937 L596.3055364,215.37442831 L597.4210216,216.41026798 L598.5365068,217.4607796 L599.651992,218.53476634 L600.7674772,219.62635942 L601.8829624,220.73555884 L602.9984476,221.86823338 L604.1139328,223.02144865 L605.229418,224.19520465 L606.3449032,225.38950138 L607.4603884,226.60727323 L608.5758736,227.8485202 L609.6913588,229.1103079 L610.806844,230.39850511 L611.9223292,231.71017744 L613.0378144,233.04825928 L614.1532996,234.40981624 L615.2687848,235.8007171 L616.38427,237.21802747 L617.4997552,238.66174735 L618.6152404,240.13481113 L619.7307256,241.63721881 L620.8462108,243.16897039 L621.961696,244.73300026 L623.0771812,246.32930842 L624.1926664,247.95789487 L625.3081516,249.621694 L626.4236368,251.32070581 L627.539122,253.0549303 L628.6546072,254.82436747 L629.7700924,256.6348861 L630.8855776,258.48648619 L632.0010628,260.37623335 L633.116548,262.30999636 L634.2320332,264.28777522 L635.3475184,266.31250432 L636.4630036,268.38418366 L637.5784888,270.50574763 L638.693974,272.67719623 L639.8094592,274.90146385 L640.9249444,277.18441927 L642.0404296,279.5231281 L643.1559148,281.92052473 L644.2714,284.38247794 " fill-rule="evenodd" vector-effect="non-scaling-stroke"/>
                        </g>
                    </g>
                </g>
                <g id="PlotDataItem_2">
                    <g fill="none" fill-rule="evenodd" id="PlotCurveItem_2" stroke="black" stroke-linecap="square" stroke-linejoin="bevel" stroke-width="1">
                        <g fill="none" font-family="MS Shell Dlg 2" font-size="11" font-style="normal" font-weight="400" stroke="#c7b069" stroke-linecap="square" stroke-linejoin="bevel" stroke-opacity="1" stroke-width="1.5">
                            <path d="M86.528800093,293.26194208 L87.6442852,286.54218898 L88.7597704,280.20390658 L89.8752556,274.2118822 L90.9907408,268.52796877 L92.106226,263.12869117 L93.2217112,257.9847055 L94.3371964,253.08133981 L95.4526816,248.39218459 L96.5681668,243.90256789 L97.683652,239.60075215 L98.7991372,235.47206542 L99.9146224,231.50477014 L101.0301076,227.68712875 L102.1455928,224.01033808 L103.261078,220.46266057 L104.3765632,217.04116183 L105.4920484,213.73703869 L106.6075336,210.54148798 L107.7230188,207.45157531 L108.838504,204.45849751 L109.9539892,201.56225458 L111.0694744,198.75110896 L112.1849596,196.02506065 L113.3004448,193.38117526 L114.41593,190.81358401 L115.5314152,188.31641812 L116.6469004,185.89261198 L117.7623856,183.53336242 L118.8778708,181.24160383 L119.993356,179.00853304 L121.1088412,176.83415005 L122.2243264,174.71845486 L123.3398116,172.65557869 L124.4552968,170.64552154 L125.570782,168.68534902 L126.6862672,166.77506113 L127.8017524,164.91172348 L128.9172376,163.09533607 L130.0327228,161.32003012 L131.148208,159.58874002 L132.2636932,157.89853138 L133.3791784,156.24646981 L134.4946636,154.6354897 L135.6101488,153.05972227 L136.725634,151.52210191 L137.8411192,150.01675984 L138.9566044,148.54663045 L140.0720896,147.11171374 L141.1875748,145.70614093 L142.30306,144.3357808 L143.4185452,142.99183018 L144.5340304,141.68015785 L145.6495156,140.39782942 L146.7650008,139.1419105 L147.880486,137.91533548 L148.9959712,136.71516997 L150.1114564,135.54141397 L151.2269416,134.39113309 L152.3424268,133.27019611 L153.457912,132.16979986 L154.5733972,131.09581312 L155.6888824,130.0453015 L156.8043676,129.01533061 L157.9198528,128.00883484 L159.035338,127.02581419 L160.1508232,126.06333427 L161.2663084,125.12139508 L162.3817936,124.20293101 L163.4972788,123.30207328 L164.612764,122.42175628 L165.7282492,121.56198001 L166.8437344,120.71981008 L167.9592196,119.89818088 L169.0747048,119.09415802 L170.19019,118.3077415 L171.3056752,117.54186571 L172.4211604,116.79359626 L173.5366456,116.05999876 L174.6521308,115.3440076 L175.767616,114.64562278 L176.8831012,113.9648443 L177.9985864,113.30167216 L179.1140716,112.65023758 L180.2295568,112.01934373 L181.345042,111.40018744 L182.4605272,110.79863749 L183.5760124,110.21175949 L184.6914976,109.64248783 L185.8069828,109.08495373 L186.922468,108.54502597 L188.0379532,108.01683577 L189.1534384,107.50331752 L190.2689236,107.00447122 L191.3844088,106.52029687 L192.499894,106.05079447 L193.6153792,105.59302963 L194.7308644,105.15287113 L195.8463496,104.7215158 L196.9618348,104.30483242 L198.07732,103.90282099 L199.1928052,103.51254712 L200.3082904,103.1369452 L201.4237756,102.77308084 L202.5392608,102.42388843 L203.654746,102.08349919 L204.7702312,101.76071629 L205.8857164,101.44673656 L207.0012016,101.14742878 L208.1166868,100.85692417 L209.232172,100.58109151 L210.3476572,100.3199308 L211.4631424,100.06757326 L212.5786276,99.82695328 L213.6941128,99.60100525 L214.809598,99.38386039 L215.9250832,99.18138748 L217.0405684,98.99065213 L218.1560536,98.80871995 L219.2715388,98.64145972 L220.387024,98.48300266 L221.5025092,98.33921755 L222.6179944,98.20423561 L223.7334796,98.08392562 L224.8489648,97.9724188 L225.96445,97.87558393 L227.0799352,97.78755223 L228.1954204,97.71125809 L229.3109056,97.64670151 L230.4263908,97.59388249 L231.541876,97.55280103 L232.6573612,97.52052274 L233.7728464,97.5029164 L234.8883316,97.49411323 L236.0038168,97.49704762 L237.119302,97.51465396 L238.2347872,97.54106347 L239.3502724,97.57921054 L240.4657576,97.62616078 L241.5812428,97.68778297 L242.696728,97.75820833 L243.8122132,97.84330564 L244.9276984,97.93720612 L246.0431836,98.04577855 L247.1586688,98.16315415 L248.274154,98.29226731 L249.3896392,98.43311803 L250.5051244,98.58570631 L251.6206096,98.75003215 L252.7360948,98.92609555 L253.85158,99.11389651 L254.9670652,99.31343503 L256.0825504,99.52471111 L257.1980356,99.74772475 L258.3135208,99.98247595 L259.429006,100.2318991 L260.5444912,100.49012542 L261.6599764,100.7600893 L262.7754616,101.04472513 L263.8909468,101.34109852 L265.006432,101.64920947 L266.1219172,101.97199237 L267.2374024,102.30357844 L268.3528876,102.64983646 L269.4683728,103.01076643 L270.583858,103.38049957 L271.6993432,103.76783905 L272.8148284,104.1639817 L273.9303136,104.5747963 L275.0457988,105.00028285 L276.161284,105.43750696 L277.2767692,105.88940302 L278.3922544,106.35597103 L279.5077396,106.8342766 L280.6232248,107.32725412 L281.73871,107.83490359 L282.8541952,108.35722501 L283.9696804,108.89421838 L285.0851656,109.4458837 L286.2006508,110.01222097 L287.316136,110.59323019 L288.4316212,111.18891136 L289.5471064,111.79926448 L290.6625916,112.42722394 L291.7780768,113.06985535 L292.893562,113.7300931 L294.0090472,114.4050028 L295.1245324,115.09751884 L296.2400176,115.80470683 L297.3555028,116.53243555 L298.470988,117.27483622 L299.5864732,118.03484323 L300.7019584,118.81539097 L301.8174436,119.61061066 L302.9329288,120.42637108 L304.048414,121.25973784 L305.1638992,122.11364533 L306.2793844,122.98515916 L307.3948696,123.88014811 L308.5103548,124.7927434 L309.62584,125.72587942 L310.7413252,126.67955617 L311.8568104,127.65377365 L312.9722956,128.65146625 L314.0877808,129.67263397 L315.203266,130.71434242 L316.3187512,131.77952599 L317.4342364,132.87111907 L318.5497216,133.98325288 L319.6652068,135.1217962 L320.780692,136.28674903 L321.8961772,137.47811137 L323.0116624,138.69294883 L324.1271476,139.93713019 L325.2426328,141.21065545 L326.358118,142.51059022 L327.4736032,143.84280328 L328.5890884,145.20142585 L329.7045736,146.59232671 L330.8200588,148.01844025 L331.935544,149.47389769 L333.0510292,150.96456781 L334.1665144,152.48751622 L335.2819996,154.0486117 L336.3974848,155.64785425 L337.51297,157.28230948 L338.6284552,158.95784617 L339.7439404,160.67152993 L340.8594256,162.42922954 L341.9749108,164.230945 L343.090396,166.07374192 L344.2058812,167.96642347 L345.3213664,169.90605526 L346.4368516,171.89557168 L347.5523368,173.93497273 L348.667822,176.03012719 L349.7833072,178.18103506 L350.8987924,180.39063073 L352.0142776,182.6589142 L353.1297628,184.99175425 L354.245248,187.38915088 L355.3607332,189.85403848 L356.4762184,192.39228583 L357.5917036,195.00682732 L358.7071888,197.69766295 L359.822674,200.47359589 L360.9381592,203.33462614 L362.0536444,206.28955687 L363.1691296,209.33838808 L364.2846148,212.48992294 L365.4001,215.75003023 L366.5155852,212.5016605 L367.6310704,209.36479759 L368.7465556,206.32476955 L369.8620408,203.38451077 L370.977526,200.53228369 L372.0930112,197.76808831 L373.2084964,195.08605585 L374.3239816,192.48031753 L375.4394668,189.95087335 L376.554952,187.49478892 L377.6704372,185.10326107 L378.7859224,182.77922419 L379.9014076,180.51974389 L381.0168928,178.31895139 L382.132378,176.17684669 L383.2478632,174.08756101 L384.3633484,172.05402874 L385.4788336,170.0703811 L386.5943188,168.13955248 L387.709804,166.25273971 L388.8252892,164.41581157 L389.9407744,162.61996489 L391.0562596,160.86813406 L392.1717448,159.16031908 L393.28723,157.49065117 L394.4027152,155.85913033 L395.5182004,154.26869095 L396.6336856,152.71346425 L397.7491708,151.19345023 L398.864656,149.70864889 L399.9801412,148.25612584 L401.0956264,146.83881547 L402.2111116,145.450849 L403.3265968,144.09516082 L404.442082,142.77175093 L405.5575672,141.47475055 L406.6730524,140.20709407 L407.7885376,138.96878149 L408.9040228,137.75394403 L410.019508,136.56845047 L411.1349932,135.40936642 L412.2504784,134.27669188 L413.3659636,133.16455807 L414.4814488,132.08176816 L415.596934,131.01951898 L416.7124192,129.98074492 L417.8279044,128.96544598 L418.9433896,127.97068777 L420.0588748,126.99940468 L421.17436,126.04866232 L422.2898452,125.12139508 L423.4053304,124.21173418 L424.5208156,123.32261401 L425.6363008,122.45403457 L426.751786,121.60599586 L427.8672712,120.77556349 L428.9827564,119.96273746 L430.0982416,119.17045216 L431.2137268,118.3957732 L432.329212,117.63870058 L433.4446972,116.8992343 L434.5601824,116.17737436 L435.6756676,115.47312076 L436.7911528,114.7864735 L437.906638,114.11449819 L439.0221232,113.45719483 L440.1376084,112.81749781 L441.2530936,112.19540713 L442.3685788,111.5879884 L443.484064,110.99524162 L444.5995492,110.41716679 L445.7150344,109.8566983 L446.8305196,109.30796737 L447.9460048,108.77684278 L449.06149,108.25745575 L450.1769752,107.75567506 L451.2924604,107.26563193 L452.4079456,106.79026075 L453.5234308,106.32956152 L454.638916,105.88059985 L455.7544012,105.44631013 L456.8698864,105.02669236 L457.9853716,104.61881215 L459.1008568,104.22560389 L460.216342,103.84413319 L461.3318272,103.47440005 L462.4473124,103.11933886 L463.5627976,102.77894962 L464.6782828,102.44736355 L465.793768,102.13044943 L466.9092532,101.82820726 L468.0247384,101.53476826 L469.1402236,101.25600121 L470.2557088,100.98897172 L471.371194,100.73367979 L472.4866792,100.49012542 L473.6021644,100.25830861 L474.7176496,100.04116375 L475.8331348,99.83282206 L476.94862,99.63915232 L478.0641052,99.45428575 L479.1795904,99.28409113 L480.2950756,99.12269968 L481.4105608,98.97598018 L482.526046,98.83806385 L483.6415312,98.71188508 L484.7570164,98.60037826 L485.8725016,98.49767461 L486.9879868,98.40670852 L488.103472,98.33041438 L489.2189572,98.26292341 L490.3344424,98.20717 L491.4499276,98.16021976 L492.5654128,98.12794147 L493.680898,98.10740074 L494.7963832,98.09566318 L495.9118684,98.09859757 L497.0273536,98.11033513 L498.1428388,98.13381025 L499.258324,98.16902293 L500.3738092,98.21597317 L501.4892944,98.27466097 L502.6047796,98.34508633 L503.7202648,98.42724925 L504.83575,98.52114973 L505.9512352,98.62385338 L507.0667204,98.74122898 L508.1822056,98.86740775 L509.2976908,99.00825847 L510.413176,99.15791236 L511.5286612,99.31930381 L512.6441464,99.49536721 L513.7596316,99.68023378 L514.8751168,99.8797723 L515.990602,100.08811399 L517.1060872,100.31112763 L518.2215724,100.54294444 L519.3370576,100.7894332 L520.4525428,101.04765952 L521.568028,101.3176234 L522.6835132,101.60225923 L523.7989984,101.89569823 L524.9144836,102.20380918 L526.0299688,102.52365769 L527.145454,102.85524376 L528.2609392,103.20150178 L529.3764244,103.55949736 L530.4919096,103.9292305 L531.6073948,104.31363559 L532.72288,104.70977824 L533.8383652,105.12059284 L534.9538504,105.54607939 L536.0693356,105.9833035 L537.1848208,106.43226517 L538.300306,106.89883318 L539.4157912,107.37713875 L540.5312764,107.87011627 L541.6467616,108.37776574 L542.7622468,108.90008716 L543.877732,109.43414614 L544.9932172,109.98581146 L546.1087024,110.55214873 L547.2241876,111.13315795 L548.3396728,111.72883912 L549.455158,112.33919224 L550.5706432,112.9671517 L551.6861284,113.60978311 L552.8016136,114.27002086 L553.9170988,114.94493056 L555.032584,115.6374466 L556.1480692,116.34756898 L557.2635544,117.07236331 L558.3790396,117.81769837 L559.4945248,118.57770538 L560.61001,119.35825312 L561.7254952,120.15347281 L562.8409804,120.96923323 L563.9564656,121.80553438 L565.0719508,122.65944187 L566.187436,123.53389009 L567.3029212,124.42594465 L568.4184064,125.34147433 L569.5338916,126.27461035 L570.6493768,127.23122149 L571.764862,128.20837336 L572.8803472,129.20900035 L573.9958324,130.23016807 L575.1113176,131.27481091 L576.2268028,132.34292887 L577.342288,133.43452195 L578.4577732,134.54959015 L579.5732584,135.69106786 L580.6887436,136.85602069 L581.8042288,138.05031742 L582.919714,139.27102366 L584.0351992,140.51520502 L585.1506844,141.79166467 L586.2661696,143.09453383 L587.3816548,144.42968128 L588.49714,145.79417263 L589.6126252,147.18800788 L590.7281104,148.61705581 L591.8435956,150.07544764 L592.9590808,151.57198654 L594.074566,153.10080373 L595.1900512,154.6648336 L596.3055364,156.26701054 L597.4210216,157.91026894 L598.5365068,159.58874002 L599.651992,161.31122695 L600.7674772,163.07186095 L601.8829624,164.87944519 L602.9984476,166.73104528 L604.1139328,168.62959561 L605.229418,170.57509618 L606.3449032,172.57341577 L607.4603884,174.62161999 L608.5758736,176.72557762 L609.6913588,178.88528866 L610.806844,181.1036875 L611.9223292,183.38077414 L613.0378144,185.72241736 L614.1532996,188.13155155 L615.2687848,190.6111111 L616.38427,193.16109601 L617.4997552,195.78737506 L618.6152404,198.49288264 L619.7307256,201.28055314 L620.8462108,204.15918973 L621.961696,207.12879241 L623.0771812,210.19522996 L624.1926664,213.36437116 L625.3081516,216.64501918 L626.4236368,220.03717402 L627.539122,223.55257324 L628.6546072,227.20002001 L629.7700924,230.98538311 L630.8855776,234.91746571 L632.0010628,239.00800537 L633.116548,243.26873965 L634.2320332,247.7143405 L635.3475184,252.35361109 L636.4630036,257.21002654 L637.5784888,262.29532441 L638.693974,267.63591421 L639.8094592,273.25233667 L640.9249444,279.17393569 L642.0404296,285.43005517 L643.1559148,292.05884218 L644.2714,299.10431257 " fill-rule="evenodd" vector-effect="non-scaling-stroke"/>
                        </g>
                    </g>
                </g>
                <g id="PlotDataItem_3">
                    <g fill="none" fill-rule="evenodd" id="PlotCurveItem_3" stroke="black" stroke-linecap="square" stroke-linejoin="bevel" stroke-width="1">
                        <g fill="none" font-family="MS Shell Dlg 2" font-size="11" font-style="normal" font-weight="400" stroke="#7ea695" stroke-linecap="square" stroke-linejoin="bevel" stroke-opacity="1" stroke-width="1.5">
                            <path d="M86.528800093,294.90226609 L87.6442852,286.0961617 L88.7597704,277.92095116 L89.8752556,270.29153716 L90.9907408,263.14629751 L92.106226,256.43241319 L93.2217112,250.09999957 L94.3371964,244.11384397 L95.4526816,238.4416681 L96.5681668,233.05119367 L97.683652,227.91894556 L98.7991372,223.02438304 L99.9146224,218.34696538 L101.0301076,213.87495502 L102.1455928,209.58487684 L103.261078,205.47086206 L104.3765632,201.51823873 L105.4920484,197.71526929 L106.6075336,194.05315057 L107.7230188,190.52601379 L108.838504,187.119187 L109.9539892,183.8326702 L111.0694744,180.65472583 L112.1849596,177.5824195 L113.3004448,174.60988243 L114.41593,171.73124584 L115.5314152,168.94064095 L116.6469004,166.23513337 L117.7623856,163.60885432 L118.8778708,161.0618038 L119.993356,158.58517864 L121.1088412,156.18191323 L122.2243264,153.84613879 L123.3398116,151.57198654 L124.4552968,149.36239087 L125.570782,147.211483 L126.6862672,145.11632854 L127.8017524,143.07692749 L128.9172376,141.09034546 L130.0327228,139.15364806 L131.148208,137.26683529 L132.2636932,135.42697276 L133.3791784,133.63406047 L134.4946636,131.88222964 L135.6101488,130.17441466 L136.725634,128.51061553 L137.8411192,126.88496347 L138.9566044,125.29745848 L140.0720896,123.74810056 L141.1875748,122.23395532 L142.30306,120.75795715 L143.4185452,119.31423727 L144.5340304,117.90279568 L145.6495156,116.52656677 L146.7650008,115.18261615 L147.880486,113.86800943 L148.9959712,112.58274661 L150.1114564,111.32682769 L151.2269416,110.10025267 L152.3424268,108.90302155 L153.457912,107.72926555 L154.5733972,106.58485345 L155.6888824,105.46685086 L156.8043676,104.37232339 L157.9198528,103.30420543 L159.035338,102.25956259 L160.1508232,101.23839487 L161.2663084,100.24070227 L162.3817936,99.26648479 L163.4972788,98.31574243 L164.612764,97.3855408 L165.7282492,96.4758799 L166.8437344,95.58675973 L167.9592196,94.72111468 L169.0747048,93.87307597 L170.19019,93.04851238 L171.3056752,92.23862074 L172.4211604,91.45220422 L173.5366456,90.68339404 L174.6521308,89.9321902 L175.767616,89.20152709 L176.8831012,88.48553593 L177.9985864,87.7900855 L179.1140716,87.11224141 L180.2295568,86.45200366 L181.345042,85.80643786 L182.4605272,85.1784784 L183.5760124,84.56812528 L184.6914976,83.97244411 L185.8069828,83.39436928 L186.922468,82.83390079 L188.0379532,82.28516986 L189.1534384,81.75404527 L190.2689236,81.24052702 L191.3844088,80.73874633 L192.499894,80.25163759 L193.6153792,79.78213519 L194.7308644,79.32730474 L195.8463496,78.88421185 L196.9618348,78.4587253 L198.07732,78.04497631 L199.1928052,77.64589927 L200.3082904,77.26149418 L201.4237756,76.89176104 L202.5392608,76.53376546 L203.654746,76.19044183 L204.7702312,75.86179015 L205.8857164,75.54487603 L207.0012016,75.24263386 L208.1166868,74.95212925 L209.232172,74.67629659 L210.3476572,74.41220149 L211.4631424,74.16277834 L212.5786276,73.92509275 L213.6941128,73.70207911 L214.809598,73.49080303 L215.9250832,73.29126451 L217.0405684,73.10346355 L218.1560536,72.93033454 L219.2715388,72.77187748 L220.387024,72.62222359 L221.5025092,72.48724165 L222.6179944,72.36399727 L223.7334796,72.25249045 L224.8489648,72.15272119 L225.96445,72.06762388 L227.0799352,71.99426413 L228.1954204,71.93264194 L229.3109056,71.88275731 L230.4263908,71.84754463 L231.541876,71.82113512 L232.6573612,71.80939756 L233.7728464,71.80939756 L234.8883316,71.82406951 L236.0038168,71.84754463 L237.119302,71.8856917 L238.2347872,71.93264194 L239.3502724,71.99426413 L240.4657576,72.06762388 L241.5812428,72.15565558 L242.696728,72.25249045 L243.8122132,72.36399727 L244.9276984,72.48724165 L246.0431836,72.62515798 L247.1586688,72.77187748 L248.274154,72.93326893 L249.3896392,73.10639794 L250.5051244,73.2941989 L251.6206096,73.49080303 L252.7360948,73.70207911 L253.85158,73.92802714 L254.9670652,74.16571273 L256.0825504,74.41513588 L257.1980356,74.67923098 L258.3135208,74.95506364 L259.429006,75.24556825 L260.5444912,75.54781042 L261.6599764,75.86472454 L262.7754616,76.19337622 L263.8909468,76.53669985 L265.006432,76.89469543 L266.1219172,77.26442857 L267.2374024,77.64883366 L268.3528876,78.0479107 L269.4683728,78.46165969 L270.583858,78.89008063 L271.6993432,79.33023913 L272.8148284,79.78800397 L273.9303136,80.25750637 L275.0457988,80.74461511 L276.161284,81.24346141 L277.2767692,81.75991405 L278.3922544,82.29103864 L279.5077396,82.83976957 L280.6232248,83.40023806 L281.73871,83.97831289 L282.8541952,84.57399406 L283.9696804,85.18434718 L285.0851656,85.81230664 L286.2006508,86.45787244 L287.316136,87.11811019 L288.4316212,87.79888867 L289.5471064,88.4943391 L290.6625916,89.20739587 L291.7780768,89.94099337 L292.893562,90.68926282 L294.0090472,91.46100739 L295.1245324,92.24742391 L296.2400176,93.05438116 L297.3555028,93.88187914 L298.470988,94.72991785 L299.5864732,95.5955629 L300.7019584,96.48468307 L301.8174436,97.39434397 L302.9329288,98.3245456 L304.048414,99.27528796 L305.1638992,100.25243983 L306.2793844,101.25013243 L307.3948696,102.27130015 L308.5103548,103.31594299 L309.62584,104.38406095 L310.7413252,105.47858842 L311.8568104,106.59659101 L312.9722956,107.74100311 L314.0877808,108.91475911 L315.203266,110.11199023 L316.3187512,111.33856525 L317.4342364,112.59448417 L318.5497216,113.87974699 L319.6652068,115.19435371 L320.780692,116.54123872 L321.8961772,117.91746763 L323.0116624,119.32597483 L324.1271476,120.76969471 L325.2426328,122.24862727 L326.358118,123.76277251 L327.4736032,125.31213043 L328.5890884,126.89963542 L329.7045736,128.52528748 L330.8200588,130.192021 L331.935544,131.89983598 L333.0510292,133.64873242 L334.1665144,135.4445791 L335.2819996,137.28444163 L336.3974848,139.1712544 L337.51297,141.1079518 L338.6284552,143.09453383 L339.7439404,145.13393488 L340.8594256,147.22908934 L341.9749108,149.3829316 L343.090396,151.59252727 L344.2058812,153.86667952 L345.3213664,156.20245396 L346.4368516,158.60865376 L347.5523368,161.08234453 L348.667822,163.63232944 L349.7833072,166.2556741 L350.8987924,168.96411607 L352.0142776,171.75472096 L353.1297628,174.63629194 L354.245248,177.60882901 L355.3607332,180.68113534 L356.4762184,183.85907971 L357.5917036,187.1485309 L358.7071888,190.55535769 L359.822674,194.08542886 L360.9381592,197.74754758 L362.0536444,201.55051702 L363.1691296,205.50314035 L364.2846148,209.62008952 L365.4001,213.9101677 L366.5155852,209.63769586 L367.6310704,205.53541864 L368.7465556,201.59746726 L369.8620408,197.80623538 L370.977526,194.15878861 L372.0930112,190.640455 L373.2084964,187.24830016 L374.3239816,183.97058653 L375.4394668,180.80437972 L376.554952,177.74087656 L377.6704372,174.77420827 L378.7859224,171.90437485 L379.9014076,169.12257313 L381.0168928,166.42586872 L382.132378,163.80839284 L383.2478632,161.2672111 L384.3633484,158.79938911 L385.4788336,156.40199248 L386.5943188,154.07208682 L387.709804,151.80673774 L388.8252892,149.60301085 L389.9407744,147.45797176 L391.0562596,145.36868608 L392.1717448,143.33515381 L393.28723,141.35444056 L394.4027152,139.42361194 L395.5182004,137.53973356 L396.6336856,135.70573981 L397.7491708,133.9186963 L398.864656,132.17273425 L399.9801412,130.47078805 L401.0956264,128.80992331 L402.2111116,127.19014003 L403.3265968,125.60556943 L404.442082,124.06208029 L405.5575672,122.55380383 L406.6730524,121.08074005 L407.7885376,119.64288895 L408.9040228,118.23731614 L410.019508,116.86402162 L411.1349932,115.52300539 L412.2504784,114.21133306 L413.3659636,112.93193902 L414.4814488,111.68188888 L415.596934,110.45824825 L416.7124192,109.26395152 L417.8279044,108.0960643 L418.9433896,106.95752098 L420.0588748,105.84245278 L421.17436,104.7508597 L422.2898452,103.68567613 L423.4053304,102.64690207 L424.5208156,101.62866874 L425.6363008,100.63684492 L426.751786,99.66556183 L427.8672712,98.71775386 L428.9827564,97.79048662 L430.0982416,96.8866945 L431.2137268,96.00050872 L432.329212,95.13779806 L433.4446972,94.29562813 L434.5601824,93.47106454 L435.6756676,92.66997607 L436.7911528,91.88355955 L437.906638,91.12061815 L439.0221232,90.3723487 L440.1376084,89.64461998 L441.2530936,88.9344976 L442.3685788,88.24198156 L443.484064,87.56707186 L444.5995492,86.9097685 L445.7150344,86.27007148 L446.8305196,85.6479808 L447.9460048,85.04056207 L449.06149,84.44781529 L450.1769752,83.87560924 L451.2924604,83.31514075 L452.4079456,82.7722786 L453.5234308,82.24702279 L454.638916,81.73350454 L455.7544012,81.23759263 L456.8698864,80.75635267 L457.9853716,80.28978466 L459.1008568,79.8378886 L460.216342,79.40066449 L461.3318272,78.97517794 L462.4473124,78.56729773 L463.5627976,78.17408947 L464.6782828,77.79261877 L465.793768,77.42582002 L466.9092532,77.07369322 L468.0247384,76.73330398 L469.1402236,76.41052108 L470.2557088,76.09654135 L471.371194,75.80016796 L472.4866792,75.51259774 L473.6021644,75.24263386 L474.7176496,74.98147315 L475.8331348,74.73791878 L476.94862,74.50316758 L478.0641052,74.28308833 L479.1795904,74.07768103 L480.2950756,73.88401129 L481.4105608,73.70207911 L482.526046,73.53188449 L483.6415312,73.37636182 L484.7570164,73.23257671 L485.8725016,73.10346355 L486.9879868,72.98315356 L488.103472,72.87751552 L489.2189572,72.78361504 L490.3344424,72.70438651 L491.4499276,72.63396115 L492.5654128,72.57820774 L493.680898,72.53419189 L494.7963832,72.5019136 L495.9118684,72.48430726 L497.0273536,72.47843848 L498.1428388,72.48137287 L499.258324,72.49897921 L500.3738092,72.5312575 L501.4892944,72.57233896 L502.6047796,72.62809237 L503.7202648,72.69558334 L504.83575,72.77481187 L505.9512352,72.86577796 L507.0667204,72.971416 L508.1822056,73.0887916 L509.2976908,73.21790476 L510.413176,73.35875548 L511.5286612,73.51427815 L512.6441464,73.68153838 L513.7596316,73.86053617 L514.8751168,74.05420591 L515.990602,74.25961321 L517.1060872,74.47969246 L518.2215724,74.70857488 L519.3370576,74.95506364 L520.4525428,75.21035557 L521.568028,75.48031945 L522.6835132,75.76495528 L523.7989984,76.06132867 L524.9144836,76.37237401 L526.0299688,76.69515691 L527.145454,77.03261176 L528.2609392,77.38473856 L529.3764244,77.74860292 L530.4919096,78.13007362 L531.6073948,78.52034749 L532.72288,78.9282277 L533.8383652,79.35077986 L534.9538504,79.78506958 L536.0693356,80.23696564 L537.1848208,80.70059926 L538.300306,81.18183922 L539.4157912,81.67481674 L540.5312764,82.1854006 L541.6467616,82.71065641 L542.7622468,83.25351856 L543.877732,83.80811827 L544.9932172,84.38325871 L546.1087024,84.97013671 L547.2241876,85.57462105 L548.3396728,86.19671173 L549.455158,86.83640875 L550.5706432,87.49077772 L551.6861284,88.16568742 L552.8016136,88.85526907 L553.9170988,89.56245706 L555.032584,90.28725139 L556.1480692,91.03258645 L557.2635544,91.79552785 L558.3790396,92.57900998 L559.4945248,93.38009845 L560.61001,94.19879326 L561.7254952,95.04096319 L562.8409804,95.90073946 L563.9564656,96.78399085 L565.0719508,97.68484858 L566.187436,98.60918143 L567.3029212,99.55405501 L568.4184064,100.52240371 L569.5338916,101.51422753 L570.6493768,102.52952647 L571.764862,103.56536614 L572.8803472,104.62761532 L573.9958324,105.71627401 L575.1113176,106.82840782 L576.2268028,107.96401675 L577.342288,109.12896958 L578.4577732,110.32033192 L579.5732584,111.54103816 L580.6887436,112.78815391 L581.8042288,114.06461356 L582.919714,115.37041711 L584.0351992,116.70849895 L585.1506844,118.07885908 L586.2661696,119.47856311 L587.3816548,120.91347982 L588.49714,122.38360921 L589.6126252,123.88601689 L590.7281104,125.42657164 L591.8435956,127.00527346 L592.9590808,128.62212235 L594.074566,130.2800527 L595.1900512,131.97613012 L596.3055364,133.71622339 L597.4210216,135.50033251 L598.5365068,137.32845748 L599.651992,139.20646708 L600.7674772,141.13142692 L601.8829624,143.10627139 L602.9984476,145.13393488 L604.1139328,147.21441739 L605.229418,149.3535877 L606.3449032,151.55144581 L607.4603884,153.81092611 L608.5758736,156.1320286 L609.6913588,158.52355645 L610.806844,160.98257527 L611.9223292,163.51495384 L613.0378144,166.12362655 L614.1532996,168.81152779 L615.2687848,171.58452634 L616.38427,174.44555659 L617.4997552,177.39755293 L618.6152404,180.44931853 L619.7307256,183.60378778 L620.8462108,186.86976385 L621.961696,190.25018113 L623.0771812,193.75384279 L624.1926664,197.38661761 L625.3081516,201.16024315 L626.4236368,205.08058819 L627.539122,209.16232468 L628.6546072,213.41719018 L629.7700924,217.85105347 L630.8855776,222.48738967 L632.0010628,227.33793634 L633.116548,232.42029982 L634.2320332,237.75795523 L635.3475184,243.37437769 L636.4630036,249.29597671 L637.5784888,255.55796497 L638.693974,262.19555515 L639.8094592,269.2527631 L640.9249444,276.78240784 L642.0404296,284.84611156 L643.1559148,293.52310279 L644.2714,302.90434762 " fill-rule="evenodd" vector-effect="non-scaling-stroke"/>
                        </g>
                    </g>
                </g>
                <g id="PlotDataItem_4">
                    <g fill="none" fill-rule="evenodd" id="PlotCurveItem_4" stroke="black" stroke-linecap="square" stroke-linejoin="bevel" stroke-width="1">
                        <g fill="none" font-family="MS Shell Dlg 2" font-size="11" font-style="normal" font-weight="400" stroke="#8a7c91" stroke-linecap="square" stroke-linejoin="bevel" stroke-opacity="1" stroke-width="1.5">
                            <path d="M86.528800093,293.88696715 L87.6442852,282.94169245 L88.7597704,272.93542255 L89.8752556,263.72437234 L90.9907408,255.197035 L92.106226,247.26537883 L93.2217112,239.8501753 L94.3371964,232.895671 L95.4526816,226.3519813 L96.5681668,220.17509035 L97.683652,214.32978547 L98.7991372,208.78378837 L99.9146224,203.51362393 L101.0301076,198.48994825 L102.1455928,193.69515499 L103.261078,189.1145722 L104.3765632,184.72765915 L105.4920484,180.52267828 L106.6075336,176.48495764 L107.7230188,172.60275967 L108.838504,168.87021559 L109.9539892,165.27558784 L111.0694744,161.80713886 L112.1849596,158.46193426 L113.3004448,155.23117087 L114.41593,152.10897991 L115.5314152,149.08655821 L116.6469004,146.16390577 L117.7623856,143.33221942 L118.8778708,140.58856477 L119.993356,137.92707304 L121.1088412,135.34774423 L122.2243264,132.84177517 L123.3398116,130.40916586 L124.4552968,128.04404752 L125.570782,125.74642015 L126.6862672,123.51041497 L127.8017524,121.33896637 L128.9172376,119.22327118 L130.0327228,117.1633294 L131.148208,115.15914103 L132.2636932,113.20777168 L133.3791784,111.30335257 L134.4946636,109.45175248 L135.6101488,107.64416824 L136.725634,105.88353424 L137.8411192,104.1639817 L138.9566044,102.48844501 L140.0720896,100.85398978 L141.1875748,99.26061601 L142.30306,97.70245492 L143.4185452,96.18537529 L144.5340304,94.70057395 L145.6495156,93.25391968 L146.7650008,91.8395437 L147.880486,90.4603804 L148.9959712,89.11349539 L150.1114564,87.79888867 L151.2269416,86.51362585 L152.3424268,85.25770693 L153.457912,84.03113191 L154.5733972,82.83390079 L155.6888824,81.66307918 L156.8043676,80.52160147 L157.9198528,79.40653327 L159.035338,78.31494019 L160.1508232,77.25269101 L161.2663084,76.21098256 L162.3817936,75.19568362 L163.4972788,74.2038598 L164.612764,73.23844549 L165.7282492,72.29063752 L166.8437344,71.36923906 L167.9592196,70.46838133 L169.0747048,69.58806433 L170.19019,68.73122245 L171.3056752,67.8949213 L172.4211604,67.07622649 L173.5366456,66.2810068 L174.6521308,65.50339345 L175.767616,64.74632083 L176.8831012,64.00685455 L177.9985864,63.287929 L179.1140716,62.58660979 L180.2295568,61.90583131 L181.345042,61.23972478 L182.4605272,60.59415898 L183.5760124,59.96326513 L184.6914976,59.35291201 L185.8069828,58.75723084 L186.922468,58.17915601 L188.0379532,57.61868752 L189.1534384,57.07289098 L190.2689236,56.54470078 L191.3844088,56.03118253 L192.499894,55.53233623 L193.6153792,55.05109627 L194.7308644,54.58746265 L195.8463496,54.13556659 L196.9618348,53.70127687 L198.07732,53.27872471 L199.1928052,52.87377889 L200.3082904,52.48350502 L201.4237756,52.1079031 L202.5392608,51.74697313 L203.654746,51.39778072 L204.7702312,51.06619465 L205.8857164,50.74634614 L207.0012016,50.44116958 L208.1166868,50.15066497 L209.232172,49.87483231 L210.3476572,49.6136716 L211.4631424,49.36424845 L212.5786276,49.12656286 L213.6941128,48.90648361 L214.809598,48.69814192 L215.9250832,48.50153779 L217.0405684,48.31960561 L218.1560536,48.15234538 L219.2715388,47.99682271 L220.387024,47.85597199 L221.5025092,47.72685883 L222.6179944,47.61241762 L223.7334796,47.50971397 L224.8489648,47.41874788 L225.96445,47.34245374 L227.0799352,47.28083155 L228.1954204,47.23094692 L229.3109056,47.19279985 L230.4263908,47.16932473 L231.541876,47.15758717 L232.6573612,47.16052156 L233.7728464,47.17519351 L234.8883316,47.20160302 L236.0038168,47.24268448 L237.119302,47.2955035 L238.2347872,47.36299447 L239.3502724,47.442223 L240.4657576,47.53612348 L241.5812428,47.64176152 L242.696728,47.76207151 L243.8122132,47.89411906 L244.9276984,48.03790417 L246.0431836,48.19636123 L247.1586688,48.36949024 L248.274154,48.55435681 L249.3896392,48.75389533 L250.5051244,48.96517141 L251.6206096,49.19111944 L252.7360948,49.43173942 L253.85158,49.68409696 L254.9670652,49.95112645 L256.0825504,50.2298935 L257.1980356,50.52626689 L258.3135208,50.83437784 L259.429006,51.15716074 L260.5444912,51.4916812 L261.6599764,51.843808 L262.7754616,52.21060675 L263.8909468,52.58914306 L265.006432,52.98528571 L266.1219172,53.39316592 L267.2374024,53.81865247 L268.3528876,54.25881097 L269.4683728,54.71364142 L270.583858,55.18314382 L271.6993432,55.67025256 L272.8148284,56.17203325 L273.9303136,56.68848589 L275.0457988,57.22254487 L276.161284,57.7712758 L277.2767692,58.33761307 L278.3922544,58.92155668 L279.5077396,59.52017224 L280.6232248,60.13639414 L281.73871,60.77315677 L282.8541952,61.42459135 L283.9696804,62.09363227 L285.0851656,62.78027953 L286.2006508,63.48746752 L287.316136,64.21226185 L288.4316212,64.95466252 L289.5471064,65.71760392 L290.6625916,66.50108605 L291.7780768,67.30217452 L292.893562,68.12673811 L294.0090472,68.96890804 L295.1245324,69.83455309 L296.2400176,70.71780448 L297.3555028,71.62453099 L298.470988,72.55473262 L299.5864732,73.50547498 L300.7019584,74.48262685 L301.8174436,75.48031945 L302.9329288,76.50148717 L304.048414,77.5490644 L305.1638992,78.62011675 L306.2793844,79.71757861 L307.3948696,80.84144998 L308.5103548,81.99173086 L309.62584,83.17135564 L310.7413252,84.37445554 L311.8568104,85.60983373 L312.9722956,86.87455582 L314.0877808,88.16862181 L315.203266,89.49496609 L316.3187512,90.85065427 L317.4342364,92.24155513 L318.5497216,93.66473428 L319.6652068,95.12019172 L320.780692,96.61379623 L321.8961772,98.14554781 L323.0116624,99.71251207 L324.1271476,101.32055779 L325.2426328,102.96675058 L326.358118,104.65402483 L327.4736032,106.38531493 L328.5890884,108.16062088 L329.7045736,109.97994268 L330.8200588,111.84914911 L331.935544,113.76530578 L333.0510292,115.73428147 L334.1665144,117.75607618 L335.2819996,119.83068991 L336.3974848,121.96399144 L337.51297,124.15598077 L338.6284552,126.4066579 L339.7439404,128.724826 L340.8594256,131.11048507 L341.9749108,133.5665695 L343.090396,136.09307929 L344.2058812,138.69881761 L345.3213664,141.38378446 L346.4368516,144.15678301 L347.5523368,147.01487887 L348.667822,149.96687521 L349.7833072,153.01864081 L350.8987924,156.17311006 L352.0142776,159.43908613 L353.1297628,162.8224378 L354.245248,166.32609946 L355.3607332,169.96474306 L356.4762184,173.74130299 L357.5917036,177.6704512 L358.7071888,181.75805647 L359.822674,186.01879075 L360.9381592,190.4643916 L362.0536444,195.10953097 L363.1691296,199.9718152 L364.2846148,205.06885063 L365.4001,210.42411238 L366.5155852,205.09232575 L367.6310704,200.01289666 L368.7465556,195.16821877 L369.8620408,190.54068574 L370.977526,186.10975684 L372.0930112,181.86369451 L373.2084964,177.7878268 L374.3239816,173.87335054 L375.4394668,170.10852817 L376.554952,166.48162213 L377.6704372,162.98676364 L378.7859224,159.61514953 L379.9014076,156.36091102 L381.0168928,153.21524494 L382.132378,150.17228251 L383.2478632,147.22908934 L384.3633484,144.37686226 L385.4788336,141.61560127 L386.5943188,138.9365032 L387.709804,136.33956805 L388.8252892,133.81892704 L389.9407744,131.37164578 L391.0562596,128.99185549 L392.1717448,126.67955617 L393.28723,124.43474782 L394.4027152,122.24862727 L395.5182004,120.12119452 L396.6336856,118.05244957 L397.7491708,116.03652364 L398.864656,114.07635112 L399.9801412,112.16312884 L401.0956264,110.29979119 L402.2111116,108.48633817 L403.3265968,106.71396661 L404.442082,104.98854529 L405.5575672,103.30713982 L406.6730524,101.66388142 L407.7885376,100.06170448 L408.9040228,98.500609 L410.019508,96.9747262 L411.1349932,95.48699047 L412.2504784,94.03153303 L413.3659636,92.61422266 L414.4814488,91.22919058 L415.596934,89.87643679 L416.7124192,88.55596129 L417.8279044,87.26482969 L418.9433896,86.00597638 L420.0588748,84.77646697 L421.17436,83.57336707 L422.2898452,82.39961107 L423.4053304,81.25519897 L424.5208156,80.13426199 L425.6363008,79.04266891 L426.751786,77.97455095 L427.8672712,76.9328425 L428.9827564,75.91460917 L430.0982416,74.91985096 L431.2137268,73.94856787 L432.329212,73.0007599 L433.4446972,72.07642705 L434.5601824,71.17263493 L435.6756676,70.29231793 L436.7911528,69.43254166 L437.906638,68.59330612 L439.0221232,67.77461131 L440.1376084,66.97645723 L441.2530936,66.19590949 L442.3685788,65.43883687 L443.484064,64.69937059 L444.5995492,63.97751065 L445.7150344,63.27619144 L446.8305196,62.59247857 L447.9460048,61.92637204 L449.06149,61.27787185 L450.1769752,60.64991239 L451.2924604,60.03662488 L452.4079456,59.44094371 L453.5234308,58.85993449 L454.638916,58.299466 L455.7544012,57.75366946 L456.8698864,57.22547926 L457.9853716,56.71196101 L459.1008568,56.21311471 L460.216342,55.73187475 L461.3318272,55.26530674 L462.4473124,54.81634507 L463.5627976,54.37912096 L464.6782828,53.95950319 L465.793768,53.55455737 L466.9092532,53.1642835 L468.0247384,52.78868158 L469.1402236,52.42775161 L470.2557088,52.08149359 L471.371194,51.74990752 L472.4866792,51.43005901 L473.6021644,51.12781684 L474.7176496,50.83731223 L475.8331348,50.56147957 L476.94862,50.30031886 L478.0641052,50.05089571 L479.1795904,49.81614451 L480.2950756,49.59606526 L481.4105608,49.38772357 L482.526046,49.19405383 L483.6415312,49.01505604 L484.7570164,48.84779581 L485.8725016,48.69520753 L486.9879868,48.55435681 L488.103472,48.42817804 L489.2189572,48.31373683 L490.3344424,48.21396757 L491.4499276,48.12593587 L492.5654128,48.04964173 L493.680898,47.98801954 L494.7963832,47.9410693 L495.9118684,47.90585662 L497.0273536,47.88531589 L498.1428388,47.87357833 L499.258324,47.87944711 L500.3738092,47.89705345 L501.4892944,47.92639735 L502.6047796,47.9704132 L503.7202648,48.02616661 L504.83575,48.09365758 L505.9512352,48.17875489 L507.0667204,48.27265537 L508.1822056,48.3812278 L509.2976908,48.50447218 L510.413176,48.63945412 L511.5286612,48.78617362 L512.6441464,48.95049946 L513.7596316,49.12362847 L514.8751168,49.31436382 L515.990602,49.51390234 L517.1060872,49.7310472 L518.2215724,49.95992962 L519.3370576,50.20348399 L520.4525428,50.45877592 L521.568028,50.7287398 L522.6835132,51.01337563 L523.7989984,51.31268341 L524.9144836,51.62372875 L526.0299688,51.95238043 L527.145454,52.29276967 L528.2609392,52.64783086 L529.3764244,53.017564 L530.4919096,53.40196909 L531.6073948,53.80104613 L532.72288,54.21772951 L533.8383652,54.64615045 L534.9538504,55.09217773 L536.0693356,55.54994257 L537.1848208,56.02531375 L538.300306,56.51829127 L539.4157912,57.02300635 L540.5312764,57.54826216 L541.6467616,58.08525553 L542.7622468,58.64278963 L543.877732,59.21499568 L544.9932172,59.80187368 L546.1087024,60.40929241 L547.2241876,61.03138309 L548.3396728,61.6740145 L549.455158,62.33131786 L550.5706432,63.00916195 L551.6861284,63.70461238 L552.8016136,64.41766915 L553.9170988,65.14833226 L555.032584,65.8995361 L556.1480692,66.67128067 L557.2635544,67.46063158 L558.3790396,68.27052322 L559.4945248,69.10095559 L560.61001,69.95486308 L561.7254952,70.82637691 L562.8409804,71.72136586 L563.9564656,72.63689554 L565.0719508,73.57590034 L566.187436,74.53838026 L567.3029212,75.52140091 L568.4184064,76.53083107 L569.5338916,77.56373635 L570.6493768,78.62011675 L571.764862,79.70290666 L572.8803472,80.81210608 L573.9958324,81.94771501 L575.1113176,83.10973345 L576.2268028,84.30109579 L577.342288,85.51886764 L578.4577732,86.76598339 L579.5732584,88.04537743 L580.6887436,89.35118098 L581.8042288,90.69219721 L582.919714,92.06255734 L584.0351992,93.46813015 L585.1506844,94.90891564 L586.2661696,96.38197942 L587.3816548,97.89319027 L588.49714,99.4396138 L589.6126252,101.0241844 L590.7281104,102.64983646 L591.8435956,104.31656998 L592.9590808,106.02438496 L594.074566,107.77621579 L595.1900512,109.57206247 L596.3055364,111.41779378 L597.4210216,113.30754094 L598.5365068,115.25010712 L599.651992,117.24255793 L600.7674772,119.28782776 L601.8829624,121.39178539 L602.9984476,123.55149643 L604.1139328,125.77282966 L605.229418,128.05871947 L606.3449032,130.40916586 L607.4603884,132.82710322 L608.5758736,135.31840033 L609.6913588,137.88305719 L610.806844,140.52694258 L611.9223292,143.25299089 L613.0378144,146.0670709 L614.1532996,148.972117 L615.2687848,151.97399797 L616.38427,155.0756482 L617.4997552,158.28293647 L618.6152404,161.60760034 L619.7307256,165.04963981 L620.8462108,168.62079244 L621.961696,172.32692701 L623.0771812,176.17684669 L624.1926664,180.18228904 L625.3081516,184.35499162 L626.4236368,188.70669199 L627.539122,193.2520621 L628.6546072,198.00283951 L629.7700924,202.98249934 L630.8855776,208.20571354 L632.0010628,213.69889162 L633.116548,219.4855087 L634.2320332,225.59784307 L635.3475184,232.06817302 L636.4630036,238.94344879 L637.5784888,246.26768623 L638.693974,254.09957314 L639.8094592,262.51246927 L640.9249444,271.58853754 L642.0404296,281.43928477 L643.1559148,292.19675851 L644.2714,304.03995655 " fill-rule="evenodd" vector-effect="non-scaling-stroke"/>
                        </g>
                    </g>
                </g>
                <g id="PlotDataItem_5"/>
                <g id="PlotDataItem_6"/>
                <g id="PlotDataItem_7"/>
                <g id="PlotDataItem_8"/>
                <g id="PlotDataItem_9"/>
            </g>
            <g fill="none" fill-rule="evenodd" id="LegendItem_1" stroke="black" stroke-linecap="square" stroke-linejoin="bevel" stroke-width="1">
                <g fill="#646464" fill-opacity="0.196078" font-family="MS Shell Dlg 2" font-size="11" font-style="normal" font-weight="400" stroke="#ffffff" stroke-linecap="square" stroke-linejoin="bevel" stroke-opacity="0.392157" stroke-width="1">
                    <path d="M92.8,61.0 L187.8,61.0 L187.8,262.0 L92.8,262.0 L92.8,61.0 " fill-rule="evenodd" vector-effect="non-scaling-stroke"/>
                </g>
                <g fill="none" fill-rule="evenodd" id="ItemSample_1" stroke="black" stroke-linecap="square" stroke-linejoin="bevel" stroke-width="1">
                    <g fill="none" font-family="MS Shell Dlg 2" font-size="11" font-style="normal" font-weight="400" stroke="#ed815e" stroke-linecap="square" stroke-linejoin="bevel" stroke-opacity="1" stroke-width="1.5">
                        <polyline fill="none" points="103.8,88.0 119.8,72.0" vector-effect="non-scaling-stroke"/>
                    </g>
                </g>
                <g fill="none" fill-rule="evenodd" id="LabelItem_1" stroke="black" stroke-linecap="square" stroke-linejoin="bevel" stroke-width="1">
                    <g fill="none" fill-rule="evenodd" id="QGraphicsTextItem_3" stroke="black" stroke-linecap="square" stroke-linejoin="bevel" stroke-width="1">
                        


                        


                        <g fill="none" font-family="MS Shell Dlg 2" font-size="11" font-style="normal" font-weight="400" stroke="#969696" stroke-linecap="square" stroke-linejoin="bevel" stroke-opacity="1" stroke-width="1" transform="matrix(1,0,0,1,134.3,70)">
                            <text fill="#969696" fill-opacity="1" font-family="&quot;MS Shell Dlg 2&quot;, sans-serif" font-size="11" font-style="normal" font-weight="400" stroke="none" x="4" xml:space="preserve" y="15">H2</text>
                        </g>
                        


                        

                    </g>
                </g>
                <g fill="none" fill-rule="evenodd" id="ItemSample_2" stroke="black" stroke-linecap="square" stroke-linejoin="bevel" stroke-width="1">
                    <g fill="none" font-family="MS Shell Dlg 2" font-size="11" font-style="normal" font-weight="400" stroke="#c7b069" stroke-linecap="square" stroke-linejoin="bevel" stroke-opacity="1" stroke-width="1.5">
                        <polyline fill="none" points="103.8,115.0 119.8,99.0" vector-effect="non-scaling-stroke"/>
                    </g>
                </g>
                <g fill="none" fill-rule="evenodd" id="LabelItem_2" stroke="black" stroke-linecap="square" stroke-linejoin="bevel" stroke-width="1">
                    <g fill="none" fill-rule="evenodd" id="QGraphicsTextItem_4" stroke="black" stroke-linecap="square" stroke-linejoin="bevel" stroke-width="1">
                        


                        


                        <g fill="none" font-family="MS Shell Dlg 2" font-size="11" font-style="normal" font-weight="400" stroke="#969696" stroke-linecap="square" stroke-linejoin="bevel" stroke-opacity="1" stroke-width="1" transform="matrix(1,0,0,1,130.8,97)">
                            <text fill="#969696" fill-opacity="1" font-family="&quot;MS Shell Dlg 2&quot;, sans-serif" font-size="11" font-style="normal" font-weight="400" stroke="none" x="4" xml:space="preserve" y="15">CH4</text>
                        </g>
                        


                        

                    </g>
                </g>
                <g fill="none" fill-rule="evenodd" id="ItemSample_3" stroke="black" stroke-linecap="square" stroke-linejoin="bevel" stroke-width="1">
                    <g fill="none" font-family="MS Shell Dlg 2" font-size="11" font-style="normal" font-weight="400" stroke="#7ea695" stroke-linecap="square" stroke-linejoin="bevel" stroke-opacity="1" stroke-width="1.5">
                        <polyline fill="none" points="103.8,142.0 119.8,126.0" vector-effect="non-scaling-stroke"/>
                    </g>
                </g>
                <g fill="none" fill-rule="evenodd" id="LabelItem_3" stroke="black" stroke-linecap="square" stroke-linejoin="bevel" stroke-width="1">
                    <g fill="none" fill-rule="evenodd" id="QGraphicsTextItem_5" stroke="black" stroke-linecap="square" stroke-linejoin="bevel" stroke-width="1">
                        


                        


                        <g fill="none" font-family="MS Shell Dlg 2" font-size="11" font-style="normal" font-weight="400" stroke="#969696" stroke-linecap="square" stroke-linejoin="bevel" stroke-opacity="1" stroke-width="1" transform="matrix(1,0,0,1,133.3,124)">
                            <text fill="#969696" fill-opacity="1" font-family="&quot;MS Shell Dlg 2&quot;, sans-serif" font-size="11" font-style="normal" font-weight="400" stroke="none" x="4" xml:space="preserve" y="15">CO</text>
                        </g>
                        


                        

                    </g>
                </g>
                <g fill="none" fill-rule="evenodd" id="ItemSample_4" stroke="black" stroke-linecap="square" stroke-linejoin="bevel" stroke-width="1">
                    <g fill="none" font-family="MS Shell Dlg 2" font-size="11" font-style="normal" font-weight="400" stroke="#8a7c91" stroke-linecap="square" stroke-linejoin="bevel" stroke-opacity="1" stroke-width="1.5">
                        <polyline fill="none" points="103.8,169.0 119.8,153.0" vector-effect="non-scaling-stroke"/>
                    </g>
                </g>
                <g fill="none" fill-rule="evenodd" id="LabelItem_4" stroke="black" stroke-linecap="square" stroke-linejoin="bevel" stroke-width="1">
                    <g fill="none" fill-rule="evenodd" id="QGraphicsTextItem_6" stroke="black" stroke-linecap="square" stroke-linejoin="bevel" stroke-width="1">
                        


                        


                        <g fill="none" font-family="MS Shell Dlg 2" font-size="11" font-style="normal" font-weight="400" stroke="#969696" stroke-linecap="square" stroke-linejoin="bevel" stroke-opacity="1" stroke-width="1" transform="matrix(1,0,0,1,130.3,151)">
                            <text fill="#969696" fill-opacity="1" font-family="&quot;MS Shell Dlg 2&quot;, sans-serif" font-size="11" font-style="normal" font-weight="400" stroke="none" x="4" xml:space="preserve" y="15">CO2</text>
                        </g>
                        


                        

                    </g>
                </g>
                <g fill="none" fill-rule="evenodd" id="ItemSample_5" stroke="black" stroke-linecap="square" stroke-linejoin="bevel" stroke-width="1">
                    <g fill="none" font-family="MS Shell Dlg 2" font-size="11" font-style="normal" font-weight="400" stroke="#ff2e70" stroke-linecap="square" stroke-linejoin="bevel" stroke-opacity="1" stroke-width="2">
                        <polyline fill="none" points="103.8,196.0 119.8,180.0" vector-effect="non-scaling-stroke"/>
                    </g>
                </g>
                <g fill="none" fill-rule="evenodd" id="LabelItem_5" stroke="black" stroke-linecap="square" stroke-linejoin="bevel" stroke-width="1">
                    <g fill="none" fill-rule="evenodd" id="QGraphicsTextItem_7" stroke="black" stroke-linecap="square" stroke-linejoin="bevel" stroke-width="1">
                        


                        


                        <g fill="none" font-family="MS Shell Dlg 2" font-size="11" font-style="normal" font-weight="400" stroke="#969696" stroke-linecap="square" stroke-linejoin="bevel" stroke-opacity="1" stroke-width="1" transform="matrix(1,0,0,1,110.8,178)">
                            <text fill="#969696" fill-opacity="1" font-family="&quot;MS Shell Dlg 2&quot;, sans-serif" font-size="11" font-style="normal" font-weight="400" stroke="none" x="4" xml:space="preserve" y="15">total density</text>
                        </g>
                        


                        

                    </g>
                </g>
                <g fill="none" fill-rule="evenodd" id="ItemSample_6" stroke="black" stroke-linecap="square" stroke-linejoin="bevel" stroke-width="1">
                    <g fill="none" font-family="MS Shell Dlg 2" font-size="11" font-style="normal" font-weight="400" stroke="none">
                        <polyline fill="none" points="103.8,223.0 119.8,207.0" vector-effect="non-scaling-stroke"/>
                    </g>
                    <g fill="#0000ff" fill-opacity="0.588235" font-family="MS Shell Dlg 2" font-size="11" font-style="normal" font-weight="400" stroke="#ffffff" stroke-linecap="square" stroke-linejoin="bevel" stroke-opacity="0.784314" stroke-width="1">
                        <path d="M114.3,215.0 C114.3,216.38071 113.18071,217.5 111.8,217.5 C110.41929,217.5 109.3,216.38071 109.3,215.0 C109.3,213.61929 110.41929,212.5 111.8,212.5 C113.18071,212.5 114.3,213.61929 114.3,215.0 " fill-rule="evenodd" vector-effect="non-scaling-stroke"/>
                    </g>
                </g>
                <g fill="none" fill-rule="evenodd" id="LabelItem_6" stroke="black" stroke-linecap="square" stroke-linejoin="bevel" stroke-width="1">
                    <g fill="none" fill-rule="evenodd" id="QGraphicsTextItem_8" stroke="black" stroke-linecap="square" stroke-linejoin="bevel" stroke-width="1">
                        


                        


                        <g fill="none" font-family="MS Shell Dlg 2" font-size="11" font-style="normal" font-weight="400" stroke="#969696" stroke-linecap="square" stroke-linejoin="bevel" stroke-opacity="1" stroke-width="1" transform="matrix(1,0,0,1,118.8,205)">
                            <text fill="#969696" fill-opacity="1" font-family="&quot;MS Shell Dlg 2&quot;, sans-serif" font-size="11" font-style="normal" font-weight="400" stroke="none" x="4" xml:space="preserve" y="15">LHC data</text>
                        </g>
                        


                        

                    </g>
                </g>
                <g fill="none" fill-rule="evenodd" id="ItemSample_7" stroke="black" stroke-linecap="square" stroke-linejoin="bevel" stroke-width="1">
                    <g fill="none" font-family="MS Shell Dlg 2" font-size="11" font-style="normal" font-weight="400" stroke="none">
                        <polyline fill="none" points="103.8,250.0 119.8,234.0" vector-effect="non-scaling-stroke"/>
                    </g>
                    <g fill="#0000ff" fill-opacity="0.588235" font-family="MS Shell Dlg 2" font-size="11" font-style="normal" font-weight="400" stroke="#ffffff" stroke-linecap="square" stroke-linejoin="bevel" stroke-opacity="0.784314" stroke-width="1">
                        <path d="M109.3,241.75 L109.3,242.25 L111.55,242.25 L111.55,244.5 L112.05,244.5 L112.05,242.25 L114.3,242.25 L114.3,241.75 L112.05,241.75 L112.05,239.5 L111.55,239.5 L111.55,241.75 L109.3,241.75 " fill-rule="evenodd" vector-effect="non-scaling-stroke"/>
                    </g>
                </g>
                <g fill="none" fill-rule="evenodd" id="LabelItem_7" stroke="black" stroke-linecap="square" stroke-linejoin="bevel" stroke-width="1">
                    <g fill="none" fill-rule="evenodd" id="QGraphicsTextItem_9" stroke="black" stroke-linecap="square" stroke-linejoin="bevel" stroke-width="1">
                        


                        


                        <g fill="none" font-family="MS Shell Dlg 2" font-size="11" font-style="normal" font-weight="400" stroke="#969696" stroke-linecap="square" stroke-linejoin="bevel" stroke-opacity="1" stroke-width="1" transform="matrix(1,0,0,1,118.8,232)">
                            <text fill="#969696" fill-opacity="1" font-family="&quot;MS Shell Dlg 2&quot;, sans-serif" font-size="11" font-style="normal" font-weight="400" stroke="none" x="4" xml:space="preserve" y="15">LHC data</text>
                        </g>
                        


                        

                    </g>
                </g>
            </g>
        </g>
    </g>
    <g fill="none" fill-rule="evenodd" id="LabelItem_8" stroke="black" stroke-linecap="square" stroke-linejoin="bevel" stroke-width="1">
        <g fill="none" fill-rule="evenodd" id="QGraphicsTextItem_10" stroke="black" stroke-linecap="square" stroke-linejoin="bevel" stroke-width="1">
            


            


            <g fill="none" font-family="MS Shell Dlg 2" font-size="11" font-style="normal" font-weight="400" stroke="#969696" stroke-linecap="square" stroke-linejoin="bevel" stroke-opacity="1" stroke-width="1" transform="matrix(1,0,0,1,323.4,3)">
                <text fill="#969696" fill-opacity="1" font-family="&quot;MS Shell Dlg 2&quot;, sans-serif" font-size="14.6667" font-style="normal" font-weight="400" stroke="none" x="4" xml:space="preserve" y="19">Density-Plot</text>
            </g>
            


            

        </g>
    </g>
</g>

</svg>
