<?xml version="1.0" encoding="UTF-8" standalone="no"?>
<svg xmlns="http://www.w3.org/2000/svg" xmlns:xlink="http://www.w3.org/1999/xlink"  version="1.2" baseProfile="tiny">
<title>pyqtgraph SVG export</title>
<desc>Generated with Qt and pyqtgraph</desc>
<defs>
</defs>
<g fill="none" fill-rule="evenodd" id="PlotItem_1" stroke="black" stroke-linecap="square" stroke-linejoin="bevel" stroke-width="1">
    <g fill="none" fill-rule="evenodd" id="AxisItem_1" stroke="black" stroke-linecap="square" stroke-linejoin="bevel" stroke-width="1">
        <g fill="none" font-family="MS Shell Dlg 2" font-size="11" font-style="normal" font-weight="400" stroke="#969696" stroke-linecap="square" stroke-linejoin="bevel" stroke-opacity="1" stroke-width="1">
            <polyline fill="none" points="64.8,335.2 668.0,335.2" vector-effect="non-scaling-stroke"/>
        </g>
        <g fill="none" font-family="MS Shell Dlg 2" font-size="11" font-style="normal" font-weight="400" stroke="#969696" stroke-linecap="square" stroke-linejoin="bevel" stroke-opacity="1" stroke-width="1">
            <polyline fill="none" points="88.6631,335.2 88.6631,330.2" vector-effect="non-scaling-stroke"/>
            <polyline fill="none" points="453.005,335.2 453.005,330.2" vector-effect="non-scaling-stroke"/>
        </g>
        <g fill="none" font-family="MS Shell Dlg 2" font-size="11" font-style="normal" font-weight="400" stroke="#969696" stroke-linecap="square" stroke-linejoin="bevel" stroke-opacity="0.498039" stroke-width="1">
            <polyline fill="none" points="270.834,335.2 270.834,331.86667" vector-effect="non-scaling-stroke"/>
            <polyline fill="none" points="635.176,335.2 635.176,331.86667" vector-effect="non-scaling-stroke"/>
        </g>
        <g fill="none" font-family="MS Shell Dlg 2" font-size="11" font-style="normal" font-weight="400" stroke="#969696" stroke-linecap="square" stroke-linejoin="bevel" stroke-opacity="0.333333" stroke-width="1">
            <polyline fill="none" points="125.0973,335.2 125.0973,332.7" vector-effect="non-scaling-stroke"/>
            <polyline fill="none" points="161.5315,335.2 161.5315,332.7" vector-effect="non-scaling-stroke"/>
            <polyline fill="none" points="197.966,335.2 197.966,332.7" vector-effect="non-scaling-stroke"/>
            <polyline fill="none" points="234.4,335.2 234.4,332.7" vector-effect="non-scaling-stroke"/>
            <polyline fill="none" points="307.268,335.2 307.268,332.7" vector-effect="non-scaling-stroke"/>
            <polyline fill="none" points="343.702,335.2 343.702,332.7" vector-effect="non-scaling-stroke"/>
            <polyline fill="none" points="380.137,335.2 380.137,332.7" vector-effect="non-scaling-stroke"/>
            <polyline fill="none" points="416.571,335.2 416.571,332.7" vector-effect="non-scaling-stroke"/>
            <polyline fill="none" points="489.439,335.2 489.439,332.7" vector-effect="non-scaling-stroke"/>
            <polyline fill="none" points="525.873,335.2 525.873,332.7" vector-effect="non-scaling-stroke"/>
            <polyline fill="none" points="562.308,335.2 562.308,332.7" vector-effect="non-scaling-stroke"/>
            <polyline fill="none" points="598.742,335.2 598.742,332.7" vector-effect="non-scaling-stroke"/>
        </g>
        <g fill="none" font-family="MS Shell Dlg 2" font-size="11" font-style="normal" font-weight="400" stroke="#969696" stroke-linecap="square" stroke-linejoin="bevel" stroke-opacity="1" stroke-width="1" transform="matrix(1,0,0,1,65.3,335.2)">
            <text fill="#969696" fill-opacity="1" font-family="&quot;MS Shell Dlg 2&quot;, sans-serif" font-size="11" font-style="normal" font-weight="400" stroke="none" x="20.3594" xml:space="preserve" y="12">0</text>
            <text fill="#969696" fill-opacity="1" font-family="&quot;MS Shell Dlg 2&quot;, sans-serif" font-size="11" font-style="normal" font-weight="400" stroke="none" x="381.703" xml:space="preserve" y="12">20</text>
            <text fill="#969696" fill-opacity="1" font-family="&quot;MS Shell Dlg 2&quot;, sans-serif" font-size="11" font-style="normal" font-weight="400" stroke="none" x="199.531" xml:space="preserve" y="12">10</text>
            <text fill="#969696" fill-opacity="1" font-family="&quot;MS Shell Dlg 2&quot;, sans-serif" font-size="11" font-style="normal" font-weight="400" stroke="none" x="563.875" xml:space="preserve" y="12">30</text>
            <text fill="#969696" fill-opacity="1" font-family="&quot;MS Shell Dlg 2&quot;, sans-serif" font-size="11" font-style="normal" font-weight="400" stroke="none" x="56.7969" xml:space="preserve" y="12">2</text>
            <text fill="#969696" fill-opacity="1" font-family="&quot;MS Shell Dlg 2&quot;, sans-serif" font-size="11" font-style="normal" font-weight="400" stroke="none" x="93.2188" xml:space="preserve" y="12">4</text>
            <text fill="#969696" fill-opacity="1" font-family="&quot;MS Shell Dlg 2&quot;, sans-serif" font-size="11" font-style="normal" font-weight="400" stroke="none" x="129.656" xml:space="preserve" y="12">6</text>
            <text fill="#969696" fill-opacity="1" font-family="&quot;MS Shell Dlg 2&quot;, sans-serif" font-size="11" font-style="normal" font-weight="400" stroke="none" x="166.094" xml:space="preserve" y="12">8</text>
            <text fill="#969696" fill-opacity="1" font-family="&quot;MS Shell Dlg 2&quot;, sans-serif" font-size="11" font-style="normal" font-weight="400" stroke="none" x="235.953" xml:space="preserve" y="12">12</text>
            <text fill="#969696" fill-opacity="1" font-family="&quot;MS Shell Dlg 2&quot;, sans-serif" font-size="11" font-style="normal" font-weight="400" stroke="none" x="272.391" xml:space="preserve" y="12">14</text>
            <text fill="#969696" fill-opacity="1" font-family="&quot;MS Shell Dlg 2&quot;, sans-serif" font-size="11" font-style="normal" font-weight="400" stroke="none" x="308.828" xml:space="preserve" y="12">16</text>
            <text fill="#969696" fill-opacity="1" font-family="&quot;MS Shell Dlg 2&quot;, sans-serif" font-size="11" font-style="normal" font-weight="400" stroke="none" x="345.266" xml:space="preserve" y="12">18</text>
            <text fill="#969696" fill-opacity="1" font-family="&quot;MS Shell Dlg 2&quot;, sans-serif" font-size="11" font-style="normal" font-weight="400" stroke="none" x="418.125" xml:space="preserve" y="12">22</text>
            <text fill="#969696" fill-opacity="1" font-family="&quot;MS Shell Dlg 2&quot;, sans-serif" font-size="11" font-style="normal" font-weight="400" stroke="none" x="454.562" xml:space="preserve" y="12">24</text>
            <text fill="#969696" fill-opacity="1" font-family="&quot;MS Shell Dlg 2&quot;, sans-serif" font-size="11" font-style="normal" font-weight="400" stroke="none" x="491" xml:space="preserve" y="12">26</text>
            <text fill="#969696" fill-opacity="1" font-family="&quot;MS Shell Dlg 2&quot;, sans-serif" font-size="11" font-style="normal" font-weight="400" stroke="none" x="527.438" xml:space="preserve" y="12">28</text>
        </g>
        <g fill="none" fill-rule="evenodd" id="QGraphicsTextItem_1" stroke="black" stroke-linecap="square" stroke-linejoin="bevel" stroke-width="1">
            


            


            <g fill="none" font-family="MS Shell Dlg 2" font-size="11" font-style="normal" font-weight="400" stroke="#ffffff" stroke-linecap="square" stroke-linejoin="bevel" stroke-opacity="1" stroke-width="1" transform="matrix(1,0,0,1,257.8,353.2)">
                <text fill="#ffffff" fill-opacity="1" font-family="&quot;MS Shell Dlg 2&quot;, sans-serif" font-size="18.6667" font-style="normal" font-weight="400" stroke="none" x="4" xml:space="preserve" y="23">Axis along beam line (m)</text>
            </g>
            


            

        </g>
    </g>
    <g fill="none" fill-rule="evenodd" id="AxisItem_2" stroke="black" stroke-linecap="square" stroke-linejoin="bevel" stroke-width="1">
        <g fill="none" font-family="MS Shell Dlg 2" font-size="11" font-style="normal" font-weight="400" stroke="#969696" stroke-linecap="square" stroke-linejoin="bevel" stroke-opacity="1" stroke-width="1">
            <polyline fill="none" points="64.8,31.0 64.8,335.2" vector-effect="non-scaling-stroke"/>
        </g>
        <g fill="none" font-family="MS Shell Dlg 2" font-size="11" font-style="normal" font-weight="400" stroke="#969696" stroke-linecap="square" stroke-linejoin="bevel" stroke-opacity="1" stroke-width="1">
            <polyline fill="none" points="65.3,268.506 70.3,268.506" vector-effect="non-scaling-stroke"/>
        </g>
        <g fill="none" font-family="MS Shell Dlg 2" font-size="11" font-style="normal" font-weight="400" stroke="#969696" stroke-linecap="square" stroke-linejoin="bevel" stroke-opacity="0.498039" stroke-width="1">
            <polyline fill="none" points="65.3,108.5561 68.6333,108.5561" vector-effect="non-scaling-stroke"/>
        </g>
        <g fill="none" font-family="MS Shell Dlg 2" font-size="11" font-style="normal" font-weight="400" stroke="#969696" stroke-linecap="square" stroke-linejoin="bevel" stroke-opacity="0.333333" stroke-width="1">
            <polyline fill="none" points="65.3,332.486 67.8,332.486" vector-effect="non-scaling-stroke"/>
            <polyline fill="none" points="65.3,300.496 67.8,300.496" vector-effect="non-scaling-stroke"/>
            <polyline fill="none" points="65.3,236.516 67.8,236.516" vector-effect="non-scaling-stroke"/>
            <polyline fill="none" points="65.3,204.526 67.8,204.526" vector-effect="non-scaling-stroke"/>
            <polyline fill="none" points="65.3,172.536 67.8,172.536" vector-effect="non-scaling-stroke"/>
            <polyline fill="none" points="65.3,140.546 67.8,140.546" vector-effect="non-scaling-stroke"/>
            <polyline fill="none" points="65.3,76.5661 67.8,76.5661" vector-effect="non-scaling-stroke"/>
            <polyline fill="none" points="65.3,44.5761 67.8,44.5761" vector-effect="non-scaling-stroke"/>
        </g>
        <g fill="none" font-family="MS Shell Dlg 2" font-size="11" font-style="normal" font-weight="400" stroke="#969696" stroke-linecap="square" stroke-linejoin="bevel" stroke-opacity="1" stroke-width="1" transform="matrix(1,0,0,1,1.5,31)">
            <text fill="#969696" fill-opacity="1" font-family="&quot;MS Shell Dlg 2&quot;, sans-serif" font-size="11" font-style="normal" font-weight="400" stroke="none" x="52.7969" xml:space="preserve" y="242.297">1</text>
            <text fill="#969696" fill-opacity="1" font-family="&quot;MS Shell Dlg 2&quot;, sans-serif" font-size="11" font-style="normal" font-weight="400" stroke="none" x="26.7969" xml:space="preserve" y="82.3438">1e+10</text>
            <text fill="#969696" fill-opacity="1" font-family="&quot;MS Shell Dlg 2&quot;, sans-serif" font-size="11" font-style="normal" font-weight="400" stroke="none" x="24.7969" xml:space="preserve" y="306.281">0.0001</text>
            <text fill="#969696" fill-opacity="1" font-family="&quot;MS Shell Dlg 2&quot;, sans-serif" font-size="11" font-style="normal" font-weight="400" stroke="none" x="36.7969" xml:space="preserve" y="274.281">0.01</text>
            <text fill="#969696" fill-opacity="1" font-family="&quot;MS Shell Dlg 2&quot;, sans-serif" font-size="11" font-style="normal" font-weight="400" stroke="none" x="26.7969" xml:space="preserve" y="210.312">1e+02</text>
            <text fill="#969696" fill-opacity="1" font-family="&quot;MS Shell Dlg 2&quot;, sans-serif" font-size="11" font-style="normal" font-weight="400" stroke="none" x="26.7969" xml:space="preserve" y="178.312">1e+04</text>
            <text fill="#969696" fill-opacity="1" font-family="&quot;MS Shell Dlg 2&quot;, sans-serif" font-size="11" font-style="normal" font-weight="400" stroke="none" x="26.7969" xml:space="preserve" y="146.328">1e+06</text>
            <text fill="#969696" fill-opacity="1" font-family="&quot;MS Shell Dlg 2&quot;, sans-serif" font-size="11" font-style="normal" font-weight="400" stroke="none" x="26.7969" xml:space="preserve" y="114.344">1e+08</text>
            <text fill="#969696" fill-opacity="1" font-family="&quot;MS Shell Dlg 2&quot;, sans-serif" font-size="11" font-style="normal" font-weight="400" stroke="none" x="26.7969" xml:space="preserve" y="50.3594">1e+12</text>
            <text fill="#969696" fill-opacity="1" font-family="&quot;MS Shell Dlg 2&quot;, sans-serif" font-size="11" font-style="normal" font-weight="400" stroke="none" x="26.7969" xml:space="preserve" y="18.375">1e+14</text>
        </g>
        <g fill="none" fill-rule="evenodd" id="QGraphicsTextItem_2" stroke="black" stroke-linecap="square" stroke-linejoin="bevel" stroke-width="1">
            


            


            <g fill="none" font-family="MS Shell Dlg 2" font-size="11" font-style="normal" font-weight="400" stroke="#ffffff" stroke-linecap="square" stroke-linejoin="bevel" stroke-opacity="1" stroke-width="1" transform="matrix(0,-1,1,0,-4,295)">
                <text fill="#ffffff" fill-opacity="1" font-family="&quot;MS Shell Dlg 2&quot;, sans-serif" font-size="18.6667" font-style="normal" font-weight="400" stroke="none" x="4" xml:space="preserve" y="23">Density (particles per m3)</text>
            </g>
            


            

        </g>
    </g>
    <g fill="none" fill-rule="evenodd" id="ViewBox_1" stroke="black" stroke-linecap="square" stroke-linejoin="bevel" stroke-width="1">
        <g fill="none" font-family="MS Shell Dlg 2" font-size="11" font-style="normal" font-weight="400" stroke="none">
            <path d="M64.8,31.0 L668.0,31.0 L668.0,335.2 L64.8,335.2 L64.8,31.0 " fill-rule="evenodd" vector-effect="non-scaling-stroke"/>
        </g>
        <clipPath id="ViewBox_1_clip">
            <path d="M64.8,31.0 L668.0,31.0 L668.0,335.2 L64.8,335.2 L64.8,31.0 " fill-rule="evenodd" vector-effect="non-scaling-stroke"/>
        </clipPath>
        <g clip-path="url(#ViewBox_1_clip)">
            <g fill="none" fill-rule="evenodd" id="ChildGroup_1" stroke="black" stroke-linecap="square" stroke-linejoin="bevel" stroke-width="1">
                <g id="PlotDataItem_1">
                    <g fill="none" fill-rule="evenodd" id="PlotCurveItem_1" stroke="black" stroke-linecap="square" stroke-linejoin="bevel" stroke-width="1">
                        <g fill="none" font-family="MS Shell Dlg 2" font-size="11" font-style="normal" font-weight="400" stroke="#ed815e" stroke-linecap="square" stroke-linejoin="bevel" stroke-opacity="1" stroke-width="1">
                            <path d="M88.1631000182,100.347366 L89.2782779936,100.347366 L90.3934559872,100.347366 L91.5086339808,100.347366 L92.6238119744,100.347366 L93.738989968,100.347366 L94.8541679616,100.347366 L95.9693459552,100.347366 L97.0845239488,100.347366 L98.1997019424,100.3457665 L99.314879936,100.3457665 L100.43005793,100.3457665 L101.545235923,100.344167 L102.660413917,100.3425675 L103.77559191,100.3425675 L104.890769904,100.340968 L106.005947898,100.3393685 L107.121089457,100.337769 L108.236340319,100.33457 L109.35140901,100.331371 L110.466659872,100.328172 L111.581910734,100.324973 L112.696979425,100.3201745 L113.812230287,100.315376 L114.927298978,100.308978 L116.04254984,100.30258 L117.157800702,100.2945825 L118.272869393,100.2849855 L119.388120255,100.273789 L120.503188946,100.260993 L121.618439808,100.2465975 L122.73369067,100.229003 L123.848759361,100.2114085 L124.964010223,100.1890155 L126.079078914,100.1634235 L127.194329776,100.1346325 L128.309580638,100.1026425 L129.424649329,100.065854 L130.539900191,100.0226675 L131.654968882,99.9746825 L132.770219744,99.9202995 L133.885470606,99.8595185 L135.000539297,99.7891405 L136.115790159,99.7091655 L137.23085885,99.621193 L138.346109712,99.5204245 L139.461360574,99.4084595 L140.576429265,99.282099 L141.691680127,99.1397435 L142.806748818,98.9829925 L143.92199968,98.8070475 L145.037250542,98.6119085 L146.152319233,98.395976 L147.267570095,98.15925 L148.382638786,97.896932 L149.497889648,97.6106215 L150.61314051,97.298719 L151.728209201,96.9580255 L152.843460063,96.5837425 L153.958528754,96.166273 L155.073779616,95.6656295 L156.189030478,95.212971 L157.304099169,94.880275 L158.419350031,94.6515465 L159.534418722,94.515589 L160.649669584,94.467604 L161.764920446,94.5075915 L162.879989137,94.6355515 L163.995239999,94.8562825 L165.11030869,95.1793815 L166.225559552,95.6208435 L167.340810414,96.092696 L168.455879105,96.502168 L169.571129967,96.873252 L170.686198658,97.215545 L171.80144952,97.532246 L172.916700382,97.823355 L174.031769073,98.0904715 L175.147019935,98.3367945 L176.262088626,98.562324 L177.377339488,98.76706 L178.49259035,98.9542015 L179.607659041,99.125348 L180.722909903,99.2804995 L181.837978594,99.4212555 L182.953229456,99.5492155 L184.068480318,99.665979 L185.183549009,99.771546 L186.298799871,99.8691155 L187.413868562,99.9554885 L188.529119424,100.037063 L189.644370286,100.1090405 L190.759438977,100.1762195 L191.874689839,100.2370005 L192.98975853,100.2945825 L194.105009392,100.3457665 L195.220260254,100.3937515 L196.335328945,100.4385375 L197.450579807,100.4801245 L198.565648498,100.520112 L199.68089936,100.555301 L200.796150222,100.59049 L201.911218913,100.62248 L203.026469775,100.6528705 L204.141538466,100.6816615 L205.256789328,100.7104525 L206.37204019,100.7360445 L207.487108881,100.7616365 L208.602359743,100.785629 L209.717428434,100.8096215 L210.832679296,100.830415 L211.947930158,100.852808 L213.062998849,100.8736015 L214.178249711,100.8927955 L215.293318402,100.91039 L216.408569264,100.929584 L217.523820126,100.945579 L218.638888817,100.961574 L219.754139679,100.9759695 L220.86920837,100.9887655 L221.984459232,101.0015615 L223.099710094,101.0111585 L224.214778785,101.0207555 L225.330029647,101.0271535 L226.445098338,101.031952 L227.5603492,101.0335515 L228.675600062,101.0335515 L229.790668753,101.0303525 L230.905919615,101.022355 L232.020988306,101.0111585 L233.136239168,100.9951635 L234.25149003,100.97437 L235.366558721,100.948778 L236.481809583,100.9151885 L237.596878274,100.875201 L238.712129136,100.8256165 L239.827379998,100.7680345 L240.942448689,100.7008555 L242.057699551,100.6208805 L243.172768242,100.5281095 L244.288019104,100.4225425 L245.403269966,100.299381 L246.518338657,100.1602245 L247.633589519,99.998675 L248.74865821,99.803536 L249.863909072,99.6355885 L250.979159934,99.6451855 L252.094228625,99.8371255 L253.209479487,100.104242 L254.324548178,100.3393685 L255.43979904,100.5537015 L256.555049902,100.75044 L257.670118593,100.935982 L258.785369455,101.1071285 L259.900438146,101.2670785 L261.015689008,101.419031 L262.13093987,101.559787 L263.246008561,101.6925455 L264.361259423,101.818906 L265.476328114,101.937269 L266.591578976,102.0508335 L267.706829838,102.1595995 L268.821898529,102.2619675 L269.937149391,102.362736 L271.05185374,102.458706 L272.16674026,102.551477 L273.28344849,102.641049 L274.39833501,102.7290215 L275.51322153,102.8153945 L276.62810805,102.900168 L277.74299457,102.983342 L278.85788109,103.066516 L279.97458932,103.1480905 L281.08947584,103.2280655 L282.20436236,103.30964 L283.31924888,103.389615 L284.4341354,103.4711895 L285.54902192,103.5287715 L286.66390844,103.559162 L287.78061667,103.5895525 L288.89550319,103.619943 L290.01038971,103.6503335 L291.12527623,103.680724 L292.24016275,103.7111145 L293.35504927,103.7399055 L294.4717575,103.770296 L295.58664402,103.8006865 L296.70153054,103.831077 L297.81641706,103.8614675 L298.93130358,103.8902585 L300.0461901,103.920649 L301.16289833,103.9510395 L302.27778485,103.98143 L303.39267137,104.0118205 L304.50755789,104.042211 L305.62244441,104.0726015 L306.73733093,104.102992 L307.85403916,104.134982 L308.96892568,104.1653725 L310.0838122,104.195763 L311.19869872,104.227753 L312.31358524,104.2581435 L313.42847176,104.2901335 L314.54335828,104.320524 L315.66006651,104.352514 L316.77495303,104.384504 L317.88983955,104.416494 L319.00472607,104.448484 L320.11961259,104.480474 L321.23449911,104.512464 L322.35120734,104.544454 L323.46609386,104.576444 L324.58098038,104.6100335 L325.6958669,104.6420235 L326.81075342,104.675613 L327.92563994,104.707603 L329.04234817,104.7411925 L330.15723469,104.7731825 L331.27212121,104.806772 L332.38700773,104.8403615 L333.50189425,104.8723515 L334.61678077,104.905941 L335.733489,104.9395305 L336.84837552,104.97312 L337.96326204,105.00511 L339.07814856,105.0386995 L340.19303508,105.072289 L341.3079216,105.104279 L342.42280812,105.1378685 L343.53951635,105.1698585 L344.65440287,105.2018485 L345.76928939,105.2338385 L346.88417591,105.2658285 L347.99906243,105.296219 L349.11394895,105.3266095 L350.23065718,105.357 L351.3455437,105.3873905 L352.46043022,105.4161815 L353.57531674,105.4257785 L354.69020326,105.433776 L355.80508978,105.4417735 L356.92179801,105.4481715 L358.03668453,105.4545695 L359.15157105,105.4609675 L360.26645757,105.465766 L361.38134409,105.472164 L362.49623061,105.475363 L363.61293884,105.4801615 L364.72782536,105.4833605 L365.84271188,105.48496 L366.9575984,105.488159 L368.07248492,105.488159 L369.18737144,105.488159 L370.30225796,105.488159 L371.41896619,105.4865595 L372.53385271,105.48496 L373.64873923,105.481761 L374.76362575,105.4769625 L375.87851227,105.472164 L376.99339879,105.465766 L378.11010702,105.4577685 L379.22499354,105.4481715 L380.33988006,105.4385745 L381.45476658,105.4257785 L382.5696531,105.4129825 L383.68453962,105.3969875 L384.80124785,105.3809925 L385.91613437,105.3617985 L387.03102089,105.341005 L388.14590741,105.318612 L389.26079393,105.29302 L390.37568045,105.2658285 L391.49238868,105.235438 L392.6072752,105.203448 L393.72216172,105.1698585 L394.83704824,105.1314705 L395.95193476,105.091483 L397.06682128,105.046697 L398.1817078,105.0003115 L399.29841603,104.9491275 L400.41330255,104.8947445 L401.52818907,104.8371625 L402.64307559,104.7763815 L403.75796211,104.7092025 L404.87284863,104.640424 L405.98955686,104.5652475 L407.10444338,104.4852725 L408.2193299,104.4020985 L409.33421642,104.3125265 L410.44910294,104.218156 L411.56398946,104.118987 L412.68069769,104.01342 L413.79558421,103.9030545 L414.91047073,103.786291 L416.02535725,103.6631295 L417.14024377,103.53357 L418.25513029,103.3976125 L419.37183852,103.255257 L420.48672504,103.1065035 L421.60161156,102.9497525 L422.71649808,102.785004 L423.8313846,102.612258 L424.94627112,102.4283155 L426.06115764,102.231577 L427.17786587,101.950065 L428.29275239,101.438225 L429.40763891,101.051146 L430.52252543,100.7712335 L431.63741195,100.5888905 L432.75229847,100.49452 L433.8690067,100.484923 L434.98389322,101.1359195 L436.09877974,101.9164755 L437.21366626,102.5722705 L438.32855278,103.140093 L439.4434393,103.6247415 L440.56014753,104.0342135 L441.67503405,104.371708 L442.78992057,104.643623 L443.90480709,104.854757 L445.01969361,105.011508 L446.13458013,105.1154755 L447.25128836,105.171458 L448.36617488,105.1794555 L449.4810614,105.139468 L450.59594792,105.0514955 L451.71083444,104.912339 L452.82572096,104.7187995 L453.94060748,104.4660785 L455.05731571,104.147778 L456.17220223,103.7590995 L457.28708875,103.2952445 L458.40197527,102.749815 L459.51686179,102.119612 L460.63174831,101.403036 L461.74845654,100.5984875 L462.86334306,99.7091655 L463.97822958,98.7366695 L465.0931161,97.6873975 L466.20800262,96.5677475 L467.32288914,95.385717 L468.43959737,94.144505 L469.55448389,92.855308 L470.66937041,91.5229245 L471.78425693,90.139357 L472.89914345,88.62623 L474.01402997,88.277539 L475.1307382,88.181569 L476.24562472,88.005624 L477.36051124,87.861669 L478.47539776,87.749704 L479.59028428,87.66653 L480.7051708,87.612147 L481.82005732,87.586555 L482.93676555,87.4122095 L484.05165207,87.2522595 L485.16653859,87.119501 L486.28142511,87.0155335 L487.39631163,86.9387575 L488.51119815,86.8875735 L489.62790638,86.8619815 L490.7427929,86.8619815 L491.85767942,86.885974 L492.97256594,87.3514285 L494.08745246,88.05041 L495.20233898,88.7941775 L496.31904721,89.5971265 L497.43393373,90.4800505 L498.54882025,91.4653425 L499.66370677,92.5913905 L500.77859329,93.9125775 L501.89347981,95.6848235 L503.01018804,97.5018555 L504.12507456,99.3188875 L505.23996108,101.1359195 L506.3548476,102.954551 L507.46973412,104.771583 L508.58462064,106.588615 L509.69950716,108.405647 L510.81621539,110.22283895 L511.93110191,112.03987095 L513.04598843,113.85690295 L514.16087495,115.673775 L515.27576147,117.49064705 L516.39064799,119.3075191 L517.50735622,121.1242312 L518.62224274,122.94078335 L519.73712926,124.7573355 L520.85201578,126.57388765 L521.9669023,128.39027985 L523.08178882,130.20667205 L524.19849705,132.02306425 L525.31338357,133.8392965 L526.42827009,135.6553688 L527.54315661,137.47160105 L528.65804313,139.2875134 L529.77292965,141.1035857 L530.88963788,142.91949805 L532.0045244,144.73525045 L533.11941092,146.55100285 L534.23429744,148.36675525 L535.34918396,150.1823477 L536.46407048,151.99794015 L537.578957,153.81337265 L538.69566523,155.62880515 L539.81055175,157.4440777 L540.92543827,159.25935025 L542.04032479,161.0746228 L543.15521131,162.8897354 L544.27009783,164.704848 L545.38680606,166.51980065 L546.50169258,168.3347533 L547.6165791,170.149546 L548.73146562,171.9643387 L549.84635214,173.7791314 L550.96123866,175.59376415 L552.07794689,177.4083969 L553.19283341,179.2228697 L554.30771993,181.0373425 L555.42260645,182.85165535 L556.53749297,184.6659682 L557.65237949,186.48028105 L558.76908772,188.29443395 L559.88397424,190.1084269 L560.99886076,191.9225798 L562.11374728,193.7364128 L563.2286338,195.55040575 L564.34352032,197.36423875 L565.45840684,199.1779118 L566.57511507,200.99158485 L567.69000159,202.8052579 L568.80488811,204.618771 L569.91977463,206.4322841 L571.03466115,208.24563725 L572.14954767,210.0589904 L573.2662559,211.8721836 L574.38114242,213.6853768 L575.49602894,215.49857 L576.61091546,217.31160325 L577.72580198,219.1246365 L578.8406885,220.9375098 L579.95739673,222.7503831 L581.07228325,224.56309645 L582.18716977,226.3758098 L583.30205629,228.1883632 L584.41694281,230.0009166 L585.53182933,231.81347 L586.64853756,233.62586345 L587.76342408,235.4382569 L588.8783106,237.2504904 L589.99319712,239.0627239 L591.10808364,240.87479745 L592.22297016,242.686871 L593.33785668,244.49894455 L594.45456491,246.31085815 L595.56945143,248.12277175 L596.68433795,249.9345254 L597.79922447,251.74627905 L598.91411099,253.55787275 L600.02899751,255.369450455 L601.14570574,257.18096418 L602.26059226,258.99239793 L603.37547878,260.8037677 L604.4903653,262.61507349 L605.60525182,264.426299305 L606.72013834,266.23746114 L607.83684657,268.048547798 L608.95173309,269.859568877 L610.06661961,271.67051478 L611.18150613,273.4814047 L612.29639265,275.29219865 L613.41127917,277.102944615 L614.5279874,278.913610605 L615.64287392,280.72419662 L616.75776044,282.53470266 L617.87264696,284.345128725 L618.98753348,286.1555228 L620.10242,287.96567695 L621.21730652,289.7758311 L622.33401475,291.58566535 L623.44890127,293.39533965 L624.56378779,295.2045341 L625.67867431,297.01308875 L626.79356083,298.8206837 L627.90844735,300.6265192 L629.02515558,302.4294756 L630.1400421,304.2279534 L631.25492862,306.01859365 L632.36981514,307.796118 L633.48470166,309.55220905 L634.59958818,311.27231135 L635.71629641,312.933712 L636.83118293,314.50074215 L637.94606945,315.91949865 L639.06095597,317.1167244 L640.17584249,318.0025275 L641.29072901,318.48541655 L642.40743724,318.69271175 L643.52232376,318.8365068 L644.63721028,318.9212803 " fill-rule="evenodd" vector-effect="non-scaling-stroke"/>
                        </g>
                    </g>
                </g>
                <g id="PlotDataItem_2">
                    <g fill="none" fill-rule="evenodd" id="PlotCurveItem_2" stroke="black" stroke-linecap="square" stroke-linejoin="bevel" stroke-width="1">
                        <g fill="none" font-family="MS Shell Dlg 2" font-size="11" font-style="normal" font-weight="400" stroke="#c7b069" stroke-linecap="square" stroke-linejoin="bevel" stroke-opacity="1" stroke-width="1">
                            <path d="M88.1631000182,93.10483 L89.2782779936,93.10483 L90.3934559872,93.10483 L91.5086339808,93.10483 L92.6238119744,93.1064295 L93.738989968,93.108029 L94.8541679616,93.108029 L95.9693459552,93.1096285 L97.0845239488,93.1128275 L98.1997019424,93.114427 L99.314879936,93.1160265 L100.43005793,93.1192255 L101.545235923,93.1224245 L102.660413917,93.124024 L103.77559191,93.127223 L104.890769904,93.130422 L106.005947898,93.1352205 L107.121089457,93.1384195 L108.236340319,93.1416185 L109.35140901,93.1448175 L110.466659872,93.149616 L111.581910734,93.152815 L112.696979425,93.1576135 L113.812230287,93.1608125 L114.927298978,93.165611 L116.04254984,93.16881 L117.157800702,93.172009 L118.272869393,93.175208 L119.388120255,93.178407 L120.503188946,93.181606 L121.618439808,93.1832055 L122.73369067,93.184805 L123.848759361,93.1864045 L124.964010223,93.1864045 L126.079078914,93.184805 L127.194329776,93.1832055 L128.309580638,93.1800065 L129.424649329,93.175208 L130.539900191,93.16881 L131.654968882,93.159213 L132.770219744,93.1480165 L133.885470606,93.133621 L135.000539297,93.1160265 L136.115790159,93.095233 L137.23085885,93.069641 L138.346109712,93.0392505 L139.461360574,93.0040615 L140.576429265,92.960875 L141.691680127,92.91289 L142.806748818,92.8569075 L143.92199968,92.791328 L145.037250542,92.7161515 L146.152319233,92.6297785 L147.267570095,92.5306095 L148.382638786,92.4186445 L149.497889648,92.292284 L150.61314051,92.148329 L151.728209201,91.9835805 L152.843460063,91.790041 L153.958528754,91.5453175 L155.073779616,91.1678355 L156.189030478,90.7935525 L157.304099169,90.51364 L158.419350031,90.3169015 L159.534418722,90.1985385 L160.649669584,90.1537525 L161.764920446,90.1825435 L162.879989137,90.286511 L163.995239999,90.4672545 L165.11030869,90.731172 L166.225559552,91.0846615 L167.340810414,91.422156 L168.455879105,91.6668795 L169.571129967,91.870016 L170.686198658,92.0507595 L171.80144952,92.212309 L172.916700382,92.359463 L174.031769073,92.4922215 L175.147019935,92.612184 L176.262088626,92.7225495 L177.377339488,92.8217185 L178.49259035,92.9112905 L179.607659041,92.992865 L180.722909903,93.066442 L181.837978594,93.1352205 L182.953229456,93.197601 L184.068480318,93.2535835 L185.183549009,93.306367 L186.298799871,93.3559515 L187.413868562,93.4007375 L188.529119424,93.4423245 L189.644370286,93.482312 L190.759438977,93.5191005 L191.874689839,93.55269 L192.98975853,93.5862795 L194.105009392,93.6182695 L195.220260254,93.64866 L196.335328945,93.677451 L197.450579807,93.7046425 L198.565648498,93.731834 L199.68089936,93.7590255 L200.796150222,93.7846175 L201.911218913,93.8102095 L203.026469775,93.8358015 L204.141538466,93.859794 L205.256789328,93.885386 L206.37204019,93.9093785 L207.487108881,93.933371 L208.602359743,93.9573635 L209.717428434,93.981356 L210.832679296,94.0053485 L211.947930158,94.029341 L213.062998849,94.0533335 L214.178249711,94.077326 L215.293318402,94.1013185 L216.408569264,94.125311 L217.523820126,94.147704 L218.638888817,94.1716965 L219.754139679,94.195689 L220.86920837,94.218082 L221.984459232,94.2420745 L223.099710094,94.2644675 L224.214778785,94.2868605 L225.330029647,94.3092535 L226.445098338,94.3316465 L227.5603492,94.35244 L228.675600062,94.371634 L229.790668753,94.390828 L230.905919615,94.410022 L232.020988306,94.426017 L233.136239168,94.442012 L234.25149003,94.454808 L235.366558721,94.4660045 L236.481809583,94.4756015 L237.596878274,94.4819995 L238.712129136,94.483599 L239.827379998,94.483599 L240.942448689,94.4788005 L242.057699551,94.467604 L243.172768242,94.451609 L244.288019104,94.429216 L245.403269966,94.400425 L246.518338657,94.3604375 L247.633589519,94.307654 L248.74865821,94.227679 L249.863909072,94.1493035 L250.979159934,94.1780945 L252.094228625,94.32045 L253.209479487,94.496395 L254.324548178,94.643549 L255.43979904,94.7763075 L256.555049902,94.9010685 L257.670118593,95.017832 L258.785369455,95.1313965 L259.900438146,95.238563 L261.015689008,95.3425305 L262.13093987,95.443299 L263.246008561,95.539269 L264.361259423,95.6336395 L265.476328114,95.7264105 L266.591578976,95.8159825 L267.706829838,95.9055545 L268.821898529,95.993527 L269.937149391,96.0799 L271.05185374,96.166273 L272.16674026,96.2510465 L273.28344849,96.33582 L274.39833501,96.4205935 L275.51322153,96.5069665 L276.62810805,96.59174 L277.74299457,96.678113 L278.85788109,96.7628865 L279.97458932,96.850859 L281.08947584,96.937232 L282.20436236,97.026804 L283.31924888,97.116376 L284.4341354,97.205948 L285.54902192,97.2715275 L286.66390844,97.3067165 L287.78061667,97.3419055 L288.89550319,97.3770945 L290.01038971,97.4122835 L291.12527623,97.449072 L292.24016275,97.484261 L293.35504927,97.5210495 L294.4717575,97.557838 L295.58664402,97.593027 L296.70153054,97.6298155 L297.81641706,97.6682035 L298.93130358,97.704992 L300.0461901,97.7417805 L301.16289833,97.7801685 L302.27778485,97.8185565 L303.39267137,97.8569445 L304.50755789,97.8953325 L305.62244441,97.9337205 L306.73733093,97.973708 L307.85403916,98.012096 L308.96892568,98.0520835 L310.0838122,98.092071 L311.19869872,98.133658 L312.31358524,98.1736455 L313.42847176,98.2152325 L314.54335828,98.2568195 L315.66006651,98.2984065 L316.77495303,98.3399935 L317.88983955,98.38318 L319.00472607,98.4263665 L320.11961259,98.469553 L321.23449911,98.5127395 L322.35120734,98.555926 L323.46609386,98.600712 L324.58098038,98.645498 L325.6958669,98.690284 L326.81075342,98.7366695 L327.92563994,98.7814555 L329.04234817,98.827841 L330.15723469,98.8742265 L331.27212121,98.920612 L332.38700773,98.968597 L333.50189425,99.016582 L334.61678077,99.064567 L335.733489,99.112552 L336.84837552,99.160537 L337.96326204,99.2101215 L339.07814856,99.259706 L340.19303508,99.3092905 L341.3079216,99.358875 L342.42280812,99.410059 L343.53951635,99.461243 L344.65440287,99.512427 L345.76928939,99.563611 L346.88417591,99.614795 L347.99906243,99.6675785 L349.11394895,99.7187625 L350.23065718,99.771546 L351.3455437,99.8243295 L352.46043022,99.877113 L353.57531674,99.8947075 L354.69020326,99.9107025 L355.80508978,99.9266975 L356.92179801,99.941093 L358.03668453,99.9554885 L359.15157105,99.9714835 L360.26645757,99.985879 L361.38134409,100.0002745 L362.49623061,100.01467 L363.61293884,100.0290655 L364.72782536,100.0418615 L365.84271188,100.056257 L366.9575984,100.069053 L368.07248492,100.081849 L369.18737144,100.094645 L370.30225796,100.107441 L371.41896619,100.1186375 L372.53385271,100.129834 L373.64873923,100.1410305 L374.76362575,100.152227 L375.87851227,100.161824 L376.99339879,100.171421 L378.11010702,100.181018 L379.22499354,100.190615 L380.33988006,100.1986125 L381.45476658,100.2050105 L382.5696531,100.2114085 L383.68453962,100.2178065 L384.80124785,100.222605 L385.91613437,100.225804 L387.03102089,100.229003 L388.14590741,100.232202 L389.26079393,100.232202 L390.37568045,100.232202 L391.49238868,100.232202 L392.6072752,100.229003 L393.72216172,100.2242045 L394.83704824,100.219406 L395.95193476,100.213008 L397.06682128,100.203411 L398.1817078,100.193814 L399.29841603,100.181018 L400.41330255,100.1666225 L401.52818907,100.1506275 L402.64307559,100.1314335 L403.75796211,100.11064 L404.87284863,100.0866475 L405.98955686,100.0610555 L407.10444338,100.0322645 L408.2193299,100.0002745 L409.33421642,99.9650855 L410.44910294,99.9266975 L411.56398946,99.8851105 L412.68069769,99.8403245 L413.79558421,99.7923395 L414.91047073,99.739556 L416.02535725,99.681974 L417.14024377,99.6195935 L418.25513029,99.554014 L419.37183852,99.483636 L420.48672504,99.40686 L421.60161156,99.3252855 L422.71649808,99.237313 L423.8313846,99.141343 L424.94627112,99.0373755 L426.06115764,98.9190125 L427.17786587,98.7366695 L428.29275239,98.370384 L429.40763891,98.0872725 L430.52252543,97.880937 L431.63741195,97.74338 L432.75229847,97.669803 L433.8690067,97.660206 L434.98389322,98.069678 L436.09877974,98.4551575 L437.21366626,98.7206745 L438.32855278,98.9126145 L439.4434393,99.045373 L440.56014753,99.1269475 L441.67503405,99.166935 L442.78992057,99.173333 L443.90480709,99.15094 L445.01969361,99.106154 L446.13458013,99.0405745 L447.25128836,98.9574005 L448.36617488,98.859831 L449.4810614,98.744667 L450.59594792,98.616707 L451.71083444,98.469553 L452.82572096,98.3048045 L453.94060748,98.1192625 L455.05731571,97.9081285 L456.17220223,97.666604 L457.28708875,97.39149 L458.40197527,97.074789 L459.51686179,96.710103 L460.63174831,96.2926335 L461.74845654,95.8127835 L462.86334306,95.267354 L463.97822958,94.649947 L465.0931161,93.9573635 L466.20800262,93.184805 L467.32288914,92.3322715 L468.43959737,91.4013625 L469.55448389,90.3936775 L470.66937041,89.3060175 L471.78425693,88.088798 L472.89914345,86.3437435 L474.01402997,85.7999135 L475.1307382,85.628767 L476.24562472,85.3008695 L477.36051124,85.0225565 L478.47539776,84.7890295 L479.59028428,84.598689 L480.7051708,84.4467365 L481.82005732,84.333172 L482.93676555,84.054859 L484.05165207,83.8005385 L485.16653859,83.587805 L486.28142511,83.415059 L487.39631163,83.2791015 L488.51119815,83.1799325 L489.62790638,83.114353 L490.7427929,83.0839625 L491.85767942,83.085562 L492.97256594,83.4006635 L494.08745246,83.888511 L495.20233898,84.425943 L496.31904721,85.0193575 L497.43393373,85.6783515 L498.54882025,86.415721 L499.66370677,87.2490605 L500.77859329,88.1991635 L501.89347981,89.4307785 L503.01018804,90.676789 L504.12507456,91.9036055 L505.23996108,93.1128275 L506.3548476,94.307654 L507.46973412,95.484886 L508.58462064,96.6509215 L509.69950716,97.8025615 L510.81621539,98.9414055 L511.93110191,100.0706525 L513.04598843,101.1903025 L514.16087495,102.3003555 L515.27576147,103.4008115 L516.39064799,104.4948695 L517.50735622,105.5825295 L518.62224274,106.6637915 L519.73712926,107.7386555 L520.85201578,108.8084011 L521.9669023,109.873988 L523.08178882,110.9354162 L524.19849705,111.99316555 L525.31338357,113.04755595 L526.42827009,114.09906725 L527.54315661,115.1478594 L528.65804313,116.1942523 L529.77292965,117.23856585 L530.88963788,118.28096 L532.0045244,119.3215947 L533.11941092,120.36078985 L534.23429744,121.39854545 L535.34918396,122.4351814 L536.46407048,123.4706977 L537.578957,124.5052543 L538.69566523,125.53901115 L539.81055175,126.57196825 L540.92543827,127.6041256 L542.04032479,128.6358031 L543.15521131,129.66700075 L544.27009783,130.6975586 L545.38680606,131.72779655 L546.50169258,132.75755465 L547.6165791,133.78699285 L548.73146562,134.8162711 L549.84635214,135.8450695 L550.96123866,136.8738679 L552.07794689,137.90218645 L553.19283341,138.930505 L554.30771993,139.9586636 L555.42260645,140.9865023 L556.53749297,142.014341 L557.65237949,143.04201975 L558.76908772,144.0696985 L559.88397424,145.09705735 L560.99886076,146.12457615 L562.11374728,147.15177505 L563.2286338,148.1791339 L564.34352032,149.2063328 L565.45840684,150.2335317 L566.57511507,151.26057065 L567.69000159,152.2876096 L568.80488811,153.31464855 L569.91977463,154.3416875 L571.03466115,155.3685665 L572.14954767,156.39560545 L573.2662559,157.42248445 L574.38114242,158.44936345 L575.49602894,159.47624245 L576.61091546,160.50312145 L577.72580198,161.53000045 L578.8406885,162.5567195 L579.95739673,163.5835985 L581.07228325,164.61031755 L582.18716977,165.63719655 L583.30205629,166.6639156 L584.41694281,167.6907946 L585.53182933,168.71751365 L586.64853756,169.74439265 L587.76342408,170.7711117 L588.8783106,171.79783075 L589.99319712,172.8245498 L591.10808364,173.8514288 L592.22297016,174.87814785 L593.33785668,175.9048669 L594.45456491,176.93158595 L595.56945143,177.958305 L596.68433795,178.98502405 L597.79922447,180.01190305 L598.91411099,181.0386221 L600.02899751,182.06534115 L601.14570574,183.0920602 L602.26059226,184.11877925 L603.37547878,185.1454983 L604.4903653,186.1720574 L605.60525182,187.19877645 L606.72013834,188.2254955 L607.83684657,189.2520546 L608.95173309,190.2786137 L610.06661961,191.3051728 L611.18150613,192.3317319 L612.29639265,193.35813105 L613.41127917,194.38437025 L614.5279874,195.4104495 L615.64287392,196.43652875 L616.75776044,197.46212815 L617.87264696,198.48740765 L618.98753348,199.51204735 L620.10242,200.5362072 L621.21730652,201.55940735 L622.33401475,202.5813279 L623.44890127,203.601489 L624.56378779,204.61957075 L625.67867431,205.6344535 L626.79356083,206.6453375 L627.90844735,207.65062325 L629.02515558,208.64839135 L630.1400421,209.63624255 L631.25492862,210.610498 L632.36981514,211.56683905 L633.48470166,212.49902765 L634.59958818,213.39922625 L635.71629641,214.257358 L636.83118293,215.06078685 L637.94606945,215.79367775 L639.06095597,216.43763645 L640.17584249,216.97218935 L641.29072901,217.37046485 L642.40743724,217.6118294 L643.52232376,217.7852152 L644.63721028,217.8895026 " fill-rule="evenodd" vector-effect="non-scaling-stroke"/>
                        </g>
                    </g>
                </g>
                <g id="PlotDataItem_3">
                    <g fill="none" fill-rule="evenodd" id="PlotCurveItem_3" stroke="black" stroke-linecap="square" stroke-linejoin="bevel" stroke-width="1">
                        <g fill="none" font-family="MS Shell Dlg 2" font-size="11" font-style="normal" font-weight="400" stroke="#7ea695" stroke-linecap="square" stroke-linejoin="bevel" stroke-opacity="1" stroke-width="1">
                            <path d="M88.1631000182,89.8594445 L89.2782779936,89.8594445 L90.3934559872,89.8594445 L91.5086339808,89.861044 L92.6238119744,89.8626435 L93.738989968,89.864243 L94.8541679616,89.8658425 L95.9693459552,89.867442 L97.0845239488,89.8690415 L98.1997019424,89.8722405 L99.314879936,89.8754395 L100.43005793,89.8786385 L101.545235923,89.8818375 L102.660413917,89.886636 L103.77559191,89.889835 L104.890769904,89.8946335 L106.005947898,89.899432 L107.121089457,89.9042305 L108.236340319,89.909029 L109.35140901,89.9138275 L110.466659872,89.9202255 L111.581910734,89.925024 L112.696979425,89.931422 L113.812230287,89.93782 L114.927298978,89.944218 L116.04254984,89.950616 L117.157800702,89.9554145 L118.272869393,89.9618125 L119.388120255,89.9682105 L120.503188946,89.9746085 L121.618439808,89.9810065 L122.73369067,89.985805 L123.848759361,89.992203 L124.964010223,89.9970015 L126.079078914,90.0018 L127.194329776,90.004999 L128.309580638,90.008198 L129.424649329,90.011397 L130.539900191,90.0129965 L131.654968882,90.011397 L132.770219744,90.0097975 L133.885470606,90.0065985 L135.000539297,90.0018 L136.115790159,89.9938025 L137.23085885,89.9842055 L138.346109712,89.96981 L139.461360574,89.9522155 L140.576429265,89.931422 L141.691680127,89.90583 L142.806748818,89.87384 L143.92199968,89.8370515 L145.037250542,89.7922655 L146.152319233,89.7410815 L147.267570095,89.6803005 L148.382638786,89.6099225 L149.497889648,89.528348 L150.61314051,89.4339775 L151.728209201,89.323612 L152.843460063,89.1876545 L153.958528754,88.9989135 L155.073779616,88.667817 L156.189030478,88.325524 L157.304099169,88.0648055 L158.419350031,87.8824625 L159.534418722,87.7704975 L160.649669584,87.727311 L161.764920446,87.752903 L162.879989137,87.8472735 L163.995239999,88.012022 L165.11030869,88.2503475 L166.225559552,88.571847 L167.340810414,88.8613565 L168.455879105,89.051697 L169.571129967,89.2036495 L170.686198658,89.3348085 L171.80144952,89.451572 L172.916700382,89.557139 L174.031769073,89.653109 L175.147019935,89.739482 L176.262088626,89.8178575 L177.377339488,89.8882355 L178.49259035,89.953815 L179.607659041,90.0129965 L180.722909903,90.0673795 L181.837978594,90.116964 L182.953229456,90.1633495 L184.068480318,90.206536 L185.183549009,90.2465235 L186.298799871,90.283312 L187.413868562,90.318501 L188.529119424,90.3520905 L189.644370286,90.382481 L190.759438977,90.4128715 L191.874689839,90.4416625 L192.98975853,90.468854 L194.105009392,90.4960455 L195.220260254,90.5216375 L196.335328945,90.5472295 L197.450579807,90.5728215 L198.565648498,90.596814 L199.68089936,90.6208065 L200.796150222,90.644799 L201.911218913,90.6687915 L203.026469775,90.692784 L204.141538466,90.7167765 L205.256789328,90.740769 L206.37204019,90.7647615 L207.487108881,90.788754 L208.602359743,90.8127465 L209.717428434,90.836739 L210.832679296,90.8607315 L211.947930158,90.884724 L213.062998849,90.9087165 L214.178249711,90.9343085 L215.293318402,90.9599005 L216.408569264,90.983893 L217.523820126,91.009485 L218.638888817,91.035077 L219.754139679,91.060669 L220.86920837,91.086261 L221.984459232,91.111853 L223.099710094,91.137445 L224.214778785,91.163037 L225.330029647,91.188629 L226.445098338,91.214221 L227.5603492,91.2382135 L228.675600062,91.2638055 L229.790668753,91.287798 L230.905919615,91.3117905 L232.020988306,91.3341835 L233.136239168,91.3565765 L234.25149003,91.3789695 L235.366558721,91.399763 L236.481809583,91.4173575 L237.596878274,91.434952 L238.712129136,91.4493475 L239.827379998,91.4621435 L240.942448689,91.47334 L242.057699551,91.479738 L243.172768242,91.482937 L244.288019104,91.4813375 L245.403269966,91.476539 L246.518338657,91.4621435 L247.633589519,91.438151 L248.74865821,91.390166 L249.863909072,91.335783 L250.979159934,91.370972 L252.094228625,91.498932 L253.209479487,91.6508845 L254.324548178,91.774046 L255.43979904,91.8844115 L256.555049902,91.9899785 L257.670118593,92.090747 L258.785369455,92.1883165 L259.900438146,92.282687 L261.015689008,92.375458 L262.13093987,92.46503 L263.246008561,92.5530025 L264.361259423,92.640975 L265.476328114,92.7257485 L266.591578976,92.810522 L267.706829838,92.8952955 L268.821898529,92.9784695 L269.937149391,93.063243 L271.05185374,93.146417 L272.16674026,93.2311905 L273.28344849,93.3143645 L274.39833501,93.399138 L275.51322153,93.4839115 L276.62810805,93.5702845 L277.74299457,93.6566575 L278.85788109,93.7430305 L279.97458932,93.831003 L281.08947584,93.920575 L282.20436236,94.0117465 L283.31924888,94.102918 L284.4341354,94.195689 L285.54902192,94.2644675 L286.66390844,94.2996565 L287.78061667,94.336445 L288.89550319,94.3732335 L290.01038971,94.410022 L291.12527623,94.4468105 L292.24016275,94.4851985 L293.35504927,94.521987 L294.4717575,94.560375 L295.58664402,94.598763 L296.70153054,94.637151 L297.81641706,94.675539 L298.93130358,94.7155265 L300.0461901,94.7539145 L301.16289833,94.793902 L302.27778485,94.8338895 L303.39267137,94.8754765 L304.50755789,94.915464 L305.62244441,94.957051 L306.73733093,94.998638 L307.85403916,95.040225 L308.96892568,95.081812 L310.0838122,95.1249985 L311.19869872,95.168185 L312.31358524,95.2113715 L313.42847176,95.254558 L314.54335828,95.299344 L315.66006651,95.34413 L316.77495303,95.388916 L317.88983955,95.433702 L319.00472607,95.4800875 L320.11961259,95.5248735 L321.23449911,95.5728585 L322.35120734,95.619244 L323.46609386,95.667229 L324.58098038,95.715214 L325.6958669,95.763199 L326.81075342,95.811184 L327.92563994,95.8607685 L329.04234817,95.910353 L330.15723469,95.9599375 L331.27212121,96.0111215 L332.38700773,96.0623055 L333.50189425,96.1134895 L334.61678077,96.166273 L335.733489,96.217457 L336.84837552,96.27184 L337.96326204,96.3246235 L339.07814856,96.3790065 L340.19303508,96.4333895 L341.3079216,96.4877725 L342.42280812,96.543755 L343.53951635,96.598138 L344.65440287,96.65572 L345.76928939,96.7117025 L346.88417591,96.7692845 L347.99906243,96.8268665 L349.11394895,96.8844485 L350.23065718,96.94363 L351.3455437,97.0028115 L352.46043022,97.061993 L353.57531674,97.0827865 L354.69020326,97.100381 L355.80508978,97.1179755 L356.92179801,97.13557 L358.03668453,97.1531645 L359.15157105,97.170759 L360.26645757,97.186754 L361.38134409,97.2043485 L362.49623061,97.221943 L363.61293884,97.237938 L364.72782536,97.2555325 L365.84271188,97.2715275 L366.9575984,97.2875225 L368.07248492,97.305117 L369.18737144,97.321112 L370.30225796,97.337107 L371.41896619,97.353102 L372.53385271,97.3674975 L373.64873923,97.3834925 L374.76362575,97.397888 L375.87851227,97.4122835 L376.99339879,97.426679 L378.11010702,97.4410745 L379.22499354,97.45547 L380.33988006,97.468266 L381.45476658,97.481062 L382.5696531,97.493858 L383.68453962,97.506654 L384.80124785,97.5178505 L385.91613437,97.5274475 L387.03102089,97.538644 L388.14590741,97.548241 L389.26079393,97.5562385 L390.37568045,97.564236 L391.49238868,97.5722335 L392.6072752,97.5786315 L393.72216172,97.58343 L394.83704824,97.5882285 L395.95193476,97.5914275 L397.06682128,97.5946265 L398.1817078,97.596226 L399.29841603,97.5946265 L400.41330255,97.593027 L401.52818907,97.589828 L402.64307559,97.586629 L403.75796211,97.580231 L404.87284863,97.5722335 L405.98955686,97.561037 L407.10444338,97.5498405 L408.2193299,97.535445 L409.33421642,97.51945 L410.44910294,97.500256 L411.56398946,97.4794625 L412.68069769,97.45547 L413.79558421,97.4282785 L414.91047073,97.3994875 L416.02535725,97.365898 L417.14024377,97.3291095 L418.25513029,97.289122 L419.37183852,97.2459355 L420.48672504,97.1979505 L421.60161156,97.1467665 L422.71649808,97.0891845 L423.8313846,97.0252045 L424.94627112,96.953227 L426.06115764,96.870053 L427.17786587,96.729297 L428.29275239,96.4301905 L429.40763891,96.198263 L430.52252543,96.025517 L431.63741195,95.9087535 L432.75229847,95.846373 L433.8690067,95.8351765 L434.98389322,96.1198875 L436.09877974,96.3246235 L437.21366626,96.428591 L438.32855278,96.473377 L439.4434393,96.4749765 L440.56014753,96.4429865 L441.67503405,96.3854045 L442.78992057,96.307029 L443.90480709,96.211059 L445.01969361,96.1038925 L446.13458013,95.9887285 L447.25128836,95.8639675 L448.36617488,95.7328085 L449.4810614,95.593652 L450.59594792,95.449697 L451.71083444,95.296145 L452.82572096,95.1345955 L453.94060748,94.96025 L455.05731571,94.771509 L456.17220223,94.5651735 L457.28708875,94.3348455 L458.40197527,94.0789255 L459.51686179,93.7878165 L460.63174831,93.459919 L461.74845654,93.0840365 L462.86334306,92.65697 L463.97822958,92.1691225 L465.0931161,91.6156955 L466.20800262,90.9918905 L467.32288914,90.2913095 L468.43959737,89.512353 L469.55448389,88.6534215 L470.66937041,87.704918 L471.78425693,86.588467 L472.89914345,84.7474425 L474.01402997,84.112441 L475.1307382,83.907705 L476.24562472,83.5094295 L477.36051124,83.168736 L478.47539776,82.880826 L479.59028428,82.640901 L480.7051708,82.4441625 L481.82005732,82.289011 L482.93676555,81.962713 L484.05165207,81.6668055 L485.16653859,81.418883 L486.28142511,81.214147 L487.39631163,81.050998 L488.51119815,80.9278365 L489.62790638,80.843063 L490.7427929,80.7966775 L491.85767942,80.7870805 L492.97256594,80.9982145 L494.08745246,81.342107 L495.20233898,81.732385 L496.31904721,82.173847 L497.43393373,82.6744905 L498.54882025,83.239114 L499.66370677,83.8805135 L500.77859329,84.6098855 L501.89347981,85.5439935 L503.01018804,86.476502 L504.12507456,87.385018 L505.23996108,88.2727405 L506.3548476,89.1428685 L507.46973412,89.995402 L508.58462064,90.83354 L509.69950716,91.658882 L510.81621539,92.4730275 L511.93110191,93.277576 L513.04598843,94.074127 L514.16087495,94.8626805 L515.27576147,95.644836 L516.39064799,96.422193 L517.50735622,97.1947515 L518.62224274,97.9625115 L519.73712926,98.7270725 L520.85201578,99.4884345 L521.9669023,100.2465975 L523.08178882,101.003161 L524.19849705,101.758125 L525.31338357,102.5114895 L526.42827009,103.2632545 L527.54315661,104.01342 L528.65804313,104.7635855 L529.77292965,105.5121515 L530.88963788,106.2607175 L532.0045244,107.007684 L533.11941092,107.7546505 L534.23429744,108.501617 L535.34918396,109.246984 L536.46407048,109.99251095 L537.578957,110.73787795 L538.69566523,111.48292505 L539.81055175,112.2278122 L540.92543827,112.97237945 L542.04032479,113.7169467 L543.15521131,114.461354 L544.27009783,115.20560135 L545.38680606,115.94968875 L546.50169258,116.69377615 L547.6165791,117.43786355 L548.73146562,118.181791 L549.84635214,118.92571845 L550.96123866,119.6696459 L552.07794689,120.4134134 L553.19283341,121.1571809 L554.30771993,121.9009484 L555.42260645,122.6447159 L556.53749297,123.3884834 L557.65237949,124.1322509 L558.76908772,124.87585845 L559.88397424,125.61962595 L560.99886076,126.3632335 L562.11374728,127.10684105 L563.2286338,127.85060855 L564.34352032,128.5942161 L565.45840684,129.33782365 L566.57511507,130.0814312 L567.69000159,130.82503875 L568.80488811,131.56880625 L569.91977463,132.3124138 L571.03466115,133.05602135 L572.14954767,133.7996289 L573.2662559,134.54323645 L574.38114242,135.286844 L575.49602894,136.03045155 L576.61091546,136.7740591 L577.72580198,137.51766665 L578.8406885,138.2612742 L579.95739673,139.00488175 L581.07228325,139.7484893 L582.18716977,140.49209685 L583.30205629,141.2357044 L584.41694281,141.97931195 L585.53182933,142.7229195 L586.64853756,143.46652705 L587.76342408,144.2101346 L588.8783106,144.9535822 L589.99319712,145.69718975 L591.10808364,146.4407973 L592.22297016,147.1842449 L593.33785668,147.92785245 L594.45456491,148.67130005 L595.56945143,149.4149076 L596.68433795,150.1583552 L597.79922447,150.90164285 L598.91411099,151.64509045 L600.02899751,152.3883781 L601.14570574,153.13166575 L602.26059226,153.87479345 L603.37547878,154.6177612 L604.4903653,155.36072895 L605.60525182,156.10353675 L606.72013834,156.84602465 L607.83684657,157.5883526 L608.95173309,158.3302007 L610.06661961,159.0717289 L611.18150613,159.8129372 L612.29639265,160.55334575 L613.41127917,161.29295455 L614.5279874,162.0317636 L615.64287392,162.769453 L616.75776044,163.5055429 L617.87264696,164.2400333 L618.98753348,164.9722844 L620.10242,165.70181635 L621.21730652,166.4278294 L622.33401475,167.1498437 L623.44890127,167.8667396 L624.56378779,168.5772375 L625.67867431,169.27989785 L626.79356083,169.9729612 L627.90844735,170.65418825 L629.02515558,171.32085985 L630.1400421,171.96961705 L631.25492862,172.596781 L632.36981514,173.1975532 L633.48470166,173.7663354 L634.59958818,174.2970495 L635.71629641,174.78217785 L636.83118293,175.21372295 L637.94606945,175.5827276 L639.06095597,175.8799147 L640.17584249,176.09568725 L641.29072901,176.21980845 L642.40743724,176.27803025 L643.52232376,176.31801775 L644.63721028,176.3415304 " fill-rule="evenodd" vector-effect="non-scaling-stroke"/>
                        </g>
                    </g>
                </g>
                <g id="PlotDataItem_4">
                    <g fill="none" fill-rule="evenodd" id="PlotCurveItem_4" stroke="black" stroke-linecap="square" stroke-linejoin="bevel" stroke-width="1">
                        <g fill="none" font-family="MS Shell Dlg 2" font-size="11" font-style="normal" font-weight="400" stroke="#8a7c91" stroke-linecap="square" stroke-linejoin="bevel" stroke-opacity="1" stroke-width="1">
                            <path d="M88.1631000182,83.773347 L89.2782779936,83.773347 L90.3934559872,83.7749465 L91.5086339808,83.7749465 L92.6238119744,83.776546 L93.738989968,83.7781455 L94.8541679616,83.7813445 L95.9693459552,83.782944 L97.0845239488,83.786143 L98.1997019424,83.789342 L99.314879936,83.792541 L100.43005793,83.7973395 L101.545235923,83.8005385 L102.660413917,83.805337 L103.77559191,83.811735 L104.890769904,83.8165335 L106.005947898,83.8229315 L107.121089457,83.8293295 L108.236340319,83.8357275 L109.35140901,83.8421255 L110.466659872,83.8485235 L111.581910734,83.856521 L112.696979425,83.8645185 L113.812230287,83.872516 L114.927298978,83.8805135 L116.04254984,83.8901105 L117.157800702,83.898108 L118.272869393,83.907705 L119.388120255,83.917302 L120.503188946,83.926899 L121.618439808,83.936496 L122.73369067,83.9476925 L123.848759361,83.9572895 L124.964010223,83.9668865 L126.079078914,83.9764835 L127.194329776,83.98768 L128.309580638,83.997277 L129.424649329,84.006874 L130.539900191,84.016471 L131.654968882,84.0244685 L132.770219744,84.0340655 L133.885470606,84.042063 L135.000539297,84.048461 L136.115790159,84.054859 L137.23085885,84.0596575 L138.346109712,84.0628565 L139.461360574,84.0660555 L140.576429265,84.0660555 L141.691680127,84.064456 L142.806748818,84.0596575 L143.92199968,84.05166 L145.037250542,84.042063 L146.152319233,84.0276675 L147.267570095,84.0084735 L148.382638786,83.984481 L149.497889648,83.9540905 L150.61314051,83.9157025 L151.728209201,83.8677175 L152.843460063,83.8005385 L153.958528754,83.6821755 L155.073779616,83.4102605 L156.189030478,83.107955 L157.304099169,82.8760275 L158.419350031,82.711279 L159.534418722,82.6105105 L160.649669584,82.5689235 L161.764920446,82.5881175 L162.879989137,82.6680925 L163.995239999,82.810448 L165.11030869,83.0167835 L166.225559552,83.293497 L167.340810414,83.5222255 L168.455879105,83.6469865 L169.571129967,83.7365585 L170.686198658,83.8101355 L171.80144952,83.8741155 L172.916700382,83.933297 L174.031769073,83.9860805 L175.147019935,84.0340655 L176.262088626,84.0788515 L177.377339488,84.118839 L178.49259035,84.1556275 L179.607659041,84.1908165 L180.722909903,84.2228065 L181.837978594,84.253197 L182.953229456,84.281988 L184.068480318,84.3091795 L185.183549009,84.3347715 L186.298799871,84.3603635 L187.413868562,84.384356 L188.529119424,84.406749 L189.644370286,84.429142 L190.759438977,84.451535 L191.874689839,84.473928 L192.98975853,84.4947215 L194.105009392,84.515515 L195.220260254,84.537908 L196.335328945,84.5587015 L197.450579807,84.579495 L198.565648498,84.6002885 L199.68089936,84.621082 L200.796150222,84.643475 L201.911218913,84.6642685 L203.026469775,84.6866615 L204.141538466,84.7090545 L205.256789328,84.7314475 L206.37204019,84.7538405 L207.487108881,84.7762335 L208.602359743,84.7986265 L209.717428434,84.822619 L210.832679296,84.8466115 L211.947930158,84.870604 L213.062998849,84.8945965 L214.178249711,84.9201885 L215.293318402,84.9457805 L216.408569264,84.9713725 L217.523820126,84.9969645 L218.638888817,85.0225565 L219.754139679,85.049748 L220.86920837,85.0769395 L221.984459232,85.104131 L223.099710094,85.1313225 L224.214778785,85.1601135 L225.330029647,85.187305 L226.445098338,85.216096 L227.5603492,85.244887 L228.675600062,85.273678 L229.790668753,85.302469 L230.905919615,85.33126 L232.020988306,85.360051 L233.136239168,85.388842 L234.25149003,85.417633 L235.366558721,85.446424 L236.481809583,85.475215 L237.596878274,85.5024065 L238.712129136,85.529598 L239.827379998,85.55519 L240.942448689,85.580782 L242.057699551,85.6047745 L243.172768242,85.6271675 L244.288019104,85.647961 L245.403269966,85.667155 L246.518338657,85.6815505 L247.633589519,85.6879485 L248.74865821,85.6719535 L249.863909072,85.6463615 L250.979159934,85.686349 L252.094228625,85.7967145 L253.209479487,85.919876 L254.324548178,86.015846 L255.43979904,86.102219 L256.555049902,86.185393 L257.670118593,86.265368 L258.785369455,86.345343 L259.900438146,86.4237185 L261.015689008,86.502094 L262.13093987,86.5804695 L263.246008561,86.6572455 L264.361259423,86.735621 L265.476328114,86.812397 L266.591578976,86.8907725 L267.706829838,86.9675485 L268.821898529,87.045924 L269.937149391,87.125899 L271.05185374,87.205874 L272.16674026,87.285849 L273.28344849,87.3674235 L274.39833501,87.448998 L275.51322153,87.532172 L276.62810805,87.615346 L277.74299457,87.701719 L278.85788109,87.788092 L279.97458932,87.874465 L281.08947584,87.964037 L282.20436236,88.0552085 L283.31924888,88.14638 L284.4341354,88.2407505 L285.54902192,88.3079295 L286.66390844,88.344718 L287.78061667,88.3815065 L288.89550319,88.4198945 L290.01038971,88.456683 L291.12527623,88.4934715 L292.24016275,88.5318595 L293.35504927,88.5702475 L294.4717575,88.6086355 L295.58664402,88.648623 L296.70153054,88.687011 L297.81641706,88.7269985 L298.93130358,88.766986 L300.0461901,88.808573 L301.16289833,88.8485605 L302.27778485,88.8901475 L303.39267137,88.9317345 L304.50755789,88.9733215 L305.62244441,89.016508 L306.73733093,89.058095 L307.85403916,89.1012815 L308.96892568,89.144468 L310.0838122,89.189254 L311.19869872,89.23404 L312.31358524,89.278826 L313.42847176,89.323612 L314.54335828,89.3699975 L315.66006651,89.4147835 L316.77495303,89.461169 L317.88983955,89.509154 L319.00472607,89.557139 L320.11961259,89.605124 L321.23449911,89.653109 L322.35120734,89.701094 L323.46609386,89.7506785 L324.58098038,89.8018625 L325.6958669,89.851447 L326.81075342,89.902631 L327.92563994,89.953815 L329.04234817,90.0065985 L330.15723469,90.0577825 L331.27212121,90.1121655 L332.38700773,90.164949 L333.50189425,90.219332 L334.61678077,90.273715 L335.733489,90.3296975 L336.84837552,90.38568 L337.96326204,90.4416625 L339.07814856,90.4992445 L340.19303508,90.5568265 L341.3079216,90.6144085 L342.42280812,90.67359 L343.53951635,90.7327715 L344.65440287,90.7935525 L345.76928939,90.8543335 L346.88417591,90.9151145 L347.99906243,90.977495 L349.11394895,91.0398755 L350.23065718,91.1038555 L351.3455437,91.1678355 L352.46043022,91.2318155 L353.57531674,91.2542085 L354.69020326,91.275002 L355.80508978,91.294196 L356.92179801,91.31339 L358.03668453,91.332584 L359.15157105,91.351778 L360.26645757,91.370972 L361.38134409,91.390166 L362.49623061,91.4109595 L363.61293884,91.4301535 L364.72782536,91.4493475 L365.84271188,91.4685415 L366.9575984,91.4877355 L368.07248492,91.5069295 L369.18737144,91.527723 L370.30225796,91.546917 L371.41896619,91.566111 L372.53385271,91.585305 L373.64873923,91.604499 L374.76362575,91.623693 L375.87851227,91.642887 L376.99339879,91.662081 L378.11010702,91.681275 L379.22499354,91.700469 L380.33988006,91.7180635 L381.45476658,91.7372575 L382.5696531,91.7564515 L383.68453962,91.774046 L384.80124785,91.79324 L385.91613437,91.8108345 L387.03102089,91.828429 L388.14590741,91.8460235 L389.26079393,91.863618 L390.37568045,91.879613 L391.49238868,91.8972075 L392.6072752,91.9132025 L393.72216172,91.9291975 L394.83704824,91.9451925 L395.95193476,91.959588 L397.06682128,91.975583 L398.1817078,91.9899785 L399.29841603,92.0027745 L400.41330255,92.0155705 L401.52818907,92.0283665 L402.64307559,92.039563 L403.75796211,92.0507595 L404.87284863,92.061956 L405.98955686,92.071553 L407.10444338,92.0795505 L408.2193299,92.087548 L409.33421642,92.093946 L410.44910294,92.0987445 L411.56398946,92.103543 L412.68069769,92.1051425 L413.79558421,92.106742 L414.91047073,92.106742 L416.02535725,92.1051425 L417.14024377,92.1019435 L418.25513029,92.097145 L419.37183852,92.090747 L420.48672504,92.08115 L421.60161156,92.068354 L422.71649808,92.0539585 L423.8313846,92.0347645 L424.94627112,92.0091725 L426.06115764,91.975583 L427.17786587,91.9004065 L428.29275239,91.703668 L429.40763891,91.5453175 L430.52252543,91.4269545 L431.63741195,91.342181 L432.75229847,91.2925965 L433.8690067,91.278201 L434.98389322,91.332584 L436.09877974,91.220619 L437.21366626,91.0494725 L438.32855278,90.8575325 L439.4434393,90.654396 L440.56014753,90.446461 L441.67503405,90.235327 L442.78992057,90.0257925 L443.90480709,89.819457 L445.01969361,89.614721 L446.13458013,89.416383 L447.25128836,89.221244 L448.36617488,89.0309035 L449.4810614,88.8453615 L450.59594792,88.6630185 L451.71083444,88.482275 L452.82572096,88.303131 L453.94060748,88.123987 L455.05731571,87.941644 L456.17220223,87.7545025 L457.28708875,87.560963 L458.40197527,87.356227 L459.51686179,87.1370955 L460.63174831,86.89877 L461.74845654,86.636452 L462.86334306,86.345343 L463.97822958,86.019045 L465.0931161,85.6495605 L466.20800262,85.232091 L467.32288914,84.7570395 L468.43959737,84.2196075 L469.55448389,83.6117975 L470.66937041,82.9112165 L471.78425693,81.988305 L472.89914345,79.963338 L474.01402997,79.166787 L475.1307382,78.898071 L476.24562472,78.373435 L477.36051124,77.9239755 L478.47539776,77.538496 L479.59028428,77.208999 L480.7051708,76.933885 L481.82005732,76.7083555 L482.93676555,76.2988835 L484.05165207,75.929399 L485.16653859,75.6174965 L486.28142511,75.356778 L487.39631163,75.1440445 L488.51119815,74.9776965 L489.62790638,74.8561345 L490.7427929,74.7761595 L491.85767942,74.736172 L492.97256594,74.688187 L494.08745246,74.6641945 L495.20233898,74.6865875 L496.31904721,74.758565 L497.43393373,74.8785275 L498.54882025,75.049674 L499.66370677,75.2720045 L500.77859329,75.5471185 L501.89347981,75.9054065 L503.01018804,76.2476995 L504.12507456,76.566 L505.23996108,76.8683055 L506.3548476,77.1530165 L507.46973412,77.4281305 L508.58462064,77.692048 L509.69950716,77.9495675 L510.81621539,78.200689 L511.93110191,78.4454125 L513.04598843,78.686937 L514.16087495,78.926862 L515.27576147,79.1619885 L516.39064799,79.397115 L517.50735622,79.6290425 L518.62224274,79.86097 L519.73712926,80.091298 L520.85201578,80.3200265 L521.9669023,80.548755 L523.08178882,80.7774835 L524.19849705,81.0046125 L525.31338357,81.2317415 L526.42827009,81.4588705 L527.54315661,81.6859995 L528.65804313,81.911529 L529.77292965,82.138658 L530.88963788,82.3641875 L532.0045244,82.589717 L533.11941092,82.8152465 L534.23429744,83.040776 L535.34918396,83.2663055 L536.46407048,83.4902355 L537.578957,83.715765 L538.69566523,83.939695 L539.81055175,84.1652245 L540.92543827,84.3891545 L542.04032479,84.6130845 L543.15521131,84.8370145 L544.27009783,85.059345 L545.38680606,85.283275 L546.50169258,85.5056055 L547.6165791,85.727936 L548.73146562,85.9502665 L549.84635214,86.172597 L550.96123866,86.393328 L552.07794689,86.614059 L553.19283341,86.83479 L554.30771993,87.055521 L555.42260645,87.2746525 L556.53749297,87.493784 L557.65237949,87.7129155 L558.76908772,87.9304475 L559.88397424,88.1479795 L560.99886076,88.363912 L562.11374728,88.5798445 L563.2286338,88.795777 L564.34352032,89.01011 L565.45840684,89.2228435 L566.57511507,89.435577 L567.69000159,89.646711 L568.80488811,89.857845 L569.91977463,90.0673795 L571.03466115,90.2753145 L572.14954767,90.4832495 L573.2662559,90.6879855 L574.38114242,90.8927215 L575.49602894,91.095858 L576.61091546,91.297395 L577.72580198,91.495733 L578.8406885,91.694071 L579.95739673,91.8908095 L581.07228325,92.084349 L582.18716977,92.276289 L583.30205629,92.4666295 L584.41694281,92.653771 L585.53182933,92.8377135 L586.64853756,93.0200565 L587.76342408,93.2008 L588.8783106,93.376745 L589.99319712,93.5510905 L591.10808364,93.722237 L592.22297016,93.888585 L593.33785668,94.051734 L594.45456491,94.211684 L595.56945143,94.368435 L596.68433795,94.5203875 L597.79922447,94.669141 L598.91411099,94.8114965 L600.02899751,94.950653 L601.14570574,95.085011 L602.26059226,95.2145705 L603.37547878,95.3393315 L604.4903653,95.4576945 L605.60525182,95.571259 L606.72013834,95.6784255 L607.83684657,95.7807935 L608.95173309,95.875164 L610.06661961,95.964736 L611.18150613,96.04791 L612.29639265,96.124686 L613.41127917,96.195064 L614.5279874,96.2574445 L615.64287392,96.313427 L616.75776044,96.361412 L617.87264696,96.402999 L618.98753348,96.438188 L620.10242,96.46378 L621.21730652,96.482974 L622.33401475,96.49577 L623.44890127,96.498969 L624.56378779,96.4941705 L625.67867431,96.482974 L626.79356083,96.4621805 L627.90844735,96.4333895 L629.02515558,96.396601 L630.1400421,96.3502155 L631.25492862,96.2958325 L632.36981514,96.230253 L633.48470166,96.156676 L634.59958818,96.070303 L635.71629641,95.9727335 L636.83118293,95.8607685 L637.94606945,95.734408 L639.06095597,95.5920525 L640.17584249,95.4289035 L641.29072901,95.2465605 L642.40743724,95.110603 L643.52232376,95.011434 L644.63721028,94.953852 " fill-rule="evenodd" vector-effect="non-scaling-stroke"/>
                        </g>
                    </g>
                </g>
                <g id="PlotDataItem_5">
                    <g fill="none" fill-rule="evenodd" id="PlotCurveItem_5" stroke="black" stroke-linecap="square" stroke-linejoin="bevel" stroke-width="1">
                        <g fill="none" font-family="MS Shell Dlg 2" font-size="11" font-style="normal" font-weight="400" stroke="#ff2e70" stroke-linecap="square" stroke-linejoin="bevel" stroke-opacity="1" stroke-width="1">
                            <path d="M88.1631000182,64.28184 L89.2782779936,64.2834395 L90.3934559872,64.2834395 L91.5086339808,64.285039 L92.6238119744,64.2866385 L93.738989968,64.288238 L94.8541679616,64.2898375 L95.9693459552,64.2930365 L97.0845239488,64.2962355 L98.1997019424,64.2994345 L99.314879936,64.3026335 L100.43005793,64.307432 L101.545235923,64.3122305 L102.660413917,64.317029 L103.77559191,64.323427 L104.890769904,64.3282255 L106.005947898,64.3346235 L107.121089457,64.3410215 L108.236340319,64.349019 L109.35140901,64.3570165 L110.466659872,64.365014 L111.581910734,64.3730115 L112.696979425,64.381009 L113.812230287,64.390606 L114.927298978,64.400203 L116.04254984,64.4098 L117.157800702,64.4209965 L118.272869393,64.4305935 L119.388120255,64.44179 L120.503188946,64.4529865 L121.618439808,64.4657825 L122.73369067,64.476979 L123.848759361,64.489775 L124.964010223,64.502571 L126.079078914,64.515367 L127.194329776,64.5297625 L128.309580638,64.5425585 L129.424649329,64.556954 L130.539900191,64.5713495 L131.654968882,64.585745 L132.770219744,64.6001405 L133.885470606,64.6161355 L135.000539297,64.630531 L136.115790159,64.646526 L137.23085885,64.6609215 L138.346109712,64.675317 L139.461360574,64.691312 L140.576429265,64.7057075 L141.691680127,64.720103 L142.806748818,64.7344985 L143.92199968,64.7472945 L145.037250542,64.7600905 L146.152319233,64.7728865 L147.267570095,64.784083 L148.382638786,64.79368 L149.497889648,64.8016775 L150.61314051,64.8080755 L151.728209201,64.809675 L152.843460063,64.7952795 L153.958528754,64.7376975 L155.073779616,64.524964 L156.189030478,64.269044 L157.304099169,64.0691065 L158.419350031,63.923552 L159.534418722,63.8323805 L160.649669584,63.7907935 L161.764920446,63.8003905 L162.879989137,63.8611715 L163.995239999,63.9731365 L165.11030869,64.137885 L166.225559552,64.3570165 L167.340810414,64.521765 L168.455879105,64.585745 L169.571129967,64.617735 L170.686198658,64.640128 L171.80144952,64.659322 L172.916700382,64.6769165 L174.031769073,64.6929115 L175.147019935,64.707307 L176.262088626,64.720103 L177.377339488,64.732899 L178.49259035,64.745695 L179.607659041,64.7568915 L180.722909903,64.768088 L181.837978594,64.7792845 L182.953229456,64.790481 L184.068480318,64.800078 L185.183549009,64.8112745 L186.298799871,64.822471 L187.413868562,64.832068 L188.529119424,64.8432645 L189.644370286,64.854461 L190.759438977,64.8656575 L191.874689839,64.876854 L192.98975853,64.8880505 L194.105009392,64.899247 L195.220260254,64.912043 L196.335328945,64.9232395 L197.450579807,64.9360355 L198.565648498,64.9488315 L199.68089936,64.963227 L200.796150222,64.976023 L201.911218913,64.9904185 L203.026469775,65.004814 L204.141538466,65.0192095 L205.256789328,65.0352045 L206.37204019,65.0511995 L207.487108881,65.0671945 L208.602359743,65.0831895 L209.717428434,65.0991845 L210.832679296,65.116779 L211.947930158,65.1343735 L213.062998849,65.151968 L214.178249711,65.171162 L215.293318402,65.190356 L216.408569264,65.20955 L217.523820126,65.228744 L218.638888817,65.2495375 L219.754139679,65.270331 L220.86920837,65.2911245 L221.984459232,65.311918 L223.099710094,65.334311 L224.214778785,65.356704 L225.330029647,65.379097 L226.445098338,65.4030895 L227.5603492,65.427082 L228.675600062,65.4510745 L229.790668753,65.475067 L230.905919615,65.500659 L232.020988306,65.526251 L233.136239168,65.551843 L234.25149003,65.577435 L235.366558721,65.603027 L236.481809583,65.6302185 L237.596878274,65.65741 L238.712129136,65.6846015 L239.827379998,65.711793 L240.942448689,65.7389845 L242.057699551,65.7677755 L243.172768242,65.794967 L244.288019104,65.8221585 L245.403269966,65.8509495 L246.518338657,65.8765415 L247.633589519,65.897335 L248.74865821,65.8989345 L249.863909072,65.8861385 L250.979159934,65.9213275 L252.094228625,66.006101 L253.209479487,66.095673 L254.324548178,66.159653 L255.43979904,66.217235 L256.555049902,66.2732175 L257.670118593,66.3276005 L258.785369455,66.383583 L259.900438146,66.4395655 L261.015689008,66.495548 L262.13093987,66.55313 L263.246008561,66.610712 L264.361259423,66.668294 L265.476328114,66.7274755 L266.591578976,66.786657 L267.706829838,66.8458385 L268.821898529,66.908219 L269.937149391,66.969 L271.05185374,67.0313805 L272.16674026,67.0953605 L273.28344849,67.1593405 L274.39833501,67.22492 L275.51322153,67.2904995 L276.62810805,67.3576785 L277.74299457,67.426457 L278.85788109,67.4952355 L279.97458932,67.5656135 L281.08947584,67.637591 L282.20436236,67.7095685 L283.31924888,67.7831455 L284.4341354,67.858322 L285.54902192,67.9143045 L286.66390844,67.9430955 L287.78061667,67.973486 L288.89550319,68.002277 L290.01038971,68.0326675 L291.12527623,68.063058 L292.24016275,68.0934485 L293.35504927,68.1254385 L294.4717575,68.155829 L295.58664402,68.187819 L296.70153054,68.219809 L297.81641706,68.251799 L298.93130358,68.283789 L300.0461901,68.3173785 L301.16289833,68.3493685 L302.27778485,68.382958 L303.39267137,68.4165475 L304.50755789,68.450137 L305.62244441,68.485326 L306.73733093,68.5189155 L307.85403916,68.5541045 L308.96892568,68.5892935 L310.0838122,68.6244825 L311.19869872,68.661271 L312.31358524,68.69646 L313.42847176,68.7332485 L314.54335828,68.770037 L315.66006651,68.808425 L316.77495303,68.8452135 L317.88983955,68.8836015 L319.00472607,68.9219895 L320.11961259,68.9603775 L321.23449911,69.000365 L322.35120734,69.038753 L323.46609386,69.0787405 L324.58098038,69.118728 L325.6958669,69.160315 L326.81075342,69.2003025 L327.92563994,69.2418895 L329.04234817,69.285076 L330.15723469,69.326663 L331.27212121,69.3698495 L332.38700773,69.413036 L333.50189425,69.4562225 L334.61678077,69.499409 L335.733489,69.544195 L336.84837552,69.588981 L337.96326204,69.6353665 L339.07814856,69.6801525 L340.19303508,69.726538 L341.3079216,69.7729235 L342.42280812,69.8209085 L343.53951635,69.8688935 L344.65440287,69.9168785 L345.76928939,69.9648635 L346.88417591,70.014448 L347.99906243,70.0640325 L349.11394895,70.1152165 L350.23065718,70.164801 L351.3455437,70.215985 L352.46043022,70.2687685 L353.57531674,70.2879625 L354.69020326,70.302358 L355.80508978,70.318353 L356.92179801,70.334348 L358.03668453,70.350343 L359.15157105,70.366338 L360.26645757,70.382333 L361.38134409,70.398328 L362.49623061,70.414323 L363.61293884,70.430318 L364.72782536,70.446313 L365.84271188,70.462308 L366.9575984,70.478303 L368.07248492,70.4958975 L369.18737144,70.5118925 L370.30225796,70.5278875 L371.41896619,70.545482 L372.53385271,70.561477 L373.64873923,70.5790715 L374.76362575,70.5950665 L375.87851227,70.612661 L376.99339879,70.628656 L378.11010702,70.6462505 L379.22499354,70.663845 L380.33988006,70.67984 L381.45476658,70.6974345 L382.5696531,70.715029 L383.68453962,70.7326235 L384.80124785,70.750218 L385.91613437,70.7678125 L387.03102089,70.785407 L388.14590741,70.8030015 L389.26079393,70.820596 L390.37568045,70.8381905 L391.49238868,70.855785 L392.6072752,70.8733795 L393.72216172,70.890974 L394.83704824,70.9085685 L395.95193476,70.926163 L397.06682128,70.945357 L398.1817078,70.9629515 L399.29841603,70.980546 L400.41330255,70.9981405 L401.52818907,71.0173345 L402.64307559,71.034929 L403.75796211,71.0525235 L404.87284863,71.070118 L405.98955686,71.089312 L407.10444338,71.1069065 L408.2193299,71.124501 L409.33421642,71.1420955 L410.44910294,71.1612895 L411.56398946,71.178884 L412.68069769,71.1964785 L413.79558421,71.214073 L414.91047073,71.2316675 L416.02535725,71.249262 L417.14024377,71.2668565 L418.25513029,71.284451 L419.37183852,71.3020455 L420.48672504,71.3180405 L421.60161156,71.3340355 L422.71649808,71.3500305 L423.8313846,71.3628265 L424.94627112,71.374023 L426.06115764,71.380421 L427.17786587,71.3564285 L428.29275239,71.242864 L429.40763891,71.1452945 L430.52252543,71.06372 L431.63741195,70.996541 L432.75229847,70.945357 L433.8690067,70.906969 L434.98389322,70.529487 L436.09877974,69.860896 L437.21366626,69.2290935 L438.32855278,68.6532735 L439.4434393,68.123839 L440.56014753,67.6359915 L441.67503405,67.1849325 L442.78992057,66.7658635 L443.90480709,66.373986 L445.01969361,66.0077005 L446.13458013,65.663808 L447.25128836,65.3391095 L448.36617488,65.033605 L449.4810614,64.742496 L450.59594792,64.467382 L451.71083444,64.2034645 L452.82572096,63.9507435 L453.94060748,63.70602 L455.05731571,63.469294 L456.17220223,63.2373665 L457.28708875,63.0102375 L458.40197527,62.7831085 L459.51686179,62.55438 L460.63174831,62.3224525 L461.74845654,62.0825275 L462.86334306,61.831406 L463.97822958,61.5642895 L465.0931161,61.2763795 L466.20800262,60.9628775 L467.32288914,60.6173855 L468.43959737,60.2335055 L469.55448389,59.8016405 L470.66937041,59.2929995 L471.78425693,58.5252395 L472.89914345,56.2859395 L474.01402997,55.3294385 L475.1307382,54.998342 L476.24562472,54.355343 L477.36051124,53.8035155 L478.47539776,53.3268645 L479.59028428,52.9173925 L480.7051708,52.5687015 L481.82005732,52.275993 L482.93676555,51.792944 L484.05165207,51.3562805 L485.16653859,50.9851965 L486.28142511,50.6716945 L487.39631163,50.4125755 L488.51119815,50.203041 L489.62790638,50.039892 L490.7427929,49.921529 L491.85767942,49.847952 L492.97256594,49.4624725 L494.08745246,48.9890205 L495.20233898,48.5955435 L496.31904721,48.274044 L497.43393373,48.0197235 L498.54882025,47.826184 L499.66370677,47.691826 L500.77859329,47.6134505 L501.89347981,47.5558685 L503.01018804,47.496687 L504.12507456,47.439105 L505.23996108,47.3863215 L506.3548476,47.343135 L507.46973412,47.3095455 L508.58462064,47.2871525 L509.69950716,47.279155 L510.81621539,47.2839535 L511.93110191,47.3031475 L513.04598843,47.336737 L514.16087495,47.3863215 L515.27576147,47.451901 L516.39064799,47.5334755 L517.50735622,47.634244 L518.62224274,47.7510075 L519.73712926,47.886965 L520.85201578,48.0421165 L521.9669023,48.2180615 L523.08178882,48.4148 L524.19849705,48.6339315 L525.31338357,48.878655 L526.42827009,49.147371 L527.54315661,49.4464775 L528.65804313,49.774375 L529.77292965,50.1374615 L530.88963788,50.5373365 L532.0045244,50.9787985 L533.11941092,51.469845 L534.23429744,52.013675 L535.34918396,52.6230845 L536.46407048,53.30927 L537.578957,54.089826 L538.69566523,54.988745 L539.81055175,56.0396165 L540.92543827,57.2968235 L542.04032479,58.856336 L543.15521131,60.8909 L544.27009783,63.8067885 L545.38680606,68.9635765 L618.98753348,69.521802 L620.10242,64.061109 L621.21730652,61.0524495 L622.33401475,58.9699005 L623.44890127,57.3831965 L624.56378779,56.1035965 L625.67867431,55.03673 L626.79356083,54.125015 L627.90844735,53.3332625 L629.02515558,52.634281 L630.1400421,52.0120755 L631.25492862,51.45385 L632.36981514,50.948408 L633.48470166,50.487752 L634.59958818,50.0670835 L635.71629641,49.678405 L636.83118293,49.316918 L637.94606945,48.9794235 L639.06095597,48.6595235 L640.17584249,48.354019 L641.29072901,48.0613105 L642.40743724,47.8565745 L643.52232376,47.71102 L644.63721028,47.624647 " fill-rule="evenodd" vector-effect="non-scaling-stroke"/>
                        </g>
                    </g>
                </g>
            </g>
            <g fill="none" fill-rule="evenodd" id="LegendItem_1" stroke="black" stroke-linecap="square" stroke-linejoin="bevel" stroke-width="1">
                <g fill="#646464" fill-opacity="0.196078" font-family="MS Shell Dlg 2" font-size="11" font-style="normal" font-weight="400" stroke="#ffffff" stroke-linecap="square" stroke-linejoin="bevel" stroke-opacity="0.392157" stroke-width="1">
                    <path d="M94.8,61.0 L179.8,61.0 L179.8,208.0 L94.8,208.0 L94.8,61.0 " fill-rule="evenodd" vector-effect="non-scaling-stroke"/>
                </g>
                <g fill="none" fill-rule="evenodd" id="ItemSample_1" stroke="black" stroke-linecap="square" stroke-linejoin="bevel" stroke-width="1">
                    <g fill="none" font-family="MS Shell Dlg 2" font-size="11" font-style="normal" font-weight="400" stroke="#ed815e" stroke-linecap="square" stroke-linejoin="bevel" stroke-opacity="1" stroke-width="1">
                        <polyline fill="none" points="105.8,88.0 121.8,72.0" vector-effect="non-scaling-stroke"/>
                    </g>
                </g>
                <g fill="none" fill-rule="evenodd" id="LabelItem_1" stroke="black" stroke-linecap="square" stroke-linejoin="bevel" stroke-width="1">
                    <g fill="none" fill-rule="evenodd" id="QGraphicsTextItem_3" stroke="black" stroke-linecap="square" stroke-linejoin="bevel" stroke-width="1">
                        


                        


                        <g fill="none" font-family="MS Shell Dlg 2" font-size="11" font-style="normal" font-weight="400" stroke="#969696" stroke-linecap="square" stroke-linejoin="bevel" stroke-opacity="1" stroke-width="1" transform="matrix(1,0,0,1,118.8,70)">
                            <text fill="#969696" fill-opacity="1" font-family="&quot;MS Shell Dlg 2&quot;, sans-serif" font-size="11" font-style="normal" font-weight="400" stroke="none" x="4" xml:space="preserve" y="15">1e-06 A</text>
                        </g>
                        


                        

                    </g>
                </g>
                <g fill="none" fill-rule="evenodd" id="ItemSample_2" stroke="black" stroke-linecap="square" stroke-linejoin="bevel" stroke-width="1">
                    <g fill="none" font-family="MS Shell Dlg 2" font-size="11" font-style="normal" font-weight="400" stroke="#c7b069" stroke-linecap="square" stroke-linejoin="bevel" stroke-opacity="1" stroke-width="1">
                        <polyline fill="none" points="105.8,115.0 121.8,99.0" vector-effect="non-scaling-stroke"/>
                    </g>
                </g>
                <g fill="none" fill-rule="evenodd" id="LabelItem_2" stroke="black" stroke-linecap="square" stroke-linejoin="bevel" stroke-width="1">
                    <g fill="none" fill-rule="evenodd" id="QGraphicsTextItem_4" stroke="black" stroke-linecap="square" stroke-linejoin="bevel" stroke-width="1">
                        


                        


                        <g fill="none" font-family="MS Shell Dlg 2" font-size="11" font-style="normal" font-weight="400" stroke="#969696" stroke-linecap="square" stroke-linejoin="bevel" stroke-opacity="1" stroke-width="1" transform="matrix(1,0,0,1,118.8,97)">
                            <text fill="#969696" fill-opacity="1" font-family="&quot;MS Shell Dlg 2&quot;, sans-serif" font-size="11" font-style="normal" font-weight="400" stroke="none" x="4" xml:space="preserve" y="15">15.65 A</text>
                        </g>
                        


                        

                    </g>
                </g>
                <g fill="none" fill-rule="evenodd" id="ItemSample_3" stroke="black" stroke-linecap="square" stroke-linejoin="bevel" stroke-width="1">
                    <g fill="none" font-family="MS Shell Dlg 2" font-size="11" font-style="normal" font-weight="400" stroke="#7ea695" stroke-linecap="square" stroke-linejoin="bevel" stroke-opacity="1" stroke-width="1">
                        <polyline fill="none" points="105.8,142.0 121.8,126.0" vector-effect="non-scaling-stroke"/>
                    </g>
                </g>
                <g fill="none" fill-rule="evenodd" id="LabelItem_3" stroke="black" stroke-linecap="square" stroke-linejoin="bevel" stroke-width="1">
                    <g fill="none" fill-rule="evenodd" id="QGraphicsTextItem_5" stroke="black" stroke-linecap="square" stroke-linejoin="bevel" stroke-width="1">
                        


                        


                        <g fill="none" font-family="MS Shell Dlg 2" font-size="11" font-style="normal" font-weight="400" stroke="#969696" stroke-linecap="square" stroke-linejoin="bevel" stroke-opacity="1" stroke-width="1" transform="matrix(1,0,0,1,112.8,124)">
                            <text fill="#969696" fill-opacity="1" font-family="&quot;MS Shell Dlg 2&quot;, sans-serif" font-size="11" font-style="normal" font-weight="400" stroke="none" x="4" xml:space="preserve" y="15">19.0625 A</text>
                        </g>
                        


                        

                    </g>
                </g>
                <g fill="none" fill-rule="evenodd" id="ItemSample_4" stroke="black" stroke-linecap="square" stroke-linejoin="bevel" stroke-width="1">
                    <g fill="none" font-family="MS Shell Dlg 2" font-size="11" font-style="normal" font-weight="400" stroke="#8a7c91" stroke-linecap="square" stroke-linejoin="bevel" stroke-opacity="1" stroke-width="1">
                        <polyline fill="none" points="105.8,169.0 121.8,153.0" vector-effect="non-scaling-stroke"/>
                    </g>
                </g>
                <g fill="none" fill-rule="evenodd" id="LabelItem_4" stroke="black" stroke-linecap="square" stroke-linejoin="bevel" stroke-width="1">
                    <g fill="none" fill-rule="evenodd" id="QGraphicsTextItem_6" stroke="black" stroke-linecap="square" stroke-linejoin="bevel" stroke-width="1">
                        


                        


                        <g fill="none" font-family="MS Shell Dlg 2" font-size="11" font-style="normal" font-weight="400" stroke="#969696" stroke-linecap="square" stroke-linejoin="bevel" stroke-opacity="1" stroke-width="1" transform="matrix(1,0,0,1,115.8,151)">
                            <text fill="#969696" fill-opacity="1" font-family="&quot;MS Shell Dlg 2&quot;, sans-serif" font-size="11" font-style="normal" font-weight="400" stroke="none" x="4" xml:space="preserve" y="15">22.475 A</text>
                        </g>
                        


                        

                    </g>
                </g>
                <g fill="none" fill-rule="evenodd" id="ItemSample_5" stroke="black" stroke-linecap="square" stroke-linejoin="bevel" stroke-width="1">
                    <g fill="none" font-family="MS Shell Dlg 2" font-size="11" font-style="normal" font-weight="400" stroke="#ff2e70" stroke-linecap="square" stroke-linejoin="bevel" stroke-opacity="1" stroke-width="1">
                        <polyline fill="none" points="105.8,196.0 121.8,180.0" vector-effect="non-scaling-stroke"/>
                    </g>
                </g>
                <g fill="none" fill-rule="evenodd" id="LabelItem_5" stroke="black" stroke-linecap="square" stroke-linejoin="bevel" stroke-width="1">
                    <g fill="none" fill-rule="evenodd" id="QGraphicsTextItem_7" stroke="black" stroke-linecap="square" stroke-linejoin="bevel" stroke-width="1">
                        


                        


                        <g fill="none" font-family="MS Shell Dlg 2" font-size="11" font-style="normal" font-weight="400" stroke="#969696" stroke-linecap="square" stroke-linejoin="bevel" stroke-opacity="1" stroke-width="1" transform="matrix(1,0,0,1,112.8,178)">
                            <text fill="#969696" fill-opacity="1" font-family="&quot;MS Shell Dlg 2&quot;, sans-serif" font-size="11" font-style="normal" font-weight="400" stroke="none" x="4" xml:space="preserve" y="15">23.6125 A</text>
                        </g>
                        


                        

                    </g>
                </g>
            </g>
        </g>
    </g>
    <g fill="none" fill-rule="evenodd" id="LabelItem_6" stroke="black" stroke-linecap="square" stroke-linejoin="bevel" stroke-width="1">
        <g fill="none" fill-rule="evenodd" id="QGraphicsTextItem_8" stroke="black" stroke-linecap="square" stroke-linejoin="bevel" stroke-width="1">
            


            


            <g fill="none" font-family="MS Shell Dlg 2" font-size="11" font-style="normal" font-weight="400" stroke="#969696" stroke-linecap="square" stroke-linejoin="bevel" stroke-opacity="1" stroke-width="1" transform="matrix(1,0,0,1,249.4,3)">
                <text fill="#969696" fill-opacity="1" font-family="&quot;MS Shell Dlg 2&quot;, sans-serif" font-size="14.6667" font-style="normal" font-weight="400" stroke="none" x="4" xml:space="preserve" y="19">Density profile at different currents</text>
            </g>
            


            

        </g>
    </g>
</g>

</svg>
