<?xml version="1.0" encoding="UTF-8" standalone="no"?>
<svg xmlns="http://www.w3.org/2000/svg" xmlns:xlink="http://www.w3.org/1999/xlink"  version="1.2" baseProfile="tiny">
<title>pyqtgraph SVG export</title>
<desc>Generated with Qt and pyqtgraph</desc>
<defs>
</defs>
<g fill="none" fill-rule="evenodd" id="PlotItem_1" stroke="black" stroke-linecap="square" stroke-linejoin="bevel" stroke-width="1">
    <g fill="none" fill-rule="evenodd" id="AxisItem_1" stroke="black" stroke-linecap="square" stroke-linejoin="bevel" stroke-width="1">
        <g fill="none" font-family="MS Shell Dlg 2" font-size="11" font-style="normal" font-weight="400" stroke="#969696" stroke-linecap="square" stroke-linejoin="bevel" stroke-opacity="1" stroke-width="1">
            <polyline fill="none" points="62.8,335.2 668.0,335.2" vector-effect="non-scaling-stroke"/>
        </g>
        <g fill="none" font-family="MS Shell Dlg 2" font-size="11" font-style="normal" font-weight="400" stroke="#969696" stroke-linecap="square" stroke-linejoin="bevel" stroke-opacity="1" stroke-width="1">
            <polyline fill="none" points="86.7037,335.2 86.7037,330.2" vector-effect="non-scaling-stroke"/>
        </g>
        <g fill="none" font-family="MS Shell Dlg 2" font-size="11" font-style="normal" font-weight="400" stroke="#969696" stroke-linecap="square" stroke-linejoin="bevel" stroke-opacity="0.498039" stroke-width="1">
            <polyline fill="none" points="272.835,335.2 272.835,331.86667" vector-effect="non-scaling-stroke"/>
            <polyline fill="none" points="458.965,335.2 458.965,331.86667" vector-effect="non-scaling-stroke"/>
            <polyline fill="none" points="645.096,335.2 645.096,331.86667" vector-effect="non-scaling-stroke"/>
        </g>
        <g fill="none" font-family="MS Shell Dlg 2" font-size="11" font-style="normal" font-weight="400" stroke="#969696" stroke-linecap="square" stroke-linejoin="bevel" stroke-opacity="0.333333" stroke-width="1">
            <polyline fill="none" points="179.769,335.2 179.769,332.7" vector-effect="non-scaling-stroke"/>
            <polyline fill="none" points="365.9,335.2 365.9,332.7" vector-effect="non-scaling-stroke"/>
            <polyline fill="none" points="552.031,335.2 552.031,332.7" vector-effect="non-scaling-stroke"/>
        </g>
        <g fill="none" font-family="MS Shell Dlg 2" font-size="11" font-style="normal" font-weight="400" stroke="#969696" stroke-linecap="square" stroke-linejoin="bevel" stroke-opacity="1" stroke-width="1" transform="matrix(1,0,0,1,63.3,335.2)">
            <text fill="#969696" fill-opacity="1" font-family="&quot;MS Shell Dlg 2&quot;, sans-serif" font-size="11" font-style="normal" font-weight="400" stroke="none" x="20.3906" xml:space="preserve" y="12">0</text>
            <text fill="#969696" fill-opacity="1" font-family="&quot;MS Shell Dlg 2&quot;, sans-serif" font-size="11" font-style="normal" font-weight="400" stroke="none" x="206.531" xml:space="preserve" y="12">2</text>
            <text fill="#969696" fill-opacity="1" font-family="&quot;MS Shell Dlg 2&quot;, sans-serif" font-size="11" font-style="normal" font-weight="400" stroke="none" x="392.656" xml:space="preserve" y="12">4</text>
            <text fill="#969696" fill-opacity="1" font-family="&quot;MS Shell Dlg 2&quot;, sans-serif" font-size="11" font-style="normal" font-weight="400" stroke="none" x="578.781" xml:space="preserve" y="12">6</text>
            <text fill="#969696" fill-opacity="1" font-family="&quot;MS Shell Dlg 2&quot;, sans-serif" font-size="11" font-style="normal" font-weight="400" stroke="none" x="113.469" xml:space="preserve" y="12">1</text>
            <text fill="#969696" fill-opacity="1" font-family="&quot;MS Shell Dlg 2&quot;, sans-serif" font-size="11" font-style="normal" font-weight="400" stroke="none" x="299.594" xml:space="preserve" y="12">3</text>
            <text fill="#969696" fill-opacity="1" font-family="&quot;MS Shell Dlg 2&quot;, sans-serif" font-size="11" font-style="normal" font-weight="400" stroke="none" x="485.719" xml:space="preserve" y="12">5</text>
        </g>
        <g fill="none" fill-rule="evenodd" id="QGraphicsTextItem_1" stroke="black" stroke-linecap="square" stroke-linejoin="bevel" stroke-width="1">
            


            


            <g fill="none" font-family="MS Shell Dlg 2" font-size="11" font-style="normal" font-weight="400" stroke="#ffffff" stroke-linecap="square" stroke-linejoin="bevel" stroke-opacity="1" stroke-width="1" transform="matrix(1,0,0,1,256.8,353.2)">
                <text fill="#ffffff" fill-opacity="1" font-family="&quot;MS Shell Dlg 2&quot;, sans-serif" font-size="18.6667" font-style="normal" font-weight="400" stroke="none" x="4" xml:space="preserve" y="23">Axis along beam line (m)</text>
            </g>
            


            

        </g>
    </g>
    <g fill="none" fill-rule="evenodd" id="AxisItem_2" stroke="black" stroke-linecap="square" stroke-linejoin="bevel" stroke-width="1">
        <g fill="none" font-family="MS Shell Dlg 2" font-size="11" font-style="normal" font-weight="400" stroke="#969696" stroke-linecap="square" stroke-linejoin="bevel" stroke-opacity="1" stroke-width="1">
            <polyline fill="none" points="62.8,31.0 62.8,335.2" vector-effect="non-scaling-stroke"/>
        </g>
        <g fill="none" font-family="MS Shell Dlg 2" font-size="11" font-style="normal" font-weight="400" stroke="#969696" stroke-linecap="square" stroke-linejoin="bevel" stroke-opacity="1" stroke-width="1">
            <polyline fill="none" points="63.3,308.534 68.3,308.534" vector-effect="non-scaling-stroke"/>
            <polyline fill="none" points="63.3,99.5198 68.3,99.5198" vector-effect="non-scaling-stroke"/>
        </g>
        <g fill="none" font-family="MS Shell Dlg 2" font-size="11" font-style="normal" font-weight="400" stroke="#969696" stroke-linecap="square" stroke-linejoin="bevel" stroke-opacity="0.498039" stroke-width="1">
            <polyline fill="none" points="63.3,204.027 66.6333,204.027" vector-effect="non-scaling-stroke"/>
        </g>
        <g fill="none" font-family="MS Shell Dlg 2" font-size="11" font-style="normal" font-weight="400" stroke="#969696" stroke-linecap="square" stroke-linejoin="bevel" stroke-opacity="0.333333" stroke-width="1">
            <polyline fill="none" points="63.3,331.718 65.8,331.718" vector-effect="non-scaling-stroke"/>
            <polyline fill="none" points="63.3,324.722 65.8,324.722" vector-effect="non-scaling-stroke"/>
            <polyline fill="none" points="63.3,318.661 65.8,318.661" vector-effect="non-scaling-stroke"/>
            <polyline fill="none" points="63.3,313.315 65.8,313.315" vector-effect="non-scaling-stroke"/>
            <polyline fill="none" points="63.3,308.534 65.8,308.534" vector-effect="non-scaling-stroke"/>
            <polyline fill="none" points="63.3,277.074 65.8,277.074" vector-effect="non-scaling-stroke"/>
            <polyline fill="none" points="63.3,258.671 65.8,258.671" vector-effect="non-scaling-stroke"/>
            <polyline fill="none" points="63.3,245.614 65.8,245.614" vector-effect="non-scaling-stroke"/>
            <polyline fill="none" points="63.3,235.486 65.8,235.486" vector-effect="non-scaling-stroke"/>
            <polyline fill="none" points="63.3,227.211 65.8,227.211" vector-effect="non-scaling-stroke"/>
            <polyline fill="none" points="63.3,220.215 65.8,220.215" vector-effect="non-scaling-stroke"/>
            <polyline fill="none" points="63.3,214.154 65.8,214.154" vector-effect="non-scaling-stroke"/>
            <polyline fill="none" points="63.3,208.809 65.8,208.809" vector-effect="non-scaling-stroke"/>
            <polyline fill="none" points="63.3,204.027 65.8,204.027" vector-effect="non-scaling-stroke"/>
            <polyline fill="none" points="63.3,172.567 65.8,172.567" vector-effect="non-scaling-stroke"/>
            <polyline fill="none" points="63.3,154.164 65.8,154.164" vector-effect="non-scaling-stroke"/>
            <polyline fill="none" points="63.3,141.107 65.8,141.107" vector-effect="non-scaling-stroke"/>
            <polyline fill="none" points="63.3,130.9795 65.8,130.9795" vector-effect="non-scaling-stroke"/>
            <polyline fill="none" points="63.3,122.7045 65.8,122.7045" vector-effect="non-scaling-stroke"/>
            <polyline fill="none" points="63.3,115.7081 65.8,115.7081" vector-effect="non-scaling-stroke"/>
            <polyline fill="none" points="63.3,109.6475 65.8,109.6475" vector-effect="non-scaling-stroke"/>
            <polyline fill="none" points="63.3,104.3017 65.8,104.3017" vector-effect="non-scaling-stroke"/>
            <polyline fill="none" points="63.3,99.5198 65.8,99.5198" vector-effect="non-scaling-stroke"/>
            <polyline fill="none" points="63.3,68.0601 65.8,68.0601" vector-effect="non-scaling-stroke"/>
            <polyline fill="none" points="63.3,49.6573 65.8,49.6573" vector-effect="non-scaling-stroke"/>
            <polyline fill="none" points="63.3,36.60036 65.8,36.60036" vector-effect="non-scaling-stroke"/>
        </g>
        <g fill="none" font-family="MS Shell Dlg 2" font-size="11" font-style="normal" font-weight="400" stroke="#969696" stroke-linecap="square" stroke-linejoin="bevel" stroke-opacity="1" stroke-width="1" transform="matrix(1,0,0,1,1.5,31)">
            <text fill="#969696" fill-opacity="1" font-family="&quot;MS Shell Dlg 2&quot;, sans-serif" font-size="11" font-style="normal" font-weight="400" stroke="none" x="24.7969" xml:space="preserve" y="282.328">1e+04</text>
            <text fill="#969696" fill-opacity="1" font-family="&quot;MS Shell Dlg 2&quot;, sans-serif" font-size="11" font-style="normal" font-weight="400" stroke="none" x="24.7969" xml:space="preserve" y="73.3125">1e+06</text>
            <text fill="#969696" fill-opacity="1" font-family="&quot;MS Shell Dlg 2&quot;, sans-serif" font-size="11" font-style="normal" font-weight="400" stroke="none" x="24.7969" xml:space="preserve" y="177.812">1e+05</text>
        </g>
        <g fill="none" fill-rule="evenodd" id="QGraphicsTextItem_2" stroke="black" stroke-linecap="square" stroke-linejoin="bevel" stroke-width="1">
            


            


            <g fill="none" font-family="MS Shell Dlg 2" font-size="11" font-style="normal" font-weight="400" stroke="#ffffff" stroke-linecap="square" stroke-linejoin="bevel" stroke-opacity="1" stroke-width="1" transform="matrix(0,-1,1,0,-4,295)">
                <text fill="#ffffff" fill-opacity="1" font-family="&quot;MS Shell Dlg 2&quot;, sans-serif" font-size="18.6667" font-style="normal" font-weight="400" stroke="none" x="4" xml:space="preserve" y="23">Density (particles per m3)</text>
            </g>
            


            

        </g>
    </g>
    <g fill="none" fill-rule="evenodd" id="ViewBox_1" stroke="black" stroke-linecap="square" stroke-linejoin="bevel" stroke-width="1">
        <g fill="none" font-family="MS Shell Dlg 2" font-size="11" font-style="normal" font-weight="400" stroke="none">
            <path d="M62.8,31.0 L668.0,31.0 L668.0,335.2 L62.8,335.2 L62.8,31.0 " fill-rule="evenodd" vector-effect="non-scaling-stroke"/>
        </g>
        <clipPath id="ViewBox_1_clip">
            <path d="M62.8,31.0 L668.0,31.0 L668.0,335.2 L62.8,335.2 L62.8,31.0 " fill-rule="evenodd" vector-effect="non-scaling-stroke"/>
        </clipPath>
        <g clip-path="url(#ViewBox_1_clip)">
            <g fill="none" fill-rule="evenodd" id="ChildGroup_1" stroke="black" stroke-linecap="square" stroke-linejoin="bevel" stroke-width="1">
                <g id="PlotDataItem_1">
                    <g fill="none" fill-rule="evenodd" id="PlotCurveItem_1" stroke="black" stroke-linecap="square" stroke-linejoin="bevel" stroke-width="1">
                        <g fill="none" font-family="MS Shell Dlg 2" font-size="11" font-style="normal" font-weight="400" stroke="#ed815e" stroke-linecap="square" stroke-linejoin="bevel" stroke-opacity="1" stroke-width="1">
                            <path d="M86.2037000931,316.11289271 L87.3204848,313.20132769 L88.4372696,310.48519076 L89.5540544,307.94149038 L90.6708392,305.55037022 L91.787624,303.2971993 L92.9044088,301.16734664 L94.0211936,299.1482714 L95.1379784,297.22952288 L96.2547632,295.40378559 L97.371548,293.66269897 L98.4883328,291.9999926 L99.6051176,290.40835099 L100.7219024,288.88359386 L101.8386872,287.42049586 L102.955472,286.01487671 L104.0722568,284.66882655 L105.1890416,283.36666933 L106.3058264,282.11154026 L107.4226112,280.9013492 L108.539396,279.73296094 L109.6561808,278.60324027 L110.7729656,277.51114212 L111.8897504,276.45353128 L113.0065352,275.43040775 L114.12332,274.43863632 L115.2401048,273.47717192 L116.3568896,272.54392441 L117.4736744,271.63889379 L118.5904592,270.75894485 L119.707244,269.90512266 L120.8240288,269.07429201 L121.9408136,268.27063318 L123.0575984,267.48474054 L124.1743832,266.72079437 L125.291168,265.97670453 L126.4079528,265.25142595 L127.5247376,264.54495863 L128.6415224,263.85730257 L129.7583072,263.18636763 L130.875092,262.53319888 L131.9918768,261.89466111 L133.1086616,261.27284446 L134.2254464,260.66670386 L135.3422312,260.07414917 L136.459016,259.49622546 L137.5758008,258.93188766 L138.6925856,258.38531605 L139.8093704,257.847105 L140.9261552,257.32247986 L142.04294,256.80935049 L143.1597248,256.30771689 L144.2765096,255.81757906 L145.3932944,255.33998207 L146.5100792,254.87179071 L147.626864,254.41509512 L148.7436488,253.96885023 L149.8604336,253.53201097 L150.9772184,253.10562241 L152.0940032,252.68863948 L153.210788,252.28210725 L154.3275728,251.88393558 L155.4443576,251.49412447 L156.5611424,251.1168542 L157.6779272,250.74480928 L158.794712,250.38112492 L159.9114968,250.02580112 L161.0282816,249.67883788 L162.1450664,249.33919013 L163.2618512,249.00790294 L164.378636,248.68393124 L165.4954208,248.36727503 L166.6122056,248.05793431 L167.7289904,247.75590908 L168.8457752,247.46119934 L169.96256,247.17276002 L171.0793448,246.89163619 L172.1961296,246.61678278 L173.3129144,246.34924486 L174.4296992,246.0900675 L175.546484,245.83507042 L176.6632688,245.58634376 L177.7800536,245.34388752 L178.8968384,245.10665663 L180.0136232,244.87674123 L181.130408,244.65100611 L182.2471928,244.43258648 L183.3639776,244.2193922 L184.4807624,244.01142327 L185.5975472,243.80972476 L186.714332,243.6132516 L187.8311168,243.42304886 L188.9479016,243.2370264 L190.0646864,243.05727436 L191.1814712,242.88483781 L192.298256,242.71553647 L193.4150408,242.55041541 L194.5318256,242.39156477 L195.6486104,242.23689441 L196.7653952,242.0874494 L197.88218,241.94322974 L198.9989648,241.80423543 L200.1157496,241.6694214 L201.2325344,241.53983272 L202.3493192,241.41442432 L203.466104,241.29424127 L204.5828888,241.17928357 L205.6996736,241.06850615 L206.8164584,240.96190901 L207.9332432,240.86053722 L209.050028,240.76543585 L210.1668128,240.67346969 L211.2835976,240.58568381 L212.4003824,240.50207821 L213.5171672,240.42265289 L214.633952,240.34845292 L215.7507368,240.27843323 L216.8675216,240.21259382 L217.9843064,240.15197976 L219.1010912,240.09450091 L220.217876,240.04224741 L221.3346608,239.99417419 L222.4514456,239.95028125 L223.5682304,239.91056859 L224.6850152,239.87608128 L225.8018,239.84681932 L226.9185848,239.82069257 L228.0353696,239.7987461 L229.1521544,239.77993484 L230.2689392,239.76634893 L231.385724,239.7569433 L232.5025088,239.75171795 L233.6192936,239.75067288 L234.7360784,239.75380809 L235.8528632,239.76112358 L236.969648,239.77366442 L238.0864328,239.78934047 L239.2032176,239.8091968 L240.3200024,239.83427848 L241.4367872,239.86249537 L242.553572,239.89593761 L243.6703568,239.93565027 L244.7871416,239.97745307 L245.9039264,240.02343615 L247.0207112,240.07464458 L248.137496,240.12898822 L249.2542808,240.18855721 L250.3710656,240.25230648 L251.4878504,240.32023603 L252.6046352,240.39234586 L253.72142,240.46863597 L254.8382048,240.55015143 L255.9549896,240.63584717 L257.0717744,240.72676826 L258.1885592,240.82082456 L259.305344,240.92115128 L260.4221288,241.02461321 L261.5389136,241.13539063 L262.6556984,241.24930326 L263.7724832,241.36739617 L264.889268,241.48966936 L266.0060528,241.6171679 L267.1228376,241.74989179 L268.2396224,241.88679596 L269.3564072,242.02892548 L270.473192,242.17628035 L271.5899768,242.3278155 L272.7067616,242.484576 L273.8235464,242.64760692 L274.9403312,242.81481812 L276.057116,242.98725467 L277.1739008,243.16491657 L278.2906856,243.34989396 L279.4074704,243.53800656 L280.5242552,243.73238958 L281.64104,243.93199795 L282.7578248,244.13683167 L283.8746096,244.34689074 L284.9913944,244.56322023 L286.1081792,244.78582014 L287.224964,245.0136454 L288.3417488,245.24774108 L289.4585336,245.48706211 L290.5753184,245.73369863 L291.6921032,245.9855605 L292.808888,246.24473786 L293.9256728,246.50914057 L295.0424576,246.78085877 L296.1592424,247.0619826 L297.2760272,247.34728671 L298.392812,247.63886124 L299.5095968,247.93775126 L300.6263816,248.24395677 L301.7431664,248.5564327 L302.8599512,248.87726919 L303.976736,249.20542117 L305.0935208,249.54193371 L306.2103056,249.88471667 L307.3270904,250.23690526 L308.4438752,250.59640934 L309.56066,250.96427398 L310.6774448,251.34154425 L311.7942296,251.72613001 L312.9110144,252.12116647 L314.0277992,252.5276987 L315.144584,252.93945628 L316.2613688,253.36166456 L317.3781536,253.79432354 L318.4949384,254.23638815 L319.6117232,254.68785839 L320.728508,255.1508244 L321.8452928,255.62424111 L322.9620776,256.10915359 L324.0788624,256.60556184 L325.1956472,257.11346586 L326.312432,257.63286565 L327.4292168,258.16585135 L328.5460016,258.71033282 L329.6627864,259.26944527 L330.7795712,259.84423377 L331.896356,260.43051804 L333.0131408,261.03038822 L334.1299256,261.64593445 L335.2467104,262.27715673 L336.3634952,262.92405506 L337.48028,263.58662944 L338.5970648,264.26801508 L339.7138496,264.96612184 L340.8306344,265.68199479 L341.9474192,266.41876914 L343.064204,267.17435475 L344.1809888,267.95084176 L345.2977736,268.74927524 L346.4145584,269.56965519 L347.5313432,270.41407175 L348.648128,271.2867052 L349.7649128,272.18128512 L350.8816976,273.10303686 L351.9984824,274.05196042 L353.1152672,275.03119101 L354.232052,276.04072863 L355.3488368,277.08370849 L356.4656216,278.16117566 L357.5824064,279.27417521 L358.6991912,280.42688742 L359.815976,281.61931229 L360.9327608,282.8556301 L362.0495456,284.13688592 L363.1663304,285.4683051 L364.2831152,286.85093271 L365.3999,288.29626452 L366.5166848,286.86242848 L367.6334696,285.48398115 L368.7502544,284.15674225 L369.8670392,282.87862164 L370.983824,281.64648411 L372.1006088,280.45823952 L373.2173936,279.30866252 L374.3341784,278.19879818 L375.4509632,277.12446622 L376.567748,276.08462157 L377.6845328,275.07821916 L378.8013176,274.10107871 L379.9181024,273.15424529 L381.0348872,272.23562876 L382.151672,271.34418405 L383.2684568,270.4820013 L384.3852416,269.63967488 L385.5020264,268.82138507 L386.6188112,268.02504173 L387.735596,267.25064486 L388.8523808,266.49714939 L389.9691656,265.76246518 L391.0859504,265.0476373 L392.2027352,264.35057561 L393.31952,263.67232518 L394.4363048,263.01079587 L395.5530896,262.36494261 L396.6698744,261.73581047 L397.7866592,261.12235438 L398.903444,260.52352927 L400.0202288,259.93933514 L401.1370136,259.37186213 L402.2537984,258.81588489 L403.3705832,258.27140342 L404.487368,257.74050786 L405.6041528,257.22215314 L406.7209376,256.71529419 L407.8377224,256.22097608 L408.9545072,255.73710867 L410.071292,255.26473703 L411.1880768,254.80386116 L412.3048616,254.35239092 L413.4216464,253.91137138 L414.5384312,253.48080254 L415.655216,253.05963933 L416.7720008,252.64892682 L417.8887856,252.24971008 L419.0055704,251.85676376 L420.1223552,251.472178 L421.23914,251.09699787 L422.3559248,250.7301783 L423.4727096,250.37067422 L424.5894944,250.02057577 L425.7062792,249.67779281 L426.823064,249.34337041 L427.9398488,249.0162635 L429.0566336,248.69647208 L430.1734184,248.38504122 L431.2902032,248.07988078 L432.406988,247.78203583 L433.5237728,247.49150637 L434.6405576,247.20724733 L435.7573424,246.93343899 L436.8741272,246.66276586 L437.990912,246.39940822 L439.1076968,246.14127593 L440.2244816,245.89045913 L441.3412664,245.64486768 L442.4580512,245.40659172 L443.574836,245.17354111 L444.6916208,244.94676092 L445.8084056,244.72625115 L446.9251904,244.51096673 L448.0419752,244.30090766 L449.15876,244.09816408 L450.2755448,243.89960078 L451.3923296,243.7073079 L452.5091144,243.5191953 L453.6258992,243.34048833 L454.742684,243.1638715 L455.8594688,242.99248002 L456.9762536,242.82631389 L458.0930384,242.66537311 L459.2098232,242.50965768 L460.326608,242.3591676 L461.4433928,242.2128578 L462.5601776,242.07281842 L463.6769624,241.93695932 L464.7937472,241.8052805 L465.910532,241.67882703 L467.0273168,241.55759891 L468.1441016,241.44055107 L469.2608864,241.32872858 L470.3776712,241.22422158 L471.494456,241.12180472 L472.6112408,241.02356814 L473.7280256,240.92951184 L474.8448104,240.84068089 L475.9615952,240.75707529 L477.07838,240.6766049 L478.1951648,240.60135986 L479.3119496,240.5302951 L480.4287344,240.46341062 L481.5455192,240.40175149 L482.662304,240.34427264 L483.7790888,240.29097407 L484.8958736,240.24185578 L486.0126584,240.19691777 L487.1294432,240.15720511 L488.246228,240.12376287 L489.3630128,240.0913657 L490.4797976,240.06419388 L491.5965824,240.04120234 L492.7133672,240.02239108 L493.830152,240.00880517 L494.9469368,239.99835447 L496.0637216,239.99208405 L497.1805064,239.99103898 L498.2972912,239.99417419 L499.414076,240.00044461 L500.5308608,240.01194038 L501.6476456,240.02761643 L502.7644304,240.04747276 L503.8812152,240.07150937 L504.998,240.10077133 L506.1147848,240.13525864 L507.2315696,240.17288116 L508.3483544,240.21468396 L509.4651392,240.25962197 L510.581924,240.30978533 L511.6987088,240.36517404 L512.8154936,240.42369796 L513.9322784,240.48744723 L515.0490632,240.55433171 L516.165848,240.62748661 L517.2826328,240.70377672 L518.3994176,240.78529218 L519.5162024,240.87098792 L520.6329872,240.96086394 L521.749772,241.05596531 L522.8665568,241.1573371 L523.9833416,241.2618441 L525.1001264,241.37053138 L526.2169112,241.48339894 L527.333696,241.60149185 L528.4504808,241.72481011 L529.5672656,241.85230865 L530.6840504,241.98503254 L531.8008352,242.12193671 L532.91762,242.26406623 L534.0344048,242.4114211 L535.1511896,242.56400132 L536.2679744,242.72076182 L537.3847592,242.88379274 L538.501544,243.05100394 L539.6183288,243.22344049 L540.7351136,243.4042376 L541.8518984,243.58816992 L542.9686832,243.77628252 L544.085468,243.97066554 L545.2022528,244.17027391 L546.3190376,244.3761527 L547.4358224,244.58725684 L548.5526072,244.80358633 L549.669392,245.02618624 L550.7861768,245.25505657 L551.9029616,245.49019732 L553.0197464,245.73056342 L554.1365312,245.97719994 L555.253316,246.23010688 L556.3701008,246.48928424 L557.4868856,246.75786723 L558.6036704,247.0306305 L559.7204552,247.30966419 L560.83724,247.59601337 L561.9540248,247.88863297 L563.0708096,248.18856806 L564.1875944,248.49581864 L565.3043792,248.81038471 L566.421164,249.13226627 L567.5379488,249.46146332 L568.6547336,249.79797586 L569.7715184,250.14284896 L570.8883032,250.49608262 L572.005088,250.85767684 L573.1218728,251.22658655 L574.2386576,251.60490189 L575.3554424,251.994713 L576.4722272,252.39079453 L577.589012,252.79628169 L578.7057968,253.21012941 L579.8225816,253.63442783 L580.9393664,254.06813188 L582.0561512,254.51228663 L583.172936,254.96689208 L584.2897208,255.43194823 L585.4065056,255.90745508 L586.5232904,256.3944577 L587.6400752,256.89295609 L588.75686,257.40295025 L589.8736448,257.92548525 L590.9904296,258.46056109 L592.1072144,259.00817777 L593.2239992,259.57356064 L594.340784,260.14834914 L595.4575688,260.73776862 L596.5743536,261.34077401 L597.6911384,261.95945545 L598.8079232,262.59381294 L599.924708,263.24489155 L601.0414928,263.91164621 L602.1582776,264.59616706 L603.2750624,265.2984541 L604.3918472,266.0195524 L605.508632,266.76050703 L606.6254168,267.52131799 L607.7422016,268.30303035 L608.8589864,269.10564411 L609.9757712,269.93647476 L611.092556,270.78611667 L612.2093408,271.66188533 L613.3261256,272.56273567 L614.4429104,273.49075783 L615.5596952,274.44699688 L616.67648,275.43354296 L617.7932648,276.45144114 L618.9100496,277.50278156 L620.0268344,278.58860929 L621.1436192,279.71101447 L622.260404,280.87313231 L623.3771888,282.07705295 L624.4939736,283.32382146 L625.6107584,284.61761812 L626.7275432,285.96157814 L627.844328,287.36510715 L628.9611128,288.81879952 L630.0778976,290.33415102 L631.1946824,291.91534193 L632.3114672,293.56655253 L633.428252,295.29614338 L634.5450368,297.10829476 L635.6618216,299.01136723 L636.7786064,301.01476642 L637.8953912,303.12789796 L639.012176,305.36121255 L640.1289608,307.73038624 L641.2457456,310.25005001 L642.3625304,312.93901512 L643.4793152,315.82027311 L644.5961,318.9209958 " fill-rule="evenodd" vector-effect="non-scaling-stroke"/>
                        </g>
                    </g>
                </g>
                <g id="PlotDataItem_2">
                    <g fill="none" fill-rule="evenodd" id="PlotCurveItem_2" stroke="black" stroke-linecap="square" stroke-linejoin="bevel" stroke-width="1">
                        <g fill="none" font-family="MS Shell Dlg 2" font-size="11" font-style="normal" font-weight="400" stroke="#c7b069" stroke-linecap="square" stroke-linejoin="bevel" stroke-opacity="1" stroke-width="1">
                            <path d="M86.2037000931,249.20228596 L87.3204848,246.24578293 L88.4372696,243.47843757 L89.5540544,240.87934848 L90.6708392,238.42761426 L91.787624,236.109649 L92.9044088,233.91186679 L94.0211936,231.82277186 L95.1379784,229.83295858 L96.2547632,227.93406639 L97.371548,226.11773473 L98.4883328,224.37873825 L99.6051176,222.70976146 L100.7219024,221.10766915 L101.8386872,219.5661909 L102.955472,218.0821915 L104.0722568,216.65149067 L105.1890416,215.2709532 L106.3058264,213.93744388 L107.4226112,212.64887257 L108.539396,211.40105899 L109.6561808,210.19400314 L110.7729656,209.02352474 L111.8897504,207.88857872 L113.0065352,206.78707494 L114.12332,205.71796833 L115.2401048,204.67916875 L116.3568896,203.66963113 L117.4736744,202.6883104 L118.5904592,201.73311642 L119.707244,200.80404919 L120.8240288,199.89901857 L121.9408136,199.01697949 L123.0575984,198.15793195 L124.1743832,197.32083088 L125.291168,196.50358614 L126.4079528,195.7072428 L127.5247376,194.92971072 L128.6415224,194.1709899 L129.7583072,193.43108034 L130.875092,192.7078919 L131.9918768,192.00142458 L133.1086616,191.31167838 L134.2254464,190.63760823 L135.3422312,189.97921413 L136.459016,189.33440594 L137.5758008,188.7052738 L138.6925856,188.08972757 L139.8093704,187.48776725 L140.9261552,186.89939284 L142.04294,186.32460434 L143.1597248,185.76131161 L144.2765096,185.21055972 L145.3932944,184.6713036 L146.5100792,184.14458832 L147.626864,183.62832374 L148.7436488,183.12355493 L149.8604336,182.63028189 L150.9772184,182.14641448 L152.0940032,181.67404284 L153.210788,181.21107683 L154.3275728,180.75856152 L155.4443576,180.31545184 L156.5611424,179.88174779 L157.6779272,179.45744937 L158.794712,179.04255658 L159.9114968,178.63602435 L161.0282816,178.23889775 L162.1450664,177.85013171 L163.2618512,177.46972623 L164.378636,177.09768131 L165.4954208,176.73399695 L166.6122056,176.37867315 L167.7289904,176.03066484 L168.8457752,175.69101709 L169.96256,175.35868483 L171.0793448,175.03366806 L172.1961296,174.71596678 L173.3129144,174.40662606 L174.4296992,174.10355576 L175.546484,173.80780095 L176.6632688,173.51936163 L177.7800536,173.23719273 L178.8968384,172.96233932 L180.0136232,172.6948014 L181.130408,172.43248883 L182.2471928,172.17853682 L183.3639776,171.92981016 L184.4807624,171.68735392 L185.5975472,171.45221317 L186.714332,171.22229777 L187.8311168,170.99969786 L188.9479016,170.7823233 L190.0646864,170.57226423 L191.1814712,170.36743051 L192.298256,170.16782214 L193.4150408,169.97552926 L194.5318256,169.78846173 L195.6486104,169.60661955 L196.7653952,169.43104779 L197.88218,169.26174645 L198.9989648,169.09767046 L200.1157496,168.93881982 L201.2325344,168.7862396 L202.3493192,168.63888473 L203.466104,168.49675521 L204.5828888,168.35985104 L205.6996736,168.22921729 L206.8164584,168.10380889 L207.9332432,167.98362584 L209.050028,167.86866814 L210.1668128,167.75893579 L211.2835976,167.65442879 L212.4003824,167.55514714 L213.5171672,167.46109084 L214.633952,167.37225989 L215.7507368,167.28865429 L216.8675216,167.21027404 L217.9843064,167.13711914 L219.1010912,167.06918959 L220.217876,167.00648539 L221.3346608,166.94900654 L222.4514456,166.89570797 L223.5682304,166.84763475 L224.6850152,166.80478688 L225.8018,166.76716436 L226.9185848,166.73476719 L228.0353696,166.70759537 L229.1521544,166.68460383 L230.2689392,166.66683764 L231.385724,166.6542968 L232.5025088,166.64698131 L233.6192936,166.64489117 L234.7360784,166.64698131 L235.8528632,166.6542968 L236.969648,166.66683764 L238.0864328,166.68460383 L239.2032176,166.7065503 L240.3200024,166.73372212 L241.4367872,166.76611929 L242.553572,166.80374181 L243.6703568,166.84658968 L244.7871416,166.89361783 L245.9039264,166.9469164 L247.0207112,167.00439525 L248.137496,167.06709945 L249.2542808,167.135029 L250.3710656,167.2081839 L251.4878504,167.28656415 L252.6046352,167.36912468 L253.72142,167.45795563 L254.8382048,167.55201193 L255.9549896,167.65024851 L257.0717744,167.75475551 L258.1885592,167.86344279 L259.305344,167.97840049 L260.4221288,168.09858354 L261.5389136,168.22399194 L262.6556984,168.35462569 L263.7724832,168.49048479 L264.889268,168.63261431 L266.0060528,168.77996918 L267.1228376,168.9325494 L268.2396224,169.09035497 L269.3564072,169.25443096 L270.473192,169.4237323 L271.5899768,169.59825899 L272.7067616,169.7790561 L273.8235464,169.96612363 L274.9403312,170.15841651 L276.057116,170.35697981 L277.1739008,170.56076846 L278.2906856,170.7718726 L279.4074704,170.98820209 L280.5242552,171.210802 L281.64104,171.43967233 L282.7578248,171.67376801 L283.8746096,171.91517918 L284.9913944,172.16286077 L286.1081792,172.41785785 L287.224964,172.67808028 L288.3417488,172.9456182 L289.4585336,173.21942654 L290.5753184,173.50055037 L291.6921032,173.78794462 L292.808888,174.08265436 L293.9256728,174.38467959 L295.0424576,174.69402031 L296.1592424,175.01067652 L297.2760272,175.33360315 L298.392812,175.66489034 L299.5095968,176.00453809 L300.6263816,176.35045626 L301.7431664,176.70473499 L302.8599512,177.06737428 L303.976736,177.43837413 L305.0935208,177.81668947 L306.2103056,178.20441044 L307.3270904,178.60049197 L308.4438752,179.00493406 L309.56066,179.41878178 L310.6774448,179.84099006 L311.7942296,180.27260397 L312.9110144,180.71466858 L314.0277992,181.16509375 L315.144584,181.62596962 L316.2613688,182.09729619 L317.3781536,182.57802839 L318.4949384,183.07025636 L319.6117232,183.57188996 L320.728508,184.0860644 L321.8452928,184.61068954 L322.9620776,185.14681045 L324.0788624,185.69442713 L325.1956472,186.25458465 L326.312432,186.82728301 L327.4292168,187.41252221 L328.5460016,188.01134732 L329.6627864,188.62375834 L330.7795712,189.24975527 L331.896356,189.88933811 L333.0131408,190.544597 L334.1299256,191.21448687 L335.2467104,191.90005279 L336.3634952,192.60233983 L337.48028,193.32134799 L338.5970648,194.05707727 L339.7138496,194.81057274 L340.8306344,195.5818344 L341.9474192,196.37295239 L343.064204,197.18392671 L344.1809888,198.01580243 L345.2977736,198.86857955 L346.4145584,199.74330314 L347.5313432,200.64101827 L348.648128,201.56381508 L349.7649128,202.5106485 L350.8816976,203.48360867 L351.9984824,204.48478573 L353.1152672,205.51417968 L354.232052,206.57388066 L355.3488368,207.66388867 L356.4656216,208.78838399 L357.5824064,209.94736662 L358.6991912,211.14188163 L359.815976,212.3761093 L360.9327608,213.6510947 L362.0495456,214.96997304 L363.1663304,216.33378939 L364.2831152,217.7477691 L365.3999,219.21295724 L366.5166848,217.75299445 L367.6334696,216.34424009 L368.7502544,214.98460402 L369.8670392,213.67095103 L370.983824,212.40014591 L372.1006088,211.17009852 L373.2173936,209.97871872 L374.3341784,208.82391637 L375.4509632,207.70255626 L376.567748,206.61568346 L377.6845328,205.55911769 L378.8013176,204.53285895 L379.9181024,203.5348171 L381.0348872,202.56394707 L382.151672,201.62024886 L383.2684568,200.70058726 L384.3852416,199.80496227 L385.5020264,198.93232882 L386.6188112,198.08164184 L387.735596,197.25185626 L388.8523808,196.44297208 L389.9691656,195.65394423 L391.0859504,194.88372764 L392.2027352,194.13232231 L393.31952,193.39868317 L394.4363048,192.68176515 L395.5530896,191.98156825 L396.6698744,191.2970474 L397.7866592,190.62924767 L398.903444,189.97607892 L400.0202288,189.33649608 L401.1370136,188.71258929 L402.2537984,188.10226841 L403.3705832,187.50448837 L404.487368,186.92133931 L405.6041528,186.34968602 L406.7209376,185.79057357 L407.8377224,185.24400196 L408.9545072,184.70892612 L410.071292,184.18534605 L411.1880768,183.67326175 L412.3048616,183.17162815 L413.4216464,182.68149032 L414.5384312,182.20180319 L415.655216,181.73152169 L416.7720008,181.27169089 L417.8887856,180.82231079 L419.0055704,180.38233632 L420.1223552,179.95072241 L421.23914,179.5295592 L422.3559248,179.11675655 L423.4727096,178.71335953 L424.5894944,178.31832307 L425.7062792,177.93269224 L426.823064,177.5543769 L427.9398488,177.18442212 L429.0566336,176.8228279 L430.1734184,176.46959424 L431.2902032,176.12367607 L432.406988,175.78611846 L433.5237728,175.45587634 L434.6405576,175.13294971 L435.7573424,174.81733857 L436.8741272,174.50904292 L437.990912,174.20806276 L439.1076968,173.91439809 L440.2244816,173.62700384 L441.3412664,173.34692508 L442.4580512,173.07416181 L443.574836,172.80766896 L444.6916208,172.54744653 L445.8084056,172.29349452 L446.9251904,172.046858 L448.0419752,171.8064919 L449.15876,171.57239622 L450.2755448,171.34457096 L451.3923296,171.12301612 L452.5091144,170.90668663 L453.6258992,170.69767263 L454.742684,170.49388398 L455.8594688,170.29636575 L456.9762536,170.10407287 L458.0930384,169.91805041 L459.2098232,169.73829837 L460.326608,169.56377168 L461.4433928,169.39551541 L462.5601776,169.23248449 L463.6769624,169.07467892 L464.7937472,168.92314377 L465.910532,168.77683397 L467.0273168,168.63574952 L468.1441016,168.49989042 L469.2608864,168.37030174 L470.3776712,168.24593841 L471.494456,168.12680043 L472.6112408,168.0128878 L473.7280256,167.90420052 L474.8448104,167.80073859 L475.9615952,167.70250201 L477.07838,167.60949078 L478.1951648,167.5217049 L479.3119496,167.43914437 L480.4287344,167.36180919 L481.5455192,167.28969936 L482.662304,167.22176981 L483.7790888,167.16011068 L484.8958736,167.10263183 L486.0126584,167.0514234 L487.1294432,167.00439525 L488.246228,166.96259245 L489.3630128,166.926015 L490.4797976,166.89361783 L491.5965824,166.86749108 L492.7133672,166.84554461 L493.830152,166.82882349 L494.9469368,166.81732772 L496.0637216,166.81001223 L497.1805064,166.80896716 L498.2972912,166.81210237 L499.414076,166.82046293 L500.5308608,166.83404884 L501.6476456,166.85181503 L502.7644304,166.87585164 L503.8812152,166.90406853 L504.998,166.93751077 L506.1147848,166.97513329 L507.2315696,167.01902623 L508.3483544,167.06709945 L509.4651392,167.12144309 L510.581924,167.17996701 L511.6987088,167.24371628 L512.8154936,167.3126909 L513.9322784,167.38689087 L515.0490632,167.46527112 L516.165848,167.54992179 L517.2826328,167.63979781 L518.3994176,167.73385411 L519.5162024,167.83418083 L520.6329872,167.9397329 L521.749772,168.04946525 L522.8665568,168.16546802 L523.9833416,168.28669614 L525.1001264,168.41314961 L526.2169112,168.54482843 L527.333696,168.68277767 L528.4504808,168.82490719 L529.5672656,168.97330713 L530.6840504,169.12693242 L531.8008352,169.28682813 L532.91762,169.45194919 L534.0344048,169.6222956 L535.1511896,169.79891243 L536.2679744,169.98179968 L537.3847592,170.16991228 L538.501544,170.36325023 L539.6183288,170.5628586 L540.7351136,170.76873739 L541.8518984,170.9808866 L542.9686832,171.19930623 L544.085468,171.42295121 L545.2022528,171.65391168 L546.3190376,171.8900975 L547.4358224,172.13359881 L548.5526072,172.38232547 L549.669392,172.63836762 L550.7861768,172.90172526 L551.9029616,173.17030825 L553.0197464,173.4472518 L554.1365312,173.7294207 L555.253316,174.01995016 L556.3701008,174.31675004 L557.4868856,174.62086541 L558.6036704,174.9312512 L559.7204552,175.24999755 L560.83724,175.57605939 L561.9540248,175.91048179 L563.0708096,176.25117461 L564.1875944,176.60022799 L565.3043792,176.95764193 L566.421164,177.32341643 L567.5379488,177.69650642 L568.6547336,178.07795697 L569.7715184,178.46881315 L570.8883032,178.86698482 L572.005088,179.27560719 L573.1218728,179.69154505 L574.2386576,180.11793361 L575.3554424,180.5537278 L576.4722272,180.99788255 L577.589012,181.452488 L578.7057968,181.91754415 L579.8225816,182.39200593 L580.9393664,182.87796348 L582.0561512,183.37332666 L583.172936,183.88018561 L584.2897208,184.39854033 L585.4065056,184.92734575 L586.5232904,185.46869201 L587.6400752,186.02153404 L588.75686,186.58691691 L589.8736448,187.16484062 L590.9904296,187.75530517 L592.1072144,188.3604007 L593.2239992,188.97803707 L594.340784,189.61030442 L595.4575688,190.25720275 L596.5743536,190.91873206 L597.6911384,191.59593742 L598.8079232,192.28881883 L599.924708,192.99842136 L601.0414928,193.72474501 L602.1582776,194.46778978 L603.2750624,195.23069088 L604.3918472,196.01135817 L605.508632,196.81188179 L606.6254168,197.63226174 L607.7422016,198.47354309 L608.8589864,199.33781598 L609.9757712,200.22403534 L611.092556,201.13324624 L612.2093408,202.06753882 L613.3261256,203.02795815 L614.4429104,204.01450423 L615.5596952,205.03031227 L616.67648,206.0743372 L617.7932648,207.14971423 L618.9100496,208.25748843 L620.0268344,209.39870487 L621.1436192,210.57649876 L622.260404,211.79191517 L623.3771888,213.04704424 L624.4939736,214.34502118 L625.6107584,215.68689106 L626.7275432,217.07787923 L627.844328,218.51798569 L628.9611128,220.01348086 L630.0778976,221.56645488 L631.1946824,223.1821331 L632.3114672,224.86365073 L633.428252,226.61727819 L634.5450368,228.4492859 L635.6618216,230.36594428 L636.7786064,232.37456882 L637.8953912,234.48456515 L639.012176,236.7053389 L640.1289608,239.04943091 L641.2457456,241.52833695 L642.3625304,244.16086828 L643.4793152,246.96374602 L644.5961,249.95996171 " fill-rule="evenodd" vector-effect="non-scaling-stroke"/>
                        </g>
                    </g>
                </g>
                <g id="PlotDataItem_3">
                    <g fill="none" fill-rule="evenodd" id="PlotCurveItem_3" stroke="black" stroke-linecap="square" stroke-linejoin="bevel" stroke-width="1">
                        <g fill="none" font-family="MS Shell Dlg 2" font-size="11" font-style="normal" font-weight="400" stroke="#7ea695" stroke-linecap="square" stroke-linejoin="bevel" stroke-opacity="1" stroke-width="1">
                            <path d="M86.2037000931,231.24589322 L87.3204848,228.28520991 L88.4372696,225.5126392 L89.5540544,222.90727969 L90.6708392,220.44927505 L91.787624,218.12503937 L92.9044088,215.91994167 L94.0211936,213.82457632 L95.1379784,211.82744755 L96.2547632,209.9201948 L97.371548,208.09654765 L98.4883328,206.35023568 L99.6051176,204.6739434 L100.7219024,203.06349053 L101.8386872,201.51469679 L102.955472,200.0233819 L104.0722568,198.58432051 L105.1890416,197.19646755 L106.3058264,195.85459767 L107.4226112,194.5576658 L108.539396,193.30253673 L109.6561808,192.08712032 L110.7729656,190.90932643 L111.8897504,189.76601985 L113.0065352,188.65720058 L114.12332,187.58077848 L115.2401048,186.53466341 L116.3568896,185.5178103 L117.4736744,184.52812901 L118.5904592,183.56561954 L119.707244,182.62819175 L120.8240288,181.71584564 L121.9408136,180.82753614 L123.0575984,179.96117311 L124.1743832,179.11571148 L125.291168,178.29219632 L126.4079528,177.48853749 L127.5247376,176.70473499 L128.6415224,175.93869868 L129.7583072,175.19147363 L130.875092,174.4609697 L131.9918768,173.74823196 L133.1086616,173.05221534 L134.2254464,172.3708297 L135.3422312,171.70616518 L136.459016,171.05508657 L137.5758008,170.41968401 L138.6925856,169.79786736 L139.8093704,169.18963662 L140.9261552,168.59499179 L142.04294,168.01393287 L143.1597248,167.44436972 L144.2765096,166.88734741 L145.3932944,166.34286594 L146.5100792,165.80988024 L147.626864,165.28839031 L148.7436488,164.77735108 L149.8604336,164.27885269 L150.9772184,163.78975993 L152.0940032,163.31111787 L153.210788,162.84292651 L154.3275728,162.38518585 L155.4443576,161.93685082 L156.5611424,161.49792142 L157.6779272,161.06839765 L158.794712,160.64827951 L159.9114968,160.23652193 L161.0282816,159.83416998 L162.1450664,159.44122366 L163.2618512,159.05559283 L164.378636,158.67936763 L165.4954208,158.31150299 L166.6122056,157.95095384 L167.7289904,157.59876525 L168.8457752,157.25389215 L169.96256,156.91737961 L171.0793448,156.58818256 L172.1961296,156.26734607 L173.3129144,155.95278 L174.4296992,155.64657449 L175.546484,155.3466394 L176.6632688,155.0540198 L177.7800536,154.76871569 L178.8968384,154.489682 L180.0136232,154.2179638 L181.130408,153.95356109 L182.2471928,153.69438373 L183.3639776,153.44252186 L184.4807624,153.19797548 L185.5975472,152.95865445 L186.714332,152.72664891 L187.8311168,152.49986872 L188.9479016,152.28040402 L190.0646864,152.06616467 L191.1814712,151.85819574 L192.298256,151.65649723 L193.4150408,151.46106914 L194.5318256,151.2708664 L195.6486104,151.08693408 L196.7653952,150.90927218 L197.88218,150.73683563 L198.9989648,150.56962443 L200.1157496,150.40972872 L201.2325344,150.25401329 L202.3493192,150.10456828 L203.466104,149.96034862 L204.5828888,149.82135431 L205.6996736,149.68863042 L206.8164584,149.56113188 L207.9332432,149.43885869 L209.050028,149.32285592 L210.1668128,149.21103343 L211.2835976,149.10548136 L212.4003824,149.00410957 L213.5171672,148.9090082 L214.633952,148.81913218 L215.7507368,148.73448151 L216.8675216,148.65401112 L217.9843064,148.57981115 L219.1010912,148.51083653 L220.217876,148.44708726 L221.3346608,148.38751827 L222.4514456,148.3342197 L223.5682304,148.28510141 L224.6850152,148.24225354 L225.8018,148.20358595 L226.9185848,148.17014371 L228.0353696,148.14192682 L229.1521544,148.11893528 L230.2689392,148.10116909 L231.385724,148.08758318 L232.5025088,148.08026769 L233.6192936,148.07713248 L234.7360784,148.07922262 L235.8528632,148.08653811 L236.969648,148.09907895 L238.0864328,148.11684514 L239.2032176,148.13983668 L240.3200024,148.1670085 L241.4367872,148.19940567 L242.553572,148.23807326 L243.6703568,148.28092113 L244.7871416,148.32899435 L245.9039264,148.38229292 L247.0207112,148.43977177 L248.137496,148.50352104 L249.2542808,148.57249566 L250.3710656,148.64565056 L251.4878504,148.72507588 L252.6046352,148.80972655 L253.72142,148.8985575 L254.8382048,148.99365887 L255.9549896,149.09398559 L257.0717744,149.19849259 L258.1885592,149.30927001 L259.305344,149.42527278 L260.4221288,149.54754597 L261.5389136,149.67399944 L262.6556984,149.80672333 L263.7724832,149.9436275 L264.889268,150.08784716 L266.0060528,150.2362471 L267.1228376,150.39091746 L268.2396224,150.55081317 L269.3564072,150.7169793 L270.473192,150.88837078 L271.5899768,151.06498761 L272.7067616,151.24787486 L273.8235464,151.43703253 L274.9403312,151.63246062 L276.057116,151.83311406 L277.1739008,152.04003792 L278.2906856,152.25218713 L279.4074704,152.47165183 L280.5242552,152.69634188 L281.64104,152.92834742 L282.7578248,153.16557831 L283.8746096,153.41012469 L284.9913944,153.66094149 L286.1081792,153.91802871 L287.224964,154.18138635 L288.3417488,154.45205948 L289.4585336,154.72900303 L290.5753184,155.01326207 L291.6921032,155.3048366 L292.808888,155.60268155 L293.9256728,155.90784199 L295.0424576,156.22031792 L296.1592424,156.54010934 L297.2760272,156.86721625 L298.392812,157.20268372 L299.5095968,157.54546668 L300.6263816,157.89556513 L301.7431664,158.25402414 L302.8599512,158.61979864 L303.976736,158.99497877 L305.0935208,159.37747439 L306.2103056,159.76937564 L307.3270904,160.16963745 L308.4438752,160.57825982 L309.56066,160.99628782 L310.6774448,161.42267638 L311.7942296,161.85951564 L312.9110144,162.30471546 L314.0277992,162.76036598 L315.144584,163.22542213 L316.2613688,163.70092898 L317.3781536,164.18688653 L318.4949384,164.68329478 L319.6117232,165.19015373 L320.728508,165.70850845 L321.8452928,166.23835894 L322.9620776,166.77866013 L324.0788624,167.33150216 L325.1956472,167.89688503 L326.312432,168.47480874 L327.4292168,169.06527329 L328.5460016,169.66827868 L329.6627864,170.28591505 L330.7795712,170.91713733 L331.896356,171.56194552 L333.0131408,172.22242976 L334.1299256,172.89754498 L335.2467104,173.58833625 L336.3634952,174.29584864 L337.48028,175.01903708 L338.5970648,175.75999171 L339.7138496,176.51871253 L340.8306344,177.29624461 L341.9474192,178.09258795 L343.064204,178.90878762 L344.1809888,179.74484362 L345.2977736,180.60284609 L346.4145584,181.48279503 L347.5313432,182.38573551 L348.648128,183.31375767 L349.7649128,184.26581644 L350.8816976,185.24400196 L351.9984824,186.2493593 L353.1152672,187.28293353 L354.232052,188.34681479 L355.3488368,189.44204815 L356.4656216,190.57072375 L357.5824064,191.73388666 L358.6991912,192.93258195 L359.815976,194.1709899 L360.9327608,195.44911051 L362.0495456,196.77112406 L363.1663304,198.13807562 L364.2831152,199.55414547 L365.3999,201.02142375 L366.5166848,199.55832575 L367.6334696,198.14643618 L368.7502544,196.7836649 L369.8670392,195.46583163 L370.983824,194.18980116 L372.1006088,192.95557349 L373.2173936,191.76001341 L374.3341784,190.59998571 L375.4509632,189.47444532 L376.567748,188.3813021 L377.6845328,187.32055605 L378.8013176,186.28907196 L379.9181024,185.28580476 L381.0348872,184.30970938 L382.151672,183.35974075 L383.2684568,182.4348538 L384.3852416,181.53400346 L385.5020264,180.65509959 L386.6188112,179.79918726 L387.735596,178.96417633 L388.8523808,178.1500668 L389.9691656,177.3558136 L391.0859504,176.58037166 L392.2027352,175.82269591 L393.31952,175.08278635 L394.4363048,174.36064298 L395.5530896,173.65522073 L396.6698744,172.96547453 L397.7866592,172.29140438 L398.903444,171.63301028 L400.0202288,170.98924716 L401.1370136,170.35906995 L402.2537984,169.74352372 L403.3705832,169.14051833 L404.487368,168.55109885 L405.6041528,167.97526528 L406.7209376,167.41092748 L407.8377224,166.85913052 L408.9545072,166.31882933 L410.071292,165.79002391 L411.1880768,165.27375933 L412.3048616,164.76690038 L413.4216464,164.2715372 L414.5384312,163.78662472 L415.655216,163.31216294 L416.7720008,162.84815186 L417.8887856,162.39354641 L419.0055704,161.94834659 L420.1223552,161.5125524 L421.23914,161.08720891 L422.3559248,160.67022598 L423.4727096,160.26160361 L424.5894944,159.86238687 L425.7062792,159.47153069 L426.823064,159.09008014 L427.9398488,158.71594508 L429.0566336,158.35017058 L430.1734184,157.99275664 L431.2902032,157.64265819 L432.406988,157.3009203 L433.5237728,156.9664979 L434.6405576,156.64043606 L435.7573424,156.32064464 L436.8741272,156.00921378 L437.990912,155.70509841 L439.1076968,155.40725346 L440.2244816,155.116724 L441.3412664,154.83351003 L442.4580512,154.55656648 L443.574836,154.28693842 L444.6916208,154.02358078 L445.8084056,153.76753863 L446.9251904,153.51672183 L448.0419752,153.27322052 L449.15876,153.03598963 L450.2755448,152.80502916 L451.3923296,152.58138418 L452.5091144,152.36296455 L453.6258992,152.14977027 L454.742684,151.94389148 L455.8594688,151.74428311 L456.9762536,151.54990009 L458.0930384,151.36178749 L459.2098232,151.17890024 L460.326608,151.00228341 L461.4433928,150.83089193 L462.5601776,150.66577087 L463.6769624,150.50692023 L464.7937472,150.35224987 L465.910532,150.20384993 L467.0273168,150.06172041 L468.1441016,149.92481624 L469.2608864,149.79209235 L470.3776712,149.66668395 L471.494456,149.54545583 L472.6112408,149.42945306 L473.7280256,149.31972071 L474.8448104,149.21521371 L475.9615952,149.11593206 L477.07838,149.02083069 L478.1951648,148.93199974 L479.3119496,148.84839414 L480.4287344,148.77001389 L481.5455192,148.69685899 L482.662304,148.62892944 L483.7790888,148.56622524 L484.8958736,148.50770132 L486.0126584,148.45544782 L487.1294432,148.4073746 L488.246228,148.3655718 L489.3630128,148.32794928 L490.4797976,148.29555211 L491.5965824,148.26838029 L492.7133672,148.24643382 L493.830152,148.2297127 L494.9469368,148.21821693 L496.0637216,148.21090144 L497.1805064,148.20985637 L498.2972912,148.21299158 L499.414076,148.22135214 L500.5308608,148.23493805 L501.6476456,148.25270424 L502.7644304,148.27674085 L503.8812152,148.30600281 L504.998,148.33944505 L506.1147848,148.37811264 L507.2315696,148.42200558 L508.3483544,148.47112387 L509.4651392,148.52546751 L510.581924,148.5850365 L511.6987088,148.64983084 L512.8154936,148.71985053 L513.9322784,148.79509557 L515.0490632,148.87452089 L516.165848,148.96021663 L517.2826328,149.05113772 L518.3994176,149.14728416 L519.5162024,149.24865595 L520.6329872,149.35525309 L521.749772,149.46707558 L522.8665568,149.58412342 L523.9833416,149.70744168 L525.1001264,149.83494022 L526.2169112,149.96870918 L527.333696,150.10770349 L528.4504808,150.25296822 L529.5672656,150.40241323 L530.6840504,150.55917373 L531.8008352,150.72011451 L532.91762,150.88732571 L534.0344048,151.06080733 L535.1511896,151.2395143 L536.2679744,151.42344662 L537.3847592,151.61469443 L538.501544,151.81116759 L539.6183288,152.0128661 L540.7351136,152.2218801 L541.8518984,152.43611945 L542.9686832,152.65662922 L544.085468,152.88445448 L545.2022528,153.11750509 L546.3190376,153.35682612 L547.4358224,153.60346264 L548.5526072,153.85532451 L549.669392,154.11450187 L550.7861768,154.38099472 L551.9029616,154.65375799 L553.0197464,154.93279168 L554.1365312,155.21914086 L555.253316,155.51280553 L556.3701008,155.81274062 L557.4868856,156.12103627 L558.6036704,156.43560234 L559.7204552,156.75852897 L560.83724,157.08772602 L561.9540248,157.42528363 L563.0708096,157.7712018 L564.1875944,158.12443546 L565.3043792,158.48498461 L566.421164,158.85493939 L567.5379488,159.23220966 L568.6547336,159.61888556 L569.7715184,160.01287695 L570.8883032,160.41627397 L572.005088,160.82907662 L573.1218728,161.25023983 L574.2386576,161.68080867 L575.3554424,162.12078314 L576.4722272,162.57016324 L577.589012,163.02999404 L578.7057968,163.49923047 L579.8225816,163.9789176 L580.9393664,164.46905543 L582.0561512,164.96964396 L583.172936,165.48172826 L584.2897208,166.00426326 L585.4065056,166.5393391 L586.5232904,167.08591071 L587.6400752,167.64397809 L588.75686,168.21458631 L589.8736448,168.79773537 L590.9904296,169.39447034 L592.1072144,170.00374615 L593.2239992,170.62765294 L594.340784,171.26514564 L595.4575688,171.91726932 L596.5743536,172.58506905 L597.6911384,173.26749976 L598.8079232,173.96665159 L599.924708,174.68147947 L601.0414928,175.41302847 L602.1582776,176.16338873 L603.2750624,176.93151518 L604.3918472,177.71845289 L605.508632,178.52420186 L606.6254168,179.35085223 L607.7422016,180.198404 L608.8589864,181.06790224 L609.9757712,181.95934695 L611.092556,182.87587334 L612.2093408,183.81539127 L613.3261256,184.78208102 L614.4429104,185.77385245 L615.5596952,186.79488584 L616.67648,187.84518119 L617.7932648,188.92682864 L618.9100496,190.03982819 L620.0268344,191.18731505 L621.1436192,192.37033429 L622.260404,193.59097605 L623.3771888,194.85133047 L624.4939736,196.15453276 L625.6107584,197.50162799 L626.7275432,198.89679644 L627.844328,200.34212825 L628.9611128,201.84075863 L630.0778976,203.39791293 L631.1946824,205.01672636 L632.3114672,206.70242427 L633.428252,208.45918694 L634.5450368,210.29328479 L635.6618216,212.21098824 L636.7786064,214.22170292 L637.8953912,216.33169925 L639.012176,218.55142793 L640.1289608,220.8934298 L641.2457456,223.36920063 L642.3625304,225.99650661 L643.4793152,228.79311393 L644.5961,231.78096906 " fill-rule="evenodd" vector-effect="non-scaling-stroke"/>
                        </g>
                    </g>
                </g>
                <g id="PlotDataItem_4">
                    <g fill="none" fill-rule="evenodd" id="PlotCurveItem_4" stroke="black" stroke-linecap="square" stroke-linejoin="bevel" stroke-width="1">
                        <g fill="none" font-family="MS Shell Dlg 2" font-size="11" font-style="normal" font-weight="400" stroke="#8a7c91" stroke-linecap="square" stroke-linejoin="bevel" stroke-opacity="1" stroke-width="1">
                            <path d="M86.2037000931,166.75984887 L87.3204848,163.79185007 L88.4372696,161.01196387 L89.5540544,158.39719873 L90.6708392,155.92978846 L91.787624,153.59510208 L92.9044088,151.37955368 L94.0211936,149.27164749 L95.1379784,147.26406802 L96.2547632,145.3453195 L97.371548,143.51017658 L98.4883328,141.75132377 L99.6051176,140.06353572 L100.7219024,138.44054201 L101.8386872,136.87920743 L102.955472,135.3753517 L104.0722568,133.92479454 L105.1890416,132.52335567 L106.3058264,131.16999002 L107.4226112,129.86051731 L108.539396,128.5928474 L109.6561808,127.36489015 L110.7729656,126.17455542 L111.8897504,125.01975307 L113.0065352,123.89943803 L114.12332,122.81047509 L115.2401048,121.75181918 L116.3568896,120.7234703 L117.4736744,119.72229324 L118.5904592,118.748288 L119.707244,117.79936444 L120.8240288,116.87552256 L121.9408136,115.97467222 L123.0575984,115.09681342 L124.1743832,114.24090109 L125.291168,113.40589016 L126.4079528,112.59073556 L127.5247376,111.79543729 L128.6415224,111.01895028 L129.7583072,110.26127453 L130.875092,109.5203199 L131.9918768,108.79713146 L133.1086616,108.08961907 L134.2254464,107.3988278 L135.3422312,106.72266751 L136.459016,106.06218327 L137.5758008,105.41633001 L138.6925856,104.78510773 L139.8093704,104.16747136 L140.9261552,103.56237583 L142.04294,102.97191128 L143.1597248,102.3929425 L144.2765096,101.82651456 L145.3932944,101.27262746 L146.5100792,100.73023613 L147.626864,100.20038564 L148.7436488,99.68098585 L149.8604336,99.17203676 L150.9772184,98.67458344 L152.0940032,98.18758082 L153.210788,97.7110289 L154.3275728,97.24492768 L155.4443576,96.78823209 L156.5611424,96.34094213 L157.6779272,95.90410287 L158.794712,95.47562417 L159.9114968,95.0565511 L161.0282816,94.64688366 L162.1450664,94.24557678 L163.2618512,93.85367553 L164.378636,93.46908977 L165.4954208,93.09390964 L166.6122056,92.726045 L167.7289904,92.36758599 L168.8457752,92.01644247 L169.96256,91.67261444 L171.0793448,91.33714697 L172.1961296,91.00899499 L173.3129144,90.68920357 L174.4296992,90.37568257 L175.546484,90.06947706 L176.6632688,89.77163211 L177.7800536,89.48005758 L178.8968384,89.19579854 L180.0136232,88.91780992 L181.130408,88.64713679 L182.2471928,88.38377915 L183.3639776,88.12669193 L184.4807624,87.87587513 L185.5975472,87.63132875 L186.714332,87.39409786 L187.8311168,87.16313739 L188.9479016,86.93844734 L190.0646864,86.71898264 L191.1814712,86.50683343 L192.298256,86.30095464 L193.4150408,86.1003012 L194.5318256,85.90696325 L195.6486104,85.71885065 L196.7653952,85.53700847 L197.88218,85.36039164 L198.9989648,85.19004523 L200.1157496,85.02492417 L201.2325344,84.86607353 L202.3493192,84.71349331 L203.466104,84.56613844 L204.5828888,84.42400892 L205.6996736,84.28814982 L206.8164584,84.15751607 L207.9332432,84.03210767 L209.050028,83.91296969 L210.1668128,83.79905706 L211.2835976,83.69036978 L212.4003824,83.58690785 L213.5171672,83.48971634 L214.633952,83.39775018 L215.7507368,83.3099643 L216.8675216,83.22844884 L217.9843064,83.15215873 L219.1010912,83.08109397 L220.217876,83.01525456 L221.3346608,82.9546405 L222.4514456,82.90029686 L223.5682304,82.8501335 L224.6850152,82.80519549 L225.8018,82.76548283 L226.9185848,82.73099552 L228.0353696,82.70173356 L229.1521544,82.67769695 L230.2689392,82.65888569 L231.385724,82.64634485 L232.5025088,82.63798429 L233.6192936,82.63380401 L234.7360784,82.63589415 L235.8528632,82.64320964 L236.969648,82.65575048 L238.0864328,82.67351667 L239.2032176,82.69546314 L240.3200024,82.72368003 L241.4367872,82.75712227 L242.553572,82.79578986 L243.6703568,82.83863773 L244.7871416,82.88775602 L245.9039264,82.94105459 L247.0207112,83.00062358 L248.137496,83.06541792 L249.2542808,83.13543761 L250.3710656,83.20963758 L251.4878504,83.29010797 L252.6046352,83.37580371 L253.72142,83.4667248 L254.8382048,83.56391631 L255.9549896,83.6652881 L257.0717744,83.77293031 L258.1885592,83.8847528 L259.305344,84.00284571 L260.4221288,84.12720904 L261.5389136,84.25575265 L262.6556984,84.39056668 L263.7724832,84.53060606 L264.889268,84.67691586 L266.0060528,84.82845101 L267.1228376,84.98521151 L268.2396224,85.14824243 L269.3564072,85.31754377 L270.473192,85.49207046 L271.5899768,85.6718225 L272.7067616,85.85889003 L273.8235464,86.05118291 L274.9403312,86.24974621 L276.057116,86.45353486 L277.1739008,86.664639 L278.2906856,86.88096849 L279.4074704,87.1035684 L280.5242552,87.3334838 L281.64104,87.56862455 L282.7578248,87.81108079 L283.8746096,88.05876238 L284.9913944,88.31375946 L286.1081792,88.57607203 L287.224964,88.84465502 L288.3417488,89.11950843 L289.4585336,89.40167733 L290.5753184,89.69116172 L291.6921032,89.98691653 L292.808888,90.28998683 L293.9256728,90.60037262 L295.0424576,90.9180739 L296.1592424,91.24413574 L297.2760272,91.576468 L298.392812,91.91716082 L299.5095968,92.26516913 L300.6263816,92.621538 L301.7431664,92.98626743 L302.8599512,93.35831235 L303.976736,93.73871783 L305.0935208,94.12748387 L306.2103056,94.52565554 L307.3270904,94.93218777 L308.4438752,95.34708056 L309.56066,95.77137898 L310.6774448,96.20508303 L311.7942296,96.64819271 L312.9110144,97.10070802 L314.0277992,97.56262896 L315.144584,98.0350006 L316.2613688,98.51782294 L317.3781536,99.01005091 L318.4949384,99.51377465 L319.6117232,100.02794909 L320.728508,100.5536193 L321.8452928,101.08974021 L322.9620776,101.63840196 L324.0788624,102.19855948 L325.1956472,102.77125784 L326.312432,103.35649704 L327.4292168,103.95532215 L328.5460016,104.56564303 L329.6627864,105.19059489 L330.7795712,105.82913266 L331.896356,106.48230141 L333.0131408,107.15114621 L334.1299256,107.83357692 L335.2467104,108.53272875 L336.3634952,109.24755663 L337.48028,109.97910563 L338.5970648,110.72842082 L339.7138496,111.49445713 L340.8306344,112.2793047 L341.9474192,113.0840086 L343.064204,113.90752376 L344.1809888,114.75194032 L345.2977736,115.61725828 L346.4145584,116.50556778 L347.5313432,117.41582375 L348.648128,118.35011633 L349.7649128,119.31053566 L350.8816976,120.2949916 L351.9984824,121.30766443 L353.1152672,122.34855415 L354.232052,123.4197509 L355.3488368,124.52125468 L356.4656216,125.6562007 L357.5824064,126.82458896 L358.6991912,128.02955467 L359.815976,129.27318797 L360.9327608,130.55653393 L362.0495456,131.88272776 L363.1663304,133.2538596 L364.2831152,134.67410973 L365.3999,136.14452322 L366.5166848,134.6751548 L367.6334696,133.25699481 L368.7502544,131.88690804 L369.8670392,130.56280435 L370.983824,129.28050346 L372.1006088,128.03791523 L373.2173936,126.83399459 L374.3341784,125.6666514 L375.4509632,124.53275045 L376.567748,123.43229174 L377.6845328,122.36214006 L378.8013176,121.32229541 L379.9181024,120.31066765 L381.0348872,119.32516664 L382.151672,118.36683745 L383.2684568,117.43358994 L384.3852416,116.52333397 L385.5020264,115.63606954 L386.6188112,114.77075158 L387.735596,113.92738009 L388.8523808,113.10386493 L389.9691656,112.3002061 L391.0859504,111.5164036 L392.2027352,110.75036729 L393.31952,110.00209717 L394.4363048,109.27054817 L395.5530896,108.55572029 L396.6698744,107.85761353 L397.7866592,107.17518282 L398.903444,106.50738309 L400.0202288,105.85525941 L401.1370136,105.21672164 L402.2537984,104.59176978 L403.3705832,103.9814489 L404.487368,103.38366886 L405.6041528,102.79947473 L406.7209376,102.22677637 L407.8377224,101.66661885 L408.9545072,101.11900217 L410.071292,100.58183619 L411.1880768,100.05721105 L412.3048616,99.54303661 L413.4216464,99.04035794 L414.5384312,98.5470849 L415.655216,98.06530763 L416.7720008,97.59293599 L417.8887856,97.13101505 L419.0055704,96.67954481 L420.1223552,96.23643513 L421.23914,95.80377615 L422.3559248,95.37947773 L423.4727096,94.96458494 L424.5894944,94.55805271 L425.7062792,94.16092611 L426.823064,93.77216007 L427.9398488,93.39175459 L429.0566336,93.01970967 L430.1734184,92.65498024 L431.2902032,92.29965644 L432.406988,91.95164813 L433.5237728,91.61095531 L434.6405576,91.27862305 L435.7573424,90.95360628 L436.8741272,90.635905 L437.990912,90.32551921 L439.1076968,90.02244891 L440.2244816,89.7266941 L441.3412664,89.43825478 L442.4580512,89.15608588 L443.574836,88.88123247 L444.6916208,88.61264948 L445.8084056,88.35138198 L446.9251904,88.0963849 L448.0419752,87.84765824 L449.15876,87.60624707 L450.2755448,87.37110632 L451.3923296,87.14223599 L452.5091144,86.91859101 L453.6258992,86.70226152 L454.742684,86.49220245 L455.8594688,86.2884138 L456.9762536,86.0898505 L458.0930384,85.89755762 L459.2098232,85.71153516 L460.326608,85.53073805 L461.4433928,85.35725643 L462.5601776,85.18795509 L463.6769624,85.02492417 L464.7937472,84.86816367 L465.910532,84.71662852 L467.0273168,84.57136379 L468.1441016,84.43132441 L469.2608864,84.29651038 L470.3776712,84.16796677 L471.494456,84.04464851 L472.6112408,83.9265556 L473.7280256,83.81368804 L474.8448104,83.7070909 L475.9615952,83.60467404 L477.07838,83.5085276 L478.1951648,83.41760651 L479.3119496,83.33295584 L480.4287344,83.25248545 L481.5455192,83.17724041 L482.662304,83.10826579 L483.7790888,83.04347145 L484.8958736,82.98494753 L486.0126584,82.93060389 L487.1294432,82.88253067 L488.246228,82.83863773 L489.3630128,82.80101521 L490.4797976,82.76757297 L491.5965824,82.74040115 L492.7133672,82.71740961 L493.830152,82.69964342 L494.9469368,82.68814765 L496.0637216,82.68083216 L497.1805064,82.67874202 L498.2972912,82.68187723 L499.414076,82.69128286 L500.5308608,82.70486877 L501.6476456,82.72368003 L502.7644304,82.74771664 L503.8812152,82.7769786 L504.998,82.81146591 L506.1147848,82.85117857 L507.2315696,82.89611658 L508.3483544,82.94627994 L509.4651392,83.00166865 L510.581924,83.06228271 L511.6987088,83.12812212 L512.8154936,83.19918688 L513.9322784,83.27547699 L515.0490632,83.35803752 L516.165848,83.44477833 L517.2826328,83.53778956 L518.3994176,83.63498107 L519.5162024,83.738443 L520.6329872,83.84713028 L521.749772,83.96104291 L522.8665568,84.08122596 L523.9833416,84.20663436 L525.1001264,84.33726811 L526.2169112,84.47312721 L527.333696,84.61525673 L528.4504808,84.7626116 L529.5672656,84.91623689 L530.6840504,85.07508753 L531.8008352,85.24020859 L532.91762,85.410555 L534.0344048,85.58717183 L535.1511896,85.76901401 L536.2679744,85.95712661 L537.3847592,86.15150963 L538.501544,86.35216307 L539.6183288,86.55804186 L540.7351136,86.77123614 L541.8518984,86.98965577 L542.9686832,87.21434582 L544.085468,87.44635136 L545.2022528,87.68358225 L546.3190376,87.92812863 L547.4358224,88.17894543 L548.5526072,88.43603265 L549.669392,88.70043536 L550.7861768,88.97110849 L551.9029616,89.24909711 L553.0197464,89.53335615 L554.1365312,89.82493068 L555.253316,90.1238207 L556.3701008,90.43002621 L557.4868856,90.74354721 L558.6036704,91.0643837 L559.7204552,91.39253568 L560.83724,91.72800315 L561.9540248,92.07183118 L563.0708096,92.4229747 L564.1875944,92.78247878 L565.3043792,93.15034342 L566.421164,93.52552355 L567.5379488,93.91010931 L568.6547336,94.30305563 L569.7715184,94.70436251 L570.8883032,95.11402995 L572.005088,95.53414809 L573.1218728,95.96158172 L574.2386576,96.39946605 L575.3554424,96.84675601 L576.4722272,97.3034516 L577.589012,97.77059789 L578.7057968,98.24819488 L579.8225816,98.7351975 L580.9393664,99.23265082 L582.0561512,99.74159991 L583.172936,100.2609997 L584.2897208,100.79189526 L585.4065056,101.33428659 L586.5232904,101.88921876 L587.6400752,102.4556467 L588.75686,103.03461548 L589.8736448,103.6261251 L590.9904296,104.23122063 L592.1072144,104.848857 L593.2239992,105.48112435 L594.340784,106.12802268 L595.4575688,106.78850692 L596.5743536,107.46466721 L597.6911384,108.15650355 L598.8079232,108.86401594 L599.924708,109.58824945 L601.0414928,110.32920408 L602.1582776,111.0879249 L603.2750624,111.86545698 L604.3918472,112.66075525 L605.508632,113.47695492 L606.6254168,114.31196585 L607.7422016,115.16892325 L608.8589864,116.04782712 L609.9757712,116.94867746 L611.092556,117.87356441 L612.2093408,118.82353304 L613.3261256,119.79858335 L614.4429104,120.79976041 L615.5596952,121.83019943 L616.67648,122.88885534 L617.7932648,123.97886335 L618.9100496,125.10126853 L620.0268344,126.25711595 L621.1436192,127.44849575 L622.260404,128.67749807 L623.3771888,129.94621305 L624.4939736,131.25673083 L625.6107584,132.61218662 L626.7275432,134.01467056 L627.844328,135.46731786 L628.9611128,136.97326373 L630.0778976,138.53668845 L631.1946824,140.16072723 L632.3114672,141.85165049 L633.428252,143.61259344 L634.5450368,145.45087157 L635.6618216,147.37171023 L636.7786064,149.38346998 L637.8953912,151.49346631 L639.012176,153.71319499 L640.1289608,156.05206165 L641.2457456,158.5236522 L642.3625304,161.14364269 L643.4793152,163.92979931 L644.5961,166.90406853 " fill-rule="evenodd" vector-effect="non-scaling-stroke"/>
                        </g>
                    </g>
                </g>
                <g id="PlotDataItem_5">
                    <g fill="none" fill-rule="evenodd" id="PlotCurveItem_5" stroke="black" stroke-linecap="square" stroke-linejoin="bevel" stroke-width="1">
                        <g fill="none" font-family="MS Shell Dlg 2" font-size="11" font-style="normal" font-weight="400" stroke="#ff2e70" stroke-linecap="square" stroke-linejoin="bevel" stroke-opacity="1" stroke-width="1">
                            <path d="M86.2037000931,131.56816169 L87.3204848,128.59911782 L88.4372696,125.81714148 L89.5540544,123.20133127 L90.6708392,120.73183086 L91.787624,118.39505434 L92.9044088,116.17846087 L94.0211936,114.06950961 L95.1379784,112.05879493 L96.2547632,110.13795627 L97.371548,108.30072321 L98.4883328,106.53978026 L99.6051176,104.84990207 L100.7219024,103.22586329 L101.8386872,101.66243857 L102.955472,100.15544763 L104.0722568,98.70280033 L105.1890416,97.30031639 L106.3058264,95.94381553 L107.4226112,94.63225268 L108.539396,93.3635377 L109.6561808,92.13349031 L110.7729656,90.94106544 L111.8897504,89.78312788 L113.0065352,88.6607227 L114.12332,87.56966962 L115.2401048,86.50892357 L116.3568896,85.47848455 L117.4736744,84.47521735 L118.5904592,83.49912197 L119.707244,82.54810827 L120.8240288,81.62217625 L121.9408136,80.72028084 L123.0575984,79.8403319 L124.1743832,78.98232943 L125.291168,78.14522836 L126.4079528,77.32798362 L127.5247376,76.53164028 L128.6415224,75.75306313 L129.7583072,74.99329724 L130.875092,74.25025247 L131.9918768,73.52497389 L133.1086616,72.81641643 L134.2254464,72.12353502 L135.3422312,71.44632966 L136.459016,70.78375528 L137.5758008,70.13581188 L138.6925856,69.50249946 L139.8093704,68.88277295 L140.9261552,68.27663235 L142.04294,67.68407766 L143.1597248,67.10406381 L144.2765096,66.5365908 L145.3932944,65.98061356 L146.5100792,65.43717716 L147.626864,64.90419146 L148.7436488,64.3837466 L149.8604336,63.87375244 L150.9772184,63.37525405 L152.0940032,62.88616129 L153.210788,62.4085643 L154.3275728,61.94037294 L155.4443576,61.48263228 L156.5611424,61.03429725 L157.6779272,60.59536785 L158.794712,60.16584408 L159.9114968,59.74572594 L161.0282816,59.33396836 L162.1450664,58.93161641 L163.2618512,58.53867009 L164.378636,58.15303926 L165.4954208,57.77681406 L166.6122056,57.40790435 L167.7289904,57.0473552 L168.8457752,56.69516661 L169.96256,56.35029351 L171.0793448,56.01378097 L172.1961296,55.68458392 L173.3129144,55.36270236 L174.4296992,55.04918136 L175.546484,54.74193078 L176.6632688,54.44304076 L177.7800536,54.15042116 L178.8968384,53.86511705 L180.0136232,53.58608336 L181.130408,53.31436516 L182.2471928,53.04996245 L183.3639776,52.79183016 L184.4807624,52.53996829 L185.5975472,52.29542191 L186.714332,52.05714595 L187.8311168,51.82514041 L188.9479016,51.59940529 L190.0646864,51.37994059 L191.1814712,51.16674631 L192.298256,50.95982245 L193.4150408,50.75916901 L194.5318256,50.56374092 L195.6486104,50.37562832 L196.7653952,50.19274107 L197.88218,50.01507917 L198.9989648,49.84473276 L200.1157496,49.6796117 L201.2325344,49.51971599 L202.3493192,49.3660907 L203.466104,49.21769076 L204.5828888,49.07556124 L205.6996736,48.93865707 L206.8164584,48.80802332 L207.9332432,48.68261492 L209.050028,48.56243187 L210.1668128,48.44851924 L211.2835976,48.33878689 L212.4003824,48.23532496 L213.5171672,48.13708838 L214.633952,48.04407715 L215.7507368,47.95733634 L216.8675216,47.87477581 L217.9843064,47.7984857 L219.1010912,47.72742094 L220.217876,47.66158153 L221.3346608,47.5999224 L222.4514456,47.54453369 L223.5682304,47.49437033 L224.6850152,47.44943232 L225.8018,47.40971966 L226.9185848,47.37523235 L228.0353696,47.34597039 L229.1521544,47.32193378 L230.2689392,47.30312252 L231.385724,47.28953661 L232.5025088,47.28117605 L233.6192936,47.27804084 L234.7360784,47.28013098 L235.8528632,47.2864014 L236.969648,47.29894224 L238.0864328,47.31670843 L239.2032176,47.33969997 L240.3200024,47.36687179 L241.4367872,47.40031403 L242.553572,47.43898162 L243.6703568,47.48287456 L244.7871416,47.53094778 L245.9039264,47.58529142 L247.0207112,47.64486041 L248.137496,47.70965475 L249.2542808,47.77967444 L250.3710656,47.85491948 L251.4878504,47.93538987 L252.6046352,48.02108561 L253.72142,48.1120067 L254.8382048,48.20919821 L255.9549896,48.31057 L257.0717744,48.41821221 L258.1885592,48.53107977 L259.305344,48.65021775 L260.4221288,48.77353601 L261.5389136,48.90312469 L262.6556984,49.03898379 L263.7724832,49.17902317 L264.889268,49.32533297 L266.0060528,49.47791319 L267.1228376,49.63467369 L268.2396224,49.79874968 L269.3564072,49.96805102 L270.473192,50.14257771 L271.5899768,50.32441989 L272.7067616,50.51044235 L273.8235464,50.7037803 L274.9403312,50.9023436 L276.057116,51.10822239 L277.1739008,51.31932653 L278.2906856,51.53670109 L279.4074704,51.759301 L280.5242552,51.9892164 L281.64104,52.22644729 L282.7578248,52.46890353 L283.8746096,52.71763019 L284.9913944,52.97367234 L286.1081792,53.23598491 L287.224964,53.50561297 L288.3417488,53.78151145 L289.4585336,54.06472542 L290.5753184,54.35420981 L291.6921032,54.65100969 L292.808888,54.95512506 L293.9256728,55.26655592 L295.0424576,55.58530227 L296.1592424,55.91136411 L297.2760272,56.24578651 L298.392812,56.58647933 L299.5095968,56.93553271 L300.6263816,57.29294665 L301.7431664,57.65872115 L302.8599512,58.03181114 L303.976736,58.41326169 L305.0935208,58.8030728 L306.2103056,59.20228954 L307.3270904,59.60986684 L308.4438752,60.0258047 L309.56066,60.45114819 L310.6774448,60.88589731 L311.7942296,61.33005206 L312.9110144,61.78361244 L314.0277992,62.24657845 L315.144584,62.71999516 L316.2613688,63.20386257 L317.3781536,63.69818068 L318.4949384,64.20294949 L319.6117232,64.718169 L320.728508,65.24488428 L321.8452928,65.78309533 L322.9620776,66.33280215 L324.0788624,66.89400474 L325.1956472,67.46774817 L326.312432,68.05403244 L327.4292168,68.65390262 L328.5460016,69.26631364 L329.6627864,69.89231057 L330.7795712,70.53189341 L331.896356,71.1871523 L333.0131408,71.8559971 L334.1299256,72.54051795 L335.2467104,73.24071485 L336.3634952,73.9565878 L337.48028,74.68918187 L338.5970648,75.43954213 L339.7138496,76.20766858 L340.8306344,76.99356122 L341.9474192,77.79931019 L343.064204,78.62491549 L344.1809888,79.47037712 L345.2977736,80.33674015 L346.4145584,81.22609472 L347.5313432,82.13844083 L348.648128,83.07377848 L349.7649128,84.03419781 L350.8816976,85.02074389 L351.9984824,86.03446179 L353.1152672,87.07639658 L354.232052,88.1486384 L355.3488368,89.25118725 L356.4656216,90.38717834 L357.5824064,91.55661167 L358.6991912,92.76262245 L359.815976,94.00625575 L360.9327608,95.29064678 L362.0495456,96.61788568 L363.1663304,97.99006259 L364.2831152,99.40926765 L365.3999,100.88072621 L366.5166848,99.41031272 L367.6334696,97.99110766 L368.7502544,96.61997582 L369.8670392,95.29378199 L370.983824,94.01043603 L372.1006088,92.76680273 L373.2173936,91.56183702 L374.3341784,90.39240369 L375.4509632,89.25745767 L376.567748,88.15490882 L377.6845328,87.08371207 L378.8013176,86.04177728 L379.9181024,85.02805938 L381.0348872,84.04255837 L382.151672,83.08213904 L383.2684568,82.14680139 L384.3852416,81.23445528 L385.5020264,80.34614578 L386.6188112,79.47978275 L387.735596,78.63432112 L388.8523808,77.80976089 L389.9691656,77.00401192 L391.0859504,76.21811928 L392.2027352,75.4510379 L393.31952,74.70067764 L394.4363048,73.96808357 L395.5530896,73.25221062 L396.6698744,72.55201372 L397.7866592,71.86853794 L398.903444,71.19864807 L400.0202288,70.54443425 L401.1370136,69.90485141 L402.2537984,69.27885448 L403.3705832,68.66644346 L404.487368,68.06761835 L405.6041528,67.48133408 L406.7209376,66.90759065 L407.8377224,66.34638806 L408.9545072,65.79668124 L410.071292,65.25951526 L411.1880768,64.73279998 L412.3048616,64.21758047 L413.4216464,63.71281166 L414.5384312,63.21849355 L415.655216,62.73567121 L416.7720008,62.2622545 L417.8887856,61.79928849 L419.0055704,61.34572811 L420.1223552,60.90157336 L421.23914,60.46682424 L422.3559248,60.04148075 L423.4727096,59.62554289 L424.5894944,59.21796559 L425.7062792,58.81979392 L426.823064,58.42998281 L427.9398488,58.04853226 L429.0566336,57.67544227 L430.1734184,57.30966777 L431.2902032,56.9532989 L432.406988,56.60424552 L433.5237728,56.26250763 L434.6405576,55.9291303 L435.7573424,55.60306846 L436.8741272,55.28432211 L437.990912,54.97289125 L439.1076968,54.66877588 L440.2244816,54.371976 L441.3412664,54.08249161 L442.4580512,53.79927764 L443.574836,53.52337916 L444.6916208,53.25479617 L445.8084056,52.9924836 L446.9251904,52.73644145 L448.0419752,52.48666972 L449.15876,52.24421348 L450.2755448,52.00802766 L451.3923296,51.77811226 L452.5091144,51.55551235 L453.6258992,51.33813779 L454.742684,51.12703365 L455.8594688,50.92219993 L456.9762536,50.72259156 L458.0930384,50.53029868 L459.2098232,50.34323115 L460.326608,50.16243404 L461.4433928,49.98790735 L462.5601776,49.81860601 L463.6769624,49.65453002 L464.7937472,49.49776952 L465.910532,49.3451893 L467.0273168,49.1988795 L468.1441016,49.05884012 L469.2608864,48.92402609 L470.3776712,48.79443741 L471.494456,48.67007408 L472.6112408,48.55198117 L473.7280256,48.43911361 L474.8448104,48.3314714 L475.9615952,48.23009961 L477.07838,48.1329081 L478.1951648,48.04198701 L479.3119496,47.95629127 L480.4287344,47.87582088 L481.5455192,47.80057584 L482.662304,47.73055615 L483.7790888,47.66576181 L484.8958736,47.60619282 L486.0126584,47.55289425 L487.1294432,47.50377596 L488.246228,47.45988302 L489.3630128,47.4222605 L490.4797976,47.38881826 L491.5965824,47.36060137 L492.7133672,47.3386549 L493.830152,47.32088871 L494.9469368,47.30834787 L496.0637216,47.30207745 L497.1805064,47.29998731 L498.2972912,47.30312252 L499.414076,47.31148308 L500.5308608,47.32506899 L501.6476456,47.34492532 L502.7644304,47.36896193 L503.8812152,47.39822389 L504.998,47.4327112 L506.1147848,47.47242386 L507.2315696,47.51736187 L508.3483544,47.56752523 L509.4651392,47.62291394 L510.581924,47.68457307 L511.6987088,47.75041248 L512.8154936,47.82147724 L513.9322784,47.89881242 L515.0490632,47.98032788 L516.165848,48.06811376 L517.2826328,48.16112499 L518.3994176,48.25936157 L519.5162024,48.3628235 L520.6329872,48.47151078 L521.749772,48.58646848 L522.8665568,48.70665153 L523.9833416,48.83205993 L525.1001264,48.96269368 L526.2169112,49.09959785 L527.333696,49.24277244 L528.4504808,49.39012731 L529.5672656,49.5437526 L530.6840504,49.70364831 L531.8008352,49.86876937 L532.91762,50.04016085 L534.0344048,50.21677768 L535.1511896,50.39966493 L536.2679744,50.5888226 L537.3847592,50.78425069 L538.501544,50.98490413 L539.6183288,51.19182799 L540.7351136,51.40502227 L541.8518984,51.62448697 L542.9686832,51.85022209 L544.085468,52.08222763 L545.2022528,52.32050359 L546.3190376,52.56609504 L547.4358224,52.81691184 L548.5526072,53.0760892 L549.669392,53.34049191 L550.7861768,53.61221011 L551.9029616,53.8912438 L553.0197464,54.17654791 L554.1365312,54.46916751 L555.253316,54.7691026 L556.3701008,55.07530811 L557.4868856,55.38987418 L558.6036704,55.71175574 L559.7204552,56.04095279 L560.83724,56.37746533 L561.9540248,56.72233843 L563.0708096,57.07452702 L564.1875944,57.43507617 L565.3043792,57.80398588 L566.421164,58.18125615 L567.5379488,58.56584191 L568.6547336,58.9598333 L569.7715184,59.36218525 L570.8883032,59.77394283 L572.005088,60.19406097 L573.1218728,60.62358474 L574.2386576,61.06251414 L575.3554424,61.51084917 L576.4722272,61.9696349 L577.589012,62.43782626 L578.7057968,62.91542325 L579.8225816,63.40451601 L580.9393664,63.9030144 L582.0561512,64.41300856 L583.172936,64.93449849 L584.2897208,65.46643912 L585.4065056,66.01092059 L586.5232904,66.56689783 L587.6400752,67.13437084 L588.75686,67.71438469 L589.8736448,68.30798445 L590.9904296,68.91412505 L592.1072144,69.53385156 L593.2239992,70.16716398 L594.340784,70.81510738 L595.4575688,71.47768176 L596.5743536,72.15593219 L597.6911384,72.8488136 L598.8079232,73.55737106 L599.924708,74.28369471 L601.0414928,75.02569441 L602.1582776,75.78650537 L603.2750624,76.56508252 L604.3918472,77.36247093 L605.508632,78.17971567 L606.6254168,79.01681674 L607.7422016,79.87481921 L608.8589864,80.75476815 L609.9757712,81.65770863 L611.092556,82.58468572 L612.2093408,83.53569942 L613.3261256,84.5117948 L614.4429104,85.515062 L615.5596952,86.54654609 L616.67648,87.60729214 L617.7932648,88.69939029 L618.9100496,89.82284054 L620.0268344,90.97973303 L621.1436192,92.17320297 L622.260404,93.40325036 L623.3771888,94.67405548 L624.4939736,95.98561833 L625.6107584,97.34211919 L626.7275432,98.7456482 L627.844328,100.19934057 L628.9611128,101.70737658 L630.0778976,103.2708013 L631.1946824,104.89693022 L632.3114672,106.58785348 L633.428252,108.3498415 L634.5450368,110.18811963 L635.6618216,112.11000336 L636.7786064,114.12176311 L637.8953912,116.23280451 L639.012176,118.45148812 L640.1289608,120.79035478 L641.2457456,123.26090026 L642.3625304,125.87984568 L643.4793152,128.66391216 L644.5961,131.63609124 " fill-rule="evenodd" vector-effect="non-scaling-stroke"/>
                        </g>
                    </g>
                </g>
            </g>
            <g fill="none" fill-rule="evenodd" id="LegendItem_1" stroke="black" stroke-linecap="square" stroke-linejoin="bevel" stroke-width="1">
                <g fill="#646464" fill-opacity="0.196078" font-family="MS Shell Dlg 2" font-size="11" font-style="normal" font-weight="400" stroke="#ffffff" stroke-linecap="square" stroke-linejoin="bevel" stroke-opacity="0.392157" stroke-width="1">
                    <path d="M92.8,61.0 L181.8,61.0 L181.8,208.0 L92.8,208.0 L92.8,61.0 " fill-rule="evenodd" vector-effect="non-scaling-stroke"/>
                </g>
                <g fill="none" fill-rule="evenodd" id="ItemSample_1" stroke="black" stroke-linecap="square" stroke-linejoin="bevel" stroke-width="1">
                    <g fill="none" font-family="MS Shell Dlg 2" font-size="11" font-style="normal" font-weight="400" stroke="#ed815e" stroke-linecap="square" stroke-linejoin="bevel" stroke-opacity="1" stroke-width="1">
                        <polyline fill="none" points="103.8,88.0 119.8,72.0" vector-effect="non-scaling-stroke"/>
                    </g>
                </g>
                <g fill="none" fill-rule="evenodd" id="LabelItem_1" stroke="black" stroke-linecap="square" stroke-linejoin="bevel" stroke-width="1">
                    <g fill="none" fill-rule="evenodd" id="QGraphicsTextItem_3" stroke="black" stroke-linecap="square" stroke-linejoin="bevel" stroke-width="1">
                        


                        


                        <g fill="none" font-family="MS Shell Dlg 2" font-size="11" font-style="normal" font-weight="400" stroke="#969696" stroke-linecap="square" stroke-linejoin="bevel" stroke-opacity="1" stroke-width="1" transform="matrix(1,0,0,1,117.8,70)">
                            <text fill="#969696" fill-opacity="1" font-family="&quot;MS Shell Dlg 2&quot;, sans-serif" font-size="11" font-style="normal" font-weight="400" stroke="none" x="4" xml:space="preserve" y="15">1e-06 A</text>
                        </g>
                        


                        

                    </g>
                </g>
                <g fill="none" fill-rule="evenodd" id="ItemSample_2" stroke="black" stroke-linecap="square" stroke-linejoin="bevel" stroke-width="1">
                    <g fill="none" font-family="MS Shell Dlg 2" font-size="11" font-style="normal" font-weight="400" stroke="#c7b069" stroke-linecap="square" stroke-linejoin="bevel" stroke-opacity="1" stroke-width="1">
                        <polyline fill="none" points="103.8,115.0 119.8,99.0" vector-effect="non-scaling-stroke"/>
                    </g>
                </g>
                <g fill="none" fill-rule="evenodd" id="LabelItem_2" stroke="black" stroke-linecap="square" stroke-linejoin="bevel" stroke-width="1">
                    <g fill="none" fill-rule="evenodd" id="QGraphicsTextItem_4" stroke="black" stroke-linecap="square" stroke-linejoin="bevel" stroke-width="1">
                        


                        


                        <g fill="none" font-family="MS Shell Dlg 2" font-size="11" font-style="normal" font-weight="400" stroke="#969696" stroke-linecap="square" stroke-linejoin="bevel" stroke-opacity="1" stroke-width="1" transform="matrix(1,0,0,1,111.8,97)">
                            <text fill="#969696" fill-opacity="1" font-family="&quot;MS Shell Dlg 2&quot;, sans-serif" font-size="11" font-style="normal" font-weight="400" stroke="none" x="4" xml:space="preserve" y="15">13.8125 A</text>
                        </g>
                        


                        

                    </g>
                </g>
                <g fill="none" fill-rule="evenodd" id="ItemSample_3" stroke="black" stroke-linecap="square" stroke-linejoin="bevel" stroke-width="1">
                    <g fill="none" font-family="MS Shell Dlg 2" font-size="11" font-style="normal" font-weight="400" stroke="#7ea695" stroke-linecap="square" stroke-linejoin="bevel" stroke-opacity="1" stroke-width="1">
                        <polyline fill="none" points="103.8,142.0 119.8,126.0" vector-effect="non-scaling-stroke"/>
                    </g>
                </g>
                <g fill="none" fill-rule="evenodd" id="LabelItem_3" stroke="black" stroke-linecap="square" stroke-linejoin="bevel" stroke-width="1">
                    <g fill="none" fill-rule="evenodd" id="QGraphicsTextItem_5" stroke="black" stroke-linecap="square" stroke-linejoin="bevel" stroke-width="1">
                        


                        


                        <g fill="none" font-family="MS Shell Dlg 2" font-size="11" font-style="normal" font-weight="400" stroke="#969696" stroke-linecap="square" stroke-linejoin="bevel" stroke-opacity="1" stroke-width="1" transform="matrix(1,0,0,1,111.8,124)">
                            <text fill="#969696" fill-opacity="1" font-family="&quot;MS Shell Dlg 2&quot;, sans-serif" font-size="11" font-style="normal" font-weight="400" stroke="none" x="4" xml:space="preserve" y="15">14.9375 A</text>
                        </g>
                        


                        

                    </g>
                </g>
                <g fill="none" fill-rule="evenodd" id="ItemSample_4" stroke="black" stroke-linecap="square" stroke-linejoin="bevel" stroke-width="1">
                    <g fill="none" font-family="MS Shell Dlg 2" font-size="11" font-style="normal" font-weight="400" stroke="#8a7c91" stroke-linecap="square" stroke-linejoin="bevel" stroke-opacity="1" stroke-width="1">
                        <polyline fill="none" points="103.8,169.0 119.8,153.0" vector-effect="non-scaling-stroke"/>
                    </g>
                </g>
                <g fill="none" fill-rule="evenodd" id="LabelItem_4" stroke="black" stroke-linecap="square" stroke-linejoin="bevel" stroke-width="1">
                    <g fill="none" fill-rule="evenodd" id="QGraphicsTextItem_6" stroke="black" stroke-linecap="square" stroke-linejoin="bevel" stroke-width="1">
                        


                        


                        <g fill="none" font-family="MS Shell Dlg 2" font-size="11" font-style="normal" font-weight="400" stroke="#969696" stroke-linecap="square" stroke-linejoin="bevel" stroke-opacity="1" stroke-width="1" transform="matrix(1,0,0,1,114.8,151)">
                            <text fill="#969696" fill-opacity="1" font-family="&quot;MS Shell Dlg 2&quot;, sans-serif" font-size="11" font-style="normal" font-weight="400" stroke="none" x="4" xml:space="preserve" y="15">16.625 A</text>
                        </g>
                        


                        

                    </g>
                </g>
                <g fill="none" fill-rule="evenodd" id="ItemSample_5" stroke="black" stroke-linecap="square" stroke-linejoin="bevel" stroke-width="1">
                    <g fill="none" font-family="MS Shell Dlg 2" font-size="11" font-style="normal" font-weight="400" stroke="#ff2e70" stroke-linecap="square" stroke-linejoin="bevel" stroke-opacity="1" stroke-width="1">
                        <polyline fill="none" points="103.8,196.0 119.8,180.0" vector-effect="non-scaling-stroke"/>
                    </g>
                </g>
                <g fill="none" fill-rule="evenodd" id="LabelItem_5" stroke="black" stroke-linecap="square" stroke-linejoin="bevel" stroke-width="1">
                    <g fill="none" fill-rule="evenodd" id="QGraphicsTextItem_7" stroke="black" stroke-linecap="square" stroke-linejoin="bevel" stroke-width="1">
                        


                        


                        <g fill="none" font-family="MS Shell Dlg 2" font-size="11" font-style="normal" font-weight="400" stroke="#969696" stroke-linecap="square" stroke-linejoin="bevel" stroke-opacity="1" stroke-width="1" transform="matrix(1,0,0,1,108.8,178)">
                            <text fill="#969696" fill-opacity="1" font-family="&quot;MS Shell Dlg 2&quot;, sans-serif" font-size="11" font-style="normal" font-weight="400" stroke="none" x="4" xml:space="preserve" y="15">16.90625 A</text>
                        </g>
                        


                        

                    </g>
                </g>
            </g>
        </g>
    </g>
    <g fill="none" fill-rule="evenodd" id="LabelItem_6" stroke="black" stroke-linecap="square" stroke-linejoin="bevel" stroke-width="1">
        <g fill="none" fill-rule="evenodd" id="QGraphicsTextItem_8" stroke="black" stroke-linecap="square" stroke-linejoin="bevel" stroke-width="1">
            


            


            <g fill="none" font-family="MS Shell Dlg 2" font-size="11" font-style="normal" font-weight="400" stroke="#969696" stroke-linecap="square" stroke-linejoin="bevel" stroke-opacity="1" stroke-width="1" transform="matrix(1,0,0,1,248.4,3)">
                <text fill="#969696" fill-opacity="1" font-family="&quot;MS Shell Dlg 2&quot;, sans-serif" font-size="14.6667" font-style="normal" font-weight="400" stroke="none" x="4" xml:space="preserve" y="19">Density profile at different currents</text>
            </g>
            


            

        </g>
    </g>
</g>

</svg>
