<?xml version="1.0" encoding="UTF-8" standalone="no"?>
<svg xmlns="http://www.w3.org/2000/svg" xmlns:xlink="http://www.w3.org/1999/xlink"  version="1.2" baseProfile="tiny">
<title>pyqtgraph SVG export</title>
<desc>Generated with Qt and pyqtgraph</desc>
<defs>
</defs>
<g fill="none" fill-rule="evenodd" id="PlotItem_1" stroke="black" stroke-linecap="square" stroke-linejoin="bevel" stroke-width="1">
    <g fill="none" fill-rule="evenodd" id="AxisItem_1" stroke="black" stroke-linecap="square" stroke-linejoin="bevel" stroke-width="1">
        <g fill="none" font-family="MS Shell Dlg 2" font-size="11" font-style="normal" font-weight="400" stroke="#969696" stroke-linecap="square" stroke-linejoin="bevel" stroke-opacity="1" stroke-width="1">
            <polyline fill="none" points="62.8,335.2 668.0,335.2" vector-effect="non-scaling-stroke"/>
        </g>
        <g fill="none" font-family="MS Shell Dlg 2" font-size="11" font-style="normal" font-weight="400" stroke="#969696" stroke-linecap="square" stroke-linejoin="bevel" stroke-opacity="1" stroke-width="1">
            <polyline fill="none" points="86.7037,335.2 86.7037,330.2" vector-effect="non-scaling-stroke"/>
        </g>
        <g fill="none" font-family="MS Shell Dlg 2" font-size="11" font-style="normal" font-weight="400" stroke="#969696" stroke-linecap="square" stroke-linejoin="bevel" stroke-opacity="0.498039" stroke-width="1">
            <polyline fill="none" points="272.835,335.2 272.835,331.86667" vector-effect="non-scaling-stroke"/>
            <polyline fill="none" points="458.965,335.2 458.965,331.86667" vector-effect="non-scaling-stroke"/>
            <polyline fill="none" points="645.096,335.2 645.096,331.86667" vector-effect="non-scaling-stroke"/>
        </g>
        <g fill="none" font-family="MS Shell Dlg 2" font-size="11" font-style="normal" font-weight="400" stroke="#969696" stroke-linecap="square" stroke-linejoin="bevel" stroke-opacity="0.333333" stroke-width="1">
            <polyline fill="none" points="179.769,335.2 179.769,332.7" vector-effect="non-scaling-stroke"/>
            <polyline fill="none" points="365.9,335.2 365.9,332.7" vector-effect="non-scaling-stroke"/>
            <polyline fill="none" points="552.031,335.2 552.031,332.7" vector-effect="non-scaling-stroke"/>
        </g>
        <g fill="none" font-family="MS Shell Dlg 2" font-size="11" font-style="normal" font-weight="400" stroke="#969696" stroke-linecap="square" stroke-linejoin="bevel" stroke-opacity="1" stroke-width="1" transform="matrix(1,0,0,1,63.3,335.2)">
            <text fill="#969696" fill-opacity="1" font-family="&quot;MS Shell Dlg 2&quot;, sans-serif" font-size="11" font-style="normal" font-weight="400" stroke="none" x="20.3906" xml:space="preserve" y="12">0</text>
            <text fill="#969696" fill-opacity="1" font-family="&quot;MS Shell Dlg 2&quot;, sans-serif" font-size="11" font-style="normal" font-weight="400" stroke="none" x="206.531" xml:space="preserve" y="12">2</text>
            <text fill="#969696" fill-opacity="1" font-family="&quot;MS Shell Dlg 2&quot;, sans-serif" font-size="11" font-style="normal" font-weight="400" stroke="none" x="392.656" xml:space="preserve" y="12">4</text>
            <text fill="#969696" fill-opacity="1" font-family="&quot;MS Shell Dlg 2&quot;, sans-serif" font-size="11" font-style="normal" font-weight="400" stroke="none" x="578.781" xml:space="preserve" y="12">6</text>
            <text fill="#969696" fill-opacity="1" font-family="&quot;MS Shell Dlg 2&quot;, sans-serif" font-size="11" font-style="normal" font-weight="400" stroke="none" x="113.469" xml:space="preserve" y="12">1</text>
            <text fill="#969696" fill-opacity="1" font-family="&quot;MS Shell Dlg 2&quot;, sans-serif" font-size="11" font-style="normal" font-weight="400" stroke="none" x="299.594" xml:space="preserve" y="12">3</text>
            <text fill="#969696" fill-opacity="1" font-family="&quot;MS Shell Dlg 2&quot;, sans-serif" font-size="11" font-style="normal" font-weight="400" stroke="none" x="485.719" xml:space="preserve" y="12">5</text>
        </g>
        <g fill="none" fill-rule="evenodd" id="QGraphicsTextItem_1" stroke="black" stroke-linecap="square" stroke-linejoin="bevel" stroke-width="1">
            


            


            <g fill="none" font-family="MS Shell Dlg 2" font-size="11" font-style="normal" font-weight="400" stroke="#ffffff" stroke-linecap="square" stroke-linejoin="bevel" stroke-opacity="1" stroke-width="1" transform="matrix(1,0,0,1,256.8,353.2)">
                <text fill="#ffffff" fill-opacity="1" font-family="&quot;MS Shell Dlg 2&quot;, sans-serif" font-size="18.6667" font-style="normal" font-weight="400" stroke="none" x="4" xml:space="preserve" y="23">Axis along beam line (m)</text>
            </g>
            


            

        </g>
    </g>
    <g fill="none" fill-rule="evenodd" id="AxisItem_2" stroke="black" stroke-linecap="square" stroke-linejoin="bevel" stroke-width="1">
        <g fill="none" font-family="MS Shell Dlg 2" font-size="11" font-style="normal" font-weight="400" stroke="#969696" stroke-linecap="square" stroke-linejoin="bevel" stroke-opacity="1" stroke-width="1">
            <polyline fill="none" points="62.8,31.0 62.8,335.2" vector-effect="non-scaling-stroke"/>
        </g>
        <g fill="none" font-family="MS Shell Dlg 2" font-size="11" font-style="normal" font-weight="400" stroke="#969696" stroke-linecap="square" stroke-linejoin="bevel" stroke-opacity="1" stroke-width="1">
            <polyline fill="none" points="63.3,303.001 68.3,303.001" vector-effect="non-scaling-stroke"/>
        </g>
        <g fill="none" font-family="MS Shell Dlg 2" font-size="11" font-style="normal" font-weight="400" stroke="#969696" stroke-linecap="square" stroke-linejoin="bevel" stroke-opacity="0.498039" stroke-width="1">
            <polyline fill="none" points="63.3,148.232 66.6333,148.232" vector-effect="non-scaling-stroke"/>
        </g>
        <g fill="none" font-family="MS Shell Dlg 2" font-size="11" font-style="normal" font-weight="400" stroke="#969696" stroke-linecap="square" stroke-linejoin="bevel" stroke-opacity="0.333333" stroke-width="1">
            <polyline fill="none" points="63.3,326.975 65.8,326.975" vector-effect="non-scaling-stroke"/>
            <polyline fill="none" points="63.3,317.999 65.8,317.999" vector-effect="non-scaling-stroke"/>
            <polyline fill="none" points="63.3,310.083 65.8,310.083" vector-effect="non-scaling-stroke"/>
            <polyline fill="none" points="63.3,303.001 65.8,303.001" vector-effect="non-scaling-stroke"/>
            <polyline fill="none" points="63.3,256.411 65.8,256.411" vector-effect="non-scaling-stroke"/>
            <polyline fill="none" points="63.3,229.157 65.8,229.157" vector-effect="non-scaling-stroke"/>
            <polyline fill="none" points="63.3,209.82 65.8,209.82" vector-effect="non-scaling-stroke"/>
            <polyline fill="none" points="63.3,194.822 65.8,194.822" vector-effect="non-scaling-stroke"/>
            <polyline fill="none" points="63.3,182.567 65.8,182.567" vector-effect="non-scaling-stroke"/>
            <polyline fill="none" points="63.3,172.206 65.8,172.206" vector-effect="non-scaling-stroke"/>
            <polyline fill="none" points="63.3,163.23 65.8,163.23" vector-effect="non-scaling-stroke"/>
            <polyline fill="none" points="63.3,155.313 65.8,155.313" vector-effect="non-scaling-stroke"/>
            <polyline fill="none" points="63.3,148.232 65.8,148.232" vector-effect="non-scaling-stroke"/>
            <polyline fill="none" points="63.3,101.6415 65.8,101.6415" vector-effect="non-scaling-stroke"/>
            <polyline fill="none" points="63.3,74.388 65.8,74.388" vector-effect="non-scaling-stroke"/>
            <polyline fill="none" points="63.3,55.0514 65.8,55.0514" vector-effect="non-scaling-stroke"/>
            <polyline fill="none" points="63.3,40.05269 65.8,40.05269" vector-effect="non-scaling-stroke"/>
        </g>
        <g fill="none" font-family="MS Shell Dlg 2" font-size="11" font-style="normal" font-weight="400" stroke="#969696" stroke-linecap="square" stroke-linejoin="bevel" stroke-opacity="1" stroke-width="1" transform="matrix(1,0,0,1,1.5,31)">
            <text fill="#969696" fill-opacity="1" font-family="&quot;MS Shell Dlg 2&quot;, sans-serif" font-size="11" font-style="normal" font-weight="400" stroke="none" x="24.7969" xml:space="preserve" y="276.797">1e+04</text>
            <text fill="#969696" fill-opacity="1" font-family="&quot;MS Shell Dlg 2&quot;, sans-serif" font-size="11" font-style="normal" font-weight="400" stroke="none" x="24.7969" xml:space="preserve" y="122.031">1e+05</text>
        </g>
        <g fill="none" fill-rule="evenodd" id="QGraphicsTextItem_2" stroke="black" stroke-linecap="square" stroke-linejoin="bevel" stroke-width="1">
            


            


            <g fill="none" font-family="MS Shell Dlg 2" font-size="11" font-style="normal" font-weight="400" stroke="#ffffff" stroke-linecap="square" stroke-linejoin="bevel" stroke-opacity="1" stroke-width="1" transform="matrix(0,-1,1,0,-4,295)">
                <text fill="#ffffff" fill-opacity="1" font-family="&quot;MS Shell Dlg 2&quot;, sans-serif" font-size="18.6667" font-style="normal" font-weight="400" stroke="none" x="4" xml:space="preserve" y="23">Density (particles per m3)</text>
            </g>
            


            

        </g>
    </g>
    <g fill="none" fill-rule="evenodd" id="ViewBox_1" stroke="black" stroke-linecap="square" stroke-linejoin="bevel" stroke-width="1">
        <g fill="none" font-family="MS Shell Dlg 2" font-size="11" font-style="normal" font-weight="400" stroke="none">
            <path d="M62.8,31.0 L668.0,31.0 L668.0,335.2 L62.8,335.2 L62.8,31.0 " fill-rule="evenodd" vector-effect="non-scaling-stroke"/>
        </g>
        <clipPath id="ViewBox_1_clip">
            <path d="M62.8,31.0 L668.0,31.0 L668.0,335.2 L62.8,335.2 L62.8,31.0 " fill-rule="evenodd" vector-effect="non-scaling-stroke"/>
        </clipPath>
        <g clip-path="url(#ViewBox_1_clip)">
            <g fill="none" fill-rule="evenodd" id="ChildGroup_1" stroke="black" stroke-linecap="square" stroke-linejoin="bevel" stroke-width="1">
                <g id="PlotDataItem_1">
                    <g fill="none" fill-rule="evenodd" id="PlotCurveItem_1" stroke="black" stroke-linecap="square" stroke-linejoin="bevel" stroke-width="1">
                        <g fill="none" font-family="MS Shell Dlg 2" font-size="11" font-style="normal" font-weight="400" stroke="#ed815e" stroke-linecap="square" stroke-linejoin="bevel" stroke-opacity="1" stroke-width="1">
                            <path d="M86.2037000931,318.92208703 L87.3204848,314.36878305 L88.4372696,310.13739859 L89.5540544,306.18614602 L90.6708392,302.48407154 L91.787624,299.00176904 L92.9044088,295.71602317 L94.0211936,292.60826165 L95.1379784,289.66145989 L96.2547632,286.86168868 L97.371548,284.19501881 L98.4883328,281.65061645 L99.6051176,279.22074315 L100.7219024,276.89301739 L101.8386872,274.66434379 L102.955472,272.52388852 L104.0722568,269.82471716 L105.1890416,267.86534162 L106.3058264,265.97715982 L107.4226112,264.15707638 L108.539396,262.40199592 L109.6561808,260.70572768 L110.7729656,259.06517628 L111.8897504,257.48034172 L113.0065352,255.94503324 L114.12332,254.45770315 L115.2401048,253.01680376 L116.3568896,251.61923969 L117.4736744,250.26346325 L118.5904592,248.94792675 L119.707244,247.66953481 L120.8240288,246.42828743 L121.9408136,244.77844989 L123.0575984,243.61149163 L124.1743832,242.47703486 L125.291168,241.3719842 L126.4079528,240.29788734 L127.5247376,239.25010121 L128.6415224,238.2301735 L129.7583072,237.23500883 L130.875092,236.26615489 L131.9918768,235.3205163 L133.1086616,234.39964075 L134.2254464,233.50043286 L135.3422312,232.62444032 L136.459016,231.76856775 L137.5758008,230.93436284 L138.6925856,229.76585689 L139.8093704,228.97343961 L140.9261552,228.2011423 L142.04294,227.44586958 L143.1597248,226.70916914 L144.2765096,225.98949329 L145.3932944,225.28529434 L146.5100792,224.59811998 L147.626864,223.92642252 L148.7436488,223.27174965 L149.8604336,222.63100599 L150.9772184,222.00419154 L152.0940032,221.39285399 L153.210788,220.79389796 L154.3275728,220.21041883 L155.4443576,219.63932122 L156.5611424,218.78190096 L157.6779272,218.23866177 L158.794712,217.7078041 L159.9114968,217.18932795 L161.0282816,216.68323332 L162.1450664,216.18952021 L163.2618512,215.70664093 L164.378636,215.23459548 L165.4954208,214.77338386 L166.6122056,214.32300607 L167.7289904,213.88346211 L168.8457752,213.45475198 L169.96256,213.03687568 L171.0793448,212.62828552 L172.1961296,212.2289815 L173.3129144,211.84051131 L174.4296992,211.1920292 L175.546484,210.82367898 L176.6632688,210.4646149 L177.7800536,210.11483696 L178.8968384,209.77434516 L180.0136232,209.44159181 L181.130408,209.1181246 L182.2471928,208.80239584 L183.3639776,208.49595322 L184.4807624,208.19879674 L185.5975472,207.90937871 L186.714332,207.62769913 L187.8311168,207.353758 L188.9479016,207.08910301 L190.0646864,206.83063878 L191.1814712,206.3322826 L192.298256,206.09084296 L193.4150408,205.85714177 L194.5318256,205.63117903 L195.6486104,205.41295474 L196.7653952,205.2024689 L197.88218,204.99817382 L198.9989648,204.80316488 L200.1157496,204.61279901 L201.2325344,204.43171928 L202.3493192,204.25683031 L203.466104,204.0881321 L204.5828888,203.92717234 L205.6996736,203.77395103 L206.8164584,203.62692048 L207.9332432,203.48608069 L209.050028,203.11618278 L210.1668128,202.9892722 L211.2835976,202.87010007 L212.4003824,202.7571187 L213.5171672,202.65187578 L214.633952,202.55282362 L215.7507368,202.45841453 L216.8675216,202.37329158 L217.9843064,202.2928117 L219.1010912,202.22007027 L220.217876,202.1535196 L221.3346608,202.09315969 L222.4514456,202.03899054 L223.5682304,201.99101215 L224.6850152,201.95077221 L225.8018,201.68302184 L226.9185848,201.65516342 L228.0353696,201.63349576 L229.1521544,201.61801886 L230.2689392,201.60873272 L231.385724,201.60563734 L232.5025088,201.60873272 L233.6192936,201.61956655 L234.7360784,201.63659114 L235.8528632,201.6582588 L236.969648,201.68766491 L238.0864328,201.72326178 L239.2032176,201.76504941 L240.3200024,201.8130278 L241.4367872,201.86719695 L242.553572,201.92910455 L243.6703568,201.76350172 L244.7871416,201.83779084 L245.9039264,201.91827072 L247.0207112,202.00494136 L248.137496,202.09780276 L249.2542808,202.19685492 L250.3710656,202.30364553 L251.4878504,202.4166269 L252.6046352,202.53579903 L253.72142,202.66270961 L254.8382048,202.79581095 L255.9549896,202.93510305 L257.0717744,203.08058591 L258.1885592,203.23380722 L259.305344,203.39476698 L260.4221288,203.5619175 L261.5389136,203.49691452 L262.6556984,203.67799425 L263.7724832,203.86526474 L264.889268,204.05872599 L266.0060528,204.26147338 L267.1228376,204.47041153 L268.2396224,204.68708813 L269.3564072,204.90995549 L270.473192,205.1405613 L271.5899768,205.38045325 L272.7067616,205.62653596 L273.8235464,205.88035712 L274.9403312,206.14191673 L276.057116,206.41121479 L277.1739008,206.6882513 L278.2906856,206.72384817 L279.4074704,207.01636158 L280.5242552,207.31661344 L281.64104,207.62615144 L282.7578248,207.94342789 L283.8746096,208.26999048 L284.9913944,208.60429152 L286.1081792,208.9478787 L287.224964,209.29920433 L288.3417488,209.66136379 L289.4585336,210.0312617 L290.5753184,210.41044575 L291.6921032,210.80046363 L292.808888,211.19821996 L293.9256728,211.60681012 L295.0424576,212.02623411 L296.1592424,212.1825508 L297.2760272,212.61899938 L298.392812,213.06628179 L299.5095968,213.52439803 L300.6263816,213.9933481 L301.7431664,214.473132 L302.8599512,214.96374973 L303.976736,215.46674898 L305.0935208,215.98058206 L306.2103056,216.50524897 L307.3270904,217.04384509 L308.4438752,217.59482273 L309.56066,218.15818189 L310.6774448,218.73392257 L311.7942296,219.32359246 L312.9110144,219.92564387 L314.0277992,220.23518187 L315.144584,220.86354401 L316.2613688,221.50583536 L317.3781536,222.16360361 L318.4949384,222.83684876 L319.6117232,223.52402312 L320.728508,224.22822207 L321.8452928,224.94944561 L322.9620776,225.68614605 L324.0788624,226.44141877 L325.1956472,227.21371608 L326.312432,228.00613336 L327.4292168,228.81557523 L328.5460016,229.64513707 L329.6627864,230.49481888 L330.7795712,231.00555658 L331.896356,231.89238295 L333.0131408,232.80242467 L334.1299256,233.73413405 L335.2467104,234.68905878 L336.3634952,235.66874655 L337.48028,236.67319736 L338.5970648,237.7039589 L339.7138496,238.76257886 L340.8306344,239.84905724 L341.9474192,240.96494173 L343.064204,242.11023233 L344.1809888,243.28802442 L345.2977736,244.498318 L346.4145584,245.74420845 L347.5313432,247.02414808 L348.648128,247.88002065 L349.7649128,249.22960633 L350.8816976,250.61788426 L351.9984824,252.0510452 L353.1152672,253.52754146 L354.232052,255.05201611 L355.3488368,256.62601684 L356.4656216,258.25418672 L357.5824064,259.93497806 L358.6991912,261.67612931 L359.815976,263.47918816 L360.9327608,265.34879768 L362.0495456,267.28805325 L363.1663304,269.30314563 L364.2831152,271.39871789 L365.3999,272.90616795 L366.5166848,270.81678645 L367.6334696,268.80788483 L368.7502544,266.87482002 L369.8670392,265.01140126 L370.983824,263.21453317 L372.1006088,261.47957268 L373.2173936,259.80342441 L374.3341784,258.18299298 L375.4509632,256.61363532 L376.567748,255.09535143 L377.6845328,253.62504593 L378.8013176,252.19962344 L379.9181024,250.81598858 L381.0348872,249.47414135 L382.151672,248.17098637 L383.2684568,246.45150278 L384.3852416,245.22882768 L385.5020264,244.04020176 L386.6188112,242.88407733 L387.735596,241.7589067 L388.8523808,240.66468987 L389.9691656,239.59833146 L391.0859504,238.55983147 L392.2027352,237.54764221 L393.31952,236.56021599 L394.4363048,235.5991005 L395.5530896,234.66120036 L396.6698744,233.74806326 L397.7866592,232.85504613 L398.903444,231.98524435 L400.0202288,231.13556254 L401.1370136,229.95157969 L402.2537984,229.14678089 L403.3705832,228.36055437 L404.487368,227.59290013 L405.6041528,226.84381817 L406.7209376,226.1117608 L407.8377224,225.39518033 L408.9545072,224.69717214 L410.071292,224.01464085 L411.1880768,223.34758646 L412.3048616,222.69446128 L413.4216464,222.05836069 L414.5384312,221.43464162 L415.655216,220.82639945 L416.7720008,220.23208649 L417.8887856,219.3483555 L419.0055704,218.78344865 L420.1223552,218.23092332 L421.23914,217.69077951 L422.3559248,217.16301722 L423.4727096,216.64763645 L424.5894944,216.1446372 L425.7062792,215.65247178 L426.823064,215.17114019 L427.9398488,214.70219012 L429.0566336,214.24407388 L430.1734184,213.79524378 L431.2902032,213.3587952 L432.406988,212.93163276 L433.5237728,212.51375646 L434.6405576,212.10671399 L435.7573424,211.44120729 L436.8741272,211.05583248 L437.990912,210.67819612 L439.1076968,210.31139359 L440.2244816,209.9538772 L441.3412664,209.60564695 L442.4580512,209.26515515 L443.574836,208.93394949 L444.6916208,208.61202997 L445.8084056,208.2978489 L446.9251904,207.99295397 L448.0419752,207.69579749 L449.15876,207.40637946 L450.2755448,207.12624757 L451.3923296,206.85230644 L452.5091144,206.58765145 L453.6258992,206.08310451 L454.742684,205.83547411 L455.8594688,205.59403447 L456.9762536,205.36188097 L458.0930384,205.13591823 L459.2098232,204.91769394 L460.326608,204.7072081 L461.4433928,204.50446071 L462.5601776,204.30790408 L463.6769624,204.1190859 L464.7937472,203.93645848 L465.910532,203.76156951 L467.0273168,203.59441899 L468.1441016,203.43345923 L469.2608864,203.27869023 L470.3776712,202.89486311 L471.494456,202.75557101 L472.6112408,202.62246967 L473.7280256,202.49555909 L474.8448104,202.37638696 L475.9615952,202.26340559 L477.07838,202.15661498 L478.1951648,202.05601513 L479.3119496,201.96315373 L480.4287344,201.87648309 L481.5455192,201.79600321 L482.662304,201.72171409 L483.7790888,201.65361573 L484.8958736,201.59325582 L486.0126584,201.53908667 L487.1294432,201.48956059 L488.246228,201.21716715 L489.3630128,201.18157028 L490.4797976,201.15216417 L491.5965824,201.13049651 L492.7133672,201.11347192 L493.830152,201.10263809 L494.9469368,201.09954271 L496.0637216,201.1010904 L497.1805064,201.11037654 L498.2972912,201.12585344 L499.414076,201.1475211 L500.5308608,201.17383183 L501.6476456,201.20788101 L502.7644304,201.24812095 L503.8812152,201.29609934 L504.998,201.3487208 L506.1147848,201.17692721 L507.2315696,201.24347788 L508.3483544,201.31467162 L509.4651392,201.39360381 L510.581924,201.47717907 L511.6987088,201.56849278 L512.8154936,201.66754494 L513.9322784,201.77124017 L515.0490632,201.88267385 L516.165848,201.9987506 L517.2826328,202.12411349 L518.3994176,202.25411945 L519.5162024,202.39186386 L520.6329872,202.53579903 L521.749772,202.68592496 L522.8665568,202.60854046 L523.9833416,202.7725956 L525.1001264,202.9428415 L526.2169112,203.12082585 L527.333696,203.30500096 L528.4504808,203.49691452 L529.5672656,203.69501884 L530.6840504,203.9024093 L531.8008352,204.11444283 L532.91762,204.3357625 L534.0344048,204.56327293 L535.1511896,204.79852181 L536.2679744,205.04150914 L537.3847592,205.29223492 L538.501544,205.55069915 L539.6183288,205.81535414 L540.7351136,205.84166487 L541.8518984,206.12334445 L542.9686832,206.41121479 L544.085468,206.70837127 L545.2022528,207.0132662 L546.3190376,207.32589958 L547.4358224,207.6478191 L548.5526072,207.97902476 L549.669392,208.31642118 L550.7861768,208.66465143 L551.9029616,209.02062013 L553.0197464,209.38742266 L554.1365312,209.76196364 L555.253316,210.14579076 L556.3701008,210.53890402 L557.4868856,210.67664843 L558.6036704,211.08678628 L559.7204552,211.50930565 L560.83724,211.93956347 L561.9540248,212.38065512 L563.0708096,212.8325806 L564.1875944,213.29533991 L565.3043792,213.76893305 L566.421164,214.25336002 L567.5379488,214.74862082 L568.6547336,215.25626314 L569.7715184,215.77473929 L570.8883032,216.30559696 L572.005088,216.84883615 L573.1218728,217.40290917 L574.2386576,217.9709114 L575.3554424,218.25568636 L576.4722272,218.84690394 L577.589012,219.45205073 L578.7057968,220.07112673 L579.8225816,220.70413194 L580.9393664,221.35261405 L582.0561512,222.01502537 L583.172936,222.69291359 L584.2897208,223.38627871 L585.4065056,224.09666842 L586.5232904,224.82408272 L587.6400752,225.56697392 L588.75686,226.3284374 L589.8736448,227.10692547 L590.9904296,227.90398582 L592.1072144,228.72116614 L593.2239992,229.2071408 L594.340784,230.0583703 L595.4575688,230.93126746 L596.5743536,231.82583228 L597.6911384,232.74206476 L598.8079232,233.68151259 L599.924708,234.64417577 L601.0414928,235.63160199 L602.1582776,236.64533894 L603.2750624,237.68383893 L604.3918472,238.75174503 L605.508632,239.84596186 L606.6254168,240.97113249 L607.7422016,242.12570923 L608.8589864,243.31433515 L609.9757712,244.09746629 L611.092556,245.34490443 L612.2093408,246.62793944 L613.3261256,247.9496667 L614.4429104,249.31008621 L615.5596952,250.71229335 L616.67648,252.15628812 L617.7932648,253.64826128 L618.9100496,255.18666514 L620.0268344,256.77459508 L621.1436192,258.41824186 L622.260404,260.11605779 L623.3771888,261.87423363 L624.4939736,263.69586476 L625.6107584,265.58404656 L626.7275432,267.54496979 L627.844328,268.94717693 L628.9611128,271.04584457 L630.0778976,273.22963516 L631.1946824,275.50628715 L632.3114672,277.8819913 L633.428252,280.36603375 L634.5450368,282.96615295 L635.6618216,285.69318273 L636.7786064,288.55950461 L637.8953912,291.57750011 L639.012176,294.76264613 L640.1289608,298.13196726 L641.2457456,301.70867885 L642.3625304,305.51599625 L643.4793152,309.58177788 L644.5961,313.94626368 " fill-rule="evenodd" vector-effect="non-scaling-stroke"/>
                        </g>
                    </g>
                </g>
                <g id="PlotDataItem_2">
                    <g fill="none" fill-rule="evenodd" id="PlotCurveItem_2" stroke="black" stroke-linecap="square" stroke-linejoin="bevel" stroke-width="1">
                        <g fill="none" font-family="MS Shell Dlg 2" font-size="11" font-style="normal" font-weight="400" stroke="#c7b069" stroke-linecap="square" stroke-linejoin="bevel" stroke-opacity="1" stroke-width="1">
                            <path d="M86.2037000931,318.92208703 L87.3204848,314.36878305 L88.4372696,310.13739859 L89.5540544,306.18614602 L90.6708392,302.48407154 L91.787624,299.00176904 L92.9044088,295.71602317 L94.0211936,292.60826165 L95.1379784,289.66145989 L96.2547632,286.86168868 L97.371548,284.19501881 L98.4883328,281.65061645 L99.6051176,279.22074315 L100.7219024,276.89301739 L101.8386872,274.66434379 L102.955472,272.52388852 L104.0722568,269.82471716 L105.1890416,267.86534162 L106.3058264,265.97715982 L107.4226112,264.15707638 L108.539396,262.40199592 L109.6561808,260.70572768 L110.7729656,259.06517628 L111.8897504,257.48034172 L113.0065352,255.94503324 L114.12332,254.45770315 L115.2401048,253.01680376 L116.3568896,251.61923969 L117.4736744,250.26346325 L118.5904592,248.94792675 L119.707244,247.66953481 L120.8240288,246.42828743 L121.9408136,244.77844989 L123.0575984,243.61149163 L124.1743832,242.47703486 L125.291168,241.3719842 L126.4079528,240.29788734 L127.5247376,239.25010121 L128.6415224,238.2301735 L129.7583072,237.23500883 L130.875092,236.26615489 L131.9918768,235.3205163 L133.1086616,234.39964075 L134.2254464,233.50043286 L135.3422312,232.62444032 L136.459016,231.76856775 L137.5758008,230.93436284 L138.6925856,229.76585689 L139.8093704,228.97343961 L140.9261552,228.2011423 L142.04294,227.44586958 L143.1597248,226.70916914 L144.2765096,225.98949329 L145.3932944,225.28529434 L146.5100792,224.59811998 L147.626864,223.92642252 L148.7436488,223.27174965 L149.8604336,222.63100599 L150.9772184,222.00419154 L152.0940032,221.39285399 L153.210788,220.79389796 L154.3275728,220.21041883 L155.4443576,219.63932122 L156.5611424,218.78190096 L157.6779272,218.23866177 L158.794712,217.7078041 L159.9114968,217.18932795 L161.0282816,216.68323332 L162.1450664,216.18952021 L163.2618512,215.70664093 L164.378636,215.23459548 L165.4954208,214.77338386 L166.6122056,214.32300607 L167.7289904,213.88346211 L168.8457752,213.45475198 L169.96256,213.03687568 L171.0793448,212.62828552 L172.1961296,212.2289815 L173.3129144,211.84051131 L174.4296992,211.1920292 L175.546484,210.82367898 L176.6632688,210.4646149 L177.7800536,210.11483696 L178.8968384,209.77434516 L180.0136232,209.44159181 L181.130408,209.1181246 L182.2471928,208.80239584 L183.3639776,208.49595322 L184.4807624,208.19879674 L185.5975472,207.90937871 L186.714332,207.62769913 L187.8311168,207.353758 L188.9479016,207.08910301 L190.0646864,206.83063878 L191.1814712,206.3322826 L192.298256,206.09084296 L193.4150408,205.85714177 L194.5318256,205.63117903 L195.6486104,205.41295474 L196.7653952,205.2024689 L197.88218,204.99817382 L198.9989648,204.80316488 L200.1157496,204.61279901 L201.2325344,204.43171928 L202.3493192,204.25683031 L203.466104,204.0881321 L204.5828888,203.92717234 L205.6996736,203.77395103 L206.8164584,203.62692048 L207.9332432,203.48608069 L209.050028,203.11618278 L210.1668128,202.9892722 L211.2835976,202.87010007 L212.4003824,202.7571187 L213.5171672,202.65187578 L214.633952,202.55282362 L215.7507368,202.45841453 L216.8675216,202.37329158 L217.9843064,202.2928117 L219.1010912,202.22007027 L220.217876,202.1535196 L221.3346608,202.09315969 L222.4514456,202.03899054 L223.5682304,201.99101215 L224.6850152,201.95077221 L225.8018,201.68302184 L226.9185848,201.65516342 L228.0353696,201.63349576 L229.1521544,201.61801886 L230.2689392,201.60873272 L231.385724,201.60563734 L232.5025088,201.60873272 L233.6192936,201.61956655 L234.7360784,201.63659114 L235.8528632,201.6582588 L236.969648,201.68766491 L238.0864328,201.72326178 L239.2032176,201.76504941 L240.3200024,201.8130278 L241.4367872,201.86719695 L242.553572,201.92910455 L243.6703568,201.76350172 L244.7871416,201.83779084 L245.9039264,201.91827072 L247.0207112,202.00494136 L248.137496,202.09780276 L249.2542808,202.19685492 L250.3710656,202.30364553 L251.4878504,202.4166269 L252.6046352,202.53579903 L253.72142,202.66270961 L254.8382048,202.79581095 L255.9549896,202.93510305 L257.0717744,203.08058591 L258.1885592,203.23380722 L259.305344,203.39476698 L260.4221288,203.5619175 L261.5389136,203.49691452 L262.6556984,203.67799425 L263.7724832,203.86526474 L264.889268,204.05872599 L266.0060528,204.26147338 L267.1228376,204.47041153 L268.2396224,204.68708813 L269.3564072,204.90995549 L270.473192,205.1405613 L271.5899768,205.38045325 L272.7067616,205.62653596 L273.8235464,205.88035712 L274.9403312,206.14191673 L276.057116,206.41121479 L277.1739008,206.6882513 L278.2906856,206.72384817 L279.4074704,207.01636158 L280.5242552,207.31661344 L281.64104,207.62615144 L282.7578248,207.94342789 L283.8746096,208.26999048 L284.9913944,208.60429152 L286.1081792,208.9478787 L287.224964,209.29920433 L288.3417488,209.66136379 L289.4585336,210.0312617 L290.5753184,210.41044575 L291.6921032,210.80046363 L292.808888,211.19821996 L293.9256728,211.60681012 L295.0424576,212.02623411 L296.1592424,212.1825508 L297.2760272,212.61899938 L298.392812,213.06628179 L299.5095968,213.52439803 L300.6263816,213.9933481 L301.7431664,214.473132 L302.8599512,214.96374973 L303.976736,215.46674898 L305.0935208,215.98058206 L306.2103056,216.50524897 L307.3270904,217.04384509 L308.4438752,217.59482273 L309.56066,218.15818189 L310.6774448,218.73392257 L311.7942296,219.32359246 L312.9110144,219.92564387 L314.0277992,220.23518187 L315.144584,220.86354401 L316.2613688,221.50583536 L317.3781536,222.16360361 L318.4949384,222.83684876 L319.6117232,223.52402312 L320.728508,224.22822207 L321.8452928,224.94944561 L322.9620776,225.68614605 L324.0788624,226.44141877 L325.1956472,227.21371608 L326.312432,228.00613336 L327.4292168,228.81557523 L328.5460016,229.64513707 L329.6627864,230.49481888 L330.7795712,231.00555658 L331.896356,231.89238295 L333.0131408,232.80242467 L334.1299256,233.73413405 L335.2467104,234.68905878 L336.3634952,235.66874655 L337.48028,236.67319736 L338.5970648,237.7039589 L339.7138496,238.76257886 L340.8306344,239.84905724 L341.9474192,240.96494173 L343.064204,242.11023233 L344.1809888,243.28802442 L345.2977736,244.498318 L346.4145584,245.74420845 L347.5313432,247.02414808 L348.648128,247.88002065 L349.7649128,249.22960633 L350.8816976,250.61788426 L351.9984824,252.0510452 L353.1152672,253.52754146 L354.232052,255.05201611 L355.3488368,256.62601684 L356.4656216,258.25418672 L357.5824064,259.93497806 L358.6991912,261.67612931 L359.815976,263.47918816 L360.9327608,265.34879768 L362.0495456,267.28805325 L363.1663304,269.30314563 L364.2831152,271.39871789 L365.3999,272.90616795 L366.5166848,270.81678645 L367.6334696,268.80788483 L368.7502544,266.87482002 L369.8670392,265.01140126 L370.983824,263.21453317 L372.1006088,261.47957268 L373.2173936,259.80342441 L374.3341784,258.18299298 L375.4509632,256.61363532 L376.567748,255.09535143 L377.6845328,253.62504593 L378.8013176,252.19962344 L379.9181024,250.81598858 L381.0348872,249.47414135 L382.151672,248.17098637 L383.2684568,246.45150278 L384.3852416,245.22882768 L385.5020264,244.04020176 L386.6188112,242.88407733 L387.735596,241.7589067 L388.8523808,240.66468987 L389.9691656,239.59833146 L391.0859504,238.55983147 L392.2027352,237.54764221 L393.31952,236.56021599 L394.4363048,235.5991005 L395.5530896,234.66120036 L396.6698744,233.74806326 L397.7866592,232.85504613 L398.903444,231.98524435 L400.0202288,231.13556254 L401.1370136,229.95157969 L402.2537984,229.14678089 L403.3705832,228.36055437 L404.487368,227.59290013 L405.6041528,226.84381817 L406.7209376,226.1117608 L407.8377224,225.39518033 L408.9545072,224.69717214 L410.071292,224.01464085 L411.1880768,223.34758646 L412.3048616,222.69446128 L413.4216464,222.05836069 L414.5384312,221.43464162 L415.655216,220.82639945 L416.7720008,220.23208649 L417.8887856,219.3483555 L419.0055704,218.78344865 L420.1223552,218.23092332 L421.23914,217.69077951 L422.3559248,217.16301722 L423.4727096,216.64763645 L424.5894944,216.1446372 L425.7062792,215.65247178 L426.823064,215.17114019 L427.9398488,214.70219012 L429.0566336,214.24407388 L430.1734184,213.79524378 L431.2902032,213.3587952 L432.406988,212.93163276 L433.5237728,212.51375646 L434.6405576,212.10671399 L435.7573424,211.44120729 L436.8741272,211.05583248 L437.990912,210.67819612 L439.1076968,210.31139359 L440.2244816,209.9538772 L441.3412664,209.60564695 L442.4580512,209.26515515 L443.574836,208.93394949 L444.6916208,208.61202997 L445.8084056,208.2978489 L446.9251904,207.99295397 L448.0419752,207.69579749 L449.15876,207.40637946 L450.2755448,207.12624757 L451.3923296,206.85230644 L452.5091144,206.58765145 L453.6258992,206.08310451 L454.742684,205.83547411 L455.8594688,205.59403447 L456.9762536,205.36188097 L458.0930384,205.13591823 L459.2098232,204.91769394 L460.326608,204.7072081 L461.4433928,204.50446071 L462.5601776,204.30790408 L463.6769624,204.1190859 L464.7937472,203.93645848 L465.910532,203.76156951 L467.0273168,203.59441899 L468.1441016,203.43345923 L469.2608864,203.27869023 L470.3776712,202.89486311 L471.494456,202.75557101 L472.6112408,202.62246967 L473.7280256,202.49555909 L474.8448104,202.37638696 L475.9615952,202.26340559 L477.07838,202.15661498 L478.1951648,202.05601513 L479.3119496,201.96315373 L480.4287344,201.87648309 L481.5455192,201.79600321 L482.662304,201.72171409 L483.7790888,201.65361573 L484.8958736,201.59325582 L486.0126584,201.53908667 L487.1294432,201.48956059 L488.246228,201.21716715 L489.3630128,201.18157028 L490.4797976,201.15216417 L491.5965824,201.13049651 L492.7133672,201.11347192 L493.830152,201.10263809 L494.9469368,201.09954271 L496.0637216,201.1010904 L497.1805064,201.11037654 L498.2972912,201.12585344 L499.414076,201.1475211 L500.5308608,201.17383183 L501.6476456,201.20788101 L502.7644304,201.24812095 L503.8812152,201.29609934 L504.998,201.3487208 L506.1147848,201.17692721 L507.2315696,201.24347788 L508.3483544,201.31467162 L509.4651392,201.39360381 L510.581924,201.47717907 L511.6987088,201.56849278 L512.8154936,201.66754494 L513.9322784,201.77124017 L515.0490632,201.88267385 L516.165848,201.9987506 L517.2826328,202.12411349 L518.3994176,202.25411945 L519.5162024,202.39186386 L520.6329872,202.53579903 L521.749772,202.68592496 L522.8665568,202.60854046 L523.9833416,202.7725956 L525.1001264,202.9428415 L526.2169112,203.12082585 L527.333696,203.30500096 L528.4504808,203.49691452 L529.5672656,203.69501884 L530.6840504,203.9024093 L531.8008352,204.11444283 L532.91762,204.3357625 L534.0344048,204.56327293 L535.1511896,204.79852181 L536.2679744,205.04150914 L537.3847592,205.29223492 L538.501544,205.55069915 L539.6183288,205.81535414 L540.7351136,205.84166487 L541.8518984,206.12334445 L542.9686832,206.41121479 L544.085468,206.70837127 L545.2022528,207.0132662 L546.3190376,207.32589958 L547.4358224,207.6478191 L548.5526072,207.97902476 L549.669392,208.31642118 L550.7861768,208.66465143 L551.9029616,209.02062013 L553.0197464,209.38742266 L554.1365312,209.76196364 L555.253316,210.14579076 L556.3701008,210.53890402 L557.4868856,210.67664843 L558.6036704,211.08678628 L559.7204552,211.50930565 L560.83724,211.93956347 L561.9540248,212.38065512 L563.0708096,212.8325806 L564.1875944,213.29533991 L565.3043792,213.76893305 L566.421164,214.25336002 L567.5379488,214.74862082 L568.6547336,215.25626314 L569.7715184,215.77473929 L570.8883032,216.30559696 L572.005088,216.84883615 L573.1218728,217.40290917 L574.2386576,217.9709114 L575.3554424,218.25568636 L576.4722272,218.84690394 L577.589012,219.45205073 L578.7057968,220.07112673 L579.8225816,220.70413194 L580.9393664,221.35261405 L582.0561512,222.01502537 L583.172936,222.69291359 L584.2897208,223.38627871 L585.4065056,224.09666842 L586.5232904,224.82408272 L587.6400752,225.56697392 L588.75686,226.3284374 L589.8736448,227.10692547 L590.9904296,227.90398582 L592.1072144,228.72116614 L593.2239992,229.2071408 L594.340784,230.0583703 L595.4575688,230.93126746 L596.5743536,231.82583228 L597.6911384,232.74206476 L598.8079232,233.68151259 L599.924708,234.64417577 L601.0414928,235.63160199 L602.1582776,236.64533894 L603.2750624,237.68383893 L604.3918472,238.75174503 L605.508632,239.84596186 L606.6254168,240.97113249 L607.7422016,242.12570923 L608.8589864,243.31433515 L609.9757712,244.09746629 L611.092556,245.34490443 L612.2093408,246.62793944 L613.3261256,247.9496667 L614.4429104,249.31008621 L615.5596952,250.71229335 L616.67648,252.15628812 L617.7932648,253.64826128 L618.9100496,255.18666514 L620.0268344,256.77459508 L621.1436192,258.41824186 L622.260404,260.11605779 L623.3771888,261.87423363 L624.4939736,263.69586476 L625.6107584,265.58404656 L626.7275432,267.54496979 L627.844328,268.94717693 L628.9611128,271.04584457 L630.0778976,273.22963516 L631.1946824,275.50628715 L632.3114672,277.8819913 L633.428252,280.36603375 L634.5450368,282.96615295 L635.6618216,285.69318273 L636.7786064,288.55950461 L637.8953912,291.57750011 L639.012176,294.76264613 L640.1289608,298.13196726 L641.2457456,301.70867885 L642.3625304,305.51599625 L643.4793152,309.58177788 L644.5961,313.94626368 " fill-rule="evenodd" vector-effect="non-scaling-stroke"/>
                        </g>
                    </g>
                </g>
                <g id="PlotDataItem_3">
                    <g fill="none" fill-rule="evenodd" id="PlotCurveItem_3" stroke="black" stroke-linecap="square" stroke-linejoin="bevel" stroke-width="1">
                        <g fill="none" font-family="MS Shell Dlg 2" font-size="11" font-style="normal" font-weight="400" stroke="#7ea695" stroke-linecap="square" stroke-linejoin="bevel" stroke-opacity="1" stroke-width="1">
                            <path d="M86.2037000931,311.05827414 L87.3204848,306.73402828 L88.4372696,302.70074814 L89.5540544,298.92283685 L90.6708392,295.37243599 L91.787624,292.02478252 L92.9044088,288.85975647 L94.0211936,285.86033325 L95.1379784,283.00948827 L96.2547632,280.2963877 L97.371548,277.70865002 L98.4883328,275.2354414 L99.6051176,272.86902339 L100.7219024,270.60165754 L101.8386872,268.4256054 L102.955472,266.33467621 L104.0722568,264.3242269 L105.1890416,262.38651902 L106.3058264,260.52000488 L107.4226112,258.72004141 L108.539396,256.98043785 L109.6561808,255.29964651 L110.7729656,253.67457201 L111.8897504,252.10057128 L113.0065352,250.57764432 L114.12332,249.10114806 L115.2401048,247.66798712 L116.3568896,246.27970919 L117.4736744,244.93012351 L118.5904592,243.62077777 L119.707244,242.34857659 L120.8240288,241.11042459 L121.9408136,239.90786946 L123.0575984,238.73626813 L124.1743832,237.59716829 L125.291168,236.48902225 L126.4079528,235.40718694 L127.5247376,234.35475774 L128.6415224,233.33018696 L129.7583072,232.33037922 L130.875092,231.35533452 L131.9918768,230.40505286 L133.1086616,229.47643886 L134.2254464,228.5725879 L135.3422312,227.68885691 L136.459016,226.82679358 L137.5758008,225.98485022 L138.6925856,225.16302683 L139.8093704,224.36132341 L140.9261552,223.57664458 L142.04294,222.81208572 L143.1597248,222.06300376 L144.2765096,221.33249408 L145.3932944,220.61900899 L146.5100792,219.9210008 L147.626864,219.23846951 L148.7436488,218.57141512 L149.8604336,217.91983763 L150.9772184,217.28373704 L152.0940032,216.66156566 L153.210788,216.05332349 L154.3275728,215.45746284 L155.4443576,214.87707909 L156.5611424,214.30752917 L157.6779272,213.75190846 L158.794712,213.21021696 L159.9114968,212.67935929 L161.0282816,212.15933545 L162.1450664,211.65324082 L163.2618512,211.15798002 L164.378636,210.67355305 L165.4954208,210.19995991 L166.6122056,209.73874829 L167.7289904,209.28682281 L168.8457752,208.84573116 L169.96256,208.41547334 L171.0793448,207.99450166 L172.1961296,207.58436381 L173.3129144,207.1835121 L174.4296992,206.79194653 L175.546484,206.41121479 L176.6632688,206.0382215 L177.7800536,205.67606204 L178.8968384,205.32164103 L180.0136232,204.97650616 L181.130408,204.64065743 L182.2471928,204.31409484 L183.3639776,203.9952707 L184.4807624,203.68418501 L185.5975472,203.38238546 L186.714332,203.08832436 L187.8311168,202.8035494 L188.9479016,202.5249652 L190.0646864,202.25566714 L191.1814712,201.99410753 L192.298256,201.74028637 L193.4150408,201.49420366 L194.5318256,201.2558594 L195.6486104,201.02525359 L196.7653952,200.80238623 L197.88218,200.58570963 L198.9989648,200.37677148 L200.1157496,200.17557178 L201.2325344,199.98211053 L202.3493192,199.79484004 L203.466104,199.615308 L204.5828888,199.44196672 L205.6996736,199.27636389 L206.8164584,199.11695182 L207.9332432,198.9652782 L209.050028,198.82134303 L210.1668128,198.68205093 L211.2835976,198.55049728 L212.4003824,198.42668208 L213.5171672,198.30750995 L214.633952,198.19607627 L215.7507368,198.09238104 L216.8675216,197.99332888 L217.9843064,197.90201517 L219.1010912,197.81689222 L220.217876,197.73796003 L221.3346608,197.66676629 L222.4514456,197.60176331 L223.5682304,197.5414034 L224.6850152,197.48878194 L225.8018,197.44389893 L226.9185848,197.40365899 L228.0353696,197.36960981 L229.1521544,197.34329908 L230.2689392,197.32317911 L231.385724,197.30770221 L232.5025088,197.29996376 L233.6192936,197.29996376 L234.7360784,197.30460683 L235.8528632,197.31544066 L236.969648,197.33401294 L238.0864328,197.35722829 L239.2032176,197.38818209 L240.3200024,197.42532665 L241.4367872,197.46866197 L242.553572,197.51818805 L243.6703568,197.57390489 L244.7871416,197.63736018 L245.9039264,197.70545854 L247.0207112,197.78129535 L248.137496,197.86332292 L249.2542808,197.95308894 L250.3710656,198.04749803 L251.4878504,198.14964557 L252.6046352,198.25798387 L253.72142,198.37406062 L254.8382048,198.49478044 L255.9549896,198.62323871 L257.0717744,198.75943543 L258.1885592,198.90182291 L259.305344,199.05040115 L260.4221288,199.20517015 L261.5389136,199.36922529 L262.6556984,199.5379235 L263.7724832,199.71436016 L264.889268,199.89853527 L266.0060528,200.09044883 L267.1228376,200.28855315 L268.2396224,200.49284823 L269.3564072,200.70642945 L270.473192,200.92620143 L271.5899768,201.15371186 L272.7067616,201.38896074 L273.8235464,201.63194807 L274.9403312,201.88267385 L276.057116,202.13959039 L277.1739008,202.40579307 L278.2906856,202.6797342 L279.4074704,202.96141378 L280.5242552,203.2523795 L281.64104,203.55108367 L282.7578248,203.85752629 L283.8746096,204.17170736 L284.9913944,204.49517457 L286.1081792,204.82792792 L287.224964,205.16841972 L288.3417488,205.51819766 L289.4585336,205.87726174 L290.5753184,206.24561196 L291.6921032,206.62324832 L292.808888,207.01017082 L293.9256728,207.40637946 L295.0424576,207.81187424 L296.1592424,208.22820285 L297.2760272,208.6538176 L298.392812,209.09026618 L299.5095968,209.53754859 L300.6263816,209.99411714 L301.7431664,210.46306721 L302.8599512,210.94130342 L303.976736,211.43192115 L305.0935208,211.9349204 L306.2103056,212.44720579 L307.3270904,212.97342039 L308.4438752,213.51046882 L309.56066,214.05989877 L310.6774448,214.62325793 L311.7942296,215.19899861 L312.9110144,215.78712081 L314.0277992,216.38917222 L315.144584,217.00515284 L316.2613688,217.63661036 L317.3781536,218.2804494 L318.4949384,218.93976534 L319.6117232,219.61610587 L320.728508,220.30637561 L321.8452928,221.01212225 L322.9620776,221.73644117 L324.0788624,222.47623699 L325.1956472,223.2330574 L326.312432,224.00999778 L327.4292168,224.80396275 L328.5460016,225.6165 L329.6627864,226.44915722 L330.7795712,227.30193441 L331.896356,228.17483157 L333.0131408,229.06939639 L334.1299256,229.98717656 L335.2467104,230.92662439 L336.3634952,231.89083526 L337.48028,232.87980917 L338.5970648,233.89354612 L339.7138496,234.9335938 L340.8306344,236.0014999 L341.9474192,237.09726442 L343.064204,238.22243505 L344.1809888,239.37855948 L345.2977736,240.5671854 L346.4145584,241.78831281 L347.5313432,243.04503709 L348.648128,244.33735824 L349.7649128,245.66837164 L350.8816976,247.03807729 L351.9984824,248.45111826 L353.1152672,249.90594686 L354.232052,251.40875385 L355.3488368,252.95799154 L356.4656216,254.55985069 L357.5824064,256.2143313 L358.6991912,257.92762413 L359.815976,259.69972918 L360.9327608,261.53528952 L362.0495456,263.43894822 L363.1663304,265.41534835 L364.2831152,267.46913298 L365.3999,269.60494518 L366.5166848,267.47687143 L367.6334696,265.43237294 L368.7502544,263.46216357 L369.8670392,261.56624332 L370.983824,259.73687374 L372.1006088,257.97095945 L373.2173936,256.26540507 L374.3341784,254.61556753 L375.4509632,253.01989914 L376.567748,251.47530452 L377.6845328,249.9771406 L378.8013176,248.52695507 L379.9181024,247.11855717 L381.0348872,245.75349459 L382.151672,244.42712426 L383.2684568,243.13789849 L384.3852416,241.88581728 L385.5020264,240.66778525 L386.6188112,239.4838024 L387.735596,238.33077335 L388.8523808,237.2086981 L389.9691656,236.11602896 L391.0859504,235.05276593 L392.2027352,234.01581363 L393.31952,233.00517206 L394.4363048,232.01929353 L395.5530896,231.05972573 L396.6698744,230.12182559 L397.7866592,229.2071408 L398.903444,228.31567136 L400.0202288,227.44432189 L401.1370136,226.59464008 L402.2537984,225.76507824 L403.3705832,224.95563637 L404.487368,224.16321909 L405.6041528,223.39092178 L406.7209376,222.63564906 L407.8377224,221.89740093 L408.9545072,221.17772508 L410.071292,220.47352613 L411.1880768,219.78480408 L412.3048616,219.11155893 L413.4216464,218.45533837 L414.5384312,217.81149933 L415.655216,217.18468488 L416.7720008,216.57025195 L417.8887856,215.96974823 L419.0055704,215.38317372 L420.1223552,214.81052842 L421.23914,214.25026464 L422.3559248,213.70238238 L423.4727096,213.16688164 L424.5894944,212.64376242 L425.7062792,212.13302472 L426.823064,211.63312085 L427.9398488,211.1455985 L429.0566336,210.66736229 L430.1734184,210.2015076 L431.2902032,209.74648674 L432.406988,209.30229971 L433.5237728,208.86739882 L434.6405576,208.44333176 L435.7573424,208.03009853 L436.8741272,207.62615144 L437.990912,207.23149049 L439.1076968,206.84766337 L440.2244816,206.4715747 L441.3412664,206.10631986 L442.4580512,205.74880347 L443.574836,205.40057322 L444.6916208,205.06162911 L445.8084056,204.73197114 L446.9251904,204.41005162 L448.0419752,204.09741824 L449.15876,203.79252331 L450.2755448,203.49691452 L451.3923296,203.20904418 L452.5091144,202.92891229 L453.6258992,202.65806654 L454.742684,202.39341155 L455.8594688,202.1380427 L456.9762536,201.88886461 L458.0930384,201.64897266 L459.2098232,201.41527147 L460.326608,201.19085642 L461.4433928,200.97263213 L462.5601776,200.76214629 L463.6769624,200.5593989 L464.7937472,200.36284227 L465.910532,200.17402409 L467.0273168,199.99294436 L468.1441016,199.81805539 L469.2608864,199.65090487 L470.3776712,199.48994511 L471.494456,199.3367238 L472.6112408,199.18969325 L473.7280256,199.05040115 L474.8448104,198.91729981 L475.9615952,198.79193692 L477.07838,198.6712171 L478.1951648,198.55978342 L479.3119496,198.45299281 L480.4287344,198.35394065 L481.5455192,198.26107925 L482.662304,198.17440861 L483.7790888,198.09547642 L484.8958736,198.0211873 L486.0126584,197.95463663 L487.1294432,197.89582441 L488.246228,197.84165526 L489.3630128,197.79367687 L490.4797976,197.75343693 L491.5965824,197.71938775 L492.7133672,197.69152933 L493.830152,197.66986167 L494.9469368,197.65593246 L496.0637216,197.64664632 L497.1805064,197.64509863 L498.2972912,197.64819401 L499.414076,197.65902784 L500.5308608,197.67605243 L501.6476456,197.69926778 L502.7644304,197.73022158 L503.8812152,197.76581845 L504.998,197.80915377 L506.1147848,197.85867985 L507.2315696,197.91439669 L508.3483544,197.97630429 L509.4651392,198.04440265 L510.581924,198.12023946 L511.6987088,198.20226703 L512.8154936,198.29048536 L513.9322784,198.38489445 L515.0490632,198.48704199 L516.165848,198.59538029 L517.2826328,198.70990935 L518.3994176,198.83217686 L519.5162024,198.96063513 L520.6329872,199.09528416 L521.749772,199.23767164 L522.8665568,199.38624988 L523.9833416,199.54256657 L525.1001264,199.70507402 L526.2169112,199.87377223 L527.333696,200.05175658 L528.4504808,200.234384 L529.5672656,200.42629756 L530.6840504,200.62440188 L531.8008352,200.83024465 L532.91762,201.04227818 L534.0344048,201.26359785 L535.1511896,201.49110828 L536.2679744,201.72635716 L537.3847592,201.96934449 L538.501544,202.22007027 L539.6183288,202.4785345 L540.7351136,202.74628487 L541.8518984,203.020226 L542.9686832,203.30190558 L544.085468,203.5928713 L545.2022528,203.89157547 L546.3190376,204.19956578 L547.4358224,204.51529454 L548.5526072,204.83876175 L549.669392,205.17306279 L550.7861768,205.51355459 L551.9029616,205.86488022 L553.0197464,206.22549199 L554.1365312,206.59384221 L555.253316,206.97302626 L556.3701008,207.35994876 L557.4868856,207.75770509 L558.6036704,208.16474756 L559.7204552,208.58262386 L560.83724,209.0097863 L561.9540248,209.44778257 L563.0708096,209.89506498 L564.1875944,210.35472891 L565.3043792,210.82367898 L566.421164,211.30501057 L567.5379488,211.79717599 L568.6547336,212.30017524 L569.7715184,212.81555601 L570.8883032,213.3433183 L572.005088,213.88191442 L573.1218728,214.43443975 L574.2386576,214.9993466 L575.3554424,215.57663497 L576.4722272,216.16785255 L577.589012,216.77145165 L578.7057968,217.39052765 L579.8225816,218.02353286 L580.9393664,218.67046728 L582.0561512,219.3328786 L583.172936,220.01076682 L584.2897208,220.70567963 L585.4065056,221.41452165 L586.5232904,222.14193595 L587.6400752,222.88482715 L588.75686,223.64629063 L589.8736448,224.4247787 L590.9904296,225.22338674 L592.1072144,226.03901937 L593.2239992,226.87631966 L594.340784,227.73373992 L595.4575688,228.61128015 L596.5743536,229.51048804 L597.6911384,230.43291128 L598.8079232,231.37700218 L599.924708,232.34740381 L601.0414928,233.34102079 L602.1582776,234.35940081 L603.2750624,235.40563925 L604.3918472,236.47973611 L605.508632,237.58169139 L606.6254168,238.71460047 L607.7422016,239.87846335 L608.8589864,241.07328003 L609.9757712,242.30369358 L611.092556,243.56815631 L612.2093408,244.8697636 L613.3261256,246.20851545 L614.4429104,247.58905493 L615.5596952,249.01138204 L616.67648,250.47859216 L617.7932648,251.99068529 L618.9100496,253.55385219 L620.0268344,255.16809286 L621.1436192,256.83650268 L622.260404,258.56217703 L623.3771888,260.34975898 L624.4939736,262.20234391 L625.6107584,264.1230272 L626.7275432,266.11799961 L627.844328,268.19190421 L628.9611128,270.34938407 L630.0778976,272.59662995 L631.1946824,274.9413803 L632.3114672,277.39137357 L633.428252,279.95434821 L634.5450368,282.64113805 L635.6618216,285.46102923 L636.7786064,288.42949865 L637.8953912,291.55892783 L639.012176,294.86634136 L640.1289608,298.3734069 L641.2457456,302.1033398 L642.3625304,306.0809031 L643.4793152,310.34169367 L644.5961,314.92595145 " fill-rule="evenodd" vector-effect="non-scaling-stroke"/>
                        </g>
                    </g>
                </g>
                <g id="PlotDataItem_4">
                    <g fill="none" fill-rule="evenodd" id="PlotCurveItem_4" stroke="black" stroke-linecap="square" stroke-linejoin="bevel" stroke-width="1">
                        <g fill="none" font-family="MS Shell Dlg 2" font-size="11" font-style="normal" font-weight="400" stroke="#8a7c91" stroke-linecap="square" stroke-linejoin="bevel" stroke-opacity="1" stroke-width="1">
                            <path d="M86.2037000931,291.14414691 L87.3204848,286.77347035 L88.4372696,282.6953072 L89.5540544,278.87096521 L90.6708392,275.27413365 L91.787624,271.88159717 L92.9044088,268.67014042 L94.0211936,265.6242865 L95.1379784,262.72855851 L96.2547632,259.97057493 L97.371548,257.33640655 L98.4883328,254.81986261 L99.6051176,252.40856159 L100.7219024,250.09786042 L101.8386872,247.87847296 L102.955472,245.74420845 L104.0722568,243.68887613 L105.1890416,241.70938062 L106.3058264,239.80107885 L107.4226112,237.95778006 L108.539396,236.17638887 L109.6561808,234.4538099 L110.7729656,232.78694777 L111.8897504,231.1727071 L113.0065352,229.6095402 L114.12332,228.092804 L115.2401048,226.62095081 L116.3568896,225.19243294 L117.4736744,223.80415501 L118.5904592,222.45611702 L119.707244,221.14522359 L120.8240288,219.86992703 L121.9408136,218.62867965 L123.0575984,217.42148145 L124.1743832,216.24523705 L125.291168,215.09839876 L126.4079528,213.98251427 L127.5247376,212.8944882 L128.6415224,211.83277286 L129.7583072,210.79736825 L130.875092,209.78827437 L131.9918768,208.80394353 L133.1086616,207.84282804 L134.2254464,206.90338021 L135.3422312,205.98714773 L136.459016,205.09258291 L137.5758008,204.21813806 L138.6925856,203.36536087 L139.8093704,202.53115596 L140.9261552,201.71552333 L142.04294,200.91846298 L143.1597248,200.13997491 L144.2765096,199.37851143 L145.3932944,198.63562023 L146.5100792,197.90820593 L147.626864,197.19626853 L148.7436488,196.50135572 L149.8604336,195.82191981 L150.9772184,195.15641311 L152.0940032,194.50638331 L153.210788,193.87183041 L154.3275728,193.24965903 L155.4443576,192.64141686 L156.5611424,192.0471039 L157.6779272,191.46672015 L158.794712,190.89717023 L159.9114968,190.34154952 L161.0282816,189.79831033 L162.1450664,189.26745266 L163.2618512,188.74742882 L164.378636,188.2397865 L165.4954208,187.7445257 L166.6122056,187.26009873 L167.7289904,186.7849579 L168.8457752,186.32219859 L169.96256,185.87027311 L171.0793448,185.42918146 L172.1961296,184.99737595 L173.3129144,184.57640427 L174.4296992,184.16471873 L175.546484,183.76386702 L176.6632688,183.37230145 L177.7800536,182.99002202 L178.8968384,182.61702873 L180.0136232,182.25486927 L181.130408,181.90044826 L182.2471928,181.55531339 L183.3639776,181.21946466 L184.4807624,180.89290207 L185.5975472,180.57407793 L186.714332,180.26453993 L187.8311168,179.96274038 L188.9479016,179.67022697 L190.0646864,179.38545201 L191.1814712,179.10996319 L192.298256,178.84221282 L193.4150408,178.5822009 L194.5318256,178.32992743 L195.6486104,178.0869401 L196.7653952,177.85014353 L197.88218,177.6226331 L198.9989648,177.40131343 L200.1157496,177.1892799 L201.2325344,176.98343713 L202.3493192,176.78533281 L203.466104,176.59496694 L204.5828888,176.41233952 L205.6996736,176.23745055 L206.8164584,176.06875234 L207.9332432,175.90779258 L209.050028,175.75457127 L210.1668128,175.60754072 L211.2835976,175.46824862 L212.4003824,175.33514728 L213.5171672,175.21133208 L214.633952,175.09215995 L215.7507368,174.98072627 L216.8675216,174.87703104 L217.9843064,174.77952657 L219.1010912,174.68976055 L220.217876,174.60618529 L221.3346608,174.53034848 L222.4514456,174.46070243 L223.5682304,174.39724714 L224.6850152,174.3415303 L225.8018,174.29200422 L226.9185848,174.2486689 L228.0353696,174.21307203 L229.1521544,174.18521361 L230.2689392,174.16199826 L231.385724,174.14652136 L232.5025088,174.13878291 L233.6192936,174.13723522 L234.7360784,174.14187829 L235.8528632,174.15271212 L236.969648,174.1712844 L238.0864328,174.19604744 L239.2032176,174.22854893 L240.3200024,174.26724118 L241.4367872,174.31212419 L242.553572,174.36474565 L243.6703568,174.42355787 L244.7871416,174.49010854 L245.9039264,174.56130228 L247.0207112,174.64178216 L248.137496,174.7284528 L249.2542808,174.8213142 L250.3710656,174.92191405 L251.4878504,175.02870466 L252.6046352,175.14323372 L253.72142,175.26395354 L254.8382048,175.39241181 L255.9549896,175.52706084 L257.0717744,175.66944832 L258.1885592,175.81957425 L259.305344,175.97589094 L260.4221288,176.13994608 L261.5389136,176.31173967 L262.6556984,176.48972402 L263.7724832,176.67544682 L264.889268,176.86890807 L266.0060528,177.07010777 L267.1228376,177.27904592 L268.2396224,177.49572252 L269.3564072,177.71858988 L270.473192,177.95074338 L271.5899768,178.18908764 L272.7067616,178.43671804 L273.8235464,178.69208689 L274.9403312,178.95519419 L276.057116,179.22603994 L277.1739008,179.50617183 L278.2906856,179.79404217 L279.4074704,180.08965096 L280.5242552,180.39454589 L281.64104,180.70872696 L282.7578248,181.03064648 L283.8746096,181.36030445 L284.9913944,181.70079625 L286.1081792,182.0490265 L287.224964,182.40654289 L288.3417488,182.77334542 L289.4585336,183.14943409 L290.5753184,183.5348089 L291.6921032,183.93101754 L292.808888,184.33496463 L293.9256728,184.75129324 L295.0424576,185.1753603 L296.1592424,185.61180888 L297.2760272,186.0575436 L298.392812,186.51411215 L299.5095968,186.97996684 L300.6263816,187.45820305 L301.7431664,187.94727309 L302.8599512,188.44872465 L303.976736,188.95946235 L305.0935208,189.48412926 L306.2103056,190.01963 L307.3270904,190.56751226 L308.4438752,191.12777604 L309.56066,191.70196903 L310.6774448,192.28699585 L311.7942296,192.88749957 L312.9110144,193.50038481 L314.0277992,194.12565157 L315.144584,194.76794292 L316.2613688,195.42261579 L317.3781536,196.09276556 L318.4949384,196.77839223 L319.6117232,197.4794958 L320.728508,198.19607627 L321.8452928,198.92968133 L322.9620776,199.67876329 L324.0788624,200.44641753 L325.1956472,201.23109636 L326.312432,202.03434747 L327.4292168,202.85617086 L328.5460016,203.69656653 L329.6627864,204.55708217 L330.7795712,205.43926547 L331.896356,206.34156874 L333.0131408,207.26553967 L334.1299256,208.21117826 L335.2467104,209.1800322 L336.3634952,210.17364918 L337.48028,211.1920292 L338.5970648,212.23517226 L339.7138496,213.30617374 L340.8306344,214.40348595 L341.9474192,215.52865658 L343.064204,216.68478101 L344.1809888,217.87185924 L345.2977736,219.08989127 L346.4145584,220.34197248 L347.5313432,221.62965056 L348.648128,222.95137782 L349.7649128,224.31334502 L350.8816976,225.71400447 L351.9984824,227.15645155 L353.1152672,228.64223395 L354.232052,230.17444705 L355.3488368,231.75463854 L356.4656216,233.38435611 L357.5824064,235.06824283 L358.6991912,236.80939408 L359.815976,238.60935755 L360.9327608,240.47277631 L362.0495456,242.40429343 L363.1663304,244.40700429 L364.2831152,246.48555196 L365.3999,248.6461272 L366.5166848,246.4948381 L367.6334696,244.42402888 L368.7502544,242.43060416 L369.8670392,240.50682549 L370.983824,238.65114518 L372.1006088,236.85737247 L373.2173936,235.12395967 L374.3341784,233.44626371 L375.4509632,231.82118921 L376.567748,230.24718848 L377.6845328,228.72116614 L378.8013176,227.24002681 L379.9181024,225.80377049 L381.0348872,224.40775411 L382.151672,223.05042998 L383.2684568,221.7317981 L384.3852416,220.45031078 L385.5020264,219.20132495 L386.6188112,217.98793599 L387.735596,216.80395314 L388.8523808,215.65247178 L389.9691656,214.53039653 L391.0859504,213.4361797 L392.2027352,212.36982129 L393.31952,211.32977361 L394.4363048,210.31448897 L395.5530896,209.32396737 L396.6698744,208.35820881 L397.7866592,207.4156656 L398.903444,206.49479005 L400.0202288,205.59558216 L401.1370136,204.71649424 L402.2537984,203.85907398 L403.3705832,203.020226 L404.487368,202.20149799 L405.6041528,201.40134226 L406.7209376,200.61975881 L407.8377224,199.85519995 L408.9545072,199.10766568 L410.071292,198.37560831 L411.1880768,197.66212322 L412.3048616,196.96411503 L413.4216464,196.28003605 L414.5384312,195.61298166 L415.655216,194.95985648 L416.7720008,194.32066051 L417.8887856,193.69694144 L419.0055704,193.08560389 L420.1223552,192.48819555 L421.23914,191.90471642 L422.3559248,191.33361881 L423.4727096,190.77490272 L424.5894944,190.23011584 L425.7062792,189.69616279 L426.823064,189.17459126 L427.9398488,188.66385356 L429.0566336,188.16549738 L430.1734184,187.67952272 L431.2902032,187.2028342 L432.406988,186.7385272 L433.5237728,186.28350634 L434.6405576,185.83931931 L435.7573424,185.40596611 L436.8741272,184.98344674 L437.990912,184.57021351 L439.1076968,184.16626642 L440.2244816,183.77315316 L441.3412664,183.38932604 L442.4580512,183.01478506 L443.574836,182.65107791 L444.6916208,182.29510921 L445.8084056,181.94842665 L446.9251904,181.61103023 L448.0419752,181.28137226 L449.15876,180.96254812 L450.2755448,180.65146243 L451.3923296,180.34811519 L452.5091144,180.05405409 L453.6258992,179.76773144 L454.742684,179.49069493 L455.8594688,179.22139687 L456.9762536,178.95983726 L458.0930384,178.7060161 L459.2098232,178.46148108 L460.326608,178.22313682 L461.4433928,177.9940787 L462.5601776,177.77275903 L463.6769624,177.55763012 L464.7937472,177.35178735 L465.910532,177.15213534 L467.0273168,176.96176947 L468.1441016,176.77759436 L469.2608864,176.6011577 L470.3776712,176.4309118 L471.494456,176.26995204 L472.6112408,176.11518304 L473.7280256,175.9666048 L474.8448104,175.8273127 L475.9615952,175.69421136 L477.07838,175.56730078 L478.1951648,175.44812865 L479.3119496,175.33669497 L480.4287344,175.23145205 L481.5455192,175.13394758 L482.662304,175.04263387 L483.7790888,174.95751092 L484.8958736,174.88012642 L486.0126584,174.81048037 L487.1294432,174.74702508 L488.246228,174.68976055 L489.3630128,174.64023447 L490.4797976,174.59689915 L491.5965824,174.55975459 L492.7133672,174.53034848 L493.830152,174.50713313 L494.9469368,174.49165623 L496.0637216,174.48237009 L497.1805064,174.47927471 L498.2972912,174.48391778 L499.414076,174.49475161 L500.5308608,174.51332389 L501.6476456,174.53808693 L502.7644304,174.56904073 L503.8812152,174.60773298 L504.998,174.65261599 L506.1147848,174.70368976 L507.2315696,174.76250198 L508.3483544,174.82750496 L509.4651392,174.90024639 L510.581924,174.97917858 L511.6987088,175.06584922 L512.8154936,175.15871062 L513.9322784,175.25931047 L515.0490632,175.36610108 L516.165848,175.47908245 L517.2826328,175.60134996 L518.3994176,175.72826054 L519.5162024,175.86445726 L520.6329872,176.00684474 L521.749772,176.15542298 L522.8665568,176.31328736 L523.9833416,176.47579481 L525.1001264,176.6475884 L526.2169112,176.82712044 L527.333696,177.01284324 L528.4504808,177.20630449 L529.5672656,177.40750419 L530.6840504,177.61644234 L531.8008352,177.83157125 L532.91762,178.0559863 L534.0344048,178.2881398 L535.1511896,178.52803175 L536.2679744,178.77566215 L537.3847592,179.031031 L538.501544,179.2941383 L539.6183288,179.56653174 L540.7351136,179.84666363 L541.8518984,180.13453397 L542.9686832,180.43169045 L544.085468,180.73658538 L545.2022528,181.04921876 L546.3190376,181.37268597 L547.4358224,181.70389163 L548.5526072,182.04438343 L549.669392,182.39416137 L550.7861768,182.75167776 L551.9029616,183.12002798 L553.0197464,183.49611665 L554.1365312,183.88303915 L555.253316,184.27924779 L556.3701008,184.68629026 L557.4868856,185.10261887 L558.6036704,185.52823362 L559.7204552,185.9646822 L560.83724,186.41196461 L561.9540248,186.87008085 L563.0708096,187.33903092 L564.1875944,187.81726713 L565.3043792,188.30788486 L566.421164,188.81088411 L567.5379488,189.32471719 L568.6547336,189.8493841 L569.7715184,190.38798022 L570.8883032,190.93741017 L572.005088,191.49922164 L573.1218728,192.07496232 L574.2386576,192.66308452 L575.3554424,193.26513593 L576.4722272,193.87956886 L577.589012,194.50947869 L578.7057968,195.15331773 L579.8225816,195.81108598 L580.9393664,196.48433113 L582.0561512,197.17150549 L583.172936,197.87570444 L584.2897208,198.59538029 L585.4065056,199.33208073 L586.5232904,200.08580576 L587.6400752,200.85655538 L588.75686,201.64432959 L589.8736448,202.45222377 L590.9904296,203.27714254 L592.1072144,204.12218128 L593.2239992,204.98733999 L594.340784,205.87261867 L595.4575688,206.77956501 L596.5743536,207.70817901 L597.6911384,208.66000836 L598.8079232,209.63505306 L599.924708,210.63331311 L601.0414928,211.65788389 L602.1582776,212.70721771 L603.2750624,213.78440995 L604.3918472,214.88791292 L605.508632,216.020822 L606.6254168,217.18468488 L607.7422016,218.37950156 L608.8589864,219.60527204 L609.9757712,220.86663939 L611.092556,222.16205592 L612.2093408,223.49461701 L613.3261256,224.86587035 L614.4429104,226.27736363 L615.5596952,227.73064454 L616.67648,229.22880846 L617.7932648,230.77340308 L618.9100496,232.36597609 L620.0268344,234.00962287 L621.1436192,235.70898649 L622.260404,237.46561464 L623.3771888,239.2826027 L624.4939736,241.16459374 L625.6107584,243.11468314 L626.7275432,245.13751397 L627.844328,247.2377293 L628.9611128,249.42306758 L630.0778976,251.6950765 L631.1946824,254.06458989 L632.3114672,256.53779851 L633.428252,259.12244081 L634.5450368,261.82935062 L635.6618216,264.66781408 L636.7786064,267.65021271 L637.8953912,270.79202341 L639.012176,274.11027077 L640.1289608,277.62197938 L641.2457456,281.35036459 L642.3625304,285.32173713 L643.4793152,289.57014618 L644.5961,294.1327363 " fill-rule="evenodd" vector-effect="non-scaling-stroke"/>
                        </g>
                    </g>
                </g>
                <g id="PlotDataItem_5">
                    <g fill="none" fill-rule="evenodd" id="PlotCurveItem_5" stroke="black" stroke-linecap="square" stroke-linejoin="bevel" stroke-width="1">
                        <g fill="none" font-family="MS Shell Dlg 2" font-size="11" font-style="normal" font-weight="400" stroke="#ff2e70" stroke-linecap="square" stroke-linejoin="bevel" stroke-opacity="1" stroke-width="1">
                            <path d="M86.2037000931,172.29548412 L87.3204848,167.79944467 L88.4372696,163.59591863 L89.5540544,159.64930913 L90.6708392,155.93175775 L91.787624,152.41850145 L92.9044088,149.08787257 L94.0211936,145.92439421 L95.1379784,142.91104178 L96.2547632,140.03698145 L97.371548,137.28828401 L98.4883328,134.65721101 L99.6051176,132.13447631 L100.7219024,129.71079377 L101.8386872,127.38152032 L102.955472,125.13736982 L104.0722568,122.97524689 L105.1890416,120.88741308 L106.3058264,118.8723207 L107.4226112,116.92377899 L108.539396,115.03869257 L109.6561808,113.21241837 L110.7729656,111.4434087 L111.8897504,109.72856818 L113.0065352,108.06480143 L114.12332,106.44901307 L115.2401048,104.87810772 L116.3568896,103.35208538 L117.4736744,101.86939836 L118.5904592,100.42540359 L119.707244,99.02010107 L120.8240288,97.65194311 L121.9408136,96.31783433 L123.0575984,95.01932242 L124.1743832,93.753312 L125.291168,92.51825538 L126.4079528,91.31260487 L127.5247376,90.13790816 L128.6415224,88.98952218 L129.7583072,87.87054231 L130.875092,86.77632548 L131.9918768,85.70687169 L133.1086616,84.66372863 L134.2254464,83.64380092 L135.3422312,82.64708856 L136.459016,81.67204386 L137.5758008,80.72021451 L138.6925856,79.78850513 L139.8093704,78.87691572 L140.9261552,77.98699397 L142.04294,77.1156445 L143.1597248,76.26286731 L144.2765096,75.4286624 L145.3932944,74.61302977 L146.5100792,73.81442173 L147.626864,73.03283828 L148.7436488,72.26827942 L149.8604336,71.52074515 L150.9772184,70.78868778 L152.0940032,70.07210731 L153.210788,69.37100374 L154.3275728,68.68382938 L155.4443576,68.01213192 L156.5611424,67.35591136 L157.6779272,66.71207232 L158.794712,66.08371018 L159.9114968,65.46772956 L161.0282816,64.86567815 L162.1450664,64.27600826 L163.2618512,63.69871989 L164.378636,63.13536073 L165.4954208,62.58438309 L166.6122056,62.04423928 L167.7289904,61.51802468 L168.8457752,61.00109622 L169.96256,60.49809697 L171.0793448,60.00438386 L172.1961296,59.52459996 L173.3129144,59.0541022 L174.4296992,58.59443827 L175.546484,58.14560817 L176.6632688,57.7076119 L177.7800536,57.28044946 L178.8968384,56.86412085 L180.0136232,56.45707838 L181.130408,56.05932205 L182.2471928,55.67394724 L183.3639776,55.29631088 L184.4807624,54.92950835 L185.5975472,54.57199196 L186.714332,54.22376171 L187.8311168,53.8848176 L188.9479016,53.55515963 L190.0646864,53.23633549 L191.1814712,52.9252498 L192.298256,52.62345025 L193.4150408,52.33093684 L194.5318256,52.04616188 L195.6486104,51.77067306 L196.7653952,51.50447038 L197.88218,51.24755384 L198.9989648,50.99837575 L200.1157496,50.75693611 L201.2325344,50.52478261 L202.3493192,50.30191525 L203.466104,50.08523865 L204.5828888,49.87939588 L205.6996736,49.67974387 L206.8164584,49.489378 L207.9332432,49.30675058 L209.050028,49.13186161 L210.1668128,48.96625878 L211.2835976,48.8083944 L212.4003824,48.65826847 L213.5171672,48.5143333 L214.633952,48.38123196 L215.7507368,48.25432138 L216.8675216,48.13514925 L217.9843064,48.02371557 L219.1010912,47.92156803 L220.217876,47.82561125 L221.3346608,47.73739292 L222.4514456,47.65846073 L223.5682304,47.5857193 L224.6850152,47.52071632 L225.8018,47.46345179 L226.9185848,47.41392571 L228.0353696,47.37368577 L229.1521544,47.33963659 L230.2689392,47.31332586 L231.385724,47.29320589 L232.5025088,47.28237206 L233.6192936,47.27927668 L234.7360784,47.28237206 L235.8528632,47.29475358 L236.969648,47.31332586 L238.0864328,47.34118428 L239.2032176,47.37523346 L240.3200024,47.41702109 L241.4367872,47.46654717 L242.553572,47.5238117 L243.6703568,47.58881468 L244.7871416,47.66155611 L245.9039264,47.74203599 L247.0207112,47.83025432 L248.137496,47.9262111 L249.2542808,48.02990633 L250.3710656,48.14134001 L251.4878504,48.26051214 L252.6046352,48.38742272 L253.72142,48.52207175 L254.8382048,48.66445923 L255.9549896,48.81613285 L257.0717744,48.97399723 L258.1885592,49.14114775 L259.305344,49.31603672 L260.4221288,49.49866414 L261.5389136,49.68903001 L262.6556984,49.88868202 L263.7724832,50.09607248 L264.889268,50.31120139 L266.0060528,50.53561644 L267.1228376,50.76776994 L268.2396224,51.00920958 L269.3564072,51.25838767 L270.473192,51.51530421 L271.5899768,51.78150689 L272.7067616,52.05699571 L273.8235464,52.34177067 L274.9403312,52.63428408 L276.057116,52.93608363 L277.1739008,53.24716932 L278.2906856,53.56754115 L279.4074704,53.89565143 L280.5242552,54.23459554 L281.64104,54.58282579 L282.7578248,54.94034218 L283.8746096,55.30714471 L284.9913944,55.68323338 L286.1081792,56.07015588 L287.224964,56.46636452 L288.3417488,56.87340699 L289.4585336,57.2897356 L290.5753184,57.71689804 L291.6921032,58.15489431 L292.808888,58.60217672 L293.9256728,59.06184065 L295.0424576,59.53079072 L296.1592424,60.01212231 L297.2760272,60.50428773 L298.392812,61.00728698 L299.5095968,61.52112006 L300.6263816,62.04888235 L301.7431664,62.58747847 L302.8599512,63.13690842 L303.976736,63.70026758 L305.0935208,64.27600826 L306.2103056,64.86413046 L307.3270904,65.46463418 L308.4438752,66.07906711 L309.56066,66.70742925 L310.6774448,67.3497206 L311.7942296,68.00439347 L312.9110144,68.67454324 L314.0277992,69.35862222 L315.144584,70.0581781 L316.2613688,70.77321088 L317.3781536,71.50372056 L318.4949384,72.24970714 L319.6117232,73.01117062 L320.728508,73.79120638 L321.8452928,74.58671904 L322.9620776,75.39925629 L324.0788624,76.23036582 L325.1956472,77.08004763 L326.312432,77.94830172 L327.4292168,78.83667578 L328.5460016,79.74362212 L329.6627864,80.67223612 L330.7795712,81.62097009 L331.896356,82.59137172 L333.0131408,83.5849887 L334.1299256,84.60027334 L335.2467104,85.64032102 L336.3634952,86.70358405 L337.48028,87.79161012 L338.5970648,88.90749461 L339.7138496,90.04814214 L340.8306344,91.21819578 L341.9474192,92.41765553 L343.064204,93.6449737 L344.1809888,94.90479336 L345.2977736,96.19711451 L346.4145584,97.52193715 L347.5313432,98.88235666 L348.648128,100.27837304 L349.7649128,101.71308167 L350.8816976,103.18648255 L351.9984824,104.70321875 L353.1152672,106.26174258 L354.232052,107.86514942 L355.3488368,109.51808234 L356.4656216,111.22054134 L357.5824064,112.97407411 L358.6991912,114.78487141 L359.815976,116.65448093 L360.9327608,118.58599805 L362.0495456,120.58251815 L363.1663304,122.6486843 L364.2831152,124.79068726 L365.3999,127.01162241 L366.5166848,124.79687802 L367.6334696,122.66106582 L368.7502544,120.59799505 L369.8670392,118.60611802 L370.983824,116.67924397 L372.1006088,114.81427752 L373.2173936,113.00812329 L374.3341784,111.2576859 L375.4509632,109.55986997 L376.567748,107.91003243 L377.6845328,106.30972097 L378.8013176,104.75429252 L379.9181024,103.24219939 L381.0348872,101.7703462 L382.151672,100.33873295 L383.2684568,98.94426426 L384.3852416,97.58694013 L385.5020264,96.26366518 L386.6188112,94.97443941 L387.735596,93.71771513 L388.8523808,92.49194465 L389.9691656,91.29558028 L391.0859504,90.12707433 L392.2027352,88.98797449 L393.31952,87.87518538 L394.4363048,86.78715931 L395.5530896,85.72544397 L396.6698744,84.68849167 L397.7866592,83.67475472 L398.903444,82.68268543 L400.0202288,81.71383149 L401.1370136,80.76664521 L402.2537984,79.8395789 L403.3705832,78.93418025 L404.487368,78.04735388 L405.6041528,77.18064748 L406.7209376,76.33251336 L407.8377224,75.50295152 L408.9545072,74.69041427 L410.071292,73.8964493 L411.1880768,73.11796123 L412.3048616,72.35649775 L413.4216464,71.61205886 L414.5384312,70.88309687 L415.655216,70.16961178 L416.7720008,69.47160359 L417.8887856,68.78752461 L419.0055704,68.11892253 L420.1223552,67.46424966 L421.23914,66.823506 L422.3559248,66.19669155 L423.4727096,65.58380631 L424.5894944,64.98330259 L425.7062792,64.39672808 L426.823064,63.82253509 L427.9398488,63.25917593 L429.0566336,62.70974598 L430.1734184,62.17269755 L431.2902032,61.64648295 L432.406988,61.13264987 L433.5237728,60.63119831 L434.6405576,60.13903289 L435.7573424,59.65924899 L436.8741272,59.19029892 L437.990912,58.73218268 L439.1076968,58.28490027 L440.2244816,57.84845169 L441.3412664,57.42283694 L442.4580512,57.00650833 L443.574836,56.60101355 L444.6916208,56.20480491 L445.8084056,55.8194301 L446.9251904,55.44334143 L448.0419752,55.07808659 L449.15876,54.7205702 L450.2755448,54.37388764 L451.3923296,54.03649122 L452.5091144,53.70683325 L453.6258992,53.38800911 L454.742684,53.07847111 L455.8594688,52.77667156 L456.9762536,52.48415815 L458.0930384,52.20093088 L459.2098232,51.92698975 L460.326608,51.66078707 L461.4433928,51.40387053 L462.5601776,51.15469244 L463.6769624,50.91480049 L464.7937472,50.68264699 L465.910532,50.45977963 L467.0273168,50.24465072 L468.1441016,50.03880795 L469.2608864,49.84070363 L470.3776712,49.65033776 L471.494456,49.46771034 L472.6112408,49.29436906 L473.7280256,49.12721854 L474.8448104,48.96935416 L475.9615952,48.81922823 L477.07838,48.67684075 L478.1951648,48.54373941 L479.3119496,48.41682883 L480.4287344,48.2976567 L481.5455192,48.18777071 L482.662304,48.08407548 L483.7790888,47.98966639 L484.8958736,47.90144806 L486.0126584,47.82251587 L487.1294432,47.74977444 L488.246228,47.68631915 L489.3630128,47.62905462 L490.4797976,47.57952854 L491.5965824,47.5392886 L492.7133672,47.50523942 L493.830152,47.47892869 L494.9469368,47.46035641 L496.0637216,47.44952258 L497.1805064,47.4464272 L498.2972912,47.44952258 L499.414076,47.4619041 L500.5308608,47.48202407 L501.6476456,47.5083348 L502.7644304,47.54238398 L503.8812152,47.5857193 L504.998,47.63524538 L506.1147848,47.69250991 L507.2315696,47.75751289 L508.3483544,47.83180201 L509.4651392,47.91228189 L510.581924,48.00050022 L511.6987088,48.096457 L512.8154936,48.20015223 L513.9322784,48.31158591 L515.0490632,48.43075804 L516.165848,48.55921631 L517.2826328,48.69386534 L518.3994176,48.83625282 L519.5162024,48.98792644 L520.6329872,49.14733851 L521.749772,49.31448903 L522.8665568,49.489378 L523.9833416,49.67200542 L525.1001264,49.86391898 L526.2169112,50.06357099 L527.333696,50.27096145 L528.4504808,50.48763805 L529.5672656,50.7120531 L530.6840504,50.9442066 L531.8008352,51.18564624 L532.91762,51.43637202 L534.0344048,51.69483625 L535.1511896,51.96103893 L536.2679744,52.23807544 L537.3847592,52.5228504 L538.501544,52.8169115 L539.6183288,53.11871105 L540.7351136,53.43134443 L541.8518984,53.75171626 L542.9686832,54.08137423 L544.085468,54.42031834 L545.2022528,54.77009628 L546.3190376,55.12761267 L547.4358224,55.49596289 L548.5526072,55.87359925 L549.669392,56.26206944 L550.7861768,56.65982577 L551.9029616,57.06686824 L553.0197464,57.48474454 L554.1365312,57.91345467 L555.253316,58.35299863 L556.3701008,58.80182873 L557.4868856,59.26304035 L558.6036704,59.73353811 L559.7204552,60.21641739 L560.83724,60.7101305 L561.9540248,61.21467744 L563.0708096,61.7316059 L564.1875944,62.25936819 L565.3043792,62.80105969 L566.421164,63.35358502 L567.5379488,63.91849187 L568.6547336,64.49578024 L569.7715184,65.08699782 L570.8883032,65.69059692 L572.005088,66.30657754 L573.1218728,66.93803506 L574.2386576,67.5818741 L575.3554424,68.24119004 L576.4722272,68.91443519 L577.589012,69.60160955 L578.7057968,70.30426081 L579.8225816,71.02238897 L580.9393664,71.75599403 L582.0561512,72.50507599 L583.172936,73.27118254 L584.2897208,74.05431368 L585.4065056,74.85446941 L586.5232904,75.67164973 L587.6400752,76.50740233 L588.75686,77.36172721 L589.8736448,78.23617206 L590.9904296,79.12918919 L592.1072144,80.0407786 L593.2239992,80.97558336 L594.340784,81.93050809 L595.4575688,82.90710048 L596.5743536,83.90536053 L597.6911384,84.92838362 L598.8079232,85.97462206 L599.924708,87.04562354 L601.0414928,88.14138806 L602.1582776,89.265011 L603.2750624,90.41494467 L604.3918472,91.59428445 L605.508632,92.80148265 L606.6254168,94.03963465 L607.7422016,95.30874045 L608.8589864,96.61189543 L609.9757712,97.9475519 L611.092556,99.32035293 L612.2093408,100.72875083 L613.3261256,102.17738867 L614.4429104,103.66471876 L615.5596952,105.19538417 L616.67648,106.7693849 L617.7932648,108.39136402 L618.9100496,110.05977384 L620.0268344,111.78080512 L621.1436192,113.55600555 L622.260404,115.38692282 L623.3771888,117.2782 L624.4939736,119.23293247 L625.6107584,121.2557633 L626.7275432,123.34978787 L627.844328,125.52119694 L628.9611128,127.77308589 L630.0778976,130.11319317 L631.1946824,132.54616185 L632.3114672,135.07973038 L633.428252,137.7231849 L634.5450368,140.48271617 L635.6618216,143.37070571 L636.7786064,146.39953504 L637.8953912,149.58003799 L639.012176,152.92769146 L640.1289608,156.46106773 L641.2457456,160.20183446 L642.3625304,164.17475469 L643.4793152,168.40613915 L644.5961,172.9331324 " fill-rule="evenodd" vector-effect="non-scaling-stroke"/>
                        </g>
                    </g>
                </g>
            </g>
            <g fill="none" fill-rule="evenodd" id="LegendItem_1" stroke="black" stroke-linecap="square" stroke-linejoin="bevel" stroke-width="1">
                <g fill="#646464" fill-opacity="0.196078" font-family="MS Shell Dlg 2" font-size="11" font-style="normal" font-weight="400" stroke="#ffffff" stroke-linecap="square" stroke-linejoin="bevel" stroke-opacity="0.392157" stroke-width="1">
                    <path d="M92.8,61.0 L167.8,61.0 L167.8,208.0 L92.8,208.0 L92.8,61.0 " fill-rule="evenodd" vector-effect="non-scaling-stroke"/>
                </g>
                <g fill="none" fill-rule="evenodd" id="ItemSample_1" stroke="black" stroke-linecap="square" stroke-linejoin="bevel" stroke-width="1">
                    <g fill="none" font-family="MS Shell Dlg 2" font-size="11" font-style="normal" font-weight="400" stroke="#ed815e" stroke-linecap="square" stroke-linejoin="bevel" stroke-opacity="1" stroke-width="1">
                        <polyline fill="none" points="103.8,88.0 119.8,72.0" vector-effect="non-scaling-stroke"/>
                    </g>
                </g>
                <g fill="none" fill-rule="evenodd" id="LabelItem_1" stroke="black" stroke-linecap="square" stroke-linejoin="bevel" stroke-width="1">
                    <g fill="none" fill-rule="evenodd" id="QGraphicsTextItem_3" stroke="black" stroke-linecap="square" stroke-linejoin="bevel" stroke-width="1">
                        


                        


                        <g fill="none" font-family="MS Shell Dlg 2" font-size="11" font-style="normal" font-weight="400" stroke="#969696" stroke-linecap="square" stroke-linejoin="bevel" stroke-opacity="1" stroke-width="1" transform="matrix(1,0,0,1,112.8,70)">
                            <text fill="#969696" fill-opacity="1" font-family="&quot;MS Shell Dlg 2&quot;, sans-serif" font-size="11" font-style="normal" font-weight="400" stroke="none" x="4" xml:space="preserve" y="15">1e-06 A</text>
                        </g>
                        


                        

                    </g>
                </g>
                <g fill="none" fill-rule="evenodd" id="ItemSample_2" stroke="black" stroke-linecap="square" stroke-linejoin="bevel" stroke-width="1">
                    <g fill="none" font-family="MS Shell Dlg 2" font-size="11" font-style="normal" font-weight="400" stroke="#c7b069" stroke-linecap="square" stroke-linejoin="bevel" stroke-opacity="1" stroke-width="1">
                        <polyline fill="none" points="103.8,115.0 119.8,99.0" vector-effect="non-scaling-stroke"/>
                    </g>
                </g>
                <g fill="none" fill-rule="evenodd" id="LabelItem_2" stroke="black" stroke-linecap="square" stroke-linejoin="bevel" stroke-width="1">
                    <g fill="none" fill-rule="evenodd" id="QGraphicsTextItem_4" stroke="black" stroke-linecap="square" stroke-linejoin="bevel" stroke-width="1">
                        


                        


                        <g fill="none" font-family="MS Shell Dlg 2" font-size="11" font-style="normal" font-weight="400" stroke="#969696" stroke-linecap="square" stroke-linejoin="bevel" stroke-opacity="1" stroke-width="1" transform="matrix(1,0,0,1,112.8,97)">
                            <text fill="#969696" fill-opacity="1" font-family="&quot;MS Shell Dlg 2&quot;, sans-serif" font-size="11" font-style="normal" font-weight="400" stroke="none" x="4" xml:space="preserve" y="15">1e-06 A</text>
                        </g>
                        


                        

                    </g>
                </g>
                <g fill="none" fill-rule="evenodd" id="ItemSample_3" stroke="black" stroke-linecap="square" stroke-linejoin="bevel" stroke-width="1">
                    <g fill="none" font-family="MS Shell Dlg 2" font-size="11" font-style="normal" font-weight="400" stroke="#7ea695" stroke-linecap="square" stroke-linejoin="bevel" stroke-opacity="1" stroke-width="1">
                        <polyline fill="none" points="103.8,142.0 119.8,126.0" vector-effect="non-scaling-stroke"/>
                    </g>
                </g>
                <g fill="none" fill-rule="evenodd" id="LabelItem_3" stroke="black" stroke-linecap="square" stroke-linejoin="bevel" stroke-width="1">
                    <g fill="none" fill-rule="evenodd" id="QGraphicsTextItem_5" stroke="black" stroke-linecap="square" stroke-linejoin="bevel" stroke-width="1">
                        


                        


                        <g fill="none" font-family="MS Shell Dlg 2" font-size="11" font-style="normal" font-weight="400" stroke="#969696" stroke-linecap="square" stroke-linejoin="bevel" stroke-opacity="1" stroke-width="1" transform="matrix(1,0,0,1,118.8,124)">
                            <text fill="#969696" fill-opacity="1" font-family="&quot;MS Shell Dlg 2&quot;, sans-serif" font-size="11" font-style="normal" font-weight="400" stroke="none" x="4" xml:space="preserve" y="15">1.0 A</text>
                        </g>
                        


                        

                    </g>
                </g>
                <g fill="none" fill-rule="evenodd" id="ItemSample_4" stroke="black" stroke-linecap="square" stroke-linejoin="bevel" stroke-width="1">
                    <g fill="none" font-family="MS Shell Dlg 2" font-size="11" font-style="normal" font-weight="400" stroke="#8a7c91" stroke-linecap="square" stroke-linejoin="bevel" stroke-opacity="1" stroke-width="1">
                        <polyline fill="none" points="103.8,169.0 119.8,153.0" vector-effect="non-scaling-stroke"/>
                    </g>
                </g>
                <g fill="none" fill-rule="evenodd" id="LabelItem_4" stroke="black" stroke-linecap="square" stroke-linejoin="bevel" stroke-width="1">
                    <g fill="none" fill-rule="evenodd" id="QGraphicsTextItem_6" stroke="black" stroke-linecap="square" stroke-linejoin="bevel" stroke-width="1">
                        


                        


                        <g fill="none" font-family="MS Shell Dlg 2" font-size="11" font-style="normal" font-weight="400" stroke="#969696" stroke-linecap="square" stroke-linejoin="bevel" stroke-opacity="1" stroke-width="1" transform="matrix(1,0,0,1,118.8,151)">
                            <text fill="#969696" fill-opacity="1" font-family="&quot;MS Shell Dlg 2&quot;, sans-serif" font-size="11" font-style="normal" font-weight="400" stroke="none" x="4" xml:space="preserve" y="15">5.9 A</text>
                        </g>
                        


                        

                    </g>
                </g>
                <g fill="none" fill-rule="evenodd" id="ItemSample_5" stroke="black" stroke-linecap="square" stroke-linejoin="bevel" stroke-width="1">
                    <g fill="none" font-family="MS Shell Dlg 2" font-size="11" font-style="normal" font-weight="400" stroke="#ff2e70" stroke-linecap="square" stroke-linejoin="bevel" stroke-opacity="1" stroke-width="1">
                        <polyline fill="none" points="103.8,196.0 119.8,180.0" vector-effect="non-scaling-stroke"/>
                    </g>
                </g>
                <g fill="none" fill-rule="evenodd" id="LabelItem_5" stroke="black" stroke-linecap="square" stroke-linejoin="bevel" stroke-width="1">
                    <g fill="none" fill-rule="evenodd" id="QGraphicsTextItem_7" stroke="black" stroke-linecap="square" stroke-linejoin="bevel" stroke-width="1">
                        


                        


                        <g fill="none" font-family="MS Shell Dlg 2" font-size="11" font-style="normal" font-weight="400" stroke="#969696" stroke-linecap="square" stroke-linejoin="bevel" stroke-opacity="1" stroke-width="1" transform="matrix(1,0,0,1,115.8,178)">
                            <text fill="#969696" fill-opacity="1" font-family="&quot;MS Shell Dlg 2&quot;, sans-serif" font-size="11" font-style="normal" font-weight="400" stroke="none" x="4" xml:space="preserve" y="15">15.7 A</text>
                        </g>
                        


                        

                    </g>
                </g>
            </g>
        </g>
    </g>
    <g fill="none" fill-rule="evenodd" id="LabelItem_6" stroke="black" stroke-linecap="square" stroke-linejoin="bevel" stroke-width="1">
        <g fill="none" fill-rule="evenodd" id="QGraphicsTextItem_8" stroke="black" stroke-linecap="square" stroke-linejoin="bevel" stroke-width="1">
            


            


            <g fill="none" font-family="MS Shell Dlg 2" font-size="11" font-style="normal" font-weight="400" stroke="#969696" stroke-linecap="square" stroke-linejoin="bevel" stroke-opacity="1" stroke-width="1" transform="matrix(1,0,0,1,248.4,3)">
                <text fill="#969696" fill-opacity="1" font-family="&quot;MS Shell Dlg 2&quot;, sans-serif" font-size="14.6667" font-style="normal" font-weight="400" stroke="none" x="4" xml:space="preserve" y="19">Density profile at different currents</text>
            </g>
            


            

        </g>
    </g>
</g>

</svg>
