<?xml version="1.0" encoding="UTF-8" standalone="no"?>
<svg xmlns="http://www.w3.org/2000/svg" xmlns:xlink="http://www.w3.org/1999/xlink"  version="1.2" baseProfile="tiny">
<title>pyqtgraph SVG export</title>
<desc>Generated with Qt and pyqtgraph</desc>
<defs>
</defs>
<g fill="none" fill-rule="evenodd" id="PlotItem_1" stroke="black" stroke-linecap="square" stroke-linejoin="bevel" stroke-width="1">
    <g fill="none" fill-rule="evenodd" id="AxisItem_1" stroke="black" stroke-linecap="square" stroke-linejoin="bevel" stroke-width="1">
        <g fill="none" font-family="MS Shell Dlg 2" font-size="11" font-style="normal" font-weight="400" stroke="#969696" stroke-linecap="square" stroke-linejoin="bevel" stroke-opacity="1" stroke-width="1">
            <polyline fill="none" points="62.8,335.2 668.0,335.2" vector-effect="non-scaling-stroke"/>
        </g>
        <g fill="none" font-family="MS Shell Dlg 2" font-size="11" font-style="normal" font-weight="400" stroke="#969696" stroke-linecap="square" stroke-linejoin="bevel" stroke-opacity="1" stroke-width="1">
            <polyline fill="none" points="86.7037,335.2 86.7037,330.2" vector-effect="non-scaling-stroke"/>
        </g>
        <g fill="none" font-family="MS Shell Dlg 2" font-size="11" font-style="normal" font-weight="400" stroke="#969696" stroke-linecap="square" stroke-linejoin="bevel" stroke-opacity="0.498039" stroke-width="1">
            <polyline fill="none" points="272.835,335.2 272.835,331.86667" vector-effect="non-scaling-stroke"/>
            <polyline fill="none" points="458.965,335.2 458.965,331.86667" vector-effect="non-scaling-stroke"/>
            <polyline fill="none" points="645.096,335.2 645.096,331.86667" vector-effect="non-scaling-stroke"/>
        </g>
        <g fill="none" font-family="MS Shell Dlg 2" font-size="11" font-style="normal" font-weight="400" stroke="#969696" stroke-linecap="square" stroke-linejoin="bevel" stroke-opacity="0.333333" stroke-width="1">
            <polyline fill="none" points="179.769,335.2 179.769,332.7" vector-effect="non-scaling-stroke"/>
            <polyline fill="none" points="365.9,335.2 365.9,332.7" vector-effect="non-scaling-stroke"/>
            <polyline fill="none" points="552.031,335.2 552.031,332.7" vector-effect="non-scaling-stroke"/>
        </g>
        <g fill="none" font-family="MS Shell Dlg 2" font-size="11" font-style="normal" font-weight="400" stroke="#969696" stroke-linecap="square" stroke-linejoin="bevel" stroke-opacity="1" stroke-width="1" transform="matrix(1,0,0,1,63.3,335.2)">
            <text fill="#969696" fill-opacity="1" font-family="&quot;MS Shell Dlg 2&quot;, sans-serif" font-size="11" font-style="normal" font-weight="400" stroke="none" x="20.3906" xml:space="preserve" y="12">0</text>
            <text fill="#969696" fill-opacity="1" font-family="&quot;MS Shell Dlg 2&quot;, sans-serif" font-size="11" font-style="normal" font-weight="400" stroke="none" x="206.531" xml:space="preserve" y="12">2</text>
            <text fill="#969696" fill-opacity="1" font-family="&quot;MS Shell Dlg 2&quot;, sans-serif" font-size="11" font-style="normal" font-weight="400" stroke="none" x="392.656" xml:space="preserve" y="12">4</text>
            <text fill="#969696" fill-opacity="1" font-family="&quot;MS Shell Dlg 2&quot;, sans-serif" font-size="11" font-style="normal" font-weight="400" stroke="none" x="578.781" xml:space="preserve" y="12">6</text>
            <text fill="#969696" fill-opacity="1" font-family="&quot;MS Shell Dlg 2&quot;, sans-serif" font-size="11" font-style="normal" font-weight="400" stroke="none" x="113.469" xml:space="preserve" y="12">1</text>
            <text fill="#969696" fill-opacity="1" font-family="&quot;MS Shell Dlg 2&quot;, sans-serif" font-size="11" font-style="normal" font-weight="400" stroke="none" x="299.594" xml:space="preserve" y="12">3</text>
            <text fill="#969696" fill-opacity="1" font-family="&quot;MS Shell Dlg 2&quot;, sans-serif" font-size="11" font-style="normal" font-weight="400" stroke="none" x="485.719" xml:space="preserve" y="12">5</text>
        </g>
        <g fill="none" fill-rule="evenodd" id="QGraphicsTextItem_1" stroke="black" stroke-linecap="square" stroke-linejoin="bevel" stroke-width="1">
            


            


            <g fill="none" font-family="MS Shell Dlg 2" font-size="11" font-style="normal" font-weight="400" stroke="#ffffff" stroke-linecap="square" stroke-linejoin="bevel" stroke-opacity="1" stroke-width="1" transform="matrix(1,0,0,1,256.8,353.2)">
                <text fill="#ffffff" fill-opacity="1" font-family="&quot;MS Shell Dlg 2&quot;, sans-serif" font-size="18.6667" font-style="normal" font-weight="400" stroke="none" x="4" xml:space="preserve" y="23">Axis along beam line (m)</text>
            </g>
            


            

        </g>
    </g>
    <g fill="none" fill-rule="evenodd" id="AxisItem_2" stroke="black" stroke-linecap="square" stroke-linejoin="bevel" stroke-width="1">
        <g fill="none" font-family="MS Shell Dlg 2" font-size="11" font-style="normal" font-weight="400" stroke="#969696" stroke-linecap="square" stroke-linejoin="bevel" stroke-opacity="1" stroke-width="1">
            <polyline fill="none" points="62.8,31.0 62.8,335.2" vector-effect="non-scaling-stroke"/>
        </g>
        <g fill="none" font-family="MS Shell Dlg 2" font-size="11" font-style="normal" font-weight="400" stroke="#969696" stroke-linecap="square" stroke-linejoin="bevel" stroke-opacity="1" stroke-width="1">
            <polyline fill="none" points="63.3,83.5875 68.3,83.5875" vector-effect="non-scaling-stroke"/>
        </g>
        <g fill="none" font-family="MS Shell Dlg 2" font-size="11" font-style="normal" font-weight="400" stroke="#969696" stroke-linecap="square" stroke-linejoin="bevel" stroke-opacity="0.498039" stroke-width="1">
            <polyline fill="none" points="63.3,244.85 66.6333,244.85" vector-effect="non-scaling-stroke"/>
        </g>
        <g fill="none" font-family="MS Shell Dlg 2" font-size="11" font-style="normal" font-weight="400" stroke="#969696" stroke-linecap="square" stroke-linejoin="bevel" stroke-opacity="0.333333" stroke-width="1">
            <polyline fill="none" points="63.3,329.171 65.8,329.171" vector-effect="non-scaling-stroke"/>
            <polyline fill="none" points="63.3,309.023 65.8,309.023" vector-effect="non-scaling-stroke"/>
            <polyline fill="none" points="63.3,293.395 65.8,293.395" vector-effect="non-scaling-stroke"/>
            <polyline fill="none" points="63.3,280.626 65.8,280.626" vector-effect="non-scaling-stroke"/>
            <polyline fill="none" points="63.3,269.83 65.8,269.83" vector-effect="non-scaling-stroke"/>
            <polyline fill="none" points="63.3,260.478 65.8,260.478" vector-effect="non-scaling-stroke"/>
            <polyline fill="none" points="63.3,252.229 65.8,252.229" vector-effect="non-scaling-stroke"/>
            <polyline fill="none" points="63.3,244.85 65.8,244.85" vector-effect="non-scaling-stroke"/>
            <polyline fill="none" points="63.3,196.305 65.8,196.305" vector-effect="non-scaling-stroke"/>
            <polyline fill="none" points="63.3,167.908 65.8,167.908" vector-effect="non-scaling-stroke"/>
            <polyline fill="none" points="63.3,147.76 65.8,147.76" vector-effect="non-scaling-stroke"/>
            <polyline fill="none" points="63.3,132.132 65.8,132.132" vector-effect="non-scaling-stroke"/>
            <polyline fill="none" points="63.3,119.3634 65.8,119.3634" vector-effect="non-scaling-stroke"/>
            <polyline fill="none" points="63.3,108.5674 65.8,108.5674" vector-effect="non-scaling-stroke"/>
            <polyline fill="none" points="63.3,99.2154 65.8,99.2154" vector-effect="non-scaling-stroke"/>
            <polyline fill="none" points="63.3,90.9665 65.8,90.9665" vector-effect="non-scaling-stroke"/>
            <polyline fill="none" points="63.3,83.5875 65.8,83.5875" vector-effect="non-scaling-stroke"/>
            <polyline fill="none" points="63.3,35.04264 65.8,35.04264" vector-effect="non-scaling-stroke"/>
        </g>
        <g fill="none" font-family="MS Shell Dlg 2" font-size="11" font-style="normal" font-weight="400" stroke="#969696" stroke-linecap="square" stroke-linejoin="bevel" stroke-opacity="1" stroke-width="1" transform="matrix(1,0,0,1,1.5,31)">
            <text fill="#969696" fill-opacity="1" font-family="&quot;MS Shell Dlg 2&quot;, sans-serif" font-size="11" font-style="normal" font-weight="400" stroke="none" x="24.7969" xml:space="preserve" y="57.375">1e+14</text>
            <text fill="#969696" fill-opacity="1" font-family="&quot;MS Shell Dlg 2&quot;, sans-serif" font-size="11" font-style="normal" font-weight="400" stroke="none" x="24.7969" xml:space="preserve" y="218.641">1e+13</text>
        </g>
        <g fill="none" fill-rule="evenodd" id="QGraphicsTextItem_2" stroke="black" stroke-linecap="square" stroke-linejoin="bevel" stroke-width="1">
            


            


            <g fill="none" font-family="MS Shell Dlg 2" font-size="11" font-style="normal" font-weight="400" stroke="#ffffff" stroke-linecap="square" stroke-linejoin="bevel" stroke-opacity="1" stroke-width="1" transform="matrix(0,-1,1,0,-4,295)">
                <text fill="#ffffff" fill-opacity="1" font-family="&quot;MS Shell Dlg 2&quot;, sans-serif" font-size="18.6667" font-style="normal" font-weight="400" stroke="none" x="4" xml:space="preserve" y="23">Density (particles per m3)</text>
            </g>
            


            

        </g>
    </g>
    <g fill="none" fill-rule="evenodd" id="ViewBox_1" stroke="black" stroke-linecap="square" stroke-linejoin="bevel" stroke-width="1">
        <g fill="none" font-family="MS Shell Dlg 2" font-size="11" font-style="normal" font-weight="400" stroke="none">
            <path d="M62.8,31.0 L668.0,31.0 L668.0,335.2 L62.8,335.2 L62.8,31.0 " fill-rule="evenodd" vector-effect="non-scaling-stroke"/>
        </g>
        <clipPath id="ViewBox_1_clip">
            <path d="M62.8,31.0 L668.0,31.0 L668.0,335.2 L62.8,335.2 L62.8,31.0 " fill-rule="evenodd" vector-effect="non-scaling-stroke"/>
        </clipPath>
        <g clip-path="url(#ViewBox_1_clip)">
            <g fill="none" fill-rule="evenodd" id="ChildGroup_1" stroke="black" stroke-linecap="square" stroke-linejoin="bevel" stroke-width="1">
                <g id="PlotDataItem_1">
                    <g fill="none" fill-rule="evenodd" id="PlotCurveItem_1" stroke="black" stroke-linecap="square" stroke-linejoin="bevel" stroke-width="1">
                        <g fill="none" font-family="MS Shell Dlg 2" font-size="11" font-style="normal" font-weight="400" stroke="#ed815e" stroke-linecap="square" stroke-linejoin="bevel" stroke-opacity="1" stroke-width="1">
                            <path d="M86.2037000931,318.9090959 L87.3204848,314.4098582 L88.4372696,310.2008939 L89.5540544,306.2660767 L90.6708392,302.573154 L91.787624,299.0898732 L92.9044088,295.800108 L94.0211936,292.6716058 L95.1379784,289.7043666 L96.2547632,286.8822641 L97.371548,284.189172 L98.4883328,281.6250903 L99.6051176,279.1577664 L100.7219024,276.8033266 L101.8386872,274.5456446 L102.955472,272.3685941 L104.0722568,270.2721751 L105.1890416,268.2563876 L106.3058264,266.3212316 L107.4226112,264.4505808 L108.539396,262.6444352 L109.6561808,260.9027948 L110.7729656,259.2095333 L111.8897504,257.580777 L113.0065352,255.9842733 L114.12332,254.4522748 L115.2401048,252.9686552 L116.3568896,251.5334145 L117.4736744,250.1304264 L118.5904592,248.7596909 L119.707244,247.4373343 L120.8240288,246.1633566 L121.9408136,244.9055052 L123.0575984,243.6960327 L124.1743832,242.5188128 L125.291168,241.3577192 L126.4079528,240.2450045 L127.5247376,239.1484161 L128.6415224,238.0840803 L129.7583072,237.0519971 L130.875092,236.0360402 L131.9918768,235.0523359 L133.1086616,234.0847579 L134.2254464,233.1494325 L135.3422312,232.2302334 L136.459016,231.3432869 L137.5758008,230.4724667 L138.6925856,229.6177728 L139.8093704,228.7792052 L140.9261552,227.9728902 L142.04294,227.1827015 L143.1597248,226.4086391 L144.2765096,225.650703 L145.3932944,224.9088932 L146.5100792,224.1832097 L147.626864,223.4736525 L148.7436488,222.7802216 L149.8604336,222.102917 L150.9772184,221.4417387 L152.0940032,220.7966867 L153.210788,220.167761 L154.3275728,219.5549616 L155.4443576,218.9582885 L156.5611424,218.3616154 L157.6779272,217.7971949 L158.794712,217.2327744 L159.9114968,216.6844802 L161.0282816,216.136186 L162.1450664,215.6201444 L163.2618512,215.1041028 L164.378636,214.6041875 L165.4954208,214.1042722 L166.6122056,213.6366095 L167.7289904,213.1689468 L168.8457752,212.7012841 L169.96256,212.265874 L171.0793448,211.8304639 L172.1961296,211.3950538 L173.3129144,210.9918963 L174.4296992,210.5887388 L175.546484,210.1855813 L176.6632688,209.7985501 L177.7800536,209.4276452 L178.8968384,209.0567403 L180.0136232,208.7019617 L181.130408,208.3633094 L182.2471928,208.0246571 L183.3639776,207.6860048 L184.4807624,207.3634788 L185.5975472,207.0570791 L186.714332,206.7506794 L187.8311168,206.460406 L188.9479016,206.1701326 L190.0646864,205.8959855 L191.1814712,205.6218384 L192.298256,205.3476913 L193.4150408,205.1057968 L194.5318256,204.847776 L195.6486104,204.6220078 L196.7653952,204.3801133 L197.88218,204.1543451 L198.9989648,203.9447032 L200.1157496,203.7350613 L201.2325344,203.5415457 L202.3493192,203.3480301 L203.466104,203.1545145 L204.5828888,202.9771252 L205.6996736,202.7997359 L206.8164584,202.6384729 L207.9332432,202.4772099 L209.050028,202.3320732 L210.1668128,202.1869365 L211.2835976,202.0579261 L212.4003824,201.9289157 L213.5171672,201.7999053 L214.633952,201.6870212 L215.7507368,201.5741371 L216.8675216,201.4773793 L217.9843064,201.3806215 L219.1010912,201.29999 L220.217876,201.2193585 L221.3346608,201.138727 L222.4514456,201.0742218 L223.5682304,201.0097166 L224.6850152,200.9613377 L225.8018,200.9129588 L226.9185848,200.8645799 L228.0353696,200.8323273 L229.1521544,200.8000747 L230.2689392,200.7839484 L231.385724,200.7678221 L232.5025088,200.7678221 L233.6192936,200.7516958 L234.7360784,200.7678221 L235.8528632,200.7839484 L236.969648,200.8000747 L238.0864328,200.816201 L239.2032176,200.8484536 L240.3200024,200.8968325 L241.4367872,200.9290851 L242.553572,200.977464 L243.6703568,201.0419692 L244.7871416,201.1064744 L245.9039264,201.1871059 L247.0207112,201.2516111 L248.137496,201.3483689 L249.2542808,201.4290004 L250.3710656,201.5257582 L251.4878504,201.6386423 L252.6046352,201.7515264 L253.72142,201.8644105 L254.8382048,201.9934209 L255.9549896,202.1224313 L257.0717744,202.267568 L258.1885592,202.4127047 L259.305344,202.5739677 L260.4221288,202.7352307 L261.5389136,202.8964937 L262.6556984,203.073883 L263.7724832,203.2512723 L264.889268,203.4447879 L266.0060528,203.6383035 L267.1228376,203.8479454 L268.2396224,204.0575873 L269.3564072,204.2833555 L270.473192,204.5091237 L271.5899768,204.7510182 L272.7067616,204.9929127 L273.8235464,205.2348072 L274.9403312,205.492828 L276.057116,205.7669751 L277.1739008,206.0411222 L278.2906856,206.3152693 L279.4074704,206.621669 L280.5242552,206.9119424 L281.64104,207.2183421 L282.7578248,207.5408681 L283.8746096,207.8633941 L284.9913944,208.2020464 L286.1081792,208.5406987 L287.224964,208.8954773 L288.3417488,209.2663822 L289.4585336,209.6372871 L290.5753184,210.008192 L291.6921032,210.3952232 L292.808888,210.7983807 L293.9256728,211.2176645 L295.0424576,211.6369483 L296.1592424,212.0562321 L297.2760272,212.5077685 L298.392812,212.9593049 L299.5095968,213.4108413 L300.6263816,213.8946303 L301.7431664,214.3784193 L302.8599512,214.8783346 L303.976736,215.3782499 L305.0935208,215.8942915 L306.2103056,216.4264594 L307.3270904,216.9747536 L308.4438752,217.5230478 L309.56066,218.1035946 L310.6774448,218.6841414 L311.7942296,219.2808145 L312.9110144,219.8936139 L314.0277992,220.5064133 L315.144584,221.1514653 L316.2613688,221.7965173 L317.3781536,222.4738219 L318.4949384,223.1511265 L319.6117232,223.8606837 L320.728508,224.5702409 L321.8452928,225.2959244 L322.9620776,226.0538605 L324.0788624,226.8117966 L325.1956472,227.6019853 L326.312432,228.4083003 L327.4292168,229.2307416 L328.5460016,230.0693092 L329.6627864,230.9401294 L330.7795712,231.8270759 L331.896356,232.7301487 L333.0131408,233.6493478 L334.1299256,234.6007995 L335.2467104,235.5845038 L336.3634952,236.5843344 L337.48028,237.6002913 L338.5970648,238.6646271 L339.7138496,239.7289629 L340.8306344,240.8416776 L341.9474192,241.9866449 L343.064204,243.1477385 L344.1809888,244.3410847 L345.2977736,245.5828098 L346.4145584,246.8567875 L347.5313432,248.1468915 L348.648128,249.5015007 L349.7649128,250.8722362 L350.8816976,252.3074769 L351.9984824,253.7588439 L353.1152672,255.2747161 L354.232052,256.8389672 L355.3488368,258.4515972 L356.4656216,260.1126061 L357.5824064,261.8381202 L358.6991912,263.6120132 L359.815976,265.4504114 L360.9327608,267.3533148 L362.0495456,269.3368497 L363.1663304,271.3848898 L364.2831152,273.5296877 L365.3999,275.7389908 L366.5166848,273.5296877 L367.6334696,271.3848898 L368.7502544,269.3368497 L369.8670392,267.3533148 L370.983824,265.4504114 L372.1006088,263.6120132 L373.2173936,261.8381202 L374.3341784,260.1126061 L375.4509632,258.4515972 L376.567748,256.8389672 L377.6845328,255.2747161 L378.8013176,253.7588439 L379.9181024,252.3074769 L381.0348872,250.8722362 L382.151672,249.5015007 L383.2684568,248.1468915 L384.3852416,246.8567875 L385.5020264,245.5828098 L386.6188112,244.3410847 L387.735596,243.1477385 L388.8523808,241.9866449 L389.9691656,240.8416776 L391.0859504,239.7289629 L392.2027352,238.6646271 L393.31952,237.6002913 L394.4363048,236.5843344 L395.5530896,235.5845038 L396.6698744,234.6007995 L397.7866592,233.6493478 L398.903444,232.7301487 L400.0202288,231.8270759 L401.1370136,230.9401294 L402.2537984,230.0693092 L403.3705832,229.2307416 L404.487368,228.4083003 L405.6041528,227.6019853 L406.7209376,226.8117966 L407.8377224,226.0538605 L408.9545072,225.2959244 L410.071292,224.5702409 L411.1880768,223.8606837 L412.3048616,223.1511265 L413.4216464,222.4738219 L414.5384312,221.7965173 L415.655216,221.1514653 L416.7720008,220.5064133 L417.8887856,219.8936139 L419.0055704,219.2808145 L420.1223552,218.6841414 L421.23914,218.1035946 L422.3559248,217.5230478 L423.4727096,216.9747536 L424.5894944,216.4264594 L425.7062792,215.8942915 L426.823064,215.3782499 L427.9398488,214.8783346 L429.0566336,214.3784193 L430.1734184,213.8946303 L431.2902032,213.4108413 L432.406988,212.9593049 L433.5237728,212.5077685 L434.6405576,212.0562321 L435.7573424,211.6369483 L436.8741272,211.2176645 L437.990912,210.7983807 L439.1076968,210.3952232 L440.2244816,210.008192 L441.3412664,209.6372871 L442.4580512,209.2663822 L443.574836,208.8954773 L444.6916208,208.5406987 L445.8084056,208.2020464 L446.9251904,207.8633941 L448.0419752,207.5408681 L449.15876,207.2183421 L450.2755448,206.9119424 L451.3923296,206.621669 L452.5091144,206.3152693 L453.6258992,206.0411222 L454.742684,205.7669751 L455.8594688,205.492828 L456.9762536,205.2348072 L458.0930384,204.9929127 L459.2098232,204.7510182 L460.326608,204.5091237 L461.4433928,204.2833555 L462.5601776,204.0575873 L463.6769624,203.8479454 L464.7937472,203.6383035 L465.910532,203.4447879 L467.0273168,203.2512723 L468.1441016,203.073883 L469.2608864,202.8964937 L470.3776712,202.7352307 L471.494456,202.5739677 L472.6112408,202.4127047 L473.7280256,202.267568 L474.8448104,202.1224313 L475.9615952,201.9934209 L477.07838,201.8644105 L478.1951648,201.7515264 L479.3119496,201.6386423 L480.4287344,201.5257582 L481.5455192,201.4290004 L482.662304,201.3483689 L483.7790888,201.2516111 L484.8958736,201.1871059 L486.0126584,201.1064744 L487.1294432,201.0419692 L488.246228,200.977464 L489.3630128,200.9290851 L490.4797976,200.8968325 L491.5965824,200.8484536 L492.7133672,200.816201 L493.830152,200.8000747 L494.9469368,200.7839484 L496.0637216,200.7678221 L497.1805064,200.7516958 L498.2972912,200.7678221 L499.414076,200.7678221 L500.5308608,200.7839484 L501.6476456,200.8000747 L502.7644304,200.8323273 L503.8812152,200.8645799 L504.998,200.9129588 L506.1147848,200.9613377 L507.2315696,201.0097166 L508.3483544,201.0742218 L509.4651392,201.138727 L510.581924,201.2193585 L511.6987088,201.29999 L512.8154936,201.3806215 L513.9322784,201.4773793 L515.0490632,201.5741371 L516.165848,201.6870212 L517.2826328,201.7999053 L518.3994176,201.9289157 L519.5162024,202.0579261 L520.6329872,202.1869365 L521.749772,202.3320732 L522.8665568,202.4772099 L523.9833416,202.6384729 L525.1001264,202.7997359 L526.2169112,202.9771252 L527.333696,203.1545145 L528.4504808,203.3480301 L529.5672656,203.5415457 L530.6840504,203.7350613 L531.8008352,203.9447032 L532.91762,204.1543451 L534.0344048,204.3801133 L535.1511896,204.6220078 L536.2679744,204.847776 L537.3847592,205.1057968 L538.501544,205.3476913 L539.6183288,205.6218384 L540.7351136,205.8959855 L541.8518984,206.1701326 L542.9686832,206.460406 L544.085468,206.7506794 L545.2022528,207.0570791 L546.3190376,207.3634788 L547.4358224,207.6860048 L548.5526072,208.0246571 L549.669392,208.3633094 L550.7861768,208.7019617 L551.9029616,209.0567403 L553.0197464,209.4276452 L554.1365312,209.7985501 L555.253316,210.1855813 L556.3701008,210.5887388 L557.4868856,210.9918963 L558.6036704,211.3950538 L559.7204552,211.8304639 L560.83724,212.265874 L561.9540248,212.7012841 L563.0708096,213.1689468 L564.1875944,213.6366095 L565.3043792,214.1042722 L566.421164,214.6041875 L567.5379488,215.1041028 L568.6547336,215.6201444 L569.7715184,216.136186 L570.8883032,216.6844802 L572.005088,217.2327744 L573.1218728,217.7971949 L574.2386576,218.3616154 L575.3554424,218.9582885 L576.4722272,219.5549616 L577.589012,220.167761 L578.7057968,220.7966867 L579.8225816,221.4417387 L580.9393664,222.102917 L582.0561512,222.7802216 L583.172936,223.4736525 L584.2897208,224.1832097 L585.4065056,224.9088932 L586.5232904,225.650703 L587.6400752,226.4086391 L588.75686,227.1827015 L589.8736448,227.9728902 L590.9904296,228.7792052 L592.1072144,229.6177728 L593.2239992,230.4724667 L594.340784,231.3432869 L595.4575688,232.2302334 L596.5743536,233.1494325 L597.6911384,234.0847579 L598.8079232,235.0523359 L599.924708,236.0360402 L601.0414928,237.0519971 L602.1582776,238.0840803 L603.2750624,239.1484161 L604.3918472,240.2450045 L605.508632,241.3577192 L606.6254168,242.5188128 L607.7422016,243.6960327 L608.8589864,244.9055052 L609.9757712,246.1633566 L611.092556,247.4373343 L612.2093408,248.7596909 L613.3261256,250.1304264 L614.4429104,251.5334145 L615.5596952,252.9686552 L616.67648,254.4522748 L617.7932648,255.9842733 L618.9100496,257.580777 L620.0268344,259.2095333 L621.1436192,260.9027948 L622.260404,262.6444352 L623.3771888,264.4505808 L624.4939736,266.3212316 L625.6107584,268.2563876 L626.7275432,270.2721751 L627.844328,272.3685941 L628.9611128,274.5456446 L630.0778976,276.8033266 L631.1946824,279.1577664 L632.3114672,281.6250903 L633.428252,284.189172 L634.5450368,286.8822641 L635.6618216,289.7043666 L636.7786064,292.6716058 L637.8953912,295.800108 L639.012176,299.0898732 L640.1289608,302.573154 L641.2457456,306.2660767 L642.3625304,310.2008939 L643.4793152,314.4098582 L644.5961,318.9090959 " fill-rule="evenodd" vector-effect="non-scaling-stroke"/>
                        </g>
                    </g>
                </g>
                <g id="PlotDataItem_2">
                    <g fill="none" fill-rule="evenodd" id="PlotCurveItem_2" stroke="black" stroke-linecap="square" stroke-linejoin="bevel" stroke-width="1">
                        <g fill="none" font-family="MS Shell Dlg 2" font-size="11" font-style="normal" font-weight="400" stroke="#c7b069" stroke-linecap="square" stroke-linejoin="bevel" stroke-opacity="1" stroke-width="1">
                            <path d="M86.2037000931,309.184937 L87.3204848,304.5889415 L88.4372696,300.315472 L89.5540544,296.3000233 L90.6708392,292.5425954 L91.787624,288.9948094 L92.9044088,285.6244127 L94.0211936,282.4475316 L95.1379784,279.4319135 L96.2547632,276.5614321 L97.371548,273.8038348 L98.4883328,271.1913742 L99.6051176,268.6917977 L100.7219024,266.2728527 L101.8386872,263.9667918 L102.955472,261.7574887 L104.0722568,259.6288171 L105.1890416,257.580777 L106.3058264,255.5972421 L107.4226112,253.6943387 L108.539396,251.8398142 L109.6561808,250.0659212 L110.7729656,248.3404071 L111.8897504,246.6632719 L113.0065352,245.0506419 L114.12332,243.4863908 L115.2401048,241.9705186 L116.3568896,240.486899 L117.4736744,239.0677846 L118.5904592,237.6647965 L119.707244,236.3263136 L120.8240288,235.003957 L121.9408136,233.7299793 L123.0575984,232.4882542 L124.1743832,231.2787817 L125.291168,230.1015618 L126.4079528,228.9565945 L127.5247376,227.8277535 L128.6415224,226.7472914 L129.7583072,225.6829556 L130.875092,224.6347461 L131.9918768,223.6349155 L133.1086616,222.6512112 L134.2254464,221.6836332 L135.3422312,220.7483078 L136.459016,219.8291087 L137.5758008,218.9260359 L138.6925856,218.0552157 L139.8093704,217.2005218 L140.9261552,216.3619542 L142.04294,215.5556392 L143.1597248,214.7493242 L144.2765096,213.9752618 L145.3932944,213.2173257 L146.5100792,212.4755159 L147.626864,211.7498324 L148.7436488,211.0402752 L149.8604336,210.3468443 L150.9772184,209.6534134 L152.0940032,208.9922351 L153.210788,208.3471831 L154.3275728,207.7182574 L155.4443576,207.0893317 L156.5611424,206.4926586 L157.6779272,205.8959855 L158.794712,205.3154387 L159.9114968,204.7510182 L161.0282816,204.202724 L162.1450664,203.6544298 L163.2618512,203.1222619 L164.378636,202.6062203 L165.4954208,202.106305 L166.6122056,201.6063897 L167.7289904,201.1226007 L168.8457752,200.654938 L169.96256,200.2034016 L171.0793448,199.7518652 L172.1961296,199.3164551 L173.3129144,198.881045 L174.4296992,198.4617612 L175.546484,198.0586037 L176.6632688,197.6554462 L177.7800536,197.268415 L178.8968384,196.8975101 L180.0136232,196.5266052 L181.130408,196.1557003 L182.2471928,195.817048 L183.3639776,195.4783957 L184.4807624,195.1397434 L185.5975472,194.8172174 L186.714332,194.5108177 L187.8311168,194.204418 L188.9479016,193.8980183 L190.0646864,193.6077449 L191.1814712,193.3335978 L192.298256,193.0594507 L193.4150408,192.8014299 L194.5318256,192.5434091 L195.6486104,192.3015146 L196.7653952,192.0596201 L197.88218,191.8177256 L198.9989648,191.6080837 L200.1157496,191.3823155 L201.2325344,191.1726736 L202.3493192,190.979158 L203.466104,190.7856424 L204.5828888,190.6082531 L205.6996736,190.4308638 L206.8164584,190.2534745 L207.9332432,190.0922115 L209.050028,189.9309485 L210.1668128,189.7858118 L211.2835976,189.6406751 L212.4003824,189.5116647 L213.5171672,189.3826543 L214.633952,189.2697702 L215.7507368,189.1568861 L216.8675216,189.044002 L217.9843064,188.9472442 L219.1010912,188.8666127 L220.217876,188.7859812 L221.3346608,188.7053497 L222.4514456,188.6247182 L223.5682304,188.560213 L224.6850152,188.5118341 L225.8018,188.4634552 L226.9185848,188.4150763 L228.0353696,188.3828237 L229.1521544,188.3505711 L230.2689392,188.3344448 L231.385724,188.3183185 L232.5025088,188.3183185 L233.6192936,188.3021922 L234.7360784,188.3183185 L235.8528632,188.3344448 L236.969648,188.3505711 L238.0864328,188.3666974 L239.2032176,188.39895 L240.3200024,188.4473289 L241.4367872,188.4957078 L242.553572,188.5440867 L243.6703568,188.6085919 L244.7871416,188.6730971 L245.9039264,188.7537286 L247.0207112,188.8343601 L248.137496,188.9149916 L249.2542808,189.0117494 L250.3710656,189.1085072 L251.4878504,189.2213913 L252.6046352,189.3342754 L253.72142,189.4632858 L254.8382048,189.5922962 L255.9549896,189.7374329 L257.0717744,189.8825696 L258.1885592,190.0277063 L259.305344,190.1889693 L260.4221288,190.3663586 L261.5389136,190.5276216 L262.6556984,190.7211372 L263.7724832,190.8985265 L264.889268,191.1081684 L266.0060528,191.301684 L267.1228376,191.5274522 L268.2396224,191.7370941 L269.3564072,191.9628623 L270.473192,192.2047568 L271.5899768,192.4466513 L272.7067616,192.7046721 L273.8235464,192.9626929 L274.9403312,193.23684 L276.057116,193.5109871 L277.1739008,193.7851342 L278.2906856,194.0915339 L279.4074704,194.3818073 L280.5242552,194.7043333 L281.64104,195.010733 L282.7578248,195.3493853 L283.8746096,195.6880376 L284.9913944,196.0266899 L286.1081792,196.3814685 L287.224964,196.7523734 L288.3417488,197.1232783 L289.4585336,197.5103095 L290.5753184,197.8973407 L291.6921032,198.3004982 L292.808888,198.719782 L293.9256728,199.1390658 L295.0424576,199.5744759 L296.1592424,200.0260123 L297.2760272,200.4775487 L298.392812,200.9452114 L299.5095968,201.4290004 L300.6263816,201.9127894 L301.7431664,202.4127047 L302.8599512,202.9287463 L303.976736,203.4447879 L305.0935208,203.9769558 L306.2103056,204.52525 L307.3270904,205.0896705 L308.4438752,205.6702173 L309.56066,206.2507641 L310.6774448,206.8635635 L311.7942296,207.4763629 L312.9110144,208.1052886 L314.0277992,208.7342143 L315.144584,209.3953926 L316.2613688,210.0726972 L317.3781536,210.7661281 L318.4949384,211.459559 L319.6117232,212.1852425 L320.728508,212.910926 L321.8452928,213.6688621 L322.9620776,214.4429245 L324.0788624,215.2331132 L325.1956472,216.0394282 L326.312432,216.8618695 L327.4292168,217.7165634 L328.5460016,218.5712573 L329.6627864,219.4582038 L330.7795712,220.3774029 L331.896356,221.296602 L333.0131408,222.2480537 L334.1299256,223.231758 L335.2467104,224.2315886 L336.3634952,225.2475455 L337.48028,226.3118813 L338.5970648,227.3762171 L339.7138496,228.4889318 L340.8306344,229.6177728 L341.9474192,230.7949927 L343.064204,231.9883389 L344.1809888,233.2139377 L345.2977736,234.4717891 L346.4145584,235.7780194 L347.5313432,237.100376 L348.648128,238.4711115 L349.7649128,239.8902259 L350.8816976,241.3415929 L351.9984824,242.8413388 L353.1152672,244.3894636 L354.232052,245.9859673 L355.3488368,247.6308499 L356.4656216,249.3241114 L357.5824064,251.0818781 L358.6991912,252.90415 L359.815976,254.7748008 L360.9327608,256.7260831 L362.0495456,258.7418706 L363.1663304,260.8382896 L364.2831152,263.0153401 L365.3999,265.2730221 L366.5166848,263.0153401 L367.6334696,260.8382896 L368.7502544,258.7418706 L369.8670392,256.7260831 L370.983824,254.7748008 L372.1006088,252.90415 L373.2173936,251.0818781 L374.3341784,249.3241114 L375.4509632,247.6308499 L376.567748,245.9859673 L377.6845328,244.3894636 L378.8013176,242.8413388 L379.9181024,241.3415929 L381.0348872,239.8902259 L382.151672,238.4711115 L383.2684568,237.100376 L384.3852416,235.7780194 L385.5020264,234.4717891 L386.6188112,233.2139377 L387.735596,231.9883389 L388.8523808,230.7949927 L389.9691656,229.6177728 L391.0859504,228.4889318 L392.2027352,227.3762171 L393.31952,226.3118813 L394.4363048,225.2475455 L395.5530896,224.2315886 L396.6698744,223.231758 L397.7866592,222.2480537 L398.903444,221.296602 L400.0202288,220.3774029 L401.1370136,219.4582038 L402.2537984,218.5712573 L403.3705832,217.7165634 L404.487368,216.8618695 L405.6041528,216.0394282 L406.7209376,215.2331132 L407.8377224,214.4429245 L408.9545072,213.6688621 L410.071292,212.910926 L411.1880768,212.1852425 L412.3048616,211.459559 L413.4216464,210.7661281 L414.5384312,210.0726972 L415.655216,209.3953926 L416.7720008,208.7342143 L417.8887856,208.1052886 L419.0055704,207.4763629 L420.1223552,206.8635635 L421.23914,206.2507641 L422.3559248,205.6702173 L423.4727096,205.0896705 L424.5894944,204.52525 L425.7062792,203.9769558 L426.823064,203.4447879 L427.9398488,202.9287463 L429.0566336,202.4127047 L430.1734184,201.9127894 L431.2902032,201.4290004 L432.406988,200.9452114 L433.5237728,200.4775487 L434.6405576,200.0260123 L435.7573424,199.5744759 L436.8741272,199.1390658 L437.990912,198.719782 L439.1076968,198.3004982 L440.2244816,197.8973407 L441.3412664,197.5103095 L442.4580512,197.1232783 L443.574836,196.7523734 L444.6916208,196.3814685 L445.8084056,196.0266899 L446.9251904,195.6880376 L448.0419752,195.3493853 L449.15876,195.010733 L450.2755448,194.7043333 L451.3923296,194.3818073 L452.5091144,194.0915339 L453.6258992,193.7851342 L454.742684,193.5109871 L455.8594688,193.23684 L456.9762536,192.9626929 L458.0930384,192.7046721 L459.2098232,192.4466513 L460.326608,192.2047568 L461.4433928,191.9628623 L462.5601776,191.7370941 L463.6769624,191.5274522 L464.7937472,191.301684 L465.910532,191.1081684 L467.0273168,190.8985265 L468.1441016,190.7211372 L469.2608864,190.5276216 L470.3776712,190.3663586 L471.494456,190.1889693 L472.6112408,190.0277063 L473.7280256,189.8825696 L474.8448104,189.7374329 L475.9615952,189.5922962 L477.07838,189.4632858 L478.1951648,189.3342754 L479.3119496,189.2213913 L480.4287344,189.1085072 L481.5455192,189.0117494 L482.662304,188.9149916 L483.7790888,188.8343601 L484.8958736,188.7537286 L486.0126584,188.6730971 L487.1294432,188.6085919 L488.246228,188.5440867 L489.3630128,188.4957078 L490.4797976,188.4473289 L491.5965824,188.39895 L492.7133672,188.3666974 L493.830152,188.3505711 L494.9469368,188.3344448 L496.0637216,188.3183185 L497.1805064,188.3021922 L498.2972912,188.3183185 L499.414076,188.3183185 L500.5308608,188.3344448 L501.6476456,188.3505711 L502.7644304,188.3828237 L503.8812152,188.4150763 L504.998,188.4634552 L506.1147848,188.5118341 L507.2315696,188.560213 L508.3483544,188.6247182 L509.4651392,188.7053497 L510.581924,188.7859812 L511.6987088,188.8666127 L512.8154936,188.9472442 L513.9322784,189.044002 L515.0490632,189.1568861 L516.165848,189.2697702 L517.2826328,189.3826543 L518.3994176,189.5116647 L519.5162024,189.6406751 L520.6329872,189.7858118 L521.749772,189.9309485 L522.8665568,190.0922115 L523.9833416,190.2534745 L525.1001264,190.4308638 L526.2169112,190.6082531 L527.333696,190.7856424 L528.4504808,190.979158 L529.5672656,191.1726736 L530.6840504,191.3823155 L531.8008352,191.6080837 L532.91762,191.8177256 L534.0344048,192.0596201 L535.1511896,192.3015146 L536.2679744,192.5434091 L537.3847592,192.8014299 L538.501544,193.0594507 L539.6183288,193.3335978 L540.7351136,193.6077449 L541.8518984,193.8980183 L542.9686832,194.204418 L544.085468,194.5108177 L545.2022528,194.8172174 L546.3190376,195.1397434 L547.4358224,195.4783957 L548.5526072,195.817048 L549.669392,196.1557003 L550.7861768,196.5266052 L551.9029616,196.8975101 L553.0197464,197.268415 L554.1365312,197.6554462 L555.253316,198.0586037 L556.3701008,198.4617612 L557.4868856,198.881045 L558.6036704,199.3164551 L559.7204552,199.7518652 L560.83724,200.2034016 L561.9540248,200.654938 L563.0708096,201.1226007 L564.1875944,201.6063897 L565.3043792,202.106305 L566.421164,202.6062203 L567.5379488,203.1222619 L568.6547336,203.6544298 L569.7715184,204.202724 L570.8883032,204.7510182 L572.005088,205.3154387 L573.1218728,205.8959855 L574.2386576,206.4926586 L575.3554424,207.0893317 L576.4722272,207.7182574 L577.589012,208.3471831 L578.7057968,208.9922351 L579.8225816,209.6534134 L580.9393664,210.3468443 L582.0561512,211.0402752 L583.172936,211.7498324 L584.2897208,212.4755159 L585.4065056,213.2173257 L586.5232904,213.9752618 L587.6400752,214.7493242 L588.75686,215.5556392 L589.8736448,216.3619542 L590.9904296,217.2005218 L592.1072144,218.0552157 L593.2239992,218.9260359 L594.340784,219.8291087 L595.4575688,220.7483078 L596.5743536,221.6836332 L597.6911384,222.6512112 L598.8079232,223.6349155 L599.924708,224.6347461 L601.0414928,225.6829556 L602.1582776,226.7472914 L603.2750624,227.8277535 L604.3918472,228.9565945 L605.508632,230.1015618 L606.6254168,231.2787817 L607.7422016,232.4882542 L608.8589864,233.7299793 L609.9757712,235.003957 L611.092556,236.3263136 L612.2093408,237.6647965 L613.3261256,239.0677846 L614.4429104,240.486899 L615.5596952,241.9705186 L616.67648,243.4863908 L617.7932648,245.0506419 L618.9100496,246.6632719 L620.0268344,248.3404071 L621.1436192,250.0659212 L622.260404,251.8398142 L623.3771888,253.6943387 L624.4939736,255.5972421 L625.6107584,257.580777 L626.7275432,259.6288171 L627.844328,261.7574887 L628.9611128,263.9667918 L630.0778976,266.2728527 L631.1946824,268.6917977 L632.3114672,271.1913742 L633.428252,273.8038348 L634.5450368,276.5614321 L635.6618216,279.4319135 L636.7786064,282.4475316 L637.8953912,285.6244127 L639.012176,288.9948094 L640.1289608,292.5425954 L641.2457456,296.3000233 L642.3625304,300.315472 L643.4793152,304.5889415 L644.5961,309.184937 " fill-rule="evenodd" vector-effect="non-scaling-stroke"/>
                        </g>
                    </g>
                </g>
                <g id="PlotDataItem_3">
                    <g fill="none" fill-rule="evenodd" id="PlotCurveItem_3" stroke="black" stroke-linecap="square" stroke-linejoin="bevel" stroke-width="1">
                        <g fill="none" font-family="MS Shell Dlg 2" font-size="11" font-style="normal" font-weight="400" stroke="#7ea695" stroke-linecap="square" stroke-linejoin="bevel" stroke-opacity="1" stroke-width="1">
                            <path d="M86.2037000931,287.6079476 L87.3204848,282.8023102 L88.4372696,278.3191988 L89.5540544,274.1424871 L90.6708392,270.2076699 L91.787624,266.5147472 L92.9044088,263.0153401 L94.0211936,259.6933223 L95.1379784,256.5486938 L96.2547632,253.5653283 L97.371548,250.7109732 L98.4883328,247.9856285 L99.6051176,245.3731679 L100.7219024,242.8735914 L101.8386872,240.486899 L102.955472,238.1808381 L104.0722568,235.9554087 L105.1890416,233.8267371 L106.3058264,231.7625707 L107.4226112,229.7790358 L108.539396,227.8600061 L109.6561808,226.0054816 L110.7729656,224.2154623 L111.8897504,222.4738219 L113.0065352,220.7805604 L114.12332,219.1518041 L115.2401048,217.5714267 L116.3568896,216.0394282 L117.4736744,214.5396823 L118.5904592,213.0883153 L119.707244,211.6853272 L120.8240288,210.3145917 L121.9408136,208.9761088 L123.0575984,207.6860048 L124.1743832,206.4120271 L125.291168,205.1864283 L126.4079528,203.9769558 L127.5247376,202.8158622 L128.6415224,201.6708949 L129.7583072,200.5581802 L130.875092,199.4777181 L131.9918768,198.4133823 L133.1086616,197.3812991 L134.2254464,196.3814685 L135.3422312,195.3977642 L136.459016,194.4301862 L137.5758008,193.4948608 L138.6925856,192.5756617 L139.8093704,191.6725889 L140.9261552,190.8017687 L142.04294,189.9470748 L143.1597248,189.1085072 L144.2765096,188.2860659 L145.3932944,187.4958772 L146.5100792,186.7056885 L147.626864,185.9477524 L148.7436488,185.2059426 L149.8604336,184.4641328 L150.9772184,183.7545756 L152.0940032,183.0611447 L153.210788,182.3677138 L154.3275728,181.7065355 L155.4443576,181.0453572 L156.5611424,180.4164315 L157.6779272,179.7875058 L158.794712,179.1747064 L159.9114968,178.5780333 L161.0282816,177.9974865 L162.1450664,177.4169397 L163.2618512,176.8686455 L164.378636,176.3203513 L165.4954208,175.7881834 L166.6122056,175.2721418 L167.7289904,174.7561002 L168.8457752,174.2561849 L169.96256,173.7723959 L171.0793448,173.3047332 L172.1961296,172.8370705 L173.3129144,172.3855341 L174.4296992,171.9339977 L175.546484,171.5147139 L176.6632688,171.0793038 L177.7800536,170.6761463 L178.8968384,170.2729888 L180.0136232,169.8859576 L181.130408,169.4989264 L182.2471928,169.1280215 L183.3639776,168.7732429 L184.4807624,168.4184643 L185.5975472,168.079812 L186.714332,167.7411597 L187.8311168,167.4186337 L188.9479016,167.112234 L190.0646864,166.8058343 L191.1814712,166.4994346 L192.298256,166.2252875 L193.4150408,165.9350141 L194.5318256,165.6769933 L195.6486104,165.4028462 L196.7653952,165.1609517 L197.88218,164.9029309 L198.9989648,164.6771627 L200.1157496,164.4513945 L201.2325344,164.2256263 L202.3493192,164.0159844 L203.466104,163.8063425 L204.5828888,163.6128269 L205.6996736,163.4193113 L206.8164584,163.241922 L207.9332432,163.0645327 L209.050028,162.9032697 L210.1668128,162.7420067 L211.2835976,162.59687 L212.4003824,162.4517333 L213.5171672,162.3227229 L214.633952,162.1937125 L215.7507368,162.0808284 L216.8675216,161.9679443 L217.9843064,161.8711865 L219.1010912,161.7744287 L220.217876,161.6776709 L221.3346608,161.5970394 L222.4514456,161.5325342 L223.5682304,161.4519027 L224.6850152,161.4035238 L225.8018,161.3551449 L226.9185848,161.306766 L228.0353696,161.2745134 L229.1521544,161.2422608 L230.2689392,161.2100082 L231.385724,161.1938819 L232.5025088,161.1938819 L233.6192936,161.1938819 L234.7360784,161.1938819 L235.8528632,161.2100082 L236.969648,161.2422608 L238.0864328,161.2583871 L239.2032176,161.306766 L240.3200024,161.3390186 L241.4367872,161.3873975 L242.553572,161.4519027 L243.6703568,161.5164079 L244.7871416,161.5970394 L245.9039264,161.6776709 L247.0207112,161.7583024 L248.137496,161.8550602 L249.2542808,161.951818 L250.3710656,162.0647021 L251.4878504,162.1775862 L252.6046352,162.3065966 L253.72142,162.435607 L254.8382048,162.5807437 L255.9549896,162.7258804 L257.0717744,162.8871434 L258.1885592,163.0484064 L259.305344,163.2257957 L260.4221288,163.403185 L261.5389136,163.5805743 L262.6556984,163.7740899 L263.7724832,163.9837318 L264.889268,164.1933737 L266.0060528,164.4191419 L267.1228376,164.6449101 L268.2396224,164.8706783 L269.3564072,165.1286991 L270.473192,165.3705936 L271.5899768,165.6286144 L272.7067616,165.9027615 L273.8235464,166.1769086 L274.9403312,166.467182 L276.057116,166.7574554 L277.1739008,167.0638551 L278.2906856,167.3863811 L279.4074704,167.7089071 L280.5242552,168.0314331 L281.64104,168.3700854 L282.7578248,168.724864 L283.8746096,169.0796426 L284.9913944,169.4505475 L286.1081792,169.8375787 L287.224964,170.2246099 L288.3417488,170.6116411 L289.4585336,171.0309249 L290.5753184,171.4502087 L291.6921032,171.8694925 L292.808888,172.3210289 L293.9256728,172.7725653 L295.0424576,173.2241017 L296.1592424,173.7078907 L297.2760272,174.1916797 L298.392812,174.6754687 L299.5095968,175.1915103 L300.6263816,175.7075519 L301.7431664,176.2397198 L302.8599512,176.788014 L303.976736,177.3363082 L305.0935208,177.9007287 L306.2103056,178.4812755 L307.3270904,179.0779486 L308.4438752,179.690748 L309.56066,180.3035474 L310.6774448,180.9485994 L311.7942296,181.5936514 L312.9110144,182.2548297 L314.0277992,182.9482606 L315.144584,183.6416915 L316.2613688,184.3512487 L317.3781536,185.0769322 L318.4949384,185.818742 L319.6117232,186.5766781 L320.728508,187.3507405 L321.8452928,188.1570555 L322.9620776,188.9633705 L324.0788624,189.8019381 L325.1956472,190.6405057 L326.312432,191.5113259 L327.4292168,192.4143987 L328.5460016,193.3174715 L329.6627864,194.2527969 L330.7795712,195.2042486 L331.896356,196.1879529 L333.0131408,197.1877835 L334.1299256,198.2198667 L335.2467104,199.2680762 L336.3634952,200.3485383 L337.48028,201.4451267 L338.5970648,202.590094 L339.7138496,203.7511876 L340.8306344,204.9445338 L341.9474192,206.1540063 L343.064204,207.4118577 L344.1809888,208.7019617 L345.2977736,210.0243183 L346.4145584,211.3950538 L347.5313432,212.7819156 L348.648128,214.2332826 L349.7649128,215.7007759 L350.8816976,217.2327744 L351.9984824,218.7970255 L353.1152672,220.4096555 L354.232052,222.0867907 L355.3488368,223.8123048 L356.4656216,225.5861978 L357.5824064,227.424596 L358.6991912,229.3274994 L359.815976,231.294908 L360.9327608,233.3268218 L362.0495456,235.4393671 L363.1663304,237.6325439 L364.2831152,239.9063522 L365.3999,242.2769183 L366.5166848,239.9063522 L367.6334696,237.6325439 L368.7502544,235.4393671 L369.8670392,233.3268218 L370.983824,231.294908 L372.1006088,229.3274994 L373.2173936,227.424596 L374.3341784,225.5861978 L375.4509632,223.8123048 L376.567748,222.0867907 L377.6845328,220.4096555 L378.8013176,218.7970255 L379.9181024,217.2327744 L381.0348872,215.7007759 L382.151672,214.2332826 L383.2684568,212.7819156 L384.3852416,211.3950538 L385.5020264,210.0243183 L386.6188112,208.7019617 L387.735596,207.4118577 L388.8523808,206.1540063 L389.9691656,204.9445338 L391.0859504,203.7511876 L392.2027352,202.590094 L393.31952,201.4451267 L394.4363048,200.3485383 L395.5530896,199.2680762 L396.6698744,198.2198667 L397.7866592,197.1877835 L398.903444,196.1879529 L400.0202288,195.2042486 L401.1370136,194.2527969 L402.2537984,193.3174715 L403.3705832,192.4143987 L404.487368,191.5113259 L405.6041528,190.6405057 L406.7209376,189.8019381 L407.8377224,188.9633705 L408.9545072,188.1570555 L410.071292,187.3507405 L411.1880768,186.5766781 L412.3048616,185.818742 L413.4216464,185.0769322 L414.5384312,184.3512487 L415.655216,183.6416915 L416.7720008,182.9482606 L417.8887856,182.2548297 L419.0055704,181.5936514 L420.1223552,180.9485994 L421.23914,180.3035474 L422.3559248,179.690748 L423.4727096,179.0779486 L424.5894944,178.4812755 L425.7062792,177.9007287 L426.823064,177.3363082 L427.9398488,176.788014 L429.0566336,176.2397198 L430.1734184,175.7075519 L431.2902032,175.1915103 L432.406988,174.6754687 L433.5237728,174.1916797 L434.6405576,173.7078907 L435.7573424,173.2241017 L436.8741272,172.7725653 L437.990912,172.3210289 L439.1076968,171.8694925 L440.2244816,171.4502087 L441.3412664,171.0309249 L442.4580512,170.6116411 L443.574836,170.2246099 L444.6916208,169.8375787 L445.8084056,169.4505475 L446.9251904,169.0796426 L448.0419752,168.724864 L449.15876,168.3700854 L450.2755448,168.0314331 L451.3923296,167.7089071 L452.5091144,167.3863811 L453.6258992,167.0638551 L454.742684,166.7574554 L455.8594688,166.467182 L456.9762536,166.1769086 L458.0930384,165.9027615 L459.2098232,165.6286144 L460.326608,165.3705936 L461.4433928,165.1286991 L462.5601776,164.8706783 L463.6769624,164.6449101 L464.7937472,164.4191419 L465.910532,164.1933737 L467.0273168,163.9837318 L468.1441016,163.7740899 L469.2608864,163.5805743 L470.3776712,163.403185 L471.494456,163.2257957 L472.6112408,163.0484064 L473.7280256,162.8871434 L474.8448104,162.7258804 L475.9615952,162.5807437 L477.07838,162.435607 L478.1951648,162.3065966 L479.3119496,162.1775862 L480.4287344,162.0647021 L481.5455192,161.951818 L482.662304,161.8550602 L483.7790888,161.7583024 L484.8958736,161.6776709 L486.0126584,161.5970394 L487.1294432,161.5164079 L488.246228,161.4519027 L489.3630128,161.3873975 L490.4797976,161.3390186 L491.5965824,161.306766 L492.7133672,161.2583871 L493.830152,161.2422608 L494.9469368,161.2100082 L496.0637216,161.1938819 L497.1805064,161.1938819 L498.2972912,161.1938819 L499.414076,161.1938819 L500.5308608,161.2100082 L501.6476456,161.2422608 L502.7644304,161.2745134 L503.8812152,161.306766 L504.998,161.3551449 L506.1147848,161.4035238 L507.2315696,161.4519027 L508.3483544,161.5325342 L509.4651392,161.5970394 L510.581924,161.6776709 L511.6987088,161.7744287 L512.8154936,161.8711865 L513.9322784,161.9679443 L515.0490632,162.0808284 L516.165848,162.1937125 L517.2826328,162.3227229 L518.3994176,162.4517333 L519.5162024,162.59687 L520.6329872,162.7420067 L521.749772,162.9032697 L522.8665568,163.0645327 L523.9833416,163.241922 L525.1001264,163.4193113 L526.2169112,163.6128269 L527.333696,163.8063425 L528.4504808,164.0159844 L529.5672656,164.2256263 L530.6840504,164.4513945 L531.8008352,164.6771627 L532.91762,164.9029309 L534.0344048,165.1609517 L535.1511896,165.4028462 L536.2679744,165.6769933 L537.3847592,165.9350141 L538.501544,166.2252875 L539.6183288,166.4994346 L540.7351136,166.8058343 L541.8518984,167.112234 L542.9686832,167.4186337 L544.085468,167.7411597 L545.2022528,168.079812 L546.3190376,168.4184643 L547.4358224,168.7732429 L548.5526072,169.1280215 L549.669392,169.4989264 L550.7861768,169.8859576 L551.9029616,170.2729888 L553.0197464,170.6761463 L554.1365312,171.0793038 L555.253316,171.5147139 L556.3701008,171.9339977 L557.4868856,172.3855341 L558.6036704,172.8370705 L559.7204552,173.3047332 L560.83724,173.7723959 L561.9540248,174.2561849 L563.0708096,174.7561002 L564.1875944,175.2721418 L565.3043792,175.7881834 L566.421164,176.3203513 L567.5379488,176.8686455 L568.6547336,177.4169397 L569.7715184,177.9974865 L570.8883032,178.5780333 L572.005088,179.1747064 L573.1218728,179.7875058 L574.2386576,180.4164315 L575.3554424,181.0453572 L576.4722272,181.7065355 L577.589012,182.3677138 L578.7057968,183.0611447 L579.8225816,183.7545756 L580.9393664,184.4641328 L582.0561512,185.2059426 L583.172936,185.9477524 L584.2897208,186.7056885 L585.4065056,187.4958772 L586.5232904,188.2860659 L587.6400752,189.1085072 L588.75686,189.9470748 L589.8736448,190.8017687 L590.9904296,191.6725889 L592.1072144,192.5756617 L593.2239992,193.4948608 L594.340784,194.4301862 L595.4575688,195.3977642 L596.5743536,196.3814685 L597.6911384,197.3812991 L598.8079232,198.4133823 L599.924708,199.4777181 L601.0414928,200.5581802 L602.1582776,201.6708949 L603.2750624,202.8158622 L604.3918472,203.9769558 L605.508632,205.1864283 L606.6254168,206.4120271 L607.7422016,207.6860048 L608.8589864,208.9761088 L609.9757712,210.3145917 L611.092556,211.6853272 L612.2093408,213.0883153 L613.3261256,214.5396823 L614.4429104,216.0394282 L615.5596952,217.5714267 L616.67648,219.1518041 L617.7932648,220.7805604 L618.9100496,222.4738219 L620.0268344,224.2154623 L621.1436192,226.0054816 L622.260404,227.8600061 L623.3771888,229.7790358 L624.4939736,231.7625707 L625.6107584,233.8267371 L626.7275432,235.9554087 L627.844328,238.1808381 L628.9611128,240.486899 L630.0778976,242.8735914 L631.1946824,245.3731679 L632.3114672,247.9856285 L633.428252,250.7109732 L634.5450368,253.5653283 L635.6618216,256.5486938 L636.7786064,259.6933223 L637.8953912,263.0153401 L639.012176,266.5147472 L640.1289608,270.2076699 L641.2457456,274.1424871 L642.3625304,278.3191988 L643.4793152,282.8023102 L644.5961,287.6079476 " fill-rule="evenodd" vector-effect="non-scaling-stroke"/>
                        </g>
                    </g>
                </g>
                <g id="PlotDataItem_4">
                    <g fill="none" fill-rule="evenodd" id="PlotCurveItem_4" stroke="black" stroke-linecap="square" stroke-linejoin="bevel" stroke-width="1">
                        <g fill="none" font-family="MS Shell Dlg 2" font-size="11" font-style="normal" font-weight="400" stroke="#8a7c91" stroke-linecap="square" stroke-linejoin="bevel" stroke-opacity="1" stroke-width="1">
                            <path d="M86.2037000931,227.0214385 L87.3204848,221.619128 L88.4372696,216.619975 L89.5540544,211.9594743 L90.6708392,207.6053733 L91.787624,203.5254194 L92.9044088,199.6712337 L94.0211936,196.0428162 L95.1379784,192.6079143 L96.2547632,189.3342754 L97.371548,186.2218995 L98.4883328,183.2546603 L99.6051176,180.4164315 L100.7219024,177.6910868 L101.8386872,175.0947525 L102.955472,172.595176 L104.0722568,170.1923573 L105.1890416,167.8701701 L106.3058264,165.6447407 L107.4226112,163.4999428 L108.539396,161.4196501 L109.6561808,159.4199889 L110.7729656,157.4848329 L111.8897504,155.5980558 L113.0065352,153.7757839 L114.12332,152.0180172 L115.2401048,150.3086294 L116.3568896,148.6476205 L117.4736744,147.0349905 L118.5904592,145.4707394 L119.707244,143.9548672 L120.8240288,142.4712476 L121.9408136,141.0198806 L123.0575984,139.6168925 L124.1743832,138.2622833 L125.291168,136.9238004 L126.4079528,135.6336964 L127.5247376,134.3597187 L128.6415224,133.1341199 L129.7583072,131.9246474 L130.875092,130.7635538 L131.9918768,129.6185865 L133.1086616,128.4897455 L134.2254464,127.4092834 L135.3422312,126.3449476 L136.459016,125.2967381 L137.5758008,124.2807812 L138.6925856,123.2809506 L139.8093704,122.3133726 L140.9261552,121.3619209 L142.04294,120.4427218 L143.1597248,119.5235227 L144.2765096,118.6527025 L145.3932944,117.7818823 L146.5100792,116.9271884 L147.626864,116.1047471 L148.7436488,115.2823058 L149.8604336,114.4921171 L150.9772184,113.7180547 L152.0940032,112.9601186 L153.210788,112.2183088 L154.3275728,111.4926253 L155.4443576,110.7830681 L156.5611424,110.0896372 L157.6779272,109.4123326 L158.794712,108.7511543 L159.9114968,108.089976 L161.0282816,107.4610503 L162.1450664,106.8482509 L163.2618512,106.2354515 L164.378636,105.6387784 L165.4954208,105.0582316 L166.6122056,104.4938111 L167.7289904,103.9455169 L168.8457752,103.3972227 L169.96256,102.8650548 L171.0793448,102.3490132 L172.1961296,101.8490979 L173.3129144,101.3491826 L174.4296992,100.8653936 L175.546484,100.3977309 L176.6632688,99.9461945 L177.7800536,99.4946581 L178.8968384,99.059248 L180.0136232,98.6238379 L181.130408,98.2206804 L182.2471928,97.8175229 L183.3639776,97.4143654 L184.4807624,97.0434605 L185.5975472,96.6564293 L186.714332,96.3016507 L187.8311168,95.9468721 L188.9479016,95.6082198 L190.0646864,95.2695675 L191.1814712,94.9470415 L192.298256,94.6406418 L193.4150408,94.3342421 L194.5318256,94.0278424 L195.6486104,93.7536953 L196.7653952,93.4795482 L197.88218,93.2054011 L198.9989648,92.9473803 L200.1157496,92.7054858 L201.2325344,92.4635913 L202.3493192,92.2378231 L203.466104,92.0120549 L204.5828888,91.802413 L205.6996736,91.5927711 L206.8164584,91.3992555 L207.9332432,91.2057399 L209.050028,91.0283506 L210.1668128,90.8670876 L211.2835976,90.7058246 L212.4003824,90.5445616 L213.5171672,90.3994249 L214.633952,90.2704145 L215.7507368,90.1414041 L216.8675216,90.0123937 L217.9843064,89.8995096 L219.1010912,89.8027518 L220.217876,89.705994 L221.3346608,89.6253625 L222.4514456,89.544731 L223.5682304,89.4802258 L224.6850152,89.4157206 L225.8018,89.3512154 L226.9185848,89.3028365 L228.0353696,89.2705839 L229.1521544,89.2383313 L230.2689392,89.222205 L231.385724,89.2060787 L232.5025088,89.2060787 L233.6192936,89.2060787 L234.7360784,89.222205 L235.8528632,89.2383313 L236.969648,89.2544576 L238.0864328,89.3028365 L239.2032176,89.3350891 L240.3200024,89.383468 L241.4367872,89.4479732 L242.553572,89.5124784 L243.6703568,89.5931099 L244.7871416,89.6737414 L245.9039264,89.7704992 L247.0207112,89.867257 L248.137496,89.9801411 L249.2542808,90.0930252 L250.3710656,90.2220356 L251.4878504,90.351046 L252.6046352,90.4961827 L253.72142,90.6413194 L254.8382048,90.8025824 L255.9549896,90.9638454 L257.0717744,91.1412347 L258.1885592,91.318624 L259.305344,91.5121396 L260.4221288,91.7217815 L261.5389136,91.9314234 L262.6556984,92.1410653 L263.7724832,92.3668335 L264.889268,92.608728 L266.0060528,92.8506225 L267.1228376,93.1086433 L268.2396224,93.3666641 L269.3564072,93.6408112 L270.473192,93.9310846 L271.5899768,94.221358 L272.7067616,94.5116314 L273.8235464,94.8341574 L274.9403312,95.1405571 L276.057116,95.4792094 L277.1739008,95.8178617 L278.2906856,96.1726403 L279.4074704,96.5274189 L280.5242552,96.8983238 L281.64104,97.2692287 L282.7578248,97.6562599 L283.8746096,98.0594174 L284.9913944,98.4787012 L286.1081792,98.897985 L287.224964,99.3172688 L288.3417488,99.7688052 L289.4585336,100.2203416 L290.5753184,100.6880043 L291.6921032,101.155667 L292.808888,101.6555823 L293.9256728,102.1554976 L295.0424576,102.6715392 L296.1592424,103.1875808 L297.2760272,103.7197487 L298.392812,104.2680429 L299.5095968,104.8324634 L300.6263816,105.4130102 L301.7431664,105.993557 L302.8599512,106.6063564 L303.976736,107.2191558 L305.0935208,107.8480815 L306.2103056,108.4931335 L307.3270904,109.1381855 L308.4438752,109.8154901 L309.56066,110.508921 L310.6774448,111.2023519 L311.7942296,111.9280354 L312.9110144,112.6537189 L314.0277992,113.411655 L315.144584,114.1857174 L316.2613688,114.9597798 L317.3781536,115.7660948 L318.4949384,116.5885361 L319.6117232,117.4271037 L320.728508,118.2817976 L321.8452928,119.1687441 L322.9620776,120.0556906 L324.0788624,120.9748897 L325.1956472,121.9102151 L326.312432,122.8777931 L327.4292168,123.8614974 L328.5460016,124.861328 L329.6627864,125.8934112 L330.7795712,126.9416207 L331.896356,128.0220828 L333.0131408,129.1347975 L334.1299256,130.2636385 L335.2467104,131.4247321 L336.3634952,132.601952 L337.48028,133.8275508 L338.5970648,135.0692759 L339.7138496,136.3593799 L340.8306344,137.6656102 L341.9474192,139.0202194 L343.064204,140.4070812 L344.1809888,141.8261956 L345.2977736,143.2775626 L346.4145584,144.7773085 L347.5313432,146.3254333 L348.648128,147.921937 L349.7649128,149.5506933 L350.8816976,151.2278285 L351.9984824,152.9694689 L353.1152672,154.7594882 L354.232052,156.5978864 L355.3488368,158.5169161 L356.4656216,160.4843247 L357.5824064,162.5162385 L358.6991912,164.6287838 L359.815976,166.8219606 L360.9327608,169.0796426 L362.0495456,171.4340824 L363.1663304,173.88528 L364.2831152,176.4332354 L365.3999,179.0940749 L366.5166848,176.4332354 L367.6334696,173.88528 L368.7502544,171.4340824 L369.8670392,169.0796426 L370.983824,166.8219606 L372.1006088,164.6287838 L373.2173936,162.5162385 L374.3341784,160.4843247 L375.4509632,158.5169161 L376.567748,156.5978864 L377.6845328,154.7594882 L378.8013176,152.9694689 L379.9181024,151.2278285 L381.0348872,149.5506933 L382.151672,147.921937 L383.2684568,146.3254333 L384.3852416,144.7773085 L385.5020264,143.2775626 L386.6188112,141.8261956 L387.735596,140.4070812 L388.8523808,139.0202194 L389.9691656,137.6656102 L391.0859504,136.3593799 L392.2027352,135.0692759 L393.31952,133.8275508 L394.4363048,132.601952 L395.5530896,131.4247321 L396.6698744,130.2636385 L397.7866592,129.1347975 L398.903444,128.0220828 L400.0202288,126.9416207 L401.1370136,125.8934112 L402.2537984,124.861328 L403.3705832,123.8614974 L404.487368,122.8777931 L405.6041528,121.9102151 L406.7209376,120.9748897 L407.8377224,120.0556906 L408.9545072,119.1687441 L410.071292,118.2817976 L411.1880768,117.4271037 L412.3048616,116.5885361 L413.4216464,115.7660948 L414.5384312,114.9597798 L415.655216,114.1857174 L416.7720008,113.411655 L417.8887856,112.6537189 L419.0055704,111.9280354 L420.1223552,111.2023519 L421.23914,110.508921 L422.3559248,109.8154901 L423.4727096,109.1381855 L424.5894944,108.4931335 L425.7062792,107.8480815 L426.823064,107.2191558 L427.9398488,106.6063564 L429.0566336,105.993557 L430.1734184,105.4130102 L431.2902032,104.8324634 L432.406988,104.2680429 L433.5237728,103.7197487 L434.6405576,103.1875808 L435.7573424,102.6715392 L436.8741272,102.1554976 L437.990912,101.6555823 L439.1076968,101.155667 L440.2244816,100.6880043 L441.3412664,100.2203416 L442.4580512,99.7688052 L443.574836,99.3172688 L444.6916208,98.897985 L445.8084056,98.4787012 L446.9251904,98.0594174 L448.0419752,97.6562599 L449.15876,97.2692287 L450.2755448,96.8983238 L451.3923296,96.5274189 L452.5091144,96.1726403 L453.6258992,95.8178617 L454.742684,95.4792094 L455.8594688,95.1405571 L456.9762536,94.8341574 L458.0930384,94.5116314 L459.2098232,94.221358 L460.326608,93.9310846 L461.4433928,93.6408112 L462.5601776,93.3666641 L463.6769624,93.1086433 L464.7937472,92.8506225 L465.910532,92.608728 L467.0273168,92.3668335 L468.1441016,92.1410653 L469.2608864,91.9314234 L470.3776712,91.7217815 L471.494456,91.5121396 L472.6112408,91.318624 L473.7280256,91.1412347 L474.8448104,90.9638454 L475.9615952,90.8025824 L477.07838,90.6413194 L478.1951648,90.4961827 L479.3119496,90.351046 L480.4287344,90.2220356 L481.5455192,90.0930252 L482.662304,89.9801411 L483.7790888,89.867257 L484.8958736,89.7704992 L486.0126584,89.6737414 L487.1294432,89.5931099 L488.246228,89.5124784 L489.3630128,89.4479732 L490.4797976,89.383468 L491.5965824,89.3350891 L492.7133672,89.3028365 L493.830152,89.2544576 L494.9469368,89.2383313 L496.0637216,89.222205 L497.1805064,89.2060787 L498.2972912,89.2060787 L499.414076,89.2060787 L500.5308608,89.222205 L501.6476456,89.2383313 L502.7644304,89.2705839 L503.8812152,89.3028365 L504.998,89.3512154 L506.1147848,89.4157206 L507.2315696,89.4802258 L508.3483544,89.544731 L509.4651392,89.6253625 L510.581924,89.705994 L511.6987088,89.8027518 L512.8154936,89.8995096 L513.9322784,90.0123937 L515.0490632,90.1414041 L516.165848,90.2704145 L517.2826328,90.3994249 L518.3994176,90.5445616 L519.5162024,90.7058246 L520.6329872,90.8670876 L521.749772,91.0283506 L522.8665568,91.2057399 L523.9833416,91.3992555 L525.1001264,91.5927711 L526.2169112,91.802413 L527.333696,92.0120549 L528.4504808,92.2378231 L529.5672656,92.4635913 L530.6840504,92.7054858 L531.8008352,92.9473803 L532.91762,93.2054011 L534.0344048,93.4795482 L535.1511896,93.7536953 L536.2679744,94.0278424 L537.3847592,94.3342421 L538.501544,94.6406418 L539.6183288,94.9470415 L540.7351136,95.2695675 L541.8518984,95.6082198 L542.9686832,95.9468721 L544.085468,96.3016507 L545.2022528,96.6564293 L546.3190376,97.0434605 L547.4358224,97.4143654 L548.5526072,97.8175229 L549.669392,98.2206804 L550.7861768,98.6238379 L551.9029616,99.059248 L553.0197464,99.4946581 L554.1365312,99.9461945 L555.253316,100.3977309 L556.3701008,100.8653936 L557.4868856,101.3491826 L558.6036704,101.8490979 L559.7204552,102.3490132 L560.83724,102.8650548 L561.9540248,103.3972227 L563.0708096,103.9455169 L564.1875944,104.4938111 L565.3043792,105.0582316 L566.421164,105.6387784 L567.5379488,106.2354515 L568.6547336,106.8482509 L569.7715184,107.4610503 L570.8883032,108.089976 L572.005088,108.7511543 L573.1218728,109.4123326 L574.2386576,110.0896372 L575.3554424,110.7830681 L576.4722272,111.4926253 L577.589012,112.2183088 L578.7057968,112.9601186 L579.8225816,113.7180547 L580.9393664,114.4921171 L582.0561512,115.2823058 L583.172936,116.1047471 L584.2897208,116.9271884 L585.4065056,117.7818823 L586.5232904,118.6527025 L587.6400752,119.5235227 L588.75686,120.4427218 L589.8736448,121.3619209 L590.9904296,122.3133726 L592.1072144,123.2809506 L593.2239992,124.2807812 L594.340784,125.2967381 L595.4575688,126.3449476 L596.5743536,127.4092834 L597.6911384,128.4897455 L598.8079232,129.6185865 L599.924708,130.7635538 L601.0414928,131.9246474 L602.1582776,133.1341199 L603.2750624,134.3597187 L604.3918472,135.6336964 L605.508632,136.9238004 L606.6254168,138.2622833 L607.7422016,139.6168925 L608.8589864,141.0198806 L609.9757712,142.4712476 L611.092556,143.9548672 L612.2093408,145.4707394 L613.3261256,147.0349905 L614.4429104,148.6476205 L615.5596952,150.3086294 L616.67648,152.0180172 L617.7932648,153.7757839 L618.9100496,155.5980558 L620.0268344,157.4848329 L621.1436192,159.4199889 L622.260404,161.4196501 L623.3771888,163.4999428 L624.4939736,165.6447407 L625.6107584,167.8701701 L626.7275432,170.1923573 L627.844328,172.595176 L628.9611128,175.0947525 L630.0778976,177.6910868 L631.1946824,180.4164315 L632.3114672,183.2546603 L633.428252,186.2218995 L634.5450368,189.3342754 L635.6618216,192.6079143 L636.7786064,196.0428162 L637.8953912,199.6712337 L639.012176,203.5254194 L640.1289608,207.6053733 L641.2457456,211.9594743 L642.3625304,216.619975 L643.4793152,221.619128 L644.5961,227.0214385 " fill-rule="evenodd" vector-effect="non-scaling-stroke"/>
                        </g>
                    </g>
                </g>
                <g id="PlotDataItem_5">
                    <g fill="none" fill-rule="evenodd" id="PlotCurveItem_5" stroke="black" stroke-linecap="square" stroke-linejoin="bevel" stroke-width="1">
                        <g fill="none" font-family="MS Shell Dlg 2" font-size="11" font-style="normal" font-weight="400" stroke="#ff2e70" stroke-linecap="square" stroke-linejoin="bevel" stroke-opacity="1" stroke-width="1">
                            <path d="M86.2037000931,189.0278757 L87.3204848,183.3836707 L88.4372696,178.1587495 L89.5540544,173.3208595 L90.6708392,168.8054955 L91.787624,164.5642786 L92.9044088,160.5810825 L94.0211936,156.8236546 L95.1379784,153.2597423 L96.2547632,149.8893456 L97.371548,146.6802119 L98.4883328,143.6162149 L99.6051176,140.6973546 L100.7219024,137.9075047 L101.8386872,135.2305389 L102.955472,132.6664572 L104.0722568,130.183007 L105.1890416,127.8124409 L106.3058264,125.5225063 L107.4226112,123.3293295 L108.539396,121.1845316 L109.6561808,119.1364915 L110.7729656,117.1529566 L111.8897504,115.2178006 L113.0065352,113.3632761 L114.12332,111.5571305 L115.2401048,109.7993638 L116.3568896,108.089976 L117.4736744,106.4450934 L118.5904592,104.8324634 L119.707244,103.2843386 L120.8240288,101.7684664 L121.9408136,100.2848468 L123.0575984,98.8496061 L124.1743832,97.446618 L125.291168,96.0920088 L126.4079528,94.7696522 L127.5247376,93.4634219 L128.6415224,92.2055705 L129.7583072,90.9799717 L130.875092,89.7704992 L131.9918768,88.6094056 L133.1086616,87.4644383 L134.2254464,86.3355973 L135.3422312,85.2551352 L136.459016,84.1907994 L137.5758008,83.1425899 L138.6925856,82.126633 L139.8093704,81.1429287 L140.9261552,80.1592244 L142.04294,79.2077727 L143.1597248,78.2885736 L144.2765096,77.3855008 L145.3932944,76.4985543 L146.5100792,75.6277341 L147.626864,74.7730402 L148.7436488,73.9505989 L149.8604336,73.1281576 L150.9772184,72.3379689 L152.0940032,71.5639065 L153.210788,70.8059704 L154.3275728,70.0641606 L155.4443576,69.3384771 L156.5611424,68.6289199 L157.6779272,67.935489 L158.794712,67.2581844 L159.9114968,66.5808798 L161.0282816,65.9358278 L162.1450664,65.3069021 L163.2618512,64.6779764 L164.378636,64.065177 L165.4954208,63.4685039 L166.6122056,62.8879571 L167.7289904,62.3235366 L168.8457752,61.7752424 L169.96256,61.2269482 L171.0793448,60.6947803 L172.1961296,60.1787387 L173.3129144,59.6788234 L174.4296992,59.1789081 L175.546484,58.7112454 L176.6632688,58.2435827 L177.7800536,57.77592 L178.8968384,57.3243836 L180.0136232,56.8889735 L181.130408,56.4696897 L182.2471928,56.0504059 L183.3639776,55.6633747 L184.4807624,55.2602172 L185.5975472,54.8893123 L186.714332,54.5184074 L187.8311168,54.1475025 L188.9479016,53.7927239 L190.0646864,53.4540716 L191.1814712,53.1315456 L192.298256,52.8090196 L193.4150408,52.5026199 L194.5318256,52.1962202 L195.6486104,51.9059468 L196.7653952,51.6156734 L197.88218,51.3415263 L198.9989648,51.0835055 L200.1157496,50.8254847 L201.2325344,50.5835902 L202.3493192,50.3416957 L203.466104,50.1159275 L204.5828888,49.9062856 L205.6996736,49.6966437 L206.8164584,49.5031281 L207.9332432,49.3096125 L209.050028,49.1160969 L210.1668128,48.9548339 L211.2835976,48.7774446 L212.4003824,48.6323079 L213.5171672,48.4871712 L214.633952,48.3420345 L215.7507368,48.2130241 L216.8675216,48.0840137 L217.9843064,47.9711296 L219.1010912,47.8743718 L220.217876,47.777614 L221.3346608,47.6808562 L222.4514456,47.616351 L223.5682304,47.5357195 L224.6850152,47.4712143 L225.8018,47.4228354 L226.9185848,47.3744565 L228.0353696,47.3422039 L229.1521544,47.3099513 L230.2689392,47.293825 L231.385724,47.2776987 L232.5025088,47.2615724 L233.6192936,47.2776987 L234.7360784,47.2776987 L235.8528632,47.3099513 L236.969648,47.3260776 L238.0864328,47.3744565 L239.2032176,47.4228354 L240.3200024,47.4712143 L241.4367872,47.5357195 L242.553572,47.6002247 L243.6703568,47.6808562 L244.7871416,47.7614877 L245.9039264,47.8582455 L247.0207112,47.9711296 L248.137496,48.0840137 L249.2542808,48.1968978 L250.3710656,48.3259082 L251.4878504,48.4710449 L252.6046352,48.6161816 L253.72142,48.7774446 L254.8382048,48.9387076 L255.9549896,49.0999706 L257.0717744,49.2934862 L258.1885592,49.4708755 L259.305344,49.6805174 L260.4221288,49.8901593 L261.5389136,50.0998012 L262.6556984,50.3255694 L263.7724832,50.5674639 L264.889268,50.8093584 L266.0060528,51.0673792 L267.1228376,51.3254 L268.2396224,51.5995471 L269.3564072,51.8736942 L270.473192,52.1639676 L271.5899768,52.4703673 L272.7067616,52.776767 L273.8235464,53.099293 L274.9403312,53.421819 L276.057116,53.7604713 L277.1739008,54.1152499 L278.2906856,54.4700285 L279.4074704,54.8409334 L280.5242552,55.2279646 L281.64104,55.6149958 L282.7578248,56.0181533 L283.8746096,56.4374371 L284.9913944,56.8567209 L286.1081792,57.292131 L287.224964,57.7275411 L288.3417488,58.1952038 L289.4585336,58.6628665 L290.5753184,59.1466555 L291.6921032,59.6304445 L292.808888,60.1303598 L293.9256728,60.6464014 L295.0424576,61.1785693 L296.1592424,61.7107372 L297.2760272,62.2751577 L298.392812,62.8395782 L299.5095968,63.420125 L300.6263816,64.0006718 L301.7431664,64.6134712 L302.8599512,65.2262706 L303.976736,65.8713226 L305.0935208,66.5163746 L306.2103056,67.1775529 L307.3270904,67.8548575 L308.4438752,68.5482884 L309.56066,69.2578456 L310.6774448,69.9835291 L311.7942296,70.7253389 L312.9110144,71.483275 L314.0277992,72.2573374 L315.144584,73.0475261 L316.2613688,73.8538411 L317.3781536,74.6762824 L318.4949384,75.5309763 L319.6117232,76.3856702 L320.728508,77.2726167 L321.8452928,78.1756895 L322.9620776,79.1110149 L324.0788624,80.0463403 L325.1956472,81.0139183 L326.312432,82.0137489 L327.4292168,83.0297058 L328.5460016,84.061789 L329.6627864,85.1261248 L330.7795712,86.2065869 L331.896356,87.3193016 L333.0131408,88.4642689 L334.1299256,89.6253625 L335.2467104,90.8187087 L336.3634952,92.0443075 L337.48028,93.3021589 L338.5970648,94.5922629 L339.7138496,95.9146195 L340.8306344,97.2692287 L341.9474192,98.6560905 L343.064204,100.0913312 L344.1809888,101.5588245 L345.2977736,103.0746967 L346.4145584,104.6228215 L347.5313432,106.2193252 L348.648128,107.8642078 L349.7649128,109.5574693 L350.8816976,111.2991097 L351.9984824,113.089129 L353.1152672,114.9436535 L354.232052,116.8626832 L355.3488368,118.8300918 L356.4656216,120.8781319 L357.5824064,122.9906772 L358.6991912,125.183854 L359.815976,127.4576623 L360.9327608,129.8121021 L362.0495456,132.2632997 L363.1663304,134.8112551 L364.2831152,137.4720946 L365.3999,140.2458182 L366.5166848,137.4720946 L367.6334696,134.8112551 L368.7502544,132.2632997 L369.8670392,129.8121021 L370.983824,127.4576623 L372.1006088,125.183854 L373.2173936,122.9906772 L374.3341784,120.8781319 L375.4509632,118.8300918 L376.567748,116.8626832 L377.6845328,114.9436535 L378.8013176,113.089129 L379.9181024,111.2991097 L381.0348872,109.5574693 L382.151672,107.8642078 L383.2684568,106.2193252 L384.3852416,104.6228215 L385.5020264,103.0746967 L386.6188112,101.5588245 L387.735596,100.0913312 L388.8523808,98.6560905 L389.9691656,97.2692287 L391.0859504,95.9146195 L392.2027352,94.5922629 L393.31952,93.3021589 L394.4363048,92.0443075 L395.5530896,90.8187087 L396.6698744,89.6253625 L397.7866592,88.4642689 L398.903444,87.3193016 L400.0202288,86.2065869 L401.1370136,85.1261248 L402.2537984,84.061789 L403.3705832,83.0297058 L404.487368,82.0137489 L405.6041528,81.0139183 L406.7209376,80.0463403 L407.8377224,79.1110149 L408.9545072,78.1756895 L410.071292,77.2726167 L411.1880768,76.3856702 L412.3048616,75.5309763 L413.4216464,74.6762824 L414.5384312,73.8538411 L415.655216,73.0475261 L416.7720008,72.2573374 L417.8887856,71.483275 L419.0055704,70.7253389 L420.1223552,69.9835291 L421.23914,69.2578456 L422.3559248,68.5482884 L423.4727096,67.8548575 L424.5894944,67.1775529 L425.7062792,66.5163746 L426.823064,65.8713226 L427.9398488,65.2262706 L429.0566336,64.6134712 L430.1734184,64.0006718 L431.2902032,63.420125 L432.406988,62.8395782 L433.5237728,62.2751577 L434.6405576,61.7107372 L435.7573424,61.1785693 L436.8741272,60.6464014 L437.990912,60.1303598 L439.1076968,59.6304445 L440.2244816,59.1466555 L441.3412664,58.6628665 L442.4580512,58.1952038 L443.574836,57.7275411 L444.6916208,57.292131 L445.8084056,56.8567209 L446.9251904,56.4374371 L448.0419752,56.0181533 L449.15876,55.6149958 L450.2755448,55.2279646 L451.3923296,54.8409334 L452.5091144,54.4700285 L453.6258992,54.1152499 L454.742684,53.7604713 L455.8594688,53.421819 L456.9762536,53.099293 L458.0930384,52.776767 L459.2098232,52.4703673 L460.326608,52.1639676 L461.4433928,51.8736942 L462.5601776,51.5995471 L463.6769624,51.3254 L464.7937472,51.0673792 L465.910532,50.8093584 L467.0273168,50.5674639 L468.1441016,50.3255694 L469.2608864,50.0998012 L470.3776712,49.8901593 L471.494456,49.6805174 L472.6112408,49.4708755 L473.7280256,49.2934862 L474.8448104,49.0999706 L475.9615952,48.9387076 L477.07838,48.7774446 L478.1951648,48.6161816 L479.3119496,48.4710449 L480.4287344,48.3259082 L481.5455192,48.1968978 L482.662304,48.0840137 L483.7790888,47.9711296 L484.8958736,47.8582455 L486.0126584,47.7614877 L487.1294432,47.6808562 L488.246228,47.6002247 L489.3630128,47.5357195 L490.4797976,47.4712143 L491.5965824,47.4228354 L492.7133672,47.3744565 L493.830152,47.3260776 L494.9469368,47.3099513 L496.0637216,47.2776987 L497.1805064,47.2776987 L498.2972912,47.2615724 L499.414076,47.2776987 L500.5308608,47.293825 L501.6476456,47.3099513 L502.7644304,47.3422039 L503.8812152,47.3744565 L504.998,47.4228354 L506.1147848,47.4712143 L507.2315696,47.5357195 L508.3483544,47.616351 L509.4651392,47.6808562 L510.581924,47.777614 L511.6987088,47.8743718 L512.8154936,47.9711296 L513.9322784,48.0840137 L515.0490632,48.2130241 L516.165848,48.3420345 L517.2826328,48.4871712 L518.3994176,48.6323079 L519.5162024,48.7774446 L520.6329872,48.9548339 L521.749772,49.1160969 L522.8665568,49.3096125 L523.9833416,49.5031281 L525.1001264,49.6966437 L526.2169112,49.9062856 L527.333696,50.1159275 L528.4504808,50.3416957 L529.5672656,50.5835902 L530.6840504,50.8254847 L531.8008352,51.0835055 L532.91762,51.3415263 L534.0344048,51.6156734 L535.1511896,51.9059468 L536.2679744,52.1962202 L537.3847592,52.5026199 L538.501544,52.8090196 L539.6183288,53.1315456 L540.7351136,53.4540716 L541.8518984,53.7927239 L542.9686832,54.1475025 L544.085468,54.5184074 L545.2022528,54.8893123 L546.3190376,55.2602172 L547.4358224,55.6633747 L548.5526072,56.0504059 L549.669392,56.4696897 L550.7861768,56.8889735 L551.9029616,57.3243836 L553.0197464,57.77592 L554.1365312,58.2435827 L555.253316,58.7112454 L556.3701008,59.1789081 L557.4868856,59.6788234 L558.6036704,60.1787387 L559.7204552,60.6947803 L560.83724,61.2269482 L561.9540248,61.7752424 L563.0708096,62.3235366 L564.1875944,62.8879571 L565.3043792,63.4685039 L566.421164,64.065177 L567.5379488,64.6779764 L568.6547336,65.3069021 L569.7715184,65.9358278 L570.8883032,66.5808798 L572.005088,67.2581844 L573.1218728,67.935489 L574.2386576,68.6289199 L575.3554424,69.3384771 L576.4722272,70.0641606 L577.589012,70.8059704 L578.7057968,71.5639065 L579.8225816,72.3379689 L580.9393664,73.1281576 L582.0561512,73.9505989 L583.172936,74.7730402 L584.2897208,75.6277341 L585.4065056,76.4985543 L586.5232904,77.3855008 L587.6400752,78.2885736 L588.75686,79.2077727 L589.8736448,80.1592244 L590.9904296,81.1429287 L592.1072144,82.126633 L593.2239992,83.1425899 L594.340784,84.1907994 L595.4575688,85.2551352 L596.5743536,86.3355973 L597.6911384,87.4644383 L598.8079232,88.6094056 L599.924708,89.7704992 L601.0414928,90.9799717 L602.1582776,92.2055705 L603.2750624,93.4634219 L604.3918472,94.7696522 L605.508632,96.0920088 L606.6254168,97.446618 L607.7422016,98.8496061 L608.8589864,100.2848468 L609.9757712,101.7684664 L611.092556,103.2843386 L612.2093408,104.8324634 L613.3261256,106.4450934 L614.4429104,108.089976 L615.5596952,109.7993638 L616.67648,111.5571305 L617.7932648,113.3632761 L618.9100496,115.2178006 L620.0268344,117.1529566 L621.1436192,119.1364915 L622.260404,121.1845316 L623.3771888,123.3293295 L624.4939736,125.5225063 L625.6107584,127.8124409 L626.7275432,130.183007 L627.844328,132.6664572 L628.9611128,135.2305389 L630.0778976,137.9075047 L631.1946824,140.6973546 L632.3114672,143.6162149 L633.428252,146.6802119 L634.5450368,149.8893456 L635.6618216,153.2597423 L636.7786064,156.8236546 L637.8953912,160.5810825 L639.012176,164.5642786 L640.1289608,168.8054955 L641.2457456,173.3208595 L642.3625304,178.1587495 L643.4793152,183.3836707 L644.5961,189.0278757 " fill-rule="evenodd" vector-effect="non-scaling-stroke"/>
                        </g>
                    </g>
                </g>
            </g>
            <g fill="none" fill-rule="evenodd" id="LegendItem_1" stroke="black" stroke-linecap="square" stroke-linejoin="bevel" stroke-width="1">
                <g fill="#646464" fill-opacity="0.196078" font-family="MS Shell Dlg 2" font-size="11" font-style="normal" font-weight="400" stroke="#ffffff" stroke-linecap="square" stroke-linejoin="bevel" stroke-opacity="0.392157" stroke-width="1">
                    <path d="M92.8,61.0 L167.8,61.0 L167.8,208.0 L92.8,208.0 L92.8,61.0 " fill-rule="evenodd" vector-effect="non-scaling-stroke"/>
                </g>
                <g fill="none" fill-rule="evenodd" id="ItemSample_1" stroke="black" stroke-linecap="square" stroke-linejoin="bevel" stroke-width="1">
                    <g fill="none" font-family="MS Shell Dlg 2" font-size="11" font-style="normal" font-weight="400" stroke="#ed815e" stroke-linecap="square" stroke-linejoin="bevel" stroke-opacity="1" stroke-width="1">
                        <polyline fill="none" points="103.8,88.0 119.8,72.0" vector-effect="non-scaling-stroke"/>
                    </g>
                </g>
                <g fill="none" fill-rule="evenodd" id="LabelItem_1" stroke="black" stroke-linecap="square" stroke-linejoin="bevel" stroke-width="1">
                    <g fill="none" fill-rule="evenodd" id="QGraphicsTextItem_3" stroke="black" stroke-linecap="square" stroke-linejoin="bevel" stroke-width="1">
                        


                        


                        <g fill="none" font-family="MS Shell Dlg 2" font-size="11" font-style="normal" font-weight="400" stroke="#969696" stroke-linecap="square" stroke-linejoin="bevel" stroke-opacity="1" stroke-width="1" transform="matrix(1,0,0,1,112.8,70)">
                            <text fill="#969696" fill-opacity="1" font-family="&quot;MS Shell Dlg 2&quot;, sans-serif" font-size="11" font-style="normal" font-weight="400" stroke="none" x="4" xml:space="preserve" y="15">1e-06 A</text>
                        </g>
                        


                        

                    </g>
                </g>
                <g fill="none" fill-rule="evenodd" id="ItemSample_2" stroke="black" stroke-linecap="square" stroke-linejoin="bevel" stroke-width="1">
                    <g fill="none" font-family="MS Shell Dlg 2" font-size="11" font-style="normal" font-weight="400" stroke="#c7b069" stroke-linecap="square" stroke-linejoin="bevel" stroke-opacity="1" stroke-width="1">
                        <polyline fill="none" points="103.8,115.0 119.8,99.0" vector-effect="non-scaling-stroke"/>
                    </g>
                </g>
                <g fill="none" fill-rule="evenodd" id="LabelItem_2" stroke="black" stroke-linecap="square" stroke-linejoin="bevel" stroke-width="1">
                    <g fill="none" fill-rule="evenodd" id="QGraphicsTextItem_4" stroke="black" stroke-linecap="square" stroke-linejoin="bevel" stroke-width="1">
                        


                        


                        <g fill="none" font-family="MS Shell Dlg 2" font-size="11" font-style="normal" font-weight="400" stroke="#969696" stroke-linecap="square" stroke-linejoin="bevel" stroke-opacity="1" stroke-width="1" transform="matrix(1,0,0,1,115.8,97)">
                            <text fill="#969696" fill-opacity="1" font-family="&quot;MS Shell Dlg 2&quot;, sans-serif" font-size="11" font-style="normal" font-weight="400" stroke="none" x="4" xml:space="preserve" y="15">10.8 A</text>
                        </g>
                        


                        

                    </g>
                </g>
                <g fill="none" fill-rule="evenodd" id="ItemSample_3" stroke="black" stroke-linecap="square" stroke-linejoin="bevel" stroke-width="1">
                    <g fill="none" font-family="MS Shell Dlg 2" font-size="11" font-style="normal" font-weight="400" stroke="#7ea695" stroke-linecap="square" stroke-linejoin="bevel" stroke-opacity="1" stroke-width="1">
                        <polyline fill="none" points="103.8,142.0 119.8,126.0" vector-effect="non-scaling-stroke"/>
                    </g>
                </g>
                <g fill="none" fill-rule="evenodd" id="LabelItem_3" stroke="black" stroke-linecap="square" stroke-linejoin="bevel" stroke-width="1">
                    <g fill="none" fill-rule="evenodd" id="QGraphicsTextItem_5" stroke="black" stroke-linecap="square" stroke-linejoin="bevel" stroke-width="1">
                        


                        


                        <g fill="none" font-family="MS Shell Dlg 2" font-size="11" font-style="normal" font-weight="400" stroke="#969696" stroke-linecap="square" stroke-linejoin="bevel" stroke-opacity="1" stroke-width="1" transform="matrix(1,0,0,1,115.8,124)">
                            <text fill="#969696" fill-opacity="1" font-family="&quot;MS Shell Dlg 2&quot;, sans-serif" font-size="11" font-style="normal" font-weight="400" stroke="none" x="4" xml:space="preserve" y="15">25.5 A</text>
                        </g>
                        


                        

                    </g>
                </g>
                <g fill="none" fill-rule="evenodd" id="ItemSample_4" stroke="black" stroke-linecap="square" stroke-linejoin="bevel" stroke-width="1">
                    <g fill="none" font-family="MS Shell Dlg 2" font-size="11" font-style="normal" font-weight="400" stroke="#8a7c91" stroke-linecap="square" stroke-linejoin="bevel" stroke-opacity="1" stroke-width="1">
                        <polyline fill="none" points="103.8,169.0 119.8,153.0" vector-effect="non-scaling-stroke"/>
                    </g>
                </g>
                <g fill="none" fill-rule="evenodd" id="LabelItem_4" stroke="black" stroke-linecap="square" stroke-linejoin="bevel" stroke-width="1">
                    <g fill="none" fill-rule="evenodd" id="QGraphicsTextItem_6" stroke="black" stroke-linecap="square" stroke-linejoin="bevel" stroke-width="1">
                        


                        


                        <g fill="none" font-family="MS Shell Dlg 2" font-size="11" font-style="normal" font-weight="400" stroke="#969696" stroke-linecap="square" stroke-linejoin="bevel" stroke-opacity="1" stroke-width="1" transform="matrix(1,0,0,1,115.8,151)">
                            <text fill="#969696" fill-opacity="1" font-family="&quot;MS Shell Dlg 2&quot;, sans-serif" font-size="11" font-style="normal" font-weight="400" stroke="none" x="4" xml:space="preserve" y="15">40.2 A</text>
                        </g>
                        


                        

                    </g>
                </g>
                <g fill="none" fill-rule="evenodd" id="ItemSample_5" stroke="black" stroke-linecap="square" stroke-linejoin="bevel" stroke-width="1">
                    <g fill="none" font-family="MS Shell Dlg 2" font-size="11" font-style="normal" font-weight="400" stroke="#ff2e70" stroke-linecap="square" stroke-linejoin="bevel" stroke-opacity="1" stroke-width="1">
                        <polyline fill="none" points="103.8,196.0 119.8,180.0" vector-effect="non-scaling-stroke"/>
                    </g>
                </g>
                <g fill="none" fill-rule="evenodd" id="LabelItem_5" stroke="black" stroke-linecap="square" stroke-linejoin="bevel" stroke-width="1">
                    <g fill="none" fill-rule="evenodd" id="QGraphicsTextItem_7" stroke="black" stroke-linecap="square" stroke-linejoin="bevel" stroke-width="1">
                        


                        


                        <g fill="none" font-family="MS Shell Dlg 2" font-size="11" font-style="normal" font-weight="400" stroke="#969696" stroke-linecap="square" stroke-linejoin="bevel" stroke-opacity="1" stroke-width="1" transform="matrix(1,0,0,1,112.8,178)">
                            <text fill="#969696" fill-opacity="1" font-family="&quot;MS Shell Dlg 2&quot;, sans-serif" font-size="11" font-style="normal" font-weight="400" stroke="none" x="4" xml:space="preserve" y="15">42.65 A</text>
                        </g>
                        


                        

                    </g>
                </g>
            </g>
        </g>
    </g>
    <g fill="none" fill-rule="evenodd" id="LabelItem_6" stroke="black" stroke-linecap="square" stroke-linejoin="bevel" stroke-width="1">
        <g fill="none" fill-rule="evenodd" id="QGraphicsTextItem_8" stroke="black" stroke-linecap="square" stroke-linejoin="bevel" stroke-width="1">
            


            


            <g fill="none" font-family="MS Shell Dlg 2" font-size="11" font-style="normal" font-weight="400" stroke="#969696" stroke-linecap="square" stroke-linejoin="bevel" stroke-opacity="1" stroke-width="1" transform="matrix(1,0,0,1,248.4,3)">
                <text fill="#969696" fill-opacity="1" font-family="&quot;MS Shell Dlg 2&quot;, sans-serif" font-size="14.6667" font-style="normal" font-weight="400" stroke="none" x="4" xml:space="preserve" y="19">Density profile at different currents</text>
            </g>
            


            

        </g>
    </g>
</g>

</svg>
