<?xml version="1.0" encoding="UTF-8" standalone="no"?>
<svg xmlns="http://www.w3.org/2000/svg" xmlns:xlink="http://www.w3.org/1999/xlink"  version="1.2" baseProfile="tiny">
<title>pyqtgraph SVG export</title>
<desc>Generated with Qt and pyqtgraph</desc>
<defs>
</defs>
<g fill="none" fill-rule="evenodd" id="PlotItem_1" stroke="black" stroke-linecap="square" stroke-linejoin="bevel" stroke-width="1">
    <g fill="none" fill-rule="evenodd" id="AxisItem_1" stroke="black" stroke-linecap="square" stroke-linejoin="bevel" stroke-width="1">
        <g fill="none" font-family="MS Shell Dlg 2" font-size="11" font-style="normal" font-weight="400" stroke="#969696" stroke-linecap="square" stroke-linejoin="bevel" stroke-opacity="1" stroke-width="1">
            <polyline fill="none" points="62.8,320.2 668.0,320.2" vector-effect="non-scaling-stroke"/>
        </g>
        <g fill="none" font-family="MS Shell Dlg 2" font-size="11" font-style="normal" font-weight="400" stroke="#969696" stroke-linecap="square" stroke-linejoin="bevel" stroke-opacity="0.498039" stroke-width="1">
            <polyline fill="none" points="87.0288,31.0 87.0288,320.2" vector-effect="non-scaling-stroke"/>
        </g>
        <g fill="none" font-family="MS Shell Dlg 2" font-size="11" font-style="normal" font-weight="400" stroke="#969696" stroke-linecap="square" stroke-linejoin="bevel" stroke-opacity="0.247059" stroke-width="1">
            <polyline fill="none" points="272.943,31.0 272.943,320.2" vector-effect="non-scaling-stroke"/>
            <polyline fill="none" points="458.857,31.0 458.857,320.2" vector-effect="non-scaling-stroke"/>
            <polyline fill="none" points="644.771,31.0 644.771,320.2" vector-effect="non-scaling-stroke"/>
        </g>
        <g fill="none" font-family="MS Shell Dlg 2" font-size="11" font-style="normal" font-weight="400" stroke="#969696" stroke-linecap="square" stroke-linejoin="bevel" stroke-opacity="0.164706" stroke-width="1">
            <polyline fill="none" points="179.986,31.0 179.986,320.2" vector-effect="non-scaling-stroke"/>
            <polyline fill="none" points="365.9,31.0 365.9,320.2" vector-effect="non-scaling-stroke"/>
            <polyline fill="none" points="551.814,31.0 551.814,320.2" vector-effect="non-scaling-stroke"/>
        </g>
        <g fill="none" font-family="MS Shell Dlg 2" font-size="11" font-style="normal" font-weight="400" stroke="#969696" stroke-linecap="square" stroke-linejoin="bevel" stroke-opacity="1" stroke-width="1" transform="matrix(1,0,0,1,63.3,320.2)">
            <text fill="#969696" fill-opacity="1" font-family="&quot;MS Shell Dlg 2&quot;, sans-serif" font-size="11" font-style="normal" font-weight="400" stroke="none" x="20.7188" xml:space="preserve" y="12">0</text>
            <text fill="#969696" fill-opacity="1" font-family="&quot;MS Shell Dlg 2&quot;, sans-serif" font-size="11" font-style="normal" font-weight="400" stroke="none" x="206.641" xml:space="preserve" y="12">2</text>
            <text fill="#969696" fill-opacity="1" font-family="&quot;MS Shell Dlg 2&quot;, sans-serif" font-size="11" font-style="normal" font-weight="400" stroke="none" x="392.547" xml:space="preserve" y="12">4</text>
            <text fill="#969696" fill-opacity="1" font-family="&quot;MS Shell Dlg 2&quot;, sans-serif" font-size="11" font-style="normal" font-weight="400" stroke="none" x="578.469" xml:space="preserve" y="12">6</text>
            <text fill="#969696" fill-opacity="1" font-family="&quot;MS Shell Dlg 2&quot;, sans-serif" font-size="11" font-style="normal" font-weight="400" stroke="none" x="113.672" xml:space="preserve" y="12">1</text>
            <text fill="#969696" fill-opacity="1" font-family="&quot;MS Shell Dlg 2&quot;, sans-serif" font-size="11" font-style="normal" font-weight="400" stroke="none" x="299.594" xml:space="preserve" y="12">3</text>
            <text fill="#969696" fill-opacity="1" font-family="&quot;MS Shell Dlg 2&quot;, sans-serif" font-size="11" font-style="normal" font-weight="400" stroke="none" x="485.5" xml:space="preserve" y="12">5</text>
        </g>
        <g fill="none" fill-rule="evenodd" id="QGraphicsTextItem_1" stroke="black" stroke-linecap="square" stroke-linejoin="bevel" stroke-width="1">
            


            


            <g fill="none" font-family="MS Shell Dlg 2" font-size="11" font-style="normal" font-weight="400" stroke="#ffffff" stroke-linecap="square" stroke-linejoin="bevel" stroke-opacity="1" stroke-width="1" transform="matrix(1,0,0,1,256.8,338.2)">
                <text fill="#ffffff" fill-opacity="1" font-family="&quot;MS Shell Dlg 2&quot;, sans-serif" font-size="18.6667" font-style="normal" font-weight="400" stroke="none" x="4" xml:space="preserve" y="23">Axis along beam line (m)</text>
            </g>
            


            

        </g>
    </g>
    <g fill="none" fill-rule="evenodd" id="AxisItem_2" stroke="black" stroke-linecap="square" stroke-linejoin="bevel" stroke-width="1">
        <g fill="none" font-family="MS Shell Dlg 2" font-size="11" font-style="normal" font-weight="400" stroke="#969696" stroke-linecap="square" stroke-linejoin="bevel" stroke-opacity="1" stroke-width="1">
            <polyline fill="none" points="62.8,31.0 62.8,320.2" vector-effect="non-scaling-stroke"/>
        </g>
        <g fill="none" font-family="MS Shell Dlg 2" font-size="11" font-style="normal" font-weight="400" stroke="#969696" stroke-linecap="square" stroke-linejoin="bevel" stroke-opacity="0.498039" stroke-width="1">
            <polyline fill="none" points="668.5,228.938 63.3,228.938" vector-effect="non-scaling-stroke"/>
        </g>
        <g fill="none" font-family="MS Shell Dlg 2" font-size="11" font-style="normal" font-weight="400" stroke="#969696" stroke-linecap="square" stroke-linejoin="bevel" stroke-opacity="0.247059" stroke-width="1">
            <polyline fill="none" points="668.5,136.064 63.3,136.064" vector-effect="non-scaling-stroke"/>
            <polyline fill="none" points="668.5,43.1897 63.3,43.1897" vector-effect="non-scaling-stroke"/>
        </g>
        <g fill="none" font-family="MS Shell Dlg 2" font-size="11" font-style="normal" font-weight="400" stroke="#969696" stroke-linecap="square" stroke-linejoin="bevel" stroke-opacity="0.164706" stroke-width="1">
            <polyline fill="none" points="668.5,275.375 63.3,275.375" vector-effect="non-scaling-stroke"/>
            <polyline fill="none" points="668.5,182.501 63.3,182.501" vector-effect="non-scaling-stroke"/>
            <polyline fill="none" points="668.5,89.6267 63.3,89.6267" vector-effect="non-scaling-stroke"/>
        </g>
        <g fill="none" font-family="MS Shell Dlg 2" font-size="11" font-style="normal" font-weight="400" stroke="#969696" stroke-linecap="square" stroke-linejoin="bevel" stroke-opacity="1" stroke-width="1" transform="matrix(1,0,0,1,1.5,31)">
            <text fill="#969696" fill-opacity="1" font-family="&quot;MS Shell Dlg 2&quot;, sans-serif" font-size="11" font-style="normal" font-weight="400" stroke="none" x="24.7969" xml:space="preserve" y="202.734">1e+10</text>
            <text fill="#969696" fill-opacity="1" font-family="&quot;MS Shell Dlg 2&quot;, sans-serif" font-size="11" font-style="normal" font-weight="400" stroke="none" x="24.7969" xml:space="preserve" y="109.859">1e+12</text>
            <text fill="#969696" fill-opacity="1" font-family="&quot;MS Shell Dlg 2&quot;, sans-serif" font-size="11" font-style="normal" font-weight="400" stroke="none" x="24.7969" xml:space="preserve" y="16.9844">1e+14</text>
            <text fill="#969696" fill-opacity="1" font-family="&quot;MS Shell Dlg 2&quot;, sans-serif" font-size="11" font-style="normal" font-weight="400" stroke="none" x="24.7969" xml:space="preserve" y="249.172">1e+09</text>
            <text fill="#969696" fill-opacity="1" font-family="&quot;MS Shell Dlg 2&quot;, sans-serif" font-size="11" font-style="normal" font-weight="400" stroke="none" x="24.7969" xml:space="preserve" y="156.297">1e+11</text>
            <text fill="#969696" fill-opacity="1" font-family="&quot;MS Shell Dlg 2&quot;, sans-serif" font-size="11" font-style="normal" font-weight="400" stroke="none" x="24.7969" xml:space="preserve" y="63.4219">1e+13</text>
        </g>
        <g fill="none" fill-rule="evenodd" id="QGraphicsTextItem_2" stroke="black" stroke-linecap="square" stroke-linejoin="bevel" stroke-width="1">
            


            


            <g fill="none" font-family="MS Shell Dlg 2" font-size="11" font-style="normal" font-weight="400" stroke="#ffffff" stroke-linecap="square" stroke-linejoin="bevel" stroke-opacity="1" stroke-width="1" transform="matrix(0,-1,1,0,-4,287)">
                <text fill="#ffffff" fill-opacity="1" font-family="&quot;MS Shell Dlg 2&quot;, sans-serif" font-size="18.6667" font-style="normal" font-weight="400" stroke="none" x="4" xml:space="preserve" y="23">Density (particles per m3)</text>
            </g>
            


            

        </g>
    </g>
    <g fill="none" fill-rule="evenodd" id="ViewBox_1" stroke="black" stroke-linecap="square" stroke-linejoin="bevel" stroke-width="1">
        <g fill="none" font-family="MS Shell Dlg 2" font-size="11" font-style="normal" font-weight="400" stroke="none">
            <path d="M62.8,31.0 L668.0,31.0 L668.0,320.2 L62.8,320.2 L62.8,31.0 " fill-rule="evenodd" vector-effect="non-scaling-stroke"/>
        </g>
        <clipPath id="ViewBox_1_clip">
            <path d="M62.8,31.0 L668.0,31.0 L668.0,320.2 L62.8,320.2 L62.8,31.0 " fill-rule="evenodd" vector-effect="non-scaling-stroke"/>
        </clipPath>
        <g clip-path="url(#ViewBox_1_clip)">
            <g fill="none" fill-rule="evenodd" id="ChildGroup_1" stroke="black" stroke-linecap="square" stroke-linejoin="bevel" stroke-width="1">
                <g id="PlotDataItem_1">
                    <g fill="none" fill-rule="evenodd" id="PlotCurveItem_1" stroke="black" stroke-linecap="square" stroke-linejoin="bevel" stroke-width="1">
                        <g fill="none" font-family="MS Shell Dlg 2" font-size="11" font-style="normal" font-weight="400" stroke="#ed815e" stroke-linecap="square" stroke-linejoin="bevel" stroke-opacity="1" stroke-width="1.5">
                            <path d="L360.9381592,304.04148884 L362.0536444,289.92278336 L363.1691296,281.70389873 L364.2846148,275.88534263 L365.4001,271.38002489 L366.5155852,267.39480155 L367.6310704,264.07130546 L368.7465556,261.22146677 L369.8620408,258.7273355 L370.977526,256.51043312 L372.0930112,254.51596397 L373.2084964,252.70306349 L374.3239816,251.04154763 L375.4394668,249.50912663 L376.554952,248.08676132 L377.6704372,246.76005623 L378.7859224,245.51740211 L379.9014076,244.34858282 L381.0168928,243.24616844 L382.132378,242.20226468 L383.2478632,241.21222784 L384.3633484,240.26955674 L385.4788336,239.37100079 L386.5943188,238.51284503 L387.709804,237.6913745 L388.8252892,236.90380298 L389.9407744,236.14734425 L391.0562596,235.42014083 L392.1717448,234.71987087 L393.28723,234.04467689 L394.4027152,233.39316578 L395.5182004,232.76348006 L396.6336856,232.15515536 L397.7491708,231.56586983 L398.864656,230.99469473 L399.9801412,230.44116569 L401.0956264,229.90435397 L402.2111116,229.38286646 L403.3265968,228.8776319 L404.442082,228.3853997 L405.5575672,227.9024549 L406.6730524,227.4380849 L407.7885376,226.9830023 L408.9040228,226.5418508 L410.019508,226.1099867 L411.1349932,225.68741 L412.2504784,225.2787644 L413.3659636,224.8747625 L414.4814488,224.4846917 L415.596934,224.0992646 L416.7124192,223.7277686 L417.8279044,223.3609163 L418.9433896,223.0033514 L420.0588748,222.6550739 L421.17436,222.3114401 L422.2898452,221.9770937 L423.4053304,221.6520347 L424.5208156,221.3316194 L425.6363008,221.0158478 L426.751786,220.7093636 L427.8672712,220.4075231 L428.9827564,220.1103263 L430.0982416,219.8177732 L431.2137268,219.5345075 L432.329212,219.2558855 L433.4446972,218.9819072 L434.5601824,218.7172163 L435.6756676,218.4525254 L436.7911528,218.1924782 L437.906638,217.9417184 L439.0221232,217.6909586 L440.1376084,217.4494862 L441.2530936,217.2080138 L442.3685788,216.9758288 L443.484064,216.7436438 L444.5995492,216.5161025 L445.7150344,216.2932049 L446.8305196,216.074951 L447.9460048,215.8613408 L449.06149,215.6523743 L450.1769752,215.4434078 L451.2924604,215.239085 L452.4079456,215.0394059 L453.5234308,214.8443705 L454.638916,214.6539788 L455.7544012,214.4635871 L456.8698864,214.2778391 L457.9853716,214.0967348 L459.1008568,213.9156305 L460.216342,213.7391699 L461.3318272,213.567353 L462.4473124,213.3955361 L463.5627976,213.2283629 L464.6782828,213.0658334 L465.793768,212.9033039 L466.9092532,212.7454181 L468.0247384,212.592176 L469.1402236,212.4389339 L470.2557088,212.2903355 L471.371194,212.1417371 L472.4866792,211.9977824 L473.6021644,211.8584714 L474.7176496,211.7191604 L475.8331348,211.5798494 L476.94862,211.4451821 L478.0641052,211.3151585 L479.1795904,211.1851349 L480.2950756,211.059755 L481.4105608,210.9390188 L482.526046,210.8136389 L483.6415312,210.6975464 L484.7570164,210.5814539 L485.8725016,210.4653614 L486.9879868,210.3539126 L488.103472,210.2424638 L489.2189572,210.1356587 L490.3344424,210.0288536 L491.4499276,209.9266922 L492.5654128,209.8291745 L493.680898,209.7270131 L494.7963832,209.6341391 L495.9118684,209.5366214 L497.0273536,209.4437474 L498.1428388,209.3555171 L499.258324,209.2672868 L500.3738092,209.1837002 L501.4892944,209.1001136 L502.6047796,209.016527 L503.7202648,208.9375841 L504.83575,208.8586412 L505.9512352,208.784342 L507.0667204,208.7100428 L508.1822056,208.6403873 L509.2976908,208.5707318 L510.413176,208.50572 L511.5286612,208.4407082 L512.6441464,208.3756964 L513.7596316,208.3153283 L514.8751168,208.2549602 L515.990602,208.1992358 L517.1060872,208.1435114 L518.2215724,208.0924307 L519.3370576,208.0367063 L520.4525428,207.9902693 L521.568028,207.9438323 L522.6835132,207.8973953 L523.7989984,207.855602 L524.9144836,207.8138087 L526.0299688,207.7720154 L527.145454,207.7348658 L528.2609392,207.6977162 L529.3764244,207.6652103 L530.4919096,207.6327044 L531.6073948,207.6048422 L532.72288,207.57698 L533.8383652,207.5491178 L534.9538504,207.5258993 L536.0693356,207.5073245 L537.1848208,207.484106 L538.300306,207.4701749 L539.4157912,207.4516001 L540.5312764,207.437669 L541.6467616,207.4283816 L542.7622468,207.4190942 L543.877732,207.4098068 L544.9932172,207.4051631 L546.1087024,207.4005194 L547.2241876,207.4005194 L548.3396728,207.4005194 L549.455158,207.4005194 L550.5706432,207.4051631 L551.6861284,207.4144505 L552.8016136,207.4190942 L553.9170988,207.4330253 L555.032584,207.4469564 L556.1480692,207.4608875 L557.2635544,207.4794623 L558.3790396,207.4980371 L559.4945248,207.5212556 L560.61001,207.5444741 L561.7254952,207.5676926 L562.8409804,207.5955548 L563.9564656,207.6280607 L565.0719508,207.6605666 L566.187436,207.6977162 L567.3029212,207.7348658 L568.4184064,207.7720154 L569.5338916,207.8184524 L570.6493768,207.8602457 L571.764862,207.9066827 L572.8803472,207.9577634 L573.9958324,208.0088441 L575.1113176,208.0645685 L576.2268028,208.1249366 L577.342288,208.180661 L578.4577732,208.2456728 L579.5732584,208.3106846 L580.6887436,208.3803401 L581.8042288,208.4499956 L582.919714,208.5242948 L584.0351992,208.598594 L585.1506844,208.6775369 L586.2661696,208.7611235 L587.3816548,208.8447101 L588.49714,208.9329404 L589.6126252,209.0211707 L590.7281104,209.1186884 L591.8435956,209.2162061 L592.9590808,209.3137238 L594.074566,209.4205289 L595.1900512,209.527334 L596.3055364,209.6341391 L597.4210216,209.7502316 L598.5365068,209.8663241 L599.651992,209.9870603 L600.7674772,210.1124402 L601.8829624,210.2378201 L602.9984476,210.3724874 L604.1139328,210.5071547 L605.229418,210.6464657 L606.3449032,210.7904204 L607.4603884,210.9390188 L608.5758736,211.0922609 L609.6913588,211.245503 L610.806844,211.4080325 L611.9223292,211.5752057 L613.0378144,211.7423789 L614.1532996,211.9188395 L615.2687848,212.0999438 L616.38427,212.2810481 L617.4997552,212.4714398 L618.6152404,212.6664752 L619.7307256,212.870798 L620.8462108,213.0751208 L621.961696,213.288731 L623.0771812,213.5069849 L624.1926664,213.7298825 L625.3081516,213.9620675 L626.4236368,214.1988962 L627.539122,214.4450123 L628.6546072,214.6957721 L629.7700924,214.9511756 L630.8855776,215.2158665 L632.0010628,215.4898448 L633.116548,215.7731105 L634.2320332,216.0610199 L635.3475184,216.3628604 L636.4630036,216.6693446 L637.5784888,216.9851162 L638.693974,217.3101752 L639.8094592,217.6491653 L640.9249444,217.9974428 L642.0404296,218.3550077 L643.1559148,218.7265037 L644.2714,219.1072871 " fill-rule="evenodd" vector-effect="non-scaling-stroke"/>
                        </g>
                    </g>
                </g>
                <g id="PlotDataItem_2">
                    <g fill="none" fill-rule="evenodd" id="PlotCurveItem_2" stroke="black" stroke-linecap="square" stroke-linejoin="bevel" stroke-width="1">
                        <g fill="none" font-family="MS Shell Dlg 2" font-size="11" font-style="normal" font-weight="400" stroke="#c7b069" stroke-linecap="square" stroke-linejoin="bevel" stroke-opacity="1" stroke-width="1.5">
                            <path d="L365.4001,117.1687847 L366.5155852,162.347342 L383.2478632,97.6698884 L384.3633484,106.0424795 L385.4788336,120.6190538 L401.0956264,87.9413369 L402.2111116,92.691842 L403.3265968,98.9144 L404.442082,107.9603276 L405.5575672,124.7937401 L417.8279044,78.5610629 L418.9433896,81.4122947 L420.0588748,84.7278965 L421.17436,88.7029037 L422.2898452,93.6577316 L423.4053304,100.2424982 L424.5208156,110.0824985 L425.6363008,130.073627 L435.6756676,74.2192034 L436.7911528,76.485329 L437.906638,79.0347203 L439.0221232,81.9602513 L440.1376084,85.3780145 L441.2530936,89.4969764 L442.3685788,94.6793456 L443.484064,101.6727578 L444.5995492,112.4647166 L445.7150344,137.2667183 L453.5234308,70.6481981 L454.638916,72.5288966 L455.7544012,74.6046305 L456.8698864,76.9125494 L457.9853716,79.5269525 L459.1008568,82.5267827 L460.216342,86.051351 L461.3318272,90.323555 L462.4473124,95.756684 L463.5627976,103.2144662 L464.6782828,115.1719937 L465.793768,148.6066337 L470.2557088,66.129878 L471.371194,67.6205057 L472.4866792,69.2272259 L473.6021644,70.9732571 L474.7176496,72.8818178 L475.8331348,74.9947013 L476.94862,77.3537009 L478.0641052,80.0284721 L479.1795904,83.1118889 L480.2950756,86.747906 L481.4105608,91.1919269 L482.526046,96.8990342 L483.6415312,104.8908419 L484.7570164,118.3157786 L485.8725016,177.1839635 L488.103472,63.6733607 L489.2189572,64.9875278 L490.3344424,66.3899252 L491.4499276,67.8991277 L492.5654128,69.5290664 L493.680898,71.3029598 L494.7963832,73.2440264 L495.9118684,75.3987032 L497.0273536,77.8087835 L498.1428388,80.5439228 L499.258324,83.7155699 L500.3738092,87.4769669 L501.4892944,92.1020921 L502.6047796,98.1156836 L503.7202648,106.7251034 L504.83575,122.0586008 L505.9512352,61.486178 L507.0667204,62.6563904 L508.1822056,63.900902 L509.2976908,65.2290002 L510.413176,66.6499724 L511.5286612,68.1777497 L512.6441464,69.8355506 L513.7596316,71.6373062 L514.8751168,73.6155224 L515.990602,75.8119925 L517.1060872,78.2731535 L518.2215724,81.0779483 L519.3370576,84.3424694 L520.4525428,88.23389 L521.568028,93.0586943 L522.6835132,58.5002789 L523.7989984,59.5079618 L524.9144836,60.5713691 L526.0299688,61.6905008 L527.145454,62.8746443 L528.2609392,64.133087 L529.3764244,65.47976 L530.4919096,66.919307 L531.6073948,68.4703028 L532.72288,70.1466785 L533.8383652,71.98094 L534.9538504,73.9963058 L536.0693356,76.2345692 L537.1848208,78.7514546 L538.300306,81.6305486 L539.4157912,84.9925874 L540.5312764,56.7913973 L541.6467616,57.7108499 L542.7622468,58.6813832 L543.877732,59.6983535 L544.9932172,60.7710482 L546.1087024,61.8994673 L547.2241876,63.0975419 L548.3396728,64.3745594 L549.455158,65.7305198 L550.5706432,67.1886416 L551.6861284,68.7628559 L552.8016136,70.4670938 L553.9170988,72.3292175 L555.032584,74.3817329 L556.1480692,76.6664333 L557.2635544,54.3906044 L558.3790396,55.2125393 L559.4945248,56.0623364 L560.61001,56.9539268 L561.7254952,57.8873105 L562.8409804,58.8624875 L563.9564656,59.8887452 L565.0719508,60.9707273 L566.187436,62.1130775 L567.3029212,63.3250832 L568.4184064,64.6113881 L569.5338916,65.990567 L570.6493768,67.4672636 L571.764862,69.0646964 L572.8803472,70.7967965 L573.9958324,72.6914261 L575.1113176,52.9835633 L576.2268028,53.7497738 L577.342288,54.5392028 L578.4577732,55.3657814 L579.5732584,56.2248659 L580.6887436,57.1211 L581.8042288,58.0591274 L582.919714,59.0482355 L584.0351992,60.0837806 L585.1506844,61.1750501 L586.2661696,62.3313314 L587.3816548,63.5572682 L588.49714,64.8575042 L589.6126252,66.2552579 L590.7281104,67.7505293 L591.8435956,69.3711806 L592.9590808,51.6693962 L594.074566,52.384526 L595.1900512,53.1228743 L596.3055364,53.8937285 L597.4210216,54.6878012 L598.5365068,55.5190235 L599.651992,56.3873954 L600.7674772,57.2929169 L601.8829624,58.2402317 L602.9984476,59.2339835 L604.1139328,60.278816 L605.229418,61.3840166 L606.3449032,62.5495853 L607.4603884,63.7894532 L608.5758736,65.108264 L609.6913588,49.7886977 L610.806844,50.4388157 L611.9223292,51.1075085 L613.0378144,51.8040635 L614.1532996,52.5191933 L615.2687848,53.2621853 L616.38427,54.0376832 L617.4997552,54.8410433 L618.6152404,55.6769093 L619.7307256,56.5499249 L620.8462108,57.4647338 L621.961696,58.421336 L623.0771812,59.4243752 L624.1926664,60.4831388 L625.3081516,61.5976268 L626.4236368,62.7771266 L627.539122,48.6649223 L628.6546072,49.2778907 L629.7700924,49.9094339 L630.8855776,50.5641956 L632.0010628,51.2375321 L633.116548,51.9340871 L634.2320332,52.6585043 L635.3475184,53.40614 L636.4630036,54.1862816 L637.5784888,54.9942854 L638.693974,55.8394388 L639.8094592,56.7217418 L640.9249444,57.6411944 L642.0404296,58.607084 L643.1559148,59.6194106 L644.2714,60.6874616 " fill-rule="evenodd" vector-effect="non-scaling-stroke"/>
                        </g>
                    </g>
                </g>
                <g id="PlotDataItem_3">
                    <g fill="none" fill-rule="evenodd" id="PlotCurveItem_3" stroke="black" stroke-linecap="square" stroke-linejoin="bevel" stroke-width="1">
                        <g fill="none" font-family="MS Shell Dlg 2" font-size="11" font-style="normal" font-weight="400" stroke="#7ea695" stroke-linecap="square" stroke-linejoin="bevel" stroke-opacity="1" stroke-width="1.5">
                            <path d="M86.528800093,61.8994673 L87.6442852,60.5017136 L88.7597704,59.1921902 L89.8752556,57.9662534 L90.9907408,56.8099721 L92.106226,55.7140589 L93.2217112,54.6738701 L94.3371964,53.6894057 L95.4526816,52.7467346 L96.5681668,51.8458568 L97.683652,50.9867723 L98.7991372,50.1601937 L99.9146224,49.366121 L101.0301076,48.6045542 L102.1455928,47.8662059 L103.261078,47.1603635 L104.3765632,62.7167585 L105.4920484,61.2632804 L106.6075336,59.90732 L107.7230188,58.6349462 L108.838504,57.4415153 L109.9539892,56.3130962 L111.0694744,55.2450452 L112.1849596,54.2280749 L113.3004448,53.2621853 L114.41593,52.338089 L115.5314152,51.455786 L116.6469004,50.6106326 L117.7623856,49.8026288 L118.8778708,49.0224872 L119.993356,48.2702078 L121.1088412,47.5457906 L122.2243264,63.5665556 L123.3398116,62.0527094 L124.4552968,60.6456683 L125.570782,59.3268575 L126.6862672,58.0916333 L127.8017524,56.9260646 L128.9172376,55.8255077 L130.0327228,54.7806752 L131.148208,53.7869234 L132.2636932,52.8442523 L133.3791784,51.9387308 L134.4946636,51.0750026 L135.6101488,50.2437803 L136.725634,49.4497076 L137.8411192,48.6834971 L138.9566044,66.1716713 L140.0720896,64.4535023 L141.1875748,62.8746443 L142.30306,61.4072351 L143.4185452,60.0419873 L144.5340304,58.7649698 L145.6495156,57.5576078 L146.7650008,56.424545 L147.880486,55.3518503 L148.9959712,54.3302363 L150.1114564,53.359703 L151.2269416,52.430963 L152.3424268,51.5440163 L153.457912,50.6988629 L154.5733972,49.8815717 L155.6888824,49.1014301 L156.8043676,67.1793542 L157.9198528,65.3775986 L159.035338,63.7290851 L160.1508232,62.2013078 L161.2663084,60.7803356 L162.3817936,59.4568811 L163.4972788,58.2123695 L164.612764,57.0421571 L165.7282492,55.9323128 L166.8437344,54.8828366 L167.9592196,53.8844411 L169.0747048,52.9324826 L170.19019,52.0269611 L171.3056752,51.1585892 L172.4211604,50.3227232 L173.5366456,49.5240068 L174.6521308,68.2381178 L175.767616,66.3481319 L176.8831012,64.6160318 L177.9985864,63.0232427 L179.1140716,61.5465461 L180.2295568,60.1720109 L181.345042,58.885706 L182.4605272,57.6737003 L183.5760124,56.5313501 L184.6914976,55.449368 L185.8069828,54.427754 L186.922468,53.4479333 L188.0379532,52.5191933 L189.1534384,51.6276029 L190.2689236,50.7778058 L191.3844088,71.5676507 L192.499894,69.3526058 L193.6153792,67.3604585 L194.7308644,65.5447718 L195.8463496,63.8776835 L196.9618348,62.3406188 L198.07732,60.9150029 L199.1928052,59.5776173 L200.3082904,58.328462 L201.4237756,57.1489622 L202.5392608,56.0344742 L203.654746,54.9803543 L204.7702312,53.9773151 L205.8857164,53.0207129 L207.0012016,52.1105477 L208.1166868,51.2375321 L209.232172,72.8911052 L210.3476572,70.5321056 L211.4631424,68.4238658 L212.5786276,66.5153051 L213.6941128,64.7739176 L214.809598,63.1671974 L215.9250832,61.6812134 L217.0405684,60.2973908 L218.1560536,59.0017985 L219.2715388,57.7851491 L220.387024,56.6335115 L221.5025092,55.5515294 L222.6179944,54.520628 L223.7334796,53.5361636 L224.8489648,52.6027799 L225.96445,77.1772403 L227.0799352,74.30279 L228.1954204,71.7859046 L229.3109056,69.5476412 L230.4263908,67.5369191 L231.541876,65.7073013 L232.6573612,64.0262819 L233.7728464,62.4799298 L234.8883316,61.0403828 L236.0038168,59.6983535 L237.119302,58.4399108 L238.2347872,57.2557673 L239.3502724,56.1366356 L240.4657576,55.0732283 L241.5812428,54.0655454 L242.696728,53.1089432 L243.8122132,78.9325589 L244.9276984,75.8166362 L246.0431836,73.1186465 L247.1586688,70.7364284 L248.274154,68.6049701 L249.3896392,66.6824783 L250.5051244,64.922516 L251.6206096,63.3065084 L252.7360948,61.811237 L253.85158,60.418127 L254.9670652,59.1132473 L256.0825504,57.8919542 L257.1980356,56.7356729 L258.3135208,55.6444034 L259.429006,54.6088583 L260.5444912,53.6243939 L261.6599764,80.8596944 L262.7754616,77.4558623 L263.8909468,74.5396187 L265.006432,71.9948711 L266.1219172,69.7380329 L267.2374024,67.708736 L268.3528876,65.8605434 L269.4683728,64.1702366 L270.583858,62.6099534 L271.6993432,61.1657627 L272.8148284,59.814446 L273.9303136,58.5467159 L275.0457988,57.3579287 L276.161284,56.2295096 L277.2767692,55.1661023 L278.3922544,87.5977031 L279.5077396,82.986509 L280.6232248,79.2343994 L281.73871,76.0720397 L282.8541952,73.3415441 L283.9696804,70.9361075 L285.0851656,68.7860744 L286.2006508,66.8450078 L287.316136,65.0711144 L288.4316212,63.4458194 L289.5471064,61.9366169 L290.6625916,60.5342195 L291.7780768,59.2246961 L292.893562,57.9941156 L294.0090472,56.8331906 L295.1245324,55.7372774 L296.2400176,90.6300392 L297.3555028,85.3594397 L298.470988,81.1847534 L299.5864732,77.7298406 L300.7019584,74.7810911 L301.8174436,72.2084813 L302.9329288,69.9237809 L304.048414,67.8759092 L305.1638992,66.0137855 L306.2793844,64.3141913 L307.3948696,62.739977 L308.5103548,61.2864989 L309.62584,59.9258948 L310.7413252,58.653521 L311.8568104,57.4554464 L312.9722956,56.3270273 L314.0877808,94.1964008 L315.203266,88.048142 L316.3187512,83.3440739 L317.4342364,79.5315962 L318.5497216,76.3274432 L319.6652068,73.5644417 L320.780692,71.1311429 L321.8961772,68.962535 L323.0116624,67.0028936 L324.1271476,65.2197128 L325.2426328,63.5804867 L326.358118,62.0619968 L327.4736032,60.650312 L328.5890884,59.3361449 L329.7045736,58.096277 L330.8200588,110.291465 L331.935544,98.5336166 L333.0510292,91.1501336 L334.1665144,85.7587979 L335.2819996,81.5098124 L336.3974848,78.0038189 L337.51297,75.0179198 L338.6284552,72.4128041 L339.7439404,70.1095289 L340.8594256,68.0430824 L341.9749108,66.1670276 L343.090396,64.4535023 L344.2058812,62.8700006 L345.3213664,61.4072351 L346.4368516,60.0373436 L347.5523368,58.7603261 L348.667822,121.6174493 L349.7833072,104.0596196 L350.8987924,94.8186566 L352.0142776,88.5078683 L353.1297628,83.7062825 L354.245248,79.8334367 L355.3607332,76.5828467 L356.4762184,73.7826956 L357.5917036,71.3261783 L358.7071888,69.1389956 L359.822674,67.1654231 L360.9381592,65.3636675 L362.0536444,63.715154 L363.1691296,62.1873767 L364.2846148,60.7710482 L366.5155852,157.5318251 L367.6310704,113.7324467 L368.7465556,100.9390532 L369.8620408,93.1701431 L370.977526,87.5791283 L372.0930112,83.2047629 L373.2084964,79.6105391 L374.3239816,76.5642719 L375.4394668,73.9173629 L376.554952,71.5769381 L377.6704372,69.4826294 L378.7859224,67.5833561 L379.9014076,65.8466123 L381.0168928,64.2491795 L382.132378,62.7678392 L386.5943188,126.5815646 L387.709804,106.7343908 L388.8252892,96.9315401 L389.9407744,90.3607046 L391.0562596,85.4105204 L392.1717448,81.4448006 L393.28723,78.1291988 L394.4027152,75.2826107 L395.5182004,72.7889438 L396.6336856,70.5692552 L397.7491708,68.5678205 L398.864656,66.7521338 L399.9801412,65.0804018 L405.5575672,171.3236141 L406.6730524,114.9073028 L407.7885376,101.5520216 L408.9040228,93.5880761 L410.019508,87.8948999 L411.1349932,83.4555227 L412.2504784,79.8241493 L413.3659636,76.7453762 L414.4814488,74.0752487 L415.596934,71.7208928 L416.7124192,69.6080093 L425.6363008,128.8801961 L426.751786,107.5656131 L427.8672712,97.4377034 L428.9827564,90.7229132 L430.0982416,85.6984298 L431.2137268,81.6769856 L432.329212,78.3242342 L433.4446972,75.4544276 L434.5601824,72.9375422 L445.7150344,116.1796766 L446.8305196,102.2021396 L447.9460048,94.0245839 L449.06149,88.2199589 L450.1769752,83.7202136 L451.2924604,80.0424032 L452.4079456,76.9357679 L464.6782828,131.5642547 L465.793768,108.4572035 L466.9092532,97.9717289 L468.0247384,91.1083403 L469.1402236,85.9956266 L484.7570164,117.5960051 L485.8725016,102.8940509 L486.9879868,94.4843102 L503.7202648,134.8055573 L504.83575,109.4370242 " fill-rule="evenodd" vector-effect="non-scaling-stroke"/>
                        </g>
                    </g>
                </g>
                <g id="PlotDataItem_4">
                    <g fill="none" fill-rule="evenodd" id="PlotCurveItem_4" stroke="black" stroke-linecap="square" stroke-linejoin="bevel" stroke-width="1">
                        <g fill="none" font-family="MS Shell Dlg 2" font-size="11" font-style="normal" font-weight="400" stroke="#8a7c91" stroke-linecap="square" stroke-linejoin="bevel" stroke-opacity="1" stroke-width="1.5">
                            <path d="L364.2846148,285.36034811 L365.4001,267.03119984 L366.5155852,256.53922406 L367.6310704,249.67955042 L368.7465556,244.57565975 L369.8620408,240.51056477 L370.977526,237.13366613 L372.0930112,234.2457491 L373.2084964,231.72329126 L374.3239816,229.48549223 L375.4394668,227.4752345 L376.554952,225.6502604 L377.6704372,223.9785284 L378.7859224,222.43682 L379.9014076,221.0112041 L381.0168928,219.6784622 L382.132378,218.4339506 L383.2478632,217.2637382 L384.3633484,216.1585376 L385.4788336,215.1137051 L386.5943188,214.124597 L387.709804,213.1819259 L388.8252892,212.2856918 L389.9407744,211.431251 L391.0562596,210.6093161 L392.1717448,209.8245308 L393.28723,209.0722514 L394.4027152,208.3478342 L395.5182004,207.6512792 L396.6336856,206.9825864 L397.7491708,206.3371121 L398.864656,205.7102126 L399.9801412,205.1065316 L401.0956264,204.5214254 L402.2111116,203.954894 L403.3265968,203.4069374 L404.442082,202.8775556 L405.5575672,202.3621049 L406.6730524,201.8605853 L407.7885376,201.3729968 L408.9040228,200.9039831 L410.019508,200.4442568 L411.1349932,199.9938179 L412.2504784,199.5573101 L413.3659636,199.1347334 L414.4814488,198.7214441 L415.596934,198.3174422 L416.7124192,197.9227277 L417.8279044,197.5419443 L418.9433896,197.1658046 L420.0588748,196.7989523 L421.17436,196.4460311 L422.2898452,196.0931099 L423.4053304,195.7541198 L424.5208156,195.4197734 L425.6363008,195.0947144 L426.751786,194.7789428 L427.8672712,194.4678149 L428.9827564,194.1613307 L430.0982416,193.8641339 L431.2137268,193.5715808 L432.329212,193.2836714 L433.4446972,193.0050494 L434.5601824,192.7310711 L435.6756676,192.4663802 L436.7911528,192.2016893 L437.906638,191.9462858 L439.0221232,191.6908823 L440.1376084,191.4447662 L441.2530936,191.2032938 L442.3685788,190.9664651 L443.484064,190.7342801 L444.5995492,190.5067388 L445.7150344,190.2838412 L446.8305196,190.0655873 L447.9460048,189.8519771 L449.06149,189.6430106 L450.1769752,189.4386878 L451.2924604,189.234365 L452.4079456,189.0393296 L453.5234308,188.8442942 L454.638916,188.6585462 L455.7544012,188.4727982 L456.8698864,188.2870502 L457.9853716,188.1105896 L459.1008568,187.934129 L460.216342,187.7669558 L461.3318272,187.5951389 L462.4473124,187.4326094 L463.5627976,187.2747236 L464.6782828,187.1168378 L465.793768,186.958952 L466.9092532,186.8103536 L468.0247384,186.6617552 L469.1402236,186.5178005 L470.2557088,186.3784895 L471.371194,186.2391785 L472.4866792,186.1045112 L473.6021644,185.9698439 L474.7176496,185.844464 L475.8331348,185.7144404 L476.94862,185.5937042 L478.0641052,185.472968 L479.1795904,185.3568755 L480.2950756,185.240783 L481.4105608,185.1293342 L482.526046,185.0178854 L483.6415312,184.9110803 L484.7570164,184.8089189 L485.8725016,184.7067575 L486.9879868,184.6092398 L488.103472,184.5163658 L489.2189572,184.4234918 L490.3344424,184.3306178 L491.4499276,184.2423875 L492.5654128,184.1588009 L493.680898,184.0752143 L494.7963832,183.9962714 L495.9118684,183.9173285 L497.0273536,183.8430293 L498.1428388,183.7733738 L499.258324,183.6990746 L500.3738092,183.6340628 L501.4892944,183.569051 L502.6047796,183.5086829 L503.7202648,183.4483148 L504.83575,183.3879467 L505.9512352,183.336866 L507.0667204,183.2811416 L508.1822056,183.2347046 L509.2976908,183.1882676 L510.413176,183.1418306 L511.5286612,183.1000373 L512.6441464,183.058244 L513.7596316,183.0210944 L514.8751168,182.9885885 L515.990602,182.9560826 L517.1060872,182.9235767 L518.2215724,182.8957145 L519.3370576,182.872496 L520.4525428,182.8492775 L521.568028,182.8307027 L522.6835132,182.8121279 L523.7989984,182.7981968 L524.9144836,182.7842657 L526.0299688,182.7749783 L527.145454,182.7656909 L528.2609392,182.7610472 L529.3764244,182.7610472 L530.4919096,182.7610472 L531.6073948,182.7656909 L532.72288,182.7703346 L533.8383652,182.779622 L534.9538504,182.7889094 L536.0693356,182.8028405 L537.1848208,182.8214153 L538.300306,182.8399901 L539.4157912,182.8632086 L540.5312764,182.8864271 L541.6467616,182.9142893 L542.7622468,182.9421515 L543.877732,182.9793011 L544.9932172,183.011807 L546.1087024,183.0536003 L547.2241876,183.0953936 L548.3396728,183.1371869 L549.455158,183.1882676 L550.5706432,183.2393483 L551.6861284,183.290429 L552.8016136,183.3507971 L553.9170988,183.4111652 L555.032584,183.4715333 L556.1480692,183.5411888 L557.2635544,183.6108443 L558.3790396,183.6851435 L559.4945248,183.7594427 L560.61001,183.8430293 L561.7254952,183.9266159 L562.8409804,184.0102025 L563.9564656,184.1030765 L565.0719508,184.1959505 L566.187436,184.2981119 L567.3029212,184.4002733 L568.4184064,184.5070784 L569.5338916,184.6138835 L570.6493768,184.729976 L571.764862,184.8460685 L572.8803472,184.9714484 L573.9958324,185.0968283 L575.1113176,185.2314956 L576.2268028,185.3661629 L577.342288,185.5054739 L578.4577732,185.6494286 L579.5732584,185.8026707 L580.6887436,185.9559128 L581.8042288,186.1137986 L582.919714,186.2809718 L584.0351992,186.4527887 L585.1506844,186.6292493 L586.2661696,186.8103536 L587.3816548,186.9961016 L588.49714,187.191137 L589.6126252,187.3908161 L590.7281104,187.5951389 L591.8435956,187.8087491 L592.9590808,188.027003 L594.074566,188.2545443 L595.1900512,188.4867293 L596.3055364,188.7282017 L597.4210216,188.9743178 L598.5365068,189.2297213 L599.651992,189.4944122 L600.7674772,189.7683905 L601.8829624,190.0470125 L602.9984476,190.3395656 L604.1139328,190.6367624 L605.229418,190.9478903 L606.3449032,191.2683056 L607.4603884,191.5980083 L608.5758736,191.9416421 L609.6913588,192.2945633 L610.806844,192.6614156 L611.9223292,193.0375553 L613.0378144,193.4322698 L614.1532996,193.8362717 L615.2687848,194.2588484 L616.38427,194.6953562 L617.4997552,195.1504388 L618.6152404,195.6194525 L619.7307256,196.107041 L620.8462108,196.617848 L621.961696,197.1472298 L623.0771812,197.6998301 L624.1926664,198.2756489 L625.3081516,198.8746862 L626.4236368,199.5062294 L627.539122,200.1609911 L628.6546072,200.8529024 L629.7700924,201.5726759 L630.8855776,202.3342427 L632.0010628,203.1376028 L633.116548,203.9827562 L634.2320332,204.8743466 L635.3475184,205.8216614 L636.4630036,206.8293443 L637.5784888,207.902039 L638.693974,209.0536766 L639.8094592,210.2842571 L640.9249444,211.616999 L642.0404296,213.0611897 L643.1559148,214.635404 L644.2714,216.3628604 " fill-rule="evenodd" vector-effect="non-scaling-stroke"/>
                        </g>
                    </g>
                </g>
                <g id="PlotDataItem_5"/>
                <g id="PlotDataItem_6"/>
                <g id="PlotDataItem_7"/>
                <g id="PlotDataItem_8"/>
                <g id="PlotDataItem_9"/>
                <g id="PlotDataItem_10"/>
            </g>
            <g fill="none" fill-rule="evenodd" id="LegendItem_1" stroke="black" stroke-linecap="square" stroke-linejoin="bevel" stroke-width="1">
                <g fill="#646464" fill-opacity="0.196078" font-family="MS Shell Dlg 2" font-size="11" font-style="normal" font-weight="400" stroke="#ffffff" stroke-linecap="square" stroke-linejoin="bevel" stroke-opacity="0.392157" stroke-width="1">
                    <path d="M92.8,61.0 L187.8,61.0 L187.8,262.0 L92.8,262.0 L92.8,61.0 " fill-rule="evenodd" vector-effect="non-scaling-stroke"/>
                </g>
                <g fill="none" fill-rule="evenodd" id="ItemSample_1" stroke="black" stroke-linecap="square" stroke-linejoin="bevel" stroke-width="1">
                    <g fill="none" font-family="MS Shell Dlg 2" font-size="11" font-style="normal" font-weight="400" stroke="#ed815e" stroke-linecap="square" stroke-linejoin="bevel" stroke-opacity="1" stroke-width="1.5">
                        <polyline fill="none" points="103.8,88.0 119.8,72.0" vector-effect="non-scaling-stroke"/>
                    </g>
                </g>
                <g fill="none" fill-rule="evenodd" id="LabelItem_1" stroke="black" stroke-linecap="square" stroke-linejoin="bevel" stroke-width="1">
                    <g fill="none" fill-rule="evenodd" id="QGraphicsTextItem_3" stroke="black" stroke-linecap="square" stroke-linejoin="bevel" stroke-width="1">
                        


                        


                        <g fill="none" font-family="MS Shell Dlg 2" font-size="11" font-style="normal" font-weight="400" stroke="#969696" stroke-linecap="square" stroke-linejoin="bevel" stroke-opacity="1" stroke-width="1" transform="matrix(1,0,0,1,134.3,70)">
                            <text fill="#969696" fill-opacity="1" font-family="&quot;MS Shell Dlg 2&quot;, sans-serif" font-size="11" font-style="normal" font-weight="400" stroke="none" x="4" xml:space="preserve" y="15">H2</text>
                        </g>
                        


                        

                    </g>
                </g>
                <g fill="none" fill-rule="evenodd" id="ItemSample_2" stroke="black" stroke-linecap="square" stroke-linejoin="bevel" stroke-width="1">
                    <g fill="none" font-family="MS Shell Dlg 2" font-size="11" font-style="normal" font-weight="400" stroke="#c7b069" stroke-linecap="square" stroke-linejoin="bevel" stroke-opacity="1" stroke-width="1.5">
                        <polyline fill="none" points="103.8,115.0 119.8,99.0" vector-effect="non-scaling-stroke"/>
                    </g>
                </g>
                <g fill="none" fill-rule="evenodd" id="LabelItem_2" stroke="black" stroke-linecap="square" stroke-linejoin="bevel" stroke-width="1">
                    <g fill="none" fill-rule="evenodd" id="QGraphicsTextItem_4" stroke="black" stroke-linecap="square" stroke-linejoin="bevel" stroke-width="1">
                        


                        


                        <g fill="none" font-family="MS Shell Dlg 2" font-size="11" font-style="normal" font-weight="400" stroke="#969696" stroke-linecap="square" stroke-linejoin="bevel" stroke-opacity="1" stroke-width="1" transform="matrix(1,0,0,1,130.8,97)">
                            <text fill="#969696" fill-opacity="1" font-family="&quot;MS Shell Dlg 2&quot;, sans-serif" font-size="11" font-style="normal" font-weight="400" stroke="none" x="4" xml:space="preserve" y="15">CH4</text>
                        </g>
                        


                        

                    </g>
                </g>
                <g fill="none" fill-rule="evenodd" id="ItemSample_3" stroke="black" stroke-linecap="square" stroke-linejoin="bevel" stroke-width="1">
                    <g fill="none" font-family="MS Shell Dlg 2" font-size="11" font-style="normal" font-weight="400" stroke="#7ea695" stroke-linecap="square" stroke-linejoin="bevel" stroke-opacity="1" stroke-width="1.5">
                        <polyline fill="none" points="103.8,142.0 119.8,126.0" vector-effect="non-scaling-stroke"/>
                    </g>
                </g>
                <g fill="none" fill-rule="evenodd" id="LabelItem_3" stroke="black" stroke-linecap="square" stroke-linejoin="bevel" stroke-width="1">
                    <g fill="none" fill-rule="evenodd" id="QGraphicsTextItem_5" stroke="black" stroke-linecap="square" stroke-linejoin="bevel" stroke-width="1">
                        


                        


                        <g fill="none" font-family="MS Shell Dlg 2" font-size="11" font-style="normal" font-weight="400" stroke="#969696" stroke-linecap="square" stroke-linejoin="bevel" stroke-opacity="1" stroke-width="1" transform="matrix(1,0,0,1,133.3,124)">
                            <text fill="#969696" fill-opacity="1" font-family="&quot;MS Shell Dlg 2&quot;, sans-serif" font-size="11" font-style="normal" font-weight="400" stroke="none" x="4" xml:space="preserve" y="15">CO</text>
                        </g>
                        


                        

                    </g>
                </g>
                <g fill="none" fill-rule="evenodd" id="ItemSample_4" stroke="black" stroke-linecap="square" stroke-linejoin="bevel" stroke-width="1">
                    <g fill="none" font-family="MS Shell Dlg 2" font-size="11" font-style="normal" font-weight="400" stroke="#8a7c91" stroke-linecap="square" stroke-linejoin="bevel" stroke-opacity="1" stroke-width="1.5">
                        <polyline fill="none" points="103.8,169.0 119.8,153.0" vector-effect="non-scaling-stroke"/>
                    </g>
                </g>
                <g fill="none" fill-rule="evenodd" id="LabelItem_4" stroke="black" stroke-linecap="square" stroke-linejoin="bevel" stroke-width="1">
                    <g fill="none" fill-rule="evenodd" id="QGraphicsTextItem_6" stroke="black" stroke-linecap="square" stroke-linejoin="bevel" stroke-width="1">
                        


                        


                        <g fill="none" font-family="MS Shell Dlg 2" font-size="11" font-style="normal" font-weight="400" stroke="#969696" stroke-linecap="square" stroke-linejoin="bevel" stroke-opacity="1" stroke-width="1" transform="matrix(1,0,0,1,130.3,151)">
                            <text fill="#969696" fill-opacity="1" font-family="&quot;MS Shell Dlg 2&quot;, sans-serif" font-size="11" font-style="normal" font-weight="400" stroke="none" x="4" xml:space="preserve" y="15">CO2</text>
                        </g>
                        


                        

                    </g>
                </g>
                <g fill="none" fill-rule="evenodd" id="ItemSample_5" stroke="black" stroke-linecap="square" stroke-linejoin="bevel" stroke-width="1">
                    <g fill="none" font-family="MS Shell Dlg 2" font-size="11" font-style="normal" font-weight="400" stroke="#ff2e70" stroke-linecap="square" stroke-linejoin="bevel" stroke-opacity="1" stroke-width="2">
                        <polyline fill="none" points="103.8,196.0 119.8,180.0" vector-effect="non-scaling-stroke"/>
                    </g>
                </g>
                <g fill="none" fill-rule="evenodd" id="LabelItem_5" stroke="black" stroke-linecap="square" stroke-linejoin="bevel" stroke-width="1">
                    <g fill="none" fill-rule="evenodd" id="QGraphicsTextItem_7" stroke="black" stroke-linecap="square" stroke-linejoin="bevel" stroke-width="1">
                        


                        


                        <g fill="none" font-family="MS Shell Dlg 2" font-size="11" font-style="normal" font-weight="400" stroke="#969696" stroke-linecap="square" stroke-linejoin="bevel" stroke-opacity="1" stroke-width="1" transform="matrix(1,0,0,1,110.8,178)">
                            <text fill="#969696" fill-opacity="1" font-family="&quot;MS Shell Dlg 2&quot;, sans-serif" font-size="11" font-style="normal" font-weight="400" stroke="none" x="4" xml:space="preserve" y="15">total density</text>
                        </g>
                        


                        

                    </g>
                </g>
                <g fill="none" fill-rule="evenodd" id="ItemSample_6" stroke="black" stroke-linecap="square" stroke-linejoin="bevel" stroke-width="1">
                    <g fill="none" font-family="MS Shell Dlg 2" font-size="11" font-style="normal" font-weight="400" stroke="none">
                        <polyline fill="none" points="103.8,223.0 119.8,207.0" vector-effect="non-scaling-stroke"/>
                    </g>
                    <g fill="#0000ff" fill-opacity="0.588235" font-family="MS Shell Dlg 2" font-size="11" font-style="normal" font-weight="400" stroke="#ffffff" stroke-linecap="square" stroke-linejoin="bevel" stroke-opacity="0.784314" stroke-width="1">
                        <path d="M114.3,215.0 C114.3,216.38071 113.18071,217.5 111.8,217.5 C110.41929,217.5 109.3,216.38071 109.3,215.0 C109.3,213.61929 110.41929,212.5 111.8,212.5 C113.18071,212.5 114.3,213.61929 114.3,215.0 " fill-rule="evenodd" vector-effect="non-scaling-stroke"/>
                    </g>
                </g>
                <g fill="none" fill-rule="evenodd" id="LabelItem_6" stroke="black" stroke-linecap="square" stroke-linejoin="bevel" stroke-width="1">
                    <g fill="none" fill-rule="evenodd" id="QGraphicsTextItem_8" stroke="black" stroke-linecap="square" stroke-linejoin="bevel" stroke-width="1">
                        


                        


                        <g fill="none" font-family="MS Shell Dlg 2" font-size="11" font-style="normal" font-weight="400" stroke="#969696" stroke-linecap="square" stroke-linejoin="bevel" stroke-opacity="1" stroke-width="1" transform="matrix(1,0,0,1,118.8,205)">
                            <text fill="#969696" fill-opacity="1" font-family="&quot;MS Shell Dlg 2&quot;, sans-serif" font-size="11" font-style="normal" font-weight="400" stroke="none" x="4" xml:space="preserve" y="15">LHC data</text>
                        </g>
                        


                        

                    </g>
                </g>
                <g fill="none" fill-rule="evenodd" id="ItemSample_7" stroke="black" stroke-linecap="square" stroke-linejoin="bevel" stroke-width="1">
                    <g fill="none" font-family="MS Shell Dlg 2" font-size="11" font-style="normal" font-weight="400" stroke="none">
                        <polyline fill="none" points="103.8,250.0 119.8,234.0" vector-effect="non-scaling-stroke"/>
                    </g>
                    <g fill="#0000ff" fill-opacity="0.588235" font-family="MS Shell Dlg 2" font-size="11" font-style="normal" font-weight="400" stroke="#ffffff" stroke-linecap="square" stroke-linejoin="bevel" stroke-opacity="0.784314" stroke-width="1">
                        <path d="M109.3,241.75 L109.3,242.25 L111.55,242.25 L111.55,244.5 L112.05,244.5 L112.05,242.25 L114.3,242.25 L114.3,241.75 L112.05,241.75 L112.05,239.5 L111.55,239.5 L111.55,241.75 L109.3,241.75 " fill-rule="evenodd" vector-effect="non-scaling-stroke"/>
                    </g>
                </g>
                <g fill="none" fill-rule="evenodd" id="LabelItem_7" stroke="black" stroke-linecap="square" stroke-linejoin="bevel" stroke-width="1">
                    <g fill="none" fill-rule="evenodd" id="QGraphicsTextItem_9" stroke="black" stroke-linecap="square" stroke-linejoin="bevel" stroke-width="1">
                        


                        


                        <g fill="none" font-family="MS Shell Dlg 2" font-size="11" font-style="normal" font-weight="400" stroke="#969696" stroke-linecap="square" stroke-linejoin="bevel" stroke-opacity="1" stroke-width="1" transform="matrix(1,0,0,1,118.8,232)">
                            <text fill="#969696" fill-opacity="1" font-family="&quot;MS Shell Dlg 2&quot;, sans-serif" font-size="11" font-style="normal" font-weight="400" stroke="none" x="4" xml:space="preserve" y="15">LHC data</text>
                        </g>
                        


                        

                    </g>
                </g>
            </g>
        </g>
    </g>
    <g fill="none" fill-rule="evenodd" id="LabelItem_8" stroke="black" stroke-linecap="square" stroke-linejoin="bevel" stroke-width="1">
        <g fill="none" fill-rule="evenodd" id="QGraphicsTextItem_10" stroke="black" stroke-linecap="square" stroke-linejoin="bevel" stroke-width="1">
            


            


            <g fill="none" font-family="MS Shell Dlg 2" font-size="11" font-style="normal" font-weight="400" stroke="#969696" stroke-linecap="square" stroke-linejoin="bevel" stroke-opacity="1" stroke-width="1" transform="matrix(1,0,0,1,323.4,3)">
                <text fill="#969696" fill-opacity="1" font-family="&quot;MS Shell Dlg 2&quot;, sans-serif" font-size="14.6667" font-style="normal" font-weight="400" stroke="none" x="4" xml:space="preserve" y="19">Density-Plot</text>
            </g>
            


            

        </g>
    </g>
</g>

</svg>
